%TF.GenerationSoftware,KiCad,Pcbnew,(6.0.4-0)*%
%TF.CreationDate,2023-07-28T13:04:44-04:00*%
%TF.ProjectId,SignalSlinger,5369676e-616c-4536-9c69-6e6765722e6b,rev?*%
%TF.SameCoordinates,Original*%
%TF.FileFunction,Soldermask,Top*%
%TF.FilePolarity,Negative*%
%FSLAX46Y46*%
G04 Gerber Fmt 4.6, Leading zero omitted, Abs format (unit mm)*
G04 Created by KiCad (PCBNEW (6.0.4-0)) date 2023-07-28 13:04:44*
%MOMM*%
%LPD*%
G01*
G04 APERTURE LIST*
G04 Aperture macros list*
%AMRoundRect*
0 Rectangle with rounded corners*
0 $1 Rounding radius*
0 $2 $3 $4 $5 $6 $7 $8 $9 X,Y pos of 4 corners*
0 Add a 4 corners polygon primitive as box body*
4,1,4,$2,$3,$4,$5,$6,$7,$8,$9,$2,$3,0*
0 Add four circle primitives for the rounded corners*
1,1,$1+$1,$2,$3*
1,1,$1+$1,$4,$5*
1,1,$1+$1,$6,$7*
1,1,$1+$1,$8,$9*
0 Add four rect primitives between the rounded corners*
20,1,$1+$1,$2,$3,$4,$5,0*
20,1,$1+$1,$4,$5,$6,$7,0*
20,1,$1+$1,$6,$7,$8,$9,0*
20,1,$1+$1,$8,$9,$2,$3,0*%
%AMRotRect*
0 Rectangle, with rotation*
0 The origin of the aperture is its center*
0 $1 length*
0 $2 width*
0 $3 Rotation angle, in degrees counterclockwise*
0 Add horizontal line*
21,1,$1,$2,0,0,$3*%
%AMFreePoly0*
4,1,37,0.549497,0.799497,0.570000,0.750000,0.570000,-0.750000,0.549497,-0.799497,0.500000,-0.820000,0.000000,-0.820000,-0.012517,-0.814815,-0.081224,-0.813556,-0.100815,-0.810383,-0.236130,-0.768108,-0.254045,-0.759563,-0.372055,-0.681008,-0.386850,-0.667780,-0.478070,-0.559261,-0.488558,-0.542411,-0.545653,-0.412652,-0.550990,-0.393536,-0.568573,-0.259076,-0.566360,-0.258787,-0.570000,-0.250000,
-0.570000,0.250000,-0.569316,0.251652,-0.569130,0.266879,-0.547319,0.406956,-0.541516,0.425935,-0.481268,0.554260,-0.470371,0.570849,-0.376527,0.677107,-0.361413,0.689970,-0.241518,0.765618,-0.223401,0.773722,-0.087094,0.812679,-0.067430,0.815373,-0.011989,0.815034,0.000000,0.820000,0.500000,0.820000,0.549497,0.799497,0.549497,0.799497,$1*%
%AMFreePoly1*
4,1,37,0.012348,0.814885,0.074332,0.814507,0.093962,0.811573,0.229783,0.770954,0.247799,0.762629,0.366761,0.685522,0.381718,0.672475,0.474256,0.565078,0.484948,0.548358,0.543625,0.419306,0.549196,0.400256,0.569293,0.259923,0.570000,0.250000,0.570000,-0.250000,0.569995,-0.250854,0.569846,-0.263070,0.568881,-0.273830,0.545361,-0.413631,0.539327,-0.432538,0.477515,-0.560117,
0.466416,-0.576571,0.371281,-0.681675,0.356011,-0.694353,0.235201,-0.768530,0.216986,-0.776412,0.080213,-0.813701,0.060518,-0.816154,0.011456,-0.815255,0.000000,-0.820000,-0.500000,-0.820000,-0.549497,-0.799497,-0.570000,-0.750000,-0.570000,0.750000,-0.549497,0.799497,-0.500000,0.820000,0.000000,0.820000,0.012348,0.814885,0.012348,0.814885,$1*%
G04 Aperture macros list end*
%ADD10R,1.700000X1.700000*%
%ADD11O,1.700000X1.700000*%
%ADD12RoundRect,0.070000X-0.140000X-0.140000X0.140000X-0.140000X0.140000X0.140000X-0.140000X0.140000X0*%
%ADD13O,0.990000X0.420000*%
%ADD14C,0.720000*%
%ADD15RoundRect,0.060000X-0.115000X-0.300000X0.115000X-0.300000X0.115000X0.300000X-0.115000X0.300000X0*%
%ADD16RoundRect,0.060000X-0.325000X-0.450000X0.325000X-0.450000X0.325000X0.450000X-0.325000X0.450000X0*%
%ADD17RoundRect,0.060000X-0.125000X-0.350000X0.125000X-0.350000X0.125000X0.350000X-0.125000X0.350000X0*%
%ADD18RoundRect,0.060000X-0.850000X-1.075000X0.850000X-1.075000X0.850000X1.075000X-0.850000X1.075000X0*%
%ADD19FreePoly0,90.000000*%
%ADD20FreePoly1,90.000000*%
%ADD21C,1.700000*%
%ADD22RoundRect,0.218750X-0.218750X-0.256250X0.218750X-0.256250X0.218750X0.256250X-0.218750X0.256250X0*%
%ADD23RoundRect,0.250000X-0.262500X-0.450000X0.262500X-0.450000X0.262500X0.450000X-0.262500X0.450000X0*%
%ADD24RoundRect,0.250000X0.337500X0.475000X-0.337500X0.475000X-0.337500X-0.475000X0.337500X-0.475000X0*%
%ADD25RoundRect,0.250000X-0.150000X0.400000X-0.150000X-0.400000X0.150000X-0.400000X0.150000X0.400000X0*%
%ADD26RoundRect,0.243750X0.456250X-0.243750X0.456250X0.243750X-0.456250X0.243750X-0.456250X-0.243750X0*%
%ADD27RoundRect,0.250000X-0.475000X0.250000X-0.475000X-0.250000X0.475000X-0.250000X0.475000X0.250000X0*%
%ADD28RoundRect,0.250000X0.450000X-0.262500X0.450000X0.262500X-0.450000X0.262500X-0.450000X-0.262500X0*%
%ADD29R,1.500000X4.200000*%
%ADD30R,0.600000X0.700000*%
%ADD31R,2.500000X1.800000*%
%ADD32RoundRect,0.218750X0.218750X0.256250X-0.218750X0.256250X-0.218750X-0.256250X0.218750X-0.256250X0*%
%ADD33R,3.150000X1.000000*%
%ADD34C,1.524000*%
%ADD35C,0.600000*%
%ADD36RoundRect,0.250000X0.475000X-0.250000X0.475000X0.250000X-0.475000X0.250000X-0.475000X-0.250000X0*%
%ADD37R,0.470000X0.600000*%
%ADD38RoundRect,0.250000X0.475000X-0.337500X0.475000X0.337500X-0.475000X0.337500X-0.475000X-0.337500X0*%
%ADD39C,2.000000*%
%ADD40R,3.300000X4.400000*%
%ADD41R,3.900000X6.200000*%
%ADD42RoundRect,0.250000X-0.450000X0.262500X-0.450000X-0.262500X0.450000X-0.262500X0.450000X0.262500X0*%
%ADD43RoundRect,0.250000X-0.337500X-0.475000X0.337500X-0.475000X0.337500X0.475000X-0.337500X0.475000X0*%
%ADD44C,3.500000*%
%ADD45RoundRect,0.250000X0.250000X0.475000X-0.250000X0.475000X-0.250000X-0.475000X0.250000X-0.475000X0*%
%ADD46C,0.350000*%
%ADD47RoundRect,0.220000X-0.400000X-0.150000X0.400000X-0.150000X0.400000X0.150000X-0.400000X0.150000X0*%
%ADD48RoundRect,0.250000X-0.250000X-0.475000X0.250000X-0.475000X0.250000X0.475000X-0.250000X0.475000X0*%
%ADD49R,3.700000X1.100000*%
%ADD50R,1.000000X0.900000*%
%ADD51RoundRect,0.250000X-0.400000X-0.150000X0.400000X-0.150000X0.400000X0.150000X-0.400000X0.150000X0*%
%ADD52RoundRect,0.250000X0.875000X0.150000X-0.875000X0.150000X-0.875000X-0.150000X0.875000X-0.150000X0*%
%ADD53RoundRect,0.250000X0.262500X0.450000X-0.262500X0.450000X-0.262500X-0.450000X0.262500X-0.450000X0*%
%ADD54RoundRect,0.218750X-0.256250X0.218750X-0.256250X-0.218750X0.256250X-0.218750X0.256250X0.218750X0*%
%ADD55O,3.500120X1.699260*%
%ADD56RoundRect,0.424815X1.325245X0.424815X-1.325245X0.424815X-1.325245X-0.424815X1.325245X-0.424815X0*%
%ADD57RoundRect,0.250000X0.400000X0.150000X-0.400000X0.150000X-0.400000X-0.150000X0.400000X-0.150000X0*%
%ADD58RoundRect,0.060000X-0.700000X-0.150000X0.700000X-0.150000X0.700000X0.150000X-0.700000X0.150000X0*%
%ADD59O,2.500000X1.600000*%
%ADD60O,7.000000X3.500000*%
%ADD61R,2.550000X2.770000*%
%ADD62RoundRect,0.250000X0.325000X1.100000X-0.325000X1.100000X-0.325000X-1.100000X0.325000X-1.100000X0*%
%ADD63R,2.600000X1.060000*%
%ADD64R,5.700000X5.632000*%
%ADD65C,1.727200*%
%ADD66O,1.727200X1.727200*%
%ADD67RoundRect,0.425000X-0.425000X0.425000X-0.425000X-0.425000X0.425000X-0.425000X0.425000X0.425000X0*%
%ADD68C,1.600000*%
%ADD69RoundRect,0.400000X0.400000X-0.400000X0.400000X0.400000X-0.400000X0.400000X-0.400000X-0.400000X0*%
%ADD70RoundRect,0.400000X-0.400000X-0.400000X0.400000X-0.400000X0.400000X0.400000X-0.400000X0.400000X0*%
%ADD71C,2.100000*%
%ADD72RoundRect,0.525000X-0.525000X0.525000X-0.525000X-0.525000X0.525000X-0.525000X0.525000X0.525000X0*%
%ADD73R,4.000000X1.000000*%
%ADD74R,1.000000X4.000000*%
%ADD75RotRect,1.102000X4.850000X264.000000*%
%ADD76RoundRect,0.425000X0.425000X-0.425000X0.425000X0.425000X-0.425000X0.425000X-0.425000X-0.425000X0*%
%ADD77R,3.480000X1.846667*%
G04 APERTURE END LIST*
D10*
%TO.C,J104*%
X61270000Y-114320000D03*
D11*
X61270000Y-111780000D03*
%TD*%
D12*
%TO.C,U203*%
X87631000Y-76550000D03*
D13*
X87916000Y-76550000D03*
X87916000Y-77050000D03*
D12*
X87631000Y-77050000D03*
D13*
X87916000Y-77550000D03*
D12*
X87631000Y-77550000D03*
X87631000Y-78050000D03*
D13*
X87916000Y-78050000D03*
X87916000Y-78550000D03*
D12*
X87631000Y-78550000D03*
D13*
X90866000Y-78550000D03*
D12*
X91151000Y-78550000D03*
X91151000Y-78050000D03*
D13*
X90866000Y-78050000D03*
X90866000Y-77550000D03*
D12*
X91151000Y-77550000D03*
X91151000Y-77050000D03*
D13*
X90866000Y-77050000D03*
D12*
X91151000Y-76550000D03*
D13*
X90866000Y-76550000D03*
D14*
X88891000Y-77050000D03*
D15*
X89991000Y-76125000D03*
X89591000Y-78975000D03*
X89591000Y-76125000D03*
D14*
X88891000Y-78050000D03*
D16*
X89826000Y-76990000D03*
D17*
X89991000Y-76125000D03*
D16*
X88956000Y-76990000D03*
D17*
X89591000Y-78975000D03*
D14*
X89391000Y-77550000D03*
D15*
X89191000Y-76125000D03*
D16*
X88956000Y-78110000D03*
D17*
X89991000Y-78975000D03*
D15*
X89991000Y-78975000D03*
D16*
X89826000Y-78110000D03*
D15*
X88791000Y-76125000D03*
D17*
X89191000Y-78975000D03*
D14*
X89891000Y-78050000D03*
D18*
X89391000Y-77550000D03*
D14*
X89891000Y-77050000D03*
D17*
X88791000Y-76125000D03*
X89191000Y-76125000D03*
D15*
X88791000Y-78975000D03*
D17*
X88791000Y-78975000D03*
X89591000Y-76125000D03*
D15*
X89191000Y-78975000D03*
%TD*%
D19*
%TO.C,JP301*%
X116740000Y-108720000D03*
D20*
X116740000Y-107420000D03*
%TD*%
D21*
%TO.C,J302*%
X108820000Y-116600000D03*
D11*
X106280000Y-116600000D03*
X103740000Y-116600000D03*
%TD*%
D22*
%TO.C,D106*%
X53472500Y-93550000D03*
X55047500Y-93550000D03*
%TD*%
D23*
%TO.C,R104*%
X64080000Y-110970000D03*
X65905000Y-110970000D03*
%TD*%
D24*
%TO.C,C102*%
X73697500Y-65560000D03*
X71622500Y-65560000D03*
%TD*%
D25*
%TO.C,U202*%
X77860000Y-97000000D03*
X76910000Y-97000000D03*
X75960000Y-97000000D03*
X75960000Y-99600000D03*
X77860000Y-99600000D03*
%TD*%
D26*
%TO.C,D103*%
X65185000Y-115237500D03*
X65185000Y-113362500D03*
%TD*%
D27*
%TO.C,C108*%
X91770000Y-106090000D03*
X91770000Y-107990000D03*
%TD*%
D10*
%TO.C,J203*%
X57490000Y-70525000D03*
D11*
X57490000Y-67985000D03*
%TD*%
D28*
%TO.C,R202*%
X97920000Y-82272500D03*
X97920000Y-80447500D03*
%TD*%
D21*
%TO.C,J202*%
X80950000Y-79635000D03*
D11*
X80950000Y-77095000D03*
X80950000Y-74555000D03*
%TD*%
D29*
%TO.C,L202*%
X87590000Y-72430000D03*
X91190000Y-72430000D03*
%TD*%
D22*
%TO.C,D110*%
X53812500Y-89090000D03*
X55387500Y-89090000D03*
%TD*%
D30*
%TO.C,D201*%
X98750000Y-71870000D03*
X96850000Y-71870000D03*
X97800000Y-73870000D03*
%TD*%
D28*
%TO.C,R103*%
X94890000Y-71542500D03*
X94890000Y-69717500D03*
%TD*%
D31*
%TO.C,D202*%
X114140000Y-80870000D03*
X110140000Y-80870000D03*
%TD*%
D32*
%TO.C,D109*%
X55407500Y-83840000D03*
X53832500Y-83840000D03*
%TD*%
D33*
%TO.C,P101*%
X59955000Y-100070000D03*
X65005000Y-100070000D03*
X59955000Y-102610000D03*
X65005000Y-102610000D03*
X59955000Y-105150000D03*
X65005000Y-105150000D03*
%TD*%
D21*
%TO.C,J101*%
X96930000Y-63270000D03*
D11*
X94390000Y-63270000D03*
%TD*%
D34*
%TO.C,W101*%
X92270000Y-102910000D03*
D35*
X92270000Y-102910000D03*
D34*
X86613146Y-97253146D03*
D35*
X86613146Y-97253146D03*
%TD*%
D36*
%TO.C,C301*%
X116550000Y-104330000D03*
X116550000Y-102430000D03*
%TD*%
%TO.C,C105*%
X85260000Y-102330000D03*
X85260000Y-100430000D03*
%TD*%
D24*
%TO.C,C101*%
X62397500Y-67150000D03*
X60322500Y-67150000D03*
%TD*%
D37*
%TO.C,Q102*%
X102540000Y-66760000D03*
X103840000Y-66760000D03*
X103190000Y-64860000D03*
%TD*%
D38*
%TO.C,C203*%
X69720000Y-97087500D03*
X69720000Y-95012500D03*
%TD*%
D39*
%TO.C,J201*%
X115280000Y-63460000D03*
D40*
X114580000Y-76260000D03*
D41*
X121730000Y-67260000D03*
X108830000Y-67260000D03*
%TD*%
D42*
%TO.C,R203*%
X93750000Y-80447500D03*
X93750000Y-82272500D03*
%TD*%
D43*
%TO.C,C210*%
X75722500Y-101490000D03*
X77797500Y-101490000D03*
%TD*%
D27*
%TO.C,C212*%
X92610000Y-76670000D03*
X92610000Y-78570000D03*
%TD*%
D10*
%TO.C,J103*%
X103955000Y-73790000D03*
D11*
X103955000Y-71250000D03*
%TD*%
D36*
%TO.C,C213*%
X94650000Y-78580000D03*
X94650000Y-76680000D03*
%TD*%
D44*
%TO.C,REF\u002A\u002A*%
X51855000Y-71950000D03*
%TD*%
D43*
%TO.C,C103*%
X60142500Y-74020000D03*
X62217500Y-74020000D03*
%TD*%
D42*
%TO.C,R106*%
X57260000Y-90007500D03*
X57260000Y-91832500D03*
%TD*%
D45*
%TO.C,C216*%
X53410000Y-63330000D03*
X51510000Y-63330000D03*
%TD*%
D27*
%TO.C,C204*%
X122020000Y-80040000D03*
X122020000Y-81940000D03*
%TD*%
D34*
%TO.C,W302*%
X113540000Y-103130000D03*
D35*
X113540000Y-103130000D03*
X119196854Y-108786854D03*
D34*
X119196854Y-108786854D03*
%TD*%
D45*
%TO.C,C107*%
X83240000Y-104920000D03*
X81340000Y-104920000D03*
%TD*%
D27*
%TO.C,C211*%
X95840000Y-80440000D03*
X95840000Y-82340000D03*
%TD*%
D37*
%TO.C,Q101*%
X101060000Y-65690000D03*
X99760000Y-65690000D03*
X100410000Y-67590000D03*
%TD*%
D35*
%TO.C,W301*%
X121600000Y-98990000D03*
D34*
X121600000Y-98990000D03*
X129600000Y-98990000D03*
D35*
X129600000Y-98990000D03*
%TD*%
D26*
%TO.C,D104*%
X74525000Y-115237500D03*
X74525000Y-113362500D03*
%TD*%
D23*
%TO.C,R105*%
X73422500Y-110970000D03*
X75247500Y-110970000D03*
%TD*%
D44*
%TO.C,REF\u002A\u002A*%
X128055000Y-71950000D03*
%TD*%
D36*
%TO.C,C205*%
X86040000Y-78650000D03*
X86040000Y-76750000D03*
%TD*%
D46*
%TO.C,X101*%
X61870000Y-69070000D03*
X62870000Y-69070000D03*
X62870000Y-68650000D03*
X61870000Y-68650000D03*
%TD*%
D36*
%TO.C,C106*%
X87420000Y-102570000D03*
X87420000Y-100670000D03*
%TD*%
D45*
%TO.C,R107*%
X94850000Y-114270000D03*
X92950000Y-114270000D03*
%TD*%
D36*
%TO.C,C215*%
X99030000Y-78530000D03*
X99030000Y-76630000D03*
%TD*%
D24*
%TO.C,C202*%
X65477500Y-91090000D03*
X63402500Y-91090000D03*
%TD*%
D27*
%TO.C,C207*%
X85160000Y-73150000D03*
X85160000Y-75050000D03*
%TD*%
D24*
%TO.C,C209*%
X74227500Y-99390000D03*
X72152500Y-99390000D03*
%TD*%
D47*
%TO.C,U204*%
X55020000Y-63180000D03*
X55020000Y-64130000D03*
X55020000Y-65080000D03*
X57620000Y-65080000D03*
X57620000Y-64130000D03*
X57620000Y-63180000D03*
%TD*%
D30*
%TO.C,D101*%
X103830000Y-68410000D03*
X102430000Y-68410000D03*
%TD*%
D23*
%TO.C,R205*%
X74627500Y-86230000D03*
X76452500Y-86230000D03*
%TD*%
D22*
%TO.C,D112*%
X53492500Y-96250000D03*
X55067500Y-96250000D03*
%TD*%
D10*
%TO.C,J108*%
X101890000Y-112775000D03*
D11*
X101890000Y-110235000D03*
%TD*%
D48*
%TO.C,C109*%
X88480000Y-97290000D03*
X90380000Y-97290000D03*
%TD*%
D38*
%TO.C,C201*%
X63440000Y-97037500D03*
X63440000Y-94962500D03*
%TD*%
D49*
%TO.C,L201*%
X118215000Y-80070000D03*
X118215000Y-83070000D03*
%TD*%
D50*
%TO.C,X102*%
X82900000Y-100530000D03*
X80500000Y-100530000D03*
X80500000Y-102330000D03*
X82900000Y-102330000D03*
%TD*%
D30*
%TO.C,D102*%
X97150000Y-66440000D03*
X95750000Y-66440000D03*
%TD*%
D51*
%TO.C,U103*%
X92107500Y-97400000D03*
X92107500Y-98350000D03*
X92107500Y-99300000D03*
X94707500Y-99300000D03*
X94707500Y-98350000D03*
X94707500Y-97400000D03*
%TD*%
D10*
%TO.C,J106*%
X70410000Y-114320000D03*
D11*
X70410000Y-111780000D03*
%TD*%
D52*
%TO.C,U101*%
X74120000Y-84115000D03*
X74120000Y-82845000D03*
X74120000Y-81575000D03*
X74120000Y-80305000D03*
X74120000Y-79035000D03*
X74120000Y-77765000D03*
X74120000Y-76495000D03*
X74120000Y-75225000D03*
X74120000Y-73955000D03*
X74120000Y-72685000D03*
X74120000Y-71415000D03*
X74120000Y-70145000D03*
X74120000Y-68875000D03*
X74120000Y-67605000D03*
X64720000Y-67605000D03*
X64720000Y-68875000D03*
X64720000Y-70145000D03*
X64720000Y-71415000D03*
X64720000Y-72685000D03*
X64720000Y-73955000D03*
X64720000Y-75225000D03*
X64720000Y-76495000D03*
X64720000Y-77765000D03*
X64720000Y-79035000D03*
X64720000Y-80305000D03*
X64720000Y-81575000D03*
X64720000Y-82845000D03*
X64720000Y-84115000D03*
%TD*%
D32*
%TO.C,D108*%
X55367500Y-86020000D03*
X53792500Y-86020000D03*
%TD*%
D53*
%TO.C,R201*%
X86222500Y-80950000D03*
X84397500Y-80950000D03*
%TD*%
D27*
%TO.C,C104*%
X101000000Y-71170000D03*
X101000000Y-73070000D03*
%TD*%
D45*
%TO.C,R108*%
X98380000Y-114270000D03*
X96480000Y-114270000D03*
%TD*%
D54*
%TO.C,D111*%
X57700000Y-95332500D03*
X57700000Y-96907500D03*
%TD*%
D55*
%TO.C,Q103*%
X101500000Y-105420000D03*
X101500000Y-102880000D03*
D56*
X101500000Y-100340000D03*
%TD*%
D57*
%TO.C,U104*%
X97420000Y-107720000D03*
X97420000Y-106770000D03*
X97420000Y-105820000D03*
X94820000Y-105820000D03*
X94820000Y-106770000D03*
X94820000Y-107720000D03*
%TD*%
D53*
%TO.C,R204*%
X78342500Y-71690000D03*
X76517500Y-71690000D03*
%TD*%
D58*
%TO.C,U102*%
X85310000Y-104500000D03*
X85310000Y-105000000D03*
X85310000Y-105500000D03*
X85310000Y-106000000D03*
X85310000Y-106500000D03*
X89710000Y-106500000D03*
X89710000Y-106000000D03*
X89710000Y-105500000D03*
X89710000Y-105000000D03*
X89710000Y-104500000D03*
%TD*%
D59*
%TO.C,J301*%
X127275000Y-89412500D03*
D60*
X132355000Y-84332500D03*
D59*
X127275000Y-86872500D03*
D60*
X132355000Y-94492500D03*
%TD*%
D10*
%TO.C,J204*%
X63175000Y-63710000D03*
D11*
X60635000Y-63710000D03*
%TD*%
D32*
%TO.C,D105*%
X55027500Y-90800000D03*
X53452500Y-90800000D03*
%TD*%
D61*
%TO.C,C111*%
X106640000Y-105910000D03*
X106640000Y-112370000D03*
%TD*%
D21*
%TO.C,J109*%
X98870000Y-89415000D03*
D11*
X98870000Y-91955000D03*
X98870000Y-94495000D03*
%TD*%
D62*
%TO.C,C110*%
X97375000Y-110230000D03*
X94425000Y-110230000D03*
%TD*%
D43*
%TO.C,C206*%
X75782500Y-95150000D03*
X77857500Y-95150000D03*
%TD*%
D27*
%TO.C,C208*%
X91700000Y-80430000D03*
X91700000Y-82330000D03*
%TD*%
D10*
%TO.C,TP101*%
X91750000Y-116680000D03*
D11*
X94290000Y-116680000D03*
X96830000Y-116680000D03*
X99370000Y-116680000D03*
%TD*%
D53*
%TO.C,R101*%
X101432500Y-63030000D03*
X99607500Y-63030000D03*
%TD*%
D36*
%TO.C,C214*%
X96880000Y-78520000D03*
X96880000Y-76620000D03*
%TD*%
D63*
%TO.C,D107*%
X95530000Y-94306000D03*
D64*
X88970000Y-92020000D03*
D63*
X95530000Y-89734000D03*
%TD*%
D44*
%TO.C,REF\u002A\u002A*%
X128055000Y-106875000D03*
%TD*%
%TO.C,REF\u002A\u002A*%
X51855000Y-106875000D03*
%TD*%
D65*
%TO.C,L302*%
X105327900Y-91085100D03*
D66*
X109353800Y-93028200D03*
%TD*%
D23*
%TO.C,R102*%
X96937500Y-69680000D03*
X98762500Y-69680000D03*
%TD*%
D36*
%TO.C,C112*%
X108620000Y-103180000D03*
X108620000Y-101280000D03*
%TD*%
D57*
%TO.C,U201*%
X67890000Y-94960000D03*
X67890000Y-94010000D03*
X67890000Y-93060000D03*
X65290000Y-93060000D03*
X65290000Y-94960000D03*
%TD*%
D11*
%TO.C,J102*%
X51325000Y-101260000D03*
D67*
X53865000Y-101260000D03*
D11*
X56405000Y-101260000D03*
%TD*%
D68*
%TO.C,C305*%
X122940000Y-90540000D03*
D69*
X122940000Y-85540000D03*
%TD*%
D70*
%TO.C,C303*%
X105960000Y-102740000D03*
D68*
X110960000Y-102740000D03*
%TD*%
D67*
%TO.C,J105*%
X51052500Y-77750000D03*
D11*
X53592500Y-77750000D03*
X56132500Y-77750000D03*
X58672500Y-77750000D03*
%TD*%
D68*
%TO.C,C304*%
X102820000Y-94910000D03*
X102820000Y-89910000D03*
%TD*%
D71*
%TO.C,BT201*%
X89330000Y-62710000D03*
D72*
X89330000Y-67310000D03*
%TD*%
D68*
%TO.C,C302*%
X119160000Y-101950000D03*
D70*
X124160000Y-101950000D03*
%TD*%
D73*
%TO.C,L301*%
X116160000Y-100054650D03*
D65*
X114344900Y-100086750D03*
D66*
X112401800Y-96060850D03*
D73*
X110610000Y-96104650D03*
%TD*%
D39*
%TO.C,L101*%
X111250000Y-107840000D03*
D74*
X111170000Y-106050000D03*
D39*
X114990000Y-110730000D03*
X110590000Y-110200000D03*
D75*
X112720000Y-110450000D03*
D39*
X115730000Y-112860000D03*
D74*
X115730000Y-114910000D03*
%TD*%
D21*
%TO.C,MOD201*%
X75377500Y-61990000D03*
D76*
X72837500Y-61990000D03*
X70297500Y-61990000D03*
D11*
X67757500Y-61990000D03*
%TD*%
D77*
%TO.C,J107*%
X50102500Y-85257500D03*
X50102500Y-88027500D03*
X50102500Y-90797500D03*
X50102500Y-93567500D03*
%TD*%
G36*
X117322121Y-107850002D02*
G01*
X117368614Y-107903658D01*
X117380000Y-107956000D01*
X117380000Y-108194000D01*
X117359998Y-108262121D01*
X117306342Y-108308614D01*
X117254000Y-108320000D01*
X116206000Y-108320000D01*
X116137879Y-108299998D01*
X116091386Y-108246342D01*
X116080000Y-108194000D01*
X116080000Y-107956000D01*
X116100002Y-107887879D01*
X116153658Y-107841386D01*
X116206000Y-107830000D01*
X117254000Y-107830000D01*
X117322121Y-107850002D01*
G37*
M02*
