%TF.GenerationSoftware,KiCad,Pcbnew,8.0.9*%
%TF.CreationDate,2025-09-08T08:43:50-04:00*%
%TF.ProjectId,SignalSlinger,5369676e-616c-4536-9c69-6e6765722e6b,rev?*%
%TF.SameCoordinates,Original*%
%TF.FileFunction,Soldermask,Top*%
%TF.FilePolarity,Negative*%
%FSLAX46Y46*%
G04 Gerber Fmt 4.6, Leading zero omitted, Abs format (unit mm)*
G04 Created by KiCad (PCBNEW 8.0.9) date 2025-09-08 08:43:50*
%MOMM*%
%LPD*%
G01*
G04 APERTURE LIST*
G04 Aperture macros list*
%AMRoundRect*
0 Rectangle with rounded corners*
0 $1 Rounding radius*
0 $2 $3 $4 $5 $6 $7 $8 $9 X,Y pos of 4 corners*
0 Add a 4 corners polygon primitive as box body*
4,1,4,$2,$3,$4,$5,$6,$7,$8,$9,$2,$3,0*
0 Add four circle primitives for the rounded corners*
1,1,$1+$1,$2,$3*
1,1,$1+$1,$4,$5*
1,1,$1+$1,$6,$7*
1,1,$1+$1,$8,$9*
0 Add four rect primitives between the rounded corners*
20,1,$1+$1,$2,$3,$4,$5,0*
20,1,$1+$1,$4,$5,$6,$7,0*
20,1,$1+$1,$6,$7,$8,$9,0*
20,1,$1+$1,$8,$9,$2,$3,0*%
%AMHorizOval*
0 Thick line with rounded ends*
0 $1 width*
0 $2 $3 position (X,Y) of the first rounded end (center of the circle)*
0 $4 $5 position (X,Y) of the second rounded end (center of the circle)*
0 Add line between two ends*
20,1,$1,$2,$3,$4,$5,0*
0 Add two circle primitives to create the rounded ends*
1,1,$1,$2,$3*
1,1,$1,$4,$5*%
%AMFreePoly0*
4,1,19,0.500000,-0.750000,0.000000,-0.750000,0.000000,-0.744911,-0.071157,-0.744911,-0.207708,-0.704816,-0.327430,-0.627875,-0.420627,-0.520320,-0.479746,-0.390866,-0.500000,-0.250000,-0.500000,0.250000,-0.479746,0.390866,-0.420627,0.520320,-0.327430,0.627875,-0.207708,0.704816,-0.071157,0.744911,0.000000,0.744911,0.000000,0.750000,0.500000,0.750000,0.500000,-0.750000,0.500000,-0.750000,
$1*%
%AMFreePoly1*
4,1,19,0.000000,0.744911,0.071157,0.744911,0.207708,0.704816,0.327430,0.627875,0.420627,0.520320,0.479746,0.390866,0.500000,0.250000,0.500000,-0.250000,0.479746,-0.390866,0.420627,-0.520320,0.327430,-0.627875,0.207708,-0.704816,0.071157,-0.744911,0.000000,-0.744911,0.000000,-0.750000,-0.500000,-0.750000,-0.500000,0.750000,0.000000,0.750000,0.000000,0.744911,0.000000,0.744911,
$1*%
G04 Aperture macros list end*
%ADD10R,2.770000X2.550000*%
%ADD11RoundRect,0.200000X0.450000X0.200000X-0.450000X0.200000X-0.450000X-0.200000X0.450000X-0.200000X0*%
%ADD12O,1.800000X3.600000*%
%ADD13RoundRect,0.250000X0.650000X1.550000X-0.650000X1.550000X-0.650000X-1.550000X0.650000X-1.550000X0*%
%ADD14RoundRect,0.060000X-0.700000X-0.150000X0.700000X-0.150000X0.700000X0.150000X-0.700000X0.150000X0*%
%ADD15C,1.000000*%
%ADD16O,1.020000X1.020000*%
%ADD17C,1.020000*%
%ADD18R,3.500000X0.750000*%
%ADD19C,1.700000*%
%ADD20O,1.700000X1.700000*%
%ADD21RoundRect,0.200000X-0.200000X0.562500X-0.200000X-0.562500X0.200000X-0.562500X0.200000X0.562500X0*%
%ADD22RoundRect,0.250000X0.250000X0.475000X-0.250000X0.475000X-0.250000X-0.475000X0.250000X-0.475000X0*%
%ADD23R,1.700000X1.700000*%
%ADD24RoundRect,0.250000X-0.450000X0.262500X-0.450000X-0.262500X0.450000X-0.262500X0.450000X0.262500X0*%
%ADD25RoundRect,0.218750X-0.218750X-0.256250X0.218750X-0.256250X0.218750X0.256250X-0.218750X0.256250X0*%
%ADD26RoundRect,0.250000X-0.262500X-0.450000X0.262500X-0.450000X0.262500X0.450000X-0.262500X0.450000X0*%
%ADD27R,1.200000X0.850000*%
%ADD28RoundRect,0.250000X-0.475000X0.250000X-0.475000X-0.250000X0.475000X-0.250000X0.475000X0.250000X0*%
%ADD29RoundRect,0.200000X-0.200000X0.450000X-0.200000X-0.450000X0.200000X-0.450000X0.200000X0.450000X0*%
%ADD30RoundRect,0.350000X-0.350000X-0.350000X0.350000X-0.350000X0.350000X0.350000X-0.350000X0.350000X0*%
%ADD31O,1.400000X1.400000*%
%ADD32RoundRect,0.243750X0.456250X-0.243750X0.456250X0.243750X-0.456250X0.243750X-0.456250X-0.243750X0*%
%ADD33R,0.600000X0.700000*%
%ADD34RoundRect,0.250000X0.450000X-0.262500X0.450000X0.262500X-0.450000X0.262500X-0.450000X-0.262500X0*%
%ADD35R,2.500000X1.700000*%
%ADD36RoundRect,0.218750X0.218750X0.256250X-0.218750X0.256250X-0.218750X-0.256250X0.218750X-0.256250X0*%
%ADD37R,1.000000X2.150000*%
%ADD38R,3.300000X2.150000*%
%ADD39R,1.400000X1.200000*%
%ADD40C,1.524000*%
%ADD41C,0.600000*%
%ADD42RoundRect,0.250000X0.475000X-0.250000X0.475000X0.250000X-0.475000X0.250000X-0.475000X-0.250000X0*%
%ADD43R,0.470000X0.600000*%
%ADD44C,2.000000*%
%ADD45R,3.300000X4.400000*%
%ADD46R,3.900000X6.200000*%
%ADD47C,5.000000*%
%ADD48RoundRect,0.250000X-0.250000X-0.475000X0.250000X-0.475000X0.250000X0.475000X-0.250000X0.475000X0*%
%ADD49R,0.700000X0.900000*%
%ADD50FreePoly0,90.000000*%
%ADD51FreePoly1,90.000000*%
%ADD52R,1.000000X1.050000*%
%ADD53R,1.200000X1.200000*%
%ADD54RoundRect,0.185000X-0.435000X-0.185000X0.435000X-0.185000X0.435000X0.185000X-0.435000X0.185000X0*%
%ADD55R,3.700000X1.100000*%
%ADD56R,1.000000X0.900000*%
%ADD57RoundRect,0.200000X-0.450000X-0.200000X0.450000X-0.200000X0.450000X0.200000X-0.450000X0.200000X0*%
%ADD58C,1.400000*%
%ADD59RoundRect,0.200000X-0.200000X0.925000X-0.200000X-0.925000X0.200000X-0.925000X0.200000X0.925000X0*%
%ADD60RoundRect,0.218750X-0.256250X0.218750X-0.256250X-0.218750X0.256250X-0.218750X0.256250X0.218750X0*%
%ADD61HorizOval,1.699260X-0.689769X0.578785X0.689769X-0.578785X0*%
%ADD62RoundRect,0.424815X1.288262X-0.526424X-0.742131X1.177278X-1.288262X0.526424X0.742131X-1.177278X0*%
%ADD63RoundRect,0.250000X0.312500X1.450000X-0.312500X1.450000X-0.312500X-1.450000X0.312500X-1.450000X0*%
%ADD64O,2.500000X1.600000*%
%ADD65O,7.000000X3.500000*%
%ADD66RoundRect,0.250000X0.325000X1.100000X-0.325000X1.100000X-0.325000X-1.100000X0.325000X-1.100000X0*%
%ADD67RoundRect,0.250000X0.262500X0.450000X-0.262500X0.450000X-0.262500X-0.450000X0.262500X-0.450000X0*%
%ADD68C,0.001000*%
%ADD69R,1.200000X1.000000*%
%ADD70RoundRect,0.425000X-0.425000X0.425000X-0.425000X-0.425000X0.425000X-0.425000X0.425000X0.425000X0*%
%ADD71O,3.500000X3.500000*%
%ADD72R,2.000000X1.905000*%
%ADD73O,2.000000X1.905000*%
%ADD74RoundRect,0.425000X0.425000X-0.425000X0.425000X0.425000X-0.425000X0.425000X-0.425000X-0.425000X0*%
%ADD75R,3.480000X1.846667*%
%ADD76R,1.000000X3.150000*%
G04 APERTURE END LIST*
D10*
%TO.C,C111*%
X117670000Y-113460000D03*
X124130000Y-113460000D03*
%TD*%
%TO.C,C215*%
X97680000Y-89020000D03*
X104140000Y-89020000D03*
%TD*%
D11*
%TO.C,U104*%
X102100000Y-106970000D03*
X102100000Y-106020000D03*
X102100000Y-105070000D03*
X99500000Y-105070000D03*
X99500000Y-106020000D03*
X99500000Y-106970000D03*
%TD*%
D12*
%TO.C,J205*%
X79000000Y-69000000D03*
D13*
X76500000Y-69000000D03*
X74000000Y-69000000D03*
D12*
X71500000Y-69000000D03*
%TD*%
D14*
%TO.C,U102*%
X89990000Y-103750000D03*
X89990000Y-104250000D03*
X89990000Y-104750000D03*
X89990000Y-105250000D03*
X89990000Y-105750000D03*
X94390000Y-105750000D03*
X94390000Y-105250000D03*
X94390000Y-104750000D03*
X94390000Y-104250000D03*
X94390000Y-103750000D03*
%TD*%
D15*
%TO.C,JP101*%
X103785000Y-107090000D03*
X105055000Y-107090000D03*
X106325000Y-107090000D03*
%TD*%
D16*
%TO.C,JP102*%
X100420000Y-112790000D03*
D17*
X101690000Y-112790000D03*
%TD*%
D18*
%TO.C,J101*%
X79500000Y-110675000D03*
D19*
X80750000Y-110685000D03*
D20*
X78210000Y-110685000D03*
%TD*%
D21*
%TO.C,U206*%
X67500000Y-70500000D03*
X66550000Y-70500000D03*
X65600000Y-70500000D03*
X65600000Y-72775000D03*
X66550000Y-72775000D03*
X67500000Y-72775000D03*
%TD*%
D22*
%TO.C,C299*%
X67450000Y-68500000D03*
X65550000Y-68500000D03*
%TD*%
D23*
%TO.C,J104*%
X61270000Y-114320000D03*
D20*
X61270000Y-111780000D03*
%TD*%
D24*
%TO.C,R110*%
X102250000Y-98887500D03*
X102250000Y-100712500D03*
%TD*%
D25*
%TO.C,D106*%
X53472500Y-93550000D03*
X55047500Y-93550000D03*
%TD*%
D26*
%TO.C,R104*%
X64080000Y-110970000D03*
X65905000Y-110970000D03*
%TD*%
D27*
%TO.C,D206*%
X63750000Y-98065000D03*
X63750000Y-101115000D03*
%TD*%
D28*
%TO.C,C102*%
X80500000Y-88050000D03*
X80500000Y-89950000D03*
%TD*%
D29*
%TO.C,U202*%
X82609792Y-100780000D03*
X81659792Y-100780000D03*
X80709792Y-100780000D03*
X80709792Y-103380000D03*
X82609792Y-103380000D03*
%TD*%
D27*
%TO.C,D204*%
X93750000Y-62225000D03*
X93750000Y-65275000D03*
%TD*%
D30*
%TO.C,R1*%
X120620000Y-90270000D03*
D31*
X123160000Y-90270000D03*
%TD*%
D32*
%TO.C,D103*%
X65185000Y-115237500D03*
X65185000Y-113362500D03*
%TD*%
D28*
%TO.C,C108*%
X96450000Y-105340000D03*
X96450000Y-107240000D03*
%TD*%
D23*
%TO.C,J203*%
X52570000Y-66205000D03*
D20*
X52570000Y-63665000D03*
%TD*%
D25*
%TO.C,D110*%
X53812500Y-89090000D03*
X55387500Y-89090000D03*
%TD*%
D33*
%TO.C,D201*%
X98750000Y-71870000D03*
X96850000Y-71870000D03*
X97800000Y-73870000D03*
%TD*%
D34*
%TO.C,R103*%
X94960000Y-72162500D03*
X94960000Y-70337500D03*
%TD*%
D35*
%TO.C,D202*%
X128940000Y-79170000D03*
X132940000Y-79170000D03*
%TD*%
D36*
%TO.C,D109*%
X55407500Y-83840000D03*
X53832500Y-83840000D03*
%TD*%
D37*
%TO.C,U205*%
X71400000Y-102470000D03*
D38*
X69100000Y-108270000D03*
D37*
X69100000Y-102470000D03*
X66800000Y-102470000D03*
%TD*%
D39*
%TO.C,D209*%
X117225000Y-82912500D03*
X117225000Y-79812500D03*
%TD*%
D40*
%TO.C,W101*%
X97610000Y-101910000D03*
D41*
X97610000Y-101910000D03*
D40*
X94873839Y-109427541D03*
D41*
X94873839Y-109427541D03*
%TD*%
D42*
%TO.C,C301*%
X109670000Y-99230000D03*
X109670000Y-97330000D03*
%TD*%
%TO.C,C105*%
X89940000Y-101580000D03*
X89940000Y-99680000D03*
%TD*%
D22*
%TO.C,C101*%
X72200000Y-78750000D03*
X70300000Y-78750000D03*
%TD*%
D43*
%TO.C,Q102*%
X102540000Y-66760000D03*
X103840000Y-66760000D03*
X103190000Y-64860000D03*
%TD*%
D22*
%TO.C,C203*%
X72370000Y-93170000D03*
X70470000Y-93170000D03*
%TD*%
D44*
%TO.C,J201*%
X115280000Y-63460000D03*
D45*
X114580000Y-76260000D03*
D46*
X121730000Y-67260000D03*
X108830000Y-67260000D03*
%TD*%
D42*
%TO.C,C210*%
X82400000Y-107040000D03*
X82400000Y-105140000D03*
%TD*%
D28*
%TO.C,C208*%
X118440000Y-87830000D03*
X118440000Y-89730000D03*
%TD*%
D23*
%TO.C,J103*%
X87600000Y-110825000D03*
D20*
X85060000Y-110825000D03*
%TD*%
D47*
%TO.C,REF\u002A\u002A*%
X51855000Y-71950000D03*
%TD*%
D48*
%TO.C,C103*%
X72300000Y-74000000D03*
X74200000Y-74000000D03*
%TD*%
D24*
%TO.C,R106*%
X57260000Y-90007500D03*
X57260000Y-91832500D03*
%TD*%
D22*
%TO.C,C216*%
X57170000Y-62890000D03*
X55270000Y-62890000D03*
%TD*%
D48*
%TO.C,C204*%
X124470000Y-76680000D03*
X126370000Y-76680000D03*
%TD*%
D39*
%TO.C,D208*%
X119625000Y-84032500D03*
X119625000Y-80932500D03*
%TD*%
D22*
%TO.C,C107*%
X87920000Y-104170000D03*
X86020000Y-104170000D03*
%TD*%
D49*
%TO.C,Q101*%
X101060000Y-65690000D03*
X99760000Y-65690000D03*
X100410000Y-67590000D03*
%TD*%
D32*
%TO.C,D104*%
X74525000Y-115237500D03*
X74525000Y-113362500D03*
%TD*%
D26*
%TO.C,R105*%
X73422500Y-110970000D03*
X75247500Y-110970000D03*
%TD*%
D28*
%TO.C,C218*%
X64350000Y-102910000D03*
X64350000Y-104810000D03*
%TD*%
D47*
%TO.C,REF\u002A\u002A*%
X128055000Y-71950000D03*
%TD*%
D42*
%TO.C,C205*%
X114250000Y-89950000D03*
X114250000Y-88050000D03*
%TD*%
D48*
%TO.C,C304*%
X120680000Y-103330000D03*
X122580000Y-103330000D03*
%TD*%
D50*
%TO.C,JP202*%
X125000000Y-80250000D03*
D51*
X125000000Y-78950000D03*
%TD*%
D52*
%TO.C,X101*%
X70325000Y-81200000D03*
X70325000Y-83800000D03*
X72175000Y-83800000D03*
X72175000Y-81200000D03*
%TD*%
D42*
%TO.C,C106*%
X92100000Y-101820000D03*
X92100000Y-99920000D03*
%TD*%
D53*
%TO.C,D115*%
X95990000Y-93080000D03*
X98790000Y-93080000D03*
%TD*%
D22*
%TO.C,R107*%
X94850000Y-114270000D03*
X92950000Y-114270000D03*
%TD*%
%TO.C,C202*%
X65640000Y-89880000D03*
X63740000Y-89880000D03*
%TD*%
D53*
%TO.C,D203*%
X71170000Y-99760000D03*
X68370000Y-99760000D03*
%TD*%
D22*
%TO.C,C207*%
X122870000Y-85860000D03*
X120970000Y-85860000D03*
%TD*%
D27*
%TO.C,D207*%
X61350000Y-98105000D03*
X61350000Y-101155000D03*
%TD*%
D28*
%TO.C,C209*%
X80250000Y-105140000D03*
X80250000Y-107040000D03*
%TD*%
D54*
%TO.C,U204*%
X58800000Y-62875000D03*
X58800000Y-63825000D03*
X58800000Y-64775000D03*
X61400000Y-64775000D03*
X61400000Y-63825000D03*
X61400000Y-62875000D03*
%TD*%
D33*
%TO.C,D101*%
X101420000Y-69540000D03*
X102820000Y-69540000D03*
%TD*%
D25*
%TO.C,D112*%
X53492500Y-96250000D03*
X55067500Y-96250000D03*
%TD*%
D48*
%TO.C,C109*%
X93240000Y-96800000D03*
X95140000Y-96800000D03*
%TD*%
%TO.C,C201*%
X61830000Y-93460000D03*
X63730000Y-93460000D03*
%TD*%
D42*
%TO.C,C303*%
X114980000Y-104980000D03*
X114980000Y-103080000D03*
%TD*%
D55*
%TO.C,L201*%
X137220000Y-77320000D03*
X137220000Y-80320000D03*
%TD*%
D56*
%TO.C,X102*%
X87530000Y-99830000D03*
X85230000Y-99830000D03*
X85230000Y-101530000D03*
X87530000Y-101530000D03*
%TD*%
D33*
%TO.C,D102*%
X98300000Y-79200000D03*
X96900000Y-79200000D03*
%TD*%
D42*
%TO.C,C302*%
X109740000Y-95600000D03*
X109740000Y-93700000D03*
%TD*%
D57*
%TO.C,U103*%
X96787500Y-96650000D03*
X96787500Y-97600000D03*
X96787500Y-98550000D03*
X99387500Y-98550000D03*
X99387500Y-97600000D03*
X99387500Y-96650000D03*
%TD*%
D23*
%TO.C,J106*%
X70410000Y-114320000D03*
D20*
X70410000Y-111780000D03*
%TD*%
D58*
%TO.C,R2*%
X123060000Y-87920000D03*
D31*
X120520000Y-87920000D03*
%TD*%
D59*
%TO.C,U101*%
X90755000Y-76300000D03*
X89485000Y-76300000D03*
X88215000Y-76300000D03*
X86945000Y-76300000D03*
X85675000Y-76300000D03*
X84405000Y-76300000D03*
X83135000Y-76300000D03*
X81865000Y-76300000D03*
X80595000Y-76300000D03*
X79325000Y-76300000D03*
X78055000Y-76300000D03*
X76785000Y-76300000D03*
X75515000Y-76300000D03*
X74245000Y-76300000D03*
X74245000Y-85700000D03*
X75515000Y-85700000D03*
X76785000Y-85700000D03*
X78055000Y-85700000D03*
X79325000Y-85700000D03*
X80595000Y-85700000D03*
X81865000Y-85700000D03*
X83135000Y-85700000D03*
X84405000Y-85700000D03*
X85675000Y-85700000D03*
X86945000Y-85700000D03*
X88215000Y-85700000D03*
X89485000Y-85700000D03*
X90755000Y-85700000D03*
%TD*%
D36*
%TO.C,D108*%
X55367500Y-86020000D03*
X53792500Y-86020000D03*
%TD*%
D28*
%TO.C,C104*%
X101000000Y-71170000D03*
X101000000Y-73070000D03*
%TD*%
D22*
%TO.C,R108*%
X98380000Y-114270000D03*
X96480000Y-114270000D03*
%TD*%
D60*
%TO.C,D111*%
X57700000Y-95332500D03*
X57700000Y-96907500D03*
%TD*%
D61*
%TO.C,Q103*%
X103577319Y-103585753D03*
X105210000Y-101640000D03*
D62*
X106842681Y-99694247D03*
%TD*%
D63*
%TO.C,F201*%
X137487500Y-73050000D03*
X133212500Y-73050000D03*
%TD*%
D44*
%TO.C,L301*%
X111810000Y-97995100D03*
X115810000Y-99938200D03*
%TD*%
%TO.C,L101*%
X105790000Y-114860000D03*
X108290000Y-108860000D03*
X108290000Y-114860000D03*
X110790000Y-108860000D03*
%TD*%
D34*
%TO.C,R205*%
X76270000Y-107272500D03*
X76270000Y-105447500D03*
%TD*%
D58*
%TO.C,R109*%
X108970000Y-106490000D03*
D31*
X108970000Y-103950000D03*
%TD*%
D64*
%TO.C,J301*%
X127275000Y-89412500D03*
X127275000Y-86872500D03*
D65*
X132355000Y-84332500D03*
X132355000Y-94492500D03*
%TD*%
D20*
%TO.C,J204*%
X64160000Y-63850000D03*
D23*
X66700000Y-63850000D03*
%TD*%
D36*
%TO.C,D105*%
X55027500Y-90800000D03*
X53452500Y-90800000D03*
%TD*%
D66*
%TO.C,C110*%
X102055000Y-109480000D03*
X99105000Y-109480000D03*
%TD*%
D28*
%TO.C,C206*%
X82560000Y-97110000D03*
X82560000Y-99010000D03*
%TD*%
D34*
%TO.C,R204*%
X76310000Y-103792500D03*
X76310000Y-101967500D03*
%TD*%
D53*
%TO.C,D107*%
X93870000Y-94840000D03*
X93870000Y-92040000D03*
%TD*%
D23*
%TO.C,TP101*%
X91750000Y-116680000D03*
D20*
X94290000Y-116680000D03*
X96830000Y-116680000D03*
X99370000Y-116680000D03*
%TD*%
D67*
%TO.C,R101*%
X101432500Y-63030000D03*
X99607500Y-63030000D03*
%TD*%
D47*
%TO.C,REF\u002A\u002A*%
X128055000Y-106875000D03*
%TD*%
D42*
%TO.C,C305*%
X119380000Y-95820000D03*
X119380000Y-93920000D03*
%TD*%
D47*
%TO.C,REF\u002A\u002A*%
X51855000Y-106875000D03*
%TD*%
D44*
%TO.C,L302*%
X123430000Y-100494900D03*
X119430000Y-98551800D03*
%TD*%
D26*
%TO.C,R102*%
X96937500Y-69680000D03*
X98762500Y-69680000D03*
%TD*%
D48*
%TO.C,C112*%
X101870000Y-116330000D03*
X103770000Y-116330000D03*
%TD*%
D68*
%TO.C,SW101*%
X82190000Y-117565000D03*
X82190000Y-114815000D03*
D69*
X84990000Y-115340000D03*
X79390000Y-115340000D03*
X79390000Y-117040000D03*
X84990000Y-117040000D03*
%TD*%
D11*
%TO.C,U201*%
X68340000Y-93700000D03*
X68340000Y-92750000D03*
X68340000Y-91800000D03*
X65740000Y-91800000D03*
X65740000Y-93700000D03*
%TD*%
D28*
%TO.C,C217*%
X73780000Y-101990000D03*
X73780000Y-103890000D03*
%TD*%
D20*
%TO.C,J102*%
X52045000Y-114710000D03*
D70*
X54585000Y-114710000D03*
D20*
X57125000Y-114710000D03*
%TD*%
D70*
%TO.C,J105*%
X51052500Y-77750000D03*
D20*
X53592500Y-77750000D03*
X56132500Y-77750000D03*
X58672500Y-77750000D03*
%TD*%
D71*
%TO.C,U203*%
X105580000Y-81100000D03*
D72*
X122240000Y-78560000D03*
D73*
X122240000Y-81100000D03*
X122240000Y-83640000D03*
%TD*%
D19*
%TO.C,MOD201*%
X70197500Y-95890000D03*
D74*
X67657500Y-95890000D03*
X65117500Y-95890000D03*
D20*
X62577500Y-95890000D03*
%TD*%
D75*
%TO.C,J107*%
X48102500Y-85257500D03*
X48102500Y-88027500D03*
X48102500Y-90797500D03*
X48102500Y-93567500D03*
%TD*%
D76*
%TO.C,P101*%
X85420000Y-70050000D03*
X85420000Y-65000000D03*
X87960000Y-70050000D03*
X87960000Y-65000000D03*
X90500000Y-70050000D03*
X90500000Y-65000000D03*
%TD*%
M02*
