M48
; DRILL file {KiCad (6.0.4-0)} date 
; FORMAT={-:-/ absolute / metric / decimal}
; #@! TF.CreationDate,2023-11-25T15:00:25-05:00
; #@! TF.GenerationSoftware,Kicad,Pcbnew,(6.0.4-0)
; #@! TF.FileFunction,Plated,1,2,PTH
FMAT,2
METRIC
; #@! TA.AperFunction,Plated,PTH,ComponentDrill
T1C0.300
; #@! TA.AperFunction,Plated,PTH,ComponentDrill
T2C0.331
; #@! TA.AperFunction,Plated,PTH,ViaDrill
T3C0.400
; #@! TA.AperFunction,Plated,PTH,ViaDrill
T4C0.600
; #@! TA.AperFunction,Plated,PTH,ComponentDrill
T5C0.700
; #@! TA.AperFunction,Plated,PTH,ComponentDrill
T6C0.800
; #@! TA.AperFunction,Plated,PTH,ComponentDrill
T7C0.890
; #@! TA.AperFunction,Plated,PTH,ComponentDrill
T8C1.000
; #@! TA.AperFunction,Plated,PTH,ComponentDrill
T9C1.001
; #@! TA.AperFunction,Plated,PTH,ComponentDrill
T10C1.016
; #@! TA.AperFunction,Plated,PTH,ComponentDrill
T11C1.100
; #@! TA.AperFunction,Plated,PTH,ComponentDrill
T12C2.010
%
G90
G05
T1
X88.891Y-77.05
X88.891Y-78.05
X89.391Y-77.55
X89.891Y-77.05
X89.891Y-78.05
T2
X91.293Y-96.503
X96.95Y-102.16
T3
X49.96Y-97.74
X49.98Y-112.98
X49.98Y-115.17
X50.0Y-117.63
X50.01Y-103.13
X50.01Y-110.59
X50.03Y-82.0
X50.05Y-80.03
X50.06Y-99.66
X50.09Y-75.77
X50.11Y-68.11
X50.15Y-61.2
X50.15Y-64.37
X50.67Y-93.55
X51.31Y-94.21
X51.65Y-89.3
X51.77Y-84.597
X52.04Y-91.522
X52.06Y-96.98
X52.25Y-117.63
X52.63Y-95.2
X52.66Y-83.86
X52.666Y-85.455
X52.77Y-92.21
X52.88Y-61.2
X53.34Y-87.57
X53.57Y-66.11
X54.59Y-97.47
X54.76Y-117.6
X55.262Y-99.052
X55.41Y-79.99
X55.45Y-82.66
X55.78Y-61.2
X55.89Y-91.81
X56.04Y-95.45
X56.1Y-98.4
X56.276Y-89.085
X56.68Y-93.24
X56.75Y-85.364
X57.05Y-86.66
X57.26Y-117.58
X57.5Y-80.18
X57.76Y-98.4
X57.83Y-82.45
X58.05Y-83.81
X58.158Y-92.718
X58.21Y-87.46
X58.23Y-85.39
X58.295Y-88.97
X58.295Y-90.94
X58.69Y-61.2
X59.69Y-99.13
X60.0Y-117.58
X60.53Y-79.73
X60.6Y-92.24
X60.6Y-96.62
X60.603Y-94.434
X60.82Y-95.41
X61.19Y-78.57
X61.24Y-83.569
X61.56Y-86.14
X61.59Y-61.17
X61.74Y-90.54
X61.81Y-80.85
X61.87Y-99.17
X61.9Y-77.86
X62.58Y-91.36
X62.68Y-84.96
X62.7Y-117.56
X62.85Y-83.78
X63.014Y-75.434
X64.06Y-99.18
X64.45Y-61.17
X64.79Y-66.67
X65.61Y-117.57
X65.79Y-87.88
X66.31Y-85.44
X66.51Y-66.77
X66.55Y-99.11
X66.57Y-68.32
X66.59Y-74.56
X66.6Y-69.9
X66.79Y-80.32
X67.0Y-76.65
X67.07Y-61.14
X67.12Y-92.75
X67.12Y-94.2
X67.34Y-111.0
X67.727Y-72.278
X67.77Y-73.33
X68.05Y-90.19
X68.41Y-69.58
X68.49Y-117.57
X68.58Y-77.11
X68.607Y-65.61
X68.607Y-67.48
X68.61Y-75.2
X69.3Y-68.38
X69.33Y-87.57
X69.564Y-88.79
X69.94Y-61.14
X70.35Y-90.11
X70.67Y-67.61
X70.7Y-71.91
X70.94Y-88.74
X71.39Y-92.024
X71.55Y-117.57
X72.474Y-81.59
X72.474Y-82.81
X72.7Y-61.14
X72.89Y-85.42
X72.92Y-90.33
X73.02Y-99.7
X73.39Y-86.85
X73.76Y-89.54
X74.62Y-117.53
X74.8Y-97.86
X74.846Y-98.858
X74.85Y-90.575
X75.1Y-61.14
X75.14Y-108.53
X75.38Y-92.54
X75.49Y-87.53
X75.65Y-89.54
X75.66Y-66.52
X76.118Y-82.648
X76.37Y-91.3
X76.47Y-81.38
X76.54Y-93.68
X76.57Y-71.17
X76.63Y-79.91
X76.68Y-75.37
X76.82Y-97.42
X76.83Y-95.01
X76.87Y-69.47
X77.28Y-72.39
X77.32Y-83.94
X77.37Y-61.14
X77.49Y-85.35
X77.49Y-89.56
X77.53Y-87.5
X77.63Y-117.53
X77.66Y-96.48
X77.8Y-67.32
X77.82Y-75.45
X77.867Y-95.243
X79.265Y-79.165
X79.71Y-97.07
X79.89Y-98.83
X80.04Y-61.14
X80.12Y-79.99
X80.36Y-87.64
X80.904Y-93.42
X80.91Y-97.75
X80.99Y-117.51
X81.27Y-96.05
X81.7Y-94.97
X81.73Y-89.27
X81.94Y-73.52
X82.06Y-81.55
X82.15Y-83.39
X82.22Y-85.43
X82.23Y-71.63
X82.65Y-70.21
X82.83Y-65.34
X82.89Y-72.82
X83.07Y-79.52
X83.17Y-61.13
X83.23Y-87.45
X83.3Y-90.9
X83.36Y-117.59
X83.935Y-95.065
X84.34Y-82.78
X84.36Y-65.63
X84.39Y-78.68
X84.42Y-88.91
X84.46Y-77.67
X84.516Y-96.045
X84.6Y-92.67
X84.72Y-71.87
X85.0Y-85.73
X85.12Y-98.26
X86.12Y-67.06
X86.14Y-71.91
X86.32Y-61.13
X86.335Y-84.305
X86.36Y-106.86
X86.39Y-97.94
X86.44Y-82.73
X86.44Y-117.54
X86.99Y-69.21
X87.32Y-66.094
X87.53Y-85.74
X87.61Y-88.45
X87.69Y-105.72
X87.89Y-84.3
X88.24Y-67.66
X88.38Y-79.98
X88.38Y-82.1
X88.52Y-98.11
X88.68Y-80.99
X88.75Y-100.52
X88.81Y-117.35
X88.95Y-71.43
X88.95Y-85.69
X88.96Y-75.14
X88.97Y-66.094
X89.03Y-69.19
X89.04Y-73.23
X89.3Y-84.45
X89.42Y-80.0
X89.43Y-82.52
X89.54Y-61.025
X89.84Y-70.37
X89.84Y-72.29
X89.84Y-74.08
X90.1Y-67.701
X90.14Y-75.19
X90.18Y-81.0
X90.38Y-82.1
X90.402Y-79.969
X90.55Y-85.59
X90.64Y-107.57
X90.75Y-66.07
X90.85Y-69.2
X90.95Y-100.61
X91.08Y-98.95
X91.21Y-103.52
X91.23Y-105.96
X92.13Y-67.701
X92.51Y-61.06
X92.79Y-69.22
X92.81Y-66.07
X93.09Y-106.22
X93.1Y-104.75
X93.13Y-103.02
X93.16Y-72.93
X93.18Y-74.88
X93.2Y-71.09
X93.65Y-87.49
X94.68Y-101.97
X94.7Y-87.43
X94.78Y-85.18
X94.784Y-79.568
X94.9Y-92.12
X95.07Y-75.02
X95.27Y-61.04
X95.38Y-117.88
X95.59Y-97.825
X95.84Y-79.34
X96.07Y-83.92
X96.891Y-79.563
X97.27Y-75.22
X97.29Y-92.12
X97.453Y-86.923
X97.78Y-117.88
X97.96Y-79.335
X97.98Y-61.11
X98.06Y-103.72
X98.09Y-99.46
X98.1Y-97.1
X98.61Y-94.25
X98.662Y-83.522
X98.73Y-85.8
X98.998Y-79.613
X99.13Y-74.71
X99.43Y-93.18
X99.5Y-92.12
X99.51Y-102.25
X99.54Y-103.85
X99.6Y-71.14
X99.632Y-82.552
X99.98Y-84.6
X100.11Y-75.16
X100.155Y-117.899
X100.25Y-79.17
X100.422Y-86.662
X100.67Y-81.51
X101.0Y-61.031
X101.18Y-83.36
X101.23Y-80.17
X101.412Y-85.672
X101.43Y-92.12
X101.7Y-66.5
X102.15Y-117.89
X102.49Y-99.77
X102.89Y-72.41
X102.94Y-74.33
X103.111Y-86.0
X103.12Y-77.88
X103.15Y-79.7
X103.15Y-82.2
X103.16Y-76.254
X103.16Y-94.39
X103.21Y-84.05
X103.28Y-92.25
X103.72Y-98.24
X103.78Y-61.04
X104.07Y-65.67
X104.61Y-91.25
X104.75Y-74.33
X104.77Y-117.89
X104.84Y-77.91
X104.84Y-84.31
X104.86Y-68.0
X104.9Y-85.87
X105.11Y-96.89
X105.26Y-76.3
X105.45Y-66.79
X105.63Y-93.9
X106.07Y-89.89
X106.18Y-74.33
X106.28Y-95.89
X106.66Y-61.04
X106.69Y-77.88
X106.72Y-84.28
X106.78Y-85.83
X107.13Y-92.46
X107.15Y-117.89
X107.46Y-88.5
X107.58Y-74.27
X107.631Y-76.476
X107.8Y-97.06
X108.262Y-79.298
X108.43Y-84.2
X108.43Y-85.85
X108.57Y-102.42
X109.42Y-61.01
X109.53Y-78.21
X109.6Y-76.63
X109.6Y-117.86
X109.69Y-100.77
X109.85Y-82.23
X109.93Y-85.9
X109.96Y-84.15
X111.02Y-80.96
X111.5Y-88.62
X111.764Y-100.96
X111.77Y-76.73
X111.82Y-95.67
X112.0Y-90.25
X112.2Y-82.03
X112.5Y-61.05
X112.8Y-117.83
X112.95Y-96.83
X113.2Y-101.03
X114.95Y-101.32
X115.3Y-61.08
X115.37Y-96.984
X115.83Y-101.85
X116.27Y-117.77
X116.885Y-97.67
X116.885Y-98.72
X117.643Y-103.688
X117.94Y-92.58
X118.07Y-109.52
X118.355Y-101.063
X118.434Y-97.276
X118.55Y-61.08
X118.655Y-93.44
X118.655Y-94.731
X119.29Y-91.31
X119.35Y-102.17
X119.73Y-117.72
X119.82Y-108.43
X120.204Y-93.087
X120.204Y-94.5
X120.204Y-95.94
X120.25Y-101.506
X120.27Y-97.09
X121.2Y-97.528
X121.64Y-61.08
X121.72Y-101.54
X121.95Y-108.43
X122.67Y-97.528
X123.51Y-102.14
X123.58Y-117.77
X123.73Y-110.26
X124.16Y-97.777
X124.54Y-61.08
X124.965Y-95.44
X124.965Y-96.85
X124.966Y-93.814
X125.15Y-101.01
X125.61Y-92.73
X126.45Y-113.52
X126.5Y-90.92
X126.5Y-91.93
X126.58Y-97.46
X126.58Y-100.34
X126.62Y-95.69
X126.81Y-94.18
X126.83Y-117.72
X127.19Y-98.66
X127.5Y-61.02
X127.78Y-93.1
X128.12Y-91.99
X128.47Y-90.79
X129.87Y-65.77
X129.9Y-61.05
X129.9Y-67.98
X129.91Y-115.24
X129.91Y-117.77
X129.93Y-63.42
X129.96Y-112.05
X132.61Y-69.79
X133.01Y-108.35
X135.32Y-69.82
X136.0Y-108.4
X138.85Y-101.58
X138.94Y-69.97
X138.95Y-91.12
X138.95Y-98.04
X139.0Y-79.25
X139.0Y-81.2
X139.0Y-87.63
X139.0Y-105.16
X139.02Y-84.86
X139.02Y-94.64
X139.04Y-77.24
X139.05Y-108.45
X139.07Y-72.73
T4
X86.07Y-88.4
X98.44Y-65.96
T5
X120.52Y-85.86
X120.6Y-88.18
X123.06Y-85.86
X123.14Y-88.18
T6
X110.15Y-90.25
X110.15Y-95.25
X117.58Y-102.29
X117.58Y-107.29
X117.66Y-91.11
X117.66Y-96.11
X125.76Y-98.94
X130.76Y-98.94
T7
X127.275Y-86.873
X127.275Y-89.412
T8
X51.052Y-77.75
X52.045Y-114.71
X53.592Y-77.75
X54.585Y-114.71
X56.133Y-77.75
X57.125Y-114.71
X57.49Y-67.985
X57.49Y-70.525
X58.672Y-77.75
X60.635Y-63.71
X61.27Y-111.78
X61.27Y-114.32
X62.578Y-95.89
X63.175Y-63.71
X65.117Y-95.89
X67.657Y-95.89
X70.197Y-95.89
X70.41Y-111.78
X70.41Y-114.32
X78.21Y-110.685
X80.75Y-110.685
X85.06Y-110.825
X87.6Y-110.825
X91.75Y-116.68
X94.29Y-116.68
X96.83Y-116.68
X99.37Y-116.68
T9
X103.577Y-103.586
X105.21Y-101.64
X106.843Y-99.694
X122.759Y-78.66
X122.759Y-81.2
X122.759Y-83.74
T10
X105.79Y-114.86
X108.29Y-108.86
X108.29Y-114.86
X110.79Y-108.86
X111.81Y-97.995
X115.81Y-99.938
X119.43Y-98.552
X123.43Y-100.495
T11
X77.52Y-99.75
X77.52Y-104.35
T12
X132.355Y-84.332
X132.355Y-94.492
T0
M30
