%FSLAX45Y45*%
G04 Gerber Fmt 4.5, Leading zero omitted, Abs format (unit mm)*
G04 Created by KiCad (PCBNEW (6.0.4-0)) date 2024-05-06 18:19:20*
%MOMM*%
%LPD*%
G01*
G04 APERTURE LIST*
%TA.AperFunction,Profile*%
%ADD10C,0.100000*%
%TD*%
%ADD11C,0.200000*%
%ADD12C,0.350000*%
G04 APERTURE END LIST*
D10*
X4883240Y-5988500D02*
X13107760Y-5988500D01*
X4600000Y-10989760D02*
X4883240Y-10989760D01*
X4600000Y-6892740D02*
X4883240Y-6892740D01*
X13107760Y-11894000D02*
X4883240Y-11894000D01*
X13107760Y-10989760D02*
X14012000Y-10989760D01*
X13107760Y-11894000D02*
X13107760Y-10989760D01*
X4883240Y-10989760D02*
X4883240Y-11894000D01*
X14012000Y-6892740D02*
X14012000Y-10989760D01*
X4600000Y-6892740D02*
X4600000Y-10989760D01*
X13107760Y-6892740D02*
X14012000Y-6892740D01*
X4883240Y-6892740D02*
X4883240Y-5988500D01*
X13107760Y-5988500D02*
X13107760Y-6892740D01*
D11*
X11428000Y-6246000D02*
X11628000Y-6446000D01*
X11628000Y-6246000D02*
X11428000Y-6446000D01*
D12*
X5360500Y-7195000D02*
G75*
G03*
X5360500Y-7195000I-175000J0D01*
G01*
X5360500Y-10687500D02*
G75*
G03*
X5360500Y-10687500I-175000J0D01*
G01*
X10733000Y-8110000D02*
G75*
G03*
X10733000Y-8110000I-175000J0D01*
G01*
X12980500Y-7195000D02*
G75*
G03*
X12980500Y-7195000I-175000J0D01*
G01*
X12980500Y-10687500D02*
G75*
G03*
X12980500Y-10687500I-175000J0D01*
G01*
D11*
X4852619Y-12209476D02*
X4852619Y-12009476D01*
X4900238Y-12009476D01*
X4928810Y-12019000D01*
X4947857Y-12038048D01*
X4957381Y-12057095D01*
X4966905Y-12095190D01*
X4966905Y-12123762D01*
X4957381Y-12161857D01*
X4947857Y-12180905D01*
X4928810Y-12199952D01*
X4900238Y-12209476D01*
X4852619Y-12209476D01*
X5052619Y-12209476D02*
X5052619Y-12076143D01*
X5052619Y-12114238D02*
X5062143Y-12095190D01*
X5071667Y-12085667D01*
X5090714Y-12076143D01*
X5109762Y-12076143D01*
X5176429Y-12209476D02*
X5176429Y-12076143D01*
X5176429Y-12009476D02*
X5166905Y-12019000D01*
X5176429Y-12028524D01*
X5185952Y-12019000D01*
X5176429Y-12009476D01*
X5176429Y-12028524D01*
X5300238Y-12209476D02*
X5281190Y-12199952D01*
X5271667Y-12180905D01*
X5271667Y-12009476D01*
X5405000Y-12209476D02*
X5385952Y-12199952D01*
X5376429Y-12180905D01*
X5376429Y-12009476D01*
X5633571Y-12209476D02*
X5633571Y-12009476D01*
X5700238Y-12152333D01*
X5766905Y-12009476D01*
X5766905Y-12209476D01*
X5947857Y-12209476D02*
X5947857Y-12104714D01*
X5938333Y-12085667D01*
X5919286Y-12076143D01*
X5881190Y-12076143D01*
X5862143Y-12085667D01*
X5947857Y-12199952D02*
X5928809Y-12209476D01*
X5881190Y-12209476D01*
X5862143Y-12199952D01*
X5852619Y-12180905D01*
X5852619Y-12161857D01*
X5862143Y-12142809D01*
X5881190Y-12133286D01*
X5928809Y-12133286D01*
X5947857Y-12123762D01*
X6043095Y-12076143D02*
X6043095Y-12276143D01*
X6043095Y-12085667D02*
X6062143Y-12076143D01*
X6100238Y-12076143D01*
X6119286Y-12085667D01*
X6128809Y-12095190D01*
X6138333Y-12114238D01*
X6138333Y-12171381D01*
X6128809Y-12190428D01*
X6119286Y-12199952D01*
X6100238Y-12209476D01*
X6062143Y-12209476D01*
X6043095Y-12199952D01*
X6224048Y-12190428D02*
X6233571Y-12199952D01*
X6224048Y-12209476D01*
X6214524Y-12199952D01*
X6224048Y-12190428D01*
X6224048Y-12209476D01*
X6224048Y-12085667D02*
X6233571Y-12095190D01*
X6224048Y-12104714D01*
X6214524Y-12095190D01*
X6224048Y-12085667D01*
X6224048Y-12104714D01*
X4395000Y-12439000D02*
X4595000Y-12639000D01*
X4595000Y-12439000D02*
X4395000Y-12639000D01*
X4843095Y-12448524D02*
X4852619Y-12439000D01*
X4871667Y-12429476D01*
X4919286Y-12429476D01*
X4938333Y-12439000D01*
X4947857Y-12448524D01*
X4957381Y-12467571D01*
X4957381Y-12486619D01*
X4947857Y-12515190D01*
X4833571Y-12629476D01*
X4957381Y-12629476D01*
X5043095Y-12610428D02*
X5052619Y-12619952D01*
X5043095Y-12629476D01*
X5033571Y-12619952D01*
X5043095Y-12610428D01*
X5043095Y-12629476D01*
X5176429Y-12429476D02*
X5195476Y-12429476D01*
X5214524Y-12439000D01*
X5224048Y-12448524D01*
X5233571Y-12467571D01*
X5243095Y-12505667D01*
X5243095Y-12553286D01*
X5233571Y-12591381D01*
X5224048Y-12610428D01*
X5214524Y-12619952D01*
X5195476Y-12629476D01*
X5176429Y-12629476D01*
X5157381Y-12619952D01*
X5147857Y-12610428D01*
X5138333Y-12591381D01*
X5128810Y-12553286D01*
X5128810Y-12505667D01*
X5138333Y-12467571D01*
X5147857Y-12448524D01*
X5157381Y-12439000D01*
X5176429Y-12429476D01*
X5366905Y-12429476D02*
X5385952Y-12429476D01*
X5405000Y-12439000D01*
X5414524Y-12448524D01*
X5424048Y-12467571D01*
X5433571Y-12505667D01*
X5433571Y-12553286D01*
X5424048Y-12591381D01*
X5414524Y-12610428D01*
X5405000Y-12619952D01*
X5385952Y-12629476D01*
X5366905Y-12629476D01*
X5347857Y-12619952D01*
X5338333Y-12610428D01*
X5328810Y-12591381D01*
X5319286Y-12553286D01*
X5319286Y-12505667D01*
X5328810Y-12467571D01*
X5338333Y-12448524D01*
X5347857Y-12439000D01*
X5366905Y-12429476D01*
X5557381Y-12429476D02*
X5576429Y-12429476D01*
X5595476Y-12439000D01*
X5605000Y-12448524D01*
X5614524Y-12467571D01*
X5624048Y-12505667D01*
X5624048Y-12553286D01*
X5614524Y-12591381D01*
X5605000Y-12610428D01*
X5595476Y-12619952D01*
X5576429Y-12629476D01*
X5557381Y-12629476D01*
X5538333Y-12619952D01*
X5528810Y-12610428D01*
X5519286Y-12591381D01*
X5509762Y-12553286D01*
X5509762Y-12505667D01*
X5519286Y-12467571D01*
X5528810Y-12448524D01*
X5538333Y-12439000D01*
X5557381Y-12429476D01*
X5709762Y-12629476D02*
X5709762Y-12496143D01*
X5709762Y-12515190D02*
X5719286Y-12505667D01*
X5738333Y-12496143D01*
X5766905Y-12496143D01*
X5785952Y-12505667D01*
X5795476Y-12524714D01*
X5795476Y-12629476D01*
X5795476Y-12524714D02*
X5805000Y-12505667D01*
X5824048Y-12496143D01*
X5852619Y-12496143D01*
X5871667Y-12505667D01*
X5881190Y-12524714D01*
X5881190Y-12629476D01*
X5976428Y-12629476D02*
X5976428Y-12496143D01*
X5976428Y-12515190D02*
X5985952Y-12505667D01*
X6005000Y-12496143D01*
X6033571Y-12496143D01*
X6052619Y-12505667D01*
X6062143Y-12524714D01*
X6062143Y-12629476D01*
X6062143Y-12524714D02*
X6071667Y-12505667D01*
X6090714Y-12496143D01*
X6119286Y-12496143D01*
X6138333Y-12505667D01*
X6147857Y-12524714D01*
X6147857Y-12629476D01*
X6538333Y-12419952D02*
X6366905Y-12677095D01*
X6795476Y-12429476D02*
X6814524Y-12429476D01*
X6833571Y-12439000D01*
X6843095Y-12448524D01*
X6852619Y-12467571D01*
X6862143Y-12505667D01*
X6862143Y-12553286D01*
X6852619Y-12591381D01*
X6843095Y-12610428D01*
X6833571Y-12619952D01*
X6814524Y-12629476D01*
X6795476Y-12629476D01*
X6776428Y-12619952D01*
X6766905Y-12610428D01*
X6757381Y-12591381D01*
X6747857Y-12553286D01*
X6747857Y-12505667D01*
X6757381Y-12467571D01*
X6766905Y-12448524D01*
X6776428Y-12439000D01*
X6795476Y-12429476D01*
X6947857Y-12610428D02*
X6957381Y-12619952D01*
X6947857Y-12629476D01*
X6938333Y-12619952D01*
X6947857Y-12610428D01*
X6947857Y-12629476D01*
X7081190Y-12429476D02*
X7100238Y-12429476D01*
X7119286Y-12439000D01*
X7128809Y-12448524D01*
X7138333Y-12467571D01*
X7147857Y-12505667D01*
X7147857Y-12553286D01*
X7138333Y-12591381D01*
X7128809Y-12610428D01*
X7119286Y-12619952D01*
X7100238Y-12629476D01*
X7081190Y-12629476D01*
X7062143Y-12619952D01*
X7052619Y-12610428D01*
X7043095Y-12591381D01*
X7033571Y-12553286D01*
X7033571Y-12505667D01*
X7043095Y-12467571D01*
X7052619Y-12448524D01*
X7062143Y-12439000D01*
X7081190Y-12429476D01*
X7214524Y-12429476D02*
X7347857Y-12429476D01*
X7262143Y-12629476D01*
X7452619Y-12515190D02*
X7433571Y-12505667D01*
X7424048Y-12496143D01*
X7414524Y-12477095D01*
X7414524Y-12467571D01*
X7424048Y-12448524D01*
X7433571Y-12439000D01*
X7452619Y-12429476D01*
X7490714Y-12429476D01*
X7509762Y-12439000D01*
X7519286Y-12448524D01*
X7528809Y-12467571D01*
X7528809Y-12477095D01*
X7519286Y-12496143D01*
X7509762Y-12505667D01*
X7490714Y-12515190D01*
X7452619Y-12515190D01*
X7433571Y-12524714D01*
X7424048Y-12534238D01*
X7414524Y-12553286D01*
X7414524Y-12591381D01*
X7424048Y-12610428D01*
X7433571Y-12619952D01*
X7452619Y-12629476D01*
X7490714Y-12629476D01*
X7509762Y-12619952D01*
X7519286Y-12610428D01*
X7528809Y-12591381D01*
X7528809Y-12553286D01*
X7519286Y-12534238D01*
X7509762Y-12524714D01*
X7490714Y-12515190D01*
X7595476Y-12429476D02*
X7728809Y-12429476D01*
X7643095Y-12629476D01*
X7795476Y-12429476D02*
X7795476Y-12467571D01*
X7871667Y-12429476D02*
X7871667Y-12467571D01*
X8166905Y-12705667D02*
X8157381Y-12696143D01*
X8138333Y-12667571D01*
X8128809Y-12648524D01*
X8119286Y-12619952D01*
X8109762Y-12572333D01*
X8109762Y-12534238D01*
X8119286Y-12486619D01*
X8128809Y-12458048D01*
X8138333Y-12439000D01*
X8157381Y-12410428D01*
X8166905Y-12400905D01*
X8347857Y-12629476D02*
X8233571Y-12629476D01*
X8290714Y-12629476D02*
X8290714Y-12429476D01*
X8271667Y-12458048D01*
X8252619Y-12477095D01*
X8233571Y-12486619D01*
X8585952Y-12629476D02*
X8585952Y-12429476D01*
X8671667Y-12629476D02*
X8671667Y-12524714D01*
X8662143Y-12505667D01*
X8643095Y-12496143D01*
X8614524Y-12496143D01*
X8595476Y-12505667D01*
X8585952Y-12515190D01*
X8795476Y-12629476D02*
X8776429Y-12619952D01*
X8766905Y-12610428D01*
X8757381Y-12591381D01*
X8757381Y-12534238D01*
X8766905Y-12515190D01*
X8776429Y-12505667D01*
X8795476Y-12496143D01*
X8824048Y-12496143D01*
X8843095Y-12505667D01*
X8852619Y-12515190D01*
X8862143Y-12534238D01*
X8862143Y-12591381D01*
X8852619Y-12610428D01*
X8843095Y-12619952D01*
X8824048Y-12629476D01*
X8795476Y-12629476D01*
X8976429Y-12629476D02*
X8957381Y-12619952D01*
X8947857Y-12600905D01*
X8947857Y-12429476D01*
X9128810Y-12619952D02*
X9109762Y-12629476D01*
X9071667Y-12629476D01*
X9052619Y-12619952D01*
X9043095Y-12600905D01*
X9043095Y-12524714D01*
X9052619Y-12505667D01*
X9071667Y-12496143D01*
X9109762Y-12496143D01*
X9128810Y-12505667D01*
X9138333Y-12524714D01*
X9138333Y-12543762D01*
X9043095Y-12562809D01*
X9205000Y-12705667D02*
X9214524Y-12696143D01*
X9233571Y-12667571D01*
X9243095Y-12648524D01*
X9252619Y-12619952D01*
X9262143Y-12572333D01*
X9262143Y-12534238D01*
X9252619Y-12486619D01*
X9243095Y-12458048D01*
X9233571Y-12439000D01*
X9214524Y-12410428D01*
X9205000Y-12400905D01*
X9566905Y-12705667D02*
X9557381Y-12696143D01*
X9538333Y-12667571D01*
X9528810Y-12648524D01*
X9519286Y-12619952D01*
X9509762Y-12572333D01*
X9509762Y-12534238D01*
X9519286Y-12486619D01*
X9528810Y-12458048D01*
X9538333Y-12439000D01*
X9557381Y-12410428D01*
X9566905Y-12400905D01*
X9643095Y-12496143D02*
X9643095Y-12629476D01*
X9643095Y-12515190D02*
X9652619Y-12505667D01*
X9671667Y-12496143D01*
X9700238Y-12496143D01*
X9719286Y-12505667D01*
X9728810Y-12524714D01*
X9728810Y-12629476D01*
X9852619Y-12629476D02*
X9833571Y-12619952D01*
X9824048Y-12610428D01*
X9814524Y-12591381D01*
X9814524Y-12534238D01*
X9824048Y-12515190D01*
X9833571Y-12505667D01*
X9852619Y-12496143D01*
X9881190Y-12496143D01*
X9900238Y-12505667D01*
X9909762Y-12515190D01*
X9919286Y-12534238D01*
X9919286Y-12591381D01*
X9909762Y-12610428D01*
X9900238Y-12619952D01*
X9881190Y-12629476D01*
X9852619Y-12629476D01*
X9976429Y-12496143D02*
X10052619Y-12496143D01*
X10005000Y-12429476D02*
X10005000Y-12600905D01*
X10014524Y-12619952D01*
X10033571Y-12629476D01*
X10052619Y-12629476D01*
X10271667Y-12496143D02*
X10271667Y-12696143D01*
X10271667Y-12505667D02*
X10290714Y-12496143D01*
X10328810Y-12496143D01*
X10347857Y-12505667D01*
X10357381Y-12515190D01*
X10366905Y-12534238D01*
X10366905Y-12591381D01*
X10357381Y-12610428D01*
X10347857Y-12619952D01*
X10328810Y-12629476D01*
X10290714Y-12629476D01*
X10271667Y-12619952D01*
X10481190Y-12629476D02*
X10462143Y-12619952D01*
X10452619Y-12600905D01*
X10452619Y-12429476D01*
X10643095Y-12629476D02*
X10643095Y-12524714D01*
X10633571Y-12505667D01*
X10614524Y-12496143D01*
X10576429Y-12496143D01*
X10557381Y-12505667D01*
X10643095Y-12619952D02*
X10624048Y-12629476D01*
X10576429Y-12629476D01*
X10557381Y-12619952D01*
X10547857Y-12600905D01*
X10547857Y-12581857D01*
X10557381Y-12562809D01*
X10576429Y-12553286D01*
X10624048Y-12553286D01*
X10643095Y-12543762D01*
X10709762Y-12496143D02*
X10785952Y-12496143D01*
X10738333Y-12429476D02*
X10738333Y-12600905D01*
X10747857Y-12619952D01*
X10766905Y-12629476D01*
X10785952Y-12629476D01*
X10928810Y-12619952D02*
X10909762Y-12629476D01*
X10871667Y-12629476D01*
X10852619Y-12619952D01*
X10843095Y-12600905D01*
X10843095Y-12524714D01*
X10852619Y-12505667D01*
X10871667Y-12496143D01*
X10909762Y-12496143D01*
X10928810Y-12505667D01*
X10938333Y-12524714D01*
X10938333Y-12543762D01*
X10843095Y-12562809D01*
X11109762Y-12629476D02*
X11109762Y-12429476D01*
X11109762Y-12619952D02*
X11090714Y-12629476D01*
X11052619Y-12629476D01*
X11033571Y-12619952D01*
X11024048Y-12610428D01*
X11014524Y-12591381D01*
X11014524Y-12534238D01*
X11024048Y-12515190D01*
X11033571Y-12505667D01*
X11052619Y-12496143D01*
X11090714Y-12496143D01*
X11109762Y-12505667D01*
X11185952Y-12705667D02*
X11195476Y-12696143D01*
X11214524Y-12667571D01*
X11224048Y-12648524D01*
X11233571Y-12619952D01*
X11243095Y-12572333D01*
X11243095Y-12534238D01*
X11233571Y-12486619D01*
X11224048Y-12458048D01*
X11214524Y-12439000D01*
X11195476Y-12410428D01*
X11185952Y-12400905D01*
X4595000Y-12859000D02*
G75*
G03*
X4595000Y-12859000I-100000J0D01*
G01*
X4833571Y-12749476D02*
X4957381Y-12749476D01*
X4890714Y-12825667D01*
X4919286Y-12825667D01*
X4938333Y-12835190D01*
X4947857Y-12844714D01*
X4957381Y-12863762D01*
X4957381Y-12911381D01*
X4947857Y-12930428D01*
X4938333Y-12939952D01*
X4919286Y-12949476D01*
X4862143Y-12949476D01*
X4843095Y-12939952D01*
X4833571Y-12930428D01*
X5043095Y-12930428D02*
X5052619Y-12939952D01*
X5043095Y-12949476D01*
X5033571Y-12939952D01*
X5043095Y-12930428D01*
X5043095Y-12949476D01*
X5233571Y-12749476D02*
X5138333Y-12749476D01*
X5128810Y-12844714D01*
X5138333Y-12835190D01*
X5157381Y-12825667D01*
X5205000Y-12825667D01*
X5224048Y-12835190D01*
X5233571Y-12844714D01*
X5243095Y-12863762D01*
X5243095Y-12911381D01*
X5233571Y-12930428D01*
X5224048Y-12939952D01*
X5205000Y-12949476D01*
X5157381Y-12949476D01*
X5138333Y-12939952D01*
X5128810Y-12930428D01*
X5366905Y-12749476D02*
X5385952Y-12749476D01*
X5405000Y-12759000D01*
X5414524Y-12768524D01*
X5424048Y-12787571D01*
X5433571Y-12825667D01*
X5433571Y-12873286D01*
X5424048Y-12911381D01*
X5414524Y-12930428D01*
X5405000Y-12939952D01*
X5385952Y-12949476D01*
X5366905Y-12949476D01*
X5347857Y-12939952D01*
X5338333Y-12930428D01*
X5328810Y-12911381D01*
X5319286Y-12873286D01*
X5319286Y-12825667D01*
X5328810Y-12787571D01*
X5338333Y-12768524D01*
X5347857Y-12759000D01*
X5366905Y-12749476D01*
X5557381Y-12749476D02*
X5576429Y-12749476D01*
X5595476Y-12759000D01*
X5605000Y-12768524D01*
X5614524Y-12787571D01*
X5624048Y-12825667D01*
X5624048Y-12873286D01*
X5614524Y-12911381D01*
X5605000Y-12930428D01*
X5595476Y-12939952D01*
X5576429Y-12949476D01*
X5557381Y-12949476D01*
X5538333Y-12939952D01*
X5528810Y-12930428D01*
X5519286Y-12911381D01*
X5509762Y-12873286D01*
X5509762Y-12825667D01*
X5519286Y-12787571D01*
X5528810Y-12768524D01*
X5538333Y-12759000D01*
X5557381Y-12749476D01*
X5709762Y-12949476D02*
X5709762Y-12816143D01*
X5709762Y-12835190D02*
X5719286Y-12825667D01*
X5738333Y-12816143D01*
X5766905Y-12816143D01*
X5785952Y-12825667D01*
X5795476Y-12844714D01*
X5795476Y-12949476D01*
X5795476Y-12844714D02*
X5805000Y-12825667D01*
X5824048Y-12816143D01*
X5852619Y-12816143D01*
X5871667Y-12825667D01*
X5881190Y-12844714D01*
X5881190Y-12949476D01*
X5976428Y-12949476D02*
X5976428Y-12816143D01*
X5976428Y-12835190D02*
X5985952Y-12825667D01*
X6005000Y-12816143D01*
X6033571Y-12816143D01*
X6052619Y-12825667D01*
X6062143Y-12844714D01*
X6062143Y-12949476D01*
X6062143Y-12844714D02*
X6071667Y-12825667D01*
X6090714Y-12816143D01*
X6119286Y-12816143D01*
X6138333Y-12825667D01*
X6147857Y-12844714D01*
X6147857Y-12949476D01*
X6538333Y-12739952D02*
X6366905Y-12997095D01*
X6795476Y-12749476D02*
X6814524Y-12749476D01*
X6833571Y-12759000D01*
X6843095Y-12768524D01*
X6852619Y-12787571D01*
X6862143Y-12825667D01*
X6862143Y-12873286D01*
X6852619Y-12911381D01*
X6843095Y-12930428D01*
X6833571Y-12939952D01*
X6814524Y-12949476D01*
X6795476Y-12949476D01*
X6776428Y-12939952D01*
X6766905Y-12930428D01*
X6757381Y-12911381D01*
X6747857Y-12873286D01*
X6747857Y-12825667D01*
X6757381Y-12787571D01*
X6766905Y-12768524D01*
X6776428Y-12759000D01*
X6795476Y-12749476D01*
X6947857Y-12930428D02*
X6957381Y-12939952D01*
X6947857Y-12949476D01*
X6938333Y-12939952D01*
X6947857Y-12930428D01*
X6947857Y-12949476D01*
X7147857Y-12949476D02*
X7033571Y-12949476D01*
X7090714Y-12949476D02*
X7090714Y-12749476D01*
X7071667Y-12778048D01*
X7052619Y-12797095D01*
X7033571Y-12806619D01*
X7214524Y-12749476D02*
X7338333Y-12749476D01*
X7271667Y-12825667D01*
X7300238Y-12825667D01*
X7319286Y-12835190D01*
X7328809Y-12844714D01*
X7338333Y-12863762D01*
X7338333Y-12911381D01*
X7328809Y-12930428D01*
X7319286Y-12939952D01*
X7300238Y-12949476D01*
X7243095Y-12949476D01*
X7224048Y-12939952D01*
X7214524Y-12930428D01*
X7405000Y-12749476D02*
X7538333Y-12749476D01*
X7452619Y-12949476D01*
X7643095Y-12835190D02*
X7624048Y-12825667D01*
X7614524Y-12816143D01*
X7605000Y-12797095D01*
X7605000Y-12787571D01*
X7614524Y-12768524D01*
X7624048Y-12759000D01*
X7643095Y-12749476D01*
X7681190Y-12749476D01*
X7700238Y-12759000D01*
X7709762Y-12768524D01*
X7719286Y-12787571D01*
X7719286Y-12797095D01*
X7709762Y-12816143D01*
X7700238Y-12825667D01*
X7681190Y-12835190D01*
X7643095Y-12835190D01*
X7624048Y-12844714D01*
X7614524Y-12854238D01*
X7605000Y-12873286D01*
X7605000Y-12911381D01*
X7614524Y-12930428D01*
X7624048Y-12939952D01*
X7643095Y-12949476D01*
X7681190Y-12949476D01*
X7700238Y-12939952D01*
X7709762Y-12930428D01*
X7719286Y-12911381D01*
X7719286Y-12873286D01*
X7709762Y-12854238D01*
X7700238Y-12844714D01*
X7681190Y-12835190D01*
X7795476Y-12749476D02*
X7795476Y-12787571D01*
X7871667Y-12749476D02*
X7871667Y-12787571D01*
X8166905Y-13025667D02*
X8157381Y-13016143D01*
X8138333Y-12987571D01*
X8128809Y-12968524D01*
X8119286Y-12939952D01*
X8109762Y-12892333D01*
X8109762Y-12854238D01*
X8119286Y-12806619D01*
X8128809Y-12778048D01*
X8138333Y-12759000D01*
X8157381Y-12730428D01*
X8166905Y-12720905D01*
X8338333Y-12749476D02*
X8243095Y-12749476D01*
X8233571Y-12844714D01*
X8243095Y-12835190D01*
X8262143Y-12825667D01*
X8309762Y-12825667D01*
X8328809Y-12835190D01*
X8338333Y-12844714D01*
X8347857Y-12863762D01*
X8347857Y-12911381D01*
X8338333Y-12930428D01*
X8328809Y-12939952D01*
X8309762Y-12949476D01*
X8262143Y-12949476D01*
X8243095Y-12939952D01*
X8233571Y-12930428D01*
X8585952Y-12949476D02*
X8585952Y-12749476D01*
X8671667Y-12949476D02*
X8671667Y-12844714D01*
X8662143Y-12825667D01*
X8643095Y-12816143D01*
X8614524Y-12816143D01*
X8595476Y-12825667D01*
X8585952Y-12835190D01*
X8795476Y-12949476D02*
X8776429Y-12939952D01*
X8766905Y-12930428D01*
X8757381Y-12911381D01*
X8757381Y-12854238D01*
X8766905Y-12835190D01*
X8776429Y-12825667D01*
X8795476Y-12816143D01*
X8824048Y-12816143D01*
X8843095Y-12825667D01*
X8852619Y-12835190D01*
X8862143Y-12854238D01*
X8862143Y-12911381D01*
X8852619Y-12930428D01*
X8843095Y-12939952D01*
X8824048Y-12949476D01*
X8795476Y-12949476D01*
X8976429Y-12949476D02*
X8957381Y-12939952D01*
X8947857Y-12920905D01*
X8947857Y-12749476D01*
X9128810Y-12939952D02*
X9109762Y-12949476D01*
X9071667Y-12949476D01*
X9052619Y-12939952D01*
X9043095Y-12920905D01*
X9043095Y-12844714D01*
X9052619Y-12825667D01*
X9071667Y-12816143D01*
X9109762Y-12816143D01*
X9128810Y-12825667D01*
X9138333Y-12844714D01*
X9138333Y-12863762D01*
X9043095Y-12882809D01*
X9214524Y-12939952D02*
X9233571Y-12949476D01*
X9271667Y-12949476D01*
X9290714Y-12939952D01*
X9300238Y-12920905D01*
X9300238Y-12911381D01*
X9290714Y-12892333D01*
X9271667Y-12882809D01*
X9243095Y-12882809D01*
X9224048Y-12873286D01*
X9214524Y-12854238D01*
X9214524Y-12844714D01*
X9224048Y-12825667D01*
X9243095Y-12816143D01*
X9271667Y-12816143D01*
X9290714Y-12825667D01*
X9366905Y-13025667D02*
X9376429Y-13016143D01*
X9395476Y-12987571D01*
X9405000Y-12968524D01*
X9414524Y-12939952D01*
X9424048Y-12892333D01*
X9424048Y-12854238D01*
X9414524Y-12806619D01*
X9405000Y-12778048D01*
X9395476Y-12759000D01*
X9376429Y-12730428D01*
X9366905Y-12720905D01*
X9728810Y-13025667D02*
X9719286Y-13016143D01*
X9700238Y-12987571D01*
X9690714Y-12968524D01*
X9681190Y-12939952D01*
X9671667Y-12892333D01*
X9671667Y-12854238D01*
X9681190Y-12806619D01*
X9690714Y-12778048D01*
X9700238Y-12759000D01*
X9719286Y-12730428D01*
X9728810Y-12720905D01*
X9805000Y-12816143D02*
X9805000Y-12949476D01*
X9805000Y-12835190D02*
X9814524Y-12825667D01*
X9833571Y-12816143D01*
X9862143Y-12816143D01*
X9881190Y-12825667D01*
X9890714Y-12844714D01*
X9890714Y-12949476D01*
X10014524Y-12949476D02*
X9995476Y-12939952D01*
X9985952Y-12930428D01*
X9976429Y-12911381D01*
X9976429Y-12854238D01*
X9985952Y-12835190D01*
X9995476Y-12825667D01*
X10014524Y-12816143D01*
X10043095Y-12816143D01*
X10062143Y-12825667D01*
X10071667Y-12835190D01*
X10081190Y-12854238D01*
X10081190Y-12911381D01*
X10071667Y-12930428D01*
X10062143Y-12939952D01*
X10043095Y-12949476D01*
X10014524Y-12949476D01*
X10138333Y-12816143D02*
X10214524Y-12816143D01*
X10166905Y-12749476D02*
X10166905Y-12920905D01*
X10176429Y-12939952D01*
X10195476Y-12949476D01*
X10214524Y-12949476D01*
X10433571Y-12816143D02*
X10433571Y-13016143D01*
X10433571Y-12825667D02*
X10452619Y-12816143D01*
X10490714Y-12816143D01*
X10509762Y-12825667D01*
X10519286Y-12835190D01*
X10528810Y-12854238D01*
X10528810Y-12911381D01*
X10519286Y-12930428D01*
X10509762Y-12939952D01*
X10490714Y-12949476D01*
X10452619Y-12949476D01*
X10433571Y-12939952D01*
X10643095Y-12949476D02*
X10624048Y-12939952D01*
X10614524Y-12920905D01*
X10614524Y-12749476D01*
X10805000Y-12949476D02*
X10805000Y-12844714D01*
X10795476Y-12825667D01*
X10776429Y-12816143D01*
X10738333Y-12816143D01*
X10719286Y-12825667D01*
X10805000Y-12939952D02*
X10785952Y-12949476D01*
X10738333Y-12949476D01*
X10719286Y-12939952D01*
X10709762Y-12920905D01*
X10709762Y-12901857D01*
X10719286Y-12882809D01*
X10738333Y-12873286D01*
X10785952Y-12873286D01*
X10805000Y-12863762D01*
X10871667Y-12816143D02*
X10947857Y-12816143D01*
X10900238Y-12749476D02*
X10900238Y-12920905D01*
X10909762Y-12939952D01*
X10928810Y-12949476D01*
X10947857Y-12949476D01*
X11090714Y-12939952D02*
X11071667Y-12949476D01*
X11033571Y-12949476D01*
X11014524Y-12939952D01*
X11005000Y-12920905D01*
X11005000Y-12844714D01*
X11014524Y-12825667D01*
X11033571Y-12816143D01*
X11071667Y-12816143D01*
X11090714Y-12825667D01*
X11100238Y-12844714D01*
X11100238Y-12863762D01*
X11005000Y-12882809D01*
X11271667Y-12949476D02*
X11271667Y-12749476D01*
X11271667Y-12939952D02*
X11252619Y-12949476D01*
X11214524Y-12949476D01*
X11195476Y-12939952D01*
X11185952Y-12930428D01*
X11176429Y-12911381D01*
X11176429Y-12854238D01*
X11185952Y-12835190D01*
X11195476Y-12825667D01*
X11214524Y-12816143D01*
X11252619Y-12816143D01*
X11271667Y-12825667D01*
X11347857Y-13025667D02*
X11357381Y-13016143D01*
X11376428Y-12987571D01*
X11385952Y-12968524D01*
X11395476Y-12939952D01*
X11405000Y-12892333D01*
X11405000Y-12854238D01*
X11395476Y-12806619D01*
X11385952Y-12778048D01*
X11376428Y-12759000D01*
X11357381Y-12730428D01*
X11347857Y-12720905D01*
M02*
