%TF.GenerationSoftware,KiCad,Pcbnew,(6.0.4-0)*%
%TF.CreationDate,2024-06-12T13:05:19-04:00*%
%TF.ProjectId,SignalSlinger,5369676e-616c-4536-9c69-6e6765722e6b,rev?*%
%TF.SameCoordinates,Original*%
%TF.FileFunction,Paste,Top*%
%TF.FilePolarity,Positive*%
%FSLAX46Y46*%
G04 Gerber Fmt 4.6, Leading zero omitted, Abs format (unit mm)*
G04 Created by KiCad (PCBNEW (6.0.4-0)) date 2024-06-12 13:05:19*
%MOMM*%
%LPD*%
G01*
G04 APERTURE LIST*
G04 Aperture macros list*
%AMRoundRect*
0 Rectangle with rounded corners*
0 $1 Rounding radius*
0 $2 $3 $4 $5 $6 $7 $8 $9 X,Y pos of 4 corners*
0 Add a 4 corners polygon primitive as box body*
4,1,4,$2,$3,$4,$5,$6,$7,$8,$9,$2,$3,0*
0 Add four circle primitives for the rounded corners*
1,1,$1+$1,$2,$3*
1,1,$1+$1,$4,$5*
1,1,$1+$1,$6,$7*
1,1,$1+$1,$8,$9*
0 Add four rect primitives between the rounded corners*
20,1,$1+$1,$2,$3,$4,$5,0*
20,1,$1+$1,$4,$5,$6,$7,0*
20,1,$1+$1,$6,$7,$8,$9,0*
20,1,$1+$1,$8,$9,$2,$3,0*%
%AMRotRect*
0 Rectangle, with rotation*
0 The origin of the aperture is its center*
0 $1 length*
0 $2 width*
0 $3 Rotation angle, in degrees counterclockwise*
0 Add horizontal line*
21,1,$1,$2,0,0,$3*%
%AMOutline4P*
0 Free polygon, 4 corners , with rotation*
0 The origin of the aperture is its center*
0 number of corners: always 4*
0 $1 to $8 corner X, Y*
0 $9 Rotation angle, in degrees counterclockwise*
0 create outline with 4 corners*
4,1,4,$1,$2,$3,$4,$5,$6,$7,$8,$1,$2,$9*%
G04 Aperture macros list end*
%ADD10RoundRect,0.250000X-0.450000X0.262500X-0.450000X-0.262500X0.450000X-0.262500X0.450000X0.262500X0*%
%ADD11RoundRect,0.150000X0.150000X-0.625000X0.150000X0.625000X-0.150000X0.625000X-0.150000X-0.625000X0*%
%ADD12RoundRect,0.218750X-0.218750X-0.256250X0.218750X-0.256250X0.218750X0.256250X-0.218750X0.256250X0*%
%ADD13RoundRect,0.250000X-0.262500X-0.450000X0.262500X-0.450000X0.262500X0.450000X-0.262500X0.450000X0*%
%ADD14RoundRect,0.250000X-0.250000X-0.475000X0.250000X-0.475000X0.250000X0.475000X-0.250000X0.475000X0*%
%ADD15R,1.200000X0.850000*%
%ADD16RoundRect,0.250000X0.250000X0.475000X-0.250000X0.475000X-0.250000X-0.475000X0.250000X-0.475000X0*%
%ADD17RoundRect,0.150000X-0.150000X0.400000X-0.150000X-0.400000X0.150000X-0.400000X0.150000X0.400000X0*%
%ADD18RoundRect,0.243750X0.456250X-0.243750X0.456250X0.243750X-0.456250X0.243750X-0.456250X-0.243750X0*%
%ADD19RoundRect,0.250000X-0.475000X0.250000X-0.475000X-0.250000X0.475000X-0.250000X0.475000X0.250000X0*%
%ADD20RoundRect,0.250000X0.450000X-0.262500X0.450000X0.262500X-0.450000X0.262500X-0.450000X-0.262500X0*%
%ADD21R,0.600000X0.700000*%
%ADD22R,2.500000X2.300000*%
%ADD23RoundRect,0.218750X0.218750X0.256250X-0.218750X0.256250X-0.218750X-0.256250X0.218750X-0.256250X0*%
%ADD24R,1.000000X3.150000*%
%ADD25R,1.000000X1.600000*%
%ADD26R,3.300000X1.800000*%
%ADD27R,1.100000X1.100000*%
%ADD28RoundRect,0.250000X0.475000X-0.250000X0.475000X0.250000X-0.475000X0.250000X-0.475000X-0.250000X0*%
%ADD29R,0.470000X0.600000*%
%ADD30R,3.300000X4.400000*%
%ADD31R,3.900000X6.200000*%
%ADD32R,2.770000X2.550000*%
%ADD33Outline4P,-0.999490X-1.799590X0.999490X-1.799590X0.999490X1.799590X-0.999490X1.799590X45.000000*%
%ADD34RotRect,1.998980X3.599180X45.000000*%
%ADD35R,1.050000X1.000000*%
%ADD36R,0.850000X1.200000*%
%ADD37R,3.300000X2.500000*%
%ADD38RoundRect,0.150000X-0.400000X-0.150000X0.400000X-0.150000X0.400000X0.150000X-0.400000X0.150000X0*%
%ADD39R,2.550000X2.770000*%
%ADD40R,3.700000X1.100000*%
%ADD41R,1.000000X0.900000*%
%ADD42RoundRect,0.150000X0.875000X0.150000X-0.875000X0.150000X-0.875000X-0.150000X0.875000X-0.150000X0*%
%ADD43RoundRect,0.218750X-0.256250X0.218750X-0.256250X-0.218750X0.256250X-0.218750X0.256250X0.218750X0*%
%ADD44RoundRect,0.150000X0.400000X0.150000X-0.400000X0.150000X-0.400000X-0.150000X0.400000X-0.150000X0*%
%ADD45RoundRect,0.250000X0.312500X1.450000X-0.312500X1.450000X-0.312500X-1.450000X0.312500X-1.450000X0*%
%ADD46R,1.400000X0.300000*%
%ADD47RoundRect,0.250000X0.325000X1.100000X-0.325000X1.100000X-0.325000X-1.100000X0.325000X-1.100000X0*%
%ADD48RoundRect,0.250000X0.262500X0.450000X-0.262500X0.450000X-0.262500X-0.450000X0.262500X-0.450000X0*%
%ADD49R,1.600000X1.400000*%
%ADD50R,3.480000X1.846667*%
G04 APERTURE END LIST*
D10*
%TO.C,R110*%
X102250000Y-98887500D03*
X102250000Y-100712500D03*
%TD*%
D11*
%TO.C,Q201*%
X90905000Y-84450000D03*
X92175000Y-84450000D03*
X93445000Y-84450000D03*
X94715000Y-84450000D03*
X94715000Y-79050000D03*
X93445000Y-79050000D03*
X92175000Y-79050000D03*
X90905000Y-79050000D03*
%TD*%
D12*
%TO.C,D106*%
X53472500Y-93550000D03*
X55047500Y-93550000D03*
%TD*%
D13*
%TO.C,R104*%
X64080000Y-110970000D03*
X65905000Y-110970000D03*
%TD*%
D14*
%TO.C,C214*%
X89100000Y-76940000D03*
X91000000Y-76940000D03*
%TD*%
D15*
%TO.C,D206*%
X63750000Y-98065000D03*
X63750000Y-101115000D03*
%TD*%
D16*
%TO.C,C102*%
X73610000Y-65560000D03*
X71710000Y-65560000D03*
%TD*%
D17*
%TO.C,U202*%
X82609792Y-100780000D03*
X81659792Y-100780000D03*
X80709792Y-100780000D03*
X80709792Y-103380000D03*
X82609792Y-103380000D03*
%TD*%
D18*
%TO.C,D103*%
X65185000Y-115237500D03*
X65185000Y-113362500D03*
%TD*%
D19*
%TO.C,C108*%
X96450000Y-105340000D03*
X96450000Y-107240000D03*
%TD*%
D11*
%TO.C,U206*%
X85285000Y-84450000D03*
X86555000Y-84450000D03*
X87825000Y-84450000D03*
X89095000Y-84450000D03*
X89095000Y-79050000D03*
X87825000Y-79050000D03*
X86555000Y-79050000D03*
X85285000Y-79050000D03*
%TD*%
D20*
%TO.C,R203*%
X92190000Y-88142500D03*
X92190000Y-86317500D03*
%TD*%
D12*
%TO.C,D110*%
X53812500Y-89090000D03*
X55387500Y-89090000D03*
%TD*%
D19*
%TO.C,C211*%
X85350000Y-89900000D03*
X85350000Y-91800000D03*
%TD*%
D21*
%TO.C,D201*%
X98750000Y-71870000D03*
X96850000Y-71870000D03*
X97800000Y-73870000D03*
%TD*%
D20*
%TO.C,R103*%
X94960000Y-72162500D03*
X94960000Y-70337500D03*
%TD*%
D22*
%TO.C,D202*%
X128790000Y-79170000D03*
X133090000Y-79170000D03*
%TD*%
D23*
%TO.C,D109*%
X55407500Y-83840000D03*
X53832500Y-83840000D03*
%TD*%
D24*
%TO.C,P101*%
X78230000Y-68725000D03*
X78230000Y-63675000D03*
X80770000Y-68725000D03*
X80770000Y-63675000D03*
X83310000Y-68725000D03*
X83310000Y-63675000D03*
%TD*%
D25*
%TO.C,U205*%
X71400000Y-102270000D03*
D26*
X69100000Y-108570000D03*
D25*
X69100000Y-102270000D03*
X66800000Y-102270000D03*
%TD*%
D27*
%TO.C,D209*%
X117225000Y-82762500D03*
X117225000Y-79962500D03*
%TD*%
D28*
%TO.C,C301*%
X109670000Y-99230000D03*
X109670000Y-97330000D03*
%TD*%
D19*
%TO.C,C213*%
X77470000Y-83540000D03*
X77470000Y-85440000D03*
%TD*%
D28*
%TO.C,C105*%
X89940000Y-101580000D03*
X89940000Y-99680000D03*
%TD*%
D14*
%TO.C,C101*%
X59640000Y-67130000D03*
X61540000Y-67130000D03*
%TD*%
D29*
%TO.C,Q102*%
X102540000Y-66760000D03*
X103840000Y-66760000D03*
X103190000Y-64860000D03*
%TD*%
D16*
%TO.C,C203*%
X72370000Y-93170000D03*
X70470000Y-93170000D03*
%TD*%
D30*
%TO.C,J201*%
X114580000Y-76260000D03*
D31*
X121730000Y-67260000D03*
X108830000Y-67260000D03*
%TD*%
D28*
%TO.C,C210*%
X82400000Y-107040000D03*
X82400000Y-105140000D03*
%TD*%
D19*
%TO.C,C208*%
X118440000Y-87830000D03*
X118440000Y-89730000D03*
%TD*%
D32*
%TO.C,C215*%
X97680000Y-89020000D03*
X104140000Y-89020000D03*
%TD*%
D28*
%TO.C,R202*%
X85330000Y-88310000D03*
X85330000Y-86410000D03*
%TD*%
D14*
%TO.C,C103*%
X60230000Y-74020000D03*
X62130000Y-74020000D03*
%TD*%
D10*
%TO.C,R106*%
X57260000Y-90007500D03*
X57260000Y-91832500D03*
%TD*%
D16*
%TO.C,C216*%
X57170000Y-62890000D03*
X55270000Y-62890000D03*
%TD*%
D14*
%TO.C,C204*%
X124470000Y-76680000D03*
X126370000Y-76680000D03*
%TD*%
D27*
%TO.C,D208*%
X119625000Y-83882500D03*
X119625000Y-81082500D03*
%TD*%
D16*
%TO.C,C107*%
X87920000Y-104170000D03*
X86020000Y-104170000D03*
%TD*%
D29*
%TO.C,Q101*%
X101060000Y-65690000D03*
X99760000Y-65690000D03*
X100410000Y-67590000D03*
%TD*%
D18*
%TO.C,D104*%
X74525000Y-115237500D03*
X74525000Y-113362500D03*
%TD*%
D13*
%TO.C,R105*%
X73422500Y-110970000D03*
X75247500Y-110970000D03*
%TD*%
D33*
%TO.C,L202*%
X91670000Y-68610000D03*
D34*
X86210000Y-74070000D03*
%TD*%
D19*
%TO.C,C218*%
X64350000Y-102910000D03*
X64350000Y-104810000D03*
%TD*%
D14*
%TO.C,C205*%
X76860000Y-76140000D03*
X78760000Y-76140000D03*
%TD*%
%TO.C,C304*%
X120680000Y-103330000D03*
X122580000Y-103330000D03*
%TD*%
D35*
%TO.C,X101*%
X59662500Y-71020000D03*
X62262500Y-71020000D03*
X62262500Y-69170000D03*
X59662500Y-69170000D03*
%TD*%
D28*
%TO.C,C106*%
X92100000Y-101820000D03*
X92100000Y-99920000D03*
%TD*%
D36*
%TO.C,D115*%
X95865000Y-93080000D03*
X98915000Y-93080000D03*
%TD*%
D16*
%TO.C,R107*%
X94850000Y-114270000D03*
X92950000Y-114270000D03*
%TD*%
%TO.C,C202*%
X65640000Y-89880000D03*
X63740000Y-89880000D03*
%TD*%
D36*
%TO.C,D203*%
X71295000Y-99760000D03*
X68245000Y-99760000D03*
%TD*%
D16*
%TO.C,C207*%
X122870000Y-85860000D03*
X120970000Y-85860000D03*
%TD*%
D15*
%TO.C,D207*%
X61350000Y-98105000D03*
X61350000Y-101155000D03*
%TD*%
D37*
%TO.C,D210*%
X98850000Y-84750000D03*
X98850000Y-77850000D03*
%TD*%
D19*
%TO.C,C209*%
X80250000Y-105140000D03*
X80250000Y-107040000D03*
%TD*%
D38*
%TO.C,U204*%
X58800000Y-62875000D03*
X58800000Y-63825000D03*
X58800000Y-64775000D03*
X61400000Y-64775000D03*
X61400000Y-63825000D03*
X61400000Y-62875000D03*
%TD*%
D21*
%TO.C,D101*%
X101420000Y-69540000D03*
X102820000Y-69540000D03*
%TD*%
D39*
%TO.C,C212*%
X81380000Y-84590000D03*
X81380000Y-91050000D03*
%TD*%
D12*
%TO.C,D112*%
X53492500Y-96250000D03*
X55067500Y-96250000D03*
%TD*%
D14*
%TO.C,C109*%
X93240000Y-96800000D03*
X95140000Y-96800000D03*
%TD*%
%TO.C,C201*%
X61830000Y-93460000D03*
X63730000Y-93460000D03*
%TD*%
D28*
%TO.C,C303*%
X114980000Y-104980000D03*
X114980000Y-103080000D03*
%TD*%
D40*
%TO.C,L201*%
X137220000Y-77320000D03*
X137220000Y-80320000D03*
%TD*%
D41*
%TO.C,X102*%
X87530000Y-99830000D03*
X85230000Y-99830000D03*
X85230000Y-101530000D03*
X87530000Y-101530000D03*
%TD*%
D21*
%TO.C,D102*%
X97140000Y-66830000D03*
X95740000Y-66830000D03*
%TD*%
D28*
%TO.C,C302*%
X109740000Y-95600000D03*
X109740000Y-93700000D03*
%TD*%
D38*
%TO.C,U103*%
X96787500Y-96650000D03*
X96787500Y-97600000D03*
X96787500Y-98550000D03*
X99387500Y-98550000D03*
X99387500Y-97600000D03*
X99387500Y-96650000D03*
%TD*%
D42*
%TO.C,U101*%
X74120000Y-84115000D03*
X74120000Y-82845000D03*
X74120000Y-81575000D03*
X74120000Y-80305000D03*
X74120000Y-79035000D03*
X74120000Y-77765000D03*
X74120000Y-76495000D03*
X74120000Y-75225000D03*
X74120000Y-73955000D03*
X74120000Y-72685000D03*
X74120000Y-71415000D03*
X74120000Y-70145000D03*
X74120000Y-68875000D03*
X74120000Y-67605000D03*
X64720000Y-67605000D03*
X64720000Y-68875000D03*
X64720000Y-70145000D03*
X64720000Y-71415000D03*
X64720000Y-72685000D03*
X64720000Y-73955000D03*
X64720000Y-75225000D03*
X64720000Y-76495000D03*
X64720000Y-77765000D03*
X64720000Y-79035000D03*
X64720000Y-80305000D03*
X64720000Y-81575000D03*
X64720000Y-82845000D03*
X64720000Y-84115000D03*
%TD*%
D23*
%TO.C,D108*%
X55367500Y-86020000D03*
X53792500Y-86020000D03*
%TD*%
D28*
%TO.C,R201*%
X87780000Y-88210000D03*
X87780000Y-86310000D03*
%TD*%
D19*
%TO.C,C104*%
X101000000Y-71170000D03*
X101000000Y-73070000D03*
%TD*%
D16*
%TO.C,R108*%
X98380000Y-114270000D03*
X96480000Y-114270000D03*
%TD*%
D43*
%TO.C,D111*%
X57700000Y-95332500D03*
X57700000Y-96907500D03*
%TD*%
D44*
%TO.C,U104*%
X102100000Y-106970000D03*
X102100000Y-106020000D03*
X102100000Y-105070000D03*
X99500000Y-105070000D03*
X99500000Y-106020000D03*
X99500000Y-106970000D03*
%TD*%
D45*
%TO.C,F201*%
X137487500Y-73050000D03*
X133212500Y-73050000D03*
%TD*%
D20*
%TO.C,R205*%
X76270000Y-107272500D03*
X76270000Y-105447500D03*
%TD*%
D46*
%TO.C,U102*%
X89990000Y-103750000D03*
X89990000Y-104250000D03*
X89990000Y-104750000D03*
X89990000Y-105250000D03*
X89990000Y-105750000D03*
X94390000Y-105750000D03*
X94390000Y-105250000D03*
X94390000Y-104750000D03*
X94390000Y-104250000D03*
X94390000Y-103750000D03*
%TD*%
D23*
%TO.C,D105*%
X55027500Y-90800000D03*
X53452500Y-90800000D03*
%TD*%
D32*
%TO.C,C111*%
X117670000Y-113460000D03*
X124130000Y-113460000D03*
%TD*%
D47*
%TO.C,C110*%
X102055000Y-109480000D03*
X99105000Y-109480000D03*
%TD*%
D19*
%TO.C,C206*%
X82560000Y-97110000D03*
X82560000Y-99010000D03*
%TD*%
D20*
%TO.C,R204*%
X76310000Y-103792500D03*
X76310000Y-101967500D03*
%TD*%
D15*
%TO.C,D107*%
X93870000Y-94965000D03*
X93870000Y-91915000D03*
%TD*%
D48*
%TO.C,R101*%
X101432500Y-63030000D03*
X99607500Y-63030000D03*
%TD*%
D28*
%TO.C,C305*%
X119380000Y-95820000D03*
X119380000Y-93920000D03*
%TD*%
D13*
%TO.C,R102*%
X96937500Y-69680000D03*
X98762500Y-69680000D03*
%TD*%
D14*
%TO.C,C112*%
X101870000Y-116330000D03*
X103770000Y-116330000D03*
%TD*%
D49*
%TO.C,SW101*%
X78590000Y-114380000D03*
X85790000Y-114380000D03*
X85790000Y-117380000D03*
X78590000Y-117380000D03*
%TD*%
D44*
%TO.C,U201*%
X68340000Y-93700000D03*
X68340000Y-92750000D03*
X68340000Y-91800000D03*
X65740000Y-91800000D03*
X65740000Y-93700000D03*
%TD*%
D19*
%TO.C,C217*%
X73780000Y-101990000D03*
X73780000Y-103890000D03*
%TD*%
D50*
%TO.C,J107*%
X48102500Y-85257500D03*
X48102500Y-88027500D03*
X48102500Y-90797500D03*
X48102500Y-93567500D03*
%TD*%
M02*
