%TF.GenerationSoftware,KiCad,Pcbnew,(6.0.4-0)*%
%TF.CreationDate,2023-11-22T20:28:16-05:00*%
%TF.ProjectId,SignalSlinger,5369676e-616c-4536-9c69-6e6765722e6b,rev?*%
%TF.SameCoordinates,Original*%
%TF.FileFunction,Legend,Bot*%
%TF.FilePolarity,Positive*%
%FSLAX46Y46*%
G04 Gerber Fmt 4.6, Leading zero omitted, Abs format (unit mm)*
G04 Created by KiCad (PCBNEW (6.0.4-0)) date 2023-11-22 20:28:16*
%MOMM*%
%LPD*%
G01*
G04 APERTURE LIST*
%ADD10C,0.250000*%
%ADD11C,0.150000*%
%ADD12C,0.300000*%
%ADD13C,0.100000*%
%ADD14C,0.125000*%
%ADD15C,0.120000*%
%ADD16C,3.799840*%
%ADD17O,2.499360X1.501140*%
G04 APERTURE END LIST*
D10*
X90508448Y-86661234D02*
X90337020Y-86718377D01*
X90051305Y-86718377D01*
X89937020Y-86661234D01*
X89879877Y-86604091D01*
X89822734Y-86489805D01*
X89822734Y-86375520D01*
X89879877Y-86261234D01*
X89937020Y-86204091D01*
X90051305Y-86146948D01*
X90279877Y-86089805D01*
X90394162Y-86032662D01*
X90451305Y-85975520D01*
X90508448Y-85861234D01*
X90508448Y-85746948D01*
X90451305Y-85632662D01*
X90394162Y-85575520D01*
X90279877Y-85518377D01*
X89994162Y-85518377D01*
X89822734Y-85575520D01*
X89308448Y-86718377D02*
X89308448Y-85918377D01*
X89308448Y-85518377D02*
X89365591Y-85575520D01*
X89308448Y-85632662D01*
X89251305Y-85575520D01*
X89308448Y-85518377D01*
X89308448Y-85632662D01*
X88222734Y-85918377D02*
X88222734Y-86889805D01*
X88279877Y-87004091D01*
X88337020Y-87061234D01*
X88451305Y-87118377D01*
X88622734Y-87118377D01*
X88737020Y-87061234D01*
X88222734Y-86661234D02*
X88337020Y-86718377D01*
X88565591Y-86718377D01*
X88679877Y-86661234D01*
X88737020Y-86604091D01*
X88794162Y-86489805D01*
X88794162Y-86146948D01*
X88737020Y-86032662D01*
X88679877Y-85975520D01*
X88565591Y-85918377D01*
X88337020Y-85918377D01*
X88222734Y-85975520D01*
X87651305Y-85918377D02*
X87651305Y-86718377D01*
X87651305Y-86032662D02*
X87594162Y-85975520D01*
X87479877Y-85918377D01*
X87308448Y-85918377D01*
X87194162Y-85975520D01*
X87137020Y-86089805D01*
X87137020Y-86718377D01*
X86051305Y-86718377D02*
X86051305Y-86089805D01*
X86108448Y-85975520D01*
X86222734Y-85918377D01*
X86451305Y-85918377D01*
X86565591Y-85975520D01*
X86051305Y-86661234D02*
X86165591Y-86718377D01*
X86451305Y-86718377D01*
X86565591Y-86661234D01*
X86622734Y-86546948D01*
X86622734Y-86432662D01*
X86565591Y-86318377D01*
X86451305Y-86261234D01*
X86165591Y-86261234D01*
X86051305Y-86204091D01*
X85308448Y-86718377D02*
X85422734Y-86661234D01*
X85479877Y-86546948D01*
X85479877Y-85518377D01*
X84908448Y-86661234D02*
X84737020Y-86718377D01*
X84451305Y-86718377D01*
X84337020Y-86661234D01*
X84279877Y-86604091D01*
X84222734Y-86489805D01*
X84222734Y-86375520D01*
X84279877Y-86261234D01*
X84337020Y-86204091D01*
X84451305Y-86146948D01*
X84679877Y-86089805D01*
X84794162Y-86032662D01*
X84851305Y-85975520D01*
X84908448Y-85861234D01*
X84908448Y-85746948D01*
X84851305Y-85632662D01*
X84794162Y-85575520D01*
X84679877Y-85518377D01*
X84394162Y-85518377D01*
X84222734Y-85575520D01*
X83537020Y-86718377D02*
X83651305Y-86661234D01*
X83708448Y-86546948D01*
X83708448Y-85518377D01*
X83079877Y-86718377D02*
X83079877Y-85918377D01*
X83079877Y-85518377D02*
X83137020Y-85575520D01*
X83079877Y-85632662D01*
X83022734Y-85575520D01*
X83079877Y-85518377D01*
X83079877Y-85632662D01*
X82508448Y-85918377D02*
X82508448Y-86718377D01*
X82508448Y-86032662D02*
X82451305Y-85975520D01*
X82337020Y-85918377D01*
X82165591Y-85918377D01*
X82051305Y-85975520D01*
X81994162Y-86089805D01*
X81994162Y-86718377D01*
X80908448Y-85918377D02*
X80908448Y-86889805D01*
X80965591Y-87004091D01*
X81022734Y-87061234D01*
X81137020Y-87118377D01*
X81308448Y-87118377D01*
X81422734Y-87061234D01*
X80908448Y-86661234D02*
X81022734Y-86718377D01*
X81251305Y-86718377D01*
X81365591Y-86661234D01*
X81422734Y-86604091D01*
X81479877Y-86489805D01*
X81479877Y-86146948D01*
X81422734Y-86032662D01*
X81365591Y-85975520D01*
X81251305Y-85918377D01*
X81022734Y-85918377D01*
X80908448Y-85975520D01*
X79879877Y-86661234D02*
X79994162Y-86718377D01*
X80222734Y-86718377D01*
X80337020Y-86661234D01*
X80394162Y-86546948D01*
X80394162Y-86089805D01*
X80337020Y-85975520D01*
X80222734Y-85918377D01*
X79994162Y-85918377D01*
X79879877Y-85975520D01*
X79822734Y-86089805D01*
X79822734Y-86204091D01*
X80394162Y-86318377D01*
X79308448Y-86718377D02*
X79308448Y-85918377D01*
X79308448Y-86146948D02*
X79251305Y-86032662D01*
X79194162Y-85975520D01*
X79079877Y-85918377D01*
X78965591Y-85918377D01*
X89937020Y-87850377D02*
X89937020Y-88821805D01*
X89994162Y-88936091D01*
X90051305Y-88993234D01*
X90165591Y-89050377D01*
X90337020Y-89050377D01*
X90451305Y-88993234D01*
X89937020Y-88593234D02*
X90051305Y-88650377D01*
X90279877Y-88650377D01*
X90394162Y-88593234D01*
X90451305Y-88536091D01*
X90508448Y-88421805D01*
X90508448Y-88078948D01*
X90451305Y-87964662D01*
X90394162Y-87907520D01*
X90279877Y-87850377D01*
X90051305Y-87850377D01*
X89937020Y-87907520D01*
X89365591Y-88650377D02*
X89365591Y-87850377D01*
X89365591Y-87450377D02*
X89422734Y-87507520D01*
X89365591Y-87564662D01*
X89308448Y-87507520D01*
X89365591Y-87450377D01*
X89365591Y-87564662D01*
X88965591Y-87850377D02*
X88508448Y-87850377D01*
X88794162Y-87450377D02*
X88794162Y-88478948D01*
X88737020Y-88593234D01*
X88622734Y-88650377D01*
X88508448Y-88650377D01*
X88108448Y-88650377D02*
X88108448Y-87450377D01*
X87594162Y-88650377D02*
X87594162Y-88021805D01*
X87651305Y-87907520D01*
X87765591Y-87850377D01*
X87937020Y-87850377D01*
X88051305Y-87907520D01*
X88108448Y-87964662D01*
X86508448Y-87850377D02*
X86508448Y-88650377D01*
X87022734Y-87850377D02*
X87022734Y-88478948D01*
X86965591Y-88593234D01*
X86851305Y-88650377D01*
X86679877Y-88650377D01*
X86565591Y-88593234D01*
X86508448Y-88536091D01*
X85937020Y-88650377D02*
X85937020Y-87450377D01*
X85937020Y-87907520D02*
X85822734Y-87850377D01*
X85594162Y-87850377D01*
X85479877Y-87907520D01*
X85422734Y-87964662D01*
X85365591Y-88078948D01*
X85365591Y-88421805D01*
X85422734Y-88536091D01*
X85479877Y-88593234D01*
X85594162Y-88650377D01*
X85822734Y-88650377D01*
X85937020Y-88593234D01*
X84851305Y-88536091D02*
X84794162Y-88593234D01*
X84851305Y-88650377D01*
X84908448Y-88593234D01*
X84851305Y-88536091D01*
X84851305Y-88650377D01*
X83765591Y-88593234D02*
X83879877Y-88650377D01*
X84108448Y-88650377D01*
X84222734Y-88593234D01*
X84279877Y-88536091D01*
X84337020Y-88421805D01*
X84337020Y-88078948D01*
X84279877Y-87964662D01*
X84222734Y-87907520D01*
X84108448Y-87850377D01*
X83879877Y-87850377D01*
X83765591Y-87907520D01*
X83079877Y-88650377D02*
X83194162Y-88593234D01*
X83251305Y-88536091D01*
X83308448Y-88421805D01*
X83308448Y-88078948D01*
X83251305Y-87964662D01*
X83194162Y-87907520D01*
X83079877Y-87850377D01*
X82908448Y-87850377D01*
X82794162Y-87907520D01*
X82737020Y-87964662D01*
X82679877Y-88078948D01*
X82679877Y-88421805D01*
X82737020Y-88536091D01*
X82794162Y-88593234D01*
X82908448Y-88650377D01*
X83079877Y-88650377D01*
X82165591Y-88650377D02*
X82165591Y-87850377D01*
X82165591Y-87964662D02*
X82108448Y-87907520D01*
X81994162Y-87850377D01*
X81822734Y-87850377D01*
X81708448Y-87907520D01*
X81651305Y-88021805D01*
X81651305Y-88650377D01*
X81651305Y-88021805D02*
X81594162Y-87907520D01*
X81479877Y-87850377D01*
X81308448Y-87850377D01*
X81194162Y-87907520D01*
X81137020Y-88021805D01*
X81137020Y-88650377D01*
X79708448Y-87393234D02*
X80737020Y-88936091D01*
X79079877Y-87450377D02*
X78851305Y-87450377D01*
X78737019Y-87507520D01*
X78622734Y-87621805D01*
X78565591Y-87850377D01*
X78565591Y-88250377D01*
X78622734Y-88478948D01*
X78737019Y-88593234D01*
X78851305Y-88650377D01*
X79079877Y-88650377D01*
X79194162Y-88593234D01*
X79308448Y-88478948D01*
X79365591Y-88250377D01*
X79365591Y-87850377D01*
X79308448Y-87621805D01*
X79194162Y-87507520D01*
X79079877Y-87450377D01*
X78051305Y-87850377D02*
X78051305Y-89050377D01*
X78051305Y-87907520D02*
X77937019Y-87850377D01*
X77708448Y-87850377D01*
X77594162Y-87907520D01*
X77537019Y-87964662D01*
X77479877Y-88078948D01*
X77479877Y-88421805D01*
X77537019Y-88536091D01*
X77594162Y-88593234D01*
X77708448Y-88650377D01*
X77937019Y-88650377D01*
X78051305Y-88593234D01*
X76508448Y-88593234D02*
X76622734Y-88650377D01*
X76851305Y-88650377D01*
X76965591Y-88593234D01*
X77022734Y-88478948D01*
X77022734Y-88021805D01*
X76965591Y-87907520D01*
X76851305Y-87850377D01*
X76622734Y-87850377D01*
X76508448Y-87907520D01*
X76451305Y-88021805D01*
X76451305Y-88136091D01*
X77022734Y-88250377D01*
X75937019Y-87850377D02*
X75937019Y-88650377D01*
X75937019Y-87964662D02*
X75879877Y-87907520D01*
X75765591Y-87850377D01*
X75594162Y-87850377D01*
X75479877Y-87907520D01*
X75422734Y-88021805D01*
X75422734Y-88650377D01*
X74908448Y-88307520D02*
X74337019Y-88307520D01*
X75022734Y-88650377D02*
X74622734Y-87450377D01*
X74222734Y-88650377D01*
X73137019Y-88650377D02*
X73537019Y-88078948D01*
X73822734Y-88650377D02*
X73822734Y-87450377D01*
X73365591Y-87450377D01*
X73251305Y-87507520D01*
X73194162Y-87564662D01*
X73137019Y-87678948D01*
X73137019Y-87850377D01*
X73194162Y-87964662D01*
X73251305Y-88021805D01*
X73365591Y-88078948D01*
X73822734Y-88078948D01*
X72622734Y-88650377D02*
X72622734Y-87450377D01*
X72337019Y-87450377D01*
X72165591Y-87507520D01*
X72051305Y-87621805D01*
X71994162Y-87736091D01*
X71937019Y-87964662D01*
X71937019Y-88136091D01*
X71994162Y-88364662D01*
X72051305Y-88478948D01*
X72165591Y-88593234D01*
X72337019Y-88650377D01*
X72622734Y-88650377D01*
X71022734Y-88021805D02*
X71422734Y-88021805D01*
X71422734Y-88650377D02*
X71422734Y-87450377D01*
X70851305Y-87450377D01*
X69537019Y-87393234D02*
X70565591Y-88936091D01*
X69194162Y-88593234D02*
X69022734Y-88650377D01*
X68737019Y-88650377D01*
X68622734Y-88593234D01*
X68565591Y-88536091D01*
X68508448Y-88421805D01*
X68508448Y-88307520D01*
X68565591Y-88193234D01*
X68622734Y-88136091D01*
X68737019Y-88078948D01*
X68965591Y-88021805D01*
X69079877Y-87964662D01*
X69137019Y-87907520D01*
X69194162Y-87793234D01*
X69194162Y-87678948D01*
X69137019Y-87564662D01*
X69079877Y-87507520D01*
X68965591Y-87450377D01*
X68679877Y-87450377D01*
X68508448Y-87507520D01*
X67994162Y-88650377D02*
X67994162Y-87850377D01*
X67994162Y-87450377D02*
X68051305Y-87507520D01*
X67994162Y-87564662D01*
X67937019Y-87507520D01*
X67994162Y-87450377D01*
X67994162Y-87564662D01*
X66908448Y-87850377D02*
X66908448Y-88821805D01*
X66965591Y-88936091D01*
X67022734Y-88993234D01*
X67137019Y-89050377D01*
X67308448Y-89050377D01*
X67422734Y-88993234D01*
X66908448Y-88593234D02*
X67022734Y-88650377D01*
X67251305Y-88650377D01*
X67365591Y-88593234D01*
X67422734Y-88536091D01*
X67479877Y-88421805D01*
X67479877Y-88078948D01*
X67422734Y-87964662D01*
X67365591Y-87907520D01*
X67251305Y-87850377D01*
X67022734Y-87850377D01*
X66908448Y-87907520D01*
X66337019Y-87850377D02*
X66337019Y-88650377D01*
X66337019Y-87964662D02*
X66279877Y-87907520D01*
X66165591Y-87850377D01*
X65994162Y-87850377D01*
X65879877Y-87907520D01*
X65822734Y-88021805D01*
X65822734Y-88650377D01*
X64737019Y-88650377D02*
X64737019Y-88021805D01*
X64794162Y-87907520D01*
X64908448Y-87850377D01*
X65137019Y-87850377D01*
X65251305Y-87907520D01*
X64737019Y-88593234D02*
X64851305Y-88650377D01*
X65137019Y-88650377D01*
X65251305Y-88593234D01*
X65308448Y-88478948D01*
X65308448Y-88364662D01*
X65251305Y-88250377D01*
X65137019Y-88193234D01*
X64851305Y-88193234D01*
X64737019Y-88136091D01*
X63994162Y-88650377D02*
X64108448Y-88593234D01*
X64165591Y-88478948D01*
X64165591Y-87450377D01*
X63594162Y-88593234D02*
X63422734Y-88650377D01*
X63137019Y-88650377D01*
X63022734Y-88593234D01*
X62965591Y-88536091D01*
X62908448Y-88421805D01*
X62908448Y-88307520D01*
X62965591Y-88193234D01*
X63022734Y-88136091D01*
X63137019Y-88078948D01*
X63365591Y-88021805D01*
X63479877Y-87964662D01*
X63537019Y-87907520D01*
X63594162Y-87793234D01*
X63594162Y-87678948D01*
X63537019Y-87564662D01*
X63479877Y-87507520D01*
X63365591Y-87450377D01*
X63079877Y-87450377D01*
X62908448Y-87507520D01*
X62222734Y-88650377D02*
X62337019Y-88593234D01*
X62394162Y-88478948D01*
X62394162Y-87450377D01*
X61765591Y-88650377D02*
X61765591Y-87850377D01*
X61765591Y-87450377D02*
X61822734Y-87507520D01*
X61765591Y-87564662D01*
X61708448Y-87507520D01*
X61765591Y-87450377D01*
X61765591Y-87564662D01*
X61194162Y-87850377D02*
X61194162Y-88650377D01*
X61194162Y-87964662D02*
X61137019Y-87907520D01*
X61022734Y-87850377D01*
X60851305Y-87850377D01*
X60737019Y-87907520D01*
X60679877Y-88021805D01*
X60679877Y-88650377D01*
X59594162Y-87850377D02*
X59594162Y-88821805D01*
X59651305Y-88936091D01*
X59708448Y-88993234D01*
X59822734Y-89050377D01*
X59994162Y-89050377D01*
X60108448Y-88993234D01*
X59594162Y-88593234D02*
X59708448Y-88650377D01*
X59937019Y-88650377D01*
X60051305Y-88593234D01*
X60108448Y-88536091D01*
X60165591Y-88421805D01*
X60165591Y-88078948D01*
X60108448Y-87964662D01*
X60051305Y-87907520D01*
X59937019Y-87850377D01*
X59708448Y-87850377D01*
X59594162Y-87907520D01*
X58565591Y-88593234D02*
X58679877Y-88650377D01*
X58908448Y-88650377D01*
X59022734Y-88593234D01*
X59079877Y-88478948D01*
X59079877Y-88021805D01*
X59022734Y-87907520D01*
X58908448Y-87850377D01*
X58679877Y-87850377D01*
X58565591Y-87907520D01*
X58508448Y-88021805D01*
X58508448Y-88136091D01*
X59079877Y-88250377D01*
X57994162Y-88650377D02*
X57994162Y-87850377D01*
X57994162Y-88078948D02*
X57937019Y-87964662D01*
X57879877Y-87907520D01*
X57765591Y-87850377D01*
X57651305Y-87850377D01*
X90222734Y-89382377D02*
X89994162Y-89382377D01*
X89879877Y-89439520D01*
X89765591Y-89553805D01*
X89708448Y-89782377D01*
X89708448Y-90182377D01*
X89765591Y-90410948D01*
X89879877Y-90525234D01*
X89994162Y-90582377D01*
X90222734Y-90582377D01*
X90337020Y-90525234D01*
X90451305Y-90410948D01*
X90508448Y-90182377D01*
X90508448Y-89782377D01*
X90451305Y-89553805D01*
X90337020Y-89439520D01*
X90222734Y-89382377D01*
X89194162Y-89782377D02*
X89194162Y-90982377D01*
X89194162Y-89839520D02*
X89079877Y-89782377D01*
X88851305Y-89782377D01*
X88737020Y-89839520D01*
X88679877Y-89896662D01*
X88622734Y-90010948D01*
X88622734Y-90353805D01*
X88679877Y-90468091D01*
X88737020Y-90525234D01*
X88851305Y-90582377D01*
X89079877Y-90582377D01*
X89194162Y-90525234D01*
X87651305Y-90525234D02*
X87765591Y-90582377D01*
X87994162Y-90582377D01*
X88108448Y-90525234D01*
X88165591Y-90410948D01*
X88165591Y-89953805D01*
X88108448Y-89839520D01*
X87994162Y-89782377D01*
X87765591Y-89782377D01*
X87651305Y-89839520D01*
X87594162Y-89953805D01*
X87594162Y-90068091D01*
X88165591Y-90182377D01*
X87079877Y-89782377D02*
X87079877Y-90582377D01*
X87079877Y-89896662D02*
X87022734Y-89839520D01*
X86908448Y-89782377D01*
X86737020Y-89782377D01*
X86622734Y-89839520D01*
X86565591Y-89953805D01*
X86565591Y-90582377D01*
X85137020Y-90525234D02*
X84965591Y-90582377D01*
X84679877Y-90582377D01*
X84565591Y-90525234D01*
X84508448Y-90468091D01*
X84451305Y-90353805D01*
X84451305Y-90239520D01*
X84508448Y-90125234D01*
X84565591Y-90068091D01*
X84679877Y-90010948D01*
X84908448Y-89953805D01*
X85022734Y-89896662D01*
X85079877Y-89839520D01*
X85137020Y-89725234D01*
X85137020Y-89610948D01*
X85079877Y-89496662D01*
X85022734Y-89439520D01*
X84908448Y-89382377D01*
X84622734Y-89382377D01*
X84451305Y-89439520D01*
X83765591Y-90582377D02*
X83879877Y-90525234D01*
X83937020Y-90468091D01*
X83994162Y-90353805D01*
X83994162Y-90010948D01*
X83937020Y-89896662D01*
X83879877Y-89839520D01*
X83765591Y-89782377D01*
X83594162Y-89782377D01*
X83479877Y-89839520D01*
X83422734Y-89896662D01*
X83365591Y-90010948D01*
X83365591Y-90353805D01*
X83422734Y-90468091D01*
X83479877Y-90525234D01*
X83594162Y-90582377D01*
X83765591Y-90582377D01*
X82337020Y-89782377D02*
X82337020Y-90582377D01*
X82851305Y-89782377D02*
X82851305Y-90410948D01*
X82794162Y-90525234D01*
X82679877Y-90582377D01*
X82508448Y-90582377D01*
X82394162Y-90525234D01*
X82337020Y-90468091D01*
X81765591Y-90582377D02*
X81765591Y-89782377D01*
X81765591Y-90010948D02*
X81708448Y-89896662D01*
X81651305Y-89839520D01*
X81537020Y-89782377D01*
X81422734Y-89782377D01*
X80508448Y-90525234D02*
X80622734Y-90582377D01*
X80851305Y-90582377D01*
X80965591Y-90525234D01*
X81022734Y-90468091D01*
X81079877Y-90353805D01*
X81079877Y-90010948D01*
X81022734Y-89896662D01*
X80965591Y-89839520D01*
X80851305Y-89782377D01*
X80622734Y-89782377D01*
X80508448Y-89839520D01*
X79537020Y-90525234D02*
X79651305Y-90582377D01*
X79879877Y-90582377D01*
X79994162Y-90525234D01*
X80051305Y-90410948D01*
X80051305Y-89953805D01*
X79994162Y-89839520D01*
X79879877Y-89782377D01*
X79651305Y-89782377D01*
X79537020Y-89839520D01*
X79479877Y-89953805D01*
X79479877Y-90068091D01*
X80051305Y-90182377D01*
X78965591Y-90468091D02*
X78908448Y-90525234D01*
X78965591Y-90582377D01*
X79022734Y-90525234D01*
X78965591Y-90468091D01*
X78965591Y-90582377D01*
X78965591Y-89839520D02*
X78908448Y-89896662D01*
X78965591Y-89953805D01*
X79022734Y-89896662D01*
X78965591Y-89839520D01*
X78965591Y-89953805D01*
X77479877Y-90582377D02*
X77479877Y-89382377D01*
X77079877Y-90239520D01*
X76679877Y-89382377D01*
X76679877Y-90582377D01*
X76108448Y-90582377D02*
X76108448Y-89382377D01*
X75708448Y-89382377D02*
X75022734Y-89382377D01*
X75365591Y-90582377D02*
X75365591Y-89382377D01*
X73137020Y-90582377D02*
X73708448Y-90582377D01*
X73708448Y-89382377D01*
X72737020Y-90582377D02*
X72737020Y-89782377D01*
X72737020Y-89382377D02*
X72794162Y-89439520D01*
X72737020Y-89496662D01*
X72679877Y-89439520D01*
X72737020Y-89382377D01*
X72737020Y-89496662D01*
X71651305Y-90525234D02*
X71765591Y-90582377D01*
X71994162Y-90582377D01*
X72108448Y-90525234D01*
X72165591Y-90468091D01*
X72222734Y-90353805D01*
X72222734Y-90010948D01*
X72165591Y-89896662D01*
X72108448Y-89839520D01*
X71994162Y-89782377D01*
X71765591Y-89782377D01*
X71651305Y-89839520D01*
X70679877Y-90525234D02*
X70794162Y-90582377D01*
X71022734Y-90582377D01*
X71137020Y-90525234D01*
X71194162Y-90410948D01*
X71194162Y-89953805D01*
X71137020Y-89839520D01*
X71022734Y-89782377D01*
X70794162Y-89782377D01*
X70679877Y-89839520D01*
X70622734Y-89953805D01*
X70622734Y-90068091D01*
X71194162Y-90182377D01*
X70108448Y-89782377D02*
X70108448Y-90582377D01*
X70108448Y-89896662D02*
X70051305Y-89839520D01*
X69937020Y-89782377D01*
X69765591Y-89782377D01*
X69651305Y-89839520D01*
X69594162Y-89953805D01*
X69594162Y-90582377D01*
X69079877Y-90525234D02*
X68965591Y-90582377D01*
X68737020Y-90582377D01*
X68622734Y-90525234D01*
X68565591Y-90410948D01*
X68565591Y-90353805D01*
X68622734Y-90239520D01*
X68737020Y-90182377D01*
X68908448Y-90182377D01*
X69022734Y-90125234D01*
X69079877Y-90010948D01*
X69079877Y-89953805D01*
X69022734Y-89839520D01*
X68908448Y-89782377D01*
X68737020Y-89782377D01*
X68622734Y-89839520D01*
X67594162Y-90525234D02*
X67708448Y-90582377D01*
X67937020Y-90582377D01*
X68051305Y-90525234D01*
X68108448Y-90410948D01*
X68108448Y-89953805D01*
X68051305Y-89839520D01*
X67937020Y-89782377D01*
X67708448Y-89782377D01*
X67594162Y-89839520D01*
X67537020Y-89953805D01*
X67537020Y-90068091D01*
X68108448Y-90182377D01*
X90451305Y-92514377D02*
X90451305Y-91314377D01*
X90051305Y-92171520D01*
X89651305Y-91314377D01*
X89651305Y-92514377D01*
X88908448Y-92514377D02*
X89022734Y-92457234D01*
X89079877Y-92400091D01*
X89137020Y-92285805D01*
X89137020Y-91942948D01*
X89079877Y-91828662D01*
X89022734Y-91771520D01*
X88908448Y-91714377D01*
X88737020Y-91714377D01*
X88622734Y-91771520D01*
X88565591Y-91828662D01*
X88508448Y-91942948D01*
X88508448Y-92285805D01*
X88565591Y-92400091D01*
X88622734Y-92457234D01*
X88737020Y-92514377D01*
X88908448Y-92514377D01*
X87479877Y-92514377D02*
X87479877Y-91314377D01*
X87479877Y-92457234D02*
X87594162Y-92514377D01*
X87822734Y-92514377D01*
X87937020Y-92457234D01*
X87994162Y-92400091D01*
X88051305Y-92285805D01*
X88051305Y-91942948D01*
X87994162Y-91828662D01*
X87937020Y-91771520D01*
X87822734Y-91714377D01*
X87594162Y-91714377D01*
X87479877Y-91771520D01*
X86451305Y-92457234D02*
X86565591Y-92514377D01*
X86794162Y-92514377D01*
X86908448Y-92457234D01*
X86965591Y-92342948D01*
X86965591Y-91885805D01*
X86908448Y-91771520D01*
X86794162Y-91714377D01*
X86565591Y-91714377D01*
X86451305Y-91771520D01*
X86394162Y-91885805D01*
X86394162Y-92000091D01*
X86965591Y-92114377D01*
X85708448Y-92514377D02*
X85822734Y-92457234D01*
X85879877Y-92342948D01*
X85879877Y-91314377D01*
X85251305Y-92400091D02*
X85194162Y-92457234D01*
X85251305Y-92514377D01*
X85308448Y-92457234D01*
X85251305Y-92400091D01*
X85251305Y-92514377D01*
X85251305Y-91771520D02*
X85194162Y-91828662D01*
X85251305Y-91885805D01*
X85308448Y-91828662D01*
X85251305Y-91771520D01*
X85251305Y-91885805D01*
X83822734Y-92457234D02*
X83651305Y-92514377D01*
X83365591Y-92514377D01*
X83251305Y-92457234D01*
X83194162Y-92400091D01*
X83137020Y-92285805D01*
X83137020Y-92171520D01*
X83194162Y-92057234D01*
X83251305Y-92000091D01*
X83365591Y-91942948D01*
X83594162Y-91885805D01*
X83708448Y-91828662D01*
X83765591Y-91771520D01*
X83822734Y-91657234D01*
X83822734Y-91542948D01*
X83765591Y-91428662D01*
X83708448Y-91371520D01*
X83594162Y-91314377D01*
X83308448Y-91314377D01*
X83137020Y-91371520D01*
X82679877Y-92457234D02*
X82508448Y-92514377D01*
X82222734Y-92514377D01*
X82108448Y-92457234D01*
X82051305Y-92400091D01*
X81994162Y-92285805D01*
X81994162Y-92171520D01*
X82051305Y-92057234D01*
X82108448Y-92000091D01*
X82222734Y-91942948D01*
X82451305Y-91885805D01*
X82565591Y-91828662D01*
X82622734Y-91771520D01*
X82679877Y-91657234D01*
X82679877Y-91542948D01*
X82622734Y-91428662D01*
X82565591Y-91371520D01*
X82451305Y-91314377D01*
X82165591Y-91314377D01*
X81994162Y-91371520D01*
X81479877Y-92057234D02*
X80565591Y-92057234D01*
X79822734Y-91828662D02*
X79937020Y-91771520D01*
X79994162Y-91714377D01*
X80051305Y-91600091D01*
X80051305Y-91542948D01*
X79994162Y-91428662D01*
X79937020Y-91371520D01*
X79822734Y-91314377D01*
X79594162Y-91314377D01*
X79479877Y-91371520D01*
X79422734Y-91428662D01*
X79365591Y-91542948D01*
X79365591Y-91600091D01*
X79422734Y-91714377D01*
X79479877Y-91771520D01*
X79594162Y-91828662D01*
X79822734Y-91828662D01*
X79937020Y-91885805D01*
X79994162Y-91942948D01*
X80051305Y-92057234D01*
X80051305Y-92285805D01*
X79994162Y-92400091D01*
X79937020Y-92457234D01*
X79822734Y-92514377D01*
X79594162Y-92514377D01*
X79479877Y-92457234D01*
X79422734Y-92400091D01*
X79365591Y-92285805D01*
X79365591Y-92057234D01*
X79422734Y-91942948D01*
X79479877Y-91885805D01*
X79594162Y-91828662D01*
X78622734Y-91314377D02*
X78508448Y-91314377D01*
X78394162Y-91371520D01*
X78337020Y-91428662D01*
X78279877Y-91542948D01*
X78222734Y-91771520D01*
X78222734Y-92057234D01*
X78279877Y-92285805D01*
X78337020Y-92400091D01*
X78394162Y-92457234D01*
X78508448Y-92514377D01*
X78622734Y-92514377D01*
X78737020Y-92457234D01*
X78794162Y-92400091D01*
X78851305Y-92285805D01*
X78908448Y-92057234D01*
X78908448Y-91771520D01*
X78851305Y-91542948D01*
X78794162Y-91428662D01*
X78737020Y-91371520D01*
X78622734Y-91314377D01*
X90451305Y-94446377D02*
X90451305Y-93246377D01*
X89765591Y-94446377D01*
X89765591Y-93246377D01*
X89022734Y-94446377D02*
X89137020Y-94389234D01*
X89194162Y-94332091D01*
X89251305Y-94217805D01*
X89251305Y-93874948D01*
X89194162Y-93760662D01*
X89137020Y-93703520D01*
X89022734Y-93646377D01*
X88851305Y-93646377D01*
X88737020Y-93703520D01*
X88679877Y-93760662D01*
X88622734Y-93874948D01*
X88622734Y-94217805D01*
X88679877Y-94332091D01*
X88737020Y-94389234D01*
X88851305Y-94446377D01*
X89022734Y-94446377D01*
X88222734Y-93646377D02*
X87937020Y-94446377D01*
X87651305Y-93646377D01*
X86337020Y-93360662D02*
X86279877Y-93303520D01*
X86165591Y-93246377D01*
X85879877Y-93246377D01*
X85765591Y-93303520D01*
X85708448Y-93360662D01*
X85651305Y-93474948D01*
X85651305Y-93589234D01*
X85708448Y-93760662D01*
X86394162Y-94446377D01*
X85651305Y-94446377D01*
X84908448Y-93246377D02*
X84794162Y-93246377D01*
X84679877Y-93303520D01*
X84622734Y-93360662D01*
X84565591Y-93474948D01*
X84508448Y-93703520D01*
X84508448Y-93989234D01*
X84565591Y-94217805D01*
X84622734Y-94332091D01*
X84679877Y-94389234D01*
X84794162Y-94446377D01*
X84908448Y-94446377D01*
X85022734Y-94389234D01*
X85079877Y-94332091D01*
X85137020Y-94217805D01*
X85194162Y-93989234D01*
X85194162Y-93703520D01*
X85137020Y-93474948D01*
X85079877Y-93360662D01*
X85022734Y-93303520D01*
X84908448Y-93246377D01*
X84051305Y-93360662D02*
X83994162Y-93303520D01*
X83879877Y-93246377D01*
X83594162Y-93246377D01*
X83479877Y-93303520D01*
X83422734Y-93360662D01*
X83365591Y-93474948D01*
X83365591Y-93589234D01*
X83422734Y-93760662D01*
X84108448Y-94446377D01*
X83365591Y-94446377D01*
X82965591Y-93246377D02*
X82222734Y-93246377D01*
X82622734Y-93703520D01*
X82451305Y-93703520D01*
X82337020Y-93760662D01*
X82279877Y-93817805D01*
X82222734Y-93932091D01*
X82222734Y-94217805D01*
X82279877Y-94332091D01*
X82337020Y-94389234D01*
X82451305Y-94446377D01*
X82794162Y-94446377D01*
X82908448Y-94389234D01*
X82965591Y-94332091D01*
D11*
X51746190Y-92068571D02*
X52079523Y-92068571D01*
X52079523Y-92592380D02*
X52079523Y-91592380D01*
X51603333Y-91592380D01*
X51222380Y-92211428D02*
X50460476Y-92211428D01*
X50841428Y-92592380D02*
X50841428Y-91830476D01*
X93671904Y-75352380D02*
X93671904Y-74352380D01*
X93290952Y-74352380D01*
X93195714Y-74400000D01*
X93148095Y-74447619D01*
X93100476Y-74542857D01*
X93100476Y-74685714D01*
X93148095Y-74780952D01*
X93195714Y-74828571D01*
X93290952Y-74876190D01*
X93671904Y-74876190D01*
X92719523Y-75304761D02*
X92576666Y-75352380D01*
X92338571Y-75352380D01*
X92243333Y-75304761D01*
X92195714Y-75257142D01*
X92148095Y-75161904D01*
X92148095Y-75066666D01*
X92195714Y-74971428D01*
X92243333Y-74923809D01*
X92338571Y-74876190D01*
X92529047Y-74828571D01*
X92624285Y-74780952D01*
X92671904Y-74733333D01*
X92719523Y-74638095D01*
X92719523Y-74542857D01*
X92671904Y-74447619D01*
X92624285Y-74400000D01*
X92529047Y-74352380D01*
X92290952Y-74352380D01*
X92148095Y-74400000D01*
X90957619Y-75352380D02*
X90957619Y-74352380D01*
X90957619Y-74828571D02*
X90386190Y-74828571D01*
X90386190Y-75352380D02*
X90386190Y-74352380D01*
X89529047Y-75304761D02*
X89624285Y-75352380D01*
X89814761Y-75352380D01*
X89910000Y-75304761D01*
X89957619Y-75209523D01*
X89957619Y-74828571D01*
X89910000Y-74733333D01*
X89814761Y-74685714D01*
X89624285Y-74685714D01*
X89529047Y-74733333D01*
X89481428Y-74828571D01*
X89481428Y-74923809D01*
X89957619Y-75019047D01*
X88624285Y-75352380D02*
X88624285Y-74828571D01*
X88671904Y-74733333D01*
X88767142Y-74685714D01*
X88957619Y-74685714D01*
X89052857Y-74733333D01*
X88624285Y-75304761D02*
X88719523Y-75352380D01*
X88957619Y-75352380D01*
X89052857Y-75304761D01*
X89100476Y-75209523D01*
X89100476Y-75114285D01*
X89052857Y-75019047D01*
X88957619Y-74971428D01*
X88719523Y-74971428D01*
X88624285Y-74923809D01*
X88290952Y-74685714D02*
X87910000Y-74685714D01*
X88148095Y-74352380D02*
X88148095Y-75209523D01*
X88100476Y-75304761D01*
X88005238Y-75352380D01*
X87910000Y-75352380D01*
X86862380Y-75304761D02*
X86719523Y-75352380D01*
X86481428Y-75352380D01*
X86386190Y-75304761D01*
X86338571Y-75257142D01*
X86290952Y-75161904D01*
X86290952Y-75066666D01*
X86338571Y-74971428D01*
X86386190Y-74923809D01*
X86481428Y-74876190D01*
X86671904Y-74828571D01*
X86767142Y-74780952D01*
X86814761Y-74733333D01*
X86862380Y-74638095D01*
X86862380Y-74542857D01*
X86814761Y-74447619D01*
X86767142Y-74400000D01*
X86671904Y-74352380D01*
X86433809Y-74352380D01*
X86290952Y-74400000D01*
X85862380Y-75352380D02*
X85862380Y-74685714D01*
X85862380Y-74352380D02*
X85910000Y-74400000D01*
X85862380Y-74447619D01*
X85814761Y-74400000D01*
X85862380Y-74352380D01*
X85862380Y-74447619D01*
X85386190Y-74685714D02*
X85386190Y-75352380D01*
X85386190Y-74780952D02*
X85338571Y-74733333D01*
X85243333Y-74685714D01*
X85100476Y-74685714D01*
X85005238Y-74733333D01*
X84957619Y-74828571D01*
X84957619Y-75352380D01*
X84481428Y-75352380D02*
X84481428Y-74352380D01*
X84386190Y-74971428D02*
X84100476Y-75352380D01*
X84100476Y-74685714D02*
X84481428Y-75066666D01*
X90372380Y-109072380D02*
X90372380Y-108072380D01*
X89991428Y-108072380D01*
X89896190Y-108120000D01*
X89848571Y-108167619D01*
X89800952Y-108262857D01*
X89800952Y-108405714D01*
X89848571Y-108500952D01*
X89896190Y-108548571D01*
X89991428Y-108596190D01*
X90372380Y-108596190D01*
X88943809Y-108405714D02*
X88943809Y-109072380D01*
X89372380Y-108405714D02*
X89372380Y-108929523D01*
X89324761Y-109024761D01*
X89229523Y-109072380D01*
X89086666Y-109072380D01*
X88991428Y-109024761D01*
X88943809Y-108977142D01*
X88515238Y-109024761D02*
X88420000Y-109072380D01*
X88229523Y-109072380D01*
X88134285Y-109024761D01*
X88086666Y-108929523D01*
X88086666Y-108881904D01*
X88134285Y-108786666D01*
X88229523Y-108739047D01*
X88372380Y-108739047D01*
X88467619Y-108691428D01*
X88515238Y-108596190D01*
X88515238Y-108548571D01*
X88467619Y-108453333D01*
X88372380Y-108405714D01*
X88229523Y-108405714D01*
X88134285Y-108453333D01*
X87658095Y-109072380D02*
X87658095Y-108072380D01*
X87229523Y-109072380D02*
X87229523Y-108548571D01*
X87277142Y-108453333D01*
X87372380Y-108405714D01*
X87515238Y-108405714D01*
X87610476Y-108453333D01*
X87658095Y-108500952D01*
X86753333Y-109072380D02*
X86753333Y-108072380D01*
X86753333Y-108453333D02*
X86658095Y-108405714D01*
X86467619Y-108405714D01*
X86372380Y-108453333D01*
X86324761Y-108500952D01*
X86277142Y-108596190D01*
X86277142Y-108881904D01*
X86324761Y-108977142D01*
X86372380Y-109024761D01*
X86467619Y-109072380D01*
X86658095Y-109072380D01*
X86753333Y-109024761D01*
X85420000Y-108405714D02*
X85420000Y-109072380D01*
X85848571Y-108405714D02*
X85848571Y-108929523D01*
X85800952Y-109024761D01*
X85705714Y-109072380D01*
X85562857Y-109072380D01*
X85467619Y-109024761D01*
X85420000Y-108977142D01*
X85086666Y-108405714D02*
X84705714Y-108405714D01*
X84943809Y-108072380D02*
X84943809Y-108929523D01*
X84896190Y-109024761D01*
X84800952Y-109072380D01*
X84705714Y-109072380D01*
X84515238Y-108405714D02*
X84134285Y-108405714D01*
X84372380Y-108072380D02*
X84372380Y-108929523D01*
X84324761Y-109024761D01*
X84229523Y-109072380D01*
X84134285Y-109072380D01*
X83658095Y-109072380D02*
X83753333Y-109024761D01*
X83800952Y-108977142D01*
X83848571Y-108881904D01*
X83848571Y-108596190D01*
X83800952Y-108500952D01*
X83753333Y-108453333D01*
X83658095Y-108405714D01*
X83515238Y-108405714D01*
X83420000Y-108453333D01*
X83372380Y-108500952D01*
X83324761Y-108596190D01*
X83324761Y-108881904D01*
X83372380Y-108977142D01*
X83420000Y-109024761D01*
X83515238Y-109072380D01*
X83658095Y-109072380D01*
X82896190Y-108405714D02*
X82896190Y-109072380D01*
X82896190Y-108500952D02*
X82848571Y-108453333D01*
X82753333Y-108405714D01*
X82610476Y-108405714D01*
X82515238Y-108453333D01*
X82467619Y-108548571D01*
X82467619Y-109072380D01*
X67760000Y-110054761D02*
X67712380Y-109959523D01*
X67712380Y-109816666D01*
X67760000Y-109673809D01*
X67855238Y-109578571D01*
X67950476Y-109530952D01*
X68140952Y-109483333D01*
X68283809Y-109483333D01*
X68474285Y-109530952D01*
X68569523Y-109578571D01*
X68664761Y-109673809D01*
X68712380Y-109816666D01*
X68712380Y-109911904D01*
X68664761Y-110054761D01*
X68617142Y-110102380D01*
X68283809Y-110102380D01*
X68283809Y-109911904D01*
X68712380Y-110530952D02*
X68045714Y-110530952D01*
X68236190Y-110530952D02*
X68140952Y-110578571D01*
X68093333Y-110626190D01*
X68045714Y-110721428D01*
X68045714Y-110816666D01*
X68664761Y-111530952D02*
X68712380Y-111435714D01*
X68712380Y-111245238D01*
X68664761Y-111150000D01*
X68569523Y-111102380D01*
X68188571Y-111102380D01*
X68093333Y-111150000D01*
X68045714Y-111245238D01*
X68045714Y-111435714D01*
X68093333Y-111530952D01*
X68188571Y-111578571D01*
X68283809Y-111578571D01*
X68379047Y-111102380D01*
X68664761Y-112388095D02*
X68712380Y-112292857D01*
X68712380Y-112102380D01*
X68664761Y-112007142D01*
X68569523Y-111959523D01*
X68188571Y-111959523D01*
X68093333Y-112007142D01*
X68045714Y-112102380D01*
X68045714Y-112292857D01*
X68093333Y-112388095D01*
X68188571Y-112435714D01*
X68283809Y-112435714D01*
X68379047Y-111959523D01*
X68045714Y-112864285D02*
X68712380Y-112864285D01*
X68140952Y-112864285D02*
X68093333Y-112911904D01*
X68045714Y-113007142D01*
X68045714Y-113150000D01*
X68093333Y-113245238D01*
X68188571Y-113292857D01*
X68712380Y-113292857D01*
X68712380Y-115007142D02*
X68712380Y-114530952D01*
X67712380Y-114530952D01*
X68188571Y-115340476D02*
X68188571Y-115673809D01*
X68712380Y-115816666D02*
X68712380Y-115340476D01*
X67712380Y-115340476D01*
X67712380Y-115816666D01*
X68712380Y-116245238D02*
X67712380Y-116245238D01*
X67712380Y-116483333D01*
X67760000Y-116626190D01*
X67855238Y-116721428D01*
X67950476Y-116769047D01*
X68140952Y-116816666D01*
X68283809Y-116816666D01*
X68474285Y-116769047D01*
X68569523Y-116721428D01*
X68664761Y-116626190D01*
X68712380Y-116483333D01*
X68712380Y-116245238D01*
X54150000Y-76116666D02*
X54150000Y-75416666D01*
X53983333Y-75416666D01*
X53883333Y-75450000D01*
X53816666Y-75516666D01*
X53783333Y-75583333D01*
X53750000Y-75716666D01*
X53750000Y-75816666D01*
X53783333Y-75950000D01*
X53816666Y-76016666D01*
X53883333Y-76083333D01*
X53983333Y-76116666D01*
X54150000Y-76116666D01*
X53450000Y-76116666D02*
X53450000Y-75650000D01*
X53450000Y-75416666D02*
X53483333Y-75450000D01*
X53450000Y-75483333D01*
X53416666Y-75450000D01*
X53450000Y-75416666D01*
X53450000Y-75483333D01*
X53216666Y-75650000D02*
X52950000Y-75650000D01*
X53116666Y-75416666D02*
X53116666Y-76016666D01*
X53083333Y-76083333D01*
X53016666Y-76116666D01*
X52950000Y-76116666D01*
X63001904Y-65398571D02*
X63335238Y-65398571D01*
X63335238Y-65922380D02*
X63335238Y-64922380D01*
X62859047Y-64922380D01*
X62049523Y-65922380D02*
X62049523Y-65398571D01*
X62097142Y-65303333D01*
X62192380Y-65255714D01*
X62382857Y-65255714D01*
X62478095Y-65303333D01*
X62049523Y-65874761D02*
X62144761Y-65922380D01*
X62382857Y-65922380D01*
X62478095Y-65874761D01*
X62525714Y-65779523D01*
X62525714Y-65684285D01*
X62478095Y-65589047D01*
X62382857Y-65541428D01*
X62144761Y-65541428D01*
X62049523Y-65493809D01*
X61573333Y-65255714D02*
X61573333Y-65922380D01*
X61573333Y-65350952D02*
X61525714Y-65303333D01*
X61430476Y-65255714D01*
X61287619Y-65255714D01*
X61192380Y-65303333D01*
X61144761Y-65398571D01*
X61144761Y-65922380D01*
X53126666Y-87112380D02*
X53460000Y-86636190D01*
X53698095Y-87112380D02*
X53698095Y-86112380D01*
X53317142Y-86112380D01*
X53221904Y-86160000D01*
X53174285Y-86207619D01*
X53126666Y-86302857D01*
X53126666Y-86445714D01*
X53174285Y-86540952D01*
X53221904Y-86588571D01*
X53317142Y-86636190D01*
X53698095Y-86636190D01*
X52793333Y-86112380D02*
X52126666Y-87112380D01*
X52126666Y-86112380D02*
X52793333Y-87112380D01*
X51745714Y-87112380D02*
X51745714Y-86112380D01*
X51507619Y-86112380D01*
X51364761Y-86160000D01*
X51269523Y-86255238D01*
X51221904Y-86350476D01*
X51174285Y-86540952D01*
X51174285Y-86683809D01*
X51221904Y-86874285D01*
X51269523Y-86969523D01*
X51364761Y-87064761D01*
X51507619Y-87112380D01*
X51745714Y-87112380D01*
D10*
X57261428Y-112656190D02*
X57261428Y-112989523D01*
X56737619Y-112989523D02*
X57737619Y-112989523D01*
X57737619Y-112513333D01*
X57118571Y-112132380D02*
X57118571Y-111370476D01*
X56737619Y-111751428D02*
X57499523Y-111751428D01*
D11*
X135892380Y-89752380D02*
X136225714Y-89276190D01*
X136463809Y-89752380D02*
X136463809Y-88752380D01*
X136082857Y-88752380D01*
X135987619Y-88800000D01*
X135940000Y-88847619D01*
X135892380Y-88942857D01*
X135892380Y-89085714D01*
X135940000Y-89180952D01*
X135987619Y-89228571D01*
X136082857Y-89276190D01*
X136463809Y-89276190D01*
X135130476Y-89228571D02*
X135463809Y-89228571D01*
X135463809Y-89752380D02*
X135463809Y-88752380D01*
X134987619Y-88752380D01*
X133654285Y-88752380D02*
X133463809Y-88752380D01*
X133368571Y-88800000D01*
X133273333Y-88895238D01*
X133225714Y-89085714D01*
X133225714Y-89419047D01*
X133273333Y-89609523D01*
X133368571Y-89704761D01*
X133463809Y-89752380D01*
X133654285Y-89752380D01*
X133749523Y-89704761D01*
X133844761Y-89609523D01*
X133892380Y-89419047D01*
X133892380Y-89085714D01*
X133844761Y-88895238D01*
X133749523Y-88800000D01*
X133654285Y-88752380D01*
X132368571Y-89085714D02*
X132368571Y-89752380D01*
X132797142Y-89085714D02*
X132797142Y-89609523D01*
X132749523Y-89704761D01*
X132654285Y-89752380D01*
X132511428Y-89752380D01*
X132416190Y-89704761D01*
X132368571Y-89657142D01*
X132035238Y-89085714D02*
X131654285Y-89085714D01*
X131892380Y-88752380D02*
X131892380Y-89609523D01*
X131844761Y-89704761D01*
X131749523Y-89752380D01*
X131654285Y-89752380D01*
X131320952Y-89085714D02*
X131320952Y-90085714D01*
X131320952Y-89133333D02*
X131225714Y-89085714D01*
X131035238Y-89085714D01*
X130940000Y-89133333D01*
X130892380Y-89180952D01*
X130844761Y-89276190D01*
X130844761Y-89561904D01*
X130892380Y-89657142D01*
X130940000Y-89704761D01*
X131035238Y-89752380D01*
X131225714Y-89752380D01*
X131320952Y-89704761D01*
X129987619Y-89085714D02*
X129987619Y-89752380D01*
X130416190Y-89085714D02*
X130416190Y-89609523D01*
X130368571Y-89704761D01*
X130273333Y-89752380D01*
X130130476Y-89752380D01*
X130035238Y-89704761D01*
X129987619Y-89657142D01*
X129654285Y-89085714D02*
X129273333Y-89085714D01*
X129511428Y-88752380D02*
X129511428Y-89609523D01*
X129463809Y-89704761D01*
X129368571Y-89752380D01*
X129273333Y-89752380D01*
X55428571Y-65366666D02*
X55428571Y-65700000D01*
X55952380Y-65842857D02*
X55952380Y-65366666D01*
X54952380Y-65366666D01*
X54952380Y-65842857D01*
X55952380Y-66176190D02*
X55285714Y-66700000D01*
X55285714Y-66176190D02*
X55952380Y-66700000D01*
X55285714Y-66938095D02*
X55285714Y-67319047D01*
X54952380Y-67080952D02*
X55809523Y-67080952D01*
X55904761Y-67128571D01*
X55952380Y-67223809D01*
X55952380Y-67319047D01*
X55428571Y-68747619D02*
X55428571Y-68414285D01*
X55952380Y-68414285D02*
X54952380Y-68414285D01*
X54952380Y-68890476D01*
X55952380Y-69700000D02*
X55428571Y-69700000D01*
X55333333Y-69652380D01*
X55285714Y-69557142D01*
X55285714Y-69366666D01*
X55333333Y-69271428D01*
X55904761Y-69700000D02*
X55952380Y-69604761D01*
X55952380Y-69366666D01*
X55904761Y-69271428D01*
X55809523Y-69223809D01*
X55714285Y-69223809D01*
X55619047Y-69271428D01*
X55571428Y-69366666D01*
X55571428Y-69604761D01*
X55523809Y-69700000D01*
X55285714Y-70176190D02*
X55952380Y-70176190D01*
X55380952Y-70176190D02*
X55333333Y-70223809D01*
X55285714Y-70319047D01*
X55285714Y-70461904D01*
X55333333Y-70557142D01*
X55428571Y-70604761D01*
X55952380Y-70604761D01*
X55952380Y-71842857D02*
X54952380Y-71842857D01*
X54952380Y-72223809D01*
X55000000Y-72319047D01*
X55047619Y-72366666D01*
X55142857Y-72414285D01*
X55285714Y-72414285D01*
X55380952Y-72366666D01*
X55428571Y-72319047D01*
X55476190Y-72223809D01*
X55476190Y-71842857D01*
X55285714Y-72747619D02*
X55952380Y-72938095D01*
X55476190Y-73128571D01*
X55952380Y-73319047D01*
X55285714Y-73509523D01*
X55952380Y-73890476D02*
X55285714Y-73890476D01*
X55476190Y-73890476D02*
X55380952Y-73938095D01*
X55333333Y-73985714D01*
X55285714Y-74080952D01*
X55285714Y-74176190D01*
X78975714Y-85211904D02*
X78518571Y-85211904D01*
X78747142Y-86011904D02*
X78747142Y-85211904D01*
X78251904Y-86011904D02*
X78251904Y-85211904D01*
X77985238Y-85783333D01*
X77718571Y-85211904D01*
X77718571Y-86011904D01*
D10*
X51997142Y-112616190D02*
X51997142Y-112949523D01*
X51211428Y-112949523D02*
X52711428Y-112949523D01*
X52711428Y-112473333D01*
X51782857Y-112092380D02*
X51782857Y-111330476D01*
D11*
X52911904Y-94720000D02*
X53007142Y-94672380D01*
X53150000Y-94672380D01*
X53292857Y-94720000D01*
X53388095Y-94815238D01*
X53435714Y-94910476D01*
X53483333Y-95100952D01*
X53483333Y-95243809D01*
X53435714Y-95434285D01*
X53388095Y-95529523D01*
X53292857Y-95624761D01*
X53150000Y-95672380D01*
X53054761Y-95672380D01*
X52911904Y-95624761D01*
X52864285Y-95577142D01*
X52864285Y-95243809D01*
X53054761Y-95243809D01*
X52435714Y-95672380D02*
X52435714Y-94672380D01*
X51864285Y-95672380D01*
X51864285Y-94672380D01*
X51388095Y-95672380D02*
X51388095Y-94672380D01*
X51150000Y-94672380D01*
X51007142Y-94720000D01*
X50911904Y-94815238D01*
X50864285Y-94910476D01*
X50816666Y-95100952D01*
X50816666Y-95243809D01*
X50864285Y-95434285D01*
X50911904Y-95529523D01*
X51007142Y-95624761D01*
X51150000Y-95672380D01*
X51388095Y-95672380D01*
X57006666Y-76116666D02*
X57006666Y-75416666D01*
X56840000Y-75416666D01*
X56740000Y-75450000D01*
X56673333Y-75516666D01*
X56640000Y-75583333D01*
X56606666Y-75716666D01*
X56606666Y-75816666D01*
X56640000Y-75950000D01*
X56673333Y-76016666D01*
X56740000Y-76083333D01*
X56840000Y-76116666D01*
X57006666Y-76116666D01*
X56006666Y-76116666D02*
X56006666Y-75750000D01*
X56040000Y-75683333D01*
X56106666Y-75650000D01*
X56240000Y-75650000D01*
X56306666Y-75683333D01*
X56006666Y-76083333D02*
X56073333Y-76116666D01*
X56240000Y-76116666D01*
X56306666Y-76083333D01*
X56340000Y-76016666D01*
X56340000Y-75950000D01*
X56306666Y-75883333D01*
X56240000Y-75850000D01*
X56073333Y-75850000D01*
X56006666Y-75816666D01*
X55673333Y-76116666D02*
X55673333Y-75416666D01*
X55373333Y-76116666D02*
X55373333Y-75750000D01*
X55406666Y-75683333D01*
X55473333Y-75650000D01*
X55573333Y-75650000D01*
X55640000Y-75683333D01*
X55673333Y-75716666D01*
X53621904Y-88852380D02*
X53050476Y-88852380D01*
X53336190Y-89852380D02*
X53336190Y-88852380D01*
X52812380Y-88852380D02*
X52145714Y-89852380D01*
X52145714Y-88852380D02*
X52812380Y-89852380D01*
X51764761Y-89852380D02*
X51764761Y-88852380D01*
X51526666Y-88852380D01*
X51383809Y-88900000D01*
X51288571Y-88995238D01*
X51240952Y-89090476D01*
X51193333Y-89280952D01*
X51193333Y-89423809D01*
X51240952Y-89614285D01*
X51288571Y-89709523D01*
X51383809Y-89804761D01*
X51526666Y-89852380D01*
X51764761Y-89852380D01*
X81541428Y-112463571D02*
X81398571Y-112511190D01*
X81350952Y-112558809D01*
X81303333Y-112654047D01*
X81303333Y-112796904D01*
X81350952Y-112892142D01*
X81398571Y-112939761D01*
X81493809Y-112987380D01*
X81874761Y-112987380D01*
X81874761Y-111987380D01*
X81541428Y-111987380D01*
X81446190Y-112035000D01*
X81398571Y-112082619D01*
X81350952Y-112177857D01*
X81350952Y-112273095D01*
X81398571Y-112368333D01*
X81446190Y-112415952D01*
X81541428Y-112463571D01*
X81874761Y-112463571D01*
X80446190Y-112987380D02*
X80446190Y-112463571D01*
X80493809Y-112368333D01*
X80589047Y-112320714D01*
X80779523Y-112320714D01*
X80874761Y-112368333D01*
X80446190Y-112939761D02*
X80541428Y-112987380D01*
X80779523Y-112987380D01*
X80874761Y-112939761D01*
X80922380Y-112844523D01*
X80922380Y-112749285D01*
X80874761Y-112654047D01*
X80779523Y-112606428D01*
X80541428Y-112606428D01*
X80446190Y-112558809D01*
X80112857Y-112320714D02*
X79731904Y-112320714D01*
X79970000Y-111987380D02*
X79970000Y-112844523D01*
X79922380Y-112939761D01*
X79827142Y-112987380D01*
X79731904Y-112987380D01*
X79541428Y-112320714D02*
X79160476Y-112320714D01*
X79398571Y-111987380D02*
X79398571Y-112844523D01*
X79350952Y-112939761D01*
X79255714Y-112987380D01*
X79160476Y-112987380D01*
X78446190Y-112939761D02*
X78541428Y-112987380D01*
X78731904Y-112987380D01*
X78827142Y-112939761D01*
X78874761Y-112844523D01*
X78874761Y-112463571D01*
X78827142Y-112368333D01*
X78731904Y-112320714D01*
X78541428Y-112320714D01*
X78446190Y-112368333D01*
X78398571Y-112463571D01*
X78398571Y-112558809D01*
X78874761Y-112654047D01*
X77970000Y-112987380D02*
X77970000Y-112320714D01*
X77970000Y-112511190D02*
X77922380Y-112415952D01*
X77874761Y-112368333D01*
X77779523Y-112320714D01*
X77684285Y-112320714D01*
X77446190Y-112320714D02*
X77208095Y-112987380D01*
X76970000Y-112320714D02*
X77208095Y-112987380D01*
X77303333Y-113225476D01*
X77350952Y-113273095D01*
X77446190Y-113320714D01*
X81684285Y-114549761D02*
X81541428Y-114597380D01*
X81303333Y-114597380D01*
X81208095Y-114549761D01*
X81160476Y-114502142D01*
X81112857Y-114406904D01*
X81112857Y-114311666D01*
X81160476Y-114216428D01*
X81208095Y-114168809D01*
X81303333Y-114121190D01*
X81493809Y-114073571D01*
X81589047Y-114025952D01*
X81636666Y-113978333D01*
X81684285Y-113883095D01*
X81684285Y-113787857D01*
X81636666Y-113692619D01*
X81589047Y-113645000D01*
X81493809Y-113597380D01*
X81255714Y-113597380D01*
X81112857Y-113645000D01*
X80779523Y-113930714D02*
X80589047Y-114597380D01*
X80398571Y-114121190D01*
X80208095Y-114597380D01*
X80017619Y-113930714D01*
X79636666Y-114597380D02*
X79636666Y-113930714D01*
X79636666Y-113597380D02*
X79684285Y-113645000D01*
X79636666Y-113692619D01*
X79589047Y-113645000D01*
X79636666Y-113597380D01*
X79636666Y-113692619D01*
X79303333Y-113930714D02*
X78922380Y-113930714D01*
X79160476Y-113597380D02*
X79160476Y-114454523D01*
X79112857Y-114549761D01*
X79017619Y-114597380D01*
X78922380Y-114597380D01*
X78160476Y-114549761D02*
X78255714Y-114597380D01*
X78446190Y-114597380D01*
X78541428Y-114549761D01*
X78589047Y-114502142D01*
X78636666Y-114406904D01*
X78636666Y-114121190D01*
X78589047Y-114025952D01*
X78541428Y-113978333D01*
X78446190Y-113930714D01*
X78255714Y-113930714D01*
X78160476Y-113978333D01*
X77731904Y-114597380D02*
X77731904Y-113597380D01*
X77303333Y-114597380D02*
X77303333Y-114073571D01*
X77350952Y-113978333D01*
X77446190Y-113930714D01*
X77589047Y-113930714D01*
X77684285Y-113978333D01*
X77731904Y-114025952D01*
X53040952Y-84182380D02*
X53040952Y-83182380D01*
X52802857Y-83182380D01*
X52660000Y-83230000D01*
X52564761Y-83325238D01*
X52517142Y-83420476D01*
X52469523Y-83610952D01*
X52469523Y-83753809D01*
X52517142Y-83944285D01*
X52564761Y-84039523D01*
X52660000Y-84134761D01*
X52802857Y-84182380D01*
X53040952Y-84182380D01*
X52040952Y-84182380D02*
X52040952Y-83182380D01*
X51707619Y-83182380D02*
X51136190Y-83182380D01*
X51421904Y-84182380D02*
X51421904Y-83182380D01*
D12*
X80301428Y-99107142D02*
X79158571Y-99107142D01*
X79730000Y-99678571D02*
X79730000Y-98535714D01*
D11*
X100616666Y-115132380D02*
X100616666Y-114132380D01*
X100188095Y-114227619D02*
X100140476Y-114180000D01*
X100045238Y-114132380D01*
X99807142Y-114132380D01*
X99711904Y-114180000D01*
X99664285Y-114227619D01*
X99616666Y-114322857D01*
X99616666Y-114418095D01*
X99664285Y-114560952D01*
X100235714Y-115132380D01*
X99616666Y-115132380D01*
X98616666Y-115037142D02*
X98664285Y-115084761D01*
X98807142Y-115132380D01*
X98902380Y-115132380D01*
X99045238Y-115084761D01*
X99140476Y-114989523D01*
X99188095Y-114894285D01*
X99235714Y-114703809D01*
X99235714Y-114560952D01*
X99188095Y-114370476D01*
X99140476Y-114275238D01*
X99045238Y-114180000D01*
X98902380Y-114132380D01*
X98807142Y-114132380D01*
X98664285Y-114180000D01*
X98616666Y-114227619D01*
X97569047Y-114132380D02*
X96997619Y-114132380D01*
X97283333Y-115132380D02*
X97283333Y-114132380D01*
X96283333Y-115084761D02*
X96378571Y-115132380D01*
X96569047Y-115132380D01*
X96664285Y-115084761D01*
X96711904Y-114989523D01*
X96711904Y-114608571D01*
X96664285Y-114513333D01*
X96569047Y-114465714D01*
X96378571Y-114465714D01*
X96283333Y-114513333D01*
X96235714Y-114608571D01*
X96235714Y-114703809D01*
X96711904Y-114799047D01*
X95854761Y-115084761D02*
X95759523Y-115132380D01*
X95569047Y-115132380D01*
X95473809Y-115084761D01*
X95426190Y-114989523D01*
X95426190Y-114941904D01*
X95473809Y-114846666D01*
X95569047Y-114799047D01*
X95711904Y-114799047D01*
X95807142Y-114751428D01*
X95854761Y-114656190D01*
X95854761Y-114608571D01*
X95807142Y-114513333D01*
X95711904Y-114465714D01*
X95569047Y-114465714D01*
X95473809Y-114513333D01*
X95140476Y-114465714D02*
X94759523Y-114465714D01*
X94997619Y-114132380D02*
X94997619Y-114989523D01*
X94950000Y-115084761D01*
X94854761Y-115132380D01*
X94759523Y-115132380D01*
X93664285Y-115132380D02*
X93664285Y-114132380D01*
X93283333Y-114132380D01*
X93188095Y-114180000D01*
X93140476Y-114227619D01*
X93092857Y-114322857D01*
X93092857Y-114465714D01*
X93140476Y-114560952D01*
X93188095Y-114608571D01*
X93283333Y-114656190D01*
X93664285Y-114656190D01*
X92521428Y-115132380D02*
X92616666Y-115084761D01*
X92664285Y-115037142D01*
X92711904Y-114941904D01*
X92711904Y-114656190D01*
X92664285Y-114560952D01*
X92616666Y-114513333D01*
X92521428Y-114465714D01*
X92378571Y-114465714D01*
X92283333Y-114513333D01*
X92235714Y-114560952D01*
X92188095Y-114656190D01*
X92188095Y-114941904D01*
X92235714Y-115037142D01*
X92283333Y-115084761D01*
X92378571Y-115132380D01*
X92521428Y-115132380D01*
X91759523Y-115132380D02*
X91759523Y-114465714D01*
X91759523Y-114132380D02*
X91807142Y-114180000D01*
X91759523Y-114227619D01*
X91711904Y-114180000D01*
X91759523Y-114132380D01*
X91759523Y-114227619D01*
X91283333Y-114465714D02*
X91283333Y-115132380D01*
X91283333Y-114560952D02*
X91235714Y-114513333D01*
X91140476Y-114465714D01*
X90997619Y-114465714D01*
X90902380Y-114513333D01*
X90854761Y-114608571D01*
X90854761Y-115132380D01*
X90521428Y-114465714D02*
X90140476Y-114465714D01*
X90378571Y-114132380D02*
X90378571Y-114989523D01*
X90330952Y-115084761D01*
X90235714Y-115132380D01*
X90140476Y-115132380D01*
D12*
X79812857Y-106051428D02*
X79812857Y-104908571D01*
D11*
X63972380Y-110770476D02*
X63496190Y-110437142D01*
X63972380Y-110199047D02*
X62972380Y-110199047D01*
X62972380Y-110580000D01*
X63020000Y-110675238D01*
X63067619Y-110722857D01*
X63162857Y-110770476D01*
X63305714Y-110770476D01*
X63400952Y-110722857D01*
X63448571Y-110675238D01*
X63496190Y-110580000D01*
X63496190Y-110199047D01*
X63924761Y-111580000D02*
X63972380Y-111484761D01*
X63972380Y-111294285D01*
X63924761Y-111199047D01*
X63829523Y-111151428D01*
X63448571Y-111151428D01*
X63353333Y-111199047D01*
X63305714Y-111294285D01*
X63305714Y-111484761D01*
X63353333Y-111580000D01*
X63448571Y-111627619D01*
X63543809Y-111627619D01*
X63639047Y-111151428D01*
X63972380Y-112484761D02*
X62972380Y-112484761D01*
X63924761Y-112484761D02*
X63972380Y-112389523D01*
X63972380Y-112199047D01*
X63924761Y-112103809D01*
X63877142Y-112056190D01*
X63781904Y-112008571D01*
X63496190Y-112008571D01*
X63400952Y-112056190D01*
X63353333Y-112103809D01*
X63305714Y-112199047D01*
X63305714Y-112389523D01*
X63353333Y-112484761D01*
X63972380Y-114199047D02*
X63972380Y-113722857D01*
X62972380Y-113722857D01*
X63448571Y-114532380D02*
X63448571Y-114865714D01*
X63972380Y-115008571D02*
X63972380Y-114532380D01*
X62972380Y-114532380D01*
X62972380Y-115008571D01*
X63972380Y-115437142D02*
X62972380Y-115437142D01*
X62972380Y-115675238D01*
X63020000Y-115818095D01*
X63115238Y-115913333D01*
X63210476Y-115960952D01*
X63400952Y-116008571D01*
X63543809Y-116008571D01*
X63734285Y-115960952D01*
X63829523Y-115913333D01*
X63924761Y-115818095D01*
X63972380Y-115675238D01*
X63972380Y-115437142D01*
X59260000Y-75973333D02*
X59160000Y-76006666D01*
X58993333Y-76006666D01*
X58926666Y-75973333D01*
X58893333Y-75940000D01*
X58860000Y-75873333D01*
X58860000Y-75806666D01*
X58893333Y-75740000D01*
X58926666Y-75706666D01*
X58993333Y-75673333D01*
X59126666Y-75640000D01*
X59193333Y-75606666D01*
X59226666Y-75573333D01*
X59260000Y-75506666D01*
X59260000Y-75440000D01*
X59226666Y-75373333D01*
X59193333Y-75340000D01*
X59126666Y-75306666D01*
X58960000Y-75306666D01*
X58860000Y-75340000D01*
X58560000Y-76006666D02*
X58560000Y-75306666D01*
X58160000Y-76006666D02*
X58460000Y-75606666D01*
X58160000Y-75306666D02*
X58560000Y-75706666D01*
D13*
%TO.C,W101*%
X94529830Y-100589610D02*
X94880016Y-100374111D01*
X94731861Y-100630016D01*
X94987766Y-100481861D01*
X94772267Y-100832047D01*
X95311015Y-100805109D02*
X95149390Y-100643485D01*
X95230203Y-100724297D02*
X94947360Y-101007140D01*
X94960829Y-100939796D01*
X94960829Y-100885922D01*
X94947360Y-100845516D01*
X95203265Y-101263045D02*
X95230203Y-101289983D01*
X95270609Y-101303451D01*
X95297546Y-101303451D01*
X95337952Y-101289983D01*
X95405296Y-101249577D01*
X95472639Y-101182233D01*
X95513045Y-101114890D01*
X95526514Y-101074483D01*
X95526514Y-101047546D01*
X95513045Y-101007140D01*
X95486108Y-100980203D01*
X95445702Y-100966734D01*
X95418764Y-100966734D01*
X95378358Y-100980203D01*
X95311015Y-101020609D01*
X95243671Y-101087952D01*
X95203265Y-101155296D01*
X95189796Y-101195702D01*
X95189796Y-101222639D01*
X95203265Y-101263045D01*
X95849763Y-101343857D02*
X95688138Y-101182233D01*
X95768951Y-101263045D02*
X95486108Y-101545888D01*
X95499577Y-101478544D01*
X95499577Y-101424670D01*
X95486108Y-101384264D01*
X91753079Y-97885922D02*
X91712673Y-97872453D01*
X91672267Y-97832047D01*
X91645329Y-97778172D01*
X91645329Y-97724297D01*
X91658798Y-97683891D01*
X91699204Y-97616548D01*
X91739610Y-97576142D01*
X91806954Y-97535735D01*
X91847360Y-97522267D01*
X91901235Y-97522267D01*
X91955109Y-97549204D01*
X91982047Y-97576142D01*
X92008984Y-97630016D01*
X92008984Y-97656954D01*
X91914703Y-97751235D01*
X91860829Y-97697360D01*
X92157140Y-97751235D02*
X91874297Y-98034077D01*
X92318764Y-97912859D01*
X92035922Y-98195702D01*
X92453451Y-98047546D02*
X92170609Y-98330389D01*
X92237952Y-98397732D01*
X92291827Y-98424670D01*
X92345702Y-98424670D01*
X92386108Y-98411201D01*
X92453451Y-98370795D01*
X92493857Y-98330389D01*
X92534264Y-98263045D01*
X92547732Y-98222639D01*
X92547732Y-98168764D01*
X92520795Y-98114890D01*
X92453451Y-98047546D01*
D14*
X97773947Y-100794238D02*
X97975977Y-100996269D01*
X98228516Y-100541700D02*
X97874962Y-100895253D01*
X98110664Y-101063612D02*
X98110664Y-101097284D01*
X98127500Y-101147791D01*
X98211680Y-101231971D01*
X98262187Y-101248807D01*
X98295859Y-101248807D01*
X98346367Y-101231971D01*
X98380038Y-101198299D01*
X98413710Y-101130956D01*
X98413710Y-100726895D01*
X98632577Y-100945761D01*
D11*
%TO.C,J301*%
X127242380Y-82614285D02*
X127956666Y-82614285D01*
X128099523Y-82566666D01*
X128194761Y-82471428D01*
X128242380Y-82328571D01*
X128242380Y-82233333D01*
X127242380Y-82995238D02*
X127242380Y-83614285D01*
X127623333Y-83280952D01*
X127623333Y-83423809D01*
X127670952Y-83519047D01*
X127718571Y-83566666D01*
X127813809Y-83614285D01*
X128051904Y-83614285D01*
X128147142Y-83566666D01*
X128194761Y-83519047D01*
X128242380Y-83423809D01*
X128242380Y-83138095D01*
X128194761Y-83042857D01*
X128147142Y-82995238D01*
X127242380Y-84233333D02*
X127242380Y-84328571D01*
X127290000Y-84423809D01*
X127337619Y-84471428D01*
X127432857Y-84519047D01*
X127623333Y-84566666D01*
X127861428Y-84566666D01*
X128051904Y-84519047D01*
X128147142Y-84471428D01*
X128194761Y-84423809D01*
X128242380Y-84328571D01*
X128242380Y-84233333D01*
X128194761Y-84138095D01*
X128147142Y-84090476D01*
X128051904Y-84042857D01*
X127861428Y-83995238D01*
X127623333Y-83995238D01*
X127432857Y-84042857D01*
X127337619Y-84090476D01*
X127290000Y-84138095D01*
X127242380Y-84233333D01*
X128242380Y-85519047D02*
X128242380Y-84947619D01*
X128242380Y-85233333D02*
X127242380Y-85233333D01*
X127385238Y-85138095D01*
X127480476Y-85042857D01*
X127528095Y-84947619D01*
%TO.C,J102*%
X58816666Y-113740000D02*
X59316666Y-113740000D01*
X59416666Y-113706666D01*
X59483333Y-113640000D01*
X59516666Y-113540000D01*
X59516666Y-113473333D01*
X59516666Y-114440000D02*
X59516666Y-114040000D01*
X59516666Y-114240000D02*
X58816666Y-114240000D01*
X58916666Y-114173333D01*
X58983333Y-114106666D01*
X59016666Y-114040000D01*
X58816666Y-114873333D02*
X58816666Y-114940000D01*
X58850000Y-115006666D01*
X58883333Y-115040000D01*
X58950000Y-115073333D01*
X59083333Y-115106666D01*
X59250000Y-115106666D01*
X59383333Y-115073333D01*
X59450000Y-115040000D01*
X59483333Y-115006666D01*
X59516666Y-114940000D01*
X59516666Y-114873333D01*
X59483333Y-114806666D01*
X59450000Y-114773333D01*
X59383333Y-114740000D01*
X59250000Y-114706666D01*
X59083333Y-114706666D01*
X58950000Y-114740000D01*
X58883333Y-114773333D01*
X58850000Y-114806666D01*
X58816666Y-114873333D01*
X58883333Y-115373333D02*
X58850000Y-115406666D01*
X58816666Y-115473333D01*
X58816666Y-115640000D01*
X58850000Y-115706666D01*
X58883333Y-115740000D01*
X58950000Y-115773333D01*
X59016666Y-115773333D01*
X59116666Y-115740000D01*
X59516666Y-115340000D01*
X59516666Y-115773333D01*
%TO.C,JP201*%
X62510000Y-68416666D02*
X62510000Y-68916666D01*
X62543333Y-69016666D01*
X62610000Y-69083333D01*
X62710000Y-69116666D01*
X62776666Y-69116666D01*
X62176666Y-69116666D02*
X62176666Y-68416666D01*
X61910000Y-68416666D01*
X61843333Y-68450000D01*
X61810000Y-68483333D01*
X61776666Y-68550000D01*
X61776666Y-68650000D01*
X61810000Y-68716666D01*
X61843333Y-68750000D01*
X61910000Y-68783333D01*
X62176666Y-68783333D01*
X61510000Y-68483333D02*
X61476666Y-68450000D01*
X61410000Y-68416666D01*
X61243333Y-68416666D01*
X61176666Y-68450000D01*
X61143333Y-68483333D01*
X61110000Y-68550000D01*
X61110000Y-68616666D01*
X61143333Y-68716666D01*
X61543333Y-69116666D01*
X61110000Y-69116666D01*
X60676666Y-68416666D02*
X60610000Y-68416666D01*
X60543333Y-68450000D01*
X60510000Y-68483333D01*
X60476666Y-68550000D01*
X60443333Y-68683333D01*
X60443333Y-68850000D01*
X60476666Y-68983333D01*
X60510000Y-69050000D01*
X60543333Y-69083333D01*
X60610000Y-69116666D01*
X60676666Y-69116666D01*
X60743333Y-69083333D01*
X60776666Y-69050000D01*
X60810000Y-68983333D01*
X60843333Y-68850000D01*
X60843333Y-68683333D01*
X60810000Y-68550000D01*
X60776666Y-68483333D01*
X60743333Y-68450000D01*
X60676666Y-68416666D01*
X59776666Y-69116666D02*
X60176666Y-69116666D01*
X59976666Y-69116666D02*
X59976666Y-68416666D01*
X60043333Y-68516666D01*
X60110000Y-68583333D01*
X60176666Y-68616666D01*
%TO.C,J105*%
X60306666Y-76660000D02*
X60806666Y-76660000D01*
X60906666Y-76626666D01*
X60973333Y-76560000D01*
X61006666Y-76460000D01*
X61006666Y-76393333D01*
X61006666Y-77360000D02*
X61006666Y-76960000D01*
X61006666Y-77160000D02*
X60306666Y-77160000D01*
X60406666Y-77093333D01*
X60473333Y-77026666D01*
X60506666Y-76960000D01*
X60306666Y-77793333D02*
X60306666Y-77860000D01*
X60340000Y-77926666D01*
X60373333Y-77960000D01*
X60440000Y-77993333D01*
X60573333Y-78026666D01*
X60740000Y-78026666D01*
X60873333Y-77993333D01*
X60940000Y-77960000D01*
X60973333Y-77926666D01*
X61006666Y-77860000D01*
X61006666Y-77793333D01*
X60973333Y-77726666D01*
X60940000Y-77693333D01*
X60873333Y-77660000D01*
X60740000Y-77626666D01*
X60573333Y-77626666D01*
X60440000Y-77660000D01*
X60373333Y-77693333D01*
X60340000Y-77726666D01*
X60306666Y-77793333D01*
X60306666Y-78660000D02*
X60306666Y-78326666D01*
X60640000Y-78293333D01*
X60606666Y-78326666D01*
X60573333Y-78393333D01*
X60573333Y-78560000D01*
X60606666Y-78626666D01*
X60640000Y-78660000D01*
X60706666Y-78693333D01*
X60873333Y-78693333D01*
X60940000Y-78660000D01*
X60973333Y-78626666D01*
X61006666Y-78560000D01*
X61006666Y-78393333D01*
X60973333Y-78326666D01*
X60940000Y-78293333D01*
%TO.C,BT201*%
X80298571Y-100691904D02*
X80346190Y-100834761D01*
X80393809Y-100882380D01*
X80489047Y-100930000D01*
X80631904Y-100930000D01*
X80727142Y-100882380D01*
X80774761Y-100834761D01*
X80822380Y-100739523D01*
X80822380Y-100358571D01*
X79822380Y-100358571D01*
X79822380Y-100691904D01*
X79870000Y-100787142D01*
X79917619Y-100834761D01*
X80012857Y-100882380D01*
X80108095Y-100882380D01*
X80203333Y-100834761D01*
X80250952Y-100787142D01*
X80298571Y-100691904D01*
X80298571Y-100358571D01*
X79822380Y-101215714D02*
X79822380Y-101787142D01*
X80822380Y-101501428D02*
X79822380Y-101501428D01*
X79917619Y-102072857D02*
X79870000Y-102120476D01*
X79822380Y-102215714D01*
X79822380Y-102453809D01*
X79870000Y-102549047D01*
X79917619Y-102596666D01*
X80012857Y-102644285D01*
X80108095Y-102644285D01*
X80250952Y-102596666D01*
X80822380Y-102025238D01*
X80822380Y-102644285D01*
X79822380Y-103263333D02*
X79822380Y-103358571D01*
X79870000Y-103453809D01*
X79917619Y-103501428D01*
X80012857Y-103549047D01*
X80203333Y-103596666D01*
X80441428Y-103596666D01*
X80631904Y-103549047D01*
X80727142Y-103501428D01*
X80774761Y-103453809D01*
X80822380Y-103358571D01*
X80822380Y-103263333D01*
X80774761Y-103168095D01*
X80727142Y-103120476D01*
X80631904Y-103072857D01*
X80441428Y-103025238D01*
X80203333Y-103025238D01*
X80012857Y-103072857D01*
X79917619Y-103120476D01*
X79870000Y-103168095D01*
X79822380Y-103263333D01*
X80822380Y-104549047D02*
X80822380Y-103977619D01*
X80822380Y-104263333D02*
X79822380Y-104263333D01*
X79965238Y-104168095D01*
X80060476Y-104072857D01*
X80108095Y-103977619D01*
%TO.C,U105*%
X113862380Y-79225714D02*
X114671904Y-79225714D01*
X114767142Y-79273333D01*
X114814761Y-79320952D01*
X114862380Y-79416190D01*
X114862380Y-79606666D01*
X114814761Y-79701904D01*
X114767142Y-79749523D01*
X114671904Y-79797142D01*
X113862380Y-79797142D01*
X114862380Y-80797142D02*
X114862380Y-80225714D01*
X114862380Y-80511428D02*
X113862380Y-80511428D01*
X114005238Y-80416190D01*
X114100476Y-80320952D01*
X114148095Y-80225714D01*
X113862380Y-81416190D02*
X113862380Y-81511428D01*
X113910000Y-81606666D01*
X113957619Y-81654285D01*
X114052857Y-81701904D01*
X114243333Y-81749523D01*
X114481428Y-81749523D01*
X114671904Y-81701904D01*
X114767142Y-81654285D01*
X114814761Y-81606666D01*
X114862380Y-81511428D01*
X114862380Y-81416190D01*
X114814761Y-81320952D01*
X114767142Y-81273333D01*
X114671904Y-81225714D01*
X114481428Y-81178095D01*
X114243333Y-81178095D01*
X114052857Y-81225714D01*
X113957619Y-81273333D01*
X113910000Y-81320952D01*
X113862380Y-81416190D01*
X113862380Y-82654285D02*
X113862380Y-82178095D01*
X114338571Y-82130476D01*
X114290952Y-82178095D01*
X114243333Y-82273333D01*
X114243333Y-82511428D01*
X114290952Y-82606666D01*
X114338571Y-82654285D01*
X114433809Y-82701904D01*
X114671904Y-82701904D01*
X114767142Y-82654285D01*
X114814761Y-82606666D01*
X114862380Y-82511428D01*
X114862380Y-82273333D01*
X114814761Y-82178095D01*
X114767142Y-82130476D01*
%TO.C,J107*%
X49012380Y-78944285D02*
X49726666Y-78944285D01*
X49869523Y-78896666D01*
X49964761Y-78801428D01*
X50012380Y-78658571D01*
X50012380Y-78563333D01*
X50012380Y-79944285D02*
X50012380Y-79372857D01*
X50012380Y-79658571D02*
X49012380Y-79658571D01*
X49155238Y-79563333D01*
X49250476Y-79468095D01*
X49298095Y-79372857D01*
X49012380Y-80563333D02*
X49012380Y-80658571D01*
X49060000Y-80753809D01*
X49107619Y-80801428D01*
X49202857Y-80849047D01*
X49393333Y-80896666D01*
X49631428Y-80896666D01*
X49821904Y-80849047D01*
X49917142Y-80801428D01*
X49964761Y-80753809D01*
X50012380Y-80658571D01*
X50012380Y-80563333D01*
X49964761Y-80468095D01*
X49917142Y-80420476D01*
X49821904Y-80372857D01*
X49631428Y-80325238D01*
X49393333Y-80325238D01*
X49202857Y-80372857D01*
X49107619Y-80420476D01*
X49060000Y-80468095D01*
X49012380Y-80563333D01*
X49012380Y-81230000D02*
X49012380Y-81896666D01*
X50012380Y-81468095D01*
D13*
%TO.C,W101*%
X96083193Y-101279051D02*
X95822766Y-101018624D01*
X92194106Y-97404106D02*
X91933678Y-97143678D01*
D10*
X97997122Y-102151020D02*
G75*
G03*
X97997122Y-102151020I-1038142J0D01*
G01*
D15*
%TO.C,J102*%
X53315000Y-113380000D02*
X53315000Y-116040000D01*
X53315000Y-116040000D02*
X58455000Y-116040000D01*
X58455000Y-113380000D02*
X58455000Y-116040000D01*
X50715000Y-113380000D02*
X50715000Y-114710000D01*
X52045000Y-113380000D02*
X50715000Y-113380000D01*
X53315000Y-113380000D02*
X58455000Y-113380000D01*
%TO.C,JP201*%
X59710000Y-70120000D02*
X59710000Y-70720000D01*
X62510000Y-70720000D02*
X62510000Y-70120000D01*
X60410000Y-71420000D02*
X61810000Y-71420000D01*
X61810000Y-69420000D02*
X60410000Y-69420000D01*
X62510000Y-70120000D02*
G75*
G03*
X61810000Y-69420000I-699999J1D01*
G01*
X60410000Y-69420000D02*
G75*
G03*
X59710000Y-70120000I0J-700000D01*
G01*
X59710000Y-70720000D02*
G75*
G03*
X60410000Y-71420000I700000J0D01*
G01*
X61810000Y-71420000D02*
G75*
G03*
X62510000Y-70720000I1J699999D01*
G01*
%TO.C,J105*%
X60002500Y-76420000D02*
X60002500Y-79080000D01*
X49722500Y-76420000D02*
X49722500Y-77750000D01*
X52322500Y-79080000D02*
X60002500Y-79080000D01*
X51052500Y-76420000D02*
X49722500Y-76420000D01*
X52322500Y-76420000D02*
X52322500Y-79080000D01*
X52322500Y-76420000D02*
X60002500Y-76420000D01*
D11*
%TO.C,U105*%
X119076160Y-78660000D02*
X120854160Y-78660000D01*
X119076160Y-81200000D02*
X120854160Y-81200000D01*
X110567160Y-86534000D02*
X102566160Y-86534000D01*
X119076160Y-81200000D02*
X119076160Y-75866000D01*
X119076160Y-83740000D02*
X120854160Y-83740000D01*
X102566160Y-75866000D02*
X110567160Y-75866000D01*
X110567160Y-86534000D02*
X110567160Y-75866000D01*
X119076160Y-86534000D02*
X110567160Y-86534000D01*
X119076160Y-81200000D02*
X119076160Y-86534000D01*
X110567160Y-75866000D02*
X119076160Y-75866000D01*
X102566160Y-86534000D02*
X102566160Y-75866000D01*
X108509632Y-81200000D02*
G75*
G03*
X108509632Y-81200000I-2514472J0D01*
G01*
D15*
%TO.C,MOD201*%
X72927500Y-99220000D02*
X65247500Y-99220000D01*
X72927500Y-99220000D02*
X72927500Y-96560000D01*
X72927500Y-96560000D02*
X65247500Y-96560000D01*
X74197500Y-99220000D02*
X75527500Y-99220000D01*
X75527500Y-99220000D02*
X75527500Y-97890000D01*
X65247500Y-99220000D02*
X65247500Y-96560000D01*
%TO.C,J107*%
X46362500Y-82689167D02*
X50102500Y-82689167D01*
X50102500Y-82689167D02*
X50102500Y-96135833D01*
X50342500Y-82449167D02*
X50342500Y-86642500D01*
X50102500Y-96135833D02*
X46362500Y-96135833D01*
X48102500Y-82449167D02*
X50342500Y-82449167D01*
%TD*%
D16*
%TO.C,U105*%
X105995160Y-81200000D03*
D17*
X122759160Y-78660000D03*
X122759160Y-81200000D03*
X122759160Y-83740000D03*
%TD*%
M02*
