%TF.GenerationSoftware,KiCad,Pcbnew,8.0.9*%
%TF.CreationDate,2025-09-11T17:56:26-04:00*%
%TF.ProjectId,SignalSlinger,5369676e-616c-4536-9c69-6e6765722e6b,rev?*%
%TF.SameCoordinates,Original*%
%TF.FileFunction,Soldermask,Bot*%
%TF.FilePolarity,Negative*%
%FSLAX46Y46*%
G04 Gerber Fmt 4.6, Leading zero omitted, Abs format (unit mm)*
G04 Created by KiCad (PCBNEW 8.0.9) date 2025-09-11 17:56:26*
%MOMM*%
%LPD*%
G01*
G04 APERTURE LIST*
G04 Aperture macros list*
%AMRoundRect*
0 Rectangle with rounded corners*
0 $1 Rounding radius*
0 $2 $3 $4 $5 $6 $7 $8 $9 X,Y pos of 4 corners*
0 Add a 4 corners polygon primitive as box body*
4,1,4,$2,$3,$4,$5,$6,$7,$8,$9,$2,$3,0*
0 Add four circle primitives for the rounded corners*
1,1,$1+$1,$2,$3*
1,1,$1+$1,$4,$5*
1,1,$1+$1,$6,$7*
1,1,$1+$1,$8,$9*
0 Add four rect primitives between the rounded corners*
20,1,$1+$1,$2,$3,$4,$5,0*
20,1,$1+$1,$4,$5,$6,$7,0*
20,1,$1+$1,$6,$7,$8,$9,0*
20,1,$1+$1,$8,$9,$2,$3,0*%
%AMHorizOval*
0 Thick line with rounded ends*
0 $1 width*
0 $2 $3 position (X,Y) of the first rounded end (center of the circle)*
0 $4 $5 position (X,Y) of the second rounded end (center of the circle)*
0 Add line between two ends*
20,1,$1,$2,$3,$4,$5,0*
0 Add two circle primitives to create the rounded ends*
1,1,$1,$2,$3*
1,1,$1,$4,$5*%
%AMRotRect*
0 Rectangle, with rotation*
0 The origin of the aperture is its center*
0 $1 length*
0 $2 width*
0 $3 Rotation angle, in degrees counterclockwise*
0 Add horizontal line*
21,1,$1,$2,0,0,$3*%
%AMFreePoly0*
4,1,35,0.549497,0.799497,0.570000,0.750000,0.570000,-0.750000,0.549497,-0.799497,0.500000,-0.820000,0.000000,-0.820000,-0.012286,-0.814911,-0.071157,-0.814911,-0.090878,-0.812076,-0.227429,-0.771981,-0.245553,-0.763704,-0.365275,-0.686763,-0.380332,-0.673715,-0.473529,-0.566160,-0.484301,-0.549399,-0.543420,-0.419945,-0.549033,-0.400828,-0.569287,-0.259962,-0.570000,-0.250000,-0.570000,0.250000,
-0.569287,0.259962,-0.549033,0.400828,-0.543420,0.419945,-0.484301,0.549399,-0.473529,0.566160,-0.380332,0.673715,-0.365275,0.686763,-0.245553,0.763704,-0.227429,0.771981,-0.090878,0.812076,-0.071157,0.814911,-0.012286,0.814911,0.000000,0.820000,0.500000,0.820000,0.549497,0.799497,0.549497,0.799497,$1*%
%AMFreePoly1*
4,1,35,0.012286,0.814911,0.071157,0.814911,0.090878,0.812076,0.227429,0.771981,0.245553,0.763704,0.365275,0.686763,0.380332,0.673715,0.473529,0.566160,0.484301,0.549399,0.543420,0.419945,0.549033,0.400828,0.569287,0.259962,0.570000,0.250000,0.570000,-0.250000,0.569287,-0.259962,0.549033,-0.400828,0.543420,-0.419945,0.484301,-0.549399,0.473529,-0.566160,0.380332,-0.673715,
0.365275,-0.686763,0.245553,-0.763704,0.227429,-0.771981,0.090878,-0.812076,0.071157,-0.814911,0.012286,-0.814911,0.000000,-0.820000,-0.500000,-0.820000,-0.549497,-0.799497,-0.570000,-0.750000,-0.570000,0.750000,-0.549497,0.799497,-0.500000,0.820000,0.000000,0.820000,0.012286,0.814911,0.012286,0.814911,$1*%
%AMFreePoly2*
4,1,19,0.500000,-0.750000,0.000000,-0.750000,0.000000,-0.744911,-0.071157,-0.744911,-0.207708,-0.704816,-0.327430,-0.627875,-0.420627,-0.520320,-0.479746,-0.390866,-0.500000,-0.250000,-0.500000,0.250000,-0.479746,0.390866,-0.420627,0.520320,-0.327430,0.627875,-0.207708,0.704816,-0.071157,0.744911,0.000000,0.744911,0.000000,0.750000,0.500000,0.750000,0.500000,-0.750000,0.500000,-0.750000,
$1*%
%AMFreePoly3*
4,1,19,0.000000,0.744911,0.071157,0.744911,0.207708,0.704816,0.327430,0.627875,0.420627,0.520320,0.479746,0.390866,0.500000,0.250000,0.500000,-0.250000,0.479746,-0.390866,0.420627,-0.520320,0.327430,-0.627875,0.207708,-0.704816,0.071157,-0.744911,0.000000,-0.744911,0.000000,-0.750000,-0.500000,-0.750000,-0.500000,0.750000,0.000000,0.750000,0.000000,0.744911,0.000000,0.744911,
$1*%
G04 Aperture macros list end*
%ADD10R,1.700000X1.700000*%
%ADD11O,1.700000X1.700000*%
%ADD12RoundRect,0.350000X-0.350000X-0.350000X0.350000X-0.350000X0.350000X0.350000X-0.350000X0.350000X0*%
%ADD13O,1.400000X1.400000*%
%ADD14C,2.000000*%
%ADD15C,1.700000*%
%ADD16C,0.600000*%
%ADD17C,1.524000*%
%ADD18C,5.000000*%
%ADD19RoundRect,0.250001X-0.949999X-0.949999X0.949999X-0.949999X0.949999X0.949999X-0.949999X0.949999X0*%
%ADD20C,2.400000*%
%ADD21R,0.620000X0.250000*%
%ADD22C,1.000000*%
%ADD23C,1.400000*%
%ADD24HorizOval,1.699260X-0.689769X0.578785X0.689769X-0.578785X0*%
%ADD25RoundRect,0.424815X1.288262X-0.526424X-0.742131X1.177278X-1.288262X0.526424X0.742131X-1.177278X0*%
%ADD26RotRect,4.000000X1.000000X45.000000*%
%ADD27RotRect,4.000000X1.000000X115.000000*%
%ADD28RotRect,6.000000X1.000000X115.000000*%
%ADD29O,2.500000X1.600000*%
%ADD30O,7.000000X3.500000*%
%ADD31RoundRect,0.250000X-1.000000X0.550000X-1.000000X-0.550000X1.000000X-0.550000X1.000000X0.550000X0*%
%ADD32O,1.020000X1.020000*%
%ADD33R,0.466000X0.500000*%
%ADD34C,1.020000*%
%ADD35C,0.001000*%
%ADD36RoundRect,0.425000X-0.425000X0.425000X-0.425000X-0.425000X0.425000X-0.425000X0.425000X0.425000X0*%
%ADD37FreePoly0,180.000000*%
%ADD38FreePoly1,180.000000*%
%ADD39O,3.500000X3.500000*%
%ADD40R,2.000000X1.905000*%
%ADD41O,2.000000X1.905000*%
%ADD42FreePoly2,270.000000*%
%ADD43FreePoly3,270.000000*%
%ADD44RoundRect,0.425000X0.425000X-0.425000X0.425000X0.425000X-0.425000X0.425000X-0.425000X-0.425000X0*%
%ADD45R,3.480000X1.846667*%
%ADD46FreePoly2,0.000000*%
%ADD47FreePoly3,0.000000*%
G04 APERTURE END LIST*
D10*
%TO.C,J104*%
X61270000Y-114320000D03*
D11*
X61270000Y-111780000D03*
%TD*%
D12*
%TO.C,R1*%
X120620000Y-90270000D03*
D13*
X123160000Y-90270000D03*
%TD*%
D10*
%TO.C,J203*%
X52570000Y-66205000D03*
D11*
X52570000Y-63665000D03*
%TD*%
D14*
%TO.C,REF\u002A\u002A*%
X76060000Y-62500000D03*
%TD*%
D15*
%TO.C,J101*%
X80750000Y-110685000D03*
D11*
X78210000Y-110685000D03*
%TD*%
D16*
%TO.C,W101*%
X97610000Y-101910000D03*
D17*
X97610000Y-101910000D03*
D16*
X94873839Y-109427541D03*
D17*
X94873839Y-109427541D03*
%TD*%
D14*
%TO.C,J201*%
X115280000Y-63460000D03*
%TD*%
D10*
%TO.C,J103*%
X87600000Y-110825000D03*
D11*
X85060000Y-110825000D03*
%TD*%
D18*
%TO.C,REF\u002A\u002A*%
X51855000Y-71950000D03*
%TD*%
D19*
%TO.C,J205*%
X69000000Y-69000000D03*
D20*
X72500000Y-69000000D03*
D19*
X76000000Y-69000000D03*
D20*
X79500000Y-69000000D03*
%TD*%
D14*
%TO.C,REF\u002A\u002A*%
X72450000Y-62500000D03*
%TD*%
D18*
%TO.C,REF\u002A\u002A*%
X128055000Y-71950000D03*
%TD*%
D21*
%TO.C,JP101*%
X104425000Y-107080000D03*
D22*
X103785000Y-107090000D03*
X105055000Y-107090000D03*
X106325000Y-107090000D03*
%TD*%
D10*
%TO.C,J106*%
X70410000Y-114320000D03*
D11*
X70410000Y-111780000D03*
%TD*%
D23*
%TO.C,R2*%
X123060000Y-87920000D03*
D13*
X120520000Y-87920000D03*
%TD*%
D24*
%TO.C,Q103*%
X103577319Y-103585753D03*
X105210000Y-101640000D03*
D25*
X106842681Y-99694247D03*
%TD*%
D14*
%TO.C,L301*%
X111810000Y-99100000D03*
D26*
X113200000Y-97610000D03*
X114300000Y-100610000D03*
D14*
X115810000Y-99100000D03*
%TD*%
%TO.C,L101*%
X108310000Y-114850000D03*
D27*
X107370000Y-112620000D03*
D14*
X110810000Y-114850000D03*
D28*
X109560000Y-111850000D03*
D14*
X108310000Y-108850000D03*
D27*
X111790000Y-111010000D03*
D14*
X110810000Y-108850000D03*
%TD*%
D23*
%TO.C,R109*%
X108970000Y-106490000D03*
D13*
X108970000Y-103950000D03*
%TD*%
D29*
%TO.C,J301*%
X127275000Y-89412500D03*
D30*
X132355000Y-84332500D03*
D31*
X127275000Y-86872500D03*
D30*
X132355000Y-94492500D03*
%TD*%
D10*
%TO.C,J204*%
X60900000Y-71175000D03*
D11*
X60900000Y-68635000D03*
%TD*%
D32*
%TO.C,JP102*%
X100420000Y-112790000D03*
D33*
X101070000Y-112800000D03*
D34*
X101690000Y-112790000D03*
%TD*%
D10*
%TO.C,TP101*%
X91750000Y-116680000D03*
D11*
X94290000Y-116680000D03*
X96830000Y-116680000D03*
X99370000Y-116680000D03*
%TD*%
D18*
%TO.C,REF\u002A\u002A*%
X128055000Y-106875000D03*
%TD*%
%TO.C,REF\u002A\u002A*%
X51855000Y-106875000D03*
%TD*%
D14*
%TO.C,L302*%
X119430000Y-99390000D03*
D26*
X120820000Y-97900000D03*
X121920000Y-100900000D03*
D14*
X123430000Y-99390000D03*
%TD*%
D35*
%TO.C,SW101*%
X82190000Y-114815000D03*
X82190000Y-117565000D03*
%TD*%
D11*
%TO.C,J102*%
X52045000Y-114710000D03*
D36*
X54585000Y-114710000D03*
D11*
X57125000Y-114710000D03*
%TD*%
D37*
%TO.C,JP201*%
X57970000Y-66130000D03*
D38*
X56670000Y-66130000D03*
%TD*%
D36*
%TO.C,J105*%
X51052500Y-77750000D03*
D11*
X53592500Y-77750000D03*
X56132500Y-77750000D03*
X58672500Y-77750000D03*
%TD*%
D39*
%TO.C,U203*%
X105580000Y-81100000D03*
D40*
X122240000Y-78560000D03*
D41*
X122240000Y-81100000D03*
X122240000Y-83640000D03*
%TD*%
D42*
%TO.C,JP203*%
X116100000Y-88150000D03*
D43*
X116100000Y-89450000D03*
%TD*%
D15*
%TO.C,MOD201*%
X70197500Y-95890000D03*
D44*
X67657500Y-95890000D03*
X65117500Y-95890000D03*
D11*
X62577500Y-95890000D03*
%TD*%
D45*
%TO.C,J107*%
X48102500Y-83872500D03*
X48102500Y-86642500D03*
X48102500Y-89412500D03*
X48102500Y-92182500D03*
X48102500Y-94952500D03*
%TD*%
D46*
%TO.C,JP204*%
X93100000Y-68000000D03*
D47*
X94400000Y-68000000D03*
%TD*%
G36*
X104919191Y-106638907D02*
G01*
X104955155Y-106688407D01*
X104960000Y-106719000D01*
X104960000Y-107491000D01*
X104941093Y-107549191D01*
X104891593Y-107585155D01*
X104861000Y-107590000D01*
X103939000Y-107590000D01*
X103880809Y-107571093D01*
X103844845Y-107521593D01*
X103840000Y-107491000D01*
X103840000Y-106719000D01*
X103858907Y-106660809D01*
X103908407Y-106624845D01*
X103939000Y-106620000D01*
X104861000Y-106620000D01*
X104919191Y-106638907D01*
G37*
G36*
X101539191Y-112338907D02*
G01*
X101575155Y-112388407D01*
X101580000Y-112419000D01*
X101580000Y-113171912D01*
X101561093Y-113230103D01*
X101511593Y-113266067D01*
X101481917Y-113270908D01*
X100621901Y-113278871D01*
X100563537Y-113260503D01*
X100527117Y-113211338D01*
X100523907Y-113160459D01*
X100676083Y-112399584D01*
X100706035Y-112346232D01*
X100761627Y-112320674D01*
X100773160Y-112320000D01*
X101481000Y-112320000D01*
X101539191Y-112338907D01*
G37*
G36*
X57601451Y-65390574D02*
G01*
X57648001Y-65442679D01*
X57660000Y-65495893D01*
X57660000Y-66756000D01*
X57640315Y-66823039D01*
X57587511Y-66868794D01*
X57536000Y-66880000D01*
X57130343Y-66880000D01*
X57063304Y-66860315D01*
X57017549Y-66807511D01*
X57006399Y-66759711D01*
X56968871Y-65506319D01*
X56986540Y-65438720D01*
X57037951Y-65391406D01*
X57090936Y-65378622D01*
X57534121Y-65371907D01*
X57601451Y-65390574D01*
G37*
G36*
X116725250Y-88420463D02*
G01*
X116771749Y-88472613D01*
X116783642Y-88522019D01*
X116796107Y-88939590D01*
X116778431Y-89007187D01*
X116727016Y-89054497D01*
X116669561Y-89067263D01*
X115493756Y-89042596D01*
X115427144Y-89021509D01*
X115382507Y-88967757D01*
X115372380Y-88916239D01*
X115379620Y-88539733D01*
X115400590Y-88473084D01*
X115454264Y-88428353D01*
X115501838Y-88418129D01*
X116657938Y-88401731D01*
X116725250Y-88420463D01*
G37*
M02*
