%TF.GenerationSoftware,KiCad,Pcbnew,(6.0.4-0)*%
%TF.CreationDate,2024-06-13T10:53:39-04:00*%
%TF.ProjectId,SignalSlinger,5369676e-616c-4536-9c69-6e6765722e6b,rev?*%
%TF.SameCoordinates,Original*%
%TF.FileFunction,Soldermask,Bot*%
%TF.FilePolarity,Negative*%
%FSLAX46Y46*%
G04 Gerber Fmt 4.6, Leading zero omitted, Abs format (unit mm)*
G04 Created by KiCad (PCBNEW (6.0.4-0)) date 2024-06-13 10:53:39*
%MOMM*%
%LPD*%
G01*
G04 APERTURE LIST*
G04 Aperture macros list*
%AMRoundRect*
0 Rectangle with rounded corners*
0 $1 Rounding radius*
0 $2 $3 $4 $5 $6 $7 $8 $9 X,Y pos of 4 corners*
0 Add a 4 corners polygon primitive as box body*
4,1,4,$2,$3,$4,$5,$6,$7,$8,$9,$2,$3,0*
0 Add four circle primitives for the rounded corners*
1,1,$1+$1,$2,$3*
1,1,$1+$1,$4,$5*
1,1,$1+$1,$6,$7*
1,1,$1+$1,$8,$9*
0 Add four rect primitives between the rounded corners*
20,1,$1+$1,$2,$3,$4,$5,0*
20,1,$1+$1,$4,$5,$6,$7,0*
20,1,$1+$1,$6,$7,$8,$9,0*
20,1,$1+$1,$8,$9,$2,$3,0*%
%AMHorizOval*
0 Thick line with rounded ends*
0 $1 width*
0 $2 $3 position (X,Y) of the first rounded end (center of the circle)*
0 $4 $5 position (X,Y) of the second rounded end (center of the circle)*
0 Add line between two ends*
20,1,$1,$2,$3,$4,$5,0*
0 Add two circle primitives to create the rounded ends*
1,1,$1,$2,$3*
1,1,$1,$4,$5*%
%AMFreePoly0*
4,1,37,0.549497,0.799497,0.570000,0.750000,0.570000,-0.750000,0.549497,-0.799497,0.500000,-0.820000,0.000000,-0.820000,-0.012517,-0.814815,-0.081224,-0.813556,-0.100815,-0.810383,-0.236130,-0.768108,-0.254045,-0.759563,-0.372055,-0.681008,-0.386850,-0.667780,-0.478070,-0.559261,-0.488558,-0.542411,-0.545653,-0.412652,-0.550990,-0.393536,-0.568573,-0.259076,-0.566360,-0.258787,-0.570000,-0.250000,
-0.570000,0.250000,-0.569316,0.251652,-0.569130,0.266879,-0.547319,0.406956,-0.541516,0.425935,-0.481268,0.554260,-0.470371,0.570849,-0.376527,0.677107,-0.361413,0.689970,-0.241518,0.765618,-0.223401,0.773722,-0.087094,0.812679,-0.067430,0.815373,-0.011989,0.815034,0.000000,0.820000,0.500000,0.820000,0.549497,0.799497,0.549497,0.799497,$1*%
%AMFreePoly1*
4,1,37,0.012348,0.814885,0.074332,0.814507,0.093962,0.811573,0.229783,0.770954,0.247799,0.762629,0.366761,0.685522,0.381718,0.672475,0.474256,0.565078,0.484948,0.548358,0.543625,0.419306,0.549196,0.400256,0.569293,0.259923,0.570000,0.250000,0.570000,-0.250000,0.569995,-0.250854,0.569846,-0.263070,0.568881,-0.273830,0.545361,-0.413631,0.539327,-0.432538,0.477515,-0.560117,
0.466416,-0.576571,0.371281,-0.681675,0.356011,-0.694353,0.235201,-0.768530,0.216986,-0.776412,0.080213,-0.813701,0.060518,-0.816154,0.011456,-0.815255,0.000000,-0.820000,-0.500000,-0.820000,-0.549497,-0.799497,-0.570000,-0.750000,-0.570000,0.750000,-0.549497,0.799497,-0.500000,0.820000,0.000000,0.820000,0.012348,0.814885,0.012348,0.814885,$1*%
%AMFreePoly2*
4,1,22,0.500000,-0.750000,0.000000,-0.750000,0.000000,-0.745033,-0.079941,-0.743568,-0.215256,-0.701293,-0.333266,-0.622738,-0.424486,-0.514219,-0.481581,-0.384460,-0.499164,-0.250000,-0.500000,-0.250000,-0.500000,0.250000,-0.499164,0.250000,-0.499963,0.256109,-0.478152,0.396186,-0.417904,0.524511,-0.324060,0.630769,-0.204165,0.706417,-0.067858,0.745374,0.000000,0.744959,0.000000,0.750000,
0.500000,0.750000,0.500000,-0.750000,0.500000,-0.750000,$1*%
%AMFreePoly3*
4,1,20,0.000000,0.744959,0.073905,0.744508,0.209726,0.703889,0.328688,0.626782,0.421226,0.519385,0.479903,0.390333,0.500000,0.250000,0.500000,-0.250000,0.499851,-0.262216,0.476331,-0.402017,0.414519,-0.529596,0.319384,-0.634700,0.198574,-0.708877,0.061801,-0.746166,0.000000,-0.745033,0.000000,-0.750000,-0.500000,-0.750000,-0.500000,0.750000,0.000000,0.750000,0.000000,0.744959,
0.000000,0.744959,$1*%
G04 Aperture macros list end*
%ADD10R,1.700000X1.700000*%
%ADD11O,1.700000X1.700000*%
%ADD12RoundRect,0.350000X-0.350000X-0.350000X0.350000X-0.350000X0.350000X0.350000X-0.350000X0.350000X0*%
%ADD13O,1.400000X1.400000*%
%ADD14C,1.700000*%
%ADD15C,0.600000*%
%ADD16C,1.524000*%
%ADD17C,2.000000*%
%ADD18C,3.500000*%
%ADD19C,1.400000*%
%ADD20C,1.000000*%
%ADD21HorizOval,1.699260X-0.689769X0.578785X0.689769X-0.578785X0*%
%ADD22RoundRect,0.424815X1.288262X-0.526424X-0.742131X1.177278X-1.288262X0.526424X0.742131X-1.177278X0*%
%ADD23R,4.000000X1.000000*%
%ADD24R,1.000000X4.000000*%
%ADD25R,1.000000X6.000000*%
%ADD26O,2.500000X1.600000*%
%ADD27O,7.000000X3.500000*%
%ADD28O,1.000000X1.000000*%
%ADD29RoundRect,0.425000X-0.425000X0.425000X-0.425000X-0.425000X0.425000X-0.425000X0.425000X0.425000X0*%
%ADD30FreePoly0,180.000000*%
%ADD31FreePoly1,180.000000*%
%ADD32O,3.500000X3.500000*%
%ADD33R,2.000000X1.905000*%
%ADD34O,2.000000X1.905000*%
%ADD35RoundRect,0.425000X0.425000X-0.425000X0.425000X0.425000X-0.425000X0.425000X-0.425000X-0.425000X0*%
%ADD36R,3.480000X1.846667*%
%ADD37FreePoly2,0.000000*%
%ADD38FreePoly3,0.000000*%
G04 APERTURE END LIST*
D10*
%TO.C,J104*%
X61270000Y-114320000D03*
D11*
X61270000Y-111780000D03*
%TD*%
D12*
%TO.C,R1*%
X120620000Y-90270000D03*
D13*
X123160000Y-90270000D03*
%TD*%
D10*
%TO.C,J203*%
X52570000Y-66205000D03*
D11*
X52570000Y-63665000D03*
%TD*%
D14*
%TO.C,J101*%
X80750000Y-110685000D03*
D11*
X78210000Y-110685000D03*
%TD*%
D15*
%TO.C,W101*%
X97610000Y-101910000D03*
D16*
X97610000Y-101910000D03*
X94873839Y-109427541D03*
D15*
X94873839Y-109427541D03*
%TD*%
D17*
%TO.C,J201*%
X115280000Y-63460000D03*
%TD*%
D10*
%TO.C,J103*%
X87600000Y-110825000D03*
D11*
X85060000Y-110825000D03*
%TD*%
D18*
%TO.C,REF\u002A\u002A*%
X51855000Y-71950000D03*
%TD*%
%TO.C,REF\u002A\u002A*%
X128055000Y-71950000D03*
%TD*%
D19*
%TO.C,R4*%
X89960000Y-89070000D03*
D13*
X89960000Y-86530000D03*
%TD*%
D20*
%TO.C,JP101*%
X103785000Y-107090000D03*
X105055000Y-107090000D03*
X106325000Y-107090000D03*
%TD*%
D10*
%TO.C,J106*%
X70410000Y-114320000D03*
D11*
X70410000Y-111780000D03*
%TD*%
D19*
%TO.C,R2*%
X123060000Y-87920000D03*
D13*
X120520000Y-87920000D03*
%TD*%
D21*
%TO.C,Q103*%
X103577319Y-103585753D03*
X105210000Y-101640000D03*
D22*
X106842681Y-99694247D03*
%TD*%
D23*
%TO.C,L301*%
X113810000Y-98084000D03*
D17*
X111810000Y-97995100D03*
D23*
X113810000Y-99862000D03*
D17*
X115810000Y-99938200D03*
%TD*%
%TO.C,L101*%
X105790000Y-114860000D03*
D24*
X105750000Y-112876000D03*
D25*
X108290000Y-111860000D03*
D17*
X108290000Y-108860000D03*
X108290000Y-114860000D03*
X110790000Y-108860000D03*
D24*
X110830000Y-110844000D03*
%TD*%
D19*
%TO.C,R109*%
X108970000Y-106490000D03*
D13*
X108970000Y-103950000D03*
%TD*%
D26*
%TO.C,J301*%
X127275000Y-89412500D03*
X127275000Y-86872500D03*
D27*
X132355000Y-84332500D03*
X132355000Y-94492500D03*
%TD*%
D10*
%TO.C,J204*%
X66700000Y-63850000D03*
D11*
X64160000Y-63850000D03*
%TD*%
D28*
%TO.C,JP102*%
X100420000Y-112790000D03*
D20*
X101690000Y-112790000D03*
%TD*%
D10*
%TO.C,TP101*%
X91750000Y-116680000D03*
D11*
X94290000Y-116680000D03*
X96830000Y-116680000D03*
X99370000Y-116680000D03*
%TD*%
D18*
%TO.C,REF\u002A\u002A*%
X128055000Y-106875000D03*
%TD*%
%TO.C,REF\u002A\u002A*%
X51855000Y-106875000D03*
%TD*%
D23*
%TO.C,L302*%
X121430000Y-100406000D03*
D17*
X123430000Y-100494900D03*
D23*
X121430000Y-98628000D03*
D17*
X119430000Y-98551800D03*
%TD*%
D19*
%TO.C,R3*%
X92260000Y-90100000D03*
D13*
X94800000Y-90100000D03*
%TD*%
D11*
%TO.C,J102*%
X52045000Y-114710000D03*
D29*
X54585000Y-114710000D03*
D11*
X57125000Y-114710000D03*
%TD*%
D30*
%TO.C,JP201*%
X57970000Y-66130000D03*
D31*
X56670000Y-66130000D03*
%TD*%
D29*
%TO.C,J105*%
X51052500Y-77750000D03*
D11*
X53592500Y-77750000D03*
X56132500Y-77750000D03*
X58672500Y-77750000D03*
%TD*%
D32*
%TO.C,U203*%
X105580000Y-81100000D03*
D33*
X122240000Y-78560000D03*
D34*
X122240000Y-81100000D03*
X122240000Y-83640000D03*
%TD*%
D14*
%TO.C,MOD201*%
X70197500Y-95890000D03*
D35*
X67657500Y-95890000D03*
X65117500Y-95890000D03*
D11*
X62577500Y-95890000D03*
%TD*%
D36*
%TO.C,J107*%
X48102500Y-83872500D03*
X48102500Y-86642500D03*
X48102500Y-89412500D03*
X48102500Y-92182500D03*
X48102500Y-94952500D03*
%TD*%
D37*
%TO.C,JP204*%
X82460000Y-69270000D03*
D38*
X83760000Y-69270000D03*
%TD*%
G36*
X104919191Y-106638907D02*
G01*
X104955155Y-106688407D01*
X104960000Y-106719000D01*
X104960000Y-107491000D01*
X104941093Y-107549191D01*
X104891593Y-107585155D01*
X104861000Y-107590000D01*
X103939000Y-107590000D01*
X103880809Y-107571093D01*
X103844845Y-107521593D01*
X103840000Y-107491000D01*
X103840000Y-106719000D01*
X103858907Y-106660809D01*
X103908407Y-106624845D01*
X103939000Y-106620000D01*
X104861000Y-106620000D01*
X104919191Y-106638907D01*
G37*
G36*
X101539191Y-112338907D02*
G01*
X101575155Y-112388407D01*
X101580000Y-112419000D01*
X101580000Y-113171912D01*
X101561093Y-113230103D01*
X101511593Y-113266067D01*
X101481917Y-113270908D01*
X100621902Y-113278871D01*
X100563538Y-113260503D01*
X100527118Y-113211338D01*
X100523908Y-113160460D01*
X100676083Y-112399585D01*
X100706035Y-112346232D01*
X100761627Y-112320674D01*
X100773160Y-112320000D01*
X101481000Y-112320000D01*
X101539191Y-112338907D01*
G37*
M02*
