%TF.GenerationSoftware,KiCad,Pcbnew,(6.0.4-0)*%
%TF.CreationDate,2023-12-08T20:21:06-05:00*%
%TF.ProjectId,SignalSlinger,5369676e-616c-4536-9c69-6e6765722e6b,rev?*%
%TF.SameCoordinates,Original*%
%TF.FileFunction,Soldermask,Bot*%
%TF.FilePolarity,Negative*%
%FSLAX46Y46*%
G04 Gerber Fmt 4.6, Leading zero omitted, Abs format (unit mm)*
G04 Created by KiCad (PCBNEW (6.0.4-0)) date 2023-12-08 20:21:06*
%MOMM*%
%LPD*%
G01*
G04 APERTURE LIST*
G04 Aperture macros list*
%AMRoundRect*
0 Rectangle with rounded corners*
0 $1 Rounding radius*
0 $2 $3 $4 $5 $6 $7 $8 $9 X,Y pos of 4 corners*
0 Add a 4 corners polygon primitive as box body*
4,1,4,$2,$3,$4,$5,$6,$7,$8,$9,$2,$3,0*
0 Add four circle primitives for the rounded corners*
1,1,$1+$1,$2,$3*
1,1,$1+$1,$4,$5*
1,1,$1+$1,$6,$7*
1,1,$1+$1,$8,$9*
0 Add four rect primitives between the rounded corners*
20,1,$1+$1,$2,$3,$4,$5,0*
20,1,$1+$1,$4,$5,$6,$7,0*
20,1,$1+$1,$6,$7,$8,$9,0*
20,1,$1+$1,$8,$9,$2,$3,0*%
%AMHorizOval*
0 Thick line with rounded ends*
0 $1 width*
0 $2 $3 position (X,Y) of the first rounded end (center of the circle)*
0 $4 $5 position (X,Y) of the second rounded end (center of the circle)*
0 Add line between two ends*
20,1,$1,$2,$3,$4,$5,0*
0 Add two circle primitives to create the rounded ends*
1,1,$1,$2,$3*
1,1,$1,$4,$5*%
%AMFreePoly0*
4,1,37,0.549497,0.799497,0.570000,0.750000,0.570000,-0.750000,0.549497,-0.799497,0.500000,-0.820000,0.000000,-0.820000,-0.012517,-0.814815,-0.081224,-0.813556,-0.100815,-0.810383,-0.236130,-0.768108,-0.254045,-0.759563,-0.372055,-0.681008,-0.386850,-0.667780,-0.478070,-0.559261,-0.488558,-0.542411,-0.545653,-0.412652,-0.550990,-0.393536,-0.568573,-0.259076,-0.566360,-0.258787,-0.570000,-0.250000,
-0.570000,0.250000,-0.569316,0.251652,-0.569130,0.266879,-0.547319,0.406956,-0.541516,0.425935,-0.481268,0.554260,-0.470371,0.570849,-0.376527,0.677107,-0.361413,0.689970,-0.241518,0.765618,-0.223401,0.773722,-0.087094,0.812679,-0.067430,0.815373,-0.011989,0.815034,0.000000,0.820000,0.500000,0.820000,0.549497,0.799497,0.549497,0.799497,$1*%
%AMFreePoly1*
4,1,37,0.012348,0.814885,0.074332,0.814507,0.093962,0.811573,0.229783,0.770954,0.247799,0.762629,0.366761,0.685522,0.381718,0.672475,0.474256,0.565078,0.484948,0.548358,0.543625,0.419306,0.549196,0.400256,0.569293,0.259923,0.570000,0.250000,0.570000,-0.250000,0.569995,-0.250854,0.569846,-0.263070,0.568881,-0.273830,0.545361,-0.413631,0.539327,-0.432538,0.477515,-0.560117,
0.466416,-0.576571,0.371281,-0.681675,0.356011,-0.694353,0.235201,-0.768530,0.216986,-0.776412,0.080213,-0.813701,0.060518,-0.816154,0.011456,-0.815255,0.000000,-0.820000,-0.500000,-0.820000,-0.549497,-0.799497,-0.570000,-0.750000,-0.570000,0.750000,-0.549497,0.799497,-0.500000,0.820000,0.000000,0.820000,0.012348,0.814885,0.012348,0.814885,$1*%
G04 Aperture macros list end*
%ADD10R,1.700000X1.700000*%
%ADD11O,1.700000X1.700000*%
%ADD12C,0.720000*%
%ADD13RoundRect,0.350000X-0.350000X-0.350000X0.350000X-0.350000X0.350000X0.350000X-0.350000X0.350000X0*%
%ADD14O,1.400000X1.400000*%
%ADD15C,1.700000*%
%ADD16C,0.600000*%
%ADD17C,1.524000*%
%ADD18C,2.000000*%
%ADD19C,3.500000*%
%ADD20C,1.400000*%
%ADD21HorizOval,1.699260X-0.689769X0.578785X0.689769X-0.578785X0*%
%ADD22RoundRect,0.424815X1.288262X-0.526424X-0.742131X1.177278X-1.288262X0.526424X0.742131X-1.177278X0*%
%ADD23R,4.000000X1.000000*%
%ADD24R,1.000000X4.000000*%
%ADD25R,1.000000X6.000000*%
%ADD26O,2.500000X1.600000*%
%ADD27O,7.000000X3.500000*%
%ADD28RoundRect,0.425000X-0.425000X0.425000X-0.425000X-0.425000X0.425000X-0.425000X0.425000X0.425000X0*%
%ADD29FreePoly0,180.000000*%
%ADD30FreePoly1,180.000000*%
%ADD31C,1.600000*%
%ADD32C,2.100000*%
%ADD33RoundRect,0.525000X-0.525000X0.525000X-0.525000X-0.525000X0.525000X-0.525000X0.525000X0.525000X0*%
%ADD34C,3.799840*%
%ADD35O,2.499360X1.501140*%
%ADD36RoundRect,0.425000X0.425000X-0.425000X0.425000X0.425000X-0.425000X0.425000X-0.425000X-0.425000X0*%
%ADD37R,3.480000X1.846667*%
G04 APERTURE END LIST*
D10*
%TO.C,J104*%
X61270000Y-114320000D03*
D11*
X61270000Y-111780000D03*
%TD*%
D12*
%TO.C,U203*%
X88891000Y-77050000D03*
X88891000Y-78050000D03*
X89391000Y-77550000D03*
X89891000Y-78050000D03*
X89891000Y-77050000D03*
%TD*%
D13*
%TO.C,R1*%
X120660000Y-90220000D03*
D14*
X123200000Y-90220000D03*
%TD*%
D10*
%TO.C,J203*%
X57490000Y-70525000D03*
D11*
X57490000Y-67985000D03*
%TD*%
D15*
%TO.C,J101*%
X80750000Y-110685000D03*
D11*
X78210000Y-110685000D03*
%TD*%
D16*
%TO.C,W101*%
X96950000Y-102160000D03*
D17*
X96950000Y-102160000D03*
X91293146Y-96503146D03*
D16*
X91293146Y-96503146D03*
%TD*%
D18*
%TO.C,J201*%
X115280000Y-63460000D03*
%TD*%
D10*
%TO.C,J103*%
X87600000Y-110825000D03*
D11*
X85060000Y-110825000D03*
%TD*%
D19*
%TO.C,REF\u002A\u002A*%
X51855000Y-71950000D03*
%TD*%
%TO.C,REF\u002A\u002A*%
X128055000Y-71950000D03*
%TD*%
D10*
%TO.C,J106*%
X70410000Y-114320000D03*
D11*
X70410000Y-111780000D03*
%TD*%
D20*
%TO.C,R2*%
X123100000Y-88040000D03*
D14*
X120560000Y-88040000D03*
%TD*%
D21*
%TO.C,Q103*%
X103577319Y-103585753D03*
X105210000Y-101640000D03*
D22*
X106842681Y-99694247D03*
%TD*%
D23*
%TO.C,L301*%
X113810000Y-98084000D03*
D18*
X111810000Y-97995100D03*
D23*
X113810000Y-99862000D03*
D18*
X115810000Y-99938200D03*
%TD*%
%TO.C,L101*%
X105790000Y-114860000D03*
D24*
X105750000Y-112876000D03*
D25*
X108290000Y-111860000D03*
D18*
X108290000Y-108860000D03*
X108290000Y-114860000D03*
X110790000Y-108860000D03*
D24*
X110830000Y-110844000D03*
%TD*%
D26*
%TO.C,J301*%
X127275000Y-89412500D03*
X127275000Y-86872500D03*
D27*
X132355000Y-84332500D03*
X132355000Y-94492500D03*
%TD*%
D10*
%TO.C,J204*%
X63175000Y-63710000D03*
D11*
X60635000Y-63710000D03*
%TD*%
D10*
%TO.C,TP101*%
X91750000Y-116680000D03*
D11*
X94290000Y-116680000D03*
X96830000Y-116680000D03*
X99370000Y-116680000D03*
%TD*%
D19*
%TO.C,REF\u002A\u002A*%
X128055000Y-106875000D03*
%TD*%
%TO.C,REF\u002A\u002A*%
X51855000Y-106875000D03*
%TD*%
D23*
%TO.C,L302*%
X121430000Y-100406000D03*
D18*
X123430000Y-100494900D03*
D23*
X121430000Y-98628000D03*
D18*
X119430000Y-98551800D03*
%TD*%
D11*
%TO.C,J102*%
X52045000Y-114710000D03*
D28*
X54585000Y-114710000D03*
D11*
X57125000Y-114710000D03*
%TD*%
D29*
%TO.C,JP201*%
X61750000Y-71090000D03*
D30*
X60450000Y-71090000D03*
%TD*%
D31*
%TO.C,C305*%
X125760000Y-98940000D03*
X130760000Y-98940000D03*
%TD*%
%TO.C,C303*%
X117580000Y-107290000D03*
X117580000Y-102290000D03*
%TD*%
D28*
%TO.C,J105*%
X51052500Y-77750000D03*
D11*
X53592500Y-77750000D03*
X56132500Y-77750000D03*
X58672500Y-77750000D03*
%TD*%
D31*
%TO.C,C304*%
X117660000Y-91110000D03*
X117660000Y-96110000D03*
%TD*%
D32*
%TO.C,BT201*%
X77520000Y-99750000D03*
D33*
X77520000Y-104350000D03*
%TD*%
D31*
%TO.C,C302*%
X110150000Y-95250000D03*
X110150000Y-90250000D03*
%TD*%
D34*
%TO.C,U105*%
X105995160Y-81200000D03*
D35*
X122759160Y-78660000D03*
X122759160Y-81200000D03*
X122759160Y-83740000D03*
%TD*%
D15*
%TO.C,MOD201*%
X70197500Y-95890000D03*
D36*
X67657500Y-95890000D03*
X65117500Y-95890000D03*
D11*
X62577500Y-95890000D03*
%TD*%
D37*
%TO.C,J107*%
X48102500Y-83872500D03*
X48102500Y-86642500D03*
X48102500Y-89412500D03*
X48102500Y-92182500D03*
X48102500Y-94952500D03*
%TD*%
G36*
X91392121Y-75610002D02*
G01*
X91438614Y-75663658D01*
X91450000Y-75716000D01*
X91450000Y-79354000D01*
X91429998Y-79422121D01*
X91376342Y-79468614D01*
X91324000Y-79480000D01*
X87446000Y-79480000D01*
X87377879Y-79459998D01*
X87331386Y-79406342D01*
X87320000Y-79354000D01*
X87320000Y-75716000D01*
X87340002Y-75647879D01*
X87393658Y-75601386D01*
X87446000Y-75590000D01*
X91324000Y-75590000D01*
X91392121Y-75610002D01*
G37*
G36*
X61270435Y-70331425D02*
G01*
X61318192Y-70383959D01*
X61330854Y-70438175D01*
X61339134Y-71680104D01*
X61319587Y-71748357D01*
X61266242Y-71795206D01*
X61210138Y-71806908D01*
X61042172Y-71802909D01*
X60974547Y-71781292D01*
X60929344Y-71726544D01*
X60919174Y-71677796D01*
X60910837Y-70443867D01*
X60930378Y-70375613D01*
X60983719Y-70328759D01*
X61033835Y-70317052D01*
X61201858Y-70313051D01*
X61270435Y-70331425D01*
G37*
M02*
