%TF.GenerationSoftware,KiCad,Pcbnew,9.0.4*%
%TF.CreationDate,2025-10-22T16:45:45-04:00*%
%TF.ProjectId,SignalSlinger,5369676e-616c-4536-9c69-6e6765722e6b,rev?*%
%TF.SameCoordinates,Original*%
%TF.FileFunction,Legend,Bot*%
%TF.FilePolarity,Positive*%
%FSLAX46Y46*%
G04 Gerber Fmt 4.6, Leading zero omitted, Abs format (unit mm)*
G04 Created by KiCad (PCBNEW 9.0.4) date 2025-10-22 16:45:45*
%MOMM*%
%LPD*%
G01*
G04 APERTURE LIST*
%ADD10C,0.150000*%
%ADD11C,0.100000*%
%ADD12C,0.250000*%
%ADD13C,0.112500*%
%ADD14C,0.200000*%
%ADD15C,0.120000*%
G04 APERTURE END LIST*
D10*
X81580000Y-65960000D02*
X66880000Y-65950000D01*
X66880000Y-67560000D02*
X66880000Y-65950000D01*
D11*
X74230000Y-67560000D02*
X74230000Y-65955000D01*
D10*
X81580000Y-67560000D02*
X81580000Y-65960000D01*
D11*
X77780000Y-67560000D02*
X77780000Y-65960000D01*
X70700000Y-67560000D02*
X70700000Y-66000000D01*
D10*
X53621904Y-88854819D02*
X53050476Y-88854819D01*
X53336190Y-89854819D02*
X53336190Y-88854819D01*
X52812380Y-88854819D02*
X52145714Y-89854819D01*
X52145714Y-88854819D02*
X52812380Y-89854819D01*
X51764761Y-89854819D02*
X51764761Y-88854819D01*
X51764761Y-88854819D02*
X51526666Y-88854819D01*
X51526666Y-88854819D02*
X51383809Y-88902438D01*
X51383809Y-88902438D02*
X51288571Y-88997676D01*
X51288571Y-88997676D02*
X51240952Y-89092914D01*
X51240952Y-89092914D02*
X51193333Y-89283390D01*
X51193333Y-89283390D02*
X51193333Y-89426247D01*
X51193333Y-89426247D02*
X51240952Y-89616723D01*
X51240952Y-89616723D02*
X51288571Y-89711961D01*
X51288571Y-89711961D02*
X51383809Y-89807200D01*
X51383809Y-89807200D02*
X51526666Y-89854819D01*
X51526666Y-89854819D02*
X51764761Y-89854819D01*
D12*
X106893332Y-113419619D02*
X106226666Y-114419619D01*
X106226666Y-113419619D02*
X106893332Y-114419619D01*
D10*
X51746190Y-92071009D02*
X52079523Y-92071009D01*
X52079523Y-92594819D02*
X52079523Y-91594819D01*
X52079523Y-91594819D02*
X51603333Y-91594819D01*
X51222380Y-92213866D02*
X50460476Y-92213866D01*
X50841428Y-92594819D02*
X50841428Y-91832914D01*
X90372381Y-109074819D02*
X90372381Y-108074819D01*
X90372381Y-108074819D02*
X89991429Y-108074819D01*
X89991429Y-108074819D02*
X89896191Y-108122438D01*
X89896191Y-108122438D02*
X89848572Y-108170057D01*
X89848572Y-108170057D02*
X89800953Y-108265295D01*
X89800953Y-108265295D02*
X89800953Y-108408152D01*
X89800953Y-108408152D02*
X89848572Y-108503390D01*
X89848572Y-108503390D02*
X89896191Y-108551009D01*
X89896191Y-108551009D02*
X89991429Y-108598628D01*
X89991429Y-108598628D02*
X90372381Y-108598628D01*
X88943810Y-108408152D02*
X88943810Y-109074819D01*
X89372381Y-108408152D02*
X89372381Y-108931961D01*
X89372381Y-108931961D02*
X89324762Y-109027200D01*
X89324762Y-109027200D02*
X89229524Y-109074819D01*
X89229524Y-109074819D02*
X89086667Y-109074819D01*
X89086667Y-109074819D02*
X88991429Y-109027200D01*
X88991429Y-109027200D02*
X88943810Y-108979580D01*
X88515238Y-109027200D02*
X88420000Y-109074819D01*
X88420000Y-109074819D02*
X88229524Y-109074819D01*
X88229524Y-109074819D02*
X88134286Y-109027200D01*
X88134286Y-109027200D02*
X88086667Y-108931961D01*
X88086667Y-108931961D02*
X88086667Y-108884342D01*
X88086667Y-108884342D02*
X88134286Y-108789104D01*
X88134286Y-108789104D02*
X88229524Y-108741485D01*
X88229524Y-108741485D02*
X88372381Y-108741485D01*
X88372381Y-108741485D02*
X88467619Y-108693866D01*
X88467619Y-108693866D02*
X88515238Y-108598628D01*
X88515238Y-108598628D02*
X88515238Y-108551009D01*
X88515238Y-108551009D02*
X88467619Y-108455771D01*
X88467619Y-108455771D02*
X88372381Y-108408152D01*
X88372381Y-108408152D02*
X88229524Y-108408152D01*
X88229524Y-108408152D02*
X88134286Y-108455771D01*
X87658095Y-109074819D02*
X87658095Y-108074819D01*
X87229524Y-109074819D02*
X87229524Y-108551009D01*
X87229524Y-108551009D02*
X87277143Y-108455771D01*
X87277143Y-108455771D02*
X87372381Y-108408152D01*
X87372381Y-108408152D02*
X87515238Y-108408152D01*
X87515238Y-108408152D02*
X87610476Y-108455771D01*
X87610476Y-108455771D02*
X87658095Y-108503390D01*
X86753333Y-109074819D02*
X86753333Y-108074819D01*
X86753333Y-108455771D02*
X86658095Y-108408152D01*
X86658095Y-108408152D02*
X86467619Y-108408152D01*
X86467619Y-108408152D02*
X86372381Y-108455771D01*
X86372381Y-108455771D02*
X86324762Y-108503390D01*
X86324762Y-108503390D02*
X86277143Y-108598628D01*
X86277143Y-108598628D02*
X86277143Y-108884342D01*
X86277143Y-108884342D02*
X86324762Y-108979580D01*
X86324762Y-108979580D02*
X86372381Y-109027200D01*
X86372381Y-109027200D02*
X86467619Y-109074819D01*
X86467619Y-109074819D02*
X86658095Y-109074819D01*
X86658095Y-109074819D02*
X86753333Y-109027200D01*
X85420000Y-108408152D02*
X85420000Y-109074819D01*
X85848571Y-108408152D02*
X85848571Y-108931961D01*
X85848571Y-108931961D02*
X85800952Y-109027200D01*
X85800952Y-109027200D02*
X85705714Y-109074819D01*
X85705714Y-109074819D02*
X85562857Y-109074819D01*
X85562857Y-109074819D02*
X85467619Y-109027200D01*
X85467619Y-109027200D02*
X85420000Y-108979580D01*
X85086666Y-108408152D02*
X84705714Y-108408152D01*
X84943809Y-108074819D02*
X84943809Y-108931961D01*
X84943809Y-108931961D02*
X84896190Y-109027200D01*
X84896190Y-109027200D02*
X84800952Y-109074819D01*
X84800952Y-109074819D02*
X84705714Y-109074819D01*
X84515237Y-108408152D02*
X84134285Y-108408152D01*
X84372380Y-108074819D02*
X84372380Y-108931961D01*
X84372380Y-108931961D02*
X84324761Y-109027200D01*
X84324761Y-109027200D02*
X84229523Y-109074819D01*
X84229523Y-109074819D02*
X84134285Y-109074819D01*
X83658094Y-109074819D02*
X83753332Y-109027200D01*
X83753332Y-109027200D02*
X83800951Y-108979580D01*
X83800951Y-108979580D02*
X83848570Y-108884342D01*
X83848570Y-108884342D02*
X83848570Y-108598628D01*
X83848570Y-108598628D02*
X83800951Y-108503390D01*
X83800951Y-108503390D02*
X83753332Y-108455771D01*
X83753332Y-108455771D02*
X83658094Y-108408152D01*
X83658094Y-108408152D02*
X83515237Y-108408152D01*
X83515237Y-108408152D02*
X83419999Y-108455771D01*
X83419999Y-108455771D02*
X83372380Y-108503390D01*
X83372380Y-108503390D02*
X83324761Y-108598628D01*
X83324761Y-108598628D02*
X83324761Y-108884342D01*
X83324761Y-108884342D02*
X83372380Y-108979580D01*
X83372380Y-108979580D02*
X83419999Y-109027200D01*
X83419999Y-109027200D02*
X83515237Y-109074819D01*
X83515237Y-109074819D02*
X83658094Y-109074819D01*
X82896189Y-108408152D02*
X82896189Y-109074819D01*
X82896189Y-108503390D02*
X82848570Y-108455771D01*
X82848570Y-108455771D02*
X82753332Y-108408152D01*
X82753332Y-108408152D02*
X82610475Y-108408152D01*
X82610475Y-108408152D02*
X82515237Y-108455771D01*
X82515237Y-108455771D02*
X82467618Y-108551009D01*
X82467618Y-108551009D02*
X82467618Y-109074819D01*
D12*
X107133332Y-109379619D02*
X106466666Y-110379619D01*
X106466666Y-109379619D02*
X107133332Y-110379619D01*
D10*
X67762438Y-110054761D02*
X67714819Y-109959523D01*
X67714819Y-109959523D02*
X67714819Y-109816666D01*
X67714819Y-109816666D02*
X67762438Y-109673809D01*
X67762438Y-109673809D02*
X67857676Y-109578571D01*
X67857676Y-109578571D02*
X67952914Y-109530952D01*
X67952914Y-109530952D02*
X68143390Y-109483333D01*
X68143390Y-109483333D02*
X68286247Y-109483333D01*
X68286247Y-109483333D02*
X68476723Y-109530952D01*
X68476723Y-109530952D02*
X68571961Y-109578571D01*
X68571961Y-109578571D02*
X68667200Y-109673809D01*
X68667200Y-109673809D02*
X68714819Y-109816666D01*
X68714819Y-109816666D02*
X68714819Y-109911904D01*
X68714819Y-109911904D02*
X68667200Y-110054761D01*
X68667200Y-110054761D02*
X68619580Y-110102380D01*
X68619580Y-110102380D02*
X68286247Y-110102380D01*
X68286247Y-110102380D02*
X68286247Y-109911904D01*
X68714819Y-110530952D02*
X68048152Y-110530952D01*
X68238628Y-110530952D02*
X68143390Y-110578571D01*
X68143390Y-110578571D02*
X68095771Y-110626190D01*
X68095771Y-110626190D02*
X68048152Y-110721428D01*
X68048152Y-110721428D02*
X68048152Y-110816666D01*
X68667200Y-111530952D02*
X68714819Y-111435714D01*
X68714819Y-111435714D02*
X68714819Y-111245238D01*
X68714819Y-111245238D02*
X68667200Y-111150000D01*
X68667200Y-111150000D02*
X68571961Y-111102381D01*
X68571961Y-111102381D02*
X68191009Y-111102381D01*
X68191009Y-111102381D02*
X68095771Y-111150000D01*
X68095771Y-111150000D02*
X68048152Y-111245238D01*
X68048152Y-111245238D02*
X68048152Y-111435714D01*
X68048152Y-111435714D02*
X68095771Y-111530952D01*
X68095771Y-111530952D02*
X68191009Y-111578571D01*
X68191009Y-111578571D02*
X68286247Y-111578571D01*
X68286247Y-111578571D02*
X68381485Y-111102381D01*
X68667200Y-112388095D02*
X68714819Y-112292857D01*
X68714819Y-112292857D02*
X68714819Y-112102381D01*
X68714819Y-112102381D02*
X68667200Y-112007143D01*
X68667200Y-112007143D02*
X68571961Y-111959524D01*
X68571961Y-111959524D02*
X68191009Y-111959524D01*
X68191009Y-111959524D02*
X68095771Y-112007143D01*
X68095771Y-112007143D02*
X68048152Y-112102381D01*
X68048152Y-112102381D02*
X68048152Y-112292857D01*
X68048152Y-112292857D02*
X68095771Y-112388095D01*
X68095771Y-112388095D02*
X68191009Y-112435714D01*
X68191009Y-112435714D02*
X68286247Y-112435714D01*
X68286247Y-112435714D02*
X68381485Y-111959524D01*
X68048152Y-112864286D02*
X68714819Y-112864286D01*
X68143390Y-112864286D02*
X68095771Y-112911905D01*
X68095771Y-112911905D02*
X68048152Y-113007143D01*
X68048152Y-113007143D02*
X68048152Y-113150000D01*
X68048152Y-113150000D02*
X68095771Y-113245238D01*
X68095771Y-113245238D02*
X68191009Y-113292857D01*
X68191009Y-113292857D02*
X68714819Y-113292857D01*
X68714819Y-115007143D02*
X68714819Y-114530953D01*
X68714819Y-114530953D02*
X67714819Y-114530953D01*
X68191009Y-115340477D02*
X68191009Y-115673810D01*
X68714819Y-115816667D02*
X68714819Y-115340477D01*
X68714819Y-115340477D02*
X67714819Y-115340477D01*
X67714819Y-115340477D02*
X67714819Y-115816667D01*
X68714819Y-116245239D02*
X67714819Y-116245239D01*
X67714819Y-116245239D02*
X67714819Y-116483334D01*
X67714819Y-116483334D02*
X67762438Y-116626191D01*
X67762438Y-116626191D02*
X67857676Y-116721429D01*
X67857676Y-116721429D02*
X67952914Y-116769048D01*
X67952914Y-116769048D02*
X68143390Y-116816667D01*
X68143390Y-116816667D02*
X68286247Y-116816667D01*
X68286247Y-116816667D02*
X68476723Y-116769048D01*
X68476723Y-116769048D02*
X68571961Y-116721429D01*
X68571961Y-116721429D02*
X68667200Y-116626191D01*
X68667200Y-116626191D02*
X68714819Y-116483334D01*
X68714819Y-116483334D02*
X68714819Y-116245239D01*
X54228570Y-76162295D02*
X54228570Y-75362295D01*
X54228570Y-75362295D02*
X54038094Y-75362295D01*
X54038094Y-75362295D02*
X53923808Y-75400390D01*
X53923808Y-75400390D02*
X53847618Y-75476580D01*
X53847618Y-75476580D02*
X53809523Y-75552771D01*
X53809523Y-75552771D02*
X53771427Y-75705152D01*
X53771427Y-75705152D02*
X53771427Y-75819438D01*
X53771427Y-75819438D02*
X53809523Y-75971819D01*
X53809523Y-75971819D02*
X53847618Y-76048009D01*
X53847618Y-76048009D02*
X53923808Y-76124200D01*
X53923808Y-76124200D02*
X54038094Y-76162295D01*
X54038094Y-76162295D02*
X54228570Y-76162295D01*
X53428570Y-76162295D02*
X53428570Y-75628961D01*
X53428570Y-75362295D02*
X53466666Y-75400390D01*
X53466666Y-75400390D02*
X53428570Y-75438485D01*
X53428570Y-75438485D02*
X53390475Y-75400390D01*
X53390475Y-75400390D02*
X53428570Y-75362295D01*
X53428570Y-75362295D02*
X53428570Y-75438485D01*
X53161904Y-75628961D02*
X52857142Y-75628961D01*
X53047618Y-75362295D02*
X53047618Y-76048009D01*
X53047618Y-76048009D02*
X53009523Y-76124200D01*
X53009523Y-76124200D02*
X52933333Y-76162295D01*
X52933333Y-76162295D02*
X52857142Y-76162295D01*
D13*
X82415716Y-65019078D02*
X82115716Y-65019078D01*
X81987144Y-65490507D02*
X82415716Y-65490507D01*
X82415716Y-65490507D02*
X82415716Y-64590507D01*
X82415716Y-64590507D02*
X81987144Y-64590507D01*
X81687144Y-65490507D02*
X81215716Y-64890507D01*
X81687144Y-64890507D02*
X81215716Y-65490507D01*
X81001430Y-64890507D02*
X80658573Y-64890507D01*
X80872859Y-64590507D02*
X80872859Y-65361935D01*
X80872859Y-65361935D02*
X80830002Y-65447650D01*
X80830002Y-65447650D02*
X80744287Y-65490507D01*
X80744287Y-65490507D02*
X80658573Y-65490507D01*
X80015716Y-65447650D02*
X80101430Y-65490507D01*
X80101430Y-65490507D02*
X80272859Y-65490507D01*
X80272859Y-65490507D02*
X80358573Y-65447650D01*
X80358573Y-65447650D02*
X80401430Y-65361935D01*
X80401430Y-65361935D02*
X80401430Y-65019078D01*
X80401430Y-65019078D02*
X80358573Y-64933364D01*
X80358573Y-64933364D02*
X80272859Y-64890507D01*
X80272859Y-64890507D02*
X80101430Y-64890507D01*
X80101430Y-64890507D02*
X80015716Y-64933364D01*
X80015716Y-64933364D02*
X79972859Y-65019078D01*
X79972859Y-65019078D02*
X79972859Y-65104792D01*
X79972859Y-65104792D02*
X80401430Y-65190507D01*
X79587144Y-65490507D02*
X79587144Y-64890507D01*
X79587144Y-65061935D02*
X79544287Y-64976221D01*
X79544287Y-64976221D02*
X79501430Y-64933364D01*
X79501430Y-64933364D02*
X79415715Y-64890507D01*
X79415715Y-64890507D02*
X79330001Y-64890507D01*
X79030001Y-64890507D02*
X79030001Y-65490507D01*
X79030001Y-64976221D02*
X78987144Y-64933364D01*
X78987144Y-64933364D02*
X78901429Y-64890507D01*
X78901429Y-64890507D02*
X78772858Y-64890507D01*
X78772858Y-64890507D02*
X78687144Y-64933364D01*
X78687144Y-64933364D02*
X78644287Y-65019078D01*
X78644287Y-65019078D02*
X78644287Y-65490507D01*
X77830001Y-65490507D02*
X77830001Y-65019078D01*
X77830001Y-65019078D02*
X77872858Y-64933364D01*
X77872858Y-64933364D02*
X77958572Y-64890507D01*
X77958572Y-64890507D02*
X78130001Y-64890507D01*
X78130001Y-64890507D02*
X78215715Y-64933364D01*
X77830001Y-65447650D02*
X77915715Y-65490507D01*
X77915715Y-65490507D02*
X78130001Y-65490507D01*
X78130001Y-65490507D02*
X78215715Y-65447650D01*
X78215715Y-65447650D02*
X78258572Y-65361935D01*
X78258572Y-65361935D02*
X78258572Y-65276221D01*
X78258572Y-65276221D02*
X78215715Y-65190507D01*
X78215715Y-65190507D02*
X78130001Y-65147650D01*
X78130001Y-65147650D02*
X77915715Y-65147650D01*
X77915715Y-65147650D02*
X77830001Y-65104792D01*
X77272857Y-65490507D02*
X77358572Y-65447650D01*
X77358572Y-65447650D02*
X77401429Y-65361935D01*
X77401429Y-65361935D02*
X77401429Y-64590507D01*
X75944286Y-65019078D02*
X75815714Y-65061935D01*
X75815714Y-65061935D02*
X75772857Y-65104792D01*
X75772857Y-65104792D02*
X75730000Y-65190507D01*
X75730000Y-65190507D02*
X75730000Y-65319078D01*
X75730000Y-65319078D02*
X75772857Y-65404792D01*
X75772857Y-65404792D02*
X75815714Y-65447650D01*
X75815714Y-65447650D02*
X75901429Y-65490507D01*
X75901429Y-65490507D02*
X76244286Y-65490507D01*
X76244286Y-65490507D02*
X76244286Y-64590507D01*
X76244286Y-64590507D02*
X75944286Y-64590507D01*
X75944286Y-64590507D02*
X75858572Y-64633364D01*
X75858572Y-64633364D02*
X75815714Y-64676221D01*
X75815714Y-64676221D02*
X75772857Y-64761935D01*
X75772857Y-64761935D02*
X75772857Y-64847650D01*
X75772857Y-64847650D02*
X75815714Y-64933364D01*
X75815714Y-64933364D02*
X75858572Y-64976221D01*
X75858572Y-64976221D02*
X75944286Y-65019078D01*
X75944286Y-65019078D02*
X76244286Y-65019078D01*
X74958572Y-65490507D02*
X74958572Y-65019078D01*
X74958572Y-65019078D02*
X75001429Y-64933364D01*
X75001429Y-64933364D02*
X75087143Y-64890507D01*
X75087143Y-64890507D02*
X75258572Y-64890507D01*
X75258572Y-64890507D02*
X75344286Y-64933364D01*
X74958572Y-65447650D02*
X75044286Y-65490507D01*
X75044286Y-65490507D02*
X75258572Y-65490507D01*
X75258572Y-65490507D02*
X75344286Y-65447650D01*
X75344286Y-65447650D02*
X75387143Y-65361935D01*
X75387143Y-65361935D02*
X75387143Y-65276221D01*
X75387143Y-65276221D02*
X75344286Y-65190507D01*
X75344286Y-65190507D02*
X75258572Y-65147650D01*
X75258572Y-65147650D02*
X75044286Y-65147650D01*
X75044286Y-65147650D02*
X74958572Y-65104792D01*
X74658571Y-64890507D02*
X74315714Y-64890507D01*
X74530000Y-64590507D02*
X74530000Y-65361935D01*
X74530000Y-65361935D02*
X74487143Y-65447650D01*
X74487143Y-65447650D02*
X74401428Y-65490507D01*
X74401428Y-65490507D02*
X74315714Y-65490507D01*
X74144285Y-64890507D02*
X73801428Y-64890507D01*
X74015714Y-64590507D02*
X74015714Y-65361935D01*
X74015714Y-65361935D02*
X73972857Y-65447650D01*
X73972857Y-65447650D02*
X73887142Y-65490507D01*
X73887142Y-65490507D02*
X73801428Y-65490507D01*
X73158571Y-65447650D02*
X73244285Y-65490507D01*
X73244285Y-65490507D02*
X73415714Y-65490507D01*
X73415714Y-65490507D02*
X73501428Y-65447650D01*
X73501428Y-65447650D02*
X73544285Y-65361935D01*
X73544285Y-65361935D02*
X73544285Y-65019078D01*
X73544285Y-65019078D02*
X73501428Y-64933364D01*
X73501428Y-64933364D02*
X73415714Y-64890507D01*
X73415714Y-64890507D02*
X73244285Y-64890507D01*
X73244285Y-64890507D02*
X73158571Y-64933364D01*
X73158571Y-64933364D02*
X73115714Y-65019078D01*
X73115714Y-65019078D02*
X73115714Y-65104792D01*
X73115714Y-65104792D02*
X73544285Y-65190507D01*
X72729999Y-65490507D02*
X72729999Y-64890507D01*
X72729999Y-65061935D02*
X72687142Y-64976221D01*
X72687142Y-64976221D02*
X72644285Y-64933364D01*
X72644285Y-64933364D02*
X72558570Y-64890507D01*
X72558570Y-64890507D02*
X72472856Y-64890507D01*
X72258570Y-64890507D02*
X72044284Y-65490507D01*
X71829999Y-64890507D02*
X72044284Y-65490507D01*
X72044284Y-65490507D02*
X72129999Y-65704792D01*
X72129999Y-65704792D02*
X72172856Y-65747650D01*
X72172856Y-65747650D02*
X72258570Y-65790507D01*
X70287142Y-65404792D02*
X70329999Y-65447650D01*
X70329999Y-65447650D02*
X70458571Y-65490507D01*
X70458571Y-65490507D02*
X70544285Y-65490507D01*
X70544285Y-65490507D02*
X70672856Y-65447650D01*
X70672856Y-65447650D02*
X70758571Y-65361935D01*
X70758571Y-65361935D02*
X70801428Y-65276221D01*
X70801428Y-65276221D02*
X70844285Y-65104792D01*
X70844285Y-65104792D02*
X70844285Y-64976221D01*
X70844285Y-64976221D02*
X70801428Y-64804792D01*
X70801428Y-64804792D02*
X70758571Y-64719078D01*
X70758571Y-64719078D02*
X70672856Y-64633364D01*
X70672856Y-64633364D02*
X70544285Y-64590507D01*
X70544285Y-64590507D02*
X70458571Y-64590507D01*
X70458571Y-64590507D02*
X70329999Y-64633364D01*
X70329999Y-64633364D02*
X70287142Y-64676221D01*
X69772856Y-65490507D02*
X69858571Y-65447650D01*
X69858571Y-65447650D02*
X69901428Y-65404792D01*
X69901428Y-65404792D02*
X69944285Y-65319078D01*
X69944285Y-65319078D02*
X69944285Y-65061935D01*
X69944285Y-65061935D02*
X69901428Y-64976221D01*
X69901428Y-64976221D02*
X69858571Y-64933364D01*
X69858571Y-64933364D02*
X69772856Y-64890507D01*
X69772856Y-64890507D02*
X69644285Y-64890507D01*
X69644285Y-64890507D02*
X69558571Y-64933364D01*
X69558571Y-64933364D02*
X69515714Y-64976221D01*
X69515714Y-64976221D02*
X69472856Y-65061935D01*
X69472856Y-65061935D02*
X69472856Y-65319078D01*
X69472856Y-65319078D02*
X69515714Y-65404792D01*
X69515714Y-65404792D02*
X69558571Y-65447650D01*
X69558571Y-65447650D02*
X69644285Y-65490507D01*
X69644285Y-65490507D02*
X69772856Y-65490507D01*
X69087142Y-64890507D02*
X69087142Y-65490507D01*
X69087142Y-64976221D02*
X69044285Y-64933364D01*
X69044285Y-64933364D02*
X68958570Y-64890507D01*
X68958570Y-64890507D02*
X68829999Y-64890507D01*
X68829999Y-64890507D02*
X68744285Y-64933364D01*
X68744285Y-64933364D02*
X68701428Y-65019078D01*
X68701428Y-65019078D02*
X68701428Y-65490507D01*
X68401427Y-64890507D02*
X68058570Y-64890507D01*
X68272856Y-64590507D02*
X68272856Y-65361935D01*
X68272856Y-65361935D02*
X68229999Y-65447650D01*
X68229999Y-65447650D02*
X68144284Y-65490507D01*
X68144284Y-65490507D02*
X68058570Y-65490507D01*
X67758570Y-65490507D02*
X67758570Y-64890507D01*
X67758570Y-65061935D02*
X67715713Y-64976221D01*
X67715713Y-64976221D02*
X67672856Y-64933364D01*
X67672856Y-64933364D02*
X67587141Y-64890507D01*
X67587141Y-64890507D02*
X67501427Y-64890507D01*
X67072855Y-65490507D02*
X67158570Y-65447650D01*
X67158570Y-65447650D02*
X67201427Y-65404792D01*
X67201427Y-65404792D02*
X67244284Y-65319078D01*
X67244284Y-65319078D02*
X67244284Y-65061935D01*
X67244284Y-65061935D02*
X67201427Y-64976221D01*
X67201427Y-64976221D02*
X67158570Y-64933364D01*
X67158570Y-64933364D02*
X67072855Y-64890507D01*
X67072855Y-64890507D02*
X66944284Y-64890507D01*
X66944284Y-64890507D02*
X66858570Y-64933364D01*
X66858570Y-64933364D02*
X66815713Y-64976221D01*
X66815713Y-64976221D02*
X66772855Y-65061935D01*
X66772855Y-65061935D02*
X66772855Y-65319078D01*
X66772855Y-65319078D02*
X66815713Y-65404792D01*
X66815713Y-65404792D02*
X66858570Y-65447650D01*
X66858570Y-65447650D02*
X66944284Y-65490507D01*
X66944284Y-65490507D02*
X67072855Y-65490507D01*
X66258569Y-65490507D02*
X66344284Y-65447650D01*
X66344284Y-65447650D02*
X66387141Y-65361935D01*
X66387141Y-65361935D02*
X66387141Y-64590507D01*
D10*
X61661904Y-73331009D02*
X61995237Y-73331009D01*
X61995237Y-73854819D02*
X61995237Y-72854819D01*
X61995237Y-72854819D02*
X61519047Y-72854819D01*
X60709523Y-73854819D02*
X60709523Y-73331009D01*
X60709523Y-73331009D02*
X60757142Y-73235771D01*
X60757142Y-73235771D02*
X60852380Y-73188152D01*
X60852380Y-73188152D02*
X61042856Y-73188152D01*
X61042856Y-73188152D02*
X61138094Y-73235771D01*
X60709523Y-73807200D02*
X60804761Y-73854819D01*
X60804761Y-73854819D02*
X61042856Y-73854819D01*
X61042856Y-73854819D02*
X61138094Y-73807200D01*
X61138094Y-73807200D02*
X61185713Y-73711961D01*
X61185713Y-73711961D02*
X61185713Y-73616723D01*
X61185713Y-73616723D02*
X61138094Y-73521485D01*
X61138094Y-73521485D02*
X61042856Y-73473866D01*
X61042856Y-73473866D02*
X60804761Y-73473866D01*
X60804761Y-73473866D02*
X60709523Y-73426247D01*
X60233332Y-73188152D02*
X60233332Y-73854819D01*
X60233332Y-73283390D02*
X60185713Y-73235771D01*
X60185713Y-73235771D02*
X60090475Y-73188152D01*
X60090475Y-73188152D02*
X59947618Y-73188152D01*
X59947618Y-73188152D02*
X59852380Y-73235771D01*
X59852380Y-73235771D02*
X59804761Y-73331009D01*
X59804761Y-73331009D02*
X59804761Y-73854819D01*
X53126666Y-87114819D02*
X53459999Y-86638628D01*
X53698094Y-87114819D02*
X53698094Y-86114819D01*
X53698094Y-86114819D02*
X53317142Y-86114819D01*
X53317142Y-86114819D02*
X53221904Y-86162438D01*
X53221904Y-86162438D02*
X53174285Y-86210057D01*
X53174285Y-86210057D02*
X53126666Y-86305295D01*
X53126666Y-86305295D02*
X53126666Y-86448152D01*
X53126666Y-86448152D02*
X53174285Y-86543390D01*
X53174285Y-86543390D02*
X53221904Y-86591009D01*
X53221904Y-86591009D02*
X53317142Y-86638628D01*
X53317142Y-86638628D02*
X53698094Y-86638628D01*
X52793332Y-86114819D02*
X52126666Y-87114819D01*
X52126666Y-86114819D02*
X52793332Y-87114819D01*
X51745713Y-87114819D02*
X51745713Y-86114819D01*
X51745713Y-86114819D02*
X51507618Y-86114819D01*
X51507618Y-86114819D02*
X51364761Y-86162438D01*
X51364761Y-86162438D02*
X51269523Y-86257676D01*
X51269523Y-86257676D02*
X51221904Y-86352914D01*
X51221904Y-86352914D02*
X51174285Y-86543390D01*
X51174285Y-86543390D02*
X51174285Y-86686247D01*
X51174285Y-86686247D02*
X51221904Y-86876723D01*
X51221904Y-86876723D02*
X51269523Y-86971961D01*
X51269523Y-86971961D02*
X51364761Y-87067200D01*
X51364761Y-87067200D02*
X51507618Y-87114819D01*
X51507618Y-87114819D02*
X51745713Y-87114819D01*
D14*
X80662707Y-66429457D02*
X80362707Y-67329457D01*
X80362707Y-67329457D02*
X80062707Y-66429457D01*
X79805564Y-67286600D02*
X79676993Y-67329457D01*
X79676993Y-67329457D02*
X79462707Y-67329457D01*
X79462707Y-67329457D02*
X79376993Y-67286600D01*
X79376993Y-67286600D02*
X79334135Y-67243742D01*
X79334135Y-67243742D02*
X79291278Y-67158028D01*
X79291278Y-67158028D02*
X79291278Y-67072314D01*
X79291278Y-67072314D02*
X79334135Y-66986600D01*
X79334135Y-66986600D02*
X79376993Y-66943742D01*
X79376993Y-66943742D02*
X79462707Y-66900885D01*
X79462707Y-66900885D02*
X79634135Y-66858028D01*
X79634135Y-66858028D02*
X79719850Y-66815171D01*
X79719850Y-66815171D02*
X79762707Y-66772314D01*
X79762707Y-66772314D02*
X79805564Y-66686600D01*
X79805564Y-66686600D02*
X79805564Y-66600885D01*
X79805564Y-66600885D02*
X79762707Y-66515171D01*
X79762707Y-66515171D02*
X79719850Y-66472314D01*
X79719850Y-66472314D02*
X79634135Y-66429457D01*
X79634135Y-66429457D02*
X79419850Y-66429457D01*
X79419850Y-66429457D02*
X79291278Y-66472314D01*
X78991278Y-66429457D02*
X78776992Y-67329457D01*
X78776992Y-67329457D02*
X78605564Y-66686600D01*
X78605564Y-66686600D02*
X78434135Y-67329457D01*
X78434135Y-67329457D02*
X78219850Y-66429457D01*
D12*
X57264190Y-112656190D02*
X57264190Y-112989523D01*
X56740380Y-112989523D02*
X57740380Y-112989523D01*
X57740380Y-112989523D02*
X57740380Y-112513333D01*
X57121333Y-112132380D02*
X57121333Y-111370476D01*
X56740380Y-111751428D02*
X57502285Y-111751428D01*
D10*
X54751009Y-62086666D02*
X54751009Y-62419999D01*
X55274819Y-62562856D02*
X55274819Y-62086666D01*
X55274819Y-62086666D02*
X54274819Y-62086666D01*
X54274819Y-62086666D02*
X54274819Y-62562856D01*
X55274819Y-62896190D02*
X54608152Y-63419999D01*
X54608152Y-62896190D02*
X55274819Y-63419999D01*
X54608152Y-63658095D02*
X54608152Y-64039047D01*
X54274819Y-63800952D02*
X55131961Y-63800952D01*
X55131961Y-63800952D02*
X55227200Y-63848571D01*
X55227200Y-63848571D02*
X55274819Y-63943809D01*
X55274819Y-63943809D02*
X55274819Y-64039047D01*
X54751009Y-65467619D02*
X54751009Y-65134286D01*
X55274819Y-65134286D02*
X54274819Y-65134286D01*
X54274819Y-65134286D02*
X54274819Y-65610476D01*
X55274819Y-66420000D02*
X54751009Y-66420000D01*
X54751009Y-66420000D02*
X54655771Y-66372381D01*
X54655771Y-66372381D02*
X54608152Y-66277143D01*
X54608152Y-66277143D02*
X54608152Y-66086667D01*
X54608152Y-66086667D02*
X54655771Y-65991429D01*
X55227200Y-66420000D02*
X55274819Y-66324762D01*
X55274819Y-66324762D02*
X55274819Y-66086667D01*
X55274819Y-66086667D02*
X55227200Y-65991429D01*
X55227200Y-65991429D02*
X55131961Y-65943810D01*
X55131961Y-65943810D02*
X55036723Y-65943810D01*
X55036723Y-65943810D02*
X54941485Y-65991429D01*
X54941485Y-65991429D02*
X54893866Y-66086667D01*
X54893866Y-66086667D02*
X54893866Y-66324762D01*
X54893866Y-66324762D02*
X54846247Y-66420000D01*
X54608152Y-66896191D02*
X55274819Y-66896191D01*
X54703390Y-66896191D02*
X54655771Y-66943810D01*
X54655771Y-66943810D02*
X54608152Y-67039048D01*
X54608152Y-67039048D02*
X54608152Y-67181905D01*
X54608152Y-67181905D02*
X54655771Y-67277143D01*
X54655771Y-67277143D02*
X54751009Y-67324762D01*
X54751009Y-67324762D02*
X55274819Y-67324762D01*
X55274819Y-68562858D02*
X54274819Y-68562858D01*
X54274819Y-68562858D02*
X54274819Y-68943810D01*
X54274819Y-68943810D02*
X54322438Y-69039048D01*
X54322438Y-69039048D02*
X54370057Y-69086667D01*
X54370057Y-69086667D02*
X54465295Y-69134286D01*
X54465295Y-69134286D02*
X54608152Y-69134286D01*
X54608152Y-69134286D02*
X54703390Y-69086667D01*
X54703390Y-69086667D02*
X54751009Y-69039048D01*
X54751009Y-69039048D02*
X54798628Y-68943810D01*
X54798628Y-68943810D02*
X54798628Y-68562858D01*
X54608152Y-69467620D02*
X55274819Y-69658096D01*
X55274819Y-69658096D02*
X54798628Y-69848572D01*
X54798628Y-69848572D02*
X55274819Y-70039048D01*
X55274819Y-70039048D02*
X54608152Y-70229524D01*
X55274819Y-70610477D02*
X54608152Y-70610477D01*
X54798628Y-70610477D02*
X54703390Y-70658096D01*
X54703390Y-70658096D02*
X54655771Y-70705715D01*
X54655771Y-70705715D02*
X54608152Y-70800953D01*
X54608152Y-70800953D02*
X54608152Y-70896191D01*
D12*
X112589999Y-109913428D02*
X112589999Y-110389619D01*
X112923332Y-109389619D02*
X112589999Y-109913428D01*
X112589999Y-109913428D02*
X112256666Y-109389619D01*
D10*
X67145714Y-86322295D02*
X66688571Y-86322295D01*
X66917143Y-87122295D02*
X66917143Y-86322295D01*
X66421904Y-87122295D02*
X66421904Y-86322295D01*
X66421904Y-86322295D02*
X66155238Y-86893723D01*
X66155238Y-86893723D02*
X65888571Y-86322295D01*
X65888571Y-86322295D02*
X65888571Y-87122295D01*
D14*
X76692707Y-66382314D02*
X76778422Y-66339457D01*
X76778422Y-66339457D02*
X76906993Y-66339457D01*
X76906993Y-66339457D02*
X77035564Y-66382314D01*
X77035564Y-66382314D02*
X77121279Y-66468028D01*
X77121279Y-66468028D02*
X77164136Y-66553742D01*
X77164136Y-66553742D02*
X77206993Y-66725171D01*
X77206993Y-66725171D02*
X77206993Y-66853742D01*
X77206993Y-66853742D02*
X77164136Y-67025171D01*
X77164136Y-67025171D02*
X77121279Y-67110885D01*
X77121279Y-67110885D02*
X77035564Y-67196600D01*
X77035564Y-67196600D02*
X76906993Y-67239457D01*
X76906993Y-67239457D02*
X76821279Y-67239457D01*
X76821279Y-67239457D02*
X76692707Y-67196600D01*
X76692707Y-67196600D02*
X76649850Y-67153742D01*
X76649850Y-67153742D02*
X76649850Y-66853742D01*
X76649850Y-66853742D02*
X76821279Y-66853742D01*
X76264136Y-67239457D02*
X76264136Y-66339457D01*
X76264136Y-66339457D02*
X75749850Y-67239457D01*
X75749850Y-67239457D02*
X75749850Y-66339457D01*
X75321279Y-67239457D02*
X75321279Y-66339457D01*
X75321279Y-66339457D02*
X75106993Y-66339457D01*
X75106993Y-66339457D02*
X74978422Y-66382314D01*
X74978422Y-66382314D02*
X74892707Y-66468028D01*
X74892707Y-66468028D02*
X74849850Y-66553742D01*
X74849850Y-66553742D02*
X74806993Y-66725171D01*
X74806993Y-66725171D02*
X74806993Y-66853742D01*
X74806993Y-66853742D02*
X74849850Y-67025171D01*
X74849850Y-67025171D02*
X74892707Y-67110885D01*
X74892707Y-67110885D02*
X74978422Y-67196600D01*
X74978422Y-67196600D02*
X75106993Y-67239457D01*
X75106993Y-67239457D02*
X75321279Y-67239457D01*
D12*
X51994785Y-112616190D02*
X51994785Y-112949523D01*
X51209071Y-112949523D02*
X52709071Y-112949523D01*
X52709071Y-112949523D02*
X52709071Y-112473333D01*
X51780500Y-112092380D02*
X51780500Y-111330476D01*
D10*
X52911904Y-94722438D02*
X53007142Y-94674819D01*
X53007142Y-94674819D02*
X53149999Y-94674819D01*
X53149999Y-94674819D02*
X53292856Y-94722438D01*
X53292856Y-94722438D02*
X53388094Y-94817676D01*
X53388094Y-94817676D02*
X53435713Y-94912914D01*
X53435713Y-94912914D02*
X53483332Y-95103390D01*
X53483332Y-95103390D02*
X53483332Y-95246247D01*
X53483332Y-95246247D02*
X53435713Y-95436723D01*
X53435713Y-95436723D02*
X53388094Y-95531961D01*
X53388094Y-95531961D02*
X53292856Y-95627200D01*
X53292856Y-95627200D02*
X53149999Y-95674819D01*
X53149999Y-95674819D02*
X53054761Y-95674819D01*
X53054761Y-95674819D02*
X52911904Y-95627200D01*
X52911904Y-95627200D02*
X52864285Y-95579580D01*
X52864285Y-95579580D02*
X52864285Y-95246247D01*
X52864285Y-95246247D02*
X53054761Y-95246247D01*
X52435713Y-95674819D02*
X52435713Y-94674819D01*
X52435713Y-94674819D02*
X51864285Y-95674819D01*
X51864285Y-95674819D02*
X51864285Y-94674819D01*
X51388094Y-95674819D02*
X51388094Y-94674819D01*
X51388094Y-94674819D02*
X51149999Y-94674819D01*
X51149999Y-94674819D02*
X51007142Y-94722438D01*
X51007142Y-94722438D02*
X50911904Y-94817676D01*
X50911904Y-94817676D02*
X50864285Y-94912914D01*
X50864285Y-94912914D02*
X50816666Y-95103390D01*
X50816666Y-95103390D02*
X50816666Y-95246247D01*
X50816666Y-95246247D02*
X50864285Y-95436723D01*
X50864285Y-95436723D02*
X50911904Y-95531961D01*
X50911904Y-95531961D02*
X51007142Y-95627200D01*
X51007142Y-95627200D02*
X51149999Y-95674819D01*
X51149999Y-95674819D02*
X51388094Y-95674819D01*
D12*
X112419999Y-114053428D02*
X112419999Y-114529619D01*
X112753332Y-113529619D02*
X112419999Y-114053428D01*
X112419999Y-114053428D02*
X112086666Y-113529619D01*
D10*
X57123333Y-76162295D02*
X57123333Y-75362295D01*
X57123333Y-75362295D02*
X56932857Y-75362295D01*
X56932857Y-75362295D02*
X56818571Y-75400390D01*
X56818571Y-75400390D02*
X56742381Y-75476580D01*
X56742381Y-75476580D02*
X56704286Y-75552771D01*
X56704286Y-75552771D02*
X56666190Y-75705152D01*
X56666190Y-75705152D02*
X56666190Y-75819438D01*
X56666190Y-75819438D02*
X56704286Y-75971819D01*
X56704286Y-75971819D02*
X56742381Y-76048009D01*
X56742381Y-76048009D02*
X56818571Y-76124200D01*
X56818571Y-76124200D02*
X56932857Y-76162295D01*
X56932857Y-76162295D02*
X57123333Y-76162295D01*
X55980476Y-76162295D02*
X55980476Y-75743247D01*
X55980476Y-75743247D02*
X56018571Y-75667057D01*
X56018571Y-75667057D02*
X56094762Y-75628961D01*
X56094762Y-75628961D02*
X56247143Y-75628961D01*
X56247143Y-75628961D02*
X56323333Y-75667057D01*
X55980476Y-76124200D02*
X56056667Y-76162295D01*
X56056667Y-76162295D02*
X56247143Y-76162295D01*
X56247143Y-76162295D02*
X56323333Y-76124200D01*
X56323333Y-76124200D02*
X56361429Y-76048009D01*
X56361429Y-76048009D02*
X56361429Y-75971819D01*
X56361429Y-75971819D02*
X56323333Y-75895628D01*
X56323333Y-75895628D02*
X56247143Y-75857533D01*
X56247143Y-75857533D02*
X56056667Y-75857533D01*
X56056667Y-75857533D02*
X55980476Y-75819438D01*
X55599523Y-76162295D02*
X55599523Y-75362295D01*
X55256666Y-76162295D02*
X55256666Y-75743247D01*
X55256666Y-75743247D02*
X55294761Y-75667057D01*
X55294761Y-75667057D02*
X55370952Y-75628961D01*
X55370952Y-75628961D02*
X55485238Y-75628961D01*
X55485238Y-75628961D02*
X55561428Y-75667057D01*
X55561428Y-75667057D02*
X55599523Y-75705152D01*
X81541429Y-112466037D02*
X81398572Y-112513656D01*
X81398572Y-112513656D02*
X81350953Y-112561275D01*
X81350953Y-112561275D02*
X81303334Y-112656513D01*
X81303334Y-112656513D02*
X81303334Y-112799370D01*
X81303334Y-112799370D02*
X81350953Y-112894608D01*
X81350953Y-112894608D02*
X81398572Y-112942228D01*
X81398572Y-112942228D02*
X81493810Y-112989847D01*
X81493810Y-112989847D02*
X81874762Y-112989847D01*
X81874762Y-112989847D02*
X81874762Y-111989847D01*
X81874762Y-111989847D02*
X81541429Y-111989847D01*
X81541429Y-111989847D02*
X81446191Y-112037466D01*
X81446191Y-112037466D02*
X81398572Y-112085085D01*
X81398572Y-112085085D02*
X81350953Y-112180323D01*
X81350953Y-112180323D02*
X81350953Y-112275561D01*
X81350953Y-112275561D02*
X81398572Y-112370799D01*
X81398572Y-112370799D02*
X81446191Y-112418418D01*
X81446191Y-112418418D02*
X81541429Y-112466037D01*
X81541429Y-112466037D02*
X81874762Y-112466037D01*
X80446191Y-112989847D02*
X80446191Y-112466037D01*
X80446191Y-112466037D02*
X80493810Y-112370799D01*
X80493810Y-112370799D02*
X80589048Y-112323180D01*
X80589048Y-112323180D02*
X80779524Y-112323180D01*
X80779524Y-112323180D02*
X80874762Y-112370799D01*
X80446191Y-112942228D02*
X80541429Y-112989847D01*
X80541429Y-112989847D02*
X80779524Y-112989847D01*
X80779524Y-112989847D02*
X80874762Y-112942228D01*
X80874762Y-112942228D02*
X80922381Y-112846989D01*
X80922381Y-112846989D02*
X80922381Y-112751751D01*
X80922381Y-112751751D02*
X80874762Y-112656513D01*
X80874762Y-112656513D02*
X80779524Y-112608894D01*
X80779524Y-112608894D02*
X80541429Y-112608894D01*
X80541429Y-112608894D02*
X80446191Y-112561275D01*
X80112857Y-112323180D02*
X79731905Y-112323180D01*
X79970000Y-111989847D02*
X79970000Y-112846989D01*
X79970000Y-112846989D02*
X79922381Y-112942228D01*
X79922381Y-112942228D02*
X79827143Y-112989847D01*
X79827143Y-112989847D02*
X79731905Y-112989847D01*
X79541428Y-112323180D02*
X79160476Y-112323180D01*
X79398571Y-111989847D02*
X79398571Y-112846989D01*
X79398571Y-112846989D02*
X79350952Y-112942228D01*
X79350952Y-112942228D02*
X79255714Y-112989847D01*
X79255714Y-112989847D02*
X79160476Y-112989847D01*
X78446190Y-112942228D02*
X78541428Y-112989847D01*
X78541428Y-112989847D02*
X78731904Y-112989847D01*
X78731904Y-112989847D02*
X78827142Y-112942228D01*
X78827142Y-112942228D02*
X78874761Y-112846989D01*
X78874761Y-112846989D02*
X78874761Y-112466037D01*
X78874761Y-112466037D02*
X78827142Y-112370799D01*
X78827142Y-112370799D02*
X78731904Y-112323180D01*
X78731904Y-112323180D02*
X78541428Y-112323180D01*
X78541428Y-112323180D02*
X78446190Y-112370799D01*
X78446190Y-112370799D02*
X78398571Y-112466037D01*
X78398571Y-112466037D02*
X78398571Y-112561275D01*
X78398571Y-112561275D02*
X78874761Y-112656513D01*
X77969999Y-112989847D02*
X77969999Y-112323180D01*
X77969999Y-112513656D02*
X77922380Y-112418418D01*
X77922380Y-112418418D02*
X77874761Y-112370799D01*
X77874761Y-112370799D02*
X77779523Y-112323180D01*
X77779523Y-112323180D02*
X77684285Y-112323180D01*
X77446189Y-112323180D02*
X77208094Y-112989847D01*
X76969999Y-112323180D02*
X77208094Y-112989847D01*
X77208094Y-112989847D02*
X77303332Y-113227942D01*
X77303332Y-113227942D02*
X77350951Y-113275561D01*
X77350951Y-113275561D02*
X77446189Y-113323180D01*
X81684285Y-114552172D02*
X81541428Y-114599791D01*
X81541428Y-114599791D02*
X81303333Y-114599791D01*
X81303333Y-114599791D02*
X81208095Y-114552172D01*
X81208095Y-114552172D02*
X81160476Y-114504552D01*
X81160476Y-114504552D02*
X81112857Y-114409314D01*
X81112857Y-114409314D02*
X81112857Y-114314076D01*
X81112857Y-114314076D02*
X81160476Y-114218838D01*
X81160476Y-114218838D02*
X81208095Y-114171219D01*
X81208095Y-114171219D02*
X81303333Y-114123600D01*
X81303333Y-114123600D02*
X81493809Y-114075981D01*
X81493809Y-114075981D02*
X81589047Y-114028362D01*
X81589047Y-114028362D02*
X81636666Y-113980743D01*
X81636666Y-113980743D02*
X81684285Y-113885505D01*
X81684285Y-113885505D02*
X81684285Y-113790267D01*
X81684285Y-113790267D02*
X81636666Y-113695029D01*
X81636666Y-113695029D02*
X81589047Y-113647410D01*
X81589047Y-113647410D02*
X81493809Y-113599791D01*
X81493809Y-113599791D02*
X81255714Y-113599791D01*
X81255714Y-113599791D02*
X81112857Y-113647410D01*
X80779523Y-113933124D02*
X80589047Y-114599791D01*
X80589047Y-114599791D02*
X80398571Y-114123600D01*
X80398571Y-114123600D02*
X80208095Y-114599791D01*
X80208095Y-114599791D02*
X80017619Y-113933124D01*
X79636666Y-114599791D02*
X79636666Y-113933124D01*
X79636666Y-113599791D02*
X79684285Y-113647410D01*
X79684285Y-113647410D02*
X79636666Y-113695029D01*
X79636666Y-113695029D02*
X79589047Y-113647410D01*
X79589047Y-113647410D02*
X79636666Y-113599791D01*
X79636666Y-113599791D02*
X79636666Y-113695029D01*
X79303333Y-113933124D02*
X78922381Y-113933124D01*
X79160476Y-113599791D02*
X79160476Y-114456933D01*
X79160476Y-114456933D02*
X79112857Y-114552172D01*
X79112857Y-114552172D02*
X79017619Y-114599791D01*
X79017619Y-114599791D02*
X78922381Y-114599791D01*
X78160476Y-114552172D02*
X78255714Y-114599791D01*
X78255714Y-114599791D02*
X78446190Y-114599791D01*
X78446190Y-114599791D02*
X78541428Y-114552172D01*
X78541428Y-114552172D02*
X78589047Y-114504552D01*
X78589047Y-114504552D02*
X78636666Y-114409314D01*
X78636666Y-114409314D02*
X78636666Y-114123600D01*
X78636666Y-114123600D02*
X78589047Y-114028362D01*
X78589047Y-114028362D02*
X78541428Y-113980743D01*
X78541428Y-113980743D02*
X78446190Y-113933124D01*
X78446190Y-113933124D02*
X78255714Y-113933124D01*
X78255714Y-113933124D02*
X78160476Y-113980743D01*
X77731904Y-114599791D02*
X77731904Y-113599791D01*
X77303333Y-114599791D02*
X77303333Y-114075981D01*
X77303333Y-114075981D02*
X77350952Y-113980743D01*
X77350952Y-113980743D02*
X77446190Y-113933124D01*
X77446190Y-113933124D02*
X77589047Y-113933124D01*
X77589047Y-113933124D02*
X77684285Y-113980743D01*
X77684285Y-113980743D02*
X77731904Y-114028362D01*
D14*
X74074136Y-66916600D02*
X73388422Y-66916600D01*
X73731279Y-67259457D02*
X73731279Y-66573742D01*
X72659850Y-66788028D02*
X72531278Y-66830885D01*
X72531278Y-66830885D02*
X72488421Y-66873742D01*
X72488421Y-66873742D02*
X72445564Y-66959457D01*
X72445564Y-66959457D02*
X72445564Y-67088028D01*
X72445564Y-67088028D02*
X72488421Y-67173742D01*
X72488421Y-67173742D02*
X72531278Y-67216600D01*
X72531278Y-67216600D02*
X72616993Y-67259457D01*
X72616993Y-67259457D02*
X72959850Y-67259457D01*
X72959850Y-67259457D02*
X72959850Y-66359457D01*
X72959850Y-66359457D02*
X72659850Y-66359457D01*
X72659850Y-66359457D02*
X72574136Y-66402314D01*
X72574136Y-66402314D02*
X72531278Y-66445171D01*
X72531278Y-66445171D02*
X72488421Y-66530885D01*
X72488421Y-66530885D02*
X72488421Y-66616600D01*
X72488421Y-66616600D02*
X72531278Y-66702314D01*
X72531278Y-66702314D02*
X72574136Y-66745171D01*
X72574136Y-66745171D02*
X72659850Y-66788028D01*
X72659850Y-66788028D02*
X72959850Y-66788028D01*
X72102707Y-67002314D02*
X71674136Y-67002314D01*
X72188421Y-67259457D02*
X71888421Y-66359457D01*
X71888421Y-66359457D02*
X71588421Y-67259457D01*
X71416992Y-66359457D02*
X70902707Y-66359457D01*
X71159849Y-67259457D02*
X71159849Y-66359457D01*
D10*
X53040951Y-84184819D02*
X53040951Y-83184819D01*
X53040951Y-83184819D02*
X52802856Y-83184819D01*
X52802856Y-83184819D02*
X52659999Y-83232438D01*
X52659999Y-83232438D02*
X52564761Y-83327676D01*
X52564761Y-83327676D02*
X52517142Y-83422914D01*
X52517142Y-83422914D02*
X52469523Y-83613390D01*
X52469523Y-83613390D02*
X52469523Y-83756247D01*
X52469523Y-83756247D02*
X52517142Y-83946723D01*
X52517142Y-83946723D02*
X52564761Y-84041961D01*
X52564761Y-84041961D02*
X52659999Y-84137200D01*
X52659999Y-84137200D02*
X52802856Y-84184819D01*
X52802856Y-84184819D02*
X53040951Y-84184819D01*
X52040951Y-84184819D02*
X52040951Y-83184819D01*
X51707618Y-83184819D02*
X51136190Y-83184819D01*
X51421904Y-84184819D02*
X51421904Y-83184819D01*
X100616666Y-115134819D02*
X100616666Y-114134819D01*
X100188095Y-114230057D02*
X100140476Y-114182438D01*
X100140476Y-114182438D02*
X100045238Y-114134819D01*
X100045238Y-114134819D02*
X99807143Y-114134819D01*
X99807143Y-114134819D02*
X99711905Y-114182438D01*
X99711905Y-114182438D02*
X99664286Y-114230057D01*
X99664286Y-114230057D02*
X99616667Y-114325295D01*
X99616667Y-114325295D02*
X99616667Y-114420533D01*
X99616667Y-114420533D02*
X99664286Y-114563390D01*
X99664286Y-114563390D02*
X100235714Y-115134819D01*
X100235714Y-115134819D02*
X99616667Y-115134819D01*
X98616667Y-115039580D02*
X98664286Y-115087200D01*
X98664286Y-115087200D02*
X98807143Y-115134819D01*
X98807143Y-115134819D02*
X98902381Y-115134819D01*
X98902381Y-115134819D02*
X99045238Y-115087200D01*
X99045238Y-115087200D02*
X99140476Y-114991961D01*
X99140476Y-114991961D02*
X99188095Y-114896723D01*
X99188095Y-114896723D02*
X99235714Y-114706247D01*
X99235714Y-114706247D02*
X99235714Y-114563390D01*
X99235714Y-114563390D02*
X99188095Y-114372914D01*
X99188095Y-114372914D02*
X99140476Y-114277676D01*
X99140476Y-114277676D02*
X99045238Y-114182438D01*
X99045238Y-114182438D02*
X98902381Y-114134819D01*
X98902381Y-114134819D02*
X98807143Y-114134819D01*
X98807143Y-114134819D02*
X98664286Y-114182438D01*
X98664286Y-114182438D02*
X98616667Y-114230057D01*
X97569047Y-114134819D02*
X96997619Y-114134819D01*
X97283333Y-115134819D02*
X97283333Y-114134819D01*
X96283333Y-115087200D02*
X96378571Y-115134819D01*
X96378571Y-115134819D02*
X96569047Y-115134819D01*
X96569047Y-115134819D02*
X96664285Y-115087200D01*
X96664285Y-115087200D02*
X96711904Y-114991961D01*
X96711904Y-114991961D02*
X96711904Y-114611009D01*
X96711904Y-114611009D02*
X96664285Y-114515771D01*
X96664285Y-114515771D02*
X96569047Y-114468152D01*
X96569047Y-114468152D02*
X96378571Y-114468152D01*
X96378571Y-114468152D02*
X96283333Y-114515771D01*
X96283333Y-114515771D02*
X96235714Y-114611009D01*
X96235714Y-114611009D02*
X96235714Y-114706247D01*
X96235714Y-114706247D02*
X96711904Y-114801485D01*
X95854761Y-115087200D02*
X95759523Y-115134819D01*
X95759523Y-115134819D02*
X95569047Y-115134819D01*
X95569047Y-115134819D02*
X95473809Y-115087200D01*
X95473809Y-115087200D02*
X95426190Y-114991961D01*
X95426190Y-114991961D02*
X95426190Y-114944342D01*
X95426190Y-114944342D02*
X95473809Y-114849104D01*
X95473809Y-114849104D02*
X95569047Y-114801485D01*
X95569047Y-114801485D02*
X95711904Y-114801485D01*
X95711904Y-114801485D02*
X95807142Y-114753866D01*
X95807142Y-114753866D02*
X95854761Y-114658628D01*
X95854761Y-114658628D02*
X95854761Y-114611009D01*
X95854761Y-114611009D02*
X95807142Y-114515771D01*
X95807142Y-114515771D02*
X95711904Y-114468152D01*
X95711904Y-114468152D02*
X95569047Y-114468152D01*
X95569047Y-114468152D02*
X95473809Y-114515771D01*
X95140475Y-114468152D02*
X94759523Y-114468152D01*
X94997618Y-114134819D02*
X94997618Y-114991961D01*
X94997618Y-114991961D02*
X94949999Y-115087200D01*
X94949999Y-115087200D02*
X94854761Y-115134819D01*
X94854761Y-115134819D02*
X94759523Y-115134819D01*
X93664284Y-115134819D02*
X93664284Y-114134819D01*
X93664284Y-114134819D02*
X93283332Y-114134819D01*
X93283332Y-114134819D02*
X93188094Y-114182438D01*
X93188094Y-114182438D02*
X93140475Y-114230057D01*
X93140475Y-114230057D02*
X93092856Y-114325295D01*
X93092856Y-114325295D02*
X93092856Y-114468152D01*
X93092856Y-114468152D02*
X93140475Y-114563390D01*
X93140475Y-114563390D02*
X93188094Y-114611009D01*
X93188094Y-114611009D02*
X93283332Y-114658628D01*
X93283332Y-114658628D02*
X93664284Y-114658628D01*
X92521427Y-115134819D02*
X92616665Y-115087200D01*
X92616665Y-115087200D02*
X92664284Y-115039580D01*
X92664284Y-115039580D02*
X92711903Y-114944342D01*
X92711903Y-114944342D02*
X92711903Y-114658628D01*
X92711903Y-114658628D02*
X92664284Y-114563390D01*
X92664284Y-114563390D02*
X92616665Y-114515771D01*
X92616665Y-114515771D02*
X92521427Y-114468152D01*
X92521427Y-114468152D02*
X92378570Y-114468152D01*
X92378570Y-114468152D02*
X92283332Y-114515771D01*
X92283332Y-114515771D02*
X92235713Y-114563390D01*
X92235713Y-114563390D02*
X92188094Y-114658628D01*
X92188094Y-114658628D02*
X92188094Y-114944342D01*
X92188094Y-114944342D02*
X92235713Y-115039580D01*
X92235713Y-115039580D02*
X92283332Y-115087200D01*
X92283332Y-115087200D02*
X92378570Y-115134819D01*
X92378570Y-115134819D02*
X92521427Y-115134819D01*
X91759522Y-115134819D02*
X91759522Y-114468152D01*
X91759522Y-114134819D02*
X91807141Y-114182438D01*
X91807141Y-114182438D02*
X91759522Y-114230057D01*
X91759522Y-114230057D02*
X91711903Y-114182438D01*
X91711903Y-114182438D02*
X91759522Y-114134819D01*
X91759522Y-114134819D02*
X91759522Y-114230057D01*
X91283332Y-114468152D02*
X91283332Y-115134819D01*
X91283332Y-114563390D02*
X91235713Y-114515771D01*
X91235713Y-114515771D02*
X91140475Y-114468152D01*
X91140475Y-114468152D02*
X90997618Y-114468152D01*
X90997618Y-114468152D02*
X90902380Y-114515771D01*
X90902380Y-114515771D02*
X90854761Y-114611009D01*
X90854761Y-114611009D02*
X90854761Y-115134819D01*
X90521427Y-114468152D02*
X90140475Y-114468152D01*
X90378570Y-114134819D02*
X90378570Y-114991961D01*
X90378570Y-114991961D02*
X90330951Y-115087200D01*
X90330951Y-115087200D02*
X90235713Y-115134819D01*
X90235713Y-115134819D02*
X90140475Y-115134819D01*
X76901904Y-87717256D02*
X76759047Y-87764875D01*
X76759047Y-87764875D02*
X76520952Y-87764875D01*
X76520952Y-87764875D02*
X76425714Y-87717256D01*
X76425714Y-87717256D02*
X76378095Y-87669636D01*
X76378095Y-87669636D02*
X76330476Y-87574398D01*
X76330476Y-87574398D02*
X76330476Y-87479160D01*
X76330476Y-87479160D02*
X76378095Y-87383922D01*
X76378095Y-87383922D02*
X76425714Y-87336303D01*
X76425714Y-87336303D02*
X76520952Y-87288684D01*
X76520952Y-87288684D02*
X76711428Y-87241065D01*
X76711428Y-87241065D02*
X76806666Y-87193446D01*
X76806666Y-87193446D02*
X76854285Y-87145827D01*
X76854285Y-87145827D02*
X76901904Y-87050589D01*
X76901904Y-87050589D02*
X76901904Y-86955351D01*
X76901904Y-86955351D02*
X76854285Y-86860113D01*
X76854285Y-86860113D02*
X76806666Y-86812494D01*
X76806666Y-86812494D02*
X76711428Y-86764875D01*
X76711428Y-86764875D02*
X76473333Y-86764875D01*
X76473333Y-86764875D02*
X76330476Y-86812494D01*
X75901904Y-87764875D02*
X75901904Y-87098208D01*
X75901904Y-86764875D02*
X75949523Y-86812494D01*
X75949523Y-86812494D02*
X75901904Y-86860113D01*
X75901904Y-86860113D02*
X75854285Y-86812494D01*
X75854285Y-86812494D02*
X75901904Y-86764875D01*
X75901904Y-86764875D02*
X75901904Y-86860113D01*
X74997143Y-87098208D02*
X74997143Y-87907732D01*
X74997143Y-87907732D02*
X75044762Y-88002970D01*
X75044762Y-88002970D02*
X75092381Y-88050589D01*
X75092381Y-88050589D02*
X75187619Y-88098208D01*
X75187619Y-88098208D02*
X75330476Y-88098208D01*
X75330476Y-88098208D02*
X75425714Y-88050589D01*
X74997143Y-87717256D02*
X75092381Y-87764875D01*
X75092381Y-87764875D02*
X75282857Y-87764875D01*
X75282857Y-87764875D02*
X75378095Y-87717256D01*
X75378095Y-87717256D02*
X75425714Y-87669636D01*
X75425714Y-87669636D02*
X75473333Y-87574398D01*
X75473333Y-87574398D02*
X75473333Y-87288684D01*
X75473333Y-87288684D02*
X75425714Y-87193446D01*
X75425714Y-87193446D02*
X75378095Y-87145827D01*
X75378095Y-87145827D02*
X75282857Y-87098208D01*
X75282857Y-87098208D02*
X75092381Y-87098208D01*
X75092381Y-87098208D02*
X74997143Y-87145827D01*
X74520952Y-87098208D02*
X74520952Y-87764875D01*
X74520952Y-87193446D02*
X74473333Y-87145827D01*
X74473333Y-87145827D02*
X74378095Y-87098208D01*
X74378095Y-87098208D02*
X74235238Y-87098208D01*
X74235238Y-87098208D02*
X74140000Y-87145827D01*
X74140000Y-87145827D02*
X74092381Y-87241065D01*
X74092381Y-87241065D02*
X74092381Y-87764875D01*
X73187619Y-87764875D02*
X73187619Y-87241065D01*
X73187619Y-87241065D02*
X73235238Y-87145827D01*
X73235238Y-87145827D02*
X73330476Y-87098208D01*
X73330476Y-87098208D02*
X73520952Y-87098208D01*
X73520952Y-87098208D02*
X73616190Y-87145827D01*
X73187619Y-87717256D02*
X73282857Y-87764875D01*
X73282857Y-87764875D02*
X73520952Y-87764875D01*
X73520952Y-87764875D02*
X73616190Y-87717256D01*
X73616190Y-87717256D02*
X73663809Y-87622017D01*
X73663809Y-87622017D02*
X73663809Y-87526779D01*
X73663809Y-87526779D02*
X73616190Y-87431541D01*
X73616190Y-87431541D02*
X73520952Y-87383922D01*
X73520952Y-87383922D02*
X73282857Y-87383922D01*
X73282857Y-87383922D02*
X73187619Y-87336303D01*
X72568571Y-87764875D02*
X72663809Y-87717256D01*
X72663809Y-87717256D02*
X72711428Y-87622017D01*
X72711428Y-87622017D02*
X72711428Y-86764875D01*
X72235237Y-87717256D02*
X72092380Y-87764875D01*
X72092380Y-87764875D02*
X71854285Y-87764875D01*
X71854285Y-87764875D02*
X71759047Y-87717256D01*
X71759047Y-87717256D02*
X71711428Y-87669636D01*
X71711428Y-87669636D02*
X71663809Y-87574398D01*
X71663809Y-87574398D02*
X71663809Y-87479160D01*
X71663809Y-87479160D02*
X71711428Y-87383922D01*
X71711428Y-87383922D02*
X71759047Y-87336303D01*
X71759047Y-87336303D02*
X71854285Y-87288684D01*
X71854285Y-87288684D02*
X72044761Y-87241065D01*
X72044761Y-87241065D02*
X72139999Y-87193446D01*
X72139999Y-87193446D02*
X72187618Y-87145827D01*
X72187618Y-87145827D02*
X72235237Y-87050589D01*
X72235237Y-87050589D02*
X72235237Y-86955351D01*
X72235237Y-86955351D02*
X72187618Y-86860113D01*
X72187618Y-86860113D02*
X72139999Y-86812494D01*
X72139999Y-86812494D02*
X72044761Y-86764875D01*
X72044761Y-86764875D02*
X71806666Y-86764875D01*
X71806666Y-86764875D02*
X71663809Y-86812494D01*
X71092380Y-87764875D02*
X71187618Y-87717256D01*
X71187618Y-87717256D02*
X71235237Y-87622017D01*
X71235237Y-87622017D02*
X71235237Y-86764875D01*
X70711427Y-87764875D02*
X70711427Y-87098208D01*
X70711427Y-86764875D02*
X70759046Y-86812494D01*
X70759046Y-86812494D02*
X70711427Y-86860113D01*
X70711427Y-86860113D02*
X70663808Y-86812494D01*
X70663808Y-86812494D02*
X70711427Y-86764875D01*
X70711427Y-86764875D02*
X70711427Y-86860113D01*
X70235237Y-87098208D02*
X70235237Y-87764875D01*
X70235237Y-87193446D02*
X70187618Y-87145827D01*
X70187618Y-87145827D02*
X70092380Y-87098208D01*
X70092380Y-87098208D02*
X69949523Y-87098208D01*
X69949523Y-87098208D02*
X69854285Y-87145827D01*
X69854285Y-87145827D02*
X69806666Y-87241065D01*
X69806666Y-87241065D02*
X69806666Y-87764875D01*
X68901904Y-87098208D02*
X68901904Y-87907732D01*
X68901904Y-87907732D02*
X68949523Y-88002970D01*
X68949523Y-88002970D02*
X68997142Y-88050589D01*
X68997142Y-88050589D02*
X69092380Y-88098208D01*
X69092380Y-88098208D02*
X69235237Y-88098208D01*
X69235237Y-88098208D02*
X69330475Y-88050589D01*
X68901904Y-87717256D02*
X68997142Y-87764875D01*
X68997142Y-87764875D02*
X69187618Y-87764875D01*
X69187618Y-87764875D02*
X69282856Y-87717256D01*
X69282856Y-87717256D02*
X69330475Y-87669636D01*
X69330475Y-87669636D02*
X69378094Y-87574398D01*
X69378094Y-87574398D02*
X69378094Y-87288684D01*
X69378094Y-87288684D02*
X69330475Y-87193446D01*
X69330475Y-87193446D02*
X69282856Y-87145827D01*
X69282856Y-87145827D02*
X69187618Y-87098208D01*
X69187618Y-87098208D02*
X68997142Y-87098208D01*
X68997142Y-87098208D02*
X68901904Y-87145827D01*
X68044761Y-87717256D02*
X68139999Y-87764875D01*
X68139999Y-87764875D02*
X68330475Y-87764875D01*
X68330475Y-87764875D02*
X68425713Y-87717256D01*
X68425713Y-87717256D02*
X68473332Y-87622017D01*
X68473332Y-87622017D02*
X68473332Y-87241065D01*
X68473332Y-87241065D02*
X68425713Y-87145827D01*
X68425713Y-87145827D02*
X68330475Y-87098208D01*
X68330475Y-87098208D02*
X68139999Y-87098208D01*
X68139999Y-87098208D02*
X68044761Y-87145827D01*
X68044761Y-87145827D02*
X67997142Y-87241065D01*
X67997142Y-87241065D02*
X67997142Y-87336303D01*
X67997142Y-87336303D02*
X68473332Y-87431541D01*
X67568570Y-87764875D02*
X67568570Y-87098208D01*
X67568570Y-87288684D02*
X67520951Y-87193446D01*
X67520951Y-87193446D02*
X67473332Y-87145827D01*
X67473332Y-87145827D02*
X67378094Y-87098208D01*
X67378094Y-87098208D02*
X67282856Y-87098208D01*
X83259048Y-88803390D02*
X83354286Y-88755771D01*
X83354286Y-88755771D02*
X83401905Y-88708152D01*
X83401905Y-88708152D02*
X83449524Y-88612914D01*
X83449524Y-88612914D02*
X83449524Y-88565295D01*
X83449524Y-88565295D02*
X83401905Y-88470057D01*
X83401905Y-88470057D02*
X83354286Y-88422438D01*
X83354286Y-88422438D02*
X83259048Y-88374819D01*
X83259048Y-88374819D02*
X83068572Y-88374819D01*
X83068572Y-88374819D02*
X82973334Y-88422438D01*
X82973334Y-88422438D02*
X82925715Y-88470057D01*
X82925715Y-88470057D02*
X82878096Y-88565295D01*
X82878096Y-88565295D02*
X82878096Y-88612914D01*
X82878096Y-88612914D02*
X82925715Y-88708152D01*
X82925715Y-88708152D02*
X82973334Y-88755771D01*
X82973334Y-88755771D02*
X83068572Y-88803390D01*
X83068572Y-88803390D02*
X83259048Y-88803390D01*
X83259048Y-88803390D02*
X83354286Y-88851009D01*
X83354286Y-88851009D02*
X83401905Y-88898628D01*
X83401905Y-88898628D02*
X83449524Y-88993866D01*
X83449524Y-88993866D02*
X83449524Y-89184342D01*
X83449524Y-89184342D02*
X83401905Y-89279580D01*
X83401905Y-89279580D02*
X83354286Y-89327200D01*
X83354286Y-89327200D02*
X83259048Y-89374819D01*
X83259048Y-89374819D02*
X83068572Y-89374819D01*
X83068572Y-89374819D02*
X82973334Y-89327200D01*
X82973334Y-89327200D02*
X82925715Y-89279580D01*
X82925715Y-89279580D02*
X82878096Y-89184342D01*
X82878096Y-89184342D02*
X82878096Y-88993866D01*
X82878096Y-88993866D02*
X82925715Y-88898628D01*
X82925715Y-88898628D02*
X82973334Y-88851009D01*
X82973334Y-88851009D02*
X83068572Y-88803390D01*
X82259048Y-88374819D02*
X82163810Y-88374819D01*
X82163810Y-88374819D02*
X82068572Y-88422438D01*
X82068572Y-88422438D02*
X82020953Y-88470057D01*
X82020953Y-88470057D02*
X81973334Y-88565295D01*
X81973334Y-88565295D02*
X81925715Y-88755771D01*
X81925715Y-88755771D02*
X81925715Y-88993866D01*
X81925715Y-88993866D02*
X81973334Y-89184342D01*
X81973334Y-89184342D02*
X82020953Y-89279580D01*
X82020953Y-89279580D02*
X82068572Y-89327200D01*
X82068572Y-89327200D02*
X82163810Y-89374819D01*
X82163810Y-89374819D02*
X82259048Y-89374819D01*
X82259048Y-89374819D02*
X82354286Y-89327200D01*
X82354286Y-89327200D02*
X82401905Y-89279580D01*
X82401905Y-89279580D02*
X82449524Y-89184342D01*
X82449524Y-89184342D02*
X82497143Y-88993866D01*
X82497143Y-88993866D02*
X82497143Y-88755771D01*
X82497143Y-88755771D02*
X82449524Y-88565295D01*
X82449524Y-88565295D02*
X82401905Y-88470057D01*
X82401905Y-88470057D02*
X82354286Y-88422438D01*
X82354286Y-88422438D02*
X82259048Y-88374819D01*
X81497143Y-89374819D02*
X81497143Y-88708152D01*
X81497143Y-88803390D02*
X81449524Y-88755771D01*
X81449524Y-88755771D02*
X81354286Y-88708152D01*
X81354286Y-88708152D02*
X81211429Y-88708152D01*
X81211429Y-88708152D02*
X81116191Y-88755771D01*
X81116191Y-88755771D02*
X81068572Y-88851009D01*
X81068572Y-88851009D02*
X81068572Y-89374819D01*
X81068572Y-88851009D02*
X81020953Y-88755771D01*
X81020953Y-88755771D02*
X80925715Y-88708152D01*
X80925715Y-88708152D02*
X80782858Y-88708152D01*
X80782858Y-88708152D02*
X80687619Y-88755771D01*
X80687619Y-88755771D02*
X80640000Y-88851009D01*
X80640000Y-88851009D02*
X80640000Y-89374819D01*
X78830477Y-89374819D02*
X79163810Y-88898628D01*
X79401905Y-89374819D02*
X79401905Y-88374819D01*
X79401905Y-88374819D02*
X79020953Y-88374819D01*
X79020953Y-88374819D02*
X78925715Y-88422438D01*
X78925715Y-88422438D02*
X78878096Y-88470057D01*
X78878096Y-88470057D02*
X78830477Y-88565295D01*
X78830477Y-88565295D02*
X78830477Y-88708152D01*
X78830477Y-88708152D02*
X78878096Y-88803390D01*
X78878096Y-88803390D02*
X78925715Y-88851009D01*
X78925715Y-88851009D02*
X79020953Y-88898628D01*
X79020953Y-88898628D02*
X79401905Y-88898628D01*
X77973334Y-89374819D02*
X77973334Y-88851009D01*
X77973334Y-88851009D02*
X78020953Y-88755771D01*
X78020953Y-88755771D02*
X78116191Y-88708152D01*
X78116191Y-88708152D02*
X78306667Y-88708152D01*
X78306667Y-88708152D02*
X78401905Y-88755771D01*
X77973334Y-89327200D02*
X78068572Y-89374819D01*
X78068572Y-89374819D02*
X78306667Y-89374819D01*
X78306667Y-89374819D02*
X78401905Y-89327200D01*
X78401905Y-89327200D02*
X78449524Y-89231961D01*
X78449524Y-89231961D02*
X78449524Y-89136723D01*
X78449524Y-89136723D02*
X78401905Y-89041485D01*
X78401905Y-89041485D02*
X78306667Y-88993866D01*
X78306667Y-88993866D02*
X78068572Y-88993866D01*
X78068572Y-88993866D02*
X77973334Y-88946247D01*
X77068572Y-89374819D02*
X77068572Y-88374819D01*
X77068572Y-89327200D02*
X77163810Y-89374819D01*
X77163810Y-89374819D02*
X77354286Y-89374819D01*
X77354286Y-89374819D02*
X77449524Y-89327200D01*
X77449524Y-89327200D02*
X77497143Y-89279580D01*
X77497143Y-89279580D02*
X77544762Y-89184342D01*
X77544762Y-89184342D02*
X77544762Y-88898628D01*
X77544762Y-88898628D02*
X77497143Y-88803390D01*
X77497143Y-88803390D02*
X77449524Y-88755771D01*
X77449524Y-88755771D02*
X77354286Y-88708152D01*
X77354286Y-88708152D02*
X77163810Y-88708152D01*
X77163810Y-88708152D02*
X77068572Y-88755771D01*
X76592381Y-89374819D02*
X76592381Y-88708152D01*
X76592381Y-88374819D02*
X76640000Y-88422438D01*
X76640000Y-88422438D02*
X76592381Y-88470057D01*
X76592381Y-88470057D02*
X76544762Y-88422438D01*
X76544762Y-88422438D02*
X76592381Y-88374819D01*
X76592381Y-88374819D02*
X76592381Y-88470057D01*
X75973334Y-89374819D02*
X76068572Y-89327200D01*
X76068572Y-89327200D02*
X76116191Y-89279580D01*
X76116191Y-89279580D02*
X76163810Y-89184342D01*
X76163810Y-89184342D02*
X76163810Y-88898628D01*
X76163810Y-88898628D02*
X76116191Y-88803390D01*
X76116191Y-88803390D02*
X76068572Y-88755771D01*
X76068572Y-88755771D02*
X75973334Y-88708152D01*
X75973334Y-88708152D02*
X75830477Y-88708152D01*
X75830477Y-88708152D02*
X75735239Y-88755771D01*
X75735239Y-88755771D02*
X75687620Y-88803390D01*
X75687620Y-88803390D02*
X75640001Y-88898628D01*
X75640001Y-88898628D02*
X75640001Y-89184342D01*
X75640001Y-89184342D02*
X75687620Y-89279580D01*
X75687620Y-89279580D02*
X75735239Y-89327200D01*
X75735239Y-89327200D02*
X75830477Y-89374819D01*
X75830477Y-89374819D02*
X75973334Y-89374819D01*
X75211429Y-88993866D02*
X74449525Y-88993866D01*
X73782858Y-88374819D02*
X73592382Y-88374819D01*
X73592382Y-88374819D02*
X73497144Y-88422438D01*
X73497144Y-88422438D02*
X73401906Y-88517676D01*
X73401906Y-88517676D02*
X73354287Y-88708152D01*
X73354287Y-88708152D02*
X73354287Y-89041485D01*
X73354287Y-89041485D02*
X73401906Y-89231961D01*
X73401906Y-89231961D02*
X73497144Y-89327200D01*
X73497144Y-89327200D02*
X73592382Y-89374819D01*
X73592382Y-89374819D02*
X73782858Y-89374819D01*
X73782858Y-89374819D02*
X73878096Y-89327200D01*
X73878096Y-89327200D02*
X73973334Y-89231961D01*
X73973334Y-89231961D02*
X74020953Y-89041485D01*
X74020953Y-89041485D02*
X74020953Y-88708152D01*
X74020953Y-88708152D02*
X73973334Y-88517676D01*
X73973334Y-88517676D02*
X73878096Y-88422438D01*
X73878096Y-88422438D02*
X73782858Y-88374819D01*
X71830477Y-88851009D02*
X72163810Y-88851009D01*
X72163810Y-89374819D02*
X72163810Y-88374819D01*
X72163810Y-88374819D02*
X71687620Y-88374819D01*
X71163810Y-89374819D02*
X71259048Y-89327200D01*
X71259048Y-89327200D02*
X71306667Y-89279580D01*
X71306667Y-89279580D02*
X71354286Y-89184342D01*
X71354286Y-89184342D02*
X71354286Y-88898628D01*
X71354286Y-88898628D02*
X71306667Y-88803390D01*
X71306667Y-88803390D02*
X71259048Y-88755771D01*
X71259048Y-88755771D02*
X71163810Y-88708152D01*
X71163810Y-88708152D02*
X71020953Y-88708152D01*
X71020953Y-88708152D02*
X70925715Y-88755771D01*
X70925715Y-88755771D02*
X70878096Y-88803390D01*
X70878096Y-88803390D02*
X70830477Y-88898628D01*
X70830477Y-88898628D02*
X70830477Y-89184342D01*
X70830477Y-89184342D02*
X70878096Y-89279580D01*
X70878096Y-89279580D02*
X70925715Y-89327200D01*
X70925715Y-89327200D02*
X71020953Y-89374819D01*
X71020953Y-89374819D02*
X71163810Y-89374819D01*
X70497143Y-89374819D02*
X69973334Y-88708152D01*
X70497143Y-88708152D02*
X69973334Y-89374819D01*
X68973333Y-88374819D02*
X68401905Y-88374819D01*
X68687619Y-89374819D02*
X68687619Y-88374819D01*
X68068571Y-89374819D02*
X68068571Y-88708152D01*
X68068571Y-88898628D02*
X68020952Y-88803390D01*
X68020952Y-88803390D02*
X67973333Y-88755771D01*
X67973333Y-88755771D02*
X67878095Y-88708152D01*
X67878095Y-88708152D02*
X67782857Y-88708152D01*
X67020952Y-89374819D02*
X67020952Y-88851009D01*
X67020952Y-88851009D02*
X67068571Y-88755771D01*
X67068571Y-88755771D02*
X67163809Y-88708152D01*
X67163809Y-88708152D02*
X67354285Y-88708152D01*
X67354285Y-88708152D02*
X67449523Y-88755771D01*
X67020952Y-89327200D02*
X67116190Y-89374819D01*
X67116190Y-89374819D02*
X67354285Y-89374819D01*
X67354285Y-89374819D02*
X67449523Y-89327200D01*
X67449523Y-89327200D02*
X67497142Y-89231961D01*
X67497142Y-89231961D02*
X67497142Y-89136723D01*
X67497142Y-89136723D02*
X67449523Y-89041485D01*
X67449523Y-89041485D02*
X67354285Y-88993866D01*
X67354285Y-88993866D02*
X67116190Y-88993866D01*
X67116190Y-88993866D02*
X67020952Y-88946247D01*
X66544761Y-88708152D02*
X66544761Y-89374819D01*
X66544761Y-88803390D02*
X66497142Y-88755771D01*
X66497142Y-88755771D02*
X66401904Y-88708152D01*
X66401904Y-88708152D02*
X66259047Y-88708152D01*
X66259047Y-88708152D02*
X66163809Y-88755771D01*
X66163809Y-88755771D02*
X66116190Y-88851009D01*
X66116190Y-88851009D02*
X66116190Y-89374819D01*
X65687618Y-89327200D02*
X65592380Y-89374819D01*
X65592380Y-89374819D02*
X65401904Y-89374819D01*
X65401904Y-89374819D02*
X65306666Y-89327200D01*
X65306666Y-89327200D02*
X65259047Y-89231961D01*
X65259047Y-89231961D02*
X65259047Y-89184342D01*
X65259047Y-89184342D02*
X65306666Y-89089104D01*
X65306666Y-89089104D02*
X65401904Y-89041485D01*
X65401904Y-89041485D02*
X65544761Y-89041485D01*
X65544761Y-89041485D02*
X65639999Y-88993866D01*
X65639999Y-88993866D02*
X65687618Y-88898628D01*
X65687618Y-88898628D02*
X65687618Y-88851009D01*
X65687618Y-88851009D02*
X65639999Y-88755771D01*
X65639999Y-88755771D02*
X65544761Y-88708152D01*
X65544761Y-88708152D02*
X65401904Y-88708152D01*
X65401904Y-88708152D02*
X65306666Y-88755771D01*
X64830475Y-89374819D02*
X64830475Y-88708152D01*
X64830475Y-88803390D02*
X64782856Y-88755771D01*
X64782856Y-88755771D02*
X64687618Y-88708152D01*
X64687618Y-88708152D02*
X64544761Y-88708152D01*
X64544761Y-88708152D02*
X64449523Y-88755771D01*
X64449523Y-88755771D02*
X64401904Y-88851009D01*
X64401904Y-88851009D02*
X64401904Y-89374819D01*
X64401904Y-88851009D02*
X64354285Y-88755771D01*
X64354285Y-88755771D02*
X64259047Y-88708152D01*
X64259047Y-88708152D02*
X64116190Y-88708152D01*
X64116190Y-88708152D02*
X64020951Y-88755771D01*
X64020951Y-88755771D02*
X63973332Y-88851009D01*
X63973332Y-88851009D02*
X63973332Y-89374819D01*
X63497142Y-89374819D02*
X63497142Y-88708152D01*
X63497142Y-88374819D02*
X63544761Y-88422438D01*
X63544761Y-88422438D02*
X63497142Y-88470057D01*
X63497142Y-88470057D02*
X63449523Y-88422438D01*
X63449523Y-88422438D02*
X63497142Y-88374819D01*
X63497142Y-88374819D02*
X63497142Y-88470057D01*
X63163809Y-88708152D02*
X62782857Y-88708152D01*
X63020952Y-88374819D02*
X63020952Y-89231961D01*
X63020952Y-89231961D02*
X62973333Y-89327200D01*
X62973333Y-89327200D02*
X62878095Y-89374819D01*
X62878095Y-89374819D02*
X62782857Y-89374819D01*
X62592380Y-88708152D02*
X62211428Y-88708152D01*
X62449523Y-88374819D02*
X62449523Y-89231961D01*
X62449523Y-89231961D02*
X62401904Y-89327200D01*
X62401904Y-89327200D02*
X62306666Y-89374819D01*
X62306666Y-89374819D02*
X62211428Y-89374819D01*
X61497142Y-89327200D02*
X61592380Y-89374819D01*
X61592380Y-89374819D02*
X61782856Y-89374819D01*
X61782856Y-89374819D02*
X61878094Y-89327200D01*
X61878094Y-89327200D02*
X61925713Y-89231961D01*
X61925713Y-89231961D02*
X61925713Y-88851009D01*
X61925713Y-88851009D02*
X61878094Y-88755771D01*
X61878094Y-88755771D02*
X61782856Y-88708152D01*
X61782856Y-88708152D02*
X61592380Y-88708152D01*
X61592380Y-88708152D02*
X61497142Y-88755771D01*
X61497142Y-88755771D02*
X61449523Y-88851009D01*
X61449523Y-88851009D02*
X61449523Y-88946247D01*
X61449523Y-88946247D02*
X61925713Y-89041485D01*
X61020951Y-89374819D02*
X61020951Y-88708152D01*
X61020951Y-88898628D02*
X60973332Y-88803390D01*
X60973332Y-88803390D02*
X60925713Y-88755771D01*
X60925713Y-88755771D02*
X60830475Y-88708152D01*
X60830475Y-88708152D02*
X60735237Y-88708152D01*
X83378094Y-89984763D02*
X83044761Y-90984763D01*
X83044761Y-90984763D02*
X82711428Y-89984763D01*
X81997142Y-90937144D02*
X82092380Y-90984763D01*
X82092380Y-90984763D02*
X82282856Y-90984763D01*
X82282856Y-90984763D02*
X82378094Y-90937144D01*
X82378094Y-90937144D02*
X82425713Y-90841905D01*
X82425713Y-90841905D02*
X82425713Y-90460953D01*
X82425713Y-90460953D02*
X82378094Y-90365715D01*
X82378094Y-90365715D02*
X82282856Y-90318096D01*
X82282856Y-90318096D02*
X82092380Y-90318096D01*
X82092380Y-90318096D02*
X81997142Y-90365715D01*
X81997142Y-90365715D02*
X81949523Y-90460953D01*
X81949523Y-90460953D02*
X81949523Y-90556191D01*
X81949523Y-90556191D02*
X82425713Y-90651429D01*
X81520951Y-90984763D02*
X81520951Y-90318096D01*
X81520951Y-90508572D02*
X81473332Y-90413334D01*
X81473332Y-90413334D02*
X81425713Y-90365715D01*
X81425713Y-90365715D02*
X81330475Y-90318096D01*
X81330475Y-90318096D02*
X81235237Y-90318096D01*
X80901903Y-90889524D02*
X80854284Y-90937144D01*
X80854284Y-90937144D02*
X80901903Y-90984763D01*
X80901903Y-90984763D02*
X80949522Y-90937144D01*
X80949522Y-90937144D02*
X80901903Y-90889524D01*
X80901903Y-90889524D02*
X80901903Y-90984763D01*
X80901903Y-90365715D02*
X80854284Y-90413334D01*
X80854284Y-90413334D02*
X80901903Y-90460953D01*
X80901903Y-90460953D02*
X80949522Y-90413334D01*
X80949522Y-90413334D02*
X80901903Y-90365715D01*
X80901903Y-90365715D02*
X80901903Y-90460953D01*
X79759046Y-89984763D02*
X79139999Y-89984763D01*
X79139999Y-89984763D02*
X79473332Y-90365715D01*
X79473332Y-90365715D02*
X79330475Y-90365715D01*
X79330475Y-90365715D02*
X79235237Y-90413334D01*
X79235237Y-90413334D02*
X79187618Y-90460953D01*
X79187618Y-90460953D02*
X79139999Y-90556191D01*
X79139999Y-90556191D02*
X79139999Y-90794286D01*
X79139999Y-90794286D02*
X79187618Y-90889524D01*
X79187618Y-90889524D02*
X79235237Y-90937144D01*
X79235237Y-90937144D02*
X79330475Y-90984763D01*
X79330475Y-90984763D02*
X79616189Y-90984763D01*
X79616189Y-90984763D02*
X79711427Y-90937144D01*
X79711427Y-90937144D02*
X79759046Y-90889524D01*
X78711427Y-90889524D02*
X78663808Y-90937144D01*
X78663808Y-90937144D02*
X78711427Y-90984763D01*
X78711427Y-90984763D02*
X78759046Y-90937144D01*
X78759046Y-90937144D02*
X78711427Y-90889524D01*
X78711427Y-90889524D02*
X78711427Y-90984763D01*
X77759047Y-89984763D02*
X78235237Y-89984763D01*
X78235237Y-89984763D02*
X78282856Y-90460953D01*
X78282856Y-90460953D02*
X78235237Y-90413334D01*
X78235237Y-90413334D02*
X78139999Y-90365715D01*
X78139999Y-90365715D02*
X77901904Y-90365715D01*
X77901904Y-90365715D02*
X77806666Y-90413334D01*
X77806666Y-90413334D02*
X77759047Y-90460953D01*
X77759047Y-90460953D02*
X77711428Y-90556191D01*
X77711428Y-90556191D02*
X77711428Y-90794286D01*
X77711428Y-90794286D02*
X77759047Y-90889524D01*
X77759047Y-90889524D02*
X77806666Y-90937144D01*
X77806666Y-90937144D02*
X77901904Y-90984763D01*
X77901904Y-90984763D02*
X78139999Y-90984763D01*
X78139999Y-90984763D02*
X78235237Y-90937144D01*
X78235237Y-90937144D02*
X78282856Y-90889524D01*
X77235237Y-90937144D02*
X77235237Y-90984763D01*
X77235237Y-90984763D02*
X77282856Y-91080001D01*
X77282856Y-91080001D02*
X77330475Y-91127620D01*
X77282856Y-90365715D02*
X77235237Y-90413334D01*
X77235237Y-90413334D02*
X77282856Y-90460953D01*
X77282856Y-90460953D02*
X77330475Y-90413334D01*
X77330475Y-90413334D02*
X77282856Y-90365715D01*
X77282856Y-90365715D02*
X77282856Y-90460953D01*
X76044761Y-90984763D02*
X76044761Y-89984763D01*
X76044761Y-89984763D02*
X75806666Y-89984763D01*
X75806666Y-89984763D02*
X75663809Y-90032382D01*
X75663809Y-90032382D02*
X75568571Y-90127620D01*
X75568571Y-90127620D02*
X75520952Y-90222858D01*
X75520952Y-90222858D02*
X75473333Y-90413334D01*
X75473333Y-90413334D02*
X75473333Y-90556191D01*
X75473333Y-90556191D02*
X75520952Y-90746667D01*
X75520952Y-90746667D02*
X75568571Y-90841905D01*
X75568571Y-90841905D02*
X75663809Y-90937144D01*
X75663809Y-90937144D02*
X75806666Y-90984763D01*
X75806666Y-90984763D02*
X76044761Y-90984763D01*
X74616190Y-90984763D02*
X74616190Y-90460953D01*
X74616190Y-90460953D02*
X74663809Y-90365715D01*
X74663809Y-90365715D02*
X74759047Y-90318096D01*
X74759047Y-90318096D02*
X74949523Y-90318096D01*
X74949523Y-90318096D02*
X75044761Y-90365715D01*
X74616190Y-90937144D02*
X74711428Y-90984763D01*
X74711428Y-90984763D02*
X74949523Y-90984763D01*
X74949523Y-90984763D02*
X75044761Y-90937144D01*
X75044761Y-90937144D02*
X75092380Y-90841905D01*
X75092380Y-90841905D02*
X75092380Y-90746667D01*
X75092380Y-90746667D02*
X75044761Y-90651429D01*
X75044761Y-90651429D02*
X74949523Y-90603810D01*
X74949523Y-90603810D02*
X74711428Y-90603810D01*
X74711428Y-90603810D02*
X74616190Y-90556191D01*
X74282856Y-90318096D02*
X73901904Y-90318096D01*
X74139999Y-89984763D02*
X74139999Y-90841905D01*
X74139999Y-90841905D02*
X74092380Y-90937144D01*
X74092380Y-90937144D02*
X73997142Y-90984763D01*
X73997142Y-90984763D02*
X73901904Y-90984763D01*
X73187618Y-90937144D02*
X73282856Y-90984763D01*
X73282856Y-90984763D02*
X73473332Y-90984763D01*
X73473332Y-90984763D02*
X73568570Y-90937144D01*
X73568570Y-90937144D02*
X73616189Y-90841905D01*
X73616189Y-90841905D02*
X73616189Y-90460953D01*
X73616189Y-90460953D02*
X73568570Y-90365715D01*
X73568570Y-90365715D02*
X73473332Y-90318096D01*
X73473332Y-90318096D02*
X73282856Y-90318096D01*
X73282856Y-90318096D02*
X73187618Y-90365715D01*
X73187618Y-90365715D02*
X73139999Y-90460953D01*
X73139999Y-90460953D02*
X73139999Y-90556191D01*
X73139999Y-90556191D02*
X73616189Y-90651429D01*
X72711427Y-90889524D02*
X72663808Y-90937144D01*
X72663808Y-90937144D02*
X72711427Y-90984763D01*
X72711427Y-90984763D02*
X72759046Y-90937144D01*
X72759046Y-90937144D02*
X72711427Y-90889524D01*
X72711427Y-90889524D02*
X72711427Y-90984763D01*
X72711427Y-90365715D02*
X72663808Y-90413334D01*
X72663808Y-90413334D02*
X72711427Y-90460953D01*
X72711427Y-90460953D02*
X72759046Y-90413334D01*
X72759046Y-90413334D02*
X72711427Y-90365715D01*
X72711427Y-90365715D02*
X72711427Y-90460953D01*
X70949523Y-90984763D02*
X71520951Y-90984763D01*
X71235237Y-90984763D02*
X71235237Y-89984763D01*
X71235237Y-89984763D02*
X71330475Y-90127620D01*
X71330475Y-90127620D02*
X71425713Y-90222858D01*
X71425713Y-90222858D02*
X71520951Y-90270477D01*
X70330475Y-89984763D02*
X70235237Y-89984763D01*
X70235237Y-89984763D02*
X70139999Y-90032382D01*
X70139999Y-90032382D02*
X70092380Y-90080001D01*
X70092380Y-90080001D02*
X70044761Y-90175239D01*
X70044761Y-90175239D02*
X69997142Y-90365715D01*
X69997142Y-90365715D02*
X69997142Y-90603810D01*
X69997142Y-90603810D02*
X70044761Y-90794286D01*
X70044761Y-90794286D02*
X70092380Y-90889524D01*
X70092380Y-90889524D02*
X70139999Y-90937144D01*
X70139999Y-90937144D02*
X70235237Y-90984763D01*
X70235237Y-90984763D02*
X70330475Y-90984763D01*
X70330475Y-90984763D02*
X70425713Y-90937144D01*
X70425713Y-90937144D02*
X70473332Y-90889524D01*
X70473332Y-90889524D02*
X70520951Y-90794286D01*
X70520951Y-90794286D02*
X70568570Y-90603810D01*
X70568570Y-90603810D02*
X70568570Y-90365715D01*
X70568570Y-90365715D02*
X70520951Y-90175239D01*
X70520951Y-90175239D02*
X70473332Y-90080001D01*
X70473332Y-90080001D02*
X70425713Y-90032382D01*
X70425713Y-90032382D02*
X70330475Y-89984763D01*
X69568570Y-90603810D02*
X68806666Y-90603810D01*
X68378094Y-90937144D02*
X68235237Y-90984763D01*
X68235237Y-90984763D02*
X67997142Y-90984763D01*
X67997142Y-90984763D02*
X67901904Y-90937144D01*
X67901904Y-90937144D02*
X67854285Y-90889524D01*
X67854285Y-90889524D02*
X67806666Y-90794286D01*
X67806666Y-90794286D02*
X67806666Y-90699048D01*
X67806666Y-90699048D02*
X67854285Y-90603810D01*
X67854285Y-90603810D02*
X67901904Y-90556191D01*
X67901904Y-90556191D02*
X67997142Y-90508572D01*
X67997142Y-90508572D02*
X68187618Y-90460953D01*
X68187618Y-90460953D02*
X68282856Y-90413334D01*
X68282856Y-90413334D02*
X68330475Y-90365715D01*
X68330475Y-90365715D02*
X68378094Y-90270477D01*
X68378094Y-90270477D02*
X68378094Y-90175239D01*
X68378094Y-90175239D02*
X68330475Y-90080001D01*
X68330475Y-90080001D02*
X68282856Y-90032382D01*
X68282856Y-90032382D02*
X68187618Y-89984763D01*
X68187618Y-89984763D02*
X67949523Y-89984763D01*
X67949523Y-89984763D02*
X67806666Y-90032382D01*
X66997142Y-90937144D02*
X67092380Y-90984763D01*
X67092380Y-90984763D02*
X67282856Y-90984763D01*
X67282856Y-90984763D02*
X67378094Y-90937144D01*
X67378094Y-90937144D02*
X67425713Y-90841905D01*
X67425713Y-90841905D02*
X67425713Y-90460953D01*
X67425713Y-90460953D02*
X67378094Y-90365715D01*
X67378094Y-90365715D02*
X67282856Y-90318096D01*
X67282856Y-90318096D02*
X67092380Y-90318096D01*
X67092380Y-90318096D02*
X66997142Y-90365715D01*
X66997142Y-90365715D02*
X66949523Y-90460953D01*
X66949523Y-90460953D02*
X66949523Y-90556191D01*
X66949523Y-90556191D02*
X67425713Y-90651429D01*
X66520951Y-90318096D02*
X66520951Y-91318096D01*
X66520951Y-90365715D02*
X66425713Y-90318096D01*
X66425713Y-90318096D02*
X66235237Y-90318096D01*
X66235237Y-90318096D02*
X66139999Y-90365715D01*
X66139999Y-90365715D02*
X66092380Y-90413334D01*
X66092380Y-90413334D02*
X66044761Y-90508572D01*
X66044761Y-90508572D02*
X66044761Y-90794286D01*
X66044761Y-90794286D02*
X66092380Y-90889524D01*
X66092380Y-90889524D02*
X66139999Y-90937144D01*
X66139999Y-90937144D02*
X66235237Y-90984763D01*
X66235237Y-90984763D02*
X66425713Y-90984763D01*
X66425713Y-90984763D02*
X66520951Y-90937144D01*
X65616189Y-90603810D02*
X64854285Y-90603810D01*
X64425713Y-90080001D02*
X64378094Y-90032382D01*
X64378094Y-90032382D02*
X64282856Y-89984763D01*
X64282856Y-89984763D02*
X64044761Y-89984763D01*
X64044761Y-89984763D02*
X63949523Y-90032382D01*
X63949523Y-90032382D02*
X63901904Y-90080001D01*
X63901904Y-90080001D02*
X63854285Y-90175239D01*
X63854285Y-90175239D02*
X63854285Y-90270477D01*
X63854285Y-90270477D02*
X63901904Y-90413334D01*
X63901904Y-90413334D02*
X64473332Y-90984763D01*
X64473332Y-90984763D02*
X63854285Y-90984763D01*
X63235237Y-89984763D02*
X63139999Y-89984763D01*
X63139999Y-89984763D02*
X63044761Y-90032382D01*
X63044761Y-90032382D02*
X62997142Y-90080001D01*
X62997142Y-90080001D02*
X62949523Y-90175239D01*
X62949523Y-90175239D02*
X62901904Y-90365715D01*
X62901904Y-90365715D02*
X62901904Y-90603810D01*
X62901904Y-90603810D02*
X62949523Y-90794286D01*
X62949523Y-90794286D02*
X62997142Y-90889524D01*
X62997142Y-90889524D02*
X63044761Y-90937144D01*
X63044761Y-90937144D02*
X63139999Y-90984763D01*
X63139999Y-90984763D02*
X63235237Y-90984763D01*
X63235237Y-90984763D02*
X63330475Y-90937144D01*
X63330475Y-90937144D02*
X63378094Y-90889524D01*
X63378094Y-90889524D02*
X63425713Y-90794286D01*
X63425713Y-90794286D02*
X63473332Y-90603810D01*
X63473332Y-90603810D02*
X63473332Y-90365715D01*
X63473332Y-90365715D02*
X63425713Y-90175239D01*
X63425713Y-90175239D02*
X63378094Y-90080001D01*
X63378094Y-90080001D02*
X63330475Y-90032382D01*
X63330475Y-90032382D02*
X63235237Y-89984763D01*
X62520951Y-90080001D02*
X62473332Y-90032382D01*
X62473332Y-90032382D02*
X62378094Y-89984763D01*
X62378094Y-89984763D02*
X62139999Y-89984763D01*
X62139999Y-89984763D02*
X62044761Y-90032382D01*
X62044761Y-90032382D02*
X61997142Y-90080001D01*
X61997142Y-90080001D02*
X61949523Y-90175239D01*
X61949523Y-90175239D02*
X61949523Y-90270477D01*
X61949523Y-90270477D02*
X61997142Y-90413334D01*
X61997142Y-90413334D02*
X62568570Y-90984763D01*
X62568570Y-90984763D02*
X61949523Y-90984763D01*
X61044761Y-89984763D02*
X61520951Y-89984763D01*
X61520951Y-89984763D02*
X61568570Y-90460953D01*
X61568570Y-90460953D02*
X61520951Y-90413334D01*
X61520951Y-90413334D02*
X61425713Y-90365715D01*
X61425713Y-90365715D02*
X61187618Y-90365715D01*
X61187618Y-90365715D02*
X61092380Y-90413334D01*
X61092380Y-90413334D02*
X61044761Y-90460953D01*
X61044761Y-90460953D02*
X60997142Y-90556191D01*
X60997142Y-90556191D02*
X60997142Y-90794286D01*
X60997142Y-90794286D02*
X61044761Y-90889524D01*
X61044761Y-90889524D02*
X61092380Y-90937144D01*
X61092380Y-90937144D02*
X61187618Y-90984763D01*
X61187618Y-90984763D02*
X61425713Y-90984763D01*
X61425713Y-90984763D02*
X61520951Y-90937144D01*
X61520951Y-90937144D02*
X61568570Y-90889524D01*
X135892381Y-89754819D02*
X136225714Y-89278628D01*
X136463809Y-89754819D02*
X136463809Y-88754819D01*
X136463809Y-88754819D02*
X136082857Y-88754819D01*
X136082857Y-88754819D02*
X135987619Y-88802438D01*
X135987619Y-88802438D02*
X135940000Y-88850057D01*
X135940000Y-88850057D02*
X135892381Y-88945295D01*
X135892381Y-88945295D02*
X135892381Y-89088152D01*
X135892381Y-89088152D02*
X135940000Y-89183390D01*
X135940000Y-89183390D02*
X135987619Y-89231009D01*
X135987619Y-89231009D02*
X136082857Y-89278628D01*
X136082857Y-89278628D02*
X136463809Y-89278628D01*
X135130476Y-89231009D02*
X135463809Y-89231009D01*
X135463809Y-89754819D02*
X135463809Y-88754819D01*
X135463809Y-88754819D02*
X134987619Y-88754819D01*
X133654285Y-88754819D02*
X133463809Y-88754819D01*
X133463809Y-88754819D02*
X133368571Y-88802438D01*
X133368571Y-88802438D02*
X133273333Y-88897676D01*
X133273333Y-88897676D02*
X133225714Y-89088152D01*
X133225714Y-89088152D02*
X133225714Y-89421485D01*
X133225714Y-89421485D02*
X133273333Y-89611961D01*
X133273333Y-89611961D02*
X133368571Y-89707200D01*
X133368571Y-89707200D02*
X133463809Y-89754819D01*
X133463809Y-89754819D02*
X133654285Y-89754819D01*
X133654285Y-89754819D02*
X133749523Y-89707200D01*
X133749523Y-89707200D02*
X133844761Y-89611961D01*
X133844761Y-89611961D02*
X133892380Y-89421485D01*
X133892380Y-89421485D02*
X133892380Y-89088152D01*
X133892380Y-89088152D02*
X133844761Y-88897676D01*
X133844761Y-88897676D02*
X133749523Y-88802438D01*
X133749523Y-88802438D02*
X133654285Y-88754819D01*
X132368571Y-89088152D02*
X132368571Y-89754819D01*
X132797142Y-89088152D02*
X132797142Y-89611961D01*
X132797142Y-89611961D02*
X132749523Y-89707200D01*
X132749523Y-89707200D02*
X132654285Y-89754819D01*
X132654285Y-89754819D02*
X132511428Y-89754819D01*
X132511428Y-89754819D02*
X132416190Y-89707200D01*
X132416190Y-89707200D02*
X132368571Y-89659580D01*
X132035237Y-89088152D02*
X131654285Y-89088152D01*
X131892380Y-88754819D02*
X131892380Y-89611961D01*
X131892380Y-89611961D02*
X131844761Y-89707200D01*
X131844761Y-89707200D02*
X131749523Y-89754819D01*
X131749523Y-89754819D02*
X131654285Y-89754819D01*
X131320951Y-89088152D02*
X131320951Y-90088152D01*
X131320951Y-89135771D02*
X131225713Y-89088152D01*
X131225713Y-89088152D02*
X131035237Y-89088152D01*
X131035237Y-89088152D02*
X130939999Y-89135771D01*
X130939999Y-89135771D02*
X130892380Y-89183390D01*
X130892380Y-89183390D02*
X130844761Y-89278628D01*
X130844761Y-89278628D02*
X130844761Y-89564342D01*
X130844761Y-89564342D02*
X130892380Y-89659580D01*
X130892380Y-89659580D02*
X130939999Y-89707200D01*
X130939999Y-89707200D02*
X131035237Y-89754819D01*
X131035237Y-89754819D02*
X131225713Y-89754819D01*
X131225713Y-89754819D02*
X131320951Y-89707200D01*
X129987618Y-89088152D02*
X129987618Y-89754819D01*
X130416189Y-89088152D02*
X130416189Y-89611961D01*
X130416189Y-89611961D02*
X130368570Y-89707200D01*
X130368570Y-89707200D02*
X130273332Y-89754819D01*
X130273332Y-89754819D02*
X130130475Y-89754819D01*
X130130475Y-89754819D02*
X130035237Y-89707200D01*
X130035237Y-89707200D02*
X129987618Y-89659580D01*
X129654284Y-89088152D02*
X129273332Y-89088152D01*
X129511427Y-88754819D02*
X129511427Y-89611961D01*
X129511427Y-89611961D02*
X129463808Y-89707200D01*
X129463808Y-89707200D02*
X129368570Y-89754819D01*
X129368570Y-89754819D02*
X129273332Y-89754819D01*
D14*
X69612707Y-66352314D02*
X69698422Y-66309457D01*
X69698422Y-66309457D02*
X69826993Y-66309457D01*
X69826993Y-66309457D02*
X69955564Y-66352314D01*
X69955564Y-66352314D02*
X70041279Y-66438028D01*
X70041279Y-66438028D02*
X70084136Y-66523742D01*
X70084136Y-66523742D02*
X70126993Y-66695171D01*
X70126993Y-66695171D02*
X70126993Y-66823742D01*
X70126993Y-66823742D02*
X70084136Y-66995171D01*
X70084136Y-66995171D02*
X70041279Y-67080885D01*
X70041279Y-67080885D02*
X69955564Y-67166600D01*
X69955564Y-67166600D02*
X69826993Y-67209457D01*
X69826993Y-67209457D02*
X69741279Y-67209457D01*
X69741279Y-67209457D02*
X69612707Y-67166600D01*
X69612707Y-67166600D02*
X69569850Y-67123742D01*
X69569850Y-67123742D02*
X69569850Y-66823742D01*
X69569850Y-66823742D02*
X69741279Y-66823742D01*
X69184136Y-67209457D02*
X69184136Y-66309457D01*
X69184136Y-66309457D02*
X68669850Y-67209457D01*
X68669850Y-67209457D02*
X68669850Y-66309457D01*
X68241279Y-67209457D02*
X68241279Y-66309457D01*
X68241279Y-66309457D02*
X68026993Y-66309457D01*
X68026993Y-66309457D02*
X67898422Y-66352314D01*
X67898422Y-66352314D02*
X67812707Y-66438028D01*
X67812707Y-66438028D02*
X67769850Y-66523742D01*
X67769850Y-66523742D02*
X67726993Y-66695171D01*
X67726993Y-66695171D02*
X67726993Y-66823742D01*
X67726993Y-66823742D02*
X67769850Y-66995171D01*
X67769850Y-66995171D02*
X67812707Y-67080885D01*
X67812707Y-67080885D02*
X67898422Y-67166600D01*
X67898422Y-67166600D02*
X68026993Y-67209457D01*
X68026993Y-67209457D02*
X68241279Y-67209457D01*
D10*
X63974819Y-110770475D02*
X63498628Y-110437142D01*
X63974819Y-110199047D02*
X62974819Y-110199047D01*
X62974819Y-110199047D02*
X62974819Y-110579999D01*
X62974819Y-110579999D02*
X63022438Y-110675237D01*
X63022438Y-110675237D02*
X63070057Y-110722856D01*
X63070057Y-110722856D02*
X63165295Y-110770475D01*
X63165295Y-110770475D02*
X63308152Y-110770475D01*
X63308152Y-110770475D02*
X63403390Y-110722856D01*
X63403390Y-110722856D02*
X63451009Y-110675237D01*
X63451009Y-110675237D02*
X63498628Y-110579999D01*
X63498628Y-110579999D02*
X63498628Y-110199047D01*
X63927200Y-111579999D02*
X63974819Y-111484761D01*
X63974819Y-111484761D02*
X63974819Y-111294285D01*
X63974819Y-111294285D02*
X63927200Y-111199047D01*
X63927200Y-111199047D02*
X63831961Y-111151428D01*
X63831961Y-111151428D02*
X63451009Y-111151428D01*
X63451009Y-111151428D02*
X63355771Y-111199047D01*
X63355771Y-111199047D02*
X63308152Y-111294285D01*
X63308152Y-111294285D02*
X63308152Y-111484761D01*
X63308152Y-111484761D02*
X63355771Y-111579999D01*
X63355771Y-111579999D02*
X63451009Y-111627618D01*
X63451009Y-111627618D02*
X63546247Y-111627618D01*
X63546247Y-111627618D02*
X63641485Y-111151428D01*
X63974819Y-112484761D02*
X62974819Y-112484761D01*
X63927200Y-112484761D02*
X63974819Y-112389523D01*
X63974819Y-112389523D02*
X63974819Y-112199047D01*
X63974819Y-112199047D02*
X63927200Y-112103809D01*
X63927200Y-112103809D02*
X63879580Y-112056190D01*
X63879580Y-112056190D02*
X63784342Y-112008571D01*
X63784342Y-112008571D02*
X63498628Y-112008571D01*
X63498628Y-112008571D02*
X63403390Y-112056190D01*
X63403390Y-112056190D02*
X63355771Y-112103809D01*
X63355771Y-112103809D02*
X63308152Y-112199047D01*
X63308152Y-112199047D02*
X63308152Y-112389523D01*
X63308152Y-112389523D02*
X63355771Y-112484761D01*
X63974819Y-114199047D02*
X63974819Y-113722857D01*
X63974819Y-113722857D02*
X62974819Y-113722857D01*
X63451009Y-114532381D02*
X63451009Y-114865714D01*
X63974819Y-115008571D02*
X63974819Y-114532381D01*
X63974819Y-114532381D02*
X62974819Y-114532381D01*
X62974819Y-114532381D02*
X62974819Y-115008571D01*
X63974819Y-115437143D02*
X62974819Y-115437143D01*
X62974819Y-115437143D02*
X62974819Y-115675238D01*
X62974819Y-115675238D02*
X63022438Y-115818095D01*
X63022438Y-115818095D02*
X63117676Y-115913333D01*
X63117676Y-115913333D02*
X63212914Y-115960952D01*
X63212914Y-115960952D02*
X63403390Y-116008571D01*
X63403390Y-116008571D02*
X63546247Y-116008571D01*
X63546247Y-116008571D02*
X63736723Y-115960952D01*
X63736723Y-115960952D02*
X63831961Y-115913333D01*
X63831961Y-115913333D02*
X63927200Y-115818095D01*
X63927200Y-115818095D02*
X63974819Y-115675238D01*
X63974819Y-115675238D02*
X63974819Y-115437143D01*
X59557142Y-75982295D02*
X59557142Y-75182295D01*
X59099999Y-75982295D02*
X59442857Y-75525152D01*
X59099999Y-75182295D02*
X59557142Y-75639438D01*
X58452380Y-75944200D02*
X58528571Y-75982295D01*
X58528571Y-75982295D02*
X58680952Y-75982295D01*
X58680952Y-75982295D02*
X58757142Y-75944200D01*
X58757142Y-75944200D02*
X58795238Y-75868009D01*
X58795238Y-75868009D02*
X58795238Y-75563247D01*
X58795238Y-75563247D02*
X58757142Y-75487057D01*
X58757142Y-75487057D02*
X58680952Y-75448961D01*
X58680952Y-75448961D02*
X58528571Y-75448961D01*
X58528571Y-75448961D02*
X58452380Y-75487057D01*
X58452380Y-75487057D02*
X58414285Y-75563247D01*
X58414285Y-75563247D02*
X58414285Y-75639438D01*
X58414285Y-75639438D02*
X58795238Y-75715628D01*
X58147619Y-75448961D02*
X57957143Y-75982295D01*
X57766666Y-75448961D02*
X57957143Y-75982295D01*
X57957143Y-75982295D02*
X58033333Y-76172771D01*
X58033333Y-76172771D02*
X58071428Y-76210866D01*
X58071428Y-76210866D02*
X58147619Y-76248961D01*
D14*
X99604393Y-100713292D02*
X100291000Y-101165897D01*
X100291000Y-101165897D02*
X99701915Y-101113648D01*
X99701915Y-101113648D02*
X100186765Y-101452279D01*
X100186765Y-101452279D02*
X99369864Y-101357652D01*
X99874061Y-102311427D02*
X100030413Y-101881853D01*
X99952237Y-102096640D02*
X99200483Y-101823024D01*
X99200483Y-101823024D02*
X99333935Y-101790517D01*
X99333935Y-101790517D02*
X99431589Y-101744980D01*
X99431589Y-101744980D02*
X99493446Y-101686413D01*
X98952925Y-102503183D02*
X98926867Y-102574778D01*
X98926867Y-102574778D02*
X98936606Y-102659403D01*
X98936606Y-102659403D02*
X98959374Y-102708231D01*
X98959374Y-102708231D02*
X99017941Y-102770087D01*
X99017941Y-102770087D02*
X99148103Y-102858002D01*
X99148103Y-102858002D02*
X99327092Y-102923149D01*
X99327092Y-102923149D02*
X99483312Y-102939468D01*
X99483312Y-102939468D02*
X99567937Y-102929729D01*
X99567937Y-102929729D02*
X99616764Y-102906961D01*
X99616764Y-102906961D02*
X99678621Y-102848395D01*
X99678621Y-102848395D02*
X99704680Y-102776799D01*
X99704680Y-102776799D02*
X99694940Y-102692174D01*
X99694940Y-102692174D02*
X99672172Y-102643347D01*
X99672172Y-102643347D02*
X99613606Y-102581490D01*
X99613606Y-102581490D02*
X99483444Y-102493575D01*
X99483444Y-102493575D02*
X99304455Y-102428428D01*
X99304455Y-102428428D02*
X99148234Y-102412109D01*
X99148234Y-102412109D02*
X99063609Y-102421848D01*
X99063609Y-102421848D02*
X99014782Y-102444617D01*
X99014782Y-102444617D02*
X98952925Y-102503183D01*
X99352887Y-103743340D02*
X99509239Y-103313766D01*
X99431063Y-103528553D02*
X98679309Y-103254937D01*
X98679309Y-103254937D02*
X98812761Y-103222430D01*
X98812761Y-103222430D02*
X98910416Y-103176893D01*
X98910416Y-103176893D02*
X98972272Y-103118326D01*
X93160515Y-108269671D02*
X93150776Y-108185046D01*
X93150776Y-108185046D02*
X93189864Y-108077653D01*
X93189864Y-108077653D02*
X93264750Y-107983289D01*
X93264750Y-107983289D02*
X93362404Y-107937752D01*
X93362404Y-107937752D02*
X93447029Y-107928013D01*
X93447029Y-107928013D02*
X93603250Y-107944332D01*
X93603250Y-107944332D02*
X93710643Y-107983420D01*
X93710643Y-107983420D02*
X93840805Y-108071335D01*
X93840805Y-108071335D02*
X93899372Y-108133192D01*
X93899372Y-108133192D02*
X93944909Y-108230846D01*
X93944909Y-108230846D02*
X93941618Y-108351269D01*
X93941618Y-108351269D02*
X93915560Y-108422865D01*
X93915560Y-108422865D02*
X93840674Y-108517229D01*
X93840674Y-108517229D02*
X93791847Y-108539997D01*
X93791847Y-108539997D02*
X93541262Y-108448792D01*
X93541262Y-108448792D02*
X93593379Y-108305601D01*
X93746178Y-108888236D02*
X92994424Y-108614620D01*
X92994424Y-108614620D02*
X93589826Y-109317810D01*
X93589826Y-109317810D02*
X92838072Y-109044194D01*
X93459533Y-109675788D02*
X92707779Y-109402172D01*
X92707779Y-109402172D02*
X92642632Y-109581161D01*
X92642632Y-109581161D02*
X92639342Y-109701584D01*
X92639342Y-109701584D02*
X92684879Y-109799238D01*
X92684879Y-109799238D02*
X92743445Y-109861094D01*
X92743445Y-109861094D02*
X92873607Y-109949010D01*
X92873607Y-109949010D02*
X92981001Y-109988098D01*
X92981001Y-109988098D02*
X93137221Y-110004417D01*
X93137221Y-110004417D02*
X93221846Y-109994678D01*
X93221846Y-109994678D02*
X93319500Y-109949141D01*
X93319500Y-109949141D02*
X93394386Y-109854777D01*
X93394386Y-109854777D02*
X93459533Y-109675788D01*
X95691699Y-100565461D02*
X95535347Y-100995034D01*
X96365277Y-101053864D02*
X95613523Y-100780248D01*
X95528766Y-101235880D02*
X95479939Y-101258649D01*
X95479939Y-101258649D02*
X95418083Y-101317215D01*
X95418083Y-101317215D02*
X95352936Y-101496204D01*
X95352936Y-101496204D02*
X95362675Y-101580829D01*
X95362675Y-101580829D02*
X95385443Y-101629656D01*
X95385443Y-101629656D02*
X95444010Y-101691513D01*
X95444010Y-101691513D02*
X95515605Y-101717571D01*
X95515605Y-101717571D02*
X95636028Y-101720861D01*
X95636028Y-101720861D02*
X96221954Y-101447640D01*
X96221954Y-101447640D02*
X96052573Y-101913011D01*
D10*
X58762295Y-113611428D02*
X59333723Y-113611428D01*
X59333723Y-113611428D02*
X59448009Y-113573333D01*
X59448009Y-113573333D02*
X59524200Y-113497142D01*
X59524200Y-113497142D02*
X59562295Y-113382857D01*
X59562295Y-113382857D02*
X59562295Y-113306666D01*
X59562295Y-114411428D02*
X59562295Y-113954285D01*
X59562295Y-114182857D02*
X58762295Y-114182857D01*
X58762295Y-114182857D02*
X58876580Y-114106666D01*
X58876580Y-114106666D02*
X58952771Y-114030476D01*
X58952771Y-114030476D02*
X58990866Y-113954285D01*
X58762295Y-114906667D02*
X58762295Y-114982857D01*
X58762295Y-114982857D02*
X58800390Y-115059048D01*
X58800390Y-115059048D02*
X58838485Y-115097143D01*
X58838485Y-115097143D02*
X58914676Y-115135238D01*
X58914676Y-115135238D02*
X59067057Y-115173333D01*
X59067057Y-115173333D02*
X59257533Y-115173333D01*
X59257533Y-115173333D02*
X59409914Y-115135238D01*
X59409914Y-115135238D02*
X59486104Y-115097143D01*
X59486104Y-115097143D02*
X59524200Y-115059048D01*
X59524200Y-115059048D02*
X59562295Y-114982857D01*
X59562295Y-114982857D02*
X59562295Y-114906667D01*
X59562295Y-114906667D02*
X59524200Y-114830476D01*
X59524200Y-114830476D02*
X59486104Y-114792381D01*
X59486104Y-114792381D02*
X59409914Y-114754286D01*
X59409914Y-114754286D02*
X59257533Y-114716190D01*
X59257533Y-114716190D02*
X59067057Y-114716190D01*
X59067057Y-114716190D02*
X58914676Y-114754286D01*
X58914676Y-114754286D02*
X58838485Y-114792381D01*
X58838485Y-114792381D02*
X58800390Y-114830476D01*
X58800390Y-114830476D02*
X58762295Y-114906667D01*
X58838485Y-115478095D02*
X58800390Y-115516191D01*
X58800390Y-115516191D02*
X58762295Y-115592381D01*
X58762295Y-115592381D02*
X58762295Y-115782857D01*
X58762295Y-115782857D02*
X58800390Y-115859048D01*
X58800390Y-115859048D02*
X58838485Y-115897143D01*
X58838485Y-115897143D02*
X58914676Y-115935238D01*
X58914676Y-115935238D02*
X58990866Y-115935238D01*
X58990866Y-115935238D02*
X59105152Y-115897143D01*
X59105152Y-115897143D02*
X59562295Y-115440000D01*
X59562295Y-115440000D02*
X59562295Y-115935238D01*
X58898571Y-64072295D02*
X58898571Y-64643723D01*
X58898571Y-64643723D02*
X58936666Y-64758009D01*
X58936666Y-64758009D02*
X59012857Y-64834200D01*
X59012857Y-64834200D02*
X59127142Y-64872295D01*
X59127142Y-64872295D02*
X59203333Y-64872295D01*
X58517618Y-64872295D02*
X58517618Y-64072295D01*
X58517618Y-64072295D02*
X58212856Y-64072295D01*
X58212856Y-64072295D02*
X58136666Y-64110390D01*
X58136666Y-64110390D02*
X58098571Y-64148485D01*
X58098571Y-64148485D02*
X58060475Y-64224676D01*
X58060475Y-64224676D02*
X58060475Y-64338961D01*
X58060475Y-64338961D02*
X58098571Y-64415152D01*
X58098571Y-64415152D02*
X58136666Y-64453247D01*
X58136666Y-64453247D02*
X58212856Y-64491342D01*
X58212856Y-64491342D02*
X58517618Y-64491342D01*
X57755714Y-64148485D02*
X57717618Y-64110390D01*
X57717618Y-64110390D02*
X57641428Y-64072295D01*
X57641428Y-64072295D02*
X57450952Y-64072295D01*
X57450952Y-64072295D02*
X57374761Y-64110390D01*
X57374761Y-64110390D02*
X57336666Y-64148485D01*
X57336666Y-64148485D02*
X57298571Y-64224676D01*
X57298571Y-64224676D02*
X57298571Y-64300866D01*
X57298571Y-64300866D02*
X57336666Y-64415152D01*
X57336666Y-64415152D02*
X57793809Y-64872295D01*
X57793809Y-64872295D02*
X57298571Y-64872295D01*
X56803332Y-64072295D02*
X56727142Y-64072295D01*
X56727142Y-64072295D02*
X56650951Y-64110390D01*
X56650951Y-64110390D02*
X56612856Y-64148485D01*
X56612856Y-64148485D02*
X56574761Y-64224676D01*
X56574761Y-64224676D02*
X56536666Y-64377057D01*
X56536666Y-64377057D02*
X56536666Y-64567533D01*
X56536666Y-64567533D02*
X56574761Y-64719914D01*
X56574761Y-64719914D02*
X56612856Y-64796104D01*
X56612856Y-64796104D02*
X56650951Y-64834200D01*
X56650951Y-64834200D02*
X56727142Y-64872295D01*
X56727142Y-64872295D02*
X56803332Y-64872295D01*
X56803332Y-64872295D02*
X56879523Y-64834200D01*
X56879523Y-64834200D02*
X56917618Y-64796104D01*
X56917618Y-64796104D02*
X56955713Y-64719914D01*
X56955713Y-64719914D02*
X56993809Y-64567533D01*
X56993809Y-64567533D02*
X56993809Y-64377057D01*
X56993809Y-64377057D02*
X56955713Y-64224676D01*
X56955713Y-64224676D02*
X56917618Y-64148485D01*
X56917618Y-64148485D02*
X56879523Y-64110390D01*
X56879523Y-64110390D02*
X56803332Y-64072295D01*
X55774761Y-64872295D02*
X56231904Y-64872295D01*
X56003332Y-64872295D02*
X56003332Y-64072295D01*
X56003332Y-64072295D02*
X56079523Y-64186580D01*
X56079523Y-64186580D02*
X56155713Y-64262771D01*
X56155713Y-64262771D02*
X56231904Y-64300866D01*
X60252295Y-76531428D02*
X60823723Y-76531428D01*
X60823723Y-76531428D02*
X60938009Y-76493333D01*
X60938009Y-76493333D02*
X61014200Y-76417142D01*
X61014200Y-76417142D02*
X61052295Y-76302857D01*
X61052295Y-76302857D02*
X61052295Y-76226666D01*
X61052295Y-77331428D02*
X61052295Y-76874285D01*
X61052295Y-77102857D02*
X60252295Y-77102857D01*
X60252295Y-77102857D02*
X60366580Y-77026666D01*
X60366580Y-77026666D02*
X60442771Y-76950476D01*
X60442771Y-76950476D02*
X60480866Y-76874285D01*
X60252295Y-77826667D02*
X60252295Y-77902857D01*
X60252295Y-77902857D02*
X60290390Y-77979048D01*
X60290390Y-77979048D02*
X60328485Y-78017143D01*
X60328485Y-78017143D02*
X60404676Y-78055238D01*
X60404676Y-78055238D02*
X60557057Y-78093333D01*
X60557057Y-78093333D02*
X60747533Y-78093333D01*
X60747533Y-78093333D02*
X60899914Y-78055238D01*
X60899914Y-78055238D02*
X60976104Y-78017143D01*
X60976104Y-78017143D02*
X61014200Y-77979048D01*
X61014200Y-77979048D02*
X61052295Y-77902857D01*
X61052295Y-77902857D02*
X61052295Y-77826667D01*
X61052295Y-77826667D02*
X61014200Y-77750476D01*
X61014200Y-77750476D02*
X60976104Y-77712381D01*
X60976104Y-77712381D02*
X60899914Y-77674286D01*
X60899914Y-77674286D02*
X60747533Y-77636190D01*
X60747533Y-77636190D02*
X60557057Y-77636190D01*
X60557057Y-77636190D02*
X60404676Y-77674286D01*
X60404676Y-77674286D02*
X60328485Y-77712381D01*
X60328485Y-77712381D02*
X60290390Y-77750476D01*
X60290390Y-77750476D02*
X60252295Y-77826667D01*
X60252295Y-78817143D02*
X60252295Y-78436191D01*
X60252295Y-78436191D02*
X60633247Y-78398095D01*
X60633247Y-78398095D02*
X60595152Y-78436191D01*
X60595152Y-78436191D02*
X60557057Y-78512381D01*
X60557057Y-78512381D02*
X60557057Y-78702857D01*
X60557057Y-78702857D02*
X60595152Y-78779048D01*
X60595152Y-78779048D02*
X60633247Y-78817143D01*
X60633247Y-78817143D02*
X60709438Y-78855238D01*
X60709438Y-78855238D02*
X60899914Y-78855238D01*
X60899914Y-78855238D02*
X60976104Y-78817143D01*
X60976104Y-78817143D02*
X61014200Y-78779048D01*
X61014200Y-78779048D02*
X61052295Y-78702857D01*
X61052295Y-78702857D02*
X61052295Y-78512381D01*
X61052295Y-78512381D02*
X61014200Y-78436191D01*
X61014200Y-78436191D02*
X60976104Y-78398095D01*
X101114819Y-79385714D02*
X101924342Y-79385714D01*
X101924342Y-79385714D02*
X102019580Y-79433333D01*
X102019580Y-79433333D02*
X102067200Y-79480952D01*
X102067200Y-79480952D02*
X102114819Y-79576190D01*
X102114819Y-79576190D02*
X102114819Y-79766666D01*
X102114819Y-79766666D02*
X102067200Y-79861904D01*
X102067200Y-79861904D02*
X102019580Y-79909523D01*
X102019580Y-79909523D02*
X101924342Y-79957142D01*
X101924342Y-79957142D02*
X101114819Y-79957142D01*
X101210057Y-80385714D02*
X101162438Y-80433333D01*
X101162438Y-80433333D02*
X101114819Y-80528571D01*
X101114819Y-80528571D02*
X101114819Y-80766666D01*
X101114819Y-80766666D02*
X101162438Y-80861904D01*
X101162438Y-80861904D02*
X101210057Y-80909523D01*
X101210057Y-80909523D02*
X101305295Y-80957142D01*
X101305295Y-80957142D02*
X101400533Y-80957142D01*
X101400533Y-80957142D02*
X101543390Y-80909523D01*
X101543390Y-80909523D02*
X102114819Y-80338095D01*
X102114819Y-80338095D02*
X102114819Y-80957142D01*
X101114819Y-81576190D02*
X101114819Y-81671428D01*
X101114819Y-81671428D02*
X101162438Y-81766666D01*
X101162438Y-81766666D02*
X101210057Y-81814285D01*
X101210057Y-81814285D02*
X101305295Y-81861904D01*
X101305295Y-81861904D02*
X101495771Y-81909523D01*
X101495771Y-81909523D02*
X101733866Y-81909523D01*
X101733866Y-81909523D02*
X101924342Y-81861904D01*
X101924342Y-81861904D02*
X102019580Y-81814285D01*
X102019580Y-81814285D02*
X102067200Y-81766666D01*
X102067200Y-81766666D02*
X102114819Y-81671428D01*
X102114819Y-81671428D02*
X102114819Y-81576190D01*
X102114819Y-81576190D02*
X102067200Y-81480952D01*
X102067200Y-81480952D02*
X102019580Y-81433333D01*
X102019580Y-81433333D02*
X101924342Y-81385714D01*
X101924342Y-81385714D02*
X101733866Y-81338095D01*
X101733866Y-81338095D02*
X101495771Y-81338095D01*
X101495771Y-81338095D02*
X101305295Y-81385714D01*
X101305295Y-81385714D02*
X101210057Y-81433333D01*
X101210057Y-81433333D02*
X101162438Y-81480952D01*
X101162438Y-81480952D02*
X101114819Y-81576190D01*
X101114819Y-82242857D02*
X101114819Y-82861904D01*
X101114819Y-82861904D02*
X101495771Y-82528571D01*
X101495771Y-82528571D02*
X101495771Y-82671428D01*
X101495771Y-82671428D02*
X101543390Y-82766666D01*
X101543390Y-82766666D02*
X101591009Y-82814285D01*
X101591009Y-82814285D02*
X101686247Y-82861904D01*
X101686247Y-82861904D02*
X101924342Y-82861904D01*
X101924342Y-82861904D02*
X102019580Y-82814285D01*
X102019580Y-82814285D02*
X102067200Y-82766666D01*
X102067200Y-82766666D02*
X102114819Y-82671428D01*
X102114819Y-82671428D02*
X102114819Y-82385714D01*
X102114819Y-82385714D02*
X102067200Y-82290476D01*
X102067200Y-82290476D02*
X102019580Y-82242857D01*
X113862295Y-87371428D02*
X114433723Y-87371428D01*
X114433723Y-87371428D02*
X114548009Y-87333333D01*
X114548009Y-87333333D02*
X114624200Y-87257142D01*
X114624200Y-87257142D02*
X114662295Y-87142857D01*
X114662295Y-87142857D02*
X114662295Y-87066666D01*
X114662295Y-87752381D02*
X113862295Y-87752381D01*
X113862295Y-87752381D02*
X113862295Y-88057143D01*
X113862295Y-88057143D02*
X113900390Y-88133333D01*
X113900390Y-88133333D02*
X113938485Y-88171428D01*
X113938485Y-88171428D02*
X114014676Y-88209524D01*
X114014676Y-88209524D02*
X114128961Y-88209524D01*
X114128961Y-88209524D02*
X114205152Y-88171428D01*
X114205152Y-88171428D02*
X114243247Y-88133333D01*
X114243247Y-88133333D02*
X114281342Y-88057143D01*
X114281342Y-88057143D02*
X114281342Y-87752381D01*
X113938485Y-88514285D02*
X113900390Y-88552381D01*
X113900390Y-88552381D02*
X113862295Y-88628571D01*
X113862295Y-88628571D02*
X113862295Y-88819047D01*
X113862295Y-88819047D02*
X113900390Y-88895238D01*
X113900390Y-88895238D02*
X113938485Y-88933333D01*
X113938485Y-88933333D02*
X114014676Y-88971428D01*
X114014676Y-88971428D02*
X114090866Y-88971428D01*
X114090866Y-88971428D02*
X114205152Y-88933333D01*
X114205152Y-88933333D02*
X114662295Y-88476190D01*
X114662295Y-88476190D02*
X114662295Y-88971428D01*
X113862295Y-89466667D02*
X113862295Y-89542857D01*
X113862295Y-89542857D02*
X113900390Y-89619048D01*
X113900390Y-89619048D02*
X113938485Y-89657143D01*
X113938485Y-89657143D02*
X114014676Y-89695238D01*
X114014676Y-89695238D02*
X114167057Y-89733333D01*
X114167057Y-89733333D02*
X114357533Y-89733333D01*
X114357533Y-89733333D02*
X114509914Y-89695238D01*
X114509914Y-89695238D02*
X114586104Y-89657143D01*
X114586104Y-89657143D02*
X114624200Y-89619048D01*
X114624200Y-89619048D02*
X114662295Y-89542857D01*
X114662295Y-89542857D02*
X114662295Y-89466667D01*
X114662295Y-89466667D02*
X114624200Y-89390476D01*
X114624200Y-89390476D02*
X114586104Y-89352381D01*
X114586104Y-89352381D02*
X114509914Y-89314286D01*
X114509914Y-89314286D02*
X114357533Y-89276190D01*
X114357533Y-89276190D02*
X114167057Y-89276190D01*
X114167057Y-89276190D02*
X114014676Y-89314286D01*
X114014676Y-89314286D02*
X113938485Y-89352381D01*
X113938485Y-89352381D02*
X113900390Y-89390476D01*
X113900390Y-89390476D02*
X113862295Y-89466667D01*
X113862295Y-90000000D02*
X113862295Y-90495238D01*
X113862295Y-90495238D02*
X114167057Y-90228572D01*
X114167057Y-90228572D02*
X114167057Y-90342857D01*
X114167057Y-90342857D02*
X114205152Y-90419048D01*
X114205152Y-90419048D02*
X114243247Y-90457143D01*
X114243247Y-90457143D02*
X114319438Y-90495238D01*
X114319438Y-90495238D02*
X114509914Y-90495238D01*
X114509914Y-90495238D02*
X114586104Y-90457143D01*
X114586104Y-90457143D02*
X114624200Y-90419048D01*
X114624200Y-90419048D02*
X114662295Y-90342857D01*
X114662295Y-90342857D02*
X114662295Y-90114286D01*
X114662295Y-90114286D02*
X114624200Y-90038095D01*
X114624200Y-90038095D02*
X114586104Y-90000000D01*
X69305713Y-98554819D02*
X69305713Y-97554819D01*
X69305713Y-97554819D02*
X68972380Y-98269104D01*
X68972380Y-98269104D02*
X68639047Y-97554819D01*
X68639047Y-97554819D02*
X68639047Y-98554819D01*
X67972380Y-97554819D02*
X67781904Y-97554819D01*
X67781904Y-97554819D02*
X67686666Y-97602438D01*
X67686666Y-97602438D02*
X67591428Y-97697676D01*
X67591428Y-97697676D02*
X67543809Y-97888152D01*
X67543809Y-97888152D02*
X67543809Y-98221485D01*
X67543809Y-98221485D02*
X67591428Y-98411961D01*
X67591428Y-98411961D02*
X67686666Y-98507200D01*
X67686666Y-98507200D02*
X67781904Y-98554819D01*
X67781904Y-98554819D02*
X67972380Y-98554819D01*
X67972380Y-98554819D02*
X68067618Y-98507200D01*
X68067618Y-98507200D02*
X68162856Y-98411961D01*
X68162856Y-98411961D02*
X68210475Y-98221485D01*
X68210475Y-98221485D02*
X68210475Y-97888152D01*
X68210475Y-97888152D02*
X68162856Y-97697676D01*
X68162856Y-97697676D02*
X68067618Y-97602438D01*
X68067618Y-97602438D02*
X67972380Y-97554819D01*
X67115237Y-98554819D02*
X67115237Y-97554819D01*
X67115237Y-97554819D02*
X66877142Y-97554819D01*
X66877142Y-97554819D02*
X66734285Y-97602438D01*
X66734285Y-97602438D02*
X66639047Y-97697676D01*
X66639047Y-97697676D02*
X66591428Y-97792914D01*
X66591428Y-97792914D02*
X66543809Y-97983390D01*
X66543809Y-97983390D02*
X66543809Y-98126247D01*
X66543809Y-98126247D02*
X66591428Y-98316723D01*
X66591428Y-98316723D02*
X66639047Y-98411961D01*
X66639047Y-98411961D02*
X66734285Y-98507200D01*
X66734285Y-98507200D02*
X66877142Y-98554819D01*
X66877142Y-98554819D02*
X67115237Y-98554819D01*
X66162856Y-97650057D02*
X66115237Y-97602438D01*
X66115237Y-97602438D02*
X66019999Y-97554819D01*
X66019999Y-97554819D02*
X65781904Y-97554819D01*
X65781904Y-97554819D02*
X65686666Y-97602438D01*
X65686666Y-97602438D02*
X65639047Y-97650057D01*
X65639047Y-97650057D02*
X65591428Y-97745295D01*
X65591428Y-97745295D02*
X65591428Y-97840533D01*
X65591428Y-97840533D02*
X65639047Y-97983390D01*
X65639047Y-97983390D02*
X66210475Y-98554819D01*
X66210475Y-98554819D02*
X65591428Y-98554819D01*
X64972380Y-97554819D02*
X64877142Y-97554819D01*
X64877142Y-97554819D02*
X64781904Y-97602438D01*
X64781904Y-97602438D02*
X64734285Y-97650057D01*
X64734285Y-97650057D02*
X64686666Y-97745295D01*
X64686666Y-97745295D02*
X64639047Y-97935771D01*
X64639047Y-97935771D02*
X64639047Y-98173866D01*
X64639047Y-98173866D02*
X64686666Y-98364342D01*
X64686666Y-98364342D02*
X64734285Y-98459580D01*
X64734285Y-98459580D02*
X64781904Y-98507200D01*
X64781904Y-98507200D02*
X64877142Y-98554819D01*
X64877142Y-98554819D02*
X64972380Y-98554819D01*
X64972380Y-98554819D02*
X65067618Y-98507200D01*
X65067618Y-98507200D02*
X65115237Y-98459580D01*
X65115237Y-98459580D02*
X65162856Y-98364342D01*
X65162856Y-98364342D02*
X65210475Y-98173866D01*
X65210475Y-98173866D02*
X65210475Y-97935771D01*
X65210475Y-97935771D02*
X65162856Y-97745295D01*
X65162856Y-97745295D02*
X65115237Y-97650057D01*
X65115237Y-97650057D02*
X65067618Y-97602438D01*
X65067618Y-97602438D02*
X64972380Y-97554819D01*
X63686666Y-98554819D02*
X64258094Y-98554819D01*
X63972380Y-98554819D02*
X63972380Y-97554819D01*
X63972380Y-97554819D02*
X64067618Y-97697676D01*
X64067618Y-97697676D02*
X64162856Y-97792914D01*
X64162856Y-97792914D02*
X64258094Y-97840533D01*
X49014819Y-78944285D02*
X49729104Y-78944285D01*
X49729104Y-78944285D02*
X49871961Y-78896666D01*
X49871961Y-78896666D02*
X49967200Y-78801428D01*
X49967200Y-78801428D02*
X50014819Y-78658571D01*
X50014819Y-78658571D02*
X50014819Y-78563333D01*
X50014819Y-79944285D02*
X50014819Y-79372857D01*
X50014819Y-79658571D02*
X49014819Y-79658571D01*
X49014819Y-79658571D02*
X49157676Y-79563333D01*
X49157676Y-79563333D02*
X49252914Y-79468095D01*
X49252914Y-79468095D02*
X49300533Y-79372857D01*
X49014819Y-80563333D02*
X49014819Y-80658571D01*
X49014819Y-80658571D02*
X49062438Y-80753809D01*
X49062438Y-80753809D02*
X49110057Y-80801428D01*
X49110057Y-80801428D02*
X49205295Y-80849047D01*
X49205295Y-80849047D02*
X49395771Y-80896666D01*
X49395771Y-80896666D02*
X49633866Y-80896666D01*
X49633866Y-80896666D02*
X49824342Y-80849047D01*
X49824342Y-80849047D02*
X49919580Y-80801428D01*
X49919580Y-80801428D02*
X49967200Y-80753809D01*
X49967200Y-80753809D02*
X50014819Y-80658571D01*
X50014819Y-80658571D02*
X50014819Y-80563333D01*
X50014819Y-80563333D02*
X49967200Y-80468095D01*
X49967200Y-80468095D02*
X49919580Y-80420476D01*
X49919580Y-80420476D02*
X49824342Y-80372857D01*
X49824342Y-80372857D02*
X49633866Y-80325238D01*
X49633866Y-80325238D02*
X49395771Y-80325238D01*
X49395771Y-80325238D02*
X49205295Y-80372857D01*
X49205295Y-80372857D02*
X49110057Y-80420476D01*
X49110057Y-80420476D02*
X49062438Y-80468095D01*
X49062438Y-80468095D02*
X49014819Y-80563333D01*
X49014819Y-81230000D02*
X49014819Y-81896666D01*
X49014819Y-81896666D02*
X50014819Y-81468095D01*
X95178571Y-69362295D02*
X95178571Y-69933723D01*
X95178571Y-69933723D02*
X95216666Y-70048009D01*
X95216666Y-70048009D02*
X95292857Y-70124200D01*
X95292857Y-70124200D02*
X95407142Y-70162295D01*
X95407142Y-70162295D02*
X95483333Y-70162295D01*
X94797618Y-70162295D02*
X94797618Y-69362295D01*
X94797618Y-69362295D02*
X94492856Y-69362295D01*
X94492856Y-69362295D02*
X94416666Y-69400390D01*
X94416666Y-69400390D02*
X94378571Y-69438485D01*
X94378571Y-69438485D02*
X94340475Y-69514676D01*
X94340475Y-69514676D02*
X94340475Y-69628961D01*
X94340475Y-69628961D02*
X94378571Y-69705152D01*
X94378571Y-69705152D02*
X94416666Y-69743247D01*
X94416666Y-69743247D02*
X94492856Y-69781342D01*
X94492856Y-69781342D02*
X94797618Y-69781342D01*
X94035714Y-69438485D02*
X93997618Y-69400390D01*
X93997618Y-69400390D02*
X93921428Y-69362295D01*
X93921428Y-69362295D02*
X93730952Y-69362295D01*
X93730952Y-69362295D02*
X93654761Y-69400390D01*
X93654761Y-69400390D02*
X93616666Y-69438485D01*
X93616666Y-69438485D02*
X93578571Y-69514676D01*
X93578571Y-69514676D02*
X93578571Y-69590866D01*
X93578571Y-69590866D02*
X93616666Y-69705152D01*
X93616666Y-69705152D02*
X94073809Y-70162295D01*
X94073809Y-70162295D02*
X93578571Y-70162295D01*
X93083332Y-69362295D02*
X93007142Y-69362295D01*
X93007142Y-69362295D02*
X92930951Y-69400390D01*
X92930951Y-69400390D02*
X92892856Y-69438485D01*
X92892856Y-69438485D02*
X92854761Y-69514676D01*
X92854761Y-69514676D02*
X92816666Y-69667057D01*
X92816666Y-69667057D02*
X92816666Y-69857533D01*
X92816666Y-69857533D02*
X92854761Y-70009914D01*
X92854761Y-70009914D02*
X92892856Y-70086104D01*
X92892856Y-70086104D02*
X92930951Y-70124200D01*
X92930951Y-70124200D02*
X93007142Y-70162295D01*
X93007142Y-70162295D02*
X93083332Y-70162295D01*
X93083332Y-70162295D02*
X93159523Y-70124200D01*
X93159523Y-70124200D02*
X93197618Y-70086104D01*
X93197618Y-70086104D02*
X93235713Y-70009914D01*
X93235713Y-70009914D02*
X93273809Y-69857533D01*
X93273809Y-69857533D02*
X93273809Y-69667057D01*
X93273809Y-69667057D02*
X93235713Y-69514676D01*
X93235713Y-69514676D02*
X93197618Y-69438485D01*
X93197618Y-69438485D02*
X93159523Y-69400390D01*
X93159523Y-69400390D02*
X93083332Y-69362295D01*
X92130951Y-69628961D02*
X92130951Y-70162295D01*
X92321427Y-69324200D02*
X92511904Y-69895628D01*
X92511904Y-69895628D02*
X92016665Y-69895628D01*
D11*
%TO.C,W101*%
X95309624Y-108230232D02*
X95183658Y-108576320D01*
X97177917Y-103067899D02*
X97051951Y-103413988D01*
D12*
X98636208Y-101905656D02*
G75*
G02*
X96559924Y-101905656I-1038142J0D01*
G01*
X96559924Y-101905656D02*
G75*
G02*
X98636208Y-101905656I1038142J0D01*
G01*
D15*
%TO.C,J102*%
X50715000Y-113380000D02*
X50715000Y-114710000D01*
X52045000Y-113380000D02*
X50715000Y-113380000D01*
X53315000Y-113380000D02*
X53315000Y-116040000D01*
X53315000Y-113380000D02*
X58455000Y-113380000D01*
X53315000Y-116040000D02*
X58455000Y-116040000D01*
X58455000Y-113380000D02*
X58455000Y-116040000D01*
%TO.C,JP201*%
X55920000Y-65830000D02*
X55920000Y-66430000D01*
X56620000Y-67130000D02*
X58020000Y-67130000D01*
X58020000Y-65130000D02*
X56620000Y-65130000D01*
X58720000Y-66430000D02*
X58720000Y-65830000D01*
X55920000Y-65830000D02*
G75*
G02*
X56620000Y-65130000I700000J0D01*
G01*
X56620000Y-67130000D02*
G75*
G02*
X55920000Y-66430000I0J700000D01*
G01*
X58020000Y-65130000D02*
G75*
G02*
X58720000Y-65830000I1J-699999D01*
G01*
X58720000Y-66430000D02*
G75*
G02*
X58020000Y-67130000I-699999J-1D01*
G01*
%TO.C,J105*%
X49722500Y-76420000D02*
X49722500Y-77750000D01*
X51052500Y-76420000D02*
X49722500Y-76420000D01*
X52322500Y-76420000D02*
X52322500Y-79080000D01*
X52322500Y-76420000D02*
X60002500Y-76420000D01*
X52322500Y-79080000D02*
X60002500Y-79080000D01*
X60002500Y-76420000D02*
X60002500Y-79080000D01*
%TO.C,U203*%
X102660000Y-75980000D02*
X102660000Y-86220000D01*
X102660000Y-75980000D02*
X118550000Y-75980000D01*
X102660000Y-86220000D02*
X118550000Y-86220000D01*
X118550000Y-75980000D02*
X118550000Y-86220000D01*
X118550000Y-78560000D02*
X121090000Y-78560000D01*
X118550000Y-81100000D02*
X121090000Y-81100000D01*
X118550000Y-83640000D02*
X121090000Y-83640000D01*
%TO.C,JP203*%
X115100000Y-89500000D02*
X115100000Y-88100000D01*
X115800000Y-87400000D02*
X116400000Y-87400000D01*
X116400000Y-90200000D02*
X115800000Y-90200000D01*
X117100000Y-88100000D02*
X117100000Y-89500000D01*
X115100000Y-88100000D02*
G75*
G02*
X115800000Y-87400000I699999J1D01*
G01*
X115800000Y-90200000D02*
G75*
G02*
X115100000Y-89500000I0J700000D01*
G01*
X116400000Y-87400000D02*
G75*
G02*
X117100000Y-88100000I1J-699999D01*
G01*
X117100000Y-89500000D02*
G75*
G02*
X116400000Y-90200000I-700000J0D01*
G01*
%TO.C,MOD201*%
X61247500Y-97220000D02*
X61247500Y-94560000D01*
X68927500Y-94560000D02*
X61247500Y-94560000D01*
X68927500Y-97220000D02*
X61247500Y-97220000D01*
X68927500Y-97220000D02*
X68927500Y-94560000D01*
X70197500Y-97220000D02*
X71527500Y-97220000D01*
X71527500Y-97220000D02*
X71527500Y-95890000D01*
%TO.C,J107*%
X46362500Y-82689167D02*
X50102500Y-82689167D01*
X48102500Y-82449167D02*
X50342500Y-82449167D01*
X50102500Y-82689167D02*
X50102500Y-96135833D01*
X50102500Y-96135833D02*
X46362500Y-96135833D01*
X50342500Y-82449167D02*
X50342500Y-86642500D01*
%TO.C,JP204*%
X92350000Y-67700000D02*
X92350000Y-68300000D01*
X93050000Y-69000000D02*
X94450000Y-69000000D01*
X94450000Y-67000000D02*
X93050000Y-67000000D01*
X95150000Y-68300000D02*
X95150000Y-67700000D01*
X92350000Y-67700000D02*
G75*
G02*
X93050000Y-67000000I699999J1D01*
G01*
X93050000Y-69000000D02*
G75*
G02*
X92350000Y-68300000I-1J699999D01*
G01*
X94450000Y-67000000D02*
G75*
G02*
X95150000Y-67700000I0J-700000D01*
G01*
X95150000Y-68300000D02*
G75*
G02*
X94450000Y-69000000I-700000J0D01*
G01*
%TD*%
M02*
