%TF.GenerationSoftware,KiCad,Pcbnew,(6.0.4-0)*%
%TF.CreationDate,2023-11-25T15:00:21-05:00*%
%TF.ProjectId,SignalSlinger,5369676e-616c-4536-9c69-6e6765722e6b,rev?*%
%TF.SameCoordinates,Original*%
%TF.FileFunction,Paste,Top*%
%TF.FilePolarity,Positive*%
%FSLAX46Y46*%
G04 Gerber Fmt 4.6, Leading zero omitted, Abs format (unit mm)*
G04 Created by KiCad (PCBNEW (6.0.4-0)) date 2023-11-25 15:00:21*
%MOMM*%
%LPD*%
G01*
G04 APERTURE LIST*
G04 Aperture macros list*
%AMRoundRect*
0 Rectangle with rounded corners*
0 $1 Rounding radius*
0 $2 $3 $4 $5 $6 $7 $8 $9 X,Y pos of 4 corners*
0 Add a 4 corners polygon primitive as box body*
4,1,4,$2,$3,$4,$5,$6,$7,$8,$9,$2,$3,0*
0 Add four circle primitives for the rounded corners*
1,1,$1+$1,$2,$3*
1,1,$1+$1,$4,$5*
1,1,$1+$1,$6,$7*
1,1,$1+$1,$8,$9*
0 Add four rect primitives between the rounded corners*
20,1,$1+$1,$2,$3,$4,$5,0*
20,1,$1+$1,$4,$5,$6,$7,0*
20,1,$1+$1,$6,$7,$8,$9,0*
20,1,$1+$1,$8,$9,$2,$3,0*%
G04 Aperture macros list end*
%ADD10R,0.230000X0.230000*%
%ADD11O,0.800000X0.230000*%
%ADD12R,0.230000X0.600000*%
%ADD13R,0.650000X0.900000*%
%ADD14R,0.150000X0.600000*%
%ADD15RoundRect,0.218750X-0.218750X-0.256250X0.218750X-0.256250X0.218750X0.256250X-0.218750X0.256250X0*%
%ADD16RoundRect,0.250000X-0.262500X-0.450000X0.262500X-0.450000X0.262500X0.450000X-0.262500X0.450000X0*%
%ADD17RoundRect,0.250000X0.337500X0.475000X-0.337500X0.475000X-0.337500X-0.475000X0.337500X-0.475000X0*%
%ADD18RoundRect,0.150000X-0.150000X0.400000X-0.150000X-0.400000X0.150000X-0.400000X0.150000X0.400000X0*%
%ADD19RoundRect,0.243750X0.456250X-0.243750X0.456250X0.243750X-0.456250X0.243750X-0.456250X-0.243750X0*%
%ADD20RoundRect,0.250000X-0.475000X0.250000X-0.475000X-0.250000X0.475000X-0.250000X0.475000X0.250000X0*%
%ADD21RoundRect,0.250000X0.450000X-0.262500X0.450000X0.262500X-0.450000X0.262500X-0.450000X-0.262500X0*%
%ADD22R,1.500000X4.200000*%
%ADD23R,0.600000X0.700000*%
%ADD24R,2.500000X1.800000*%
%ADD25RoundRect,0.218750X0.218750X0.256250X-0.218750X0.256250X-0.218750X-0.256250X0.218750X-0.256250X0*%
%ADD26R,1.000000X3.150000*%
%ADD27RoundRect,0.250000X0.475000X-0.250000X0.475000X0.250000X-0.475000X0.250000X-0.475000X-0.250000X0*%
%ADD28R,0.470000X0.600000*%
%ADD29R,3.300000X4.400000*%
%ADD30R,3.900000X6.200000*%
%ADD31RoundRect,0.250000X-0.450000X0.262500X-0.450000X-0.262500X0.450000X-0.262500X0.450000X0.262500X0*%
%ADD32RoundRect,0.250000X0.475000X-0.337500X0.475000X0.337500X-0.475000X0.337500X-0.475000X-0.337500X0*%
%ADD33RoundRect,0.250000X-0.337500X-0.475000X0.337500X-0.475000X0.337500X0.475000X-0.337500X0.475000X0*%
%ADD34RoundRect,0.250000X0.250000X0.475000X-0.250000X0.475000X-0.250000X-0.475000X0.250000X-0.475000X0*%
%ADD35R,0.700000X0.600000*%
%ADD36C,0.250000*%
%ADD37RoundRect,0.250000X-0.475000X0.337500X-0.475000X-0.337500X0.475000X-0.337500X0.475000X0.337500X0*%
%ADD38RoundRect,0.150000X-0.400000X-0.150000X0.400000X-0.150000X0.400000X0.150000X-0.400000X0.150000X0*%
%ADD39RoundRect,0.250000X-0.250000X-0.475000X0.250000X-0.475000X0.250000X0.475000X-0.250000X0.475000X0*%
%ADD40R,1.100000X3.700000*%
%ADD41R,1.000000X0.900000*%
%ADD42RoundRect,0.150000X0.875000X0.150000X-0.875000X0.150000X-0.875000X-0.150000X0.875000X-0.150000X0*%
%ADD43RoundRect,0.250000X0.262500X0.450000X-0.262500X0.450000X-0.262500X-0.450000X0.262500X-0.450000X0*%
%ADD44RoundRect,0.218750X-0.256250X0.218750X-0.256250X-0.218750X0.256250X-0.218750X0.256250X0.218750X0*%
%ADD45RoundRect,0.150000X0.400000X0.150000X-0.400000X0.150000X-0.400000X-0.150000X0.400000X-0.150000X0*%
%ADD46RoundRect,0.250000X0.312500X1.450000X-0.312500X1.450000X-0.312500X-1.450000X0.312500X-1.450000X0*%
%ADD47R,1.400000X0.300000*%
%ADD48R,2.770000X2.550000*%
%ADD49RoundRect,0.250000X0.325000X1.100000X-0.325000X1.100000X-0.325000X-1.100000X0.325000X-1.100000X0*%
%ADD50R,2.650000X2.600000*%
%ADD51R,2.600000X1.060000*%
%ADD52R,1.200000X1.000000*%
%ADD53R,3.480000X1.846667*%
G04 APERTURE END LIST*
D10*
%TO.C,U203*%
X87631000Y-76550000D03*
D11*
X87916000Y-76550000D03*
X87916000Y-77050000D03*
D10*
X87631000Y-77050000D03*
D11*
X87916000Y-77550000D03*
D10*
X87631000Y-77550000D03*
X87631000Y-78050000D03*
D11*
X87916000Y-78050000D03*
X87916000Y-78550000D03*
D10*
X87631000Y-78550000D03*
D11*
X90866000Y-78550000D03*
D10*
X91151000Y-78550000D03*
X91151000Y-78050000D03*
D11*
X90866000Y-78050000D03*
X90866000Y-77550000D03*
D10*
X91151000Y-77550000D03*
X91151000Y-77050000D03*
D11*
X90866000Y-77050000D03*
D10*
X91151000Y-76550000D03*
D11*
X90866000Y-76550000D03*
D12*
X89991000Y-76125000D03*
X89591000Y-78975000D03*
X89591000Y-76125000D03*
D13*
X89826000Y-76990000D03*
D14*
X89991000Y-76125000D03*
D13*
X88956000Y-76990000D03*
D14*
X89591000Y-78975000D03*
D12*
X89191000Y-76125000D03*
D13*
X88956000Y-78110000D03*
D14*
X89991000Y-78975000D03*
D12*
X89991000Y-78975000D03*
D13*
X89826000Y-78110000D03*
D12*
X88791000Y-76125000D03*
D14*
X89191000Y-78975000D03*
X88791000Y-76125000D03*
X89191000Y-76125000D03*
D12*
X88791000Y-78975000D03*
D14*
X88791000Y-78975000D03*
X89591000Y-76125000D03*
D12*
X89191000Y-78975000D03*
%TD*%
D15*
%TO.C,D106*%
X53472500Y-93550000D03*
X55047500Y-93550000D03*
%TD*%
D16*
%TO.C,R104*%
X64080000Y-110970000D03*
X65905000Y-110970000D03*
%TD*%
D17*
%TO.C,C102*%
X73697500Y-65560000D03*
X71622500Y-65560000D03*
%TD*%
D18*
%TO.C,U202*%
X82609792Y-100780000D03*
X81659792Y-100780000D03*
X80709792Y-100780000D03*
X80709792Y-103380000D03*
X82609792Y-103380000D03*
%TD*%
D19*
%TO.C,D103*%
X65185000Y-115237500D03*
X65185000Y-113362500D03*
%TD*%
D20*
%TO.C,C108*%
X96450000Y-105340000D03*
X96450000Y-107240000D03*
%TD*%
D21*
%TO.C,R202*%
X97920000Y-82272500D03*
X97920000Y-80447500D03*
%TD*%
D22*
%TO.C,L202*%
X87590000Y-72430000D03*
X91190000Y-72430000D03*
%TD*%
D15*
%TO.C,D110*%
X53812500Y-89090000D03*
X55387500Y-89090000D03*
%TD*%
D23*
%TO.C,D201*%
X98750000Y-71870000D03*
X96850000Y-71870000D03*
X97800000Y-73870000D03*
%TD*%
D21*
%TO.C,R103*%
X94890000Y-71542500D03*
X94890000Y-69717500D03*
%TD*%
D24*
%TO.C,D202*%
X130020000Y-77710000D03*
X126020000Y-77710000D03*
%TD*%
D25*
%TO.C,D109*%
X55407500Y-83840000D03*
X53832500Y-83840000D03*
%TD*%
D26*
%TO.C,P101*%
X79080000Y-68205000D03*
X79080000Y-63155000D03*
X81620000Y-68205000D03*
X81620000Y-63155000D03*
X84160000Y-68205000D03*
X84160000Y-63155000D03*
%TD*%
D27*
%TO.C,C301*%
X109490000Y-99650000D03*
X109490000Y-97750000D03*
%TD*%
%TO.C,C105*%
X89940000Y-101580000D03*
X89940000Y-99680000D03*
%TD*%
D17*
%TO.C,C101*%
X62397500Y-67150000D03*
X60322500Y-67150000D03*
%TD*%
D28*
%TO.C,Q102*%
X102540000Y-66760000D03*
X103840000Y-66760000D03*
X103190000Y-64860000D03*
%TD*%
D17*
%TO.C,C203*%
X72457500Y-93170000D03*
X70382500Y-93170000D03*
%TD*%
D29*
%TO.C,J201*%
X114580000Y-76260000D03*
D30*
X121730000Y-67260000D03*
X108830000Y-67260000D03*
%TD*%
D31*
%TO.C,R203*%
X93750000Y-80447500D03*
X93750000Y-82272500D03*
%TD*%
D32*
%TO.C,C210*%
X82760000Y-107217500D03*
X82760000Y-105142500D03*
%TD*%
D20*
%TO.C,C212*%
X92610000Y-76670000D03*
X92610000Y-78570000D03*
%TD*%
D27*
%TO.C,C213*%
X94650000Y-78580000D03*
X94650000Y-76680000D03*
%TD*%
D33*
%TO.C,C103*%
X60142500Y-74020000D03*
X62217500Y-74020000D03*
%TD*%
D31*
%TO.C,R106*%
X57260000Y-90007500D03*
X57260000Y-91832500D03*
%TD*%
D34*
%TO.C,C216*%
X53410000Y-63330000D03*
X51510000Y-63330000D03*
%TD*%
%TO.C,C204*%
X134930000Y-75450000D03*
X133030000Y-75450000D03*
%TD*%
%TO.C,C107*%
X87920000Y-104170000D03*
X86020000Y-104170000D03*
%TD*%
D20*
%TO.C,C211*%
X95840000Y-80440000D03*
X95840000Y-82340000D03*
%TD*%
D28*
%TO.C,Q101*%
X101060000Y-65690000D03*
X99760000Y-65690000D03*
X100410000Y-67590000D03*
%TD*%
D19*
%TO.C,D104*%
X74525000Y-115237500D03*
X74525000Y-113362500D03*
%TD*%
D35*
%TO.C,D113*%
X114780000Y-83680000D03*
X114780000Y-85080000D03*
%TD*%
D16*
%TO.C,R105*%
X73422500Y-110970000D03*
X75247500Y-110970000D03*
%TD*%
D27*
%TO.C,C205*%
X86040000Y-78650000D03*
X86040000Y-76750000D03*
%TD*%
D36*
%TO.C,X101*%
X61870000Y-69070000D03*
X62870000Y-69070000D03*
X62870000Y-68650000D03*
X61870000Y-68650000D03*
%TD*%
D27*
%TO.C,C106*%
X92100000Y-101820000D03*
X92100000Y-99920000D03*
%TD*%
D34*
%TO.C,R107*%
X94850000Y-114270000D03*
X92950000Y-114270000D03*
%TD*%
D27*
%TO.C,C215*%
X99030000Y-78530000D03*
X99030000Y-76630000D03*
%TD*%
D17*
%TO.C,C202*%
X65727500Y-89880000D03*
X63652500Y-89880000D03*
%TD*%
D20*
%TO.C,C207*%
X85160000Y-73150000D03*
X85160000Y-75050000D03*
%TD*%
D37*
%TO.C,C209*%
X80570000Y-105112500D03*
X80570000Y-107187500D03*
%TD*%
D38*
%TO.C,U204*%
X55020000Y-63180000D03*
X55020000Y-64130000D03*
X55020000Y-65080000D03*
X57620000Y-65080000D03*
X57620000Y-64130000D03*
X57620000Y-63180000D03*
%TD*%
D23*
%TO.C,D101*%
X101420000Y-69540000D03*
X102820000Y-69540000D03*
%TD*%
D16*
%TO.C,R205*%
X74627500Y-86230000D03*
X76452500Y-86230000D03*
%TD*%
D39*
%TO.C,C113*%
X125270000Y-80520000D03*
X127170000Y-80520000D03*
%TD*%
D15*
%TO.C,D112*%
X53492500Y-96250000D03*
X55067500Y-96250000D03*
%TD*%
D35*
%TO.C,D114*%
X120100000Y-82010000D03*
X120100000Y-83410000D03*
%TD*%
D34*
%TO.C,C114*%
X120310000Y-78770000D03*
X118410000Y-78770000D03*
%TD*%
D39*
%TO.C,C109*%
X93160000Y-96540000D03*
X95060000Y-96540000D03*
%TD*%
D33*
%TO.C,C201*%
X61742500Y-93460000D03*
X63817500Y-93460000D03*
%TD*%
D40*
%TO.C,L201*%
X135850000Y-78920000D03*
X132850000Y-78920000D03*
%TD*%
D41*
%TO.C,X102*%
X87530000Y-99830000D03*
X85230000Y-99830000D03*
X85230000Y-101530000D03*
X87530000Y-101530000D03*
%TD*%
D23*
%TO.C,D102*%
X97140000Y-66830000D03*
X95740000Y-66830000D03*
%TD*%
D38*
%TO.C,U103*%
X96787500Y-96650000D03*
X96787500Y-97600000D03*
X96787500Y-98550000D03*
X99387500Y-98550000D03*
X99387500Y-97600000D03*
X99387500Y-96650000D03*
%TD*%
D42*
%TO.C,U101*%
X74120000Y-84115000D03*
X74120000Y-82845000D03*
X74120000Y-81575000D03*
X74120000Y-80305000D03*
X74120000Y-79035000D03*
X74120000Y-77765000D03*
X74120000Y-76495000D03*
X74120000Y-75225000D03*
X74120000Y-73955000D03*
X74120000Y-72685000D03*
X74120000Y-71415000D03*
X74120000Y-70145000D03*
X74120000Y-68875000D03*
X74120000Y-67605000D03*
X64720000Y-67605000D03*
X64720000Y-68875000D03*
X64720000Y-70145000D03*
X64720000Y-71415000D03*
X64720000Y-72685000D03*
X64720000Y-73955000D03*
X64720000Y-75225000D03*
X64720000Y-76495000D03*
X64720000Y-77765000D03*
X64720000Y-79035000D03*
X64720000Y-80305000D03*
X64720000Y-81575000D03*
X64720000Y-82845000D03*
X64720000Y-84115000D03*
%TD*%
D25*
%TO.C,D108*%
X55367500Y-86020000D03*
X53792500Y-86020000D03*
%TD*%
D43*
%TO.C,R201*%
X86222500Y-80510000D03*
X84397500Y-80510000D03*
%TD*%
D20*
%TO.C,C104*%
X101000000Y-71170000D03*
X101000000Y-73070000D03*
%TD*%
D34*
%TO.C,R108*%
X98380000Y-114270000D03*
X96480000Y-114270000D03*
%TD*%
D44*
%TO.C,D111*%
X57700000Y-95332500D03*
X57700000Y-96907500D03*
%TD*%
D45*
%TO.C,U104*%
X102100000Y-106970000D03*
X102100000Y-106020000D03*
X102100000Y-105070000D03*
X99500000Y-105070000D03*
X99500000Y-106020000D03*
X99500000Y-106970000D03*
%TD*%
D43*
%TO.C,R204*%
X80562500Y-72100000D03*
X78737500Y-72100000D03*
%TD*%
D46*
%TO.C,F201*%
X137327500Y-72310000D03*
X133052500Y-72310000D03*
%TD*%
D47*
%TO.C,U102*%
X89990000Y-103750000D03*
X89990000Y-104250000D03*
X89990000Y-104750000D03*
X89990000Y-105250000D03*
X89990000Y-105750000D03*
X94390000Y-105750000D03*
X94390000Y-105250000D03*
X94390000Y-104750000D03*
X94390000Y-104250000D03*
X94390000Y-103750000D03*
%TD*%
D25*
%TO.C,D105*%
X55027500Y-90800000D03*
X53452500Y-90800000D03*
%TD*%
D48*
%TO.C,C111*%
X117670000Y-113460000D03*
X124130000Y-113460000D03*
%TD*%
D49*
%TO.C,C110*%
X102055000Y-109480000D03*
X99105000Y-109480000D03*
%TD*%
D37*
%TO.C,C206*%
X82560000Y-97022500D03*
X82560000Y-99097500D03*
%TD*%
D20*
%TO.C,C208*%
X91700000Y-80430000D03*
X91700000Y-82330000D03*
%TD*%
D43*
%TO.C,R101*%
X101432500Y-63030000D03*
X99607500Y-63030000D03*
%TD*%
D27*
%TO.C,C214*%
X96880000Y-78520000D03*
X96880000Y-76620000D03*
%TD*%
D50*
%TO.C,D107*%
X91340000Y-90510000D03*
X88310000Y-90510000D03*
X91340000Y-93510000D03*
X88310000Y-93510000D03*
D51*
X96380000Y-94296000D03*
X96380000Y-89724000D03*
%TD*%
D16*
%TO.C,R102*%
X96937500Y-69680000D03*
X98762500Y-69680000D03*
%TD*%
D39*
%TO.C,C112*%
X101870000Y-116330000D03*
X103770000Y-116330000D03*
%TD*%
D52*
%TO.C,SW101*%
X84990000Y-115030000D03*
X79390000Y-115030000D03*
X79390000Y-116730000D03*
X84990000Y-116730000D03*
%TD*%
D45*
%TO.C,U201*%
X68340000Y-93700000D03*
X68340000Y-92750000D03*
X68340000Y-91800000D03*
X65740000Y-91800000D03*
X65740000Y-93700000D03*
%TD*%
D53*
%TO.C,J107*%
X48102500Y-85257500D03*
X48102500Y-88027500D03*
X48102500Y-90797500D03*
X48102500Y-93567500D03*
%TD*%
M02*
