M48
; DRILL file {KiCad 9.0.4} date 2025-09-17T14:29:54-0400
; FORMAT={-:-/ absolute / inch / decimal}
; #@! TF.CreationDate,2025-09-17T14:29:54-04:00
; #@! TF.GenerationSoftware,Kicad,Pcbnew,9.0.4
; #@! TF.FileFunction,Plated,1,4,PTH
FMAT,2
INCH
; #@! TA.AperFunction,Plated,PTH,ViaDrill
T1C0.0157
; #@! TA.AperFunction,Plated,PTH,ComponentDrill
T2C0.0157
; #@! TA.AperFunction,Plated,PTH,ViaDrill
T3C0.0236
; #@! TA.AperFunction,Plated,PTH,ComponentDrill
T4C0.0256
; #@! TA.AperFunction,Plated,PTH,ComponentDrill
T5C0.0276
; #@! TA.AperFunction,Plated,PTH,ComponentDrill
T6C0.0350
; #@! TA.AperFunction,Plated,PTH,ComponentDrill
T7C0.0394
; #@! TA.AperFunction,Plated,PTH,ComponentDrill
T8C0.0394
; #@! TA.AperFunction,Plated,PTH,ComponentDrill
T9C0.0400
; #@! TA.AperFunction,Plated,PTH,ComponentDrill
T10C0.0433
; #@! TA.AperFunction,Plated,PTH,ComponentDrill
T11C0.0512
; #@! TA.AperFunction,Plated,PTH,ComponentDrill
T12C0.0791
; #@! TA.AperFunction,Plated,PTH,ComponentDrill
T13C0.1378
%
G90
G05
T1
X1.9657Y-3.9524
X1.9669Y-3.848
X1.9677Y-4.448
X1.9677Y-4.5343
X1.9685Y-4.6311
X1.9689Y-4.0602
X1.9689Y-4.3539
X1.9697Y-3.2283
X1.9705Y-3.1508
X1.972Y-2.9831
X1.9728Y-2.6815
X1.9744Y-2.4094
X1.9744Y-2.5343
X1.9949Y-3.6831
X1.9986Y-3.7195
X2.0277Y-3.5046
X2.0374Y-3.5827
X2.0382Y-3.3306
X2.0571Y-4.6311
X2.072Y-3.748
X2.0732Y-3.2398
X2.0735Y-3.3644
X2.0819Y-2.4094
X2.1Y-3.4476
X2.1063Y-3.6303
X2.1402Y-3.4681
X2.1492Y-3.8374
X2.1559Y-4.6299
X2.1815Y-3.1492
X2.1831Y-3.2543
X2.1961Y-2.4094
X2.2004Y-3.6146
X2.2087Y-3.874
X2.2146Y-3.7598
X2.2156Y-3.5073
X2.2244Y-3.7106
X2.2315Y-3.6709
X2.2343Y-3.3608
X2.2441Y-2.7965
X2.2461Y-3.4118
X2.2539Y-3.872
X2.2543Y-4.6291
X2.2638Y-3.1567
X2.2768Y-3.2461
X2.2854Y-3.2996
X2.2897Y-3.6503
X2.2917Y-3.4433
X2.2925Y-3.3618
X2.2951Y-3.5803
X2.3002Y-3.5151
X2.3106Y-2.4094
X2.3381Y-3.5044
X2.3622Y-4.6291
X2.3701Y-2.5118
X2.3858Y-3.6315
X2.386Y-3.7179
X2.411Y-3.2901
X2.4193Y-3.5531
X2.4236Y-3.3913
X2.4248Y-2.4083
X2.4264Y-3.3445
X2.4545Y-3.5876
X2.4685Y-4.6283
X2.4705Y-3.3535
X2.4961Y-3.0394
X2.502Y-2.5217
X2.5087Y-3.4262
X2.5343Y-3.926
X2.5374Y-2.4083
X2.5472Y-3.0394
X2.5831Y-4.6287
X2.5965Y-4.2894
X2.5984Y-3.926
X2.5984Y-4.1323
X2.6406Y-2.4071
X2.6425Y-3.7087
X2.643Y-3.6473
X2.6811Y-3.1575
X2.6811Y-3.2836
X2.6929Y-3.0866
X2.6965Y-4.6287
X2.698Y-2.4071
X2.7217Y-4.1961
X2.7315Y-4.1173
X2.739Y-2.4815
X2.7533Y-2.5412
X2.8106Y-3.623
X2.8169Y-4.6287
X2.8236Y-2.5807
X2.8358Y-4.1146
X2.8371Y-3.3725
X2.8748Y-3.8205
X2.8819Y-3.4173
X2.9006Y-3.9673
X2.9122Y-3.7354
X2.9134Y-4.2835
X2.9173Y-3.5394
X2.9232Y-3.9248
X2.9264Y-2.5825
X2.9378Y-4.6272
X2.9437Y-3.2265
X2.9537Y-4.1147
X2.9567Y-3.0866
X2.9606Y-3.1457
X2.9882Y-3.5394
X2.989Y-3.8217
X2.9984Y-3.8677
X3.0185Y-3.9657
X3.0307Y-4.6264
X3.0354Y-3.1339
X3.0394Y-2.5815
X3.0827Y-3.2953
X3.1063Y-3.5591
X3.1221Y-2.5485
X3.1228Y-3.8913
X3.1295Y-2.4815
X3.1307Y-3.8146
X3.1602Y-3.8409
X3.1787Y-2.4071
X3.1851Y-3.7956
X3.1886Y-4.6264
X3.189Y-3.2874
X3.1906Y-3.8913
X3.215Y-4.0189
X3.2209Y-3.3105
X3.2244Y-3.2657
X3.2283Y-2.8819
X3.2441Y-3.4528
X3.2502Y-4.0197
X3.2589Y-3.2287
X3.2744Y-2.4067
X3.2819Y-4.6295
X3.2874Y-3.0906
X3.2953Y-3.5512
X3.3086Y-4.156
X3.3159Y-3.2406
X3.3355Y-4.183
X3.3366Y-3.1988
X3.3602Y-3.8697
X3.373Y-3.4478
X3.3858Y-3.5512
X3.3957Y-3.1004
X3.3984Y-2.4067
X3.4081Y-3.2179
X3.4197Y-3.8646
X3.4252Y-3.0709
X3.4405Y-3.1855
X3.4433Y-4.6252
X3.4449Y-3.3071
X3.4535Y-4.0445
X3.4591Y-3.7669
X3.4646Y-4.1831
X3.4716Y-3.8216
X3.485Y-3.8626
X3.4929Y-3.7343
X3.4941Y-3.9575
X3.4949Y-4.0406
X3.4965Y-4.6201
X3.5252Y-2.4026
X3.5433Y-2.9173
X3.5438Y-4.2219
X3.5807Y-3.961
X3.5819Y-3.7382
X3.5858Y-3.8957
X3.6075Y-4.161
X3.6091Y-3.8287
X3.613Y-4.0886
X3.6421Y-2.4039
X3.665Y-4.1819
X3.6654Y-3.874
X3.6654Y-4.124
X3.6665Y-4.0559
X3.6669Y-2.8209
X3.6713Y-2.6181
X3.7106Y-2.6181
X3.7276Y-4.0146
X3.748Y-3.9094
X3.7508Y-2.4031
X3.7551Y-4.6409
X3.7638Y-3.8673
X3.7697Y-2.4402
X3.7732Y-3.9559
X3.7756Y-3.1181
X3.7844Y-2.997
X3.7894Y-2.6772
X3.8024Y-3.5953
X3.8115Y-3.9192
X3.8189Y-2.9626
X3.8193Y-4.3732
X3.8201Y-4.3
X3.8287Y-2.4402
X3.8287Y-2.687
X3.8496Y-4.6409
X3.8501Y-2.8338
X3.8575Y-2.4059
X3.8606Y-4.0835
X3.8634Y-4.4094
X3.8744Y-3.928
X3.9177Y-4.0256
X3.9189Y-3.9693
X3.9189Y-4.0886
X3.9213Y-2.8008
X3.9213Y-3.1181
X3.9287Y-3.4539
X3.9431Y-4.6417
X3.9441Y-2.726
X3.9681Y-3.6355
X3.9764Y-2.4028
X4.015Y-3.4527
X4.0217Y-4.6413
X4.0283Y-3.8394
X4.0453Y-2.7953
X4.0508Y-2.8508
X4.0524Y-3.6351
X4.0528Y-2.9228
X4.0598Y-3.0646
X4.0602Y-3.3791
X4.061Y-3.1378
X4.061Y-3.2362
X4.0614Y-3.0021
X4.0634Y-3.3073
X4.072Y-4.3512
X4.0835Y-3.8677
X4.0858Y-2.4031
X4.1075Y-2.5854
X4.1154Y-4.4193
X4.1248Y-4.6413
X4.1283Y-2.6772
X4.1305Y-3.6203
X4.1382Y-3.8146
X4.1402Y-2.9228
X4.1402Y-3.0021
X4.1402Y-3.0646
X4.1402Y-3.3073
X4.1402Y-3.3791
X4.1516Y-2.6295
X4.1555Y-4.3413
X4.1583Y-4.152
X4.1764Y-2.5063
X4.1843Y-3.7752
X4.1965Y-3.4559
X4.1992Y-2.4031
X4.2024Y-3.6689
X4.2185Y-4.6413
X4.2374Y-2.9228
X4.2374Y-3.0021
X4.2374Y-3.0646
X4.2374Y-3.3073
X4.239Y-3.378
X4.2441Y-3.8213
X4.2587Y-3.6087
X4.2744Y-4.0323
X4.2819Y-3.4567
X4.3079Y-2.402
X4.315Y-4.6402
X4.3181Y-3.6433
X4.3185Y-3.9673
X4.3213Y-3.5512
X4.322Y-2.9228
X4.3234Y-3.0021
X4.3234Y-3.0646
X4.3234Y-3.1543
X4.3234Y-3.2374
X4.3234Y-3.3073
X4.3244Y-3.3791
X4.3583Y-2.8031
X4.3803Y-3.4945
X4.3909Y-3.6472
X4.3941Y-3.8346
X4.4002Y-3.9748
X4.4004Y-3.0021
X4.4016Y-2.9331
X4.402Y-4.0339
X4.4035Y-4.0937
X4.4067Y-4.1516
X4.4067Y-4.2189
X4.4094Y-3.5531
X4.4134Y-2.7244
X4.4291Y-2.4035
X4.4331Y-2.8758
X4.4339Y-3.7866
X4.437Y-4.2835
X4.4409Y-4.639
X4.4543Y-3.9406
X4.4571Y-4.0606
X4.4685Y-3.3839
X4.4724Y-2.7835
X4.4772Y-3.7445
X4.4949Y-3.8972
X4.5157Y-3.3839
X4.5173Y-3.8453
X4.5335Y-3.7587
X4.5394Y-2.4047
X4.5472Y-2.8626
X4.5571Y-4.2248
X4.561Y-3.8083
X4.5776Y-4.6366
X4.5846Y-4.0248
X4.5953Y-2.8988
X4.6Y-3.8402
X4.6067Y-3.9772
X4.6181Y-3.0748
X4.6342Y-3.9407
X4.6343Y-3.8689
X4.6413Y-2.9626
X4.6673Y-2.4047
X4.6787Y-4.2689
X4.6819Y-3.2445
X4.685Y-4.0004
X4.6929Y-3.8445
X4.7008Y-4.0531
X4.7138Y-4.6346
X4.7291Y-2.964
X4.7291Y-3.0437
X4.7311Y-3.8035
X4.7484Y-2.8579
X4.7488Y-3.2445
X4.763Y-3.9409
X4.764Y-4.065
X4.7748Y-3.7638
X4.7866Y-3.8961
X4.789Y-2.4047
X4.7894Y-2.8965
X4.8012Y-4.2689
X4.8164Y-3.8558
X4.8366Y-3.7693
X4.8366Y-4.0661
X4.8591Y-3.8118
X4.8626Y-4.0213
X4.8654Y-4.6366
X4.8713Y-4.3409
X4.8882Y-3.8495
X4.9031Y-2.4047
X4.9199Y-3.7575
X4.9199Y-3.813
X4.9199Y-3.6935
X4.9252Y-4.0437
X4.9453Y-3.6508
X4.9752Y-3.9071
X4.9803Y-3.5795
X4.9803Y-3.6193
X4.9835Y-3.837
X4.985Y-3.7673
X4.9925Y-3.7079
X4.9933Y-4.6346
X4.9976Y-3.0811
X4.9984Y-4.0386
X5.0012Y-3.1291
X5.0039Y-4.3803
X5.0193Y-3.0472
X5.0197Y-2.4024
X5.0307Y-3.6654
X5.0441Y-3.6217
X5.0579Y-3.5744
X5.113Y-2.5894
X5.1142Y-2.4035
X5.1142Y-2.6764
X5.1146Y-4.537
X5.1146Y-4.6366
X5.1154Y-2.4969
X5.1165Y-4.4114
X5.2209Y-2.7563
X5.2366Y-4.2657
X5.335Y-2.7563
X5.3543Y-4.2677
X5.4665Y-3.9992
X5.4701Y-2.7646
X5.4705Y-3.5874
X5.4705Y-3.8598
X5.4724Y-3.45
X5.4724Y-4.1402
X5.4732Y-3.3409
X5.4732Y-3.726
X5.4744Y-4.2697
X5.4752Y-2.8634
T2
X3.7352Y-4.3082
X3.8429Y-4.0122
T3
X3.8697Y-2.576
T4
X3.9535Y-4.4406
X4.0035Y-4.4406
X4.086Y-4.2161
X4.136Y-4.2161
X4.186Y-4.2161
T5
X4.2902Y-4.0925
X4.2902Y-4.1925
X4.7449Y-3.4614
X4.7488Y-3.5539
X4.8449Y-3.4614
X4.8488Y-3.5539
T6
X5.0108Y-3.4202
X5.0108Y-3.5202
T7
X2.0099Y-3.061
X2.049Y-4.5161
X2.0697Y-2.5065
X2.0697Y-2.6065
X2.1099Y-3.061
X2.149Y-4.5161
X2.2099Y-3.061
X2.249Y-4.5161
X2.3099Y-3.061
X2.3976Y-2.7022
X2.3976Y-2.8022
X2.4122Y-4.4008
X2.4122Y-4.5008
X2.4637Y-3.7752
X2.5637Y-3.7752
X2.6637Y-3.7752
X2.7637Y-3.7752
X2.772Y-4.4008
X2.772Y-4.5008
X3.0791Y-4.3577
X3.1791Y-4.3577
X3.3488Y-4.3632
X3.4488Y-4.3632
X3.6122Y-4.5937
X3.7122Y-4.5937
X3.8122Y-4.5937
X3.9122Y-4.5937
T8
X4.0778Y-4.0782
X4.1421Y-4.0016
X4.2064Y-3.925
T9
X4.2642Y-4.2854
X4.2642Y-4.5217
X4.3626Y-4.2854
X4.3626Y-4.5217
X4.402Y-3.9016
X4.5594Y-3.9016
X4.702Y-3.913
X4.8594Y-3.913
T10
X4.8126Y-3.0929
X4.8126Y-3.1929
X4.8126Y-3.2929
T11
X2.7165Y-2.7165
X2.8543Y-2.7165
X2.9921Y-2.7165
X3.1299Y-2.7165
T12
X5.2108Y-3.3202
X5.2108Y-3.7202
T13
X2.0415Y-2.8327
X2.0415Y-4.2077
X5.0415Y-2.8327
X5.0415Y-4.2077
M30
