%TF.GenerationSoftware,KiCad,Pcbnew,(6.0.4-0)*%
%TF.CreationDate,2024-06-13T10:53:39-04:00*%
%TF.ProjectId,SignalSlinger,5369676e-616c-4536-9c69-6e6765722e6b,rev?*%
%TF.SameCoordinates,Original*%
%TF.FileFunction,Legend,Bot*%
%TF.FilePolarity,Positive*%
%FSLAX46Y46*%
G04 Gerber Fmt 4.6, Leading zero omitted, Abs format (unit mm)*
G04 Created by KiCad (PCBNEW (6.0.4-0)) date 2024-06-13 10:53:39*
%MOMM*%
%LPD*%
G01*
G04 APERTURE LIST*
%ADD10C,0.150000*%
%ADD11C,0.250000*%
%ADD12C,0.100000*%
%ADD13C,0.125000*%
%ADD14C,0.120000*%
G04 APERTURE END LIST*
D10*
X53621904Y-88852380D02*
X53050476Y-88852380D01*
X53336190Y-89852380D02*
X53336190Y-88852380D01*
X52812380Y-88852380D02*
X52145714Y-89852380D01*
X52145714Y-88852380D02*
X52812380Y-89852380D01*
X51764761Y-89852380D02*
X51764761Y-88852380D01*
X51526666Y-88852380D01*
X51383809Y-88900000D01*
X51288571Y-88995238D01*
X51240952Y-89090476D01*
X51193333Y-89280952D01*
X51193333Y-89423809D01*
X51240952Y-89614285D01*
X51288571Y-89709523D01*
X51383809Y-89804761D01*
X51526666Y-89852380D01*
X51764761Y-89852380D01*
X51746190Y-92068571D02*
X52079523Y-92068571D01*
X52079523Y-92592380D02*
X52079523Y-91592380D01*
X51603333Y-91592380D01*
X51222380Y-92211428D02*
X50460476Y-92211428D01*
X50841428Y-92592380D02*
X50841428Y-91830476D01*
X90372380Y-109072380D02*
X90372380Y-108072380D01*
X89991428Y-108072380D01*
X89896190Y-108120000D01*
X89848571Y-108167619D01*
X89800952Y-108262857D01*
X89800952Y-108405714D01*
X89848571Y-108500952D01*
X89896190Y-108548571D01*
X89991428Y-108596190D01*
X90372380Y-108596190D01*
X88943809Y-108405714D02*
X88943809Y-109072380D01*
X89372380Y-108405714D02*
X89372380Y-108929523D01*
X89324761Y-109024761D01*
X89229523Y-109072380D01*
X89086666Y-109072380D01*
X88991428Y-109024761D01*
X88943809Y-108977142D01*
X88515238Y-109024761D02*
X88420000Y-109072380D01*
X88229523Y-109072380D01*
X88134285Y-109024761D01*
X88086666Y-108929523D01*
X88086666Y-108881904D01*
X88134285Y-108786666D01*
X88229523Y-108739047D01*
X88372380Y-108739047D01*
X88467619Y-108691428D01*
X88515238Y-108596190D01*
X88515238Y-108548571D01*
X88467619Y-108453333D01*
X88372380Y-108405714D01*
X88229523Y-108405714D01*
X88134285Y-108453333D01*
X87658095Y-109072380D02*
X87658095Y-108072380D01*
X87229523Y-109072380D02*
X87229523Y-108548571D01*
X87277142Y-108453333D01*
X87372380Y-108405714D01*
X87515238Y-108405714D01*
X87610476Y-108453333D01*
X87658095Y-108500952D01*
X86753333Y-109072380D02*
X86753333Y-108072380D01*
X86753333Y-108453333D02*
X86658095Y-108405714D01*
X86467619Y-108405714D01*
X86372380Y-108453333D01*
X86324761Y-108500952D01*
X86277142Y-108596190D01*
X86277142Y-108881904D01*
X86324761Y-108977142D01*
X86372380Y-109024761D01*
X86467619Y-109072380D01*
X86658095Y-109072380D01*
X86753333Y-109024761D01*
X85420000Y-108405714D02*
X85420000Y-109072380D01*
X85848571Y-108405714D02*
X85848571Y-108929523D01*
X85800952Y-109024761D01*
X85705714Y-109072380D01*
X85562857Y-109072380D01*
X85467619Y-109024761D01*
X85420000Y-108977142D01*
X85086666Y-108405714D02*
X84705714Y-108405714D01*
X84943809Y-108072380D02*
X84943809Y-108929523D01*
X84896190Y-109024761D01*
X84800952Y-109072380D01*
X84705714Y-109072380D01*
X84515238Y-108405714D02*
X84134285Y-108405714D01*
X84372380Y-108072380D02*
X84372380Y-108929523D01*
X84324761Y-109024761D01*
X84229523Y-109072380D01*
X84134285Y-109072380D01*
X83658095Y-109072380D02*
X83753333Y-109024761D01*
X83800952Y-108977142D01*
X83848571Y-108881904D01*
X83848571Y-108596190D01*
X83800952Y-108500952D01*
X83753333Y-108453333D01*
X83658095Y-108405714D01*
X83515238Y-108405714D01*
X83420000Y-108453333D01*
X83372380Y-108500952D01*
X83324761Y-108596190D01*
X83324761Y-108881904D01*
X83372380Y-108977142D01*
X83420000Y-109024761D01*
X83515238Y-109072380D01*
X83658095Y-109072380D01*
X82896190Y-108405714D02*
X82896190Y-109072380D01*
X82896190Y-108500952D02*
X82848571Y-108453333D01*
X82753333Y-108405714D01*
X82610476Y-108405714D01*
X82515238Y-108453333D01*
X82467619Y-108548571D01*
X82467619Y-109072380D01*
X67760000Y-110054761D02*
X67712380Y-109959523D01*
X67712380Y-109816666D01*
X67760000Y-109673809D01*
X67855238Y-109578571D01*
X67950476Y-109530952D01*
X68140952Y-109483333D01*
X68283809Y-109483333D01*
X68474285Y-109530952D01*
X68569523Y-109578571D01*
X68664761Y-109673809D01*
X68712380Y-109816666D01*
X68712380Y-109911904D01*
X68664761Y-110054761D01*
X68617142Y-110102380D01*
X68283809Y-110102380D01*
X68283809Y-109911904D01*
X68712380Y-110530952D02*
X68045714Y-110530952D01*
X68236190Y-110530952D02*
X68140952Y-110578571D01*
X68093333Y-110626190D01*
X68045714Y-110721428D01*
X68045714Y-110816666D01*
X68664761Y-111530952D02*
X68712380Y-111435714D01*
X68712380Y-111245238D01*
X68664761Y-111150000D01*
X68569523Y-111102380D01*
X68188571Y-111102380D01*
X68093333Y-111150000D01*
X68045714Y-111245238D01*
X68045714Y-111435714D01*
X68093333Y-111530952D01*
X68188571Y-111578571D01*
X68283809Y-111578571D01*
X68379047Y-111102380D01*
X68664761Y-112388095D02*
X68712380Y-112292857D01*
X68712380Y-112102380D01*
X68664761Y-112007142D01*
X68569523Y-111959523D01*
X68188571Y-111959523D01*
X68093333Y-112007142D01*
X68045714Y-112102380D01*
X68045714Y-112292857D01*
X68093333Y-112388095D01*
X68188571Y-112435714D01*
X68283809Y-112435714D01*
X68379047Y-111959523D01*
X68045714Y-112864285D02*
X68712380Y-112864285D01*
X68140952Y-112864285D02*
X68093333Y-112911904D01*
X68045714Y-113007142D01*
X68045714Y-113150000D01*
X68093333Y-113245238D01*
X68188571Y-113292857D01*
X68712380Y-113292857D01*
X68712380Y-115007142D02*
X68712380Y-114530952D01*
X67712380Y-114530952D01*
X68188571Y-115340476D02*
X68188571Y-115673809D01*
X68712380Y-115816666D02*
X68712380Y-115340476D01*
X67712380Y-115340476D01*
X67712380Y-115816666D01*
X68712380Y-116245238D02*
X67712380Y-116245238D01*
X67712380Y-116483333D01*
X67760000Y-116626190D01*
X67855238Y-116721428D01*
X67950476Y-116769047D01*
X68140952Y-116816666D01*
X68283809Y-116816666D01*
X68474285Y-116769047D01*
X68569523Y-116721428D01*
X68664761Y-116626190D01*
X68712380Y-116483333D01*
X68712380Y-116245238D01*
X54150000Y-76116666D02*
X54150000Y-75416666D01*
X53983333Y-75416666D01*
X53883333Y-75450000D01*
X53816666Y-75516666D01*
X53783333Y-75583333D01*
X53750000Y-75716666D01*
X53750000Y-75816666D01*
X53783333Y-75950000D01*
X53816666Y-76016666D01*
X53883333Y-76083333D01*
X53983333Y-76116666D01*
X54150000Y-76116666D01*
X53450000Y-76116666D02*
X53450000Y-75650000D01*
X53450000Y-75416666D02*
X53483333Y-75450000D01*
X53450000Y-75483333D01*
X53416666Y-75450000D01*
X53450000Y-75416666D01*
X53450000Y-75483333D01*
X53216666Y-75650000D02*
X52950000Y-75650000D01*
X53116666Y-75416666D02*
X53116666Y-76016666D01*
X53083333Y-76083333D01*
X53016666Y-76116666D01*
X52950000Y-76116666D01*
X66241904Y-65668571D02*
X66575238Y-65668571D01*
X66575238Y-66192380D02*
X66575238Y-65192380D01*
X66099047Y-65192380D01*
X65289523Y-66192380D02*
X65289523Y-65668571D01*
X65337142Y-65573333D01*
X65432380Y-65525714D01*
X65622857Y-65525714D01*
X65718095Y-65573333D01*
X65289523Y-66144761D02*
X65384761Y-66192380D01*
X65622857Y-66192380D01*
X65718095Y-66144761D01*
X65765714Y-66049523D01*
X65765714Y-65954285D01*
X65718095Y-65859047D01*
X65622857Y-65811428D01*
X65384761Y-65811428D01*
X65289523Y-65763809D01*
X64813333Y-65525714D02*
X64813333Y-66192380D01*
X64813333Y-65620952D02*
X64765714Y-65573333D01*
X64670476Y-65525714D01*
X64527619Y-65525714D01*
X64432380Y-65573333D01*
X64384761Y-65668571D01*
X64384761Y-66192380D01*
X53126666Y-87112380D02*
X53460000Y-86636190D01*
X53698095Y-87112380D02*
X53698095Y-86112380D01*
X53317142Y-86112380D01*
X53221904Y-86160000D01*
X53174285Y-86207619D01*
X53126666Y-86302857D01*
X53126666Y-86445714D01*
X53174285Y-86540952D01*
X53221904Y-86588571D01*
X53317142Y-86636190D01*
X53698095Y-86636190D01*
X52793333Y-86112380D02*
X52126666Y-87112380D01*
X52126666Y-86112380D02*
X52793333Y-87112380D01*
X51745714Y-87112380D02*
X51745714Y-86112380D01*
X51507619Y-86112380D01*
X51364761Y-86160000D01*
X51269523Y-86255238D01*
X51221904Y-86350476D01*
X51174285Y-86540952D01*
X51174285Y-86683809D01*
X51221904Y-86874285D01*
X51269523Y-86969523D01*
X51364761Y-87064761D01*
X51507619Y-87112380D01*
X51745714Y-87112380D01*
D11*
X57261428Y-112656190D02*
X57261428Y-112989523D01*
X56737619Y-112989523D02*
X57737619Y-112989523D01*
X57737619Y-112513333D01*
X57118571Y-112132380D02*
X57118571Y-111370476D01*
X56737619Y-111751428D02*
X57499523Y-111751428D01*
D10*
X135892380Y-89752380D02*
X136225714Y-89276190D01*
X136463809Y-89752380D02*
X136463809Y-88752380D01*
X136082857Y-88752380D01*
X135987619Y-88800000D01*
X135940000Y-88847619D01*
X135892380Y-88942857D01*
X135892380Y-89085714D01*
X135940000Y-89180952D01*
X135987619Y-89228571D01*
X136082857Y-89276190D01*
X136463809Y-89276190D01*
X135130476Y-89228571D02*
X135463809Y-89228571D01*
X135463809Y-89752380D02*
X135463809Y-88752380D01*
X134987619Y-88752380D01*
X133654285Y-88752380D02*
X133463809Y-88752380D01*
X133368571Y-88800000D01*
X133273333Y-88895238D01*
X133225714Y-89085714D01*
X133225714Y-89419047D01*
X133273333Y-89609523D01*
X133368571Y-89704761D01*
X133463809Y-89752380D01*
X133654285Y-89752380D01*
X133749523Y-89704761D01*
X133844761Y-89609523D01*
X133892380Y-89419047D01*
X133892380Y-89085714D01*
X133844761Y-88895238D01*
X133749523Y-88800000D01*
X133654285Y-88752380D01*
X132368571Y-89085714D02*
X132368571Y-89752380D01*
X132797142Y-89085714D02*
X132797142Y-89609523D01*
X132749523Y-89704761D01*
X132654285Y-89752380D01*
X132511428Y-89752380D01*
X132416190Y-89704761D01*
X132368571Y-89657142D01*
X132035238Y-89085714D02*
X131654285Y-89085714D01*
X131892380Y-88752380D02*
X131892380Y-89609523D01*
X131844761Y-89704761D01*
X131749523Y-89752380D01*
X131654285Y-89752380D01*
X131320952Y-89085714D02*
X131320952Y-90085714D01*
X131320952Y-89133333D02*
X131225714Y-89085714D01*
X131035238Y-89085714D01*
X130940000Y-89133333D01*
X130892380Y-89180952D01*
X130844761Y-89276190D01*
X130844761Y-89561904D01*
X130892380Y-89657142D01*
X130940000Y-89704761D01*
X131035238Y-89752380D01*
X131225714Y-89752380D01*
X131320952Y-89704761D01*
X129987619Y-89085714D02*
X129987619Y-89752380D01*
X130416190Y-89085714D02*
X130416190Y-89609523D01*
X130368571Y-89704761D01*
X130273333Y-89752380D01*
X130130476Y-89752380D01*
X130035238Y-89704761D01*
X129987619Y-89657142D01*
X129654285Y-89085714D02*
X129273333Y-89085714D01*
X129511428Y-88752380D02*
X129511428Y-89609523D01*
X129463809Y-89704761D01*
X129368571Y-89752380D01*
X129273333Y-89752380D01*
X54748571Y-62086666D02*
X54748571Y-62420000D01*
X55272380Y-62562857D02*
X55272380Y-62086666D01*
X54272380Y-62086666D01*
X54272380Y-62562857D01*
X55272380Y-62896190D02*
X54605714Y-63420000D01*
X54605714Y-62896190D02*
X55272380Y-63420000D01*
X54605714Y-63658095D02*
X54605714Y-64039047D01*
X54272380Y-63800952D02*
X55129523Y-63800952D01*
X55224761Y-63848571D01*
X55272380Y-63943809D01*
X55272380Y-64039047D01*
X54748571Y-65467619D02*
X54748571Y-65134285D01*
X55272380Y-65134285D02*
X54272380Y-65134285D01*
X54272380Y-65610476D01*
X55272380Y-66420000D02*
X54748571Y-66420000D01*
X54653333Y-66372380D01*
X54605714Y-66277142D01*
X54605714Y-66086666D01*
X54653333Y-65991428D01*
X55224761Y-66420000D02*
X55272380Y-66324761D01*
X55272380Y-66086666D01*
X55224761Y-65991428D01*
X55129523Y-65943809D01*
X55034285Y-65943809D01*
X54939047Y-65991428D01*
X54891428Y-66086666D01*
X54891428Y-66324761D01*
X54843809Y-66420000D01*
X54605714Y-66896190D02*
X55272380Y-66896190D01*
X54700952Y-66896190D02*
X54653333Y-66943809D01*
X54605714Y-67039047D01*
X54605714Y-67181904D01*
X54653333Y-67277142D01*
X54748571Y-67324761D01*
X55272380Y-67324761D01*
X55272380Y-68562857D02*
X54272380Y-68562857D01*
X54272380Y-68943809D01*
X54320000Y-69039047D01*
X54367619Y-69086666D01*
X54462857Y-69134285D01*
X54605714Y-69134285D01*
X54700952Y-69086666D01*
X54748571Y-69039047D01*
X54796190Y-68943809D01*
X54796190Y-68562857D01*
X54605714Y-69467619D02*
X55272380Y-69658095D01*
X54796190Y-69848571D01*
X55272380Y-70039047D01*
X54605714Y-70229523D01*
X55272380Y-70610476D02*
X54605714Y-70610476D01*
X54796190Y-70610476D02*
X54700952Y-70658095D01*
X54653333Y-70705714D01*
X54605714Y-70800952D01*
X54605714Y-70896190D01*
X64765714Y-85801904D02*
X64308571Y-85801904D01*
X64537142Y-86601904D02*
X64537142Y-85801904D01*
X64041904Y-86601904D02*
X64041904Y-85801904D01*
X63775238Y-86373333D01*
X63508571Y-85801904D01*
X63508571Y-86601904D01*
D11*
X51997142Y-112616190D02*
X51997142Y-112949523D01*
X51211428Y-112949523D02*
X52711428Y-112949523D01*
X52711428Y-112473333D01*
X51782857Y-112092380D02*
X51782857Y-111330476D01*
D10*
X52911904Y-94720000D02*
X53007142Y-94672380D01*
X53150000Y-94672380D01*
X53292857Y-94720000D01*
X53388095Y-94815238D01*
X53435714Y-94910476D01*
X53483333Y-95100952D01*
X53483333Y-95243809D01*
X53435714Y-95434285D01*
X53388095Y-95529523D01*
X53292857Y-95624761D01*
X53150000Y-95672380D01*
X53054761Y-95672380D01*
X52911904Y-95624761D01*
X52864285Y-95577142D01*
X52864285Y-95243809D01*
X53054761Y-95243809D01*
X52435714Y-95672380D02*
X52435714Y-94672380D01*
X51864285Y-95672380D01*
X51864285Y-94672380D01*
X51388095Y-95672380D02*
X51388095Y-94672380D01*
X51150000Y-94672380D01*
X51007142Y-94720000D01*
X50911904Y-94815238D01*
X50864285Y-94910476D01*
X50816666Y-95100952D01*
X50816666Y-95243809D01*
X50864285Y-95434285D01*
X50911904Y-95529523D01*
X51007142Y-95624761D01*
X51150000Y-95672380D01*
X51388095Y-95672380D01*
X57006666Y-76116666D02*
X57006666Y-75416666D01*
X56840000Y-75416666D01*
X56740000Y-75450000D01*
X56673333Y-75516666D01*
X56640000Y-75583333D01*
X56606666Y-75716666D01*
X56606666Y-75816666D01*
X56640000Y-75950000D01*
X56673333Y-76016666D01*
X56740000Y-76083333D01*
X56840000Y-76116666D01*
X57006666Y-76116666D01*
X56006666Y-76116666D02*
X56006666Y-75750000D01*
X56040000Y-75683333D01*
X56106666Y-75650000D01*
X56240000Y-75650000D01*
X56306666Y-75683333D01*
X56006666Y-76083333D02*
X56073333Y-76116666D01*
X56240000Y-76116666D01*
X56306666Y-76083333D01*
X56340000Y-76016666D01*
X56340000Y-75950000D01*
X56306666Y-75883333D01*
X56240000Y-75850000D01*
X56073333Y-75850000D01*
X56006666Y-75816666D01*
X55673333Y-76116666D02*
X55673333Y-75416666D01*
X55373333Y-76116666D02*
X55373333Y-75750000D01*
X55406666Y-75683333D01*
X55473333Y-75650000D01*
X55573333Y-75650000D01*
X55640000Y-75683333D01*
X55673333Y-75716666D01*
X81541428Y-112463571D02*
X81398571Y-112511190D01*
X81350952Y-112558809D01*
X81303333Y-112654047D01*
X81303333Y-112796904D01*
X81350952Y-112892142D01*
X81398571Y-112939761D01*
X81493809Y-112987380D01*
X81874761Y-112987380D01*
X81874761Y-111987380D01*
X81541428Y-111987380D01*
X81446190Y-112035000D01*
X81398571Y-112082619D01*
X81350952Y-112177857D01*
X81350952Y-112273095D01*
X81398571Y-112368333D01*
X81446190Y-112415952D01*
X81541428Y-112463571D01*
X81874761Y-112463571D01*
X80446190Y-112987380D02*
X80446190Y-112463571D01*
X80493809Y-112368333D01*
X80589047Y-112320714D01*
X80779523Y-112320714D01*
X80874761Y-112368333D01*
X80446190Y-112939761D02*
X80541428Y-112987380D01*
X80779523Y-112987380D01*
X80874761Y-112939761D01*
X80922380Y-112844523D01*
X80922380Y-112749285D01*
X80874761Y-112654047D01*
X80779523Y-112606428D01*
X80541428Y-112606428D01*
X80446190Y-112558809D01*
X80112857Y-112320714D02*
X79731904Y-112320714D01*
X79970000Y-111987380D02*
X79970000Y-112844523D01*
X79922380Y-112939761D01*
X79827142Y-112987380D01*
X79731904Y-112987380D01*
X79541428Y-112320714D02*
X79160476Y-112320714D01*
X79398571Y-111987380D02*
X79398571Y-112844523D01*
X79350952Y-112939761D01*
X79255714Y-112987380D01*
X79160476Y-112987380D01*
X78446190Y-112939761D02*
X78541428Y-112987380D01*
X78731904Y-112987380D01*
X78827142Y-112939761D01*
X78874761Y-112844523D01*
X78874761Y-112463571D01*
X78827142Y-112368333D01*
X78731904Y-112320714D01*
X78541428Y-112320714D01*
X78446190Y-112368333D01*
X78398571Y-112463571D01*
X78398571Y-112558809D01*
X78874761Y-112654047D01*
X77970000Y-112987380D02*
X77970000Y-112320714D01*
X77970000Y-112511190D02*
X77922380Y-112415952D01*
X77874761Y-112368333D01*
X77779523Y-112320714D01*
X77684285Y-112320714D01*
X77446190Y-112320714D02*
X77208095Y-112987380D01*
X76970000Y-112320714D02*
X77208095Y-112987380D01*
X77303333Y-113225476D01*
X77350952Y-113273095D01*
X77446190Y-113320714D01*
X81684285Y-114549761D02*
X81541428Y-114597380D01*
X81303333Y-114597380D01*
X81208095Y-114549761D01*
X81160476Y-114502142D01*
X81112857Y-114406904D01*
X81112857Y-114311666D01*
X81160476Y-114216428D01*
X81208095Y-114168809D01*
X81303333Y-114121190D01*
X81493809Y-114073571D01*
X81589047Y-114025952D01*
X81636666Y-113978333D01*
X81684285Y-113883095D01*
X81684285Y-113787857D01*
X81636666Y-113692619D01*
X81589047Y-113645000D01*
X81493809Y-113597380D01*
X81255714Y-113597380D01*
X81112857Y-113645000D01*
X80779523Y-113930714D02*
X80589047Y-114597380D01*
X80398571Y-114121190D01*
X80208095Y-114597380D01*
X80017619Y-113930714D01*
X79636666Y-114597380D02*
X79636666Y-113930714D01*
X79636666Y-113597380D02*
X79684285Y-113645000D01*
X79636666Y-113692619D01*
X79589047Y-113645000D01*
X79636666Y-113597380D01*
X79636666Y-113692619D01*
X79303333Y-113930714D02*
X78922380Y-113930714D01*
X79160476Y-113597380D02*
X79160476Y-114454523D01*
X79112857Y-114549761D01*
X79017619Y-114597380D01*
X78922380Y-114597380D01*
X78160476Y-114549761D02*
X78255714Y-114597380D01*
X78446190Y-114597380D01*
X78541428Y-114549761D01*
X78589047Y-114502142D01*
X78636666Y-114406904D01*
X78636666Y-114121190D01*
X78589047Y-114025952D01*
X78541428Y-113978333D01*
X78446190Y-113930714D01*
X78255714Y-113930714D01*
X78160476Y-113978333D01*
X77731904Y-114597380D02*
X77731904Y-113597380D01*
X77303333Y-114597380D02*
X77303333Y-114073571D01*
X77350952Y-113978333D01*
X77446190Y-113930714D01*
X77589047Y-113930714D01*
X77684285Y-113978333D01*
X77731904Y-114025952D01*
X53040952Y-84182380D02*
X53040952Y-83182380D01*
X52802857Y-83182380D01*
X52660000Y-83230000D01*
X52564761Y-83325238D01*
X52517142Y-83420476D01*
X52469523Y-83610952D01*
X52469523Y-83753809D01*
X52517142Y-83944285D01*
X52564761Y-84039523D01*
X52660000Y-84134761D01*
X52802857Y-84182380D01*
X53040952Y-84182380D01*
X52040952Y-84182380D02*
X52040952Y-83182380D01*
X51707619Y-83182380D02*
X51136190Y-83182380D01*
X51421904Y-84182380D02*
X51421904Y-83182380D01*
X100616666Y-115132380D02*
X100616666Y-114132380D01*
X100188095Y-114227619D02*
X100140476Y-114180000D01*
X100045238Y-114132380D01*
X99807142Y-114132380D01*
X99711904Y-114180000D01*
X99664285Y-114227619D01*
X99616666Y-114322857D01*
X99616666Y-114418095D01*
X99664285Y-114560952D01*
X100235714Y-115132380D01*
X99616666Y-115132380D01*
X98616666Y-115037142D02*
X98664285Y-115084761D01*
X98807142Y-115132380D01*
X98902380Y-115132380D01*
X99045238Y-115084761D01*
X99140476Y-114989523D01*
X99188095Y-114894285D01*
X99235714Y-114703809D01*
X99235714Y-114560952D01*
X99188095Y-114370476D01*
X99140476Y-114275238D01*
X99045238Y-114180000D01*
X98902380Y-114132380D01*
X98807142Y-114132380D01*
X98664285Y-114180000D01*
X98616666Y-114227619D01*
X97569047Y-114132380D02*
X96997619Y-114132380D01*
X97283333Y-115132380D02*
X97283333Y-114132380D01*
X96283333Y-115084761D02*
X96378571Y-115132380D01*
X96569047Y-115132380D01*
X96664285Y-115084761D01*
X96711904Y-114989523D01*
X96711904Y-114608571D01*
X96664285Y-114513333D01*
X96569047Y-114465714D01*
X96378571Y-114465714D01*
X96283333Y-114513333D01*
X96235714Y-114608571D01*
X96235714Y-114703809D01*
X96711904Y-114799047D01*
X95854761Y-115084761D02*
X95759523Y-115132380D01*
X95569047Y-115132380D01*
X95473809Y-115084761D01*
X95426190Y-114989523D01*
X95426190Y-114941904D01*
X95473809Y-114846666D01*
X95569047Y-114799047D01*
X95711904Y-114799047D01*
X95807142Y-114751428D01*
X95854761Y-114656190D01*
X95854761Y-114608571D01*
X95807142Y-114513333D01*
X95711904Y-114465714D01*
X95569047Y-114465714D01*
X95473809Y-114513333D01*
X95140476Y-114465714D02*
X94759523Y-114465714D01*
X94997619Y-114132380D02*
X94997619Y-114989523D01*
X94950000Y-115084761D01*
X94854761Y-115132380D01*
X94759523Y-115132380D01*
X93664285Y-115132380D02*
X93664285Y-114132380D01*
X93283333Y-114132380D01*
X93188095Y-114180000D01*
X93140476Y-114227619D01*
X93092857Y-114322857D01*
X93092857Y-114465714D01*
X93140476Y-114560952D01*
X93188095Y-114608571D01*
X93283333Y-114656190D01*
X93664285Y-114656190D01*
X92521428Y-115132380D02*
X92616666Y-115084761D01*
X92664285Y-115037142D01*
X92711904Y-114941904D01*
X92711904Y-114656190D01*
X92664285Y-114560952D01*
X92616666Y-114513333D01*
X92521428Y-114465714D01*
X92378571Y-114465714D01*
X92283333Y-114513333D01*
X92235714Y-114560952D01*
X92188095Y-114656190D01*
X92188095Y-114941904D01*
X92235714Y-115037142D01*
X92283333Y-115084761D01*
X92378571Y-115132380D01*
X92521428Y-115132380D01*
X91759523Y-115132380D02*
X91759523Y-114465714D01*
X91759523Y-114132380D02*
X91807142Y-114180000D01*
X91759523Y-114227619D01*
X91711904Y-114180000D01*
X91759523Y-114132380D01*
X91759523Y-114227619D01*
X91283333Y-114465714D02*
X91283333Y-115132380D01*
X91283333Y-114560952D02*
X91235714Y-114513333D01*
X91140476Y-114465714D01*
X90997619Y-114465714D01*
X90902380Y-114513333D01*
X90854761Y-114608571D01*
X90854761Y-115132380D01*
X90521428Y-114465714D02*
X90140476Y-114465714D01*
X90378571Y-114132380D02*
X90378571Y-114989523D01*
X90330952Y-115084761D01*
X90235714Y-115132380D01*
X90140476Y-115132380D01*
X63972380Y-110770476D02*
X63496190Y-110437142D01*
X63972380Y-110199047D02*
X62972380Y-110199047D01*
X62972380Y-110580000D01*
X63020000Y-110675238D01*
X63067619Y-110722857D01*
X63162857Y-110770476D01*
X63305714Y-110770476D01*
X63400952Y-110722857D01*
X63448571Y-110675238D01*
X63496190Y-110580000D01*
X63496190Y-110199047D01*
X63924761Y-111580000D02*
X63972380Y-111484761D01*
X63972380Y-111294285D01*
X63924761Y-111199047D01*
X63829523Y-111151428D01*
X63448571Y-111151428D01*
X63353333Y-111199047D01*
X63305714Y-111294285D01*
X63305714Y-111484761D01*
X63353333Y-111580000D01*
X63448571Y-111627619D01*
X63543809Y-111627619D01*
X63639047Y-111151428D01*
X63972380Y-112484761D02*
X62972380Y-112484761D01*
X63924761Y-112484761D02*
X63972380Y-112389523D01*
X63972380Y-112199047D01*
X63924761Y-112103809D01*
X63877142Y-112056190D01*
X63781904Y-112008571D01*
X63496190Y-112008571D01*
X63400952Y-112056190D01*
X63353333Y-112103809D01*
X63305714Y-112199047D01*
X63305714Y-112389523D01*
X63353333Y-112484761D01*
X63972380Y-114199047D02*
X63972380Y-113722857D01*
X62972380Y-113722857D01*
X63448571Y-114532380D02*
X63448571Y-114865714D01*
X63972380Y-115008571D02*
X63972380Y-114532380D01*
X62972380Y-114532380D01*
X62972380Y-115008571D01*
X63972380Y-115437142D02*
X62972380Y-115437142D01*
X62972380Y-115675238D01*
X63020000Y-115818095D01*
X63115238Y-115913333D01*
X63210476Y-115960952D01*
X63400952Y-116008571D01*
X63543809Y-116008571D01*
X63734285Y-115960952D01*
X63829523Y-115913333D01*
X63924761Y-115818095D01*
X63972380Y-115675238D01*
X63972380Y-115437142D01*
X59260000Y-75973333D02*
X59160000Y-76006666D01*
X58993333Y-76006666D01*
X58926666Y-75973333D01*
X58893333Y-75940000D01*
X58860000Y-75873333D01*
X58860000Y-75806666D01*
X58893333Y-75740000D01*
X58926666Y-75706666D01*
X58993333Y-75673333D01*
X59126666Y-75640000D01*
X59193333Y-75606666D01*
X59226666Y-75573333D01*
X59260000Y-75506666D01*
X59260000Y-75440000D01*
X59226666Y-75373333D01*
X59193333Y-75340000D01*
X59126666Y-75306666D01*
X58960000Y-75306666D01*
X58860000Y-75340000D01*
X58560000Y-76006666D02*
X58560000Y-75306666D01*
X58160000Y-76006666D02*
X58460000Y-75606666D01*
X58160000Y-75306666D02*
X58560000Y-75706666D01*
D12*
%TO.C,W101*%
X97306021Y-103221141D02*
X97649325Y-103447444D01*
X97354783Y-103421320D01*
X97597208Y-103590635D01*
X97188757Y-103543322D01*
X97440855Y-104020209D02*
X97519031Y-103805422D01*
X97479943Y-103912816D02*
X97104066Y-103776008D01*
X97170792Y-103759754D01*
X97219620Y-103736985D01*
X97250548Y-103707702D01*
X96980288Y-104116087D02*
X96967258Y-104151885D01*
X96972128Y-104194197D01*
X96983512Y-104218611D01*
X97012795Y-104249539D01*
X97077876Y-104293496D01*
X97167371Y-104326070D01*
X97245481Y-104334230D01*
X97287794Y-104329360D01*
X97312207Y-104317976D01*
X97343135Y-104288693D01*
X97356165Y-104252895D01*
X97351295Y-104210582D01*
X97339911Y-104186169D01*
X97310628Y-104155241D01*
X97245547Y-104111283D01*
X97156052Y-104078710D01*
X97077942Y-104070550D01*
X97035630Y-104075419D01*
X97011216Y-104086804D01*
X96980288Y-104116087D01*
X97180269Y-104736165D02*
X97258445Y-104521378D01*
X97219357Y-104628772D02*
X96843480Y-104491964D01*
X96910206Y-104475710D01*
X96959033Y-104452942D01*
X96989961Y-104423658D01*
X95026296Y-107405213D02*
X95021426Y-107362900D01*
X95040970Y-107309204D01*
X95078413Y-107262022D01*
X95127240Y-107239253D01*
X95169553Y-107234384D01*
X95247663Y-107242543D01*
X95301360Y-107262087D01*
X95366441Y-107306045D01*
X95395724Y-107336973D01*
X95418492Y-107385800D01*
X95416847Y-107446012D01*
X95403818Y-107481810D01*
X95366375Y-107528992D01*
X95341961Y-107540376D01*
X95216669Y-107494773D01*
X95242728Y-107423178D01*
X95319127Y-107714495D02*
X94943250Y-107577687D01*
X95240951Y-107929282D01*
X94865074Y-107792474D01*
X95175804Y-108108271D02*
X94799927Y-107971463D01*
X94767354Y-108060958D01*
X94765709Y-108121169D01*
X94788477Y-108169996D01*
X94817761Y-108200925D01*
X94882841Y-108244882D01*
X94936538Y-108264426D01*
X95014649Y-108272586D01*
X95056961Y-108267716D01*
X95105788Y-108244948D01*
X95143231Y-108197766D01*
X95175804Y-108108271D01*
D13*
X95769977Y-100837192D02*
X95672257Y-101105676D01*
X96190963Y-101142444D02*
X95721117Y-100971434D01*
X95668144Y-101256204D02*
X95637627Y-101270434D01*
X95598967Y-101307038D01*
X95558250Y-101418906D01*
X95564337Y-101471797D01*
X95578568Y-101502314D01*
X95615172Y-101540974D01*
X95659919Y-101557261D01*
X95735183Y-101559317D01*
X96101387Y-101388554D01*
X95995523Y-101679411D01*
D10*
%TO.C,J102*%
X58816666Y-113740000D02*
X59316666Y-113740000D01*
X59416666Y-113706666D01*
X59483333Y-113640000D01*
X59516666Y-113540000D01*
X59516666Y-113473333D01*
X59516666Y-114440000D02*
X59516666Y-114040000D01*
X59516666Y-114240000D02*
X58816666Y-114240000D01*
X58916666Y-114173333D01*
X58983333Y-114106666D01*
X59016666Y-114040000D01*
X58816666Y-114873333D02*
X58816666Y-114940000D01*
X58850000Y-115006666D01*
X58883333Y-115040000D01*
X58950000Y-115073333D01*
X59083333Y-115106666D01*
X59250000Y-115106666D01*
X59383333Y-115073333D01*
X59450000Y-115040000D01*
X59483333Y-115006666D01*
X59516666Y-114940000D01*
X59516666Y-114873333D01*
X59483333Y-114806666D01*
X59450000Y-114773333D01*
X59383333Y-114740000D01*
X59250000Y-114706666D01*
X59083333Y-114706666D01*
X58950000Y-114740000D01*
X58883333Y-114773333D01*
X58850000Y-114806666D01*
X58816666Y-114873333D01*
X58883333Y-115373333D02*
X58850000Y-115406666D01*
X58816666Y-115473333D01*
X58816666Y-115640000D01*
X58850000Y-115706666D01*
X58883333Y-115740000D01*
X58950000Y-115773333D01*
X59016666Y-115773333D01*
X59116666Y-115740000D01*
X59516666Y-115340000D01*
X59516666Y-115773333D01*
%TO.C,JP201*%
X58720000Y-64126666D02*
X58720000Y-64626666D01*
X58753333Y-64726666D01*
X58820000Y-64793333D01*
X58920000Y-64826666D01*
X58986666Y-64826666D01*
X58386666Y-64826666D02*
X58386666Y-64126666D01*
X58120000Y-64126666D01*
X58053333Y-64160000D01*
X58020000Y-64193333D01*
X57986666Y-64260000D01*
X57986666Y-64360000D01*
X58020000Y-64426666D01*
X58053333Y-64460000D01*
X58120000Y-64493333D01*
X58386666Y-64493333D01*
X57720000Y-64193333D02*
X57686666Y-64160000D01*
X57620000Y-64126666D01*
X57453333Y-64126666D01*
X57386666Y-64160000D01*
X57353333Y-64193333D01*
X57320000Y-64260000D01*
X57320000Y-64326666D01*
X57353333Y-64426666D01*
X57753333Y-64826666D01*
X57320000Y-64826666D01*
X56886666Y-64126666D02*
X56820000Y-64126666D01*
X56753333Y-64160000D01*
X56720000Y-64193333D01*
X56686666Y-64260000D01*
X56653333Y-64393333D01*
X56653333Y-64560000D01*
X56686666Y-64693333D01*
X56720000Y-64760000D01*
X56753333Y-64793333D01*
X56820000Y-64826666D01*
X56886666Y-64826666D01*
X56953333Y-64793333D01*
X56986666Y-64760000D01*
X57020000Y-64693333D01*
X57053333Y-64560000D01*
X57053333Y-64393333D01*
X57020000Y-64260000D01*
X56986666Y-64193333D01*
X56953333Y-64160000D01*
X56886666Y-64126666D01*
X55986666Y-64826666D02*
X56386666Y-64826666D01*
X56186666Y-64826666D02*
X56186666Y-64126666D01*
X56253333Y-64226666D01*
X56320000Y-64293333D01*
X56386666Y-64326666D01*
%TO.C,J105*%
X60306666Y-76660000D02*
X60806666Y-76660000D01*
X60906666Y-76626666D01*
X60973333Y-76560000D01*
X61006666Y-76460000D01*
X61006666Y-76393333D01*
X61006666Y-77360000D02*
X61006666Y-76960000D01*
X61006666Y-77160000D02*
X60306666Y-77160000D01*
X60406666Y-77093333D01*
X60473333Y-77026666D01*
X60506666Y-76960000D01*
X60306666Y-77793333D02*
X60306666Y-77860000D01*
X60340000Y-77926666D01*
X60373333Y-77960000D01*
X60440000Y-77993333D01*
X60573333Y-78026666D01*
X60740000Y-78026666D01*
X60873333Y-77993333D01*
X60940000Y-77960000D01*
X60973333Y-77926666D01*
X61006666Y-77860000D01*
X61006666Y-77793333D01*
X60973333Y-77726666D01*
X60940000Y-77693333D01*
X60873333Y-77660000D01*
X60740000Y-77626666D01*
X60573333Y-77626666D01*
X60440000Y-77660000D01*
X60373333Y-77693333D01*
X60340000Y-77726666D01*
X60306666Y-77793333D01*
X60306666Y-78660000D02*
X60306666Y-78326666D01*
X60640000Y-78293333D01*
X60606666Y-78326666D01*
X60573333Y-78393333D01*
X60573333Y-78560000D01*
X60606666Y-78626666D01*
X60640000Y-78660000D01*
X60706666Y-78693333D01*
X60873333Y-78693333D01*
X60940000Y-78660000D01*
X60973333Y-78626666D01*
X61006666Y-78560000D01*
X61006666Y-78393333D01*
X60973333Y-78326666D01*
X60940000Y-78293333D01*
%TO.C,U203*%
X101112380Y-79385714D02*
X101921904Y-79385714D01*
X102017142Y-79433333D01*
X102064761Y-79480952D01*
X102112380Y-79576190D01*
X102112380Y-79766666D01*
X102064761Y-79861904D01*
X102017142Y-79909523D01*
X101921904Y-79957142D01*
X101112380Y-79957142D01*
X101207619Y-80385714D02*
X101160000Y-80433333D01*
X101112380Y-80528571D01*
X101112380Y-80766666D01*
X101160000Y-80861904D01*
X101207619Y-80909523D01*
X101302857Y-80957142D01*
X101398095Y-80957142D01*
X101540952Y-80909523D01*
X102112380Y-80338095D01*
X102112380Y-80957142D01*
X101112380Y-81576190D02*
X101112380Y-81671428D01*
X101160000Y-81766666D01*
X101207619Y-81814285D01*
X101302857Y-81861904D01*
X101493333Y-81909523D01*
X101731428Y-81909523D01*
X101921904Y-81861904D01*
X102017142Y-81814285D01*
X102064761Y-81766666D01*
X102112380Y-81671428D01*
X102112380Y-81576190D01*
X102064761Y-81480952D01*
X102017142Y-81433333D01*
X101921904Y-81385714D01*
X101731428Y-81338095D01*
X101493333Y-81338095D01*
X101302857Y-81385714D01*
X101207619Y-81433333D01*
X101160000Y-81480952D01*
X101112380Y-81576190D01*
X101112380Y-82242857D02*
X101112380Y-82861904D01*
X101493333Y-82528571D01*
X101493333Y-82671428D01*
X101540952Y-82766666D01*
X101588571Y-82814285D01*
X101683809Y-82861904D01*
X101921904Y-82861904D01*
X102017142Y-82814285D01*
X102064761Y-82766666D01*
X102112380Y-82671428D01*
X102112380Y-82385714D01*
X102064761Y-82290476D01*
X102017142Y-82242857D01*
%TO.C,MOD201*%
X69305714Y-98552380D02*
X69305714Y-97552380D01*
X68972380Y-98266666D01*
X68639047Y-97552380D01*
X68639047Y-98552380D01*
X67972380Y-97552380D02*
X67781904Y-97552380D01*
X67686666Y-97600000D01*
X67591428Y-97695238D01*
X67543809Y-97885714D01*
X67543809Y-98219047D01*
X67591428Y-98409523D01*
X67686666Y-98504761D01*
X67781904Y-98552380D01*
X67972380Y-98552380D01*
X68067619Y-98504761D01*
X68162857Y-98409523D01*
X68210476Y-98219047D01*
X68210476Y-97885714D01*
X68162857Y-97695238D01*
X68067619Y-97600000D01*
X67972380Y-97552380D01*
X67115238Y-98552380D02*
X67115238Y-97552380D01*
X66877142Y-97552380D01*
X66734285Y-97600000D01*
X66639047Y-97695238D01*
X66591428Y-97790476D01*
X66543809Y-97980952D01*
X66543809Y-98123809D01*
X66591428Y-98314285D01*
X66639047Y-98409523D01*
X66734285Y-98504761D01*
X66877142Y-98552380D01*
X67115238Y-98552380D01*
X66162857Y-97647619D02*
X66115238Y-97600000D01*
X66020000Y-97552380D01*
X65781904Y-97552380D01*
X65686666Y-97600000D01*
X65639047Y-97647619D01*
X65591428Y-97742857D01*
X65591428Y-97838095D01*
X65639047Y-97980952D01*
X66210476Y-98552380D01*
X65591428Y-98552380D01*
X64972380Y-97552380D02*
X64877142Y-97552380D01*
X64781904Y-97600000D01*
X64734285Y-97647619D01*
X64686666Y-97742857D01*
X64639047Y-97933333D01*
X64639047Y-98171428D01*
X64686666Y-98361904D01*
X64734285Y-98457142D01*
X64781904Y-98504761D01*
X64877142Y-98552380D01*
X64972380Y-98552380D01*
X65067619Y-98504761D01*
X65115238Y-98457142D01*
X65162857Y-98361904D01*
X65210476Y-98171428D01*
X65210476Y-97933333D01*
X65162857Y-97742857D01*
X65115238Y-97647619D01*
X65067619Y-97600000D01*
X64972380Y-97552380D01*
X63686666Y-98552380D02*
X64258095Y-98552380D01*
X63972380Y-98552380D02*
X63972380Y-97552380D01*
X64067619Y-97695238D01*
X64162857Y-97790476D01*
X64258095Y-97838095D01*
%TO.C,J107*%
X49012380Y-78944285D02*
X49726666Y-78944285D01*
X49869523Y-78896666D01*
X49964761Y-78801428D01*
X50012380Y-78658571D01*
X50012380Y-78563333D01*
X50012380Y-79944285D02*
X50012380Y-79372857D01*
X50012380Y-79658571D02*
X49012380Y-79658571D01*
X49155238Y-79563333D01*
X49250476Y-79468095D01*
X49298095Y-79372857D01*
X49012380Y-80563333D02*
X49012380Y-80658571D01*
X49060000Y-80753809D01*
X49107619Y-80801428D01*
X49202857Y-80849047D01*
X49393333Y-80896666D01*
X49631428Y-80896666D01*
X49821904Y-80849047D01*
X49917142Y-80801428D01*
X49964761Y-80753809D01*
X50012380Y-80658571D01*
X50012380Y-80563333D01*
X49964761Y-80468095D01*
X49917142Y-80420476D01*
X49821904Y-80372857D01*
X49631428Y-80325238D01*
X49393333Y-80325238D01*
X49202857Y-80372857D01*
X49107619Y-80420476D01*
X49060000Y-80468095D01*
X49012380Y-80563333D01*
X49012380Y-81230000D02*
X49012380Y-81896666D01*
X50012380Y-81468095D01*
%TO.C,JP204*%
X84360000Y-70686666D02*
X84360000Y-71186666D01*
X84393333Y-71286666D01*
X84460000Y-71353333D01*
X84560000Y-71386666D01*
X84626666Y-71386666D01*
X84026666Y-71386666D02*
X84026666Y-70686666D01*
X83760000Y-70686666D01*
X83693333Y-70720000D01*
X83660000Y-70753333D01*
X83626666Y-70820000D01*
X83626666Y-70920000D01*
X83660000Y-70986666D01*
X83693333Y-71020000D01*
X83760000Y-71053333D01*
X84026666Y-71053333D01*
X83360000Y-70753333D02*
X83326666Y-70720000D01*
X83260000Y-70686666D01*
X83093333Y-70686666D01*
X83026666Y-70720000D01*
X82993333Y-70753333D01*
X82960000Y-70820000D01*
X82960000Y-70886666D01*
X82993333Y-70986666D01*
X83393333Y-71386666D01*
X82960000Y-71386666D01*
X82526666Y-70686666D02*
X82460000Y-70686666D01*
X82393333Y-70720000D01*
X82360000Y-70753333D01*
X82326666Y-70820000D01*
X82293333Y-70953333D01*
X82293333Y-71120000D01*
X82326666Y-71253333D01*
X82360000Y-71320000D01*
X82393333Y-71353333D01*
X82460000Y-71386666D01*
X82526666Y-71386666D01*
X82593333Y-71353333D01*
X82626666Y-71320000D01*
X82660000Y-71253333D01*
X82693333Y-71120000D01*
X82693333Y-70953333D01*
X82660000Y-70820000D01*
X82626666Y-70753333D01*
X82593333Y-70720000D01*
X82526666Y-70686666D01*
X81693333Y-70920000D02*
X81693333Y-71386666D01*
X81860000Y-70653333D02*
X82026666Y-71153333D01*
X81593333Y-71153333D01*
D12*
%TO.C,W101*%
X97177917Y-103067899D02*
X97051951Y-103413988D01*
X95309624Y-108230232D02*
X95183658Y-108576320D01*
D11*
X98636208Y-101905656D02*
G75*
G03*
X98636208Y-101905656I-1038142J0D01*
G01*
D14*
%TO.C,J102*%
X53315000Y-113380000D02*
X53315000Y-116040000D01*
X53315000Y-116040000D02*
X58455000Y-116040000D01*
X58455000Y-113380000D02*
X58455000Y-116040000D01*
X50715000Y-113380000D02*
X50715000Y-114710000D01*
X52045000Y-113380000D02*
X50715000Y-113380000D01*
X53315000Y-113380000D02*
X58455000Y-113380000D01*
%TO.C,JP201*%
X55920000Y-65830000D02*
X55920000Y-66430000D01*
X58720000Y-66430000D02*
X58720000Y-65830000D01*
X56620000Y-67130000D02*
X58020000Y-67130000D01*
X58020000Y-65130000D02*
X56620000Y-65130000D01*
X58720000Y-65830000D02*
G75*
G03*
X58020000Y-65130000I-699999J1D01*
G01*
X56620000Y-65130000D02*
G75*
G03*
X55920000Y-65830000I0J-700000D01*
G01*
X55920000Y-66430000D02*
G75*
G03*
X56620000Y-67130000I700000J0D01*
G01*
X58020000Y-67130000D02*
G75*
G03*
X58720000Y-66430000I1J699999D01*
G01*
%TO.C,J105*%
X60002500Y-76420000D02*
X60002500Y-79080000D01*
X49722500Y-76420000D02*
X49722500Y-77750000D01*
X52322500Y-79080000D02*
X60002500Y-79080000D01*
X51052500Y-76420000D02*
X49722500Y-76420000D01*
X52322500Y-76420000D02*
X52322500Y-79080000D01*
X52322500Y-76420000D02*
X60002500Y-76420000D01*
%TO.C,U203*%
X118550000Y-83640000D02*
X121090000Y-83640000D01*
X118550000Y-75980000D02*
X118550000Y-86220000D01*
X102660000Y-86220000D02*
X118550000Y-86220000D01*
X102660000Y-75980000D02*
X118550000Y-75980000D01*
X118550000Y-81100000D02*
X121090000Y-81100000D01*
X102660000Y-75980000D02*
X102660000Y-86220000D01*
X118550000Y-78560000D02*
X121090000Y-78560000D01*
%TO.C,MOD201*%
X68927500Y-97220000D02*
X61247500Y-97220000D01*
X68927500Y-97220000D02*
X68927500Y-94560000D01*
X68927500Y-94560000D02*
X61247500Y-94560000D01*
X70197500Y-97220000D02*
X71527500Y-97220000D01*
X71527500Y-97220000D02*
X71527500Y-95890000D01*
X61247500Y-97220000D02*
X61247500Y-94560000D01*
%TO.C,J107*%
X48102500Y-82449167D02*
X50342500Y-82449167D01*
X50102500Y-96135833D02*
X46362500Y-96135833D01*
X46362500Y-82689167D02*
X50102500Y-82689167D01*
X50102500Y-82689167D02*
X50102500Y-96135833D01*
X50342500Y-82449167D02*
X50342500Y-86642500D01*
%TO.C,JP204*%
X84510000Y-69570000D02*
X84510000Y-68970000D01*
X82410000Y-70270000D02*
X83810000Y-70270000D01*
X83810000Y-68270000D02*
X82410000Y-68270000D01*
X81710000Y-68970000D02*
X81710000Y-69570000D01*
X84510000Y-68970000D02*
G75*
G03*
X83810000Y-68270000I-700000J0D01*
G01*
X82410000Y-68270000D02*
G75*
G03*
X81710000Y-68970000I-1J-699999D01*
G01*
X81710000Y-69570000D02*
G75*
G03*
X82410000Y-70270000I699999J-1D01*
G01*
X83810000Y-70270000D02*
G75*
G03*
X84510000Y-69570000I0J700000D01*
G01*
%TD*%
M02*
