M48
; DRILL file {KiCad (6.0.4-0)} date 
; FORMAT={-:-/ absolute / metric / decimal}
; #@! TF.CreationDate,2024-06-12T13:05:23-04:00
; #@! TF.GenerationSoftware,Kicad,Pcbnew,(6.0.4-0)
; #@! TF.FileFunction,Plated,1,4,PTH
FMAT,2
METRIC
; #@! TA.AperFunction,Plated,PTH,ComponentDrill
T1C0.331
; #@! TA.AperFunction,Plated,PTH,ViaDrill
T2C0.400
; #@! TA.AperFunction,Plated,PTH,ViaDrill
T3C0.600
; #@! TA.AperFunction,Plated,PTH,ComponentDrill
T4C0.650
; #@! TA.AperFunction,Plated,PTH,ComponentDrill
T5C0.700
; #@! TA.AperFunction,Plated,PTH,ComponentDrill
T6C0.890
; #@! TA.AperFunction,Plated,PTH,ComponentDrill
T7C1.000
; #@! TA.AperFunction,Plated,PTH,ComponentDrill
T8C1.001
; #@! TA.AperFunction,Plated,PTH,ComponentDrill
T9C1.016
; #@! TA.AperFunction,Plated,PTH,ComponentDrill
T10C1.100
; #@! TA.AperFunction,Plated,PTH,ComponentDrill
T11C2.010
%
G90
G05
T1
X94.874Y-109.428
X97.61Y-101.91
T2
X49.96Y-97.74
X49.98Y-112.98
X49.98Y-115.17
X50.0Y-117.63
X50.01Y-103.13
X50.01Y-110.59
X50.03Y-82.0
X50.05Y-80.03
X50.06Y-99.66
X50.09Y-75.77
X50.11Y-68.11
X50.15Y-61.2
X50.15Y-64.37
X50.67Y-93.55
X51.31Y-94.21
X51.65Y-89.3
X51.77Y-84.597
X52.04Y-91.522
X52.06Y-96.98
X52.25Y-117.63
X52.63Y-95.2
X52.66Y-83.86
X52.666Y-85.455
X52.77Y-92.21
X52.88Y-61.2
X53.34Y-87.57
X54.36Y-88.09
X54.59Y-97.47
X54.76Y-117.6
X55.262Y-99.052
X55.41Y-79.99
X55.45Y-82.66
X55.78Y-61.2
X55.89Y-91.81
X56.04Y-95.45
X56.1Y-98.4
X56.276Y-89.085
X56.68Y-93.24
X56.75Y-85.364
X57.0Y-71.03
X57.05Y-86.66
X57.25Y-98.35
X57.26Y-117.58
X57.5Y-80.18
X57.83Y-82.45
X58.05Y-83.81
X58.158Y-92.718
X58.21Y-87.46
X58.23Y-85.39
X58.295Y-90.94
X58.425Y-89.283
X58.69Y-61.2
X59.16Y-96.66
X59.942Y-79.518
X60.0Y-117.58
X60.1Y-63.55
X60.6Y-92.24
X60.603Y-94.434
X60.731Y-95.426
X60.94Y-70.5
X60.98Y-68.99
X61.19Y-78.57
X61.24Y-83.569
X61.37Y-81.65
X61.56Y-86.14
X61.59Y-61.17
X61.63Y-84.95
X61.74Y-90.54
X61.855Y-82.77
X61.9Y-77.86
X62.36Y-65.67
X62.58Y-91.36
X62.7Y-117.56
X62.75Y-84.08
X62.88Y-67.12
X62.992Y-76.5
X63.59Y-65.67
X64.37Y-99.72
X64.45Y-61.17
X64.79Y-66.67
X65.61Y-117.57
X65.79Y-87.88
X66.0Y-104.96
X66.31Y-85.44
X66.51Y-66.77
X66.57Y-68.32
X66.59Y-74.56
X66.6Y-69.9
X66.79Y-80.32
X67.0Y-76.65
X67.01Y-99.72
X67.07Y-61.14
X67.12Y-92.75
X67.12Y-94.2
X67.34Y-111.0
X67.5Y-90.28
X67.77Y-73.33
X68.22Y-76.72
X68.41Y-69.58
X68.49Y-117.57
X68.607Y-65.61
X68.607Y-67.48
X68.61Y-75.2
X69.13Y-106.58
X69.23Y-104.07
X69.3Y-68.38
X69.33Y-87.57
X69.564Y-88.79
X69.81Y-64.22
X69.94Y-61.14
X70.35Y-90.11
X70.65Y-63.03
X70.67Y-67.61
X70.83Y-82.87
X70.9Y-64.22
X70.94Y-88.74
X71.39Y-92.024
X71.55Y-117.57
X71.64Y-81.55
X72.002Y-76.522
X72.09Y-104.03
X72.13Y-89.92
X72.22Y-95.57
X72.51Y-62.95
X72.7Y-61.14
X72.89Y-85.42
X72.98Y-94.88
X73.02Y-97.04
X73.15Y-89.6
X73.675Y-99.74
X73.675Y-100.77
X74.19Y-86.47
X74.19Y-87.78
X74.406Y-106.78
X74.41Y-90.575
X74.62Y-117.53
X74.94Y-63.03
X75.1Y-61.14
X75.49Y-87.53
X75.52Y-92.86
X75.66Y-66.52
X75.67Y-88.81
X75.92Y-97.07
X76.1Y-84.88
X76.13Y-68.929
X76.13Y-83.74
X76.15Y-91.8
X76.16Y-98.24
X76.33Y-81.4
X76.38Y-79.66
X76.39Y-77.78
X76.54Y-93.68
X76.56Y-95.12
X76.57Y-71.17
X76.6Y-72.46
X76.67Y-100.73
X76.89Y-90.3
X76.94Y-67.28
X76.98Y-117.51
X77.33Y-98.25
X77.37Y-61.14
X78.95Y-101.24
X79.408Y-91.752
X79.52Y-96.89
X79.67Y-79.56
X79.68Y-78.36
X79.7Y-77.23
X79.89Y-98.83
X80.04Y-61.14
X80.27Y-97.56
X80.74Y-88.65
X80.84Y-93.325
X80.902Y-96.409
X80.99Y-117.51
X81.45Y-95.46
X81.66Y-102.08
X82.069Y-94.675
X82.556Y-102.1
X83.16Y-94.29
X83.17Y-61.13
X83.36Y-117.59
X83.74Y-66.14
X83.97Y-95.1
X84.038Y-105.562
X84.516Y-96.045
X84.723Y-106.247
X85.35Y-98.29
X85.576Y-93.032
X85.64Y-66.18
X85.74Y-76.18
X86.32Y-61.13
X86.36Y-106.86
X86.55Y-82.954
X86.674Y-90.091
X86.86Y-98.16
X86.95Y-91.64
X87.32Y-66.094
X87.41Y-89.246
X87.46Y-117.48
X87.69Y-105.72
X87.72Y-102.73
X87.82Y-77.57
X87.85Y-82.75
X87.86Y-95.68
X88.44Y-75.49
X88.52Y-98.11
X88.72Y-94.85
X88.75Y-100.52
X88.77Y-102.63
X88.81Y-117.35
X88.9Y-63.07
X88.97Y-66.094
X89.42Y-96.26
X89.54Y-61.025
X89.98Y-90.99
X90.09Y-80.79
X90.62Y-75.49
X90.64Y-107.57
X90.75Y-66.07
X90.95Y-100.61
X90.98Y-94.95
X91.08Y-98.95
X91.21Y-103.52
X91.23Y-105.96
X91.37Y-63.03
X91.67Y-97.25
X92.26Y-80.64
X92.51Y-61.06
X92.81Y-66.07
X93.09Y-106.22
X93.1Y-104.75
X93.13Y-103.02
X93.14Y-71.65
X93.16Y-72.93
X93.18Y-74.88
X93.86Y-88.93
X93.95Y-62.99
X93.96Y-98.18
X94.487Y-88.239
X94.56Y-66.81
X94.68Y-101.97
X94.794Y-86.435
X94.94Y-69.07
X95.03Y-99.49
X95.07Y-75.02
X95.27Y-61.04
X95.38Y-117.88
X95.486Y-88.267
X95.6Y-98.23
X95.84Y-100.48
X96.32Y-85.25
X96.58Y-91.32
X96.813Y-99.548
X96.87Y-62.92
X97.01Y-111.08
X97.03Y-109.22
X97.27Y-75.22
X97.67Y-80.15
X97.77Y-82.55
X97.78Y-117.88
X97.791Y-71.978
X97.98Y-61.11
X98.06Y-103.72
X98.13Y-112.0
X98.41Y-99.77
X99.06Y-75.85
X99.51Y-102.25
X99.54Y-100.82
X99.54Y-103.85
X99.6Y-71.14
X99.79Y-87.73
X99.91Y-80.14
X100.155Y-117.899
X100.18Y-69.24
X100.372Y-75.358
X100.79Y-92.34
X101.0Y-61.031
X101.7Y-66.5
X101.98Y-87.699
X102.15Y-117.89
X102.32Y-97.52
X102.89Y-72.41
X102.93Y-92.331
X102.94Y-74.24
X103.12Y-77.84
X103.13Y-85.83
X103.15Y-79.7
X103.15Y-82.2
X103.16Y-76.254
X103.21Y-84.005
X103.43Y-110.52
X103.72Y-98.24
X103.78Y-61.04
X104.07Y-65.67
X104.53Y-112.25
X104.77Y-117.89
X104.86Y-68.0
X104.915Y-91.955
X105.11Y-96.89
X105.16Y-74.24
X105.16Y-76.254
X105.16Y-77.84
X105.16Y-84.005
X105.16Y-85.83
X105.45Y-66.79
X105.55Y-110.27
X105.62Y-105.46
X106.08Y-63.66
X106.28Y-95.89
X106.59Y-87.78
X106.66Y-61.04
X106.74Y-93.19
X107.15Y-117.89
X107.631Y-74.24
X107.631Y-76.254
X107.631Y-77.84
X107.631Y-84.005
X107.67Y-85.8
X107.8Y-97.06
X108.17Y-91.66
X108.57Y-102.42
X108.76Y-87.8
X109.42Y-61.01
X109.6Y-117.86
X109.68Y-92.54
X109.69Y-100.77
X109.76Y-90.2
X109.78Y-74.24
X109.815Y-76.254
X109.815Y-77.84
X109.815Y-80.12
X109.815Y-82.23
X109.815Y-84.005
X109.84Y-85.83
X111.162Y-71.118
X111.26Y-88.76
X111.53Y-92.64
X111.71Y-69.45
X111.764Y-100.96
X111.77Y-76.254
X111.82Y-95.67
X111.965Y-73.045
X112.5Y-61.05
X112.77Y-87.699
X112.8Y-117.83
X112.95Y-96.83
X113.2Y-101.03
X113.203Y-70.967
X113.43Y-73.46
X114.36Y-96.94
X114.47Y-101.05
X114.49Y-86.969
X115.07Y-72.71
X115.3Y-61.08
X115.75Y-107.31
X115.915Y-96.994
X116.03Y-101.58
X116.27Y-117.77
X116.72Y-73.63
X116.76Y-98.19
X116.99Y-101.28
X117.34Y-77.48
X117.82Y-99.11
X117.89Y-75.25
X117.967Y-100.713
X118.434Y-97.276
X118.55Y-61.08
X118.92Y-82.41
X119.43Y-101.506
X119.73Y-117.72
X119.82Y-108.43
X120.12Y-75.285
X120.12Y-77.31
X120.27Y-97.09
X120.61Y-72.59
X120.62Y-82.41
X120.68Y-101.506
X121.2Y-97.528
X121.64Y-61.08
X121.65Y-73.57
X121.805Y-101.506
X121.95Y-108.43
X122.67Y-97.528
X123.51Y-102.14
X123.58Y-117.77
X123.73Y-110.26
X124.16Y-97.777
X124.54Y-61.08
X124.95Y-101.77
X124.965Y-95.44
X124.965Y-96.85
X124.966Y-93.814
X125.61Y-92.73
X125.93Y-100.65
X126.1Y-77.88
X126.45Y-113.52
X126.5Y-90.92
X126.5Y-91.93
X126.58Y-97.46
X126.62Y-95.69
X126.81Y-94.18
X126.83Y-117.72
X126.96Y-79.04
X127.19Y-98.66
X127.49Y-77.4
X127.5Y-61.02
X127.78Y-93.1
X128.12Y-91.99
X128.47Y-90.79
X129.87Y-65.77
X129.9Y-61.05
X129.9Y-67.98
X129.91Y-115.24
X129.91Y-117.77
X129.93Y-63.42
X129.96Y-112.05
X132.61Y-69.79
X133.01Y-108.35
X135.32Y-69.82
X136.0Y-108.4
X138.85Y-101.58
X138.94Y-69.97
X138.95Y-91.12
X138.95Y-98.04
X139.0Y-87.63
X139.0Y-105.16
X139.02Y-84.86
X139.02Y-94.64
X139.05Y-108.45
X139.07Y-72.73
T3
X88.26Y-91.03
X98.44Y-65.96
T4
X100.42Y-112.79
X101.69Y-112.79
X103.785Y-107.09
X105.055Y-107.09
X106.325Y-107.09
T5
X89.96Y-86.53
X89.96Y-89.07
X92.26Y-90.1
X94.8Y-90.1
X108.97Y-103.95
X108.97Y-106.49
X120.52Y-87.92
X120.62Y-90.27
X123.06Y-87.92
X123.16Y-90.27
T6
X127.275Y-86.873
X127.275Y-89.412
T7
X51.052Y-77.75
X52.045Y-114.71
X52.57Y-63.665
X52.57Y-66.205
X53.592Y-77.75
X54.585Y-114.71
X56.133Y-77.75
X57.125Y-114.71
X58.672Y-77.75
X61.27Y-111.78
X61.27Y-114.32
X62.578Y-95.89
X64.16Y-63.85
X65.117Y-95.89
X66.7Y-63.85
X67.657Y-95.89
X70.197Y-95.89
X70.41Y-111.78
X70.41Y-114.32
X78.21Y-110.685
X80.75Y-110.685
X85.06Y-110.825
X87.6Y-110.825
X91.75Y-116.68
X94.29Y-116.68
X96.83Y-116.68
X99.37Y-116.68
T8
X103.577Y-103.586
X105.21Y-101.64
X106.843Y-99.694
T9
X105.79Y-114.86
X108.29Y-108.86
X108.29Y-114.86
X110.79Y-108.86
X111.81Y-97.995
X115.81Y-99.938
X119.43Y-98.552
X123.43Y-100.495
T10
X122.24Y-78.56
X122.24Y-81.1
X122.24Y-83.64
T11
X132.355Y-84.332
X132.355Y-94.492
T0
M30
