%TF.GenerationSoftware,KiCad,Pcbnew,(6.0.4-0)*%
%TF.CreationDate,2024-04-30T21:21:56-04:00*%
%TF.ProjectId,SignalSlinger,5369676e-616c-4536-9c69-6e6765722e6b,rev?*%
%TF.SameCoordinates,Original*%
%TF.FileFunction,Soldermask,Top*%
%TF.FilePolarity,Negative*%
%FSLAX46Y46*%
G04 Gerber Fmt 4.6, Leading zero omitted, Abs format (unit mm)*
G04 Created by KiCad (PCBNEW (6.0.4-0)) date 2024-04-30 21:21:56*
%MOMM*%
%LPD*%
G01*
G04 APERTURE LIST*
G04 Aperture macros list*
%AMRoundRect*
0 Rectangle with rounded corners*
0 $1 Rounding radius*
0 $2 $3 $4 $5 $6 $7 $8 $9 X,Y pos of 4 corners*
0 Add a 4 corners polygon primitive as box body*
4,1,4,$2,$3,$4,$5,$6,$7,$8,$9,$2,$3,0*
0 Add four circle primitives for the rounded corners*
1,1,$1+$1,$2,$3*
1,1,$1+$1,$4,$5*
1,1,$1+$1,$6,$7*
1,1,$1+$1,$8,$9*
0 Add four rect primitives between the rounded corners*
20,1,$1+$1,$2,$3,$4,$5,0*
20,1,$1+$1,$4,$5,$6,$7,0*
20,1,$1+$1,$6,$7,$8,$9,0*
20,1,$1+$1,$8,$9,$2,$3,0*%
%AMHorizOval*
0 Thick line with rounded ends*
0 $1 width*
0 $2 $3 position (X,Y) of the first rounded end (center of the circle)*
0 $4 $5 position (X,Y) of the second rounded end (center of the circle)*
0 Add line between two ends*
20,1,$1,$2,$3,$4,$5,0*
0 Add two circle primitives to create the rounded ends*
1,1,$1,$2,$3*
1,1,$1,$4,$5*%
%AMRotRect*
0 Rectangle, with rotation*
0 The origin of the aperture is its center*
0 $1 length*
0 $2 width*
0 $3 Rotation angle, in degrees counterclockwise*
0 Add horizontal line*
21,1,$1,$2,0,0,$3*%
%AMOutline4P*
0 Free polygon, 4 corners , with rotation*
0 The origin of the aperture is its center*
0 number of corners: always 4*
0 $1 to $8 corner X, Y*
0 $9 Rotation angle, in degrees counterclockwise*
0 create outline with 4 corners*
4,1,4,$1,$2,$3,$4,$5,$6,$7,$8,$1,$2,$9*%
%AMFreePoly0*
4,1,22,0.500000,-0.750000,0.000000,-0.750000,0.000000,-0.745033,-0.079941,-0.743568,-0.215256,-0.701293,-0.333266,-0.622738,-0.424486,-0.514219,-0.481581,-0.384460,-0.499164,-0.250000,-0.500000,-0.250000,-0.500000,0.250000,-0.499164,0.250000,-0.499963,0.256109,-0.478152,0.396186,-0.417904,0.524511,-0.324060,0.630769,-0.204165,0.706417,-0.067858,0.745374,0.000000,0.744959,0.000000,0.750000,
0.500000,0.750000,0.500000,-0.750000,0.500000,-0.750000,$1*%
%AMFreePoly1*
4,1,20,0.000000,0.744959,0.073905,0.744508,0.209726,0.703889,0.328688,0.626782,0.421226,0.519385,0.479903,0.390333,0.500000,0.250000,0.500000,-0.250000,0.499851,-0.262216,0.476331,-0.402017,0.414519,-0.529596,0.319384,-0.634700,0.198574,-0.708877,0.061801,-0.746166,0.000000,-0.745033,0.000000,-0.750000,-0.500000,-0.750000,-0.500000,0.750000,0.000000,0.750000,0.000000,0.744959,
0.000000,0.744959,$1*%
G04 Aperture macros list end*
%ADD10R,1.700000X1.700000*%
%ADD11O,1.700000X1.700000*%
%ADD12RoundRect,0.150000X0.150000X-0.625000X0.150000X0.625000X-0.150000X0.625000X-0.150000X-0.625000X0*%
%ADD13RoundRect,0.218750X-0.218750X-0.256250X0.218750X-0.256250X0.218750X0.256250X-0.218750X0.256250X0*%
%ADD14RoundRect,0.250000X-0.262500X-0.450000X0.262500X-0.450000X0.262500X0.450000X-0.262500X0.450000X0*%
%ADD15RoundRect,0.250000X-0.250000X-0.475000X0.250000X-0.475000X0.250000X0.475000X-0.250000X0.475000X0*%
%ADD16R,1.200000X0.850000*%
%ADD17RoundRect,0.250000X0.250000X0.475000X-0.250000X0.475000X-0.250000X-0.475000X0.250000X-0.475000X0*%
%ADD18RoundRect,0.250000X-0.150000X0.400000X-0.150000X-0.400000X0.150000X-0.400000X0.150000X0.400000X0*%
%ADD19RoundRect,0.350000X-0.350000X-0.350000X0.350000X-0.350000X0.350000X0.350000X-0.350000X0.350000X0*%
%ADD20O,1.400000X1.400000*%
%ADD21RoundRect,0.243750X0.456250X-0.243750X0.456250X0.243750X-0.456250X0.243750X-0.456250X-0.243750X0*%
%ADD22RoundRect,0.250000X-0.475000X0.250000X-0.475000X-0.250000X0.475000X-0.250000X0.475000X0.250000X0*%
%ADD23RoundRect,0.250000X0.450000X-0.262500X0.450000X0.262500X-0.450000X0.262500X-0.450000X-0.262500X0*%
%ADD24R,0.600000X0.700000*%
%ADD25R,2.500000X2.300000*%
%ADD26RoundRect,0.218750X0.218750X0.256250X-0.218750X0.256250X-0.218750X-0.256250X0.218750X-0.256250X0*%
%ADD27R,1.000000X3.150000*%
%ADD28R,1.000000X1.600000*%
%ADD29R,3.300000X1.800000*%
%ADD30C,1.700000*%
%ADD31R,1.100000X1.100000*%
%ADD32C,1.524000*%
%ADD33C,0.600000*%
%ADD34RoundRect,0.250000X0.475000X-0.250000X0.475000X0.250000X-0.475000X0.250000X-0.475000X-0.250000X0*%
%ADD35R,0.470000X0.600000*%
%ADD36C,2.000000*%
%ADD37R,3.300000X4.400000*%
%ADD38R,3.900000X6.200000*%
%ADD39R,2.770000X2.550000*%
%ADD40C,3.500000*%
%ADD41RoundRect,0.250000X-0.450000X0.262500X-0.450000X-0.262500X0.450000X-0.262500X0.450000X0.262500X0*%
%ADD42Outline4P,-0.999490X-1.799590X0.999490X-1.799590X0.999490X1.799590X-0.999490X1.799590X45.000000*%
%ADD43RotRect,1.998980X3.599180X45.000000*%
%ADD44FreePoly0,180.000000*%
%ADD45FreePoly1,180.000000*%
%ADD46R,1.050000X1.000000*%
%ADD47R,0.850000X1.200000*%
%ADD48R,3.300000X2.500000*%
%ADD49RoundRect,0.220000X-0.400000X-0.150000X0.400000X-0.150000X0.400000X0.150000X-0.400000X0.150000X0*%
%ADD50C,1.400000*%
%ADD51R,2.550000X2.770000*%
%ADD52FreePoly0,90.000000*%
%ADD53FreePoly1,90.000000*%
%ADD54C,1.000000*%
%ADD55R,3.700000X1.100000*%
%ADD56R,1.000000X0.900000*%
%ADD57RoundRect,0.250000X-0.400000X-0.150000X0.400000X-0.150000X0.400000X0.150000X-0.400000X0.150000X0*%
%ADD58RoundRect,0.250000X0.875000X0.150000X-0.875000X0.150000X-0.875000X-0.150000X0.875000X-0.150000X0*%
%ADD59RoundRect,0.218750X-0.256250X0.218750X-0.256250X-0.218750X0.256250X-0.218750X0.256250X0.218750X0*%
%ADD60HorizOval,1.699260X-0.689769X0.578785X0.689769X-0.578785X0*%
%ADD61RoundRect,0.424815X1.288262X-0.526424X-0.742131X1.177278X-1.288262X0.526424X0.742131X-1.177278X0*%
%ADD62RoundRect,0.250000X0.400000X0.150000X-0.400000X0.150000X-0.400000X-0.150000X0.400000X-0.150000X0*%
%ADD63RoundRect,0.250000X0.312500X1.450000X-0.312500X1.450000X-0.312500X-1.450000X0.312500X-1.450000X0*%
%ADD64RoundRect,0.060000X-0.700000X-0.150000X0.700000X-0.150000X0.700000X0.150000X-0.700000X0.150000X0*%
%ADD65O,2.500000X1.600000*%
%ADD66O,7.000000X3.500000*%
%ADD67O,1.000000X1.000000*%
%ADD68RoundRect,0.250000X0.325000X1.100000X-0.325000X1.100000X-0.325000X-1.100000X0.325000X-1.100000X0*%
%ADD69RoundRect,0.250000X0.262500X0.450000X-0.262500X0.450000X-0.262500X-0.450000X0.262500X-0.450000X0*%
%ADD70R,1.600000X1.400000*%
%ADD71RoundRect,0.425000X-0.425000X0.425000X-0.425000X-0.425000X0.425000X-0.425000X0.425000X0.425000X0*%
%ADD72O,3.500000X3.500000*%
%ADD73R,2.000000X1.905000*%
%ADD74O,2.000000X1.905000*%
%ADD75RoundRect,0.425000X0.425000X-0.425000X0.425000X0.425000X-0.425000X0.425000X-0.425000X-0.425000X0*%
%ADD76R,3.480000X1.846667*%
G04 APERTURE END LIST*
D10*
%TO.C,J104*%
X61270000Y-114320000D03*
D11*
X61270000Y-111780000D03*
%TD*%
D12*
%TO.C,Q201*%
X90905000Y-84450000D03*
X92175000Y-84450000D03*
X93445000Y-84450000D03*
X94715000Y-84450000D03*
X94715000Y-79050000D03*
X93445000Y-79050000D03*
X92175000Y-79050000D03*
X90905000Y-79050000D03*
%TD*%
D13*
%TO.C,D106*%
X53472500Y-93550000D03*
X55047500Y-93550000D03*
%TD*%
D14*
%TO.C,R104*%
X64080000Y-110970000D03*
X65905000Y-110970000D03*
%TD*%
D15*
%TO.C,C214*%
X89100000Y-76940000D03*
X91000000Y-76940000D03*
%TD*%
D16*
%TO.C,D206*%
X63750000Y-98065000D03*
X63750000Y-101115000D03*
%TD*%
D17*
%TO.C,C102*%
X73610000Y-65560000D03*
X71710000Y-65560000D03*
%TD*%
D18*
%TO.C,U202*%
X82609792Y-100780000D03*
X81659792Y-100780000D03*
X80709792Y-100780000D03*
X80709792Y-103380000D03*
X82609792Y-103380000D03*
%TD*%
D19*
%TO.C,R1*%
X120620000Y-90270000D03*
D20*
X123160000Y-90270000D03*
%TD*%
D21*
%TO.C,D103*%
X65185000Y-115237500D03*
X65185000Y-113362500D03*
%TD*%
D22*
%TO.C,C108*%
X96450000Y-105340000D03*
X96450000Y-107240000D03*
%TD*%
D10*
%TO.C,J203*%
X52570000Y-66205000D03*
D11*
X52570000Y-63665000D03*
%TD*%
D12*
%TO.C,U206*%
X85285000Y-84450000D03*
X86555000Y-84450000D03*
X87825000Y-84450000D03*
X89095000Y-84450000D03*
X89095000Y-79050000D03*
X87825000Y-79050000D03*
X86555000Y-79050000D03*
X85285000Y-79050000D03*
%TD*%
D23*
%TO.C,R203*%
X92190000Y-88142500D03*
X92190000Y-86317500D03*
%TD*%
D13*
%TO.C,D110*%
X53812500Y-89090000D03*
X55387500Y-89090000D03*
%TD*%
D22*
%TO.C,C211*%
X85350000Y-89900000D03*
X85350000Y-91800000D03*
%TD*%
D24*
%TO.C,D201*%
X98750000Y-71870000D03*
X96850000Y-71870000D03*
X97800000Y-73870000D03*
%TD*%
D23*
%TO.C,R103*%
X94890000Y-71542500D03*
X94890000Y-69717500D03*
%TD*%
D25*
%TO.C,D202*%
X128790000Y-79170000D03*
X133090000Y-79170000D03*
%TD*%
D26*
%TO.C,D109*%
X55407500Y-83840000D03*
X53832500Y-83840000D03*
%TD*%
D27*
%TO.C,P101*%
X78230000Y-68725000D03*
X78230000Y-63675000D03*
X80770000Y-68725000D03*
X80770000Y-63675000D03*
X83310000Y-68725000D03*
X83310000Y-63675000D03*
%TD*%
D28*
%TO.C,U205*%
X71400000Y-102270000D03*
D29*
X69100000Y-108570000D03*
D28*
X69100000Y-102270000D03*
X66800000Y-102270000D03*
%TD*%
D30*
%TO.C,J101*%
X80750000Y-110685000D03*
D11*
X78210000Y-110685000D03*
%TD*%
D31*
%TO.C,D209*%
X117225000Y-82762500D03*
X117225000Y-79962500D03*
%TD*%
D32*
%TO.C,W101*%
X97610000Y-101910000D03*
D33*
X97610000Y-101910000D03*
D32*
X94873839Y-109427541D03*
D33*
X94873839Y-109427541D03*
%TD*%
D34*
%TO.C,C301*%
X109670000Y-99230000D03*
X109670000Y-97330000D03*
%TD*%
D22*
%TO.C,C213*%
X77480000Y-86580000D03*
X77480000Y-88480000D03*
%TD*%
D34*
%TO.C,C105*%
X89940000Y-101580000D03*
X89940000Y-99680000D03*
%TD*%
D15*
%TO.C,C101*%
X59640000Y-67130000D03*
X61540000Y-67130000D03*
%TD*%
D35*
%TO.C,Q102*%
X102540000Y-66760000D03*
X103840000Y-66760000D03*
X103190000Y-64860000D03*
%TD*%
D17*
%TO.C,C203*%
X72370000Y-93170000D03*
X70470000Y-93170000D03*
%TD*%
D36*
%TO.C,J201*%
X115280000Y-63460000D03*
D37*
X114580000Y-76260000D03*
D38*
X121730000Y-67260000D03*
X108830000Y-67260000D03*
%TD*%
D34*
%TO.C,C210*%
X82760000Y-107130000D03*
X82760000Y-105230000D03*
%TD*%
D22*
%TO.C,C208*%
X118440000Y-87830000D03*
X118440000Y-89730000D03*
%TD*%
D10*
%TO.C,J103*%
X87600000Y-110825000D03*
D11*
X85060000Y-110825000D03*
%TD*%
D39*
%TO.C,C215*%
X97680000Y-89020000D03*
X104140000Y-89020000D03*
%TD*%
D40*
%TO.C,REF\u002A\u002A*%
X51855000Y-71950000D03*
%TD*%
D34*
%TO.C,R202*%
X85330000Y-88310000D03*
X85330000Y-86410000D03*
%TD*%
D15*
%TO.C,C103*%
X60230000Y-74020000D03*
X62130000Y-74020000D03*
%TD*%
D41*
%TO.C,R106*%
X57260000Y-90007500D03*
X57260000Y-91832500D03*
%TD*%
D17*
%TO.C,C216*%
X57170000Y-62890000D03*
X55270000Y-62890000D03*
%TD*%
D22*
%TO.C,C204*%
X126100000Y-78760000D03*
X126100000Y-80660000D03*
%TD*%
D31*
%TO.C,D208*%
X119625000Y-83882500D03*
X119625000Y-81082500D03*
%TD*%
D17*
%TO.C,C107*%
X87920000Y-104170000D03*
X86020000Y-104170000D03*
%TD*%
D35*
%TO.C,Q101*%
X101060000Y-65690000D03*
X99760000Y-65690000D03*
X100410000Y-67590000D03*
%TD*%
D21*
%TO.C,D104*%
X74525000Y-115237500D03*
X74525000Y-113362500D03*
%TD*%
D16*
%TO.C,D204*%
X82880000Y-78062500D03*
X82880000Y-81112500D03*
%TD*%
D14*
%TO.C,R105*%
X73422500Y-110970000D03*
X75247500Y-110970000D03*
%TD*%
D42*
%TO.C,L202*%
X91670000Y-68610000D03*
D43*
X86210000Y-74070000D03*
%TD*%
D22*
%TO.C,C218*%
X64350000Y-102910000D03*
X64350000Y-104810000D03*
%TD*%
D40*
%TO.C,REF\u002A\u002A*%
X128055000Y-71950000D03*
%TD*%
D34*
%TO.C,C205*%
X77840000Y-81450000D03*
X77840000Y-79550000D03*
%TD*%
D15*
%TO.C,C304*%
X120680000Y-103330000D03*
X122580000Y-103330000D03*
%TD*%
D44*
%TO.C,JP202*%
X91420000Y-92780000D03*
D45*
X90120000Y-92780000D03*
%TD*%
D46*
%TO.C,X101*%
X59662500Y-71020000D03*
X62262500Y-71020000D03*
X62262500Y-69170000D03*
X59662500Y-69170000D03*
%TD*%
D34*
%TO.C,C106*%
X92100000Y-101820000D03*
X92100000Y-99920000D03*
%TD*%
D47*
%TO.C,D115*%
X95865000Y-93080000D03*
X98915000Y-93080000D03*
%TD*%
D17*
%TO.C,R107*%
X94850000Y-114270000D03*
X92950000Y-114270000D03*
%TD*%
%TO.C,C202*%
X65640000Y-89880000D03*
X63740000Y-89880000D03*
%TD*%
D47*
%TO.C,D203*%
X71295000Y-99760000D03*
X68245000Y-99760000D03*
%TD*%
D22*
%TO.C,C207*%
X79870000Y-72180000D03*
X79870000Y-74080000D03*
%TD*%
D16*
%TO.C,D207*%
X61350000Y-98105000D03*
X61350000Y-101155000D03*
%TD*%
D48*
%TO.C,D210*%
X98850000Y-84750000D03*
X98850000Y-77850000D03*
%TD*%
D22*
%TO.C,C209*%
X80570000Y-105200000D03*
X80570000Y-107100000D03*
%TD*%
D49*
%TO.C,U204*%
X58800000Y-62875000D03*
X58800000Y-63825000D03*
X58800000Y-64775000D03*
X61400000Y-64775000D03*
X61400000Y-63825000D03*
X61400000Y-62875000D03*
%TD*%
D24*
%TO.C,D101*%
X101420000Y-69540000D03*
X102820000Y-69540000D03*
%TD*%
D50*
%TO.C,R4*%
X89960000Y-89070000D03*
D20*
X89960000Y-86530000D03*
%TD*%
D51*
%TO.C,C212*%
X81410000Y-84280000D03*
X81410000Y-90740000D03*
%TD*%
D13*
%TO.C,D112*%
X53492500Y-96250000D03*
X55067500Y-96250000D03*
%TD*%
D52*
%TO.C,J202*%
X117120000Y-85940000D03*
D53*
X117120000Y-84640000D03*
%TD*%
D15*
%TO.C,C109*%
X93240000Y-96800000D03*
X95140000Y-96800000D03*
%TD*%
%TO.C,C201*%
X61830000Y-93460000D03*
X63730000Y-93460000D03*
%TD*%
D54*
%TO.C,JP101*%
X103785000Y-107090000D03*
X105055000Y-107090000D03*
X106325000Y-107090000D03*
%TD*%
D34*
%TO.C,C303*%
X114980000Y-104980000D03*
X114980000Y-103080000D03*
%TD*%
D55*
%TO.C,L201*%
X137220000Y-77320000D03*
X137220000Y-80320000D03*
%TD*%
D56*
%TO.C,X102*%
X87530000Y-99830000D03*
X85230000Y-99830000D03*
X85230000Y-101530000D03*
X87530000Y-101530000D03*
%TD*%
D24*
%TO.C,D102*%
X97140000Y-66830000D03*
X95740000Y-66830000D03*
%TD*%
D34*
%TO.C,C302*%
X109740000Y-95600000D03*
X109740000Y-93700000D03*
%TD*%
D57*
%TO.C,U103*%
X96787500Y-96650000D03*
X96787500Y-97600000D03*
X96787500Y-98550000D03*
X99387500Y-98550000D03*
X99387500Y-97600000D03*
X99387500Y-96650000D03*
%TD*%
D10*
%TO.C,J106*%
X70410000Y-114320000D03*
D11*
X70410000Y-111780000D03*
%TD*%
D50*
%TO.C,R2*%
X123060000Y-87920000D03*
D20*
X120520000Y-87920000D03*
%TD*%
D58*
%TO.C,U101*%
X74120000Y-84115000D03*
X74120000Y-82845000D03*
X74120000Y-81575000D03*
X74120000Y-80305000D03*
X74120000Y-79035000D03*
X74120000Y-77765000D03*
X74120000Y-76495000D03*
X74120000Y-75225000D03*
X74120000Y-73955000D03*
X74120000Y-72685000D03*
X74120000Y-71415000D03*
X74120000Y-70145000D03*
X74120000Y-68875000D03*
X74120000Y-67605000D03*
X64720000Y-67605000D03*
X64720000Y-68875000D03*
X64720000Y-70145000D03*
X64720000Y-71415000D03*
X64720000Y-72685000D03*
X64720000Y-73955000D03*
X64720000Y-75225000D03*
X64720000Y-76495000D03*
X64720000Y-77765000D03*
X64720000Y-79035000D03*
X64720000Y-80305000D03*
X64720000Y-81575000D03*
X64720000Y-82845000D03*
X64720000Y-84115000D03*
%TD*%
D26*
%TO.C,D108*%
X55367500Y-86020000D03*
X53792500Y-86020000D03*
%TD*%
D34*
%TO.C,R201*%
X87780000Y-88210000D03*
X87780000Y-86310000D03*
%TD*%
D22*
%TO.C,C104*%
X101000000Y-71170000D03*
X101000000Y-73070000D03*
%TD*%
D17*
%TO.C,R108*%
X98380000Y-114270000D03*
X96480000Y-114270000D03*
%TD*%
D59*
%TO.C,D111*%
X57700000Y-95332500D03*
X57700000Y-96907500D03*
%TD*%
D60*
%TO.C,Q103*%
X103577319Y-103585753D03*
X105210000Y-101640000D03*
D61*
X106842681Y-99694247D03*
%TD*%
D62*
%TO.C,U104*%
X102100000Y-106970000D03*
X102100000Y-106020000D03*
X102100000Y-105070000D03*
X99500000Y-105070000D03*
X99500000Y-106020000D03*
X99500000Y-106970000D03*
%TD*%
D63*
%TO.C,F201*%
X137487500Y-73050000D03*
X133212500Y-73050000D03*
%TD*%
D36*
%TO.C,L301*%
X111810000Y-97995100D03*
X115810000Y-99938200D03*
%TD*%
%TO.C,L101*%
X105790000Y-114860000D03*
X108290000Y-108860000D03*
X108290000Y-114860000D03*
X110790000Y-108860000D03*
%TD*%
D23*
%TO.C,R205*%
X76270000Y-107272500D03*
X76270000Y-105447500D03*
%TD*%
D50*
%TO.C,R109*%
X108970000Y-106490000D03*
D20*
X108970000Y-103950000D03*
%TD*%
D64*
%TO.C,U102*%
X89990000Y-103750000D03*
X89990000Y-104250000D03*
X89990000Y-104750000D03*
X89990000Y-105250000D03*
X89990000Y-105750000D03*
X94390000Y-105750000D03*
X94390000Y-105250000D03*
X94390000Y-104750000D03*
X94390000Y-104250000D03*
X94390000Y-103750000D03*
%TD*%
D47*
%TO.C,D205*%
X82935000Y-76080000D03*
X79885000Y-76080000D03*
%TD*%
D65*
%TO.C,J301*%
X127275000Y-89412500D03*
X127275000Y-86872500D03*
D66*
X132355000Y-84332500D03*
X132355000Y-94492500D03*
%TD*%
D10*
%TO.C,J204*%
X66700000Y-63850000D03*
D11*
X64160000Y-63850000D03*
%TD*%
D26*
%TO.C,D105*%
X55027500Y-90800000D03*
X53452500Y-90800000D03*
%TD*%
D39*
%TO.C,C111*%
X117670000Y-113460000D03*
X124130000Y-113460000D03*
%TD*%
D67*
%TO.C,JP102*%
X100420000Y-112790000D03*
D54*
X101690000Y-112790000D03*
%TD*%
D68*
%TO.C,C110*%
X102055000Y-109480000D03*
X99105000Y-109480000D03*
%TD*%
D22*
%TO.C,C206*%
X82560000Y-97110000D03*
X82560000Y-99010000D03*
%TD*%
D23*
%TO.C,R204*%
X76310000Y-103792500D03*
X76310000Y-101967500D03*
%TD*%
D16*
%TO.C,D107*%
X93870000Y-94965000D03*
X93870000Y-91915000D03*
%TD*%
D10*
%TO.C,TP101*%
X91750000Y-116680000D03*
D11*
X94290000Y-116680000D03*
X96830000Y-116680000D03*
X99370000Y-116680000D03*
%TD*%
D69*
%TO.C,R101*%
X101432500Y-63030000D03*
X99607500Y-63030000D03*
%TD*%
D40*
%TO.C,REF\u002A\u002A*%
X128055000Y-106875000D03*
%TD*%
D34*
%TO.C,C305*%
X119380000Y-95820000D03*
X119380000Y-93920000D03*
%TD*%
D40*
%TO.C,REF\u002A\u002A*%
X51855000Y-106875000D03*
%TD*%
D36*
%TO.C,L302*%
X123430000Y-100494900D03*
X119430000Y-98551800D03*
%TD*%
D14*
%TO.C,R102*%
X96937500Y-69680000D03*
X98762500Y-69680000D03*
%TD*%
D15*
%TO.C,C112*%
X101870000Y-116330000D03*
X103770000Y-116330000D03*
%TD*%
D50*
%TO.C,R3*%
X92260000Y-90100000D03*
D20*
X94800000Y-90100000D03*
%TD*%
D70*
%TO.C,SW101*%
X78590000Y-114380000D03*
X85790000Y-114380000D03*
X85790000Y-117380000D03*
X78590000Y-117380000D03*
%TD*%
D62*
%TO.C,U201*%
X68340000Y-93700000D03*
X68340000Y-92750000D03*
X68340000Y-91800000D03*
X65740000Y-91800000D03*
X65740000Y-93700000D03*
%TD*%
D22*
%TO.C,C217*%
X73780000Y-101990000D03*
X73780000Y-103890000D03*
%TD*%
D11*
%TO.C,J102*%
X52045000Y-114710000D03*
D71*
X54585000Y-114710000D03*
D11*
X57125000Y-114710000D03*
%TD*%
D71*
%TO.C,J105*%
X51052500Y-77750000D03*
D11*
X53592500Y-77750000D03*
X56132500Y-77750000D03*
X58672500Y-77750000D03*
%TD*%
D72*
%TO.C,U203*%
X105580000Y-81100000D03*
D73*
X122240000Y-78560000D03*
D74*
X122240000Y-81100000D03*
X122240000Y-83640000D03*
%TD*%
D30*
%TO.C,MOD201*%
X70197500Y-95890000D03*
D75*
X67657500Y-95890000D03*
X65117500Y-95890000D03*
D11*
X62577500Y-95890000D03*
%TD*%
D76*
%TO.C,J107*%
X48102500Y-85257500D03*
X48102500Y-88027500D03*
X48102500Y-90797500D03*
X48102500Y-93567500D03*
%TD*%
M02*
