%TF.GenerationSoftware,KiCad,Pcbnew,(6.0.4-0)*%
%TF.CreationDate,2023-07-01T11:08:04-04:00*%
%TF.ProjectId,SignalSlinger,5369676e-616c-4536-9c69-6e6765722e6b,rev?*%
%TF.SameCoordinates,Original*%
%TF.FileFunction,Legend,Bot*%
%TF.FilePolarity,Positive*%
%FSLAX46Y46*%
G04 Gerber Fmt 4.6, Leading zero omitted, Abs format (unit mm)*
G04 Created by KiCad (PCBNEW (6.0.4-0)) date 2023-07-01 11:08:04*
%MOMM*%
%LPD*%
G01*
G04 APERTURE LIST*
%ADD10C,0.150000*%
%ADD11C,0.250000*%
%ADD12C,0.300000*%
%ADD13C,0.100000*%
%ADD14C,0.125000*%
%ADD15C,0.120000*%
G04 APERTURE END LIST*
D10*
X89380000Y-65930000D02*
X89380000Y-64080000D01*
D11*
X89068928Y-102761714D02*
X88897500Y-102818857D01*
X88611785Y-102818857D01*
X88497500Y-102761714D01*
X88440357Y-102704571D01*
X88383214Y-102590285D01*
X88383214Y-102476000D01*
X88440357Y-102361714D01*
X88497500Y-102304571D01*
X88611785Y-102247428D01*
X88840357Y-102190285D01*
X88954642Y-102133142D01*
X89011785Y-102076000D01*
X89068928Y-101961714D01*
X89068928Y-101847428D01*
X89011785Y-101733142D01*
X88954642Y-101676000D01*
X88840357Y-101618857D01*
X88554642Y-101618857D01*
X88383214Y-101676000D01*
X87868928Y-102818857D02*
X87868928Y-102018857D01*
X87868928Y-101618857D02*
X87926071Y-101676000D01*
X87868928Y-101733142D01*
X87811785Y-101676000D01*
X87868928Y-101618857D01*
X87868928Y-101733142D01*
X86783214Y-102018857D02*
X86783214Y-102990285D01*
X86840357Y-103104571D01*
X86897500Y-103161714D01*
X87011785Y-103218857D01*
X87183214Y-103218857D01*
X87297500Y-103161714D01*
X86783214Y-102761714D02*
X86897500Y-102818857D01*
X87126071Y-102818857D01*
X87240357Y-102761714D01*
X87297500Y-102704571D01*
X87354642Y-102590285D01*
X87354642Y-102247428D01*
X87297500Y-102133142D01*
X87240357Y-102076000D01*
X87126071Y-102018857D01*
X86897500Y-102018857D01*
X86783214Y-102076000D01*
X86211785Y-102018857D02*
X86211785Y-102818857D01*
X86211785Y-102133142D02*
X86154642Y-102076000D01*
X86040357Y-102018857D01*
X85868928Y-102018857D01*
X85754642Y-102076000D01*
X85697500Y-102190285D01*
X85697500Y-102818857D01*
X84611785Y-102818857D02*
X84611785Y-102190285D01*
X84668928Y-102076000D01*
X84783214Y-102018857D01*
X85011785Y-102018857D01*
X85126071Y-102076000D01*
X84611785Y-102761714D02*
X84726071Y-102818857D01*
X85011785Y-102818857D01*
X85126071Y-102761714D01*
X85183214Y-102647428D01*
X85183214Y-102533142D01*
X85126071Y-102418857D01*
X85011785Y-102361714D01*
X84726071Y-102361714D01*
X84611785Y-102304571D01*
X83868928Y-102818857D02*
X83983214Y-102761714D01*
X84040357Y-102647428D01*
X84040357Y-101618857D01*
X83468928Y-102761714D02*
X83297500Y-102818857D01*
X83011785Y-102818857D01*
X82897500Y-102761714D01*
X82840357Y-102704571D01*
X82783214Y-102590285D01*
X82783214Y-102476000D01*
X82840357Y-102361714D01*
X82897500Y-102304571D01*
X83011785Y-102247428D01*
X83240357Y-102190285D01*
X83354642Y-102133142D01*
X83411785Y-102076000D01*
X83468928Y-101961714D01*
X83468928Y-101847428D01*
X83411785Y-101733142D01*
X83354642Y-101676000D01*
X83240357Y-101618857D01*
X82954642Y-101618857D01*
X82783214Y-101676000D01*
X82097500Y-102818857D02*
X82211785Y-102761714D01*
X82268928Y-102647428D01*
X82268928Y-101618857D01*
X81640357Y-102818857D02*
X81640357Y-102018857D01*
X81640357Y-101618857D02*
X81697500Y-101676000D01*
X81640357Y-101733142D01*
X81583214Y-101676000D01*
X81640357Y-101618857D01*
X81640357Y-101733142D01*
X81068928Y-102018857D02*
X81068928Y-102818857D01*
X81068928Y-102133142D02*
X81011785Y-102076000D01*
X80897500Y-102018857D01*
X80726071Y-102018857D01*
X80611785Y-102076000D01*
X80554642Y-102190285D01*
X80554642Y-102818857D01*
X79468928Y-102018857D02*
X79468928Y-102990285D01*
X79526071Y-103104571D01*
X79583214Y-103161714D01*
X79697500Y-103218857D01*
X79868928Y-103218857D01*
X79983214Y-103161714D01*
X79468928Y-102761714D02*
X79583214Y-102818857D01*
X79811785Y-102818857D01*
X79926071Y-102761714D01*
X79983214Y-102704571D01*
X80040357Y-102590285D01*
X80040357Y-102247428D01*
X79983214Y-102133142D01*
X79926071Y-102076000D01*
X79811785Y-102018857D01*
X79583214Y-102018857D01*
X79468928Y-102076000D01*
X78440357Y-102761714D02*
X78554642Y-102818857D01*
X78783214Y-102818857D01*
X78897500Y-102761714D01*
X78954642Y-102647428D01*
X78954642Y-102190285D01*
X78897500Y-102076000D01*
X78783214Y-102018857D01*
X78554642Y-102018857D01*
X78440357Y-102076000D01*
X78383214Y-102190285D01*
X78383214Y-102304571D01*
X78954642Y-102418857D01*
X77868928Y-102818857D02*
X77868928Y-102018857D01*
X77868928Y-102247428D02*
X77811785Y-102133142D01*
X77754642Y-102076000D01*
X77640357Y-102018857D01*
X77526071Y-102018857D01*
X88497500Y-103950857D02*
X88497500Y-104922285D01*
X88554642Y-105036571D01*
X88611785Y-105093714D01*
X88726071Y-105150857D01*
X88897500Y-105150857D01*
X89011785Y-105093714D01*
X88497500Y-104693714D02*
X88611785Y-104750857D01*
X88840357Y-104750857D01*
X88954642Y-104693714D01*
X89011785Y-104636571D01*
X89068928Y-104522285D01*
X89068928Y-104179428D01*
X89011785Y-104065142D01*
X88954642Y-104008000D01*
X88840357Y-103950857D01*
X88611785Y-103950857D01*
X88497500Y-104008000D01*
X87926071Y-104750857D02*
X87926071Y-103950857D01*
X87926071Y-103550857D02*
X87983214Y-103608000D01*
X87926071Y-103665142D01*
X87868928Y-103608000D01*
X87926071Y-103550857D01*
X87926071Y-103665142D01*
X87526071Y-103950857D02*
X87068928Y-103950857D01*
X87354642Y-103550857D02*
X87354642Y-104579428D01*
X87297500Y-104693714D01*
X87183214Y-104750857D01*
X87068928Y-104750857D01*
X86668928Y-104750857D02*
X86668928Y-103550857D01*
X86154642Y-104750857D02*
X86154642Y-104122285D01*
X86211785Y-104008000D01*
X86326071Y-103950857D01*
X86497500Y-103950857D01*
X86611785Y-104008000D01*
X86668928Y-104065142D01*
X85068928Y-103950857D02*
X85068928Y-104750857D01*
X85583214Y-103950857D02*
X85583214Y-104579428D01*
X85526071Y-104693714D01*
X85411785Y-104750857D01*
X85240357Y-104750857D01*
X85126071Y-104693714D01*
X85068928Y-104636571D01*
X84497500Y-104750857D02*
X84497500Y-103550857D01*
X84497500Y-104008000D02*
X84383214Y-103950857D01*
X84154642Y-103950857D01*
X84040357Y-104008000D01*
X83983214Y-104065142D01*
X83926071Y-104179428D01*
X83926071Y-104522285D01*
X83983214Y-104636571D01*
X84040357Y-104693714D01*
X84154642Y-104750857D01*
X84383214Y-104750857D01*
X84497500Y-104693714D01*
X83411785Y-104636571D02*
X83354642Y-104693714D01*
X83411785Y-104750857D01*
X83468928Y-104693714D01*
X83411785Y-104636571D01*
X83411785Y-104750857D01*
X82326071Y-104693714D02*
X82440357Y-104750857D01*
X82668928Y-104750857D01*
X82783214Y-104693714D01*
X82840357Y-104636571D01*
X82897500Y-104522285D01*
X82897500Y-104179428D01*
X82840357Y-104065142D01*
X82783214Y-104008000D01*
X82668928Y-103950857D01*
X82440357Y-103950857D01*
X82326071Y-104008000D01*
X81640357Y-104750857D02*
X81754642Y-104693714D01*
X81811785Y-104636571D01*
X81868928Y-104522285D01*
X81868928Y-104179428D01*
X81811785Y-104065142D01*
X81754642Y-104008000D01*
X81640357Y-103950857D01*
X81468928Y-103950857D01*
X81354642Y-104008000D01*
X81297500Y-104065142D01*
X81240357Y-104179428D01*
X81240357Y-104522285D01*
X81297500Y-104636571D01*
X81354642Y-104693714D01*
X81468928Y-104750857D01*
X81640357Y-104750857D01*
X80726071Y-104750857D02*
X80726071Y-103950857D01*
X80726071Y-104065142D02*
X80668928Y-104008000D01*
X80554642Y-103950857D01*
X80383214Y-103950857D01*
X80268928Y-104008000D01*
X80211785Y-104122285D01*
X80211785Y-104750857D01*
X80211785Y-104122285D02*
X80154642Y-104008000D01*
X80040357Y-103950857D01*
X79868928Y-103950857D01*
X79754642Y-104008000D01*
X79697500Y-104122285D01*
X79697500Y-104750857D01*
X78268928Y-103493714D02*
X79297500Y-105036571D01*
X77640357Y-103550857D02*
X77411785Y-103550857D01*
X77297499Y-103608000D01*
X77183214Y-103722285D01*
X77126071Y-103950857D01*
X77126071Y-104350857D01*
X77183214Y-104579428D01*
X77297499Y-104693714D01*
X77411785Y-104750857D01*
X77640357Y-104750857D01*
X77754642Y-104693714D01*
X77868928Y-104579428D01*
X77926071Y-104350857D01*
X77926071Y-103950857D01*
X77868928Y-103722285D01*
X77754642Y-103608000D01*
X77640357Y-103550857D01*
X76611785Y-103950857D02*
X76611785Y-105150857D01*
X76611785Y-104008000D02*
X76497499Y-103950857D01*
X76268928Y-103950857D01*
X76154642Y-104008000D01*
X76097499Y-104065142D01*
X76040357Y-104179428D01*
X76040357Y-104522285D01*
X76097499Y-104636571D01*
X76154642Y-104693714D01*
X76268928Y-104750857D01*
X76497499Y-104750857D01*
X76611785Y-104693714D01*
X75068928Y-104693714D02*
X75183214Y-104750857D01*
X75411785Y-104750857D01*
X75526071Y-104693714D01*
X75583214Y-104579428D01*
X75583214Y-104122285D01*
X75526071Y-104008000D01*
X75411785Y-103950857D01*
X75183214Y-103950857D01*
X75068928Y-104008000D01*
X75011785Y-104122285D01*
X75011785Y-104236571D01*
X75583214Y-104350857D01*
X74497499Y-103950857D02*
X74497499Y-104750857D01*
X74497499Y-104065142D02*
X74440357Y-104008000D01*
X74326071Y-103950857D01*
X74154642Y-103950857D01*
X74040357Y-104008000D01*
X73983214Y-104122285D01*
X73983214Y-104750857D01*
X73468928Y-104408000D02*
X72897499Y-104408000D01*
X73583214Y-104750857D02*
X73183214Y-103550857D01*
X72783214Y-104750857D01*
X71697499Y-104750857D02*
X72097499Y-104179428D01*
X72383214Y-104750857D02*
X72383214Y-103550857D01*
X71926071Y-103550857D01*
X71811785Y-103608000D01*
X71754642Y-103665142D01*
X71697499Y-103779428D01*
X71697499Y-103950857D01*
X71754642Y-104065142D01*
X71811785Y-104122285D01*
X71926071Y-104179428D01*
X72383214Y-104179428D01*
X71183214Y-104750857D02*
X71183214Y-103550857D01*
X70897499Y-103550857D01*
X70726071Y-103608000D01*
X70611785Y-103722285D01*
X70554642Y-103836571D01*
X70497499Y-104065142D01*
X70497499Y-104236571D01*
X70554642Y-104465142D01*
X70611785Y-104579428D01*
X70726071Y-104693714D01*
X70897499Y-104750857D01*
X71183214Y-104750857D01*
X69583214Y-104122285D02*
X69983214Y-104122285D01*
X69983214Y-104750857D02*
X69983214Y-103550857D01*
X69411785Y-103550857D01*
X68097499Y-103493714D02*
X69126071Y-105036571D01*
X67754642Y-104693714D02*
X67583214Y-104750857D01*
X67297499Y-104750857D01*
X67183214Y-104693714D01*
X67126071Y-104636571D01*
X67068928Y-104522285D01*
X67068928Y-104408000D01*
X67126071Y-104293714D01*
X67183214Y-104236571D01*
X67297499Y-104179428D01*
X67526071Y-104122285D01*
X67640357Y-104065142D01*
X67697499Y-104008000D01*
X67754642Y-103893714D01*
X67754642Y-103779428D01*
X67697499Y-103665142D01*
X67640357Y-103608000D01*
X67526071Y-103550857D01*
X67240357Y-103550857D01*
X67068928Y-103608000D01*
X66554642Y-104750857D02*
X66554642Y-103950857D01*
X66554642Y-103550857D02*
X66611785Y-103608000D01*
X66554642Y-103665142D01*
X66497499Y-103608000D01*
X66554642Y-103550857D01*
X66554642Y-103665142D01*
X65468928Y-103950857D02*
X65468928Y-104922285D01*
X65526071Y-105036571D01*
X65583214Y-105093714D01*
X65697499Y-105150857D01*
X65868928Y-105150857D01*
X65983214Y-105093714D01*
X65468928Y-104693714D02*
X65583214Y-104750857D01*
X65811785Y-104750857D01*
X65926071Y-104693714D01*
X65983214Y-104636571D01*
X66040357Y-104522285D01*
X66040357Y-104179428D01*
X65983214Y-104065142D01*
X65926071Y-104008000D01*
X65811785Y-103950857D01*
X65583214Y-103950857D01*
X65468928Y-104008000D01*
X64897499Y-103950857D02*
X64897499Y-104750857D01*
X64897499Y-104065142D02*
X64840357Y-104008000D01*
X64726071Y-103950857D01*
X64554642Y-103950857D01*
X64440357Y-104008000D01*
X64383214Y-104122285D01*
X64383214Y-104750857D01*
X63297499Y-104750857D02*
X63297499Y-104122285D01*
X63354642Y-104008000D01*
X63468928Y-103950857D01*
X63697499Y-103950857D01*
X63811785Y-104008000D01*
X63297499Y-104693714D02*
X63411785Y-104750857D01*
X63697499Y-104750857D01*
X63811785Y-104693714D01*
X63868928Y-104579428D01*
X63868928Y-104465142D01*
X63811785Y-104350857D01*
X63697499Y-104293714D01*
X63411785Y-104293714D01*
X63297499Y-104236571D01*
X62554642Y-104750857D02*
X62668928Y-104693714D01*
X62726071Y-104579428D01*
X62726071Y-103550857D01*
X62154642Y-104693714D02*
X61983214Y-104750857D01*
X61697499Y-104750857D01*
X61583214Y-104693714D01*
X61526071Y-104636571D01*
X61468928Y-104522285D01*
X61468928Y-104408000D01*
X61526071Y-104293714D01*
X61583214Y-104236571D01*
X61697499Y-104179428D01*
X61926071Y-104122285D01*
X62040357Y-104065142D01*
X62097499Y-104008000D01*
X62154642Y-103893714D01*
X62154642Y-103779428D01*
X62097499Y-103665142D01*
X62040357Y-103608000D01*
X61926071Y-103550857D01*
X61640357Y-103550857D01*
X61468928Y-103608000D01*
X60783214Y-104750857D02*
X60897499Y-104693714D01*
X60954642Y-104579428D01*
X60954642Y-103550857D01*
X60326071Y-104750857D02*
X60326071Y-103950857D01*
X60326071Y-103550857D02*
X60383214Y-103608000D01*
X60326071Y-103665142D01*
X60268928Y-103608000D01*
X60326071Y-103550857D01*
X60326071Y-103665142D01*
X59754642Y-103950857D02*
X59754642Y-104750857D01*
X59754642Y-104065142D02*
X59697499Y-104008000D01*
X59583214Y-103950857D01*
X59411785Y-103950857D01*
X59297499Y-104008000D01*
X59240357Y-104122285D01*
X59240357Y-104750857D01*
X58154642Y-103950857D02*
X58154642Y-104922285D01*
X58211785Y-105036571D01*
X58268928Y-105093714D01*
X58383214Y-105150857D01*
X58554642Y-105150857D01*
X58668928Y-105093714D01*
X58154642Y-104693714D02*
X58268928Y-104750857D01*
X58497499Y-104750857D01*
X58611785Y-104693714D01*
X58668928Y-104636571D01*
X58726071Y-104522285D01*
X58726071Y-104179428D01*
X58668928Y-104065142D01*
X58611785Y-104008000D01*
X58497499Y-103950857D01*
X58268928Y-103950857D01*
X58154642Y-104008000D01*
X57126071Y-104693714D02*
X57240357Y-104750857D01*
X57468928Y-104750857D01*
X57583214Y-104693714D01*
X57640357Y-104579428D01*
X57640357Y-104122285D01*
X57583214Y-104008000D01*
X57468928Y-103950857D01*
X57240357Y-103950857D01*
X57126071Y-104008000D01*
X57068928Y-104122285D01*
X57068928Y-104236571D01*
X57640357Y-104350857D01*
X56554642Y-104750857D02*
X56554642Y-103950857D01*
X56554642Y-104179428D02*
X56497499Y-104065142D01*
X56440357Y-104008000D01*
X56326071Y-103950857D01*
X56211785Y-103950857D01*
X88783214Y-105482857D02*
X88554642Y-105482857D01*
X88440357Y-105540000D01*
X88326071Y-105654285D01*
X88268928Y-105882857D01*
X88268928Y-106282857D01*
X88326071Y-106511428D01*
X88440357Y-106625714D01*
X88554642Y-106682857D01*
X88783214Y-106682857D01*
X88897500Y-106625714D01*
X89011785Y-106511428D01*
X89068928Y-106282857D01*
X89068928Y-105882857D01*
X89011785Y-105654285D01*
X88897500Y-105540000D01*
X88783214Y-105482857D01*
X87754642Y-105882857D02*
X87754642Y-107082857D01*
X87754642Y-105940000D02*
X87640357Y-105882857D01*
X87411785Y-105882857D01*
X87297500Y-105940000D01*
X87240357Y-105997142D01*
X87183214Y-106111428D01*
X87183214Y-106454285D01*
X87240357Y-106568571D01*
X87297500Y-106625714D01*
X87411785Y-106682857D01*
X87640357Y-106682857D01*
X87754642Y-106625714D01*
X86211785Y-106625714D02*
X86326071Y-106682857D01*
X86554642Y-106682857D01*
X86668928Y-106625714D01*
X86726071Y-106511428D01*
X86726071Y-106054285D01*
X86668928Y-105940000D01*
X86554642Y-105882857D01*
X86326071Y-105882857D01*
X86211785Y-105940000D01*
X86154642Y-106054285D01*
X86154642Y-106168571D01*
X86726071Y-106282857D01*
X85640357Y-105882857D02*
X85640357Y-106682857D01*
X85640357Y-105997142D02*
X85583214Y-105940000D01*
X85468928Y-105882857D01*
X85297500Y-105882857D01*
X85183214Y-105940000D01*
X85126071Y-106054285D01*
X85126071Y-106682857D01*
X83697500Y-106625714D02*
X83526071Y-106682857D01*
X83240357Y-106682857D01*
X83126071Y-106625714D01*
X83068928Y-106568571D01*
X83011785Y-106454285D01*
X83011785Y-106340000D01*
X83068928Y-106225714D01*
X83126071Y-106168571D01*
X83240357Y-106111428D01*
X83468928Y-106054285D01*
X83583214Y-105997142D01*
X83640357Y-105940000D01*
X83697500Y-105825714D01*
X83697500Y-105711428D01*
X83640357Y-105597142D01*
X83583214Y-105540000D01*
X83468928Y-105482857D01*
X83183214Y-105482857D01*
X83011785Y-105540000D01*
X82326071Y-106682857D02*
X82440357Y-106625714D01*
X82497500Y-106568571D01*
X82554642Y-106454285D01*
X82554642Y-106111428D01*
X82497500Y-105997142D01*
X82440357Y-105940000D01*
X82326071Y-105882857D01*
X82154642Y-105882857D01*
X82040357Y-105940000D01*
X81983214Y-105997142D01*
X81926071Y-106111428D01*
X81926071Y-106454285D01*
X81983214Y-106568571D01*
X82040357Y-106625714D01*
X82154642Y-106682857D01*
X82326071Y-106682857D01*
X80897500Y-105882857D02*
X80897500Y-106682857D01*
X81411785Y-105882857D02*
X81411785Y-106511428D01*
X81354642Y-106625714D01*
X81240357Y-106682857D01*
X81068928Y-106682857D01*
X80954642Y-106625714D01*
X80897500Y-106568571D01*
X80326071Y-106682857D02*
X80326071Y-105882857D01*
X80326071Y-106111428D02*
X80268928Y-105997142D01*
X80211785Y-105940000D01*
X80097500Y-105882857D01*
X79983214Y-105882857D01*
X79068928Y-106625714D02*
X79183214Y-106682857D01*
X79411785Y-106682857D01*
X79526071Y-106625714D01*
X79583214Y-106568571D01*
X79640357Y-106454285D01*
X79640357Y-106111428D01*
X79583214Y-105997142D01*
X79526071Y-105940000D01*
X79411785Y-105882857D01*
X79183214Y-105882857D01*
X79068928Y-105940000D01*
X78097500Y-106625714D02*
X78211785Y-106682857D01*
X78440357Y-106682857D01*
X78554642Y-106625714D01*
X78611785Y-106511428D01*
X78611785Y-106054285D01*
X78554642Y-105940000D01*
X78440357Y-105882857D01*
X78211785Y-105882857D01*
X78097500Y-105940000D01*
X78040357Y-106054285D01*
X78040357Y-106168571D01*
X78611785Y-106282857D01*
X77526071Y-106568571D02*
X77468928Y-106625714D01*
X77526071Y-106682857D01*
X77583214Y-106625714D01*
X77526071Y-106568571D01*
X77526071Y-106682857D01*
X77526071Y-105940000D02*
X77468928Y-105997142D01*
X77526071Y-106054285D01*
X77583214Y-105997142D01*
X77526071Y-105940000D01*
X77526071Y-106054285D01*
X76040357Y-106682857D02*
X76040357Y-105482857D01*
X75640357Y-106340000D01*
X75240357Y-105482857D01*
X75240357Y-106682857D01*
X74668928Y-106682857D02*
X74668928Y-105482857D01*
X74268928Y-105482857D02*
X73583214Y-105482857D01*
X73926071Y-106682857D02*
X73926071Y-105482857D01*
X71697500Y-106682857D02*
X72268928Y-106682857D01*
X72268928Y-105482857D01*
X71297500Y-106682857D02*
X71297500Y-105882857D01*
X71297500Y-105482857D02*
X71354642Y-105540000D01*
X71297500Y-105597142D01*
X71240357Y-105540000D01*
X71297500Y-105482857D01*
X71297500Y-105597142D01*
X70211785Y-106625714D02*
X70326071Y-106682857D01*
X70554642Y-106682857D01*
X70668928Y-106625714D01*
X70726071Y-106568571D01*
X70783214Y-106454285D01*
X70783214Y-106111428D01*
X70726071Y-105997142D01*
X70668928Y-105940000D01*
X70554642Y-105882857D01*
X70326071Y-105882857D01*
X70211785Y-105940000D01*
X69240357Y-106625714D02*
X69354642Y-106682857D01*
X69583214Y-106682857D01*
X69697500Y-106625714D01*
X69754642Y-106511428D01*
X69754642Y-106054285D01*
X69697500Y-105940000D01*
X69583214Y-105882857D01*
X69354642Y-105882857D01*
X69240357Y-105940000D01*
X69183214Y-106054285D01*
X69183214Y-106168571D01*
X69754642Y-106282857D01*
X68668928Y-105882857D02*
X68668928Y-106682857D01*
X68668928Y-105997142D02*
X68611785Y-105940000D01*
X68497500Y-105882857D01*
X68326071Y-105882857D01*
X68211785Y-105940000D01*
X68154642Y-106054285D01*
X68154642Y-106682857D01*
X67640357Y-106625714D02*
X67526071Y-106682857D01*
X67297500Y-106682857D01*
X67183214Y-106625714D01*
X67126071Y-106511428D01*
X67126071Y-106454285D01*
X67183214Y-106340000D01*
X67297500Y-106282857D01*
X67468928Y-106282857D01*
X67583214Y-106225714D01*
X67640357Y-106111428D01*
X67640357Y-106054285D01*
X67583214Y-105940000D01*
X67468928Y-105882857D01*
X67297500Y-105882857D01*
X67183214Y-105940000D01*
X66154642Y-106625714D02*
X66268928Y-106682857D01*
X66497499Y-106682857D01*
X66611785Y-106625714D01*
X66668928Y-106511428D01*
X66668928Y-106054285D01*
X66611785Y-105940000D01*
X66497499Y-105882857D01*
X66268928Y-105882857D01*
X66154642Y-105940000D01*
X66097499Y-106054285D01*
X66097499Y-106168571D01*
X66668928Y-106282857D01*
X89011785Y-108614857D02*
X89011785Y-107414857D01*
X88611785Y-108272000D01*
X88211785Y-107414857D01*
X88211785Y-108614857D01*
X87468928Y-108614857D02*
X87583214Y-108557714D01*
X87640357Y-108500571D01*
X87697500Y-108386285D01*
X87697500Y-108043428D01*
X87640357Y-107929142D01*
X87583214Y-107872000D01*
X87468928Y-107814857D01*
X87297500Y-107814857D01*
X87183214Y-107872000D01*
X87126071Y-107929142D01*
X87068928Y-108043428D01*
X87068928Y-108386285D01*
X87126071Y-108500571D01*
X87183214Y-108557714D01*
X87297500Y-108614857D01*
X87468928Y-108614857D01*
X86040357Y-108614857D02*
X86040357Y-107414857D01*
X86040357Y-108557714D02*
X86154642Y-108614857D01*
X86383214Y-108614857D01*
X86497500Y-108557714D01*
X86554642Y-108500571D01*
X86611785Y-108386285D01*
X86611785Y-108043428D01*
X86554642Y-107929142D01*
X86497500Y-107872000D01*
X86383214Y-107814857D01*
X86154642Y-107814857D01*
X86040357Y-107872000D01*
X85011785Y-108557714D02*
X85126071Y-108614857D01*
X85354642Y-108614857D01*
X85468928Y-108557714D01*
X85526071Y-108443428D01*
X85526071Y-107986285D01*
X85468928Y-107872000D01*
X85354642Y-107814857D01*
X85126071Y-107814857D01*
X85011785Y-107872000D01*
X84954642Y-107986285D01*
X84954642Y-108100571D01*
X85526071Y-108214857D01*
X84268928Y-108614857D02*
X84383214Y-108557714D01*
X84440357Y-108443428D01*
X84440357Y-107414857D01*
X83811785Y-108500571D02*
X83754642Y-108557714D01*
X83811785Y-108614857D01*
X83868928Y-108557714D01*
X83811785Y-108500571D01*
X83811785Y-108614857D01*
X83811785Y-107872000D02*
X83754642Y-107929142D01*
X83811785Y-107986285D01*
X83868928Y-107929142D01*
X83811785Y-107872000D01*
X83811785Y-107986285D01*
X82383214Y-108557714D02*
X82211785Y-108614857D01*
X81926071Y-108614857D01*
X81811785Y-108557714D01*
X81754642Y-108500571D01*
X81697500Y-108386285D01*
X81697500Y-108272000D01*
X81754642Y-108157714D01*
X81811785Y-108100571D01*
X81926071Y-108043428D01*
X82154642Y-107986285D01*
X82268928Y-107929142D01*
X82326071Y-107872000D01*
X82383214Y-107757714D01*
X82383214Y-107643428D01*
X82326071Y-107529142D01*
X82268928Y-107472000D01*
X82154642Y-107414857D01*
X81868928Y-107414857D01*
X81697500Y-107472000D01*
X81240357Y-108557714D02*
X81068928Y-108614857D01*
X80783214Y-108614857D01*
X80668928Y-108557714D01*
X80611785Y-108500571D01*
X80554642Y-108386285D01*
X80554642Y-108272000D01*
X80611785Y-108157714D01*
X80668928Y-108100571D01*
X80783214Y-108043428D01*
X81011785Y-107986285D01*
X81126071Y-107929142D01*
X81183214Y-107872000D01*
X81240357Y-107757714D01*
X81240357Y-107643428D01*
X81183214Y-107529142D01*
X81126071Y-107472000D01*
X81011785Y-107414857D01*
X80726071Y-107414857D01*
X80554642Y-107472000D01*
X80040357Y-108157714D02*
X79126071Y-108157714D01*
X78383214Y-107929142D02*
X78497500Y-107872000D01*
X78554642Y-107814857D01*
X78611785Y-107700571D01*
X78611785Y-107643428D01*
X78554642Y-107529142D01*
X78497500Y-107472000D01*
X78383214Y-107414857D01*
X78154642Y-107414857D01*
X78040357Y-107472000D01*
X77983214Y-107529142D01*
X77926071Y-107643428D01*
X77926071Y-107700571D01*
X77983214Y-107814857D01*
X78040357Y-107872000D01*
X78154642Y-107929142D01*
X78383214Y-107929142D01*
X78497500Y-107986285D01*
X78554642Y-108043428D01*
X78611785Y-108157714D01*
X78611785Y-108386285D01*
X78554642Y-108500571D01*
X78497500Y-108557714D01*
X78383214Y-108614857D01*
X78154642Y-108614857D01*
X78040357Y-108557714D01*
X77983214Y-108500571D01*
X77926071Y-108386285D01*
X77926071Y-108157714D01*
X77983214Y-108043428D01*
X78040357Y-107986285D01*
X78154642Y-107929142D01*
X77183214Y-107414857D02*
X77068928Y-107414857D01*
X76954642Y-107472000D01*
X76897500Y-107529142D01*
X76840357Y-107643428D01*
X76783214Y-107872000D01*
X76783214Y-108157714D01*
X76840357Y-108386285D01*
X76897500Y-108500571D01*
X76954642Y-108557714D01*
X77068928Y-108614857D01*
X77183214Y-108614857D01*
X77297500Y-108557714D01*
X77354642Y-108500571D01*
X77411785Y-108386285D01*
X77468928Y-108157714D01*
X77468928Y-107872000D01*
X77411785Y-107643428D01*
X77354642Y-107529142D01*
X77297500Y-107472000D01*
X77183214Y-107414857D01*
X75411785Y-107357714D02*
X76440357Y-108900571D01*
X74497500Y-107814857D02*
X74497500Y-108614857D01*
X74783214Y-107357714D02*
X75068928Y-108214857D01*
X74326071Y-108214857D01*
X73640357Y-107414857D02*
X73526071Y-107414857D01*
X73411785Y-107472000D01*
X73354642Y-107529142D01*
X73297500Y-107643428D01*
X73240357Y-107872000D01*
X73240357Y-108157714D01*
X73297500Y-108386285D01*
X73354642Y-108500571D01*
X73411785Y-108557714D01*
X73526071Y-108614857D01*
X73640357Y-108614857D01*
X73754642Y-108557714D01*
X73811785Y-108500571D01*
X73868928Y-108386285D01*
X73926071Y-108157714D01*
X73926071Y-107872000D01*
X73868928Y-107643428D01*
X73811785Y-107529142D01*
X73754642Y-107472000D01*
X73640357Y-107414857D01*
X88668928Y-109346857D02*
X88668928Y-110204000D01*
X88726071Y-110375428D01*
X88840357Y-110489714D01*
X89011785Y-110546857D01*
X89126071Y-110546857D01*
X87583214Y-109746857D02*
X87583214Y-110546857D01*
X88097500Y-109746857D02*
X88097500Y-110375428D01*
X88040357Y-110489714D01*
X87926071Y-110546857D01*
X87754642Y-110546857D01*
X87640357Y-110489714D01*
X87583214Y-110432571D01*
X87011785Y-109746857D02*
X87011785Y-110546857D01*
X87011785Y-109861142D02*
X86954642Y-109804000D01*
X86840357Y-109746857D01*
X86668928Y-109746857D01*
X86554642Y-109804000D01*
X86497500Y-109918285D01*
X86497500Y-110546857D01*
X85468928Y-110489714D02*
X85583214Y-110546857D01*
X85811785Y-110546857D01*
X85926071Y-110489714D01*
X85983214Y-110375428D01*
X85983214Y-109918285D01*
X85926071Y-109804000D01*
X85811785Y-109746857D01*
X85583214Y-109746857D01*
X85468928Y-109804000D01*
X85411785Y-109918285D01*
X85411785Y-110032571D01*
X85983214Y-110146857D01*
X84040357Y-109461142D02*
X83983214Y-109404000D01*
X83868928Y-109346857D01*
X83583214Y-109346857D01*
X83468928Y-109404000D01*
X83411785Y-109461142D01*
X83354642Y-109575428D01*
X83354642Y-109689714D01*
X83411785Y-109861142D01*
X84097500Y-110546857D01*
X83354642Y-110546857D01*
X82611785Y-109346857D02*
X82497500Y-109346857D01*
X82383214Y-109404000D01*
X82326071Y-109461142D01*
X82268928Y-109575428D01*
X82211785Y-109804000D01*
X82211785Y-110089714D01*
X82268928Y-110318285D01*
X82326071Y-110432571D01*
X82383214Y-110489714D01*
X82497500Y-110546857D01*
X82611785Y-110546857D01*
X82726071Y-110489714D01*
X82783214Y-110432571D01*
X82840357Y-110318285D01*
X82897500Y-110089714D01*
X82897500Y-109804000D01*
X82840357Y-109575428D01*
X82783214Y-109461142D01*
X82726071Y-109404000D01*
X82611785Y-109346857D01*
X81754642Y-109461142D02*
X81697500Y-109404000D01*
X81583214Y-109346857D01*
X81297500Y-109346857D01*
X81183214Y-109404000D01*
X81126071Y-109461142D01*
X81068928Y-109575428D01*
X81068928Y-109689714D01*
X81126071Y-109861142D01*
X81811785Y-110546857D01*
X81068928Y-110546857D01*
X80668928Y-109346857D02*
X79926071Y-109346857D01*
X80326071Y-109804000D01*
X80154642Y-109804000D01*
X80040357Y-109861142D01*
X79983214Y-109918285D01*
X79926071Y-110032571D01*
X79926071Y-110318285D01*
X79983214Y-110432571D01*
X80040357Y-110489714D01*
X80154642Y-110546857D01*
X80497500Y-110546857D01*
X80611785Y-110489714D01*
X80668928Y-110432571D01*
D10*
X55292857Y-89872380D02*
X55292857Y-88872380D01*
X54721428Y-89872380D02*
X55150000Y-89300952D01*
X54721428Y-88872380D02*
X55292857Y-89443809D01*
X54292857Y-89348571D02*
X53959523Y-89348571D01*
X53816666Y-89872380D02*
X54292857Y-89872380D01*
X54292857Y-88872380D01*
X53816666Y-88872380D01*
X53197619Y-89396190D02*
X53197619Y-89872380D01*
X53530952Y-88872380D02*
X53197619Y-89396190D01*
X52864285Y-88872380D01*
X97435714Y-89391428D02*
X96673809Y-89391428D01*
X97054761Y-89772380D02*
X97054761Y-89010476D01*
X95721428Y-88772380D02*
X96197619Y-88772380D01*
X96245238Y-89248571D01*
X96197619Y-89200952D01*
X96102380Y-89153333D01*
X95864285Y-89153333D01*
X95769047Y-89200952D01*
X95721428Y-89248571D01*
X95673809Y-89343809D01*
X95673809Y-89581904D01*
X95721428Y-89677142D01*
X95769047Y-89724761D01*
X95864285Y-89772380D01*
X96102380Y-89772380D01*
X96197619Y-89724761D01*
X96245238Y-89677142D01*
X95388095Y-88772380D02*
X95054761Y-89772380D01*
X94721428Y-88772380D01*
X93671904Y-75352380D02*
X93671904Y-74352380D01*
X93290952Y-74352380D01*
X93195714Y-74400000D01*
X93148095Y-74447619D01*
X93100476Y-74542857D01*
X93100476Y-74685714D01*
X93148095Y-74780952D01*
X93195714Y-74828571D01*
X93290952Y-74876190D01*
X93671904Y-74876190D01*
X92719523Y-75304761D02*
X92576666Y-75352380D01*
X92338571Y-75352380D01*
X92243333Y-75304761D01*
X92195714Y-75257142D01*
X92148095Y-75161904D01*
X92148095Y-75066666D01*
X92195714Y-74971428D01*
X92243333Y-74923809D01*
X92338571Y-74876190D01*
X92529047Y-74828571D01*
X92624285Y-74780952D01*
X92671904Y-74733333D01*
X92719523Y-74638095D01*
X92719523Y-74542857D01*
X92671904Y-74447619D01*
X92624285Y-74400000D01*
X92529047Y-74352380D01*
X92290952Y-74352380D01*
X92148095Y-74400000D01*
X90957619Y-75352380D02*
X90957619Y-74352380D01*
X90957619Y-74828571D02*
X90386190Y-74828571D01*
X90386190Y-75352380D02*
X90386190Y-74352380D01*
X89529047Y-75304761D02*
X89624285Y-75352380D01*
X89814761Y-75352380D01*
X89910000Y-75304761D01*
X89957619Y-75209523D01*
X89957619Y-74828571D01*
X89910000Y-74733333D01*
X89814761Y-74685714D01*
X89624285Y-74685714D01*
X89529047Y-74733333D01*
X89481428Y-74828571D01*
X89481428Y-74923809D01*
X89957619Y-75019047D01*
X88624285Y-75352380D02*
X88624285Y-74828571D01*
X88671904Y-74733333D01*
X88767142Y-74685714D01*
X88957619Y-74685714D01*
X89052857Y-74733333D01*
X88624285Y-75304761D02*
X88719523Y-75352380D01*
X88957619Y-75352380D01*
X89052857Y-75304761D01*
X89100476Y-75209523D01*
X89100476Y-75114285D01*
X89052857Y-75019047D01*
X88957619Y-74971428D01*
X88719523Y-74971428D01*
X88624285Y-74923809D01*
X88290952Y-74685714D02*
X87910000Y-74685714D01*
X88148095Y-74352380D02*
X88148095Y-75209523D01*
X88100476Y-75304761D01*
X88005238Y-75352380D01*
X87910000Y-75352380D01*
X86862380Y-75304761D02*
X86719523Y-75352380D01*
X86481428Y-75352380D01*
X86386190Y-75304761D01*
X86338571Y-75257142D01*
X86290952Y-75161904D01*
X86290952Y-75066666D01*
X86338571Y-74971428D01*
X86386190Y-74923809D01*
X86481428Y-74876190D01*
X86671904Y-74828571D01*
X86767142Y-74780952D01*
X86814761Y-74733333D01*
X86862380Y-74638095D01*
X86862380Y-74542857D01*
X86814761Y-74447619D01*
X86767142Y-74400000D01*
X86671904Y-74352380D01*
X86433809Y-74352380D01*
X86290952Y-74400000D01*
X85862380Y-75352380D02*
X85862380Y-74685714D01*
X85862380Y-74352380D02*
X85910000Y-74400000D01*
X85862380Y-74447619D01*
X85814761Y-74400000D01*
X85862380Y-74352380D01*
X85862380Y-74447619D01*
X85386190Y-74685714D02*
X85386190Y-75352380D01*
X85386190Y-74780952D02*
X85338571Y-74733333D01*
X85243333Y-74685714D01*
X85100476Y-74685714D01*
X85005238Y-74733333D01*
X84957619Y-74828571D01*
X84957619Y-75352380D01*
X84481428Y-75352380D02*
X84481428Y-74352380D01*
X84386190Y-74971428D02*
X84100476Y-75352380D01*
X84100476Y-74685714D02*
X84481428Y-75066666D01*
X102262380Y-68777619D02*
X101262380Y-68777619D01*
X101262380Y-69158571D01*
X101310000Y-69253809D01*
X101357619Y-69301428D01*
X101452857Y-69349047D01*
X101595714Y-69349047D01*
X101690952Y-69301428D01*
X101738571Y-69253809D01*
X101786190Y-69158571D01*
X101786190Y-68777619D01*
X101595714Y-70206190D02*
X102262380Y-70206190D01*
X101595714Y-69777619D02*
X102119523Y-69777619D01*
X102214761Y-69825238D01*
X102262380Y-69920476D01*
X102262380Y-70063333D01*
X102214761Y-70158571D01*
X102167142Y-70206190D01*
X102214761Y-70634761D02*
X102262380Y-70730000D01*
X102262380Y-70920476D01*
X102214761Y-71015714D01*
X102119523Y-71063333D01*
X102071904Y-71063333D01*
X101976666Y-71015714D01*
X101929047Y-70920476D01*
X101929047Y-70777619D01*
X101881428Y-70682380D01*
X101786190Y-70634761D01*
X101738571Y-70634761D01*
X101643333Y-70682380D01*
X101595714Y-70777619D01*
X101595714Y-70920476D01*
X101643333Y-71015714D01*
X102262380Y-71491904D02*
X101262380Y-71491904D01*
X102262380Y-71920476D02*
X101738571Y-71920476D01*
X101643333Y-71872857D01*
X101595714Y-71777619D01*
X101595714Y-71634761D01*
X101643333Y-71539523D01*
X101690952Y-71491904D01*
X102262380Y-72396666D02*
X101262380Y-72396666D01*
X101643333Y-72396666D02*
X101595714Y-72491904D01*
X101595714Y-72682380D01*
X101643333Y-72777619D01*
X101690952Y-72825238D01*
X101786190Y-72872857D01*
X102071904Y-72872857D01*
X102167142Y-72825238D01*
X102214761Y-72777619D01*
X102262380Y-72682380D01*
X102262380Y-72491904D01*
X102214761Y-72396666D01*
X101595714Y-73730000D02*
X102262380Y-73730000D01*
X101595714Y-73301428D02*
X102119523Y-73301428D01*
X102214761Y-73349047D01*
X102262380Y-73444285D01*
X102262380Y-73587142D01*
X102214761Y-73682380D01*
X102167142Y-73730000D01*
X101595714Y-74063333D02*
X101595714Y-74444285D01*
X101262380Y-74206190D02*
X102119523Y-74206190D01*
X102214761Y-74253809D01*
X102262380Y-74349047D01*
X102262380Y-74444285D01*
X101595714Y-74634761D02*
X101595714Y-75015714D01*
X101262380Y-74777619D02*
X102119523Y-74777619D01*
X102214761Y-74825238D01*
X102262380Y-74920476D01*
X102262380Y-75015714D01*
X102262380Y-75491904D02*
X102214761Y-75396666D01*
X102167142Y-75349047D01*
X102071904Y-75301428D01*
X101786190Y-75301428D01*
X101690952Y-75349047D01*
X101643333Y-75396666D01*
X101595714Y-75491904D01*
X101595714Y-75634761D01*
X101643333Y-75730000D01*
X101690952Y-75777619D01*
X101786190Y-75825238D01*
X102071904Y-75825238D01*
X102167142Y-75777619D01*
X102214761Y-75730000D01*
X102262380Y-75634761D01*
X102262380Y-75491904D01*
X101595714Y-76253809D02*
X102262380Y-76253809D01*
X101690952Y-76253809D02*
X101643333Y-76301428D01*
X101595714Y-76396666D01*
X101595714Y-76539523D01*
X101643333Y-76634761D01*
X101738571Y-76682380D01*
X102262380Y-76682380D01*
X104261904Y-103302380D02*
X104261904Y-102302380D01*
X104023809Y-102302380D01*
X103880952Y-102350000D01*
X103785714Y-102445238D01*
X103738095Y-102540476D01*
X103690476Y-102730952D01*
X103690476Y-102873809D01*
X103738095Y-103064285D01*
X103785714Y-103159523D01*
X103880952Y-103254761D01*
X104023809Y-103302380D01*
X104261904Y-103302380D01*
X67760000Y-110054761D02*
X67712380Y-109959523D01*
X67712380Y-109816666D01*
X67760000Y-109673809D01*
X67855238Y-109578571D01*
X67950476Y-109530952D01*
X68140952Y-109483333D01*
X68283809Y-109483333D01*
X68474285Y-109530952D01*
X68569523Y-109578571D01*
X68664761Y-109673809D01*
X68712380Y-109816666D01*
X68712380Y-109911904D01*
X68664761Y-110054761D01*
X68617142Y-110102380D01*
X68283809Y-110102380D01*
X68283809Y-109911904D01*
X68712380Y-110530952D02*
X68045714Y-110530952D01*
X68236190Y-110530952D02*
X68140952Y-110578571D01*
X68093333Y-110626190D01*
X68045714Y-110721428D01*
X68045714Y-110816666D01*
X68664761Y-111530952D02*
X68712380Y-111435714D01*
X68712380Y-111245238D01*
X68664761Y-111150000D01*
X68569523Y-111102380D01*
X68188571Y-111102380D01*
X68093333Y-111150000D01*
X68045714Y-111245238D01*
X68045714Y-111435714D01*
X68093333Y-111530952D01*
X68188571Y-111578571D01*
X68283809Y-111578571D01*
X68379047Y-111102380D01*
X68664761Y-112388095D02*
X68712380Y-112292857D01*
X68712380Y-112102380D01*
X68664761Y-112007142D01*
X68569523Y-111959523D01*
X68188571Y-111959523D01*
X68093333Y-112007142D01*
X68045714Y-112102380D01*
X68045714Y-112292857D01*
X68093333Y-112388095D01*
X68188571Y-112435714D01*
X68283809Y-112435714D01*
X68379047Y-111959523D01*
X68045714Y-112864285D02*
X68712380Y-112864285D01*
X68140952Y-112864285D02*
X68093333Y-112911904D01*
X68045714Y-113007142D01*
X68045714Y-113150000D01*
X68093333Y-113245238D01*
X68188571Y-113292857D01*
X68712380Y-113292857D01*
X68712380Y-115007142D02*
X68712380Y-114530952D01*
X67712380Y-114530952D01*
X68188571Y-115340476D02*
X68188571Y-115673809D01*
X68712380Y-115816666D02*
X68712380Y-115340476D01*
X67712380Y-115340476D01*
X67712380Y-115816666D01*
X68712380Y-116245238D02*
X67712380Y-116245238D01*
X67712380Y-116483333D01*
X67760000Y-116626190D01*
X67855238Y-116721428D01*
X67950476Y-116769047D01*
X68140952Y-116816666D01*
X68283809Y-116816666D01*
X68474285Y-116769047D01*
X68569523Y-116721428D01*
X68664761Y-116626190D01*
X68712380Y-116483333D01*
X68712380Y-116245238D01*
X63001904Y-65398571D02*
X63335238Y-65398571D01*
X63335238Y-65922380D02*
X63335238Y-64922380D01*
X62859047Y-64922380D01*
X62049523Y-65922380D02*
X62049523Y-65398571D01*
X62097142Y-65303333D01*
X62192380Y-65255714D01*
X62382857Y-65255714D01*
X62478095Y-65303333D01*
X62049523Y-65874761D02*
X62144761Y-65922380D01*
X62382857Y-65922380D01*
X62478095Y-65874761D01*
X62525714Y-65779523D01*
X62525714Y-65684285D01*
X62478095Y-65589047D01*
X62382857Y-65541428D01*
X62144761Y-65541428D01*
X62049523Y-65493809D01*
X61573333Y-65255714D02*
X61573333Y-65922380D01*
X61573333Y-65350952D02*
X61525714Y-65303333D01*
X61430476Y-65255714D01*
X61287619Y-65255714D01*
X61192380Y-65303333D01*
X61144761Y-65398571D01*
X61144761Y-65922380D01*
X103738095Y-104980000D02*
X103833333Y-104932380D01*
X103976190Y-104932380D01*
X104119047Y-104980000D01*
X104214285Y-105075238D01*
X104261904Y-105170476D01*
X104309523Y-105360952D01*
X104309523Y-105503809D01*
X104261904Y-105694285D01*
X104214285Y-105789523D01*
X104119047Y-105884761D01*
X103976190Y-105932380D01*
X103880952Y-105932380D01*
X103738095Y-105884761D01*
X103690476Y-105837142D01*
X103690476Y-105503809D01*
X103880952Y-105503809D01*
X55428571Y-65366666D02*
X55428571Y-65700000D01*
X55952380Y-65842857D02*
X55952380Y-65366666D01*
X54952380Y-65366666D01*
X54952380Y-65842857D01*
X55952380Y-66176190D02*
X55285714Y-66700000D01*
X55285714Y-66176190D02*
X55952380Y-66700000D01*
X55285714Y-66938095D02*
X55285714Y-67319047D01*
X54952380Y-67080952D02*
X55809523Y-67080952D01*
X55904761Y-67128571D01*
X55952380Y-67223809D01*
X55952380Y-67319047D01*
X55428571Y-68747619D02*
X55428571Y-68414285D01*
X55952380Y-68414285D02*
X54952380Y-68414285D01*
X54952380Y-68890476D01*
X55952380Y-69700000D02*
X55428571Y-69700000D01*
X55333333Y-69652380D01*
X55285714Y-69557142D01*
X55285714Y-69366666D01*
X55333333Y-69271428D01*
X55904761Y-69700000D02*
X55952380Y-69604761D01*
X55952380Y-69366666D01*
X55904761Y-69271428D01*
X55809523Y-69223809D01*
X55714285Y-69223809D01*
X55619047Y-69271428D01*
X55571428Y-69366666D01*
X55571428Y-69604761D01*
X55523809Y-69700000D01*
X55285714Y-70176190D02*
X55952380Y-70176190D01*
X55380952Y-70176190D02*
X55333333Y-70223809D01*
X55285714Y-70319047D01*
X55285714Y-70461904D01*
X55333333Y-70557142D01*
X55428571Y-70604761D01*
X55952380Y-70604761D01*
X55952380Y-71842857D02*
X54952380Y-71842857D01*
X54952380Y-72223809D01*
X55000000Y-72319047D01*
X55047619Y-72366666D01*
X55142857Y-72414285D01*
X55285714Y-72414285D01*
X55380952Y-72366666D01*
X55428571Y-72319047D01*
X55476190Y-72223809D01*
X55476190Y-71842857D01*
X55285714Y-72747619D02*
X55952380Y-72938095D01*
X55476190Y-73128571D01*
X55952380Y-73319047D01*
X55285714Y-73509523D01*
X55952380Y-73890476D02*
X55285714Y-73890476D01*
X55476190Y-73890476D02*
X55380952Y-73938095D01*
X55333333Y-73985714D01*
X55285714Y-74080952D01*
X55285714Y-74176190D01*
X77335714Y-101711904D02*
X76878571Y-101711904D01*
X77107142Y-102511904D02*
X77107142Y-101711904D01*
X76611904Y-102511904D02*
X76611904Y-101711904D01*
X76345238Y-102283333D01*
X76078571Y-101711904D01*
X76078571Y-102511904D01*
X79048095Y-74358571D02*
X78905238Y-74406190D01*
X78857619Y-74453809D01*
X78810000Y-74549047D01*
X78810000Y-74691904D01*
X78857619Y-74787142D01*
X78905238Y-74834761D01*
X79000476Y-74882380D01*
X79381428Y-74882380D01*
X79381428Y-73882380D01*
X79048095Y-73882380D01*
X78952857Y-73930000D01*
X78905238Y-73977619D01*
X78857619Y-74072857D01*
X78857619Y-74168095D01*
X78905238Y-74263333D01*
X78952857Y-74310952D01*
X79048095Y-74358571D01*
X79381428Y-74358571D01*
X78429047Y-74596666D02*
X77952857Y-74596666D01*
X78524285Y-74882380D02*
X78190952Y-73882380D01*
X77857619Y-74882380D01*
X77667142Y-73882380D02*
X77095714Y-73882380D01*
X77381428Y-74882380D02*
X77381428Y-73882380D01*
X108899047Y-112943571D02*
X109232380Y-112943571D01*
X109232380Y-113467380D02*
X109232380Y-112467380D01*
X108756190Y-112467380D01*
X108232380Y-113467380D02*
X108327619Y-113419761D01*
X108375238Y-113372142D01*
X108422857Y-113276904D01*
X108422857Y-112991190D01*
X108375238Y-112895952D01*
X108327619Y-112848333D01*
X108232380Y-112800714D01*
X108089523Y-112800714D01*
X107994285Y-112848333D01*
X107946666Y-112895952D01*
X107899047Y-112991190D01*
X107899047Y-113276904D01*
X107946666Y-113372142D01*
X107994285Y-113419761D01*
X108089523Y-113467380D01*
X108232380Y-113467380D01*
X107565714Y-113467380D02*
X107041904Y-112800714D01*
X107565714Y-112800714D02*
X107041904Y-113467380D01*
X106518095Y-113467380D02*
X106613333Y-113419761D01*
X106660952Y-113372142D01*
X106708571Y-113276904D01*
X106708571Y-112991190D01*
X106660952Y-112895952D01*
X106613333Y-112848333D01*
X106518095Y-112800714D01*
X106375238Y-112800714D01*
X106280000Y-112848333D01*
X106232380Y-112895952D01*
X106184761Y-112991190D01*
X106184761Y-113276904D01*
X106232380Y-113372142D01*
X106280000Y-113419761D01*
X106375238Y-113467380D01*
X106518095Y-113467380D01*
X105756190Y-113467380D02*
X105756190Y-112800714D01*
X105756190Y-112991190D02*
X105708571Y-112895952D01*
X105660952Y-112848333D01*
X105565714Y-112800714D01*
X105470476Y-112800714D01*
X105137142Y-113467380D02*
X105137142Y-112800714D01*
X105137142Y-112467380D02*
X105184761Y-112515000D01*
X105137142Y-112562619D01*
X105089523Y-112515000D01*
X105137142Y-112467380D01*
X105137142Y-112562619D01*
X104660952Y-112800714D02*
X104660952Y-113467380D01*
X104660952Y-112895952D02*
X104613333Y-112848333D01*
X104518095Y-112800714D01*
X104375238Y-112800714D01*
X104280000Y-112848333D01*
X104232380Y-112943571D01*
X104232380Y-113467380D01*
X103327619Y-112800714D02*
X103327619Y-113610238D01*
X103375238Y-113705476D01*
X103422857Y-113753095D01*
X103518095Y-113800714D01*
X103660952Y-113800714D01*
X103756190Y-113753095D01*
X103327619Y-113419761D02*
X103422857Y-113467380D01*
X103613333Y-113467380D01*
X103708571Y-113419761D01*
X103756190Y-113372142D01*
X103803809Y-113276904D01*
X103803809Y-112991190D01*
X103756190Y-112895952D01*
X103708571Y-112848333D01*
X103613333Y-112800714D01*
X103422857Y-112800714D01*
X103327619Y-112848333D01*
X108660952Y-115077380D02*
X108660952Y-114077380D01*
X108327619Y-114791666D01*
X107994285Y-114077380D01*
X107994285Y-115077380D01*
X107375238Y-115077380D02*
X107470476Y-115029761D01*
X107518095Y-114982142D01*
X107565714Y-114886904D01*
X107565714Y-114601190D01*
X107518095Y-114505952D01*
X107470476Y-114458333D01*
X107375238Y-114410714D01*
X107232380Y-114410714D01*
X107137142Y-114458333D01*
X107089523Y-114505952D01*
X107041904Y-114601190D01*
X107041904Y-114886904D01*
X107089523Y-114982142D01*
X107137142Y-115029761D01*
X107232380Y-115077380D01*
X107375238Y-115077380D01*
X106184761Y-115077380D02*
X106184761Y-114077380D01*
X106184761Y-115029761D02*
X106280000Y-115077380D01*
X106470476Y-115077380D01*
X106565714Y-115029761D01*
X106613333Y-114982142D01*
X106660952Y-114886904D01*
X106660952Y-114601190D01*
X106613333Y-114505952D01*
X106565714Y-114458333D01*
X106470476Y-114410714D01*
X106280000Y-114410714D01*
X106184761Y-114458333D01*
X105280000Y-114410714D02*
X105280000Y-115077380D01*
X105708571Y-114410714D02*
X105708571Y-114934523D01*
X105660952Y-115029761D01*
X105565714Y-115077380D01*
X105422857Y-115077380D01*
X105327619Y-115029761D01*
X105280000Y-114982142D01*
X104660952Y-115077380D02*
X104756190Y-115029761D01*
X104803809Y-114934523D01*
X104803809Y-114077380D01*
X103899047Y-115029761D02*
X103994285Y-115077380D01*
X104184761Y-115077380D01*
X104280000Y-115029761D01*
X104327619Y-114934523D01*
X104327619Y-114553571D01*
X104280000Y-114458333D01*
X104184761Y-114410714D01*
X103994285Y-114410714D01*
X103899047Y-114458333D01*
X103851428Y-114553571D01*
X103851428Y-114648809D01*
X104327619Y-114744047D01*
X97761428Y-65303571D02*
X97618571Y-65351190D01*
X97570952Y-65398809D01*
X97523333Y-65494047D01*
X97523333Y-65636904D01*
X97570952Y-65732142D01*
X97618571Y-65779761D01*
X97713809Y-65827380D01*
X98094761Y-65827380D01*
X98094761Y-64827380D01*
X97761428Y-64827380D01*
X97666190Y-64875000D01*
X97618571Y-64922619D01*
X97570952Y-65017857D01*
X97570952Y-65113095D01*
X97618571Y-65208333D01*
X97666190Y-65255952D01*
X97761428Y-65303571D01*
X98094761Y-65303571D01*
X96666190Y-65827380D02*
X96666190Y-65303571D01*
X96713809Y-65208333D01*
X96809047Y-65160714D01*
X96999523Y-65160714D01*
X97094761Y-65208333D01*
X96666190Y-65779761D02*
X96761428Y-65827380D01*
X96999523Y-65827380D01*
X97094761Y-65779761D01*
X97142380Y-65684523D01*
X97142380Y-65589285D01*
X97094761Y-65494047D01*
X96999523Y-65446428D01*
X96761428Y-65446428D01*
X96666190Y-65398809D01*
X96332857Y-65160714D02*
X95951904Y-65160714D01*
X96190000Y-64827380D02*
X96190000Y-65684523D01*
X96142380Y-65779761D01*
X96047142Y-65827380D01*
X95951904Y-65827380D01*
X95761428Y-65160714D02*
X95380476Y-65160714D01*
X95618571Y-64827380D02*
X95618571Y-65684523D01*
X95570952Y-65779761D01*
X95475714Y-65827380D01*
X95380476Y-65827380D01*
X94666190Y-65779761D02*
X94761428Y-65827380D01*
X94951904Y-65827380D01*
X95047142Y-65779761D01*
X95094761Y-65684523D01*
X95094761Y-65303571D01*
X95047142Y-65208333D01*
X94951904Y-65160714D01*
X94761428Y-65160714D01*
X94666190Y-65208333D01*
X94618571Y-65303571D01*
X94618571Y-65398809D01*
X95094761Y-65494047D01*
X94190000Y-65827380D02*
X94190000Y-65160714D01*
X94190000Y-65351190D02*
X94142380Y-65255952D01*
X94094761Y-65208333D01*
X93999523Y-65160714D01*
X93904285Y-65160714D01*
X93666190Y-65160714D02*
X93428095Y-65827380D01*
X93190000Y-65160714D02*
X93428095Y-65827380D01*
X93523333Y-66065476D01*
X93570952Y-66113095D01*
X93666190Y-66160714D01*
X97904285Y-67389761D02*
X97761428Y-67437380D01*
X97523333Y-67437380D01*
X97428095Y-67389761D01*
X97380476Y-67342142D01*
X97332857Y-67246904D01*
X97332857Y-67151666D01*
X97380476Y-67056428D01*
X97428095Y-67008809D01*
X97523333Y-66961190D01*
X97713809Y-66913571D01*
X97809047Y-66865952D01*
X97856666Y-66818333D01*
X97904285Y-66723095D01*
X97904285Y-66627857D01*
X97856666Y-66532619D01*
X97809047Y-66485000D01*
X97713809Y-66437380D01*
X97475714Y-66437380D01*
X97332857Y-66485000D01*
X96999523Y-66770714D02*
X96809047Y-67437380D01*
X96618571Y-66961190D01*
X96428095Y-67437380D01*
X96237619Y-66770714D01*
X95856666Y-67437380D02*
X95856666Y-66770714D01*
X95856666Y-66437380D02*
X95904285Y-66485000D01*
X95856666Y-66532619D01*
X95809047Y-66485000D01*
X95856666Y-66437380D01*
X95856666Y-66532619D01*
X95523333Y-66770714D02*
X95142380Y-66770714D01*
X95380476Y-66437380D02*
X95380476Y-67294523D01*
X95332857Y-67389761D01*
X95237619Y-67437380D01*
X95142380Y-67437380D01*
X94380476Y-67389761D02*
X94475714Y-67437380D01*
X94666190Y-67437380D01*
X94761428Y-67389761D01*
X94809047Y-67342142D01*
X94856666Y-67246904D01*
X94856666Y-66961190D01*
X94809047Y-66865952D01*
X94761428Y-66818333D01*
X94666190Y-66770714D01*
X94475714Y-66770714D01*
X94380476Y-66818333D01*
X93951904Y-67437380D02*
X93951904Y-66437380D01*
X93523333Y-67437380D02*
X93523333Y-66913571D01*
X93570952Y-66818333D01*
X93666190Y-66770714D01*
X93809047Y-66770714D01*
X93904285Y-66818333D01*
X93951904Y-66865952D01*
X55504285Y-87062380D02*
X55504285Y-86062380D01*
X55266190Y-86062380D01*
X55123333Y-86110000D01*
X55028095Y-86205238D01*
X54980476Y-86300476D01*
X54932857Y-86490952D01*
X54932857Y-86633809D01*
X54980476Y-86824285D01*
X55028095Y-86919523D01*
X55123333Y-87014761D01*
X55266190Y-87062380D01*
X55504285Y-87062380D01*
X54551904Y-86776666D02*
X54075714Y-86776666D01*
X54647142Y-87062380D02*
X54313809Y-86062380D01*
X53980476Y-87062380D01*
X53647142Y-87062380D02*
X53647142Y-86062380D01*
X53647142Y-86538571D02*
X53075714Y-86538571D01*
X53075714Y-87062380D02*
X53075714Y-86062380D01*
X104285714Y-100814761D02*
X104142857Y-100862380D01*
X103904761Y-100862380D01*
X103809523Y-100814761D01*
X103761904Y-100767142D01*
X103714285Y-100671904D01*
X103714285Y-100576666D01*
X103761904Y-100481428D01*
X103809523Y-100433809D01*
X103904761Y-100386190D01*
X104095238Y-100338571D01*
X104190476Y-100290952D01*
X104238095Y-100243333D01*
X104285714Y-100148095D01*
X104285714Y-100052857D01*
X104238095Y-99957619D01*
X104190476Y-99910000D01*
X104095238Y-99862380D01*
X103857142Y-99862380D01*
X103714285Y-99910000D01*
X54960952Y-84382380D02*
X54960952Y-83382380D01*
X54722857Y-83382380D01*
X54580000Y-83430000D01*
X54484761Y-83525238D01*
X54437142Y-83620476D01*
X54389523Y-83810952D01*
X54389523Y-83953809D01*
X54437142Y-84144285D01*
X54484761Y-84239523D01*
X54580000Y-84334761D01*
X54722857Y-84382380D01*
X54960952Y-84382380D01*
X53960952Y-84382380D02*
X53960952Y-83382380D01*
X53627619Y-83382380D02*
X53056190Y-83382380D01*
X53341904Y-84382380D02*
X53341904Y-83382380D01*
D12*
X92101428Y-62717142D02*
X90958571Y-62717142D01*
X91530000Y-63288571D02*
X91530000Y-62145714D01*
D10*
X100286666Y-115222380D02*
X100286666Y-114222380D01*
X99858095Y-114317619D02*
X99810476Y-114270000D01*
X99715238Y-114222380D01*
X99477142Y-114222380D01*
X99381904Y-114270000D01*
X99334285Y-114317619D01*
X99286666Y-114412857D01*
X99286666Y-114508095D01*
X99334285Y-114650952D01*
X99905714Y-115222380D01*
X99286666Y-115222380D01*
X98286666Y-115127142D02*
X98334285Y-115174761D01*
X98477142Y-115222380D01*
X98572380Y-115222380D01*
X98715238Y-115174761D01*
X98810476Y-115079523D01*
X98858095Y-114984285D01*
X98905714Y-114793809D01*
X98905714Y-114650952D01*
X98858095Y-114460476D01*
X98810476Y-114365238D01*
X98715238Y-114270000D01*
X98572380Y-114222380D01*
X98477142Y-114222380D01*
X98334285Y-114270000D01*
X98286666Y-114317619D01*
X97239047Y-114222380D02*
X96667619Y-114222380D01*
X96953333Y-115222380D02*
X96953333Y-114222380D01*
X95953333Y-115174761D02*
X96048571Y-115222380D01*
X96239047Y-115222380D01*
X96334285Y-115174761D01*
X96381904Y-115079523D01*
X96381904Y-114698571D01*
X96334285Y-114603333D01*
X96239047Y-114555714D01*
X96048571Y-114555714D01*
X95953333Y-114603333D01*
X95905714Y-114698571D01*
X95905714Y-114793809D01*
X96381904Y-114889047D01*
X95524761Y-115174761D02*
X95429523Y-115222380D01*
X95239047Y-115222380D01*
X95143809Y-115174761D01*
X95096190Y-115079523D01*
X95096190Y-115031904D01*
X95143809Y-114936666D01*
X95239047Y-114889047D01*
X95381904Y-114889047D01*
X95477142Y-114841428D01*
X95524761Y-114746190D01*
X95524761Y-114698571D01*
X95477142Y-114603333D01*
X95381904Y-114555714D01*
X95239047Y-114555714D01*
X95143809Y-114603333D01*
X94810476Y-114555714D02*
X94429523Y-114555714D01*
X94667619Y-114222380D02*
X94667619Y-115079523D01*
X94620000Y-115174761D01*
X94524761Y-115222380D01*
X94429523Y-115222380D01*
X93334285Y-115222380D02*
X93334285Y-114222380D01*
X92953333Y-114222380D01*
X92858095Y-114270000D01*
X92810476Y-114317619D01*
X92762857Y-114412857D01*
X92762857Y-114555714D01*
X92810476Y-114650952D01*
X92858095Y-114698571D01*
X92953333Y-114746190D01*
X93334285Y-114746190D01*
X92191428Y-115222380D02*
X92286666Y-115174761D01*
X92334285Y-115127142D01*
X92381904Y-115031904D01*
X92381904Y-114746190D01*
X92334285Y-114650952D01*
X92286666Y-114603333D01*
X92191428Y-114555714D01*
X92048571Y-114555714D01*
X91953333Y-114603333D01*
X91905714Y-114650952D01*
X91858095Y-114746190D01*
X91858095Y-115031904D01*
X91905714Y-115127142D01*
X91953333Y-115174761D01*
X92048571Y-115222380D01*
X92191428Y-115222380D01*
X91429523Y-115222380D02*
X91429523Y-114555714D01*
X91429523Y-114222380D02*
X91477142Y-114270000D01*
X91429523Y-114317619D01*
X91381904Y-114270000D01*
X91429523Y-114222380D01*
X91429523Y-114317619D01*
X90953333Y-114555714D02*
X90953333Y-115222380D01*
X90953333Y-114650952D02*
X90905714Y-114603333D01*
X90810476Y-114555714D01*
X90667619Y-114555714D01*
X90572380Y-114603333D01*
X90524761Y-114698571D01*
X90524761Y-115222380D01*
X90191428Y-114555714D02*
X89810476Y-114555714D01*
X90048571Y-114222380D02*
X90048571Y-115079523D01*
X90000952Y-115174761D01*
X89905714Y-115222380D01*
X89810476Y-115222380D01*
X73534285Y-66291666D02*
X73058095Y-66291666D01*
X73629523Y-66577380D02*
X73296190Y-65577380D01*
X72962857Y-66577380D01*
X72200952Y-66577380D02*
X72200952Y-65577380D01*
X72200952Y-66529761D02*
X72296190Y-66577380D01*
X72486666Y-66577380D01*
X72581904Y-66529761D01*
X72629523Y-66482142D01*
X72677142Y-66386904D01*
X72677142Y-66101190D01*
X72629523Y-66005952D01*
X72581904Y-65958333D01*
X72486666Y-65910714D01*
X72296190Y-65910714D01*
X72200952Y-65958333D01*
X71296190Y-66577380D02*
X71296190Y-66053571D01*
X71343809Y-65958333D01*
X71439047Y-65910714D01*
X71629523Y-65910714D01*
X71724761Y-65958333D01*
X71296190Y-66529761D02*
X71391428Y-66577380D01*
X71629523Y-66577380D01*
X71724761Y-66529761D01*
X71772380Y-66434523D01*
X71772380Y-66339285D01*
X71724761Y-66244047D01*
X71629523Y-66196428D01*
X71391428Y-66196428D01*
X71296190Y-66148809D01*
X70962857Y-65910714D02*
X70581904Y-65910714D01*
X70820000Y-66577380D02*
X70820000Y-65720238D01*
X70772380Y-65625000D01*
X70677142Y-65577380D01*
X70581904Y-65577380D01*
X70248571Y-66577380D02*
X70248571Y-65910714D01*
X70248571Y-66101190D02*
X70200952Y-66005952D01*
X70153333Y-65958333D01*
X70058095Y-65910714D01*
X69962857Y-65910714D01*
X69200952Y-65910714D02*
X69200952Y-66577380D01*
X69629523Y-65910714D02*
X69629523Y-66434523D01*
X69581904Y-66529761D01*
X69486666Y-66577380D01*
X69343809Y-66577380D01*
X69248571Y-66529761D01*
X69200952Y-66482142D01*
X68724761Y-66577380D02*
X68724761Y-65910714D01*
X68724761Y-65577380D02*
X68772380Y-65625000D01*
X68724761Y-65672619D01*
X68677142Y-65625000D01*
X68724761Y-65577380D01*
X68724761Y-65672619D01*
X68391428Y-65910714D02*
X68010476Y-65910714D01*
X68248571Y-65577380D02*
X68248571Y-66434523D01*
X68200952Y-66529761D01*
X68105714Y-66577380D01*
X68010476Y-66577380D01*
X75581904Y-68187380D02*
X76058095Y-68187380D01*
X76058095Y-67187380D01*
X75248571Y-68187380D02*
X75248571Y-67520714D01*
X75248571Y-67187380D02*
X75296190Y-67235000D01*
X75248571Y-67282619D01*
X75200952Y-67235000D01*
X75248571Y-67187380D01*
X75248571Y-67282619D01*
X74772380Y-68187380D02*
X74772380Y-67187380D01*
X74153333Y-68187380D02*
X74248571Y-68139761D01*
X74296190Y-68092142D01*
X74343809Y-67996904D01*
X74343809Y-67711190D01*
X74296190Y-67615952D01*
X74248571Y-67568333D01*
X74153333Y-67520714D01*
X74010476Y-67520714D01*
X73915238Y-67568333D01*
X73867619Y-67615952D01*
X73820000Y-67711190D01*
X73820000Y-67996904D01*
X73867619Y-68092142D01*
X73915238Y-68139761D01*
X74010476Y-68187380D01*
X74153333Y-68187380D01*
X73391428Y-67520714D02*
X73391428Y-68187380D01*
X73391428Y-67615952D02*
X73343809Y-67568333D01*
X73248571Y-67520714D01*
X73105714Y-67520714D01*
X73010476Y-67568333D01*
X72962857Y-67663571D01*
X72962857Y-68187380D01*
X71153333Y-68092142D02*
X71200952Y-68139761D01*
X71343809Y-68187380D01*
X71439047Y-68187380D01*
X71581904Y-68139761D01*
X71677142Y-68044523D01*
X71724761Y-67949285D01*
X71772380Y-67758809D01*
X71772380Y-67615952D01*
X71724761Y-67425476D01*
X71677142Y-67330238D01*
X71581904Y-67235000D01*
X71439047Y-67187380D01*
X71343809Y-67187380D01*
X71200952Y-67235000D01*
X71153333Y-67282619D01*
X70724761Y-68187380D02*
X70724761Y-67187380D01*
X70296190Y-68187380D02*
X70296190Y-67663571D01*
X70343809Y-67568333D01*
X70439047Y-67520714D01*
X70581904Y-67520714D01*
X70677142Y-67568333D01*
X70724761Y-67615952D01*
X69391428Y-68187380D02*
X69391428Y-67663571D01*
X69439047Y-67568333D01*
X69534285Y-67520714D01*
X69724761Y-67520714D01*
X69820000Y-67568333D01*
X69391428Y-68139761D02*
X69486666Y-68187380D01*
X69724761Y-68187380D01*
X69820000Y-68139761D01*
X69867619Y-68044523D01*
X69867619Y-67949285D01*
X69820000Y-67854047D01*
X69724761Y-67806428D01*
X69486666Y-67806428D01*
X69391428Y-67758809D01*
X68915238Y-68187380D02*
X68915238Y-67520714D01*
X68915238Y-67711190D02*
X68867619Y-67615952D01*
X68820000Y-67568333D01*
X68724761Y-67520714D01*
X68629523Y-67520714D01*
X67867619Y-67520714D02*
X67867619Y-68330238D01*
X67915238Y-68425476D01*
X67962857Y-68473095D01*
X68058095Y-68520714D01*
X68200952Y-68520714D01*
X68296190Y-68473095D01*
X67867619Y-68139761D02*
X67962857Y-68187380D01*
X68153333Y-68187380D01*
X68248571Y-68139761D01*
X68296190Y-68092142D01*
X68343809Y-67996904D01*
X68343809Y-67711190D01*
X68296190Y-67615952D01*
X68248571Y-67568333D01*
X68153333Y-67520714D01*
X67962857Y-67520714D01*
X67867619Y-67568333D01*
X67391428Y-68187380D02*
X67391428Y-67520714D01*
X67391428Y-67187380D02*
X67439047Y-67235000D01*
X67391428Y-67282619D01*
X67343809Y-67235000D01*
X67391428Y-67187380D01*
X67391428Y-67282619D01*
X66915238Y-67520714D02*
X66915238Y-68187380D01*
X66915238Y-67615952D02*
X66867619Y-67568333D01*
X66772380Y-67520714D01*
X66629523Y-67520714D01*
X66534285Y-67568333D01*
X66486666Y-67663571D01*
X66486666Y-68187380D01*
X65581904Y-67520714D02*
X65581904Y-68330238D01*
X65629523Y-68425476D01*
X65677142Y-68473095D01*
X65772380Y-68520714D01*
X65915238Y-68520714D01*
X66010476Y-68473095D01*
X65581904Y-68139761D02*
X65677142Y-68187380D01*
X65867619Y-68187380D01*
X65962857Y-68139761D01*
X66010476Y-68092142D01*
X66058095Y-67996904D01*
X66058095Y-67711190D01*
X66010476Y-67615952D01*
X65962857Y-67568333D01*
X65867619Y-67520714D01*
X65677142Y-67520714D01*
X65581904Y-67568333D01*
X73200952Y-69797380D02*
X73200952Y-68797380D01*
X72867619Y-69511666D01*
X72534285Y-68797380D01*
X72534285Y-69797380D01*
X71915238Y-69797380D02*
X72010476Y-69749761D01*
X72058095Y-69702142D01*
X72105714Y-69606904D01*
X72105714Y-69321190D01*
X72058095Y-69225952D01*
X72010476Y-69178333D01*
X71915238Y-69130714D01*
X71772380Y-69130714D01*
X71677142Y-69178333D01*
X71629523Y-69225952D01*
X71581904Y-69321190D01*
X71581904Y-69606904D01*
X71629523Y-69702142D01*
X71677142Y-69749761D01*
X71772380Y-69797380D01*
X71915238Y-69797380D01*
X70724761Y-69797380D02*
X70724761Y-68797380D01*
X70724761Y-69749761D02*
X70820000Y-69797380D01*
X71010476Y-69797380D01*
X71105714Y-69749761D01*
X71153333Y-69702142D01*
X71200952Y-69606904D01*
X71200952Y-69321190D01*
X71153333Y-69225952D01*
X71105714Y-69178333D01*
X71010476Y-69130714D01*
X70820000Y-69130714D01*
X70724761Y-69178333D01*
X69820000Y-69130714D02*
X69820000Y-69797380D01*
X70248571Y-69130714D02*
X70248571Y-69654523D01*
X70200952Y-69749761D01*
X70105714Y-69797380D01*
X69962857Y-69797380D01*
X69867619Y-69749761D01*
X69820000Y-69702142D01*
X69200952Y-69797380D02*
X69296190Y-69749761D01*
X69343809Y-69654523D01*
X69343809Y-68797380D01*
X68439047Y-69749761D02*
X68534285Y-69797380D01*
X68724761Y-69797380D01*
X68820000Y-69749761D01*
X68867619Y-69654523D01*
X68867619Y-69273571D01*
X68820000Y-69178333D01*
X68724761Y-69130714D01*
X68534285Y-69130714D01*
X68439047Y-69178333D01*
X68391428Y-69273571D01*
X68391428Y-69368809D01*
X68867619Y-69464047D01*
X74105714Y-71407380D02*
X74105714Y-70407380D01*
X73724761Y-70407380D01*
X73629523Y-70455000D01*
X73581904Y-70502619D01*
X73534285Y-70597857D01*
X73534285Y-70740714D01*
X73581904Y-70835952D01*
X73629523Y-70883571D01*
X73724761Y-70931190D01*
X74105714Y-70931190D01*
X73105714Y-71407380D02*
X73105714Y-70407380D01*
X72629523Y-71407380D02*
X72629523Y-70407380D01*
X72391428Y-70407380D01*
X72248571Y-70455000D01*
X72153333Y-70550238D01*
X72105714Y-70645476D01*
X72058095Y-70835952D01*
X72058095Y-70978809D01*
X72105714Y-71169285D01*
X72153333Y-71264523D01*
X72248571Y-71359761D01*
X72391428Y-71407380D01*
X72629523Y-71407380D01*
X71867619Y-71502619D02*
X71105714Y-71502619D01*
X70343809Y-71407380D02*
X70915238Y-71407380D01*
X70629523Y-71407380D02*
X70629523Y-70407380D01*
X70724761Y-70550238D01*
X70820000Y-70645476D01*
X70915238Y-70693095D01*
X69867619Y-71407380D02*
X69677142Y-71407380D01*
X69581904Y-71359761D01*
X69534285Y-71312142D01*
X69439047Y-71169285D01*
X69391428Y-70978809D01*
X69391428Y-70597857D01*
X69439047Y-70502619D01*
X69486666Y-70455000D01*
X69581904Y-70407380D01*
X69772380Y-70407380D01*
X69867619Y-70455000D01*
X69915238Y-70502619D01*
X69962857Y-70597857D01*
X69962857Y-70835952D01*
X69915238Y-70931190D01*
X69867619Y-70978809D01*
X69772380Y-71026428D01*
X69581904Y-71026428D01*
X69486666Y-70978809D01*
X69439047Y-70931190D01*
X69391428Y-70835952D01*
X68772380Y-70407380D02*
X68677142Y-70407380D01*
X68581904Y-70455000D01*
X68534285Y-70502619D01*
X68486666Y-70597857D01*
X68439047Y-70788333D01*
X68439047Y-71026428D01*
X68486666Y-71216904D01*
X68534285Y-71312142D01*
X68581904Y-71359761D01*
X68677142Y-71407380D01*
X68772380Y-71407380D01*
X68867619Y-71359761D01*
X68915238Y-71312142D01*
X68962857Y-71216904D01*
X69010476Y-71026428D01*
X69010476Y-70788333D01*
X68962857Y-70597857D01*
X68915238Y-70502619D01*
X68867619Y-70455000D01*
X68772380Y-70407380D01*
X67581904Y-70740714D02*
X67581904Y-71407380D01*
X67820000Y-70359761D02*
X68058095Y-71074047D01*
X67439047Y-71074047D01*
X79491904Y-79272380D02*
X79158571Y-80272380D01*
X78825238Y-79272380D01*
X78491904Y-79891428D02*
X77730000Y-79891428D01*
X77253809Y-79748571D02*
X76920476Y-79748571D01*
X76777619Y-80272380D02*
X77253809Y-80272380D01*
X77253809Y-79272380D01*
X76777619Y-79272380D01*
X76444285Y-79272380D02*
X75777619Y-80272380D01*
X75777619Y-79272380D02*
X76444285Y-80272380D01*
X75539523Y-79272380D02*
X74968095Y-79272380D01*
X75253809Y-80272380D02*
X75253809Y-79272380D01*
D12*
X92211428Y-67337142D02*
X91068571Y-67337142D01*
D10*
X59552380Y-110730476D02*
X59076190Y-110397142D01*
X59552380Y-110159047D02*
X58552380Y-110159047D01*
X58552380Y-110540000D01*
X58600000Y-110635238D01*
X58647619Y-110682857D01*
X58742857Y-110730476D01*
X58885714Y-110730476D01*
X58980952Y-110682857D01*
X59028571Y-110635238D01*
X59076190Y-110540000D01*
X59076190Y-110159047D01*
X59504761Y-111540000D02*
X59552380Y-111444761D01*
X59552380Y-111254285D01*
X59504761Y-111159047D01*
X59409523Y-111111428D01*
X59028571Y-111111428D01*
X58933333Y-111159047D01*
X58885714Y-111254285D01*
X58885714Y-111444761D01*
X58933333Y-111540000D01*
X59028571Y-111587619D01*
X59123809Y-111587619D01*
X59219047Y-111111428D01*
X59552380Y-112444761D02*
X58552380Y-112444761D01*
X59504761Y-112444761D02*
X59552380Y-112349523D01*
X59552380Y-112159047D01*
X59504761Y-112063809D01*
X59457142Y-112016190D01*
X59361904Y-111968571D01*
X59076190Y-111968571D01*
X58980952Y-112016190D01*
X58933333Y-112063809D01*
X58885714Y-112159047D01*
X58885714Y-112349523D01*
X58933333Y-112444761D01*
X59552380Y-114159047D02*
X59552380Y-113682857D01*
X58552380Y-113682857D01*
X59028571Y-114492380D02*
X59028571Y-114825714D01*
X59552380Y-114968571D02*
X59552380Y-114492380D01*
X58552380Y-114492380D01*
X58552380Y-114968571D01*
X59552380Y-115397142D02*
X58552380Y-115397142D01*
X58552380Y-115635238D01*
X58600000Y-115778095D01*
X58695238Y-115873333D01*
X58790476Y-115920952D01*
X58980952Y-115968571D01*
X59123809Y-115968571D01*
X59314285Y-115920952D01*
X59409523Y-115873333D01*
X59504761Y-115778095D01*
X59552380Y-115635238D01*
X59552380Y-115397142D01*
X97251904Y-94492380D02*
X96918571Y-95492380D01*
X96585238Y-94492380D01*
X96251904Y-95111428D02*
X95490000Y-95111428D01*
X95013809Y-94968571D02*
X94680476Y-94968571D01*
X94537619Y-95492380D02*
X95013809Y-95492380D01*
X95013809Y-94492380D01*
X94537619Y-94492380D01*
X94204285Y-94492380D02*
X93537619Y-95492380D01*
X93537619Y-94492380D02*
X94204285Y-95492380D01*
X93299523Y-94492380D02*
X92728095Y-94492380D01*
X93013809Y-95492380D02*
X93013809Y-94492380D01*
X79882380Y-65045714D02*
X79882380Y-65617142D01*
X80882380Y-65331428D02*
X79882380Y-65331428D01*
X80834761Y-66331428D02*
X80882380Y-66236190D01*
X80882380Y-66045714D01*
X80834761Y-65950476D01*
X80739523Y-65902857D01*
X80358571Y-65902857D01*
X80263333Y-65950476D01*
X80215714Y-66045714D01*
X80215714Y-66236190D01*
X80263333Y-66331428D01*
X80358571Y-66379047D01*
X80453809Y-66379047D01*
X80549047Y-65902857D01*
X80834761Y-66760000D02*
X80882380Y-66855238D01*
X80882380Y-67045714D01*
X80834761Y-67140952D01*
X80739523Y-67188571D01*
X80691904Y-67188571D01*
X80596666Y-67140952D01*
X80549047Y-67045714D01*
X80549047Y-66902857D01*
X80501428Y-66807619D01*
X80406190Y-66760000D01*
X80358571Y-66760000D01*
X80263333Y-66807619D01*
X80215714Y-66902857D01*
X80215714Y-67045714D01*
X80263333Y-67140952D01*
X80215714Y-67474285D02*
X80215714Y-67855238D01*
X79882380Y-67617142D02*
X80739523Y-67617142D01*
X80834761Y-67664761D01*
X80882380Y-67760000D01*
X80882380Y-67855238D01*
X80882380Y-68950476D02*
X79882380Y-68950476D01*
X79882380Y-69331428D01*
X79930000Y-69426666D01*
X79977619Y-69474285D01*
X80072857Y-69521904D01*
X80215714Y-69521904D01*
X80310952Y-69474285D01*
X80358571Y-69426666D01*
X80406190Y-69331428D01*
X80406190Y-68950476D01*
X80882380Y-70093333D02*
X80834761Y-69998095D01*
X80787142Y-69950476D01*
X80691904Y-69902857D01*
X80406190Y-69902857D01*
X80310952Y-69950476D01*
X80263333Y-69998095D01*
X80215714Y-70093333D01*
X80215714Y-70236190D01*
X80263333Y-70331428D01*
X80310952Y-70379047D01*
X80406190Y-70426666D01*
X80691904Y-70426666D01*
X80787142Y-70379047D01*
X80834761Y-70331428D01*
X80882380Y-70236190D01*
X80882380Y-70093333D01*
X80882380Y-70855238D02*
X80215714Y-70855238D01*
X79882380Y-70855238D02*
X79930000Y-70807619D01*
X79977619Y-70855238D01*
X79930000Y-70902857D01*
X79882380Y-70855238D01*
X79977619Y-70855238D01*
X80215714Y-71331428D02*
X80882380Y-71331428D01*
X80310952Y-71331428D02*
X80263333Y-71379047D01*
X80215714Y-71474285D01*
X80215714Y-71617142D01*
X80263333Y-71712380D01*
X80358571Y-71760000D01*
X80882380Y-71760000D01*
X80215714Y-72093333D02*
X80215714Y-72474285D01*
X79882380Y-72236190D02*
X80739523Y-72236190D01*
X80834761Y-72283809D01*
X80882380Y-72379047D01*
X80882380Y-72474285D01*
%TO.C,J202*%
X79315714Y-76562380D02*
X79315714Y-77276666D01*
X79363333Y-77419523D01*
X79458571Y-77514761D01*
X79601428Y-77562380D01*
X79696666Y-77562380D01*
X78887142Y-76657619D02*
X78839523Y-76610000D01*
X78744285Y-76562380D01*
X78506190Y-76562380D01*
X78410952Y-76610000D01*
X78363333Y-76657619D01*
X78315714Y-76752857D01*
X78315714Y-76848095D01*
X78363333Y-76990952D01*
X78934761Y-77562380D01*
X78315714Y-77562380D01*
X77696666Y-76562380D02*
X77601428Y-76562380D01*
X77506190Y-76610000D01*
X77458571Y-76657619D01*
X77410952Y-76752857D01*
X77363333Y-76943333D01*
X77363333Y-77181428D01*
X77410952Y-77371904D01*
X77458571Y-77467142D01*
X77506190Y-77514761D01*
X77601428Y-77562380D01*
X77696666Y-77562380D01*
X77791904Y-77514761D01*
X77839523Y-77467142D01*
X77887142Y-77371904D01*
X77934761Y-77181428D01*
X77934761Y-76943333D01*
X77887142Y-76752857D01*
X77839523Y-76657619D01*
X77791904Y-76610000D01*
X77696666Y-76562380D01*
X76982380Y-76657619D02*
X76934761Y-76610000D01*
X76839523Y-76562380D01*
X76601428Y-76562380D01*
X76506190Y-76610000D01*
X76458571Y-76657619D01*
X76410952Y-76752857D01*
X76410952Y-76848095D01*
X76458571Y-76990952D01*
X77030000Y-77562380D01*
X76410952Y-77562380D01*
D13*
%TO.C,W101*%
X89849830Y-101339610D02*
X90200016Y-101124111D01*
X90051861Y-101380016D01*
X90307766Y-101231861D01*
X90092267Y-101582047D01*
X90631015Y-101555109D02*
X90469390Y-101393485D01*
X90550203Y-101474297D02*
X90267360Y-101757140D01*
X90280829Y-101689796D01*
X90280829Y-101635922D01*
X90267360Y-101595516D01*
X90523265Y-102013045D02*
X90550203Y-102039983D01*
X90590609Y-102053451D01*
X90617546Y-102053451D01*
X90657952Y-102039983D01*
X90725296Y-101999577D01*
X90792639Y-101932233D01*
X90833045Y-101864890D01*
X90846514Y-101824483D01*
X90846514Y-101797546D01*
X90833045Y-101757140D01*
X90806108Y-101730203D01*
X90765702Y-101716734D01*
X90738764Y-101716734D01*
X90698358Y-101730203D01*
X90631015Y-101770609D01*
X90563671Y-101837952D01*
X90523265Y-101905296D01*
X90509796Y-101945702D01*
X90509796Y-101972639D01*
X90523265Y-102013045D01*
X91169763Y-102093857D02*
X91008138Y-101932233D01*
X91088951Y-102013045D02*
X90806108Y-102295888D01*
X90819577Y-102228544D01*
X90819577Y-102174670D01*
X90806108Y-102134264D01*
X87073079Y-98635922D02*
X87032673Y-98622453D01*
X86992267Y-98582047D01*
X86965329Y-98528172D01*
X86965329Y-98474297D01*
X86978798Y-98433891D01*
X87019204Y-98366548D01*
X87059610Y-98326142D01*
X87126954Y-98285735D01*
X87167360Y-98272267D01*
X87221235Y-98272267D01*
X87275109Y-98299204D01*
X87302047Y-98326142D01*
X87328984Y-98380016D01*
X87328984Y-98406954D01*
X87234703Y-98501235D01*
X87180829Y-98447360D01*
X87477140Y-98501235D02*
X87194297Y-98784077D01*
X87638764Y-98662859D01*
X87355922Y-98945702D01*
X87773451Y-98797546D02*
X87490609Y-99080389D01*
X87557952Y-99147732D01*
X87611827Y-99174670D01*
X87665702Y-99174670D01*
X87706108Y-99161201D01*
X87773451Y-99120795D01*
X87813857Y-99080389D01*
X87854264Y-99013045D01*
X87867732Y-98972639D01*
X87867732Y-98918764D01*
X87840795Y-98864890D01*
X87773451Y-98797546D01*
D14*
X93093947Y-101544238D02*
X93295977Y-101746269D01*
X93548516Y-101291700D02*
X93194962Y-101645253D01*
X93430664Y-101813612D02*
X93430664Y-101847284D01*
X93447500Y-101897791D01*
X93531680Y-101981971D01*
X93582187Y-101998807D01*
X93615859Y-101998807D01*
X93666367Y-101981971D01*
X93700038Y-101948299D01*
X93733710Y-101880956D01*
X93733710Y-101476895D01*
X93952577Y-101695761D01*
D13*
%TO.C,W302*%
X117857055Y-109723939D02*
X117816649Y-109710470D01*
X117776243Y-109670064D01*
X117749305Y-109616189D01*
X117749305Y-109562314D01*
X117762774Y-109521908D01*
X117803180Y-109454565D01*
X117843586Y-109414159D01*
X117910930Y-109373752D01*
X117951336Y-109360284D01*
X118005211Y-109360284D01*
X118059085Y-109387221D01*
X118086023Y-109414159D01*
X118112960Y-109468033D01*
X118112960Y-109494971D01*
X118018679Y-109589252D01*
X117964805Y-109535377D01*
X118261116Y-109589252D02*
X117978273Y-109872094D01*
X118422740Y-109750876D01*
X118139898Y-110033719D01*
X118557427Y-109885563D02*
X118274585Y-110168406D01*
X118341928Y-110235749D01*
X118395803Y-110262687D01*
X118449678Y-110262687D01*
X118490084Y-110249218D01*
X118557427Y-110208812D01*
X118597833Y-110168406D01*
X118638240Y-110101062D01*
X118651708Y-110060656D01*
X118651708Y-110006781D01*
X118624771Y-109952907D01*
X118557427Y-109885563D01*
D14*
X112177013Y-104654238D02*
X112379043Y-104856269D01*
X112631582Y-104401700D02*
X112278028Y-104755253D01*
X112648417Y-105125643D02*
X112581074Y-105058299D01*
X112564238Y-105007791D01*
X112564238Y-104974120D01*
X112581074Y-104889940D01*
X112631582Y-104805761D01*
X112766269Y-104671074D01*
X112816776Y-104654238D01*
X112850448Y-104654238D01*
X112900956Y-104671074D01*
X112968299Y-104738417D01*
X112985135Y-104788925D01*
X112985135Y-104822597D01*
X112968299Y-104873104D01*
X112884120Y-104957284D01*
X112833612Y-104974120D01*
X112799940Y-104974120D01*
X112749433Y-104957284D01*
X112682089Y-104889940D01*
X112665253Y-104839433D01*
X112665253Y-104805761D01*
X112682089Y-104755253D01*
D13*
X114059831Y-101649610D02*
X114410017Y-101434111D01*
X114261862Y-101690016D01*
X114517767Y-101541861D01*
X114302268Y-101892047D01*
X114383080Y-101972859D02*
X114558173Y-102147952D01*
X114571642Y-101945922D01*
X114612048Y-101986328D01*
X114652454Y-101999796D01*
X114679391Y-101999796D01*
X114719797Y-101986328D01*
X114787141Y-101918984D01*
X114800610Y-101878578D01*
X114800610Y-101851641D01*
X114787141Y-101811235D01*
X114706329Y-101730422D01*
X114665923Y-101716954D01*
X114638985Y-101716954D01*
X114733266Y-102323045D02*
X114760204Y-102349983D01*
X114800610Y-102363451D01*
X114827547Y-102363451D01*
X114867953Y-102349983D01*
X114935297Y-102309577D01*
X115002640Y-102242233D01*
X115043046Y-102174890D01*
X115056515Y-102134483D01*
X115056515Y-102107546D01*
X115043046Y-102067140D01*
X115016109Y-102040203D01*
X114975703Y-102026734D01*
X114948765Y-102026734D01*
X114908359Y-102040203D01*
X114841016Y-102080609D01*
X114773672Y-102147952D01*
X114733266Y-102215296D01*
X114719797Y-102255702D01*
X114719797Y-102282639D01*
X114733266Y-102323045D01*
X114962234Y-102498138D02*
X114962234Y-102525076D01*
X114975703Y-102565482D01*
X115043046Y-102632825D01*
X115083452Y-102646294D01*
X115110390Y-102646294D01*
X115150796Y-102632825D01*
X115177733Y-102605888D01*
X115204671Y-102552013D01*
X115204671Y-102228764D01*
X115379764Y-102403857D01*
%TO.C,W301*%
X124442857Y-98370952D02*
X124347619Y-98770952D01*
X124271428Y-98485238D01*
X124195238Y-98770952D01*
X124100000Y-98370952D01*
X123985714Y-98370952D02*
X123738095Y-98370952D01*
X123871428Y-98523333D01*
X123814285Y-98523333D01*
X123776190Y-98542380D01*
X123757142Y-98561428D01*
X123738095Y-98599523D01*
X123738095Y-98694761D01*
X123757142Y-98732857D01*
X123776190Y-98751904D01*
X123814285Y-98770952D01*
X123928571Y-98770952D01*
X123966666Y-98751904D01*
X123985714Y-98732857D01*
X123490476Y-98370952D02*
X123452380Y-98370952D01*
X123414285Y-98390000D01*
X123395238Y-98409047D01*
X123376190Y-98447142D01*
X123357142Y-98523333D01*
X123357142Y-98618571D01*
X123376190Y-98694761D01*
X123395238Y-98732857D01*
X123414285Y-98751904D01*
X123452380Y-98770952D01*
X123490476Y-98770952D01*
X123528571Y-98751904D01*
X123547619Y-98732857D01*
X123566666Y-98694761D01*
X123585714Y-98618571D01*
X123585714Y-98523333D01*
X123566666Y-98447142D01*
X123547619Y-98409047D01*
X123528571Y-98390000D01*
X123490476Y-98370952D01*
X122976190Y-98770952D02*
X123204761Y-98770952D01*
X123090476Y-98770952D02*
X123090476Y-98370952D01*
X123128571Y-98428095D01*
X123166666Y-98466190D01*
X123204761Y-98485238D01*
X129924761Y-100200000D02*
X129962857Y-100180952D01*
X130020000Y-100180952D01*
X130077142Y-100200000D01*
X130115238Y-100238095D01*
X130134285Y-100276190D01*
X130153333Y-100352380D01*
X130153333Y-100409523D01*
X130134285Y-100485714D01*
X130115238Y-100523809D01*
X130077142Y-100561904D01*
X130020000Y-100580952D01*
X129981904Y-100580952D01*
X129924761Y-100561904D01*
X129905714Y-100542857D01*
X129905714Y-100409523D01*
X129981904Y-100409523D01*
X129734285Y-100580952D02*
X129734285Y-100180952D01*
X129505714Y-100580952D01*
X129505714Y-100180952D01*
X129315238Y-100580952D02*
X129315238Y-100180952D01*
X129220000Y-100180952D01*
X129162857Y-100200000D01*
X129124761Y-100238095D01*
X129105714Y-100276190D01*
X129086666Y-100352380D01*
X129086666Y-100409523D01*
X129105714Y-100485714D01*
X129124761Y-100523809D01*
X129162857Y-100561904D01*
X129220000Y-100580952D01*
X129315238Y-100580952D01*
D14*
X122090952Y-97086190D02*
X121805238Y-97086190D01*
X121948095Y-97586190D02*
X121948095Y-97086190D01*
X121400476Y-97086190D02*
X121638571Y-97086190D01*
X121662380Y-97324285D01*
X121638571Y-97300476D01*
X121590952Y-97276666D01*
X121471904Y-97276666D01*
X121424285Y-97300476D01*
X121400476Y-97324285D01*
X121376666Y-97371904D01*
X121376666Y-97490952D01*
X121400476Y-97538571D01*
X121424285Y-97562380D01*
X121471904Y-97586190D01*
X121590952Y-97586190D01*
X121638571Y-97562380D01*
X121662380Y-97538571D01*
D10*
%TO.C,Q103*%
X98927142Y-101702857D02*
X98870000Y-101588571D01*
X98755714Y-101474285D01*
X98584285Y-101302857D01*
X98527142Y-101188571D01*
X98527142Y-101074285D01*
X98812857Y-101131428D02*
X98755714Y-101017142D01*
X98641428Y-100902857D01*
X98412857Y-100845714D01*
X98012857Y-100845714D01*
X97784285Y-100902857D01*
X97670000Y-101017142D01*
X97612857Y-101131428D01*
X97612857Y-101360000D01*
X97670000Y-101474285D01*
X97784285Y-101588571D01*
X98012857Y-101645714D01*
X98412857Y-101645714D01*
X98641428Y-101588571D01*
X98755714Y-101474285D01*
X98812857Y-101360000D01*
X98812857Y-101131428D01*
X98812857Y-102788571D02*
X98812857Y-102102857D01*
X98812857Y-102445714D02*
X97612857Y-102445714D01*
X97784285Y-102331428D01*
X97898571Y-102217142D01*
X97955714Y-102102857D01*
X97612857Y-103531428D02*
X97612857Y-103645714D01*
X97670000Y-103760000D01*
X97727142Y-103817142D01*
X97841428Y-103874285D01*
X98070000Y-103931428D01*
X98355714Y-103931428D01*
X98584285Y-103874285D01*
X98698571Y-103817142D01*
X98755714Y-103760000D01*
X98812857Y-103645714D01*
X98812857Y-103531428D01*
X98755714Y-103417142D01*
X98698571Y-103360000D01*
X98584285Y-103302857D01*
X98355714Y-103245714D01*
X98070000Y-103245714D01*
X97841428Y-103302857D01*
X97727142Y-103360000D01*
X97670000Y-103417142D01*
X97612857Y-103531428D01*
X97612857Y-104331428D02*
X97612857Y-105074285D01*
X98070000Y-104674285D01*
X98070000Y-104845714D01*
X98127142Y-104960000D01*
X98184285Y-105017142D01*
X98298571Y-105074285D01*
X98584285Y-105074285D01*
X98698571Y-105017142D01*
X98755714Y-104960000D01*
X98812857Y-104845714D01*
X98812857Y-104502857D01*
X98755714Y-104388571D01*
X98698571Y-104331428D01*
%TO.C,J301*%
X126172380Y-92474285D02*
X126886666Y-92474285D01*
X127029523Y-92426666D01*
X127124761Y-92331428D01*
X127172380Y-92188571D01*
X127172380Y-92093333D01*
X126172380Y-92855238D02*
X126172380Y-93474285D01*
X126553333Y-93140952D01*
X126553333Y-93283809D01*
X126600952Y-93379047D01*
X126648571Y-93426666D01*
X126743809Y-93474285D01*
X126981904Y-93474285D01*
X127077142Y-93426666D01*
X127124761Y-93379047D01*
X127172380Y-93283809D01*
X127172380Y-92998095D01*
X127124761Y-92902857D01*
X127077142Y-92855238D01*
X126172380Y-94093333D02*
X126172380Y-94188571D01*
X126220000Y-94283809D01*
X126267619Y-94331428D01*
X126362857Y-94379047D01*
X126553333Y-94426666D01*
X126791428Y-94426666D01*
X126981904Y-94379047D01*
X127077142Y-94331428D01*
X127124761Y-94283809D01*
X127172380Y-94188571D01*
X127172380Y-94093333D01*
X127124761Y-93998095D01*
X127077142Y-93950476D01*
X126981904Y-93902857D01*
X126791428Y-93855238D01*
X126553333Y-93855238D01*
X126362857Y-93902857D01*
X126267619Y-93950476D01*
X126220000Y-93998095D01*
X126172380Y-94093333D01*
X127172380Y-95379047D02*
X127172380Y-94807619D01*
X127172380Y-95093333D02*
X126172380Y-95093333D01*
X126315238Y-94998095D01*
X126410476Y-94902857D01*
X126458095Y-94807619D01*
%TO.C,J109*%
X97075714Y-91492380D02*
X97075714Y-92206666D01*
X97123333Y-92349523D01*
X97218571Y-92444761D01*
X97361428Y-92492380D01*
X97456666Y-92492380D01*
X96075714Y-92492380D02*
X96647142Y-92492380D01*
X96361428Y-92492380D02*
X96361428Y-91492380D01*
X96456666Y-91635238D01*
X96551904Y-91730476D01*
X96647142Y-91778095D01*
X95456666Y-91492380D02*
X95361428Y-91492380D01*
X95266190Y-91540000D01*
X95218571Y-91587619D01*
X95170952Y-91682857D01*
X95123333Y-91873333D01*
X95123333Y-92111428D01*
X95170952Y-92301904D01*
X95218571Y-92397142D01*
X95266190Y-92444761D01*
X95361428Y-92492380D01*
X95456666Y-92492380D01*
X95551904Y-92444761D01*
X95599523Y-92397142D01*
X95647142Y-92301904D01*
X95694761Y-92111428D01*
X95694761Y-91873333D01*
X95647142Y-91682857D01*
X95599523Y-91587619D01*
X95551904Y-91540000D01*
X95456666Y-91492380D01*
X94647142Y-92492380D02*
X94456666Y-92492380D01*
X94361428Y-92444761D01*
X94313809Y-92397142D01*
X94218571Y-92254285D01*
X94170952Y-92063809D01*
X94170952Y-91682857D01*
X94218571Y-91587619D01*
X94266190Y-91540000D01*
X94361428Y-91492380D01*
X94551904Y-91492380D01*
X94647142Y-91540000D01*
X94694761Y-91587619D01*
X94742380Y-91682857D01*
X94742380Y-91920952D01*
X94694761Y-92016190D01*
X94647142Y-92063809D01*
X94551904Y-92111428D01*
X94361428Y-92111428D01*
X94266190Y-92063809D01*
X94218571Y-92016190D01*
X94170952Y-91920952D01*
%TO.C,JP101*%
X62510000Y-68416666D02*
X62510000Y-68916666D01*
X62543333Y-69016666D01*
X62610000Y-69083333D01*
X62710000Y-69116666D01*
X62776666Y-69116666D01*
X62176666Y-69116666D02*
X62176666Y-68416666D01*
X61910000Y-68416666D01*
X61843333Y-68450000D01*
X61810000Y-68483333D01*
X61776666Y-68550000D01*
X61776666Y-68650000D01*
X61810000Y-68716666D01*
X61843333Y-68750000D01*
X61910000Y-68783333D01*
X62176666Y-68783333D01*
X61110000Y-69116666D02*
X61510000Y-69116666D01*
X61310000Y-69116666D02*
X61310000Y-68416666D01*
X61376666Y-68516666D01*
X61443333Y-68583333D01*
X61510000Y-68616666D01*
X60676666Y-68416666D02*
X60610000Y-68416666D01*
X60543333Y-68450000D01*
X60510000Y-68483333D01*
X60476666Y-68550000D01*
X60443333Y-68683333D01*
X60443333Y-68850000D01*
X60476666Y-68983333D01*
X60510000Y-69050000D01*
X60543333Y-69083333D01*
X60610000Y-69116666D01*
X60676666Y-69116666D01*
X60743333Y-69083333D01*
X60776666Y-69050000D01*
X60810000Y-68983333D01*
X60843333Y-68850000D01*
X60843333Y-68683333D01*
X60810000Y-68550000D01*
X60776666Y-68483333D01*
X60743333Y-68450000D01*
X60676666Y-68416666D01*
X59776666Y-69116666D02*
X60176666Y-69116666D01*
X59976666Y-69116666D02*
X59976666Y-68416666D01*
X60043333Y-68516666D01*
X60110000Y-68583333D01*
X60176666Y-68616666D01*
%TO.C,C305*%
X123517142Y-92670952D02*
X123564761Y-92623333D01*
X123612380Y-92480476D01*
X123612380Y-92385238D01*
X123564761Y-92242380D01*
X123469523Y-92147142D01*
X123374285Y-92099523D01*
X123183809Y-92051904D01*
X123040952Y-92051904D01*
X122850476Y-92099523D01*
X122755238Y-92147142D01*
X122660000Y-92242380D01*
X122612380Y-92385238D01*
X122612380Y-92480476D01*
X122660000Y-92623333D01*
X122707619Y-92670952D01*
X122612380Y-93004285D02*
X122612380Y-93623333D01*
X122993333Y-93290000D01*
X122993333Y-93432857D01*
X123040952Y-93528095D01*
X123088571Y-93575714D01*
X123183809Y-93623333D01*
X123421904Y-93623333D01*
X123517142Y-93575714D01*
X123564761Y-93528095D01*
X123612380Y-93432857D01*
X123612380Y-93147142D01*
X123564761Y-93051904D01*
X123517142Y-93004285D01*
X122612380Y-94242380D02*
X122612380Y-94337619D01*
X122660000Y-94432857D01*
X122707619Y-94480476D01*
X122802857Y-94528095D01*
X122993333Y-94575714D01*
X123231428Y-94575714D01*
X123421904Y-94528095D01*
X123517142Y-94480476D01*
X123564761Y-94432857D01*
X123612380Y-94337619D01*
X123612380Y-94242380D01*
X123564761Y-94147142D01*
X123517142Y-94099523D01*
X123421904Y-94051904D01*
X123231428Y-94004285D01*
X122993333Y-94004285D01*
X122802857Y-94051904D01*
X122707619Y-94099523D01*
X122660000Y-94147142D01*
X122612380Y-94242380D01*
X122612380Y-95480476D02*
X122612380Y-95004285D01*
X123088571Y-94956666D01*
X123040952Y-95004285D01*
X122993333Y-95099523D01*
X122993333Y-95337619D01*
X123040952Y-95432857D01*
X123088571Y-95480476D01*
X123183809Y-95528095D01*
X123421904Y-95528095D01*
X123517142Y-95480476D01*
X123564761Y-95432857D01*
X123612380Y-95337619D01*
X123612380Y-95099523D01*
X123564761Y-95004285D01*
X123517142Y-94956666D01*
%TO.C,C303*%
X109579047Y-105597142D02*
X109626666Y-105644761D01*
X109769523Y-105692380D01*
X109864761Y-105692380D01*
X110007619Y-105644761D01*
X110102857Y-105549523D01*
X110150476Y-105454285D01*
X110198095Y-105263809D01*
X110198095Y-105120952D01*
X110150476Y-104930476D01*
X110102857Y-104835238D01*
X110007619Y-104740000D01*
X109864761Y-104692380D01*
X109769523Y-104692380D01*
X109626666Y-104740000D01*
X109579047Y-104787619D01*
X109245714Y-104692380D02*
X108626666Y-104692380D01*
X108960000Y-105073333D01*
X108817142Y-105073333D01*
X108721904Y-105120952D01*
X108674285Y-105168571D01*
X108626666Y-105263809D01*
X108626666Y-105501904D01*
X108674285Y-105597142D01*
X108721904Y-105644761D01*
X108817142Y-105692380D01*
X109102857Y-105692380D01*
X109198095Y-105644761D01*
X109245714Y-105597142D01*
X108007619Y-104692380D02*
X107912380Y-104692380D01*
X107817142Y-104740000D01*
X107769523Y-104787619D01*
X107721904Y-104882857D01*
X107674285Y-105073333D01*
X107674285Y-105311428D01*
X107721904Y-105501904D01*
X107769523Y-105597142D01*
X107817142Y-105644761D01*
X107912380Y-105692380D01*
X108007619Y-105692380D01*
X108102857Y-105644761D01*
X108150476Y-105597142D01*
X108198095Y-105501904D01*
X108245714Y-105311428D01*
X108245714Y-105073333D01*
X108198095Y-104882857D01*
X108150476Y-104787619D01*
X108102857Y-104740000D01*
X108007619Y-104692380D01*
X107340952Y-104692380D02*
X106721904Y-104692380D01*
X107055238Y-105073333D01*
X106912380Y-105073333D01*
X106817142Y-105120952D01*
X106769523Y-105168571D01*
X106721904Y-105263809D01*
X106721904Y-105501904D01*
X106769523Y-105597142D01*
X106817142Y-105644761D01*
X106912380Y-105692380D01*
X107198095Y-105692380D01*
X107293333Y-105644761D01*
X107340952Y-105597142D01*
%TO.C,C304*%
X103247142Y-85440952D02*
X103294761Y-85393333D01*
X103342380Y-85250476D01*
X103342380Y-85155238D01*
X103294761Y-85012380D01*
X103199523Y-84917142D01*
X103104285Y-84869523D01*
X102913809Y-84821904D01*
X102770952Y-84821904D01*
X102580476Y-84869523D01*
X102485238Y-84917142D01*
X102390000Y-85012380D01*
X102342380Y-85155238D01*
X102342380Y-85250476D01*
X102390000Y-85393333D01*
X102437619Y-85440952D01*
X102342380Y-85774285D02*
X102342380Y-86393333D01*
X102723333Y-86060000D01*
X102723333Y-86202857D01*
X102770952Y-86298095D01*
X102818571Y-86345714D01*
X102913809Y-86393333D01*
X103151904Y-86393333D01*
X103247142Y-86345714D01*
X103294761Y-86298095D01*
X103342380Y-86202857D01*
X103342380Y-85917142D01*
X103294761Y-85821904D01*
X103247142Y-85774285D01*
X102342380Y-87012380D02*
X102342380Y-87107619D01*
X102390000Y-87202857D01*
X102437619Y-87250476D01*
X102532857Y-87298095D01*
X102723333Y-87345714D01*
X102961428Y-87345714D01*
X103151904Y-87298095D01*
X103247142Y-87250476D01*
X103294761Y-87202857D01*
X103342380Y-87107619D01*
X103342380Y-87012380D01*
X103294761Y-86917142D01*
X103247142Y-86869523D01*
X103151904Y-86821904D01*
X102961428Y-86774285D01*
X102723333Y-86774285D01*
X102532857Y-86821904D01*
X102437619Y-86869523D01*
X102390000Y-86917142D01*
X102342380Y-87012380D01*
X102675714Y-88202857D02*
X103342380Y-88202857D01*
X102294761Y-87964761D02*
X103009047Y-87726666D01*
X103009047Y-88345714D01*
%TO.C,BT201*%
X87008571Y-63271904D02*
X87056190Y-63414761D01*
X87103809Y-63462380D01*
X87199047Y-63510000D01*
X87341904Y-63510000D01*
X87437142Y-63462380D01*
X87484761Y-63414761D01*
X87532380Y-63319523D01*
X87532380Y-62938571D01*
X86532380Y-62938571D01*
X86532380Y-63271904D01*
X86580000Y-63367142D01*
X86627619Y-63414761D01*
X86722857Y-63462380D01*
X86818095Y-63462380D01*
X86913333Y-63414761D01*
X86960952Y-63367142D01*
X87008571Y-63271904D01*
X87008571Y-62938571D01*
X86532380Y-63795714D02*
X86532380Y-64367142D01*
X87532380Y-64081428D02*
X86532380Y-64081428D01*
X86627619Y-64652857D02*
X86580000Y-64700476D01*
X86532380Y-64795714D01*
X86532380Y-65033809D01*
X86580000Y-65129047D01*
X86627619Y-65176666D01*
X86722857Y-65224285D01*
X86818095Y-65224285D01*
X86960952Y-65176666D01*
X87532380Y-64605238D01*
X87532380Y-65224285D01*
X86532380Y-65843333D02*
X86532380Y-65938571D01*
X86580000Y-66033809D01*
X86627619Y-66081428D01*
X86722857Y-66129047D01*
X86913333Y-66176666D01*
X87151428Y-66176666D01*
X87341904Y-66129047D01*
X87437142Y-66081428D01*
X87484761Y-66033809D01*
X87532380Y-65938571D01*
X87532380Y-65843333D01*
X87484761Y-65748095D01*
X87437142Y-65700476D01*
X87341904Y-65652857D01*
X87151428Y-65605238D01*
X86913333Y-65605238D01*
X86722857Y-65652857D01*
X86627619Y-65700476D01*
X86580000Y-65748095D01*
X86532380Y-65843333D01*
X87532380Y-67129047D02*
X87532380Y-66557619D01*
X87532380Y-66843333D02*
X86532380Y-66843333D01*
X86675238Y-66748095D01*
X86770476Y-66652857D01*
X86818095Y-66557619D01*
%TO.C,C302*%
X122809047Y-104637142D02*
X122856666Y-104684761D01*
X122999523Y-104732380D01*
X123094761Y-104732380D01*
X123237619Y-104684761D01*
X123332857Y-104589523D01*
X123380476Y-104494285D01*
X123428095Y-104303809D01*
X123428095Y-104160952D01*
X123380476Y-103970476D01*
X123332857Y-103875238D01*
X123237619Y-103780000D01*
X123094761Y-103732380D01*
X122999523Y-103732380D01*
X122856666Y-103780000D01*
X122809047Y-103827619D01*
X122475714Y-103732380D02*
X121856666Y-103732380D01*
X122190000Y-104113333D01*
X122047142Y-104113333D01*
X121951904Y-104160952D01*
X121904285Y-104208571D01*
X121856666Y-104303809D01*
X121856666Y-104541904D01*
X121904285Y-104637142D01*
X121951904Y-104684761D01*
X122047142Y-104732380D01*
X122332857Y-104732380D01*
X122428095Y-104684761D01*
X122475714Y-104637142D01*
X121237619Y-103732380D02*
X121142380Y-103732380D01*
X121047142Y-103780000D01*
X120999523Y-103827619D01*
X120951904Y-103922857D01*
X120904285Y-104113333D01*
X120904285Y-104351428D01*
X120951904Y-104541904D01*
X120999523Y-104637142D01*
X121047142Y-104684761D01*
X121142380Y-104732380D01*
X121237619Y-104732380D01*
X121332857Y-104684761D01*
X121380476Y-104637142D01*
X121428095Y-104541904D01*
X121475714Y-104351428D01*
X121475714Y-104113333D01*
X121428095Y-103922857D01*
X121380476Y-103827619D01*
X121332857Y-103780000D01*
X121237619Y-103732380D01*
X120523333Y-103827619D02*
X120475714Y-103780000D01*
X120380476Y-103732380D01*
X120142380Y-103732380D01*
X120047142Y-103780000D01*
X119999523Y-103827619D01*
X119951904Y-103922857D01*
X119951904Y-104018095D01*
X119999523Y-104160952D01*
X120570952Y-104732380D01*
X119951904Y-104732380D01*
%TO.C,L301*%
X119482380Y-90975602D02*
X119482380Y-90499411D01*
X118482380Y-90499411D01*
X118482380Y-91213697D02*
X118482380Y-91832745D01*
X118863333Y-91499411D01*
X118863333Y-91642269D01*
X118910952Y-91737507D01*
X118958571Y-91785126D01*
X119053809Y-91832745D01*
X119291904Y-91832745D01*
X119387142Y-91785126D01*
X119434761Y-91737507D01*
X119482380Y-91642269D01*
X119482380Y-91356554D01*
X119434761Y-91261316D01*
X119387142Y-91213697D01*
X118482380Y-92451792D02*
X118482380Y-92547030D01*
X118530000Y-92642269D01*
X118577619Y-92689888D01*
X118672857Y-92737507D01*
X118863333Y-92785126D01*
X119101428Y-92785126D01*
X119291904Y-92737507D01*
X119387142Y-92689888D01*
X119434761Y-92642269D01*
X119482380Y-92547030D01*
X119482380Y-92451792D01*
X119434761Y-92356554D01*
X119387142Y-92308935D01*
X119291904Y-92261316D01*
X119101428Y-92213697D01*
X118863333Y-92213697D01*
X118672857Y-92261316D01*
X118577619Y-92308935D01*
X118530000Y-92356554D01*
X118482380Y-92451792D01*
X119482380Y-93737507D02*
X119482380Y-93166078D01*
X119482380Y-93451792D02*
X118482380Y-93451792D01*
X118625238Y-93356554D01*
X118720476Y-93261316D01*
X118768095Y-93166078D01*
X111847619Y-94760364D02*
X112847619Y-94760364D01*
X112371428Y-94760364D02*
X112371428Y-94188935D01*
X111847619Y-94188935D02*
X112847619Y-94188935D01*
X116550000Y-100638095D02*
X116597619Y-100733333D01*
X116597619Y-100876190D01*
X116550000Y-101019047D01*
X116454761Y-101114285D01*
X116359523Y-101161904D01*
X116169047Y-101209523D01*
X116026190Y-101209523D01*
X115835714Y-101161904D01*
X115740476Y-101114285D01*
X115645238Y-101019047D01*
X115597619Y-100876190D01*
X115597619Y-100780952D01*
X115645238Y-100638095D01*
X115692857Y-100590476D01*
X116026190Y-100590476D01*
X116026190Y-100780952D01*
%TO.C,L101*%
X118629047Y-116462380D02*
X119105238Y-116462380D01*
X119105238Y-115462380D01*
X117771904Y-116462380D02*
X118343333Y-116462380D01*
X118057619Y-116462380D02*
X118057619Y-115462380D01*
X118152857Y-115605238D01*
X118248095Y-115700476D01*
X118343333Y-115748095D01*
X117152857Y-115462380D02*
X117057619Y-115462380D01*
X116962380Y-115510000D01*
X116914761Y-115557619D01*
X116867142Y-115652857D01*
X116819523Y-115843333D01*
X116819523Y-116081428D01*
X116867142Y-116271904D01*
X116914761Y-116367142D01*
X116962380Y-116414761D01*
X117057619Y-116462380D01*
X117152857Y-116462380D01*
X117248095Y-116414761D01*
X117295714Y-116367142D01*
X117343333Y-116271904D01*
X117390952Y-116081428D01*
X117390952Y-115843333D01*
X117343333Y-115652857D01*
X117295714Y-115557619D01*
X117248095Y-115510000D01*
X117152857Y-115462380D01*
X115867142Y-116462380D02*
X116438571Y-116462380D01*
X116152857Y-116462380D02*
X116152857Y-115462380D01*
X116248095Y-115605238D01*
X116343333Y-115700476D01*
X116438571Y-115748095D01*
X117992380Y-112728095D02*
X116992380Y-112728095D01*
X116992380Y-112966190D01*
X117040000Y-113109047D01*
X117135238Y-113204285D01*
X117230476Y-113251904D01*
X117420952Y-113299523D01*
X117563809Y-113299523D01*
X117754285Y-113251904D01*
X117849523Y-113204285D01*
X117944761Y-113109047D01*
X117992380Y-112966190D01*
X117992380Y-112728095D01*
X108778571Y-110321428D02*
X108826190Y-110464285D01*
X108873809Y-110511904D01*
X108969047Y-110559523D01*
X109111904Y-110559523D01*
X109207142Y-110511904D01*
X109254761Y-110464285D01*
X109302380Y-110369047D01*
X109302380Y-109988095D01*
X108302380Y-109988095D01*
X108302380Y-110321428D01*
X108350000Y-110416666D01*
X108397619Y-110464285D01*
X108492857Y-110511904D01*
X108588095Y-110511904D01*
X108683333Y-110464285D01*
X108730952Y-110416666D01*
X108778571Y-110321428D01*
X108778571Y-109988095D01*
X109836666Y-106691904D02*
X109836666Y-107168095D01*
X110122380Y-106596666D02*
X109122380Y-106930000D01*
X110122380Y-107263333D01*
X117127142Y-110849523D02*
X117174761Y-110801904D01*
X117222380Y-110659047D01*
X117222380Y-110563809D01*
X117174761Y-110420952D01*
X117079523Y-110325714D01*
X116984285Y-110278095D01*
X116793809Y-110230476D01*
X116650952Y-110230476D01*
X116460476Y-110278095D01*
X116365238Y-110325714D01*
X116270000Y-110420952D01*
X116222380Y-110563809D01*
X116222380Y-110659047D01*
X116270000Y-110801904D01*
X116317619Y-110849523D01*
%TO.C,MOD201*%
X74785714Y-64622380D02*
X74785714Y-63622380D01*
X74452380Y-64336666D01*
X74119047Y-63622380D01*
X74119047Y-64622380D01*
X73452380Y-63622380D02*
X73261904Y-63622380D01*
X73166666Y-63670000D01*
X73071428Y-63765238D01*
X73023809Y-63955714D01*
X73023809Y-64289047D01*
X73071428Y-64479523D01*
X73166666Y-64574761D01*
X73261904Y-64622380D01*
X73452380Y-64622380D01*
X73547619Y-64574761D01*
X73642857Y-64479523D01*
X73690476Y-64289047D01*
X73690476Y-63955714D01*
X73642857Y-63765238D01*
X73547619Y-63670000D01*
X73452380Y-63622380D01*
X72595238Y-64622380D02*
X72595238Y-63622380D01*
X72357142Y-63622380D01*
X72214285Y-63670000D01*
X72119047Y-63765238D01*
X72071428Y-63860476D01*
X72023809Y-64050952D01*
X72023809Y-64193809D01*
X72071428Y-64384285D01*
X72119047Y-64479523D01*
X72214285Y-64574761D01*
X72357142Y-64622380D01*
X72595238Y-64622380D01*
X71642857Y-63717619D02*
X71595238Y-63670000D01*
X71500000Y-63622380D01*
X71261904Y-63622380D01*
X71166666Y-63670000D01*
X71119047Y-63717619D01*
X71071428Y-63812857D01*
X71071428Y-63908095D01*
X71119047Y-64050952D01*
X71690476Y-64622380D01*
X71071428Y-64622380D01*
X70452380Y-63622380D02*
X70357142Y-63622380D01*
X70261904Y-63670000D01*
X70214285Y-63717619D01*
X70166666Y-63812857D01*
X70119047Y-64003333D01*
X70119047Y-64241428D01*
X70166666Y-64431904D01*
X70214285Y-64527142D01*
X70261904Y-64574761D01*
X70357142Y-64622380D01*
X70452380Y-64622380D01*
X70547619Y-64574761D01*
X70595238Y-64527142D01*
X70642857Y-64431904D01*
X70690476Y-64241428D01*
X70690476Y-64003333D01*
X70642857Y-63812857D01*
X70595238Y-63717619D01*
X70547619Y-63670000D01*
X70452380Y-63622380D01*
X69166666Y-64622380D02*
X69738095Y-64622380D01*
X69452380Y-64622380D02*
X69452380Y-63622380D01*
X69547619Y-63765238D01*
X69642857Y-63860476D01*
X69738095Y-63908095D01*
%TO.C,J107*%
X45612380Y-88569285D02*
X46326666Y-88569285D01*
X46469523Y-88521666D01*
X46564761Y-88426428D01*
X46612380Y-88283571D01*
X46612380Y-88188333D01*
X46612380Y-89569285D02*
X46612380Y-88997857D01*
X46612380Y-89283571D02*
X45612380Y-89283571D01*
X45755238Y-89188333D01*
X45850476Y-89093095D01*
X45898095Y-88997857D01*
X45612380Y-90188333D02*
X45612380Y-90283571D01*
X45660000Y-90378809D01*
X45707619Y-90426428D01*
X45802857Y-90474047D01*
X45993333Y-90521666D01*
X46231428Y-90521666D01*
X46421904Y-90474047D01*
X46517142Y-90426428D01*
X46564761Y-90378809D01*
X46612380Y-90283571D01*
X46612380Y-90188333D01*
X46564761Y-90093095D01*
X46517142Y-90045476D01*
X46421904Y-89997857D01*
X46231428Y-89950238D01*
X45993333Y-89950238D01*
X45802857Y-89997857D01*
X45707619Y-90045476D01*
X45660000Y-90093095D01*
X45612380Y-90188333D01*
X45612380Y-90855000D02*
X45612380Y-91521666D01*
X46612380Y-91093095D01*
D13*
%TO.C,W101*%
X91403193Y-102029051D02*
X91142766Y-101768624D01*
X87514106Y-98154106D02*
X87253678Y-97893678D01*
D11*
X93317122Y-102901020D02*
G75*
G03*
X93317122Y-102901020I-1038142J0D01*
G01*
D13*
%TO.C,W302*%
X118295894Y-107885894D02*
X118556322Y-108146322D01*
X114406807Y-104010949D02*
X114667234Y-104271376D01*
D11*
X114569162Y-103138980D02*
G75*
G03*
X114569162Y-103138980I-1038142J0D01*
G01*
D13*
%TO.C,W301*%
X122835850Y-99000000D02*
X123204150Y-99000000D01*
X128325850Y-98990000D02*
X128694150Y-98990000D01*
D11*
X122638142Y-99002700D02*
G75*
G03*
X122638142Y-99002700I-1038142J0D01*
G01*
D15*
%TO.C,JP101*%
X59710000Y-70120000D02*
X59710000Y-70720000D01*
X62510000Y-70720000D02*
X62510000Y-70120000D01*
X60410000Y-71420000D02*
X61810000Y-71420000D01*
X61810000Y-69420000D02*
X60410000Y-69420000D01*
X62510000Y-70120000D02*
G75*
G03*
X61810000Y-69420000I-699999J1D01*
G01*
X60410000Y-69420000D02*
G75*
G03*
X59710000Y-70120000I0J-700000D01*
G01*
X59710000Y-70720000D02*
G75*
G03*
X60410000Y-71420000I700000J0D01*
G01*
X61810000Y-71420000D02*
G75*
G03*
X62510000Y-70720000I1J699999D01*
G01*
%TO.C,C305*%
X124310000Y-91660000D02*
X124310000Y-84420000D01*
X121570000Y-91660000D02*
X121570000Y-84420000D01*
X124310000Y-91660000D02*
X121570000Y-91660000D01*
X124310000Y-84420000D02*
X121570000Y-84420000D01*
%TO.C,C303*%
X104840000Y-101370000D02*
X112080000Y-101370000D01*
X112080000Y-104110000D02*
X112080000Y-101370000D01*
X104840000Y-104110000D02*
X112080000Y-104110000D01*
X104840000Y-104110000D02*
X104840000Y-101370000D01*
%TO.C,C304*%
X104190000Y-96030000D02*
X104190000Y-88790000D01*
X104190000Y-96030000D02*
X101450000Y-96030000D01*
X104190000Y-88790000D02*
X101450000Y-88790000D01*
X101450000Y-96030000D02*
X101450000Y-88790000D01*
%TO.C,C302*%
X125280000Y-103320000D02*
X125280000Y-100580000D01*
X118040000Y-103320000D02*
X125280000Y-103320000D01*
X118040000Y-103320000D02*
X118040000Y-100580000D01*
X118040000Y-100580000D02*
X125280000Y-100580000D01*
D11*
%TO.C,L301*%
X113440000Y-96484648D02*
G75*
G03*
X111293712Y-96018582I-191148J4294720D01*
G01*
X115320000Y-99544650D02*
G75*
G03*
X113139947Y-99840424I-2109985J7369895D01*
G01*
%TO.C,L101*%
X111710002Y-108930000D02*
G75*
G03*
X111551107Y-109413183I6211898J-2310500D01*
G01*
X111360000Y-111110000D02*
G75*
G03*
X112447975Y-107615302I6519455J-112943D01*
G01*
X114389999Y-111720000D02*
G75*
G03*
X114576749Y-112456867I3512621J498130D01*
G01*
X115870001Y-114149999D02*
G75*
G03*
X114727024Y-109588780I2019911J2929977D01*
G01*
D15*
%TO.C,MOD201*%
X74107500Y-63320000D02*
X66427500Y-63320000D01*
X74107500Y-63320000D02*
X74107500Y-60660000D01*
X74107500Y-60660000D02*
X66427500Y-60660000D01*
X75377500Y-63320000D02*
X76707500Y-63320000D01*
X76707500Y-63320000D02*
X76707500Y-61990000D01*
X66427500Y-63320000D02*
X66427500Y-60660000D01*
%TO.C,J107*%
X48362500Y-82689167D02*
X52102500Y-82689167D01*
X52102500Y-82689167D02*
X52102500Y-96135833D01*
X52342500Y-82449167D02*
X52342500Y-86642500D01*
X52102500Y-96135833D02*
X48362500Y-96135833D01*
X50102500Y-82449167D02*
X52342500Y-82449167D01*
%TD*%
M02*
