%TF.GenerationSoftware,KiCad,Pcbnew,8.0.9*%
%TF.CreationDate,2025-09-08T08:43:50-04:00*%
%TF.ProjectId,SignalSlinger,5369676e-616c-4536-9c69-6e6765722e6b,rev?*%
%TF.SameCoordinates,Original*%
%TF.FileFunction,Copper,L2,Inr*%
%TF.FilePolarity,Positive*%
%FSLAX46Y46*%
G04 Gerber Fmt 4.6, Leading zero omitted, Abs format (unit mm)*
G04 Created by KiCad (PCBNEW 8.0.9) date 2025-09-08 08:43:50*
%MOMM*%
%LPD*%
G01*
G04 APERTURE LIST*
G04 Aperture macros list*
%AMRoundRect*
0 Rectangle with rounded corners*
0 $1 Rounding radius*
0 $2 $3 $4 $5 $6 $7 $8 $9 X,Y pos of 4 corners*
0 Add a 4 corners polygon primitive as box body*
4,1,4,$2,$3,$4,$5,$6,$7,$8,$9,$2,$3,0*
0 Add four circle primitives for the rounded corners*
1,1,$1+$1,$2,$3*
1,1,$1+$1,$4,$5*
1,1,$1+$1,$6,$7*
1,1,$1+$1,$8,$9*
0 Add four rect primitives between the rounded corners*
20,1,$1+$1,$2,$3,$4,$5,0*
20,1,$1+$1,$4,$5,$6,$7,0*
20,1,$1+$1,$6,$7,$8,$9,0*
20,1,$1+$1,$8,$9,$2,$3,0*%
%AMHorizOval*
0 Thick line with rounded ends*
0 $1 width*
0 $2 $3 position (X,Y) of the first rounded end (center of the circle)*
0 $4 $5 position (X,Y) of the second rounded end (center of the circle)*
0 Add line between two ends*
20,1,$1,$2,$3,$4,$5,0*
0 Add two circle primitives to create the rounded ends*
1,1,$1,$2,$3*
1,1,$1,$4,$5*%
G04 Aperture macros list end*
%TA.AperFunction,ComponentPad*%
%ADD10O,1.800000X3.600000*%
%TD*%
%TA.AperFunction,ComponentPad*%
%ADD11RoundRect,0.250000X0.650000X1.550000X-0.650000X1.550000X-0.650000X-1.550000X0.650000X-1.550000X0*%
%TD*%
%TA.AperFunction,ComponentPad*%
%ADD12C,1.000000*%
%TD*%
%TA.AperFunction,ComponentPad*%
%ADD13O,1.000000X1.000000*%
%TD*%
%TA.AperFunction,ComponentPad*%
%ADD14C,1.700000*%
%TD*%
%TA.AperFunction,ComponentPad*%
%ADD15O,1.700000X1.700000*%
%TD*%
%TA.AperFunction,ComponentPad*%
%ADD16R,1.700000X1.700000*%
%TD*%
%TA.AperFunction,ComponentPad*%
%ADD17RoundRect,0.350000X-0.350000X-0.350000X0.350000X-0.350000X0.350000X0.350000X-0.350000X0.350000X0*%
%TD*%
%TA.AperFunction,ComponentPad*%
%ADD18O,1.400000X1.400000*%
%TD*%
%TA.AperFunction,ComponentPad*%
%ADD19C,0.600000*%
%TD*%
%TA.AperFunction,ComponentPad*%
%ADD20C,5.000000*%
%TD*%
%TA.AperFunction,ComponentPad*%
%ADD21C,1.400000*%
%TD*%
%TA.AperFunction,ComponentPad*%
%ADD22HorizOval,1.699260X-0.689769X0.578785X0.689769X-0.578785X0*%
%TD*%
%TA.AperFunction,ComponentPad*%
%ADD23RoundRect,0.424815X1.288262X-0.526424X-0.742131X1.177278X-1.288262X0.526424X0.742131X-1.177278X0*%
%TD*%
%TA.AperFunction,ComponentPad*%
%ADD24C,2.000000*%
%TD*%
%TA.AperFunction,ComponentPad*%
%ADD25O,2.500000X1.600000*%
%TD*%
%TA.AperFunction,ComponentPad*%
%ADD26O,7.000000X3.500000*%
%TD*%
%TA.AperFunction,ComponentPad*%
%ADD27RoundRect,0.425000X-0.425000X0.425000X-0.425000X-0.425000X0.425000X-0.425000X0.425000X0.425000X0*%
%TD*%
%TA.AperFunction,ComponentPad*%
%ADD28R,2.000000X1.905000*%
%TD*%
%TA.AperFunction,ComponentPad*%
%ADD29O,2.000000X1.905000*%
%TD*%
%TA.AperFunction,ComponentPad*%
%ADD30RoundRect,0.425000X0.425000X-0.425000X0.425000X0.425000X-0.425000X0.425000X-0.425000X-0.425000X0*%
%TD*%
%TA.AperFunction,ViaPad*%
%ADD31C,0.800000*%
%TD*%
%TA.AperFunction,ViaPad*%
%ADD32C,1.000000*%
%TD*%
%TA.AperFunction,Conductor*%
%ADD33C,0.500000*%
%TD*%
%TA.AperFunction,Conductor*%
%ADD34C,0.250000*%
%TD*%
%TA.AperFunction,Conductor*%
%ADD35C,0.750000*%
%TD*%
G04 APERTURE END LIST*
D10*
%TO.N,Net-(J205-Pin_1)*%
%TO.C,J205*%
X79000000Y-69000000D03*
D11*
%TO.N,GND*%
X76500000Y-69000000D03*
X74000000Y-69000000D03*
D10*
%TO.N,Net-(J205-Pin_4)*%
X71500000Y-69000000D03*
%TD*%
D12*
%TO.N,Net-(JP101-A)*%
%TO.C,JP101*%
X103785000Y-107090000D03*
%TO.N,Net-(JP101-C)*%
X105055000Y-107090000D03*
%TO.N,Net-(JP101-B)*%
X106325000Y-107090000D03*
%TD*%
D13*
%TO.N,Net-(D107-K)*%
%TO.C,JP102*%
X100420000Y-112790000D03*
D12*
%TO.N,Net-(JP102-B)*%
X101690000Y-112790000D03*
%TD*%
D14*
%TO.N,Net-(J101-Pin_1)*%
%TO.C,J101*%
X80750000Y-110685000D03*
D15*
%TO.N,+BATT*%
X78210000Y-110685000D03*
%TD*%
D16*
%TO.N,GND*%
%TO.C,J104*%
X61270000Y-114320000D03*
D15*
%TO.N,Net-(D103-A)*%
X61270000Y-111780000D03*
%TD*%
D17*
%TO.N,Net-(D209-A)*%
%TO.C,R1*%
X120620000Y-90270000D03*
D18*
%TO.N,Vdrive*%
X123160000Y-90270000D03*
%TD*%
D16*
%TO.N,GND*%
%TO.C,J203*%
X52570000Y-66205000D03*
D15*
%TO.N,Net-(J203-Pin_2)*%
X52570000Y-63665000D03*
%TD*%
D19*
%TO.N,CLK1*%
%TO.C,W101*%
X97610000Y-101910000D03*
%TO.N,GND*%
X94873839Y-109427541D03*
%TD*%
D16*
%TO.N,GND*%
%TO.C,J103*%
X87600000Y-110825000D03*
D15*
%TO.N,Net-(D101-K)*%
X85060000Y-110825000D03*
%TD*%
D20*
%TO.N,GND*%
%TO.C,REF\u002A\u002A*%
X51855000Y-71950000D03*
%TD*%
%TO.N,GND*%
%TO.C,REF\u002A\u002A*%
X128055000Y-71950000D03*
%TD*%
D16*
%TO.N,GND*%
%TO.C,J106*%
X70410000Y-114320000D03*
D15*
%TO.N,Net-(D104-A)*%
X70410000Y-111780000D03*
%TD*%
D21*
%TO.N,GND*%
%TO.C,R2*%
X123060000Y-87920000D03*
D18*
%TO.N,Net-(D209-A)*%
X120520000Y-87920000D03*
%TD*%
D22*
%TO.N,Net-(JP101-A)*%
%TO.C,Q103*%
X103577319Y-103585753D03*
%TO.N,Net-(L101-TAP)*%
X105210000Y-101640000D03*
D23*
%TO.N,GND*%
X106842681Y-99694247D03*
%TD*%
D24*
%TO.N,Net-(C301-Pad2)*%
%TO.C,L301*%
X111810000Y-97995100D03*
%TO.N,Net-(C303-Pad2)*%
X115810000Y-99938200D03*
%TD*%
%TO.N,Net-(JP102-B)*%
%TO.C,L101*%
X105790000Y-114860000D03*
%TO.N,Net-(L101-TAP)*%
X108290000Y-108860000D03*
X108290000Y-114860000D03*
%TO.N,RF_Raw*%
X110790000Y-108860000D03*
%TD*%
D21*
%TO.N,Net-(L101-TAP)*%
%TO.C,R109*%
X108970000Y-106490000D03*
D18*
%TO.N,Net-(JP101-B)*%
X108970000Y-103950000D03*
%TD*%
D25*
%TO.N,Net-(J301-In)*%
%TO.C,J301*%
X127275000Y-89412500D03*
%TO.N,GND*%
X127275000Y-86872500D03*
D26*
X132355000Y-84332500D03*
X132355000Y-94492500D03*
%TD*%
D15*
%TO.N,Net-(J204-Pin_2)*%
%TO.C,J204*%
X64160000Y-63850000D03*
D16*
%TO.N,GND*%
X66700000Y-63850000D03*
%TD*%
%TO.N,GND*%
%TO.C,TP101*%
X91750000Y-116680000D03*
D15*
%TO.N,VDD*%
X94290000Y-116680000D03*
%TO.N,Net-(TP101-Pin_3)*%
X96830000Y-116680000D03*
%TO.N,Net-(TP101-Pin_4)*%
X99370000Y-116680000D03*
%TD*%
D20*
%TO.N,GND*%
%TO.C,REF\u002A\u002A*%
X128055000Y-106875000D03*
%TD*%
%TO.N,GND*%
%TO.C,REF\u002A\u002A*%
X51855000Y-106875000D03*
%TD*%
D24*
%TO.N,Net-(C303-Pad2)*%
%TO.C,L302*%
X123430000Y-100494900D03*
%TO.N,Net-(J301-In)*%
X119430000Y-98551800D03*
%TD*%
D15*
%TO.N,Frequency Down*%
%TO.C,J102*%
X52045000Y-114710000D03*
D27*
%TO.N,GND*%
X54585000Y-114710000D03*
D15*
%TO.N,Frequency Up*%
X57125000Y-114710000D03*
%TD*%
D27*
%TO.N,GND*%
%TO.C,J105*%
X51052500Y-77750000D03*
D15*
%TO.N,Paddle_Dit*%
X53592500Y-77750000D03*
%TO.N,Paddle Dah*%
X56132500Y-77750000D03*
%TO.N,Straightkey*%
X58672500Y-77750000D03*
%TD*%
D28*
%TO.N,Net-(D209-A)*%
%TO.C,U203*%
X122240000Y-78560000D03*
D29*
%TO.N,Vdrive*%
X122240000Y-81100000D03*
%TO.N,Net-(D208-K)*%
X122240000Y-83640000D03*
%TD*%
D14*
%TO.N,+BATT*%
%TO.C,MOD201*%
X70197500Y-95890000D03*
D30*
%TO.N,GND*%
X67657500Y-95890000D03*
X65117500Y-95890000D03*
D15*
%TO.N,Net-(D206-K)*%
X62577500Y-95890000D03*
%TD*%
D31*
%TO.N,GND*%
X68400000Y-78400000D03*
X68100000Y-83403984D03*
X68100000Y-80200000D03*
X78300000Y-83700000D03*
X72062347Y-85662347D03*
X73200000Y-86800000D03*
X81810472Y-84085778D03*
X82400000Y-87700000D03*
X74100000Y-89900000D03*
X75900000Y-89900000D03*
X78900000Y-90400000D03*
X83700000Y-90200000D03*
%TO.N,Net-(D101-K)*%
X99600000Y-79200000D03*
%TO.N,Net-(D102-A)*%
X95900000Y-79200000D03*
X82000000Y-73200000D03*
%TO.N,+3V3*%
X63400000Y-77200000D03*
X64700000Y-77200000D03*
%TO.N,Frequency Up*%
X75200000Y-79900000D03*
%TO.N,Net-(U101-PD2)*%
X65950000Y-108950000D03*
X74900000Y-81400000D03*
%TO.N,Net-(U101-PD4)*%
X74000000Y-108800000D03*
X77100000Y-79600000D03*
%TO.N,FET_DRIVER_ENABLE*%
X95200000Y-99300000D03*
X86000000Y-90200000D03*
%TO.N,V3V3_PWR_ENABLE*%
X79750000Y-98750000D03*
X85675000Y-87575000D03*
%TO.N,Vext*%
X83500000Y-78500000D03*
X75023768Y-104512536D03*
%TO.N,Frequency Down*%
X64100000Y-85600000D03*
%TO.N,Net-(TP101-Pin_4)*%
X87000000Y-78000000D03*
%TO.N,Net-(TP101-Pin_3)*%
X86250000Y-78750000D03*
%TO.N,Net-(D201-A)*%
X96125000Y-76125000D03*
X97000000Y-75250000D03*
%TO.N,Master_Power_enable*%
X87500000Y-84000000D03*
X102750000Y-71000000D03*
%TO.N,Net-(TP101-Pin_4)*%
X90012653Y-107237347D03*
%TO.N,Net-(TP101-Pin_3)*%
X88000000Y-106250000D03*
%TO.N,V_ext*%
X114700000Y-85950000D03*
X113500000Y-85950000D03*
%TO.N,Net-(D105-A2)*%
X59387927Y-89011462D03*
X81000000Y-83500000D03*
%TO.N,Net-(D106-A1)*%
X56250000Y-95500000D03*
X84750000Y-81250000D03*
%TO.N,Ext_Bat_Contr*%
X69500000Y-71750000D03*
X90250000Y-73750000D03*
%TO.N,Net-(D105-A2)*%
X51750000Y-89750000D03*
%TO.N,Net-(D106-A1)*%
X51750000Y-91000000D03*
%TO.N,Frequency Up*%
X56500000Y-94250000D03*
%TO.N,Frequency Down*%
X75100000Y-78400000D03*
%TO.N,Paddle Dah*%
X87500000Y-82225000D03*
%TO.N,Fan_Contr*%
X82250000Y-83000000D03*
%TO.N,Vdrive*%
X97250000Y-61980000D03*
X95750000Y-61980000D03*
%TO.N,Net-(D204-A)*%
X94250000Y-66500000D03*
%TO.N,+VSW*%
X96250000Y-68000000D03*
X97250000Y-68250000D03*
%TO.N,Net-(D204-A)*%
X93250000Y-66500000D03*
%TO.N,+BATT*%
X76670000Y-100730000D03*
%TO.N,GND*%
X50010000Y-110590000D03*
X109815000Y-82230000D03*
X69380000Y-104580000D03*
X105110000Y-96890000D03*
X50030000Y-82000000D03*
X104860000Y-68000000D03*
X105160000Y-74240000D03*
X116270000Y-117770000D03*
X98060000Y-103720000D03*
X124965500Y-96850000D03*
X107631174Y-77840000D03*
X122670000Y-97528498D03*
X71550000Y-117570000D03*
X57250000Y-98350000D03*
X108570000Y-102420000D03*
X102940000Y-74240000D03*
X132610000Y-69790000D03*
X53500000Y-92210000D03*
X128470000Y-90790000D03*
X98410000Y-99770000D03*
X58425500Y-89283000D03*
X107150000Y-117890000D03*
X120120000Y-77310000D03*
X117820000Y-99110000D03*
X91670000Y-97250000D03*
X56680000Y-93240000D03*
X90950000Y-100610000D03*
X127190000Y-98660000D03*
X126500500Y-91930000D03*
X77370000Y-61140500D03*
X52250000Y-117630000D03*
X49980000Y-115170000D03*
X109815000Y-84005000D03*
X81660000Y-102080000D03*
X55890000Y-91810000D03*
X106590000Y-87780000D03*
X116760000Y-98190000D03*
X105160000Y-85830000D03*
X121805500Y-101505502D03*
X54760000Y-117600000D03*
X50150000Y-61200000D03*
X88179282Y-97069875D03*
X109760000Y-90200000D03*
X95270000Y-61040000D03*
X123580000Y-117770000D03*
X108170000Y-91660000D03*
X97791384Y-71978118D03*
X111260000Y-88760000D03*
X100180000Y-69240000D03*
X111770000Y-76254500D03*
X139020000Y-94640000D03*
X113200000Y-101030000D03*
X97980000Y-61110000D03*
X138940000Y-69970000D03*
X64450000Y-61170000D03*
X80901835Y-96409491D03*
X93140000Y-71650000D03*
X50150000Y-64370000D03*
X107631174Y-76254500D03*
X115914662Y-96993705D03*
X61630000Y-84950000D03*
X89539787Y-61024808D03*
X120270000Y-97090000D03*
X61590000Y-61170000D03*
X127500000Y-61020000D03*
X112600000Y-73044992D03*
X55780000Y-61200000D03*
X52880000Y-61200000D03*
X136000000Y-108400000D03*
X127780000Y-93100000D03*
X104770000Y-117890000D03*
X128120000Y-91990000D03*
X119820000Y-108430000D03*
X58690000Y-61200000D03*
X99510000Y-102250000D03*
X88810000Y-117350000D03*
X83360000Y-117590000D03*
X125610000Y-92730000D03*
X88750000Y-100520000D03*
X60200000Y-63800000D03*
X69940000Y-61140000D03*
X114360000Y-96940000D03*
X139000000Y-105160000D03*
X88520000Y-98110000D03*
X118434500Y-97276085D03*
X101000000Y-61030980D03*
X117890000Y-75250000D03*
X52630000Y-95200000D03*
X55410000Y-79990000D03*
X90980000Y-94950000D03*
X129960000Y-112050000D03*
X76980000Y-117510000D03*
X97010000Y-111080000D03*
X105550000Y-110270000D03*
X60600000Y-92240000D03*
X66000000Y-104960000D03*
X49980000Y-112980000D03*
X55450000Y-82660000D03*
X139000000Y-87630000D03*
X104530000Y-112250000D03*
X65610000Y-117570000D03*
X58157701Y-92717701D03*
X86320000Y-61130000D03*
X60000000Y-117580000D03*
X126810000Y-94180000D03*
X93090000Y-106220000D03*
X103120000Y-77840000D03*
X112000000Y-90250000D03*
X103130000Y-85830000D03*
X58230000Y-85390000D03*
X93130000Y-103020000D03*
X109780000Y-74240000D03*
X139020000Y-84860000D03*
X75920000Y-97070000D03*
X124540000Y-61080000D03*
X50060000Y-99660000D03*
X102150000Y-117890000D03*
X112100000Y-69200000D03*
X121640000Y-61080000D03*
X119430000Y-101505502D03*
X111820000Y-95670000D03*
X107670000Y-85800000D03*
X107800000Y-97060000D03*
X54590000Y-97470000D03*
X123510000Y-102140000D03*
X126620000Y-95690000D03*
X126830000Y-117720000D03*
X102320000Y-97520000D03*
X110700000Y-71200000D03*
X92510000Y-61060000D03*
X109815000Y-76254500D03*
X69130000Y-106580000D03*
X121200000Y-97528498D03*
X120620000Y-82410000D03*
X53340000Y-87570000D03*
X104915008Y-91955008D03*
X129910000Y-115240000D03*
X112800000Y-117830000D03*
X107631174Y-84005000D03*
X107631174Y-74240000D03*
X103780000Y-61040000D03*
X50110000Y-68110000D03*
X123730000Y-110260000D03*
X50010000Y-103130000D03*
X111764500Y-100959772D03*
X120680000Y-101505502D03*
X56750000Y-85364020D03*
X138850000Y-101580000D03*
X103210000Y-84005000D03*
X135320000Y-69820000D03*
X97030000Y-109220000D03*
X124950000Y-101770000D03*
X56275641Y-89084613D03*
X103150000Y-82200000D03*
X108760000Y-87800000D03*
X109420000Y-61010000D03*
X56100000Y-98400011D03*
X124965655Y-93814498D03*
X106280000Y-95890000D03*
X105160000Y-76254500D03*
X80990000Y-117510000D03*
X74620000Y-117530000D03*
X115300000Y-61080000D03*
X133010000Y-108350000D03*
X57500000Y-80180000D03*
X105620000Y-105460000D03*
X61240000Y-83569500D03*
X91210000Y-103520000D03*
X103720000Y-98240000D03*
X116030000Y-101580000D03*
X109815000Y-77840000D03*
X111800000Y-74500000D03*
X126450000Y-113520000D03*
X124965500Y-95440000D03*
X82555981Y-102100000D03*
X113600000Y-70700000D03*
X129930000Y-63420000D03*
X124160000Y-97777300D03*
X58050000Y-83810000D03*
X60603177Y-94434299D03*
X58295500Y-90940000D03*
X111530000Y-92640000D03*
X57050000Y-86660000D03*
X118550000Y-61080000D03*
X102890000Y-72410000D03*
X100154873Y-117898619D03*
X85350000Y-98290000D03*
X138950000Y-98040000D03*
X80040000Y-61140500D03*
X93100000Y-98400000D03*
X93100000Y-104750000D03*
X83170000Y-61130000D03*
X109680000Y-92540000D03*
X106740000Y-93190000D03*
X99540000Y-103850000D03*
X72030000Y-104510000D03*
X139070000Y-72730000D03*
X99790000Y-87730000D03*
X73020000Y-97040000D03*
X105450000Y-66790000D03*
X67070000Y-61140000D03*
X96580000Y-91320000D03*
X103160000Y-76254500D03*
X99540000Y-100820000D03*
X51770000Y-84597000D03*
X109600000Y-117860000D03*
X115500000Y-72710489D03*
X61560000Y-86140000D03*
X57830000Y-82450000D03*
X103430000Y-110520000D03*
X67120000Y-94200000D03*
X50090000Y-75770000D03*
X95380000Y-117880000D03*
X72700000Y-61140000D03*
X62700000Y-117560000D03*
X49960000Y-97740000D03*
X126580000Y-97460000D03*
X116720000Y-73630000D03*
X106080000Y-63660000D03*
X103150000Y-79700000D03*
X109690000Y-100770000D03*
X114470000Y-101050000D03*
X119730000Y-117720000D03*
X112950000Y-96830000D03*
X117300000Y-78100000D03*
X112500000Y-61050000D03*
X105160000Y-77840000D03*
X126500500Y-90920000D03*
X129900000Y-67980000D03*
X120120000Y-75285500D03*
X95600000Y-98230000D03*
X115750000Y-107310000D03*
X67120000Y-92750000D03*
X129870000Y-65770000D03*
X109840000Y-85830000D03*
X129910000Y-117770000D03*
X106660000Y-61040000D03*
X129900000Y-61050000D03*
X75100000Y-61140000D03*
X57260000Y-117580000D03*
X50050000Y-80030000D03*
X71390000Y-92024500D03*
X58210000Y-87460000D03*
X102930000Y-92330500D03*
X125930000Y-100650000D03*
X87460000Y-117480000D03*
X117967345Y-100712700D03*
X68490000Y-117570000D03*
X98130000Y-112000000D03*
X86860000Y-98160000D03*
X116990000Y-101280000D03*
X118920000Y-82410000D03*
X91080000Y-98950000D03*
X109815000Y-80120000D03*
X100790000Y-92340500D03*
X101980000Y-87699011D03*
X97780000Y-117880000D03*
X105160000Y-84005000D03*
X76160000Y-98240000D03*
X94680000Y-101970000D03*
X50000000Y-117630000D03*
X104330000Y-65670000D03*
X138950000Y-91120000D03*
X139050000Y-108450000D03*
X91230000Y-105960000D03*
X121950000Y-108430000D03*
%TO.N,+3V3*%
X62580000Y-91360000D03*
X61740000Y-90540000D03*
%TO.N,VDD*%
X84722701Y-106247299D03*
X88770000Y-102630000D03*
X87720000Y-102730000D03*
X84037701Y-105562299D03*
%TO.N,Net-(D101-K)*%
X99600000Y-71140000D03*
%TO.N,Net-(D107-K)*%
X95840000Y-100480000D03*
X96813344Y-99547870D03*
%TO.N,Net-(D201-A)*%
X80270000Y-97560000D03*
X72980000Y-94880000D03*
X79520000Y-96890000D03*
%TO.N,V_ext*%
X87860000Y-95680000D03*
X121650000Y-73570000D03*
X74250000Y-99690000D03*
X127490000Y-77400000D03*
X88720000Y-94850000D03*
X120610000Y-72590000D03*
X73675500Y-100770000D03*
X127030000Y-79480000D03*
X126940000Y-78260000D03*
D32*
%TO.N,Net-(J101-Pin_1)*%
X98290000Y-65430000D03*
D31*
%TO.N,V+_Charging*%
X64370000Y-99720000D03*
X66000000Y-99720000D03*
X50670000Y-93550000D03*
X50763637Y-94475000D03*
%TO.N,Paddle_Dit*%
X52660000Y-83860000D03*
%TO.N,Straightkey*%
X62750000Y-84080000D03*
X54360000Y-88090000D03*
%TO.N,Paddle Dah*%
X52665960Y-85454527D03*
%TO.N,Fan_Contr*%
X57000000Y-71030000D03*
%TD*%
D33*
%TO.N,GND*%
X72062347Y-85662347D02*
X70358363Y-85662347D01*
X70358363Y-85662347D02*
X68100000Y-83403984D01*
X74024694Y-83700000D02*
X78300000Y-83700000D01*
X72062347Y-85662347D02*
X74024694Y-83700000D01*
D34*
%TO.N,FET_DRIVER_ENABLE*%
X94200000Y-98300000D02*
X95200000Y-99300000D01*
X86000000Y-90200000D02*
X88400000Y-90200000D01*
X88400000Y-90200000D02*
X94200000Y-96000000D01*
X94200000Y-96000000D02*
X94200000Y-98300000D01*
%TO.N,Frequency Up*%
X56500000Y-94250000D02*
X57975000Y-95725000D01*
X57975000Y-95725000D02*
X57975000Y-109925000D01*
X57975000Y-109925000D02*
X57125000Y-110775000D01*
X57125000Y-110775000D02*
X57125000Y-114710000D01*
D33*
%TO.N,Net-(D201-A)*%
X79520000Y-96890000D02*
X77510000Y-94880000D01*
X77510000Y-94880000D02*
X72980000Y-94880000D01*
D34*
%TO.N,Net-(D105-A2)*%
X81000000Y-83500000D02*
X76750000Y-87750000D01*
X76750000Y-87750000D02*
X60649389Y-87750000D01*
X60649389Y-87750000D02*
X59387927Y-89011462D01*
%TO.N,GND*%
X53340000Y-87570000D02*
X53545000Y-87365000D01*
D33*
%TO.N,Net-(D201-A)*%
X89100000Y-83150000D02*
X96125000Y-76125000D01*
X96125000Y-76125000D02*
X97000000Y-75250000D01*
X72980000Y-94880000D02*
X84710000Y-83150000D01*
X84710000Y-83150000D02*
X89100000Y-83150000D01*
%TO.N,V_ext*%
X74250000Y-99690000D02*
X73675500Y-100264500D01*
X73675500Y-100264500D02*
X73675500Y-100770000D01*
X74250000Y-99690000D02*
X80250000Y-99690000D01*
X80250000Y-99690000D02*
X83044989Y-96895011D01*
X83044989Y-96895011D02*
X86644989Y-96895011D01*
X86644989Y-96895011D02*
X87860000Y-95680000D01*
D34*
%TO.N,Paddle Dah*%
X79571016Y-82678984D02*
X61034500Y-82678984D01*
X87500000Y-82225000D02*
X80025000Y-82225000D01*
X61034500Y-82678984D02*
X59123975Y-84589509D01*
X59123975Y-84589509D02*
X53530978Y-84589509D01*
X80025000Y-82225000D02*
X79571016Y-82678984D01*
X53530978Y-84589509D02*
X52665960Y-85454527D01*
%TO.N,Master_Power_enable*%
X102750000Y-71000000D02*
X89750000Y-84000000D01*
X89750000Y-84000000D02*
X87500000Y-84000000D01*
D33*
%TO.N,GND*%
X93140000Y-71650000D02*
X97463266Y-71650000D01*
X97463266Y-71650000D02*
X97791384Y-71978118D01*
X97791384Y-71628616D02*
X100180000Y-69240000D01*
X97791384Y-71978118D02*
X97791384Y-71628616D01*
%TO.N,VDD*%
X84722701Y-106247299D02*
X84037701Y-105562299D01*
D35*
X87820000Y-102630000D02*
X87720000Y-102730000D01*
X88770000Y-102630000D02*
X87820000Y-102630000D01*
X87720000Y-103250000D02*
X84722701Y-106247299D01*
X87720000Y-102730000D02*
X87720000Y-103250000D01*
D33*
%TO.N,Net-(D201-A)*%
X80190000Y-97560000D02*
X79520000Y-96890000D01*
%TO.N,V_ext*%
X88690000Y-94850000D02*
X87860000Y-95680000D01*
X88720000Y-94850000D02*
X88690000Y-94850000D01*
%TD*%
%TA.AperFunction,Conductor*%
%TO.N,GND*%
G36*
X130602121Y-60220002D02*
G01*
X130648614Y-60273658D01*
X130660000Y-60326000D01*
X130660000Y-69180000D01*
X139564000Y-69180000D01*
X139632121Y-69200002D01*
X139678614Y-69253658D01*
X139690000Y-69306000D01*
X139690000Y-108974000D01*
X139669998Y-109042121D01*
X139616342Y-109088614D01*
X139564000Y-109100000D01*
X130610000Y-109100000D01*
X130610000Y-118104000D01*
X130589998Y-118172121D01*
X130536342Y-118218614D01*
X130484000Y-118230000D01*
X82713781Y-118230000D01*
X82645660Y-118209998D01*
X82599167Y-118156342D01*
X82589063Y-118086068D01*
X82618557Y-118021488D01*
X82624686Y-118014905D01*
X82675858Y-117963733D01*
X82744311Y-117861286D01*
X82791463Y-117747452D01*
X82815500Y-117626606D01*
X82815500Y-117503394D01*
X82791463Y-117382548D01*
X82744311Y-117268714D01*
X82675858Y-117166267D01*
X82588733Y-117079142D01*
X82486286Y-117010689D01*
X82372452Y-116963537D01*
X82337924Y-116956669D01*
X82251611Y-116939500D01*
X82251606Y-116939500D01*
X82128394Y-116939500D01*
X82128388Y-116939500D01*
X82024811Y-116960103D01*
X82007548Y-116963537D01*
X82007546Y-116963538D01*
X81893712Y-117010690D01*
X81791271Y-117079139D01*
X81791264Y-117079144D01*
X81704144Y-117166264D01*
X81704139Y-117166271D01*
X81635690Y-117268712D01*
X81588538Y-117382546D01*
X81588537Y-117382549D01*
X81564500Y-117503388D01*
X81564500Y-117626611D01*
X81573965Y-117674192D01*
X81588537Y-117747452D01*
X81635689Y-117861286D01*
X81704142Y-117963733D01*
X81704144Y-117963735D01*
X81755314Y-118014905D01*
X81789340Y-118077217D01*
X81784275Y-118148032D01*
X81741728Y-118204868D01*
X81675208Y-118229679D01*
X81666219Y-118230000D01*
X49456411Y-118230000D01*
X49388290Y-118209998D01*
X49341797Y-118156342D01*
X49330412Y-118103590D01*
X49337882Y-115810298D01*
X90700000Y-115810298D01*
X90700000Y-116430000D01*
X91316988Y-116430000D01*
X91284075Y-116487007D01*
X91250000Y-116614174D01*
X91250000Y-116745826D01*
X91284075Y-116872993D01*
X91316988Y-116930000D01*
X90700000Y-116930000D01*
X90700000Y-117549701D01*
X90711604Y-117608036D01*
X90755807Y-117674192D01*
X90821963Y-117718395D01*
X90880298Y-117729999D01*
X90880303Y-117730000D01*
X91500000Y-117730000D01*
X91500000Y-117113012D01*
X91557007Y-117145925D01*
X91684174Y-117180000D01*
X91815826Y-117180000D01*
X91942993Y-117145925D01*
X92000000Y-117113012D01*
X92000000Y-117730000D01*
X92619697Y-117730000D01*
X92619701Y-117729999D01*
X92678036Y-117718395D01*
X92744192Y-117674192D01*
X92788395Y-117608036D01*
X92799999Y-117549701D01*
X92800000Y-117549696D01*
X92800000Y-116930000D01*
X92183012Y-116930000D01*
X92215925Y-116872993D01*
X92250000Y-116745826D01*
X92250000Y-116679996D01*
X93234417Y-116679996D01*
X93234417Y-116680003D01*
X93254698Y-116885927D01*
X93314768Y-117083954D01*
X93358765Y-117166267D01*
X93412315Y-117266450D01*
X93543590Y-117426410D01*
X93703550Y-117557685D01*
X93886046Y-117655232D01*
X94084066Y-117715300D01*
X94084070Y-117715300D01*
X94084072Y-117715301D01*
X94289997Y-117735583D01*
X94290000Y-117735583D01*
X94290003Y-117735583D01*
X94495927Y-117715301D01*
X94495928Y-117715300D01*
X94495934Y-117715300D01*
X94693954Y-117655232D01*
X94876450Y-117557685D01*
X95036410Y-117426410D01*
X95167685Y-117266450D01*
X95265232Y-117083954D01*
X95325300Y-116885934D01*
X95345583Y-116680000D01*
X95345583Y-116679996D01*
X95774417Y-116679996D01*
X95774417Y-116680003D01*
X95794698Y-116885927D01*
X95854768Y-117083954D01*
X95898765Y-117166267D01*
X95952315Y-117266450D01*
X96083590Y-117426410D01*
X96243550Y-117557685D01*
X96426046Y-117655232D01*
X96624066Y-117715300D01*
X96624070Y-117715300D01*
X96624072Y-117715301D01*
X96829997Y-117735583D01*
X96830000Y-117735583D01*
X96830003Y-117735583D01*
X97035927Y-117715301D01*
X97035928Y-117715300D01*
X97035934Y-117715300D01*
X97233954Y-117655232D01*
X97416450Y-117557685D01*
X97576410Y-117426410D01*
X97707685Y-117266450D01*
X97805232Y-117083954D01*
X97865300Y-116885934D01*
X97885583Y-116680000D01*
X97885583Y-116679996D01*
X98314417Y-116679996D01*
X98314417Y-116680003D01*
X98334698Y-116885927D01*
X98394768Y-117083954D01*
X98438765Y-117166267D01*
X98492315Y-117266450D01*
X98623590Y-117426410D01*
X98783550Y-117557685D01*
X98966046Y-117655232D01*
X99164066Y-117715300D01*
X99164070Y-117715300D01*
X99164072Y-117715301D01*
X99369997Y-117735583D01*
X99370000Y-117735583D01*
X99370003Y-117735583D01*
X99575927Y-117715301D01*
X99575928Y-117715300D01*
X99575934Y-117715300D01*
X99773954Y-117655232D01*
X99956450Y-117557685D01*
X100116410Y-117426410D01*
X100247685Y-117266450D01*
X100345232Y-117083954D01*
X100405300Y-116885934D01*
X100425583Y-116680000D01*
X100405300Y-116474066D01*
X100345232Y-116276046D01*
X100247685Y-116093550D01*
X100116410Y-115933590D01*
X99956450Y-115802315D01*
X99956448Y-115802314D01*
X99956447Y-115802313D01*
X99773954Y-115704768D01*
X99575927Y-115644698D01*
X99370003Y-115624417D01*
X99369997Y-115624417D01*
X99164072Y-115644698D01*
X98966045Y-115704768D01*
X98783552Y-115802313D01*
X98623590Y-115933590D01*
X98492313Y-116093552D01*
X98394768Y-116276045D01*
X98334698Y-116474072D01*
X98314417Y-116679996D01*
X97885583Y-116679996D01*
X97865300Y-116474066D01*
X97805232Y-116276046D01*
X97707685Y-116093550D01*
X97576410Y-115933590D01*
X97416450Y-115802315D01*
X97416448Y-115802314D01*
X97416447Y-115802313D01*
X97233954Y-115704768D01*
X97035927Y-115644698D01*
X96830003Y-115624417D01*
X96829997Y-115624417D01*
X96624072Y-115644698D01*
X96426045Y-115704768D01*
X96243552Y-115802313D01*
X96083590Y-115933590D01*
X95952313Y-116093552D01*
X95854768Y-116276045D01*
X95794698Y-116474072D01*
X95774417Y-116679996D01*
X95345583Y-116679996D01*
X95325300Y-116474066D01*
X95265232Y-116276046D01*
X95167685Y-116093550D01*
X95036410Y-115933590D01*
X94876450Y-115802315D01*
X94876448Y-115802314D01*
X94876447Y-115802313D01*
X94693954Y-115704768D01*
X94495927Y-115644698D01*
X94290003Y-115624417D01*
X94289997Y-115624417D01*
X94084072Y-115644698D01*
X93886045Y-115704768D01*
X93703552Y-115802313D01*
X93543590Y-115933590D01*
X93412313Y-116093552D01*
X93314768Y-116276045D01*
X93254698Y-116474072D01*
X93234417Y-116679996D01*
X92250000Y-116679996D01*
X92250000Y-116614174D01*
X92215925Y-116487007D01*
X92183012Y-116430000D01*
X92800000Y-116430000D01*
X92800000Y-115810303D01*
X92799999Y-115810298D01*
X92788395Y-115751963D01*
X92744192Y-115685807D01*
X92678036Y-115641604D01*
X92619701Y-115630000D01*
X92000000Y-115630000D01*
X92000000Y-116246988D01*
X91942993Y-116214075D01*
X91815826Y-116180000D01*
X91684174Y-116180000D01*
X91557007Y-116214075D01*
X91500000Y-116246988D01*
X91500000Y-115630000D01*
X90880298Y-115630000D01*
X90821963Y-115641604D01*
X90755807Y-115685807D01*
X90711604Y-115751963D01*
X90700000Y-115810298D01*
X49337882Y-115810298D01*
X49341466Y-114709996D01*
X50989417Y-114709996D01*
X50989417Y-114710003D01*
X51009698Y-114915927D01*
X51069768Y-115113954D01*
X51123102Y-115213735D01*
X51167315Y-115296450D01*
X51298590Y-115456410D01*
X51458550Y-115587685D01*
X51641046Y-115685232D01*
X51839066Y-115745300D01*
X51839070Y-115745300D01*
X51839072Y-115745301D01*
X52044997Y-115765583D01*
X52045000Y-115765583D01*
X52045003Y-115765583D01*
X52250927Y-115745301D01*
X52250928Y-115745300D01*
X52250934Y-115745300D01*
X52448954Y-115685232D01*
X52631450Y-115587685D01*
X52791410Y-115456410D01*
X52922685Y-115296450D01*
X53020232Y-115113954D01*
X53080300Y-114915934D01*
X53099589Y-114720099D01*
X53100583Y-114710003D01*
X53100583Y-114709996D01*
X53080301Y-114504072D01*
X53080300Y-114504070D01*
X53080300Y-114504066D01*
X53020232Y-114306046D01*
X52975243Y-114221879D01*
X53535000Y-114221879D01*
X53535000Y-114460000D01*
X54151988Y-114460000D01*
X54119075Y-114517007D01*
X54085000Y-114644174D01*
X54085000Y-114775826D01*
X54119075Y-114902993D01*
X54151988Y-114960000D01*
X53535000Y-114960000D01*
X53535000Y-115198120D01*
X53537788Y-115233541D01*
X53537790Y-115233554D01*
X53581846Y-115385194D01*
X53662226Y-115521109D01*
X53662232Y-115521116D01*
X53773883Y-115632767D01*
X53773890Y-115632773D01*
X53909805Y-115713153D01*
X54061445Y-115757209D01*
X54061458Y-115757211D01*
X54096879Y-115759999D01*
X54096881Y-115760000D01*
X54335000Y-115760000D01*
X54335000Y-115143012D01*
X54392007Y-115175925D01*
X54519174Y-115210000D01*
X54650826Y-115210000D01*
X54777993Y-115175925D01*
X54835000Y-115143012D01*
X54835000Y-115760000D01*
X55073119Y-115760000D01*
X55073120Y-115759999D01*
X55108541Y-115757211D01*
X55108554Y-115757209D01*
X55260194Y-115713153D01*
X55396109Y-115632773D01*
X55396116Y-115632767D01*
X55507767Y-115521116D01*
X55507773Y-115521109D01*
X55588153Y-115385194D01*
X55632209Y-115233554D01*
X55632211Y-115233541D01*
X55634999Y-115198120D01*
X55635000Y-115198119D01*
X55635000Y-114960000D01*
X55018012Y-114960000D01*
X55050925Y-114902993D01*
X55085000Y-114775826D01*
X55085000Y-114644174D01*
X55050925Y-114517007D01*
X55018012Y-114460000D01*
X55635000Y-114460000D01*
X55635000Y-114221880D01*
X55634999Y-114221879D01*
X55632211Y-114186458D01*
X55632209Y-114186445D01*
X55588153Y-114034805D01*
X55507773Y-113898890D01*
X55507767Y-113898883D01*
X55396116Y-113787232D01*
X55396109Y-113787226D01*
X55260194Y-113706846D01*
X55108554Y-113662790D01*
X55108541Y-113662788D01*
X55073120Y-113660000D01*
X54835000Y-113660000D01*
X54835000Y-114276988D01*
X54777993Y-114244075D01*
X54650826Y-114210000D01*
X54519174Y-114210000D01*
X54392007Y-114244075D01*
X54335000Y-114276988D01*
X54335000Y-113660000D01*
X54096880Y-113660000D01*
X54061458Y-113662788D01*
X54061445Y-113662790D01*
X53909805Y-113706846D01*
X53773890Y-113787226D01*
X53773883Y-113787232D01*
X53662232Y-113898883D01*
X53662226Y-113898890D01*
X53581846Y-114034805D01*
X53537790Y-114186445D01*
X53537788Y-114186458D01*
X53535000Y-114221879D01*
X52975243Y-114221879D01*
X52922685Y-114123550D01*
X52791410Y-113963590D01*
X52631450Y-113832315D01*
X52631448Y-113832314D01*
X52631447Y-113832313D01*
X52448954Y-113734768D01*
X52356906Y-113706846D01*
X52250934Y-113674700D01*
X52250933Y-113674699D01*
X52250927Y-113674698D01*
X52045003Y-113654417D01*
X52044997Y-113654417D01*
X51839072Y-113674698D01*
X51641045Y-113734768D01*
X51458552Y-113832313D01*
X51298590Y-113963590D01*
X51167313Y-114123552D01*
X51069768Y-114306045D01*
X51009698Y-114504072D01*
X50989417Y-114709996D01*
X49341466Y-114709996D01*
X49360000Y-109020000D01*
X46776789Y-109020000D01*
X46708668Y-108999998D01*
X46662175Y-108946342D01*
X46650791Y-108893214D01*
X46657731Y-107780759D01*
X46719458Y-97886872D01*
X46739885Y-97818878D01*
X46793830Y-97772721D01*
X46801382Y-97769618D01*
X49318242Y-96830023D01*
X49317511Y-95499999D01*
X55644318Y-95499999D01*
X55644318Y-95500000D01*
X55664955Y-95656760D01*
X55724346Y-95800141D01*
X55725464Y-95802841D01*
X55821718Y-95928282D01*
X55947159Y-96024536D01*
X56093238Y-96085044D01*
X56250000Y-96105682D01*
X56406762Y-96085044D01*
X56552841Y-96024536D01*
X56678282Y-95928282D01*
X56774536Y-95802841D01*
X56835044Y-95656762D01*
X56855682Y-95500000D01*
X56838332Y-95368215D01*
X56849271Y-95298069D01*
X56896399Y-95244970D01*
X56964753Y-95225780D01*
X57032631Y-95246591D01*
X57052349Y-95262676D01*
X57612595Y-95822922D01*
X57646621Y-95885234D01*
X57649500Y-95912017D01*
X57649500Y-109737982D01*
X57629498Y-109806103D01*
X57612595Y-109827077D01*
X56864540Y-110575131D01*
X56864532Y-110575141D01*
X56821681Y-110649361D01*
X56821681Y-110649365D01*
X56799500Y-110732146D01*
X56799500Y-113618080D01*
X56779498Y-113686201D01*
X56725842Y-113732694D01*
X56721730Y-113734484D01*
X56721050Y-113734765D01*
X56538552Y-113832313D01*
X56378590Y-113963590D01*
X56247313Y-114123552D01*
X56149768Y-114306045D01*
X56089698Y-114504072D01*
X56069417Y-114709996D01*
X56069417Y-114710003D01*
X56089698Y-114915927D01*
X56149768Y-115113954D01*
X56203102Y-115213735D01*
X56247315Y-115296450D01*
X56378590Y-115456410D01*
X56538550Y-115587685D01*
X56721046Y-115685232D01*
X56919066Y-115745300D01*
X56919070Y-115745300D01*
X56919072Y-115745301D01*
X57124997Y-115765583D01*
X57125000Y-115765583D01*
X57125003Y-115765583D01*
X57330927Y-115745301D01*
X57330928Y-115745300D01*
X57330934Y-115745300D01*
X57528954Y-115685232D01*
X57711450Y-115587685D01*
X57871410Y-115456410D01*
X58002685Y-115296450D01*
X58100232Y-115113954D01*
X58160300Y-114915934D01*
X58179589Y-114720099D01*
X58180583Y-114710003D01*
X58180583Y-114709996D01*
X58160301Y-114504072D01*
X58160300Y-114504070D01*
X58160300Y-114504066D01*
X58100232Y-114306046D01*
X58002685Y-114123550D01*
X57871410Y-113963590D01*
X57711450Y-113832315D01*
X57711448Y-113832314D01*
X57711447Y-113832313D01*
X57528949Y-113734765D01*
X57528270Y-113734484D01*
X57527969Y-113734241D01*
X57523495Y-113731850D01*
X57523948Y-113731000D01*
X57472994Y-113689930D01*
X57450580Y-113622564D01*
X57450500Y-113618080D01*
X57450500Y-113450298D01*
X60220000Y-113450298D01*
X60220000Y-114070000D01*
X60836988Y-114070000D01*
X60804075Y-114127007D01*
X60770000Y-114254174D01*
X60770000Y-114385826D01*
X60804075Y-114512993D01*
X60836988Y-114570000D01*
X60220000Y-114570000D01*
X60220000Y-115189701D01*
X60231604Y-115248036D01*
X60275807Y-115314192D01*
X60341963Y-115358395D01*
X60400298Y-115369999D01*
X60400303Y-115370000D01*
X61020000Y-115370000D01*
X61020000Y-114753012D01*
X61077007Y-114785925D01*
X61204174Y-114820000D01*
X61335826Y-114820000D01*
X61462993Y-114785925D01*
X61520000Y-114753012D01*
X61520000Y-115370000D01*
X62139697Y-115370000D01*
X62139701Y-115369999D01*
X62198036Y-115358395D01*
X62264192Y-115314192D01*
X62308395Y-115248036D01*
X62319999Y-115189701D01*
X62320000Y-115189696D01*
X62320000Y-114570000D01*
X61703012Y-114570000D01*
X61735925Y-114512993D01*
X61770000Y-114385826D01*
X61770000Y-114254174D01*
X61735925Y-114127007D01*
X61703012Y-114070000D01*
X62320000Y-114070000D01*
X62320000Y-113450303D01*
X62319999Y-113450298D01*
X69360000Y-113450298D01*
X69360000Y-114070000D01*
X69976988Y-114070000D01*
X69944075Y-114127007D01*
X69910000Y-114254174D01*
X69910000Y-114385826D01*
X69944075Y-114512993D01*
X69976988Y-114570000D01*
X69360000Y-114570000D01*
X69360000Y-115189701D01*
X69371604Y-115248036D01*
X69415807Y-115314192D01*
X69481963Y-115358395D01*
X69540298Y-115369999D01*
X69540303Y-115370000D01*
X70160000Y-115370000D01*
X70160000Y-114753012D01*
X70217007Y-114785925D01*
X70344174Y-114820000D01*
X70475826Y-114820000D01*
X70602993Y-114785925D01*
X70660000Y-114753012D01*
X70660000Y-115370000D01*
X71279697Y-115370000D01*
X71279701Y-115369999D01*
X71338036Y-115358395D01*
X71404192Y-115314192D01*
X71448395Y-115248036D01*
X71459999Y-115189701D01*
X71460000Y-115189696D01*
X71460000Y-114753388D01*
X81564500Y-114753388D01*
X81564500Y-114876611D01*
X81581088Y-114960000D01*
X81588537Y-114997452D01*
X81635689Y-115111286D01*
X81704142Y-115213733D01*
X81791267Y-115300858D01*
X81893714Y-115369311D01*
X82007548Y-115416463D01*
X82111599Y-115437159D01*
X82128388Y-115440499D01*
X82128391Y-115440499D01*
X82128394Y-115440500D01*
X82128395Y-115440500D01*
X82251605Y-115440500D01*
X82251606Y-115440500D01*
X82372452Y-115416463D01*
X82486286Y-115369311D01*
X82588733Y-115300858D01*
X82675858Y-115213733D01*
X82744311Y-115111286D01*
X82791463Y-114997452D01*
X82815500Y-114876606D01*
X82815500Y-114860000D01*
X104584357Y-114860000D01*
X104604885Y-115081539D01*
X104665768Y-115295520D01*
X104665774Y-115295537D01*
X104764938Y-115494684D01*
X104764942Y-115494689D01*
X104899017Y-115672235D01*
X105063438Y-115822124D01*
X105063439Y-115822125D01*
X105252587Y-115939240D01*
X105252590Y-115939241D01*
X105252599Y-115939247D01*
X105342989Y-115974264D01*
X105460053Y-116019616D01*
X105460056Y-116019616D01*
X105460060Y-116019618D01*
X105678757Y-116060500D01*
X105678760Y-116060500D01*
X105901240Y-116060500D01*
X105901243Y-116060500D01*
X106119940Y-116019618D01*
X106119944Y-116019616D01*
X106119946Y-116019616D01*
X106173298Y-115998946D01*
X106327401Y-115939247D01*
X106516562Y-115822124D01*
X106680981Y-115672236D01*
X106815058Y-115494689D01*
X106815059Y-115494685D01*
X106815061Y-115494684D01*
X106914225Y-115295537D01*
X106914226Y-115295533D01*
X106914229Y-115295528D01*
X106918810Y-115279429D01*
X106956690Y-115219382D01*
X107021021Y-115189348D01*
X107091378Y-115198861D01*
X107145422Y-115244901D01*
X107161190Y-115279429D01*
X107165768Y-115295520D01*
X107165774Y-115295537D01*
X107264938Y-115494684D01*
X107264942Y-115494689D01*
X107399017Y-115672235D01*
X107563438Y-115822124D01*
X107563439Y-115822125D01*
X107752587Y-115939240D01*
X107752590Y-115939241D01*
X107752599Y-115939247D01*
X107842989Y-115974264D01*
X107960053Y-116019616D01*
X107960056Y-116019616D01*
X107960060Y-116019618D01*
X108178757Y-116060500D01*
X108178760Y-116060500D01*
X108401240Y-116060500D01*
X108401243Y-116060500D01*
X108619940Y-116019618D01*
X108619944Y-116019616D01*
X108619946Y-116019616D01*
X108673298Y-115998946D01*
X108827401Y-115939247D01*
X109016562Y-115822124D01*
X109180981Y-115672236D01*
X109315058Y-115494689D01*
X109315059Y-115494685D01*
X109315061Y-115494684D01*
X109414225Y-115295537D01*
X109414226Y-115295533D01*
X109414229Y-115295528D01*
X109475115Y-115081536D01*
X109495643Y-114860000D01*
X109475115Y-114638464D01*
X109440557Y-114517007D01*
X109414231Y-114424479D01*
X109414230Y-114424478D01*
X109414229Y-114424472D01*
X109414227Y-114424468D01*
X109414225Y-114424462D01*
X109315061Y-114225315D01*
X109315057Y-114225310D01*
X109180982Y-114047764D01*
X109016561Y-113897875D01*
X109016560Y-113897874D01*
X108827412Y-113780759D01*
X108827405Y-113780755D01*
X108827401Y-113780753D01*
X108827396Y-113780751D01*
X108619946Y-113700383D01*
X108544079Y-113686201D01*
X108401243Y-113659500D01*
X108178757Y-113659500D01*
X108037674Y-113685873D01*
X107960053Y-113700383D01*
X107752603Y-113780751D01*
X107752587Y-113780759D01*
X107563439Y-113897874D01*
X107563438Y-113897875D01*
X107399017Y-114047764D01*
X107264942Y-114225310D01*
X107264938Y-114225315D01*
X107165774Y-114424462D01*
X107165770Y-114424474D01*
X107161190Y-114440572D01*
X107123308Y-114500618D01*
X107058977Y-114530652D01*
X106988621Y-114521138D01*
X106934577Y-114475097D01*
X106918810Y-114440572D01*
X106917839Y-114437159D01*
X106914229Y-114424472D01*
X106914226Y-114424467D01*
X106914225Y-114424462D01*
X106815061Y-114225315D01*
X106815057Y-114225310D01*
X106680982Y-114047764D01*
X106516561Y-113897875D01*
X106516560Y-113897874D01*
X106327412Y-113780759D01*
X106327405Y-113780755D01*
X106327401Y-113780753D01*
X106327396Y-113780751D01*
X106119946Y-113700383D01*
X106044079Y-113686201D01*
X105901243Y-113659500D01*
X105678757Y-113659500D01*
X105537674Y-113685873D01*
X105460053Y-113700383D01*
X105252603Y-113780751D01*
X105252587Y-113780759D01*
X105063439Y-113897874D01*
X105063438Y-113897875D01*
X104899017Y-114047764D01*
X104764942Y-114225310D01*
X104764938Y-114225315D01*
X104665774Y-114424462D01*
X104665768Y-114424479D01*
X104604885Y-114638460D01*
X104584357Y-114860000D01*
X82815500Y-114860000D01*
X82815500Y-114753394D01*
X82791463Y-114632548D01*
X82744311Y-114518714D01*
X82675858Y-114416267D01*
X82588733Y-114329142D01*
X82486286Y-114260689D01*
X82372452Y-114213537D01*
X82337924Y-114206669D01*
X82251611Y-114189500D01*
X82251606Y-114189500D01*
X82128394Y-114189500D01*
X82128388Y-114189500D01*
X82025330Y-114210000D01*
X82007548Y-114213537D01*
X81909443Y-114254174D01*
X81893712Y-114260690D01*
X81791271Y-114329139D01*
X81791264Y-114329144D01*
X81704144Y-114416264D01*
X81704139Y-114416271D01*
X81636830Y-114517007D01*
X81635689Y-114518714D01*
X81614446Y-114570000D01*
X81588538Y-114632546D01*
X81588537Y-114632549D01*
X81564500Y-114753388D01*
X71460000Y-114753388D01*
X71460000Y-114570000D01*
X70843012Y-114570000D01*
X70875925Y-114512993D01*
X70910000Y-114385826D01*
X70910000Y-114254174D01*
X70875925Y-114127007D01*
X70843012Y-114070000D01*
X71460000Y-114070000D01*
X71460000Y-113450303D01*
X71459999Y-113450298D01*
X71448395Y-113391963D01*
X71404192Y-113325807D01*
X71338036Y-113281604D01*
X71279701Y-113270000D01*
X70660000Y-113270000D01*
X70660000Y-113886988D01*
X70602993Y-113854075D01*
X70475826Y-113820000D01*
X70344174Y-113820000D01*
X70217007Y-113854075D01*
X70160000Y-113886988D01*
X70160000Y-113270000D01*
X69540298Y-113270000D01*
X69481963Y-113281604D01*
X69415807Y-113325807D01*
X69371604Y-113391963D01*
X69360000Y-113450298D01*
X62319999Y-113450298D01*
X62308395Y-113391963D01*
X62264192Y-113325807D01*
X62198036Y-113281604D01*
X62139701Y-113270000D01*
X61520000Y-113270000D01*
X61520000Y-113886988D01*
X61462993Y-113854075D01*
X61335826Y-113820000D01*
X61204174Y-113820000D01*
X61077007Y-113854075D01*
X61020000Y-113886988D01*
X61020000Y-113270000D01*
X60400298Y-113270000D01*
X60341963Y-113281604D01*
X60275807Y-113325807D01*
X60231604Y-113391963D01*
X60220000Y-113450298D01*
X57450500Y-113450298D01*
X57450500Y-111779996D01*
X60214417Y-111779996D01*
X60214417Y-111780003D01*
X60234698Y-111985927D01*
X60294768Y-112183954D01*
X60372556Y-112329485D01*
X60392315Y-112366450D01*
X60523590Y-112526410D01*
X60683550Y-112657685D01*
X60866046Y-112755232D01*
X61064066Y-112815300D01*
X61064070Y-112815300D01*
X61064072Y-112815301D01*
X61269997Y-112835583D01*
X61270000Y-112835583D01*
X61270003Y-112835583D01*
X61475927Y-112815301D01*
X61475928Y-112815300D01*
X61475934Y-112815300D01*
X61673954Y-112755232D01*
X61856450Y-112657685D01*
X62016410Y-112526410D01*
X62147685Y-112366450D01*
X62245232Y-112183954D01*
X62305300Y-111985934D01*
X62315677Y-111880583D01*
X62325583Y-111780003D01*
X62325583Y-111779996D01*
X69354417Y-111779996D01*
X69354417Y-111780003D01*
X69374698Y-111985927D01*
X69434768Y-112183954D01*
X69512556Y-112329485D01*
X69532315Y-112366450D01*
X69663590Y-112526410D01*
X69823550Y-112657685D01*
X70006046Y-112755232D01*
X70204066Y-112815300D01*
X70204070Y-112815300D01*
X70204072Y-112815301D01*
X70409997Y-112835583D01*
X70410000Y-112835583D01*
X70410003Y-112835583D01*
X70615927Y-112815301D01*
X70615928Y-112815300D01*
X70615934Y-112815300D01*
X70813954Y-112755232D01*
X70890655Y-112714234D01*
X99844500Y-112714234D01*
X99844500Y-112865766D01*
X99871817Y-112967717D01*
X99883718Y-113012132D01*
X99883721Y-113012139D01*
X99959482Y-113143361D01*
X99959490Y-113143371D01*
X100066628Y-113250509D01*
X100066633Y-113250513D01*
X100066635Y-113250515D01*
X100197865Y-113326281D01*
X100344234Y-113365500D01*
X100344236Y-113365500D01*
X100495764Y-113365500D01*
X100495766Y-113365500D01*
X100642135Y-113326281D01*
X100773365Y-113250515D01*
X100880515Y-113143365D01*
X100945882Y-113030145D01*
X100997263Y-112981154D01*
X101066977Y-112967717D01*
X101132888Y-112994104D01*
X101164116Y-113030144D01*
X101197537Y-113088030D01*
X101229482Y-113143361D01*
X101229490Y-113143371D01*
X101336628Y-113250509D01*
X101336633Y-113250513D01*
X101336635Y-113250515D01*
X101467865Y-113326281D01*
X101614234Y-113365500D01*
X101614236Y-113365500D01*
X101765764Y-113365500D01*
X101765766Y-113365500D01*
X101912135Y-113326281D01*
X102043365Y-113250515D01*
X102150515Y-113143365D01*
X102226281Y-113012135D01*
X102265500Y-112865766D01*
X102265500Y-112714234D01*
X102226281Y-112567865D01*
X102150515Y-112436635D01*
X102150513Y-112436633D01*
X102150509Y-112436628D01*
X102043371Y-112329490D01*
X102043361Y-112329482D01*
X101912139Y-112253721D01*
X101912136Y-112253720D01*
X101912135Y-112253719D01*
X101912133Y-112253718D01*
X101912132Y-112253718D01*
X101872911Y-112243209D01*
X101765766Y-112214500D01*
X101614234Y-112214500D01*
X101535798Y-112235516D01*
X101467867Y-112253718D01*
X101467860Y-112253721D01*
X101336638Y-112329482D01*
X101336628Y-112329490D01*
X101229490Y-112436628D01*
X101229482Y-112436638D01*
X101164119Y-112549852D01*
X101112737Y-112598845D01*
X101043023Y-112612281D01*
X100977112Y-112585895D01*
X100945881Y-112549852D01*
X100880517Y-112436638D01*
X100880509Y-112436628D01*
X100773371Y-112329490D01*
X100773361Y-112329482D01*
X100642139Y-112253721D01*
X100642136Y-112253720D01*
X100642135Y-112253719D01*
X100642133Y-112253718D01*
X100642132Y-112253718D01*
X100602911Y-112243209D01*
X100495766Y-112214500D01*
X100344234Y-112214500D01*
X100265798Y-112235516D01*
X100197867Y-112253718D01*
X100197860Y-112253721D01*
X100066638Y-112329482D01*
X100066628Y-112329490D01*
X99959490Y-112436628D01*
X99959482Y-112436638D01*
X99883721Y-112567860D01*
X99883719Y-112567865D01*
X99844500Y-112714234D01*
X70890655Y-112714234D01*
X70996450Y-112657685D01*
X71156410Y-112526410D01*
X71287685Y-112366450D01*
X71385232Y-112183954D01*
X71445300Y-111985934D01*
X71455677Y-111880583D01*
X71465583Y-111780003D01*
X71465583Y-111779996D01*
X71445301Y-111574072D01*
X71445300Y-111574070D01*
X71445300Y-111574066D01*
X71385232Y-111376046D01*
X71287685Y-111193550D01*
X71156410Y-111033590D01*
X70996450Y-110902315D01*
X70996448Y-110902314D01*
X70996447Y-110902313D01*
X70813954Y-110804768D01*
X70615927Y-110744698D01*
X70410003Y-110724417D01*
X70409997Y-110724417D01*
X70204072Y-110744698D01*
X70006045Y-110804768D01*
X69823552Y-110902313D01*
X69663590Y-111033590D01*
X69532313Y-111193552D01*
X69434768Y-111376045D01*
X69374698Y-111574072D01*
X69354417Y-111779996D01*
X62325583Y-111779996D01*
X62305301Y-111574072D01*
X62305300Y-111574070D01*
X62305300Y-111574066D01*
X62245232Y-111376046D01*
X62147685Y-111193550D01*
X62016410Y-111033590D01*
X61856450Y-110902315D01*
X61856448Y-110902314D01*
X61856447Y-110902313D01*
X61673954Y-110804768D01*
X61475927Y-110744698D01*
X61270003Y-110724417D01*
X61269997Y-110724417D01*
X61064072Y-110744698D01*
X60866045Y-110804768D01*
X60683552Y-110902313D01*
X60523590Y-111033590D01*
X60392313Y-111193552D01*
X60294768Y-111376045D01*
X60234698Y-111574072D01*
X60214417Y-111779996D01*
X57450500Y-111779996D01*
X57450500Y-110962016D01*
X57470502Y-110893895D01*
X57487400Y-110872925D01*
X57675329Y-110684996D01*
X77154417Y-110684996D01*
X77154417Y-110685003D01*
X77174698Y-110890927D01*
X77174699Y-110890933D01*
X77174700Y-110890934D01*
X77217166Y-111030927D01*
X77234768Y-111088954D01*
X77307539Y-111225099D01*
X77332315Y-111271450D01*
X77463590Y-111431410D01*
X77623550Y-111562685D01*
X77806046Y-111660232D01*
X78004066Y-111720300D01*
X78004070Y-111720300D01*
X78004072Y-111720301D01*
X78209997Y-111740583D01*
X78210000Y-111740583D01*
X78210003Y-111740583D01*
X78415927Y-111720301D01*
X78415928Y-111720300D01*
X78415934Y-111720300D01*
X78613954Y-111660232D01*
X78796450Y-111562685D01*
X78956410Y-111431410D01*
X79087685Y-111271450D01*
X79185232Y-111088954D01*
X79245300Y-110890934D01*
X79251795Y-110824996D01*
X79265583Y-110685003D01*
X79265583Y-110684996D01*
X79694417Y-110684996D01*
X79694417Y-110685003D01*
X79714698Y-110890927D01*
X79714699Y-110890933D01*
X79714700Y-110890934D01*
X79757166Y-111030927D01*
X79774768Y-111088954D01*
X79847539Y-111225099D01*
X79872315Y-111271450D01*
X80003590Y-111431410D01*
X80163550Y-111562685D01*
X80346046Y-111660232D01*
X80544066Y-111720300D01*
X80544070Y-111720300D01*
X80544072Y-111720301D01*
X80749997Y-111740583D01*
X80750000Y-111740583D01*
X80750003Y-111740583D01*
X80955927Y-111720301D01*
X80955928Y-111720300D01*
X80955934Y-111720300D01*
X81153954Y-111660232D01*
X81336450Y-111562685D01*
X81496410Y-111431410D01*
X81627685Y-111271450D01*
X81725232Y-111088954D01*
X81785300Y-110890934D01*
X81791795Y-110824996D01*
X84004417Y-110824996D01*
X84004417Y-110825003D01*
X84024698Y-111030927D01*
X84024699Y-111030933D01*
X84024700Y-111030934D01*
X84084768Y-111228954D01*
X84182315Y-111411450D01*
X84313590Y-111571410D01*
X84473550Y-111702685D01*
X84656046Y-111800232D01*
X84854066Y-111860300D01*
X84854070Y-111860300D01*
X84854072Y-111860301D01*
X85059997Y-111880583D01*
X85060000Y-111880583D01*
X85060003Y-111880583D01*
X85265927Y-111860301D01*
X85265928Y-111860300D01*
X85265934Y-111860300D01*
X85463954Y-111800232D01*
X85646450Y-111702685D01*
X85806410Y-111571410D01*
X85937685Y-111411450D01*
X86035232Y-111228954D01*
X86095300Y-111030934D01*
X86107229Y-110909826D01*
X86115583Y-110825003D01*
X86115583Y-110824996D01*
X86095301Y-110619072D01*
X86095300Y-110619070D01*
X86095300Y-110619066D01*
X86035232Y-110421046D01*
X85937685Y-110238550D01*
X85806410Y-110078590D01*
X85656177Y-109955298D01*
X86550000Y-109955298D01*
X86550000Y-110575000D01*
X87166988Y-110575000D01*
X87134075Y-110632007D01*
X87100000Y-110759174D01*
X87100000Y-110890826D01*
X87134075Y-111017993D01*
X87166988Y-111075000D01*
X86550000Y-111075000D01*
X86550000Y-111694701D01*
X86561604Y-111753036D01*
X86605807Y-111819192D01*
X86671963Y-111863395D01*
X86730298Y-111874999D01*
X86730303Y-111875000D01*
X87350000Y-111875000D01*
X87350000Y-111258012D01*
X87407007Y-111290925D01*
X87534174Y-111325000D01*
X87665826Y-111325000D01*
X87792993Y-111290925D01*
X87850000Y-111258012D01*
X87850000Y-111875000D01*
X88469697Y-111875000D01*
X88469701Y-111874999D01*
X88528036Y-111863395D01*
X88594192Y-111819192D01*
X88638395Y-111753036D01*
X88649999Y-111694701D01*
X88650000Y-111694696D01*
X88650000Y-111075000D01*
X88033012Y-111075000D01*
X88065925Y-111017993D01*
X88100000Y-110890826D01*
X88100000Y-110759174D01*
X88065925Y-110632007D01*
X88033012Y-110575000D01*
X88650000Y-110575000D01*
X88650000Y-109955303D01*
X88649999Y-109955298D01*
X88638395Y-109896963D01*
X88598538Y-109837312D01*
X94586628Y-109837312D01*
X94663993Y-109887032D01*
X94663997Y-109887034D01*
X94801950Y-109927541D01*
X94831148Y-109927541D01*
X94752915Y-109759771D01*
X94586628Y-109837312D01*
X88598538Y-109837312D01*
X88594192Y-109830807D01*
X88528036Y-109786604D01*
X88469701Y-109775000D01*
X87850000Y-109775000D01*
X87850000Y-110391988D01*
X87792993Y-110359075D01*
X87665826Y-110325000D01*
X87534174Y-110325000D01*
X87407007Y-110359075D01*
X87350000Y-110391988D01*
X87350000Y-109775000D01*
X86730298Y-109775000D01*
X86671963Y-109786604D01*
X86605807Y-109830807D01*
X86561604Y-109896963D01*
X86550000Y-109955298D01*
X85656177Y-109955298D01*
X85646450Y-109947315D01*
X85646448Y-109947314D01*
X85646447Y-109947313D01*
X85463954Y-109849768D01*
X85340767Y-109812400D01*
X85265934Y-109789700D01*
X85265933Y-109789699D01*
X85265927Y-109789698D01*
X85060003Y-109769417D01*
X85059997Y-109769417D01*
X84854072Y-109789698D01*
X84656045Y-109849768D01*
X84473552Y-109947313D01*
X84313590Y-110078590D01*
X84182313Y-110238552D01*
X84084768Y-110421045D01*
X84024698Y-110619072D01*
X84004417Y-110824996D01*
X81791795Y-110824996D01*
X81805583Y-110685003D01*
X81805583Y-110684996D01*
X81785301Y-110479072D01*
X81785300Y-110479070D01*
X81785300Y-110479066D01*
X81725232Y-110281046D01*
X81627685Y-110098550D01*
X81496410Y-109938590D01*
X81336450Y-109807315D01*
X81336448Y-109807314D01*
X81336447Y-109807313D01*
X81153954Y-109709768D01*
X80955927Y-109649698D01*
X80750003Y-109629417D01*
X80749997Y-109629417D01*
X80544072Y-109649698D01*
X80346045Y-109709768D01*
X80163552Y-109807313D01*
X80003590Y-109938590D01*
X79872313Y-110098552D01*
X79774768Y-110281045D01*
X79714698Y-110479072D01*
X79694417Y-110684996D01*
X79265583Y-110684996D01*
X79245301Y-110479072D01*
X79245300Y-110479070D01*
X79245300Y-110479066D01*
X79185232Y-110281046D01*
X79087685Y-110098550D01*
X78956410Y-109938590D01*
X78796450Y-109807315D01*
X78796448Y-109807314D01*
X78796447Y-109807313D01*
X78613954Y-109709768D01*
X78415927Y-109649698D01*
X78210003Y-109629417D01*
X78209997Y-109629417D01*
X78004072Y-109649698D01*
X77806045Y-109709768D01*
X77623552Y-109807313D01*
X77463590Y-109938590D01*
X77332313Y-110098552D01*
X77234768Y-110281045D01*
X77174698Y-110479072D01*
X77154417Y-110684996D01*
X57675329Y-110684996D01*
X58164486Y-110195838D01*
X58164496Y-110195831D01*
X58235459Y-110124868D01*
X58235465Y-110124862D01*
X58278318Y-110050638D01*
X58286630Y-110019618D01*
X58300501Y-109967852D01*
X58300501Y-109882147D01*
X58300501Y-109874430D01*
X58300500Y-109874412D01*
X58300500Y-108949999D01*
X65344318Y-108949999D01*
X65344318Y-108950000D01*
X65364955Y-109106760D01*
X65364956Y-109106762D01*
X65425464Y-109252841D01*
X65521718Y-109378282D01*
X65647159Y-109474536D01*
X65793238Y-109535044D01*
X65950000Y-109555682D01*
X66106762Y-109535044D01*
X66252841Y-109474536D01*
X66378282Y-109378282D01*
X66474536Y-109252841D01*
X66535044Y-109106762D01*
X66555682Y-108950000D01*
X66555200Y-108946342D01*
X66535934Y-108799999D01*
X73394318Y-108799999D01*
X73394318Y-108800000D01*
X73414955Y-108956760D01*
X73440226Y-109017768D01*
X73475464Y-109102841D01*
X73571718Y-109228282D01*
X73697159Y-109324536D01*
X73843238Y-109385044D01*
X74000000Y-109405682D01*
X74083713Y-109394661D01*
X94708539Y-109394661D01*
X94708539Y-109460421D01*
X94733705Y-109521176D01*
X94780204Y-109567675D01*
X94840959Y-109592841D01*
X94906719Y-109592841D01*
X94967474Y-109567675D01*
X94986686Y-109548463D01*
X95206069Y-109548463D01*
X95284643Y-109716966D01*
X95284644Y-109716966D01*
X95298790Y-109700641D01*
X95358518Y-109569856D01*
X95372770Y-109470729D01*
X95206069Y-109548463D01*
X94986686Y-109548463D01*
X95013973Y-109521176D01*
X95039139Y-109460421D01*
X95039139Y-109394661D01*
X95013973Y-109333906D01*
X94967474Y-109287407D01*
X94906719Y-109262241D01*
X94840959Y-109262241D01*
X94780204Y-109287407D01*
X94733705Y-109333906D01*
X94708539Y-109394661D01*
X74083713Y-109394661D01*
X74156762Y-109385044D01*
X74158435Y-109384351D01*
X94374905Y-109384351D01*
X94374906Y-109384352D01*
X94541607Y-109306617D01*
X94463033Y-109138114D01*
X94463032Y-109138113D01*
X94448887Y-109154439D01*
X94389159Y-109285226D01*
X94389157Y-109285231D01*
X94374905Y-109384351D01*
X74158435Y-109384351D01*
X74302841Y-109324536D01*
X74428282Y-109228282D01*
X74524536Y-109102841D01*
X74585044Y-108956762D01*
X74588891Y-108927541D01*
X94916530Y-108927541D01*
X94994760Y-109095308D01*
X95161048Y-109017768D01*
X95161048Y-109017767D01*
X95083683Y-108968048D01*
X94945728Y-108927541D01*
X94916530Y-108927541D01*
X74588891Y-108927541D01*
X74597783Y-108860000D01*
X107084357Y-108860000D01*
X107104885Y-109081539D01*
X107165768Y-109295520D01*
X107165774Y-109295537D01*
X107264938Y-109494684D01*
X107264942Y-109494689D01*
X107399017Y-109672235D01*
X107563438Y-109822124D01*
X107563439Y-109822125D01*
X107752587Y-109939240D01*
X107752590Y-109939241D01*
X107752599Y-109939247D01*
X107842989Y-109974264D01*
X107960053Y-110019616D01*
X107960056Y-110019616D01*
X107960060Y-110019618D01*
X108178757Y-110060500D01*
X108178760Y-110060500D01*
X108401240Y-110060500D01*
X108401243Y-110060500D01*
X108619940Y-110019618D01*
X108619944Y-110019616D01*
X108619946Y-110019616D01*
X108675484Y-109998100D01*
X108827401Y-109939247D01*
X109016562Y-109822124D01*
X109180981Y-109672236D01*
X109315058Y-109494689D01*
X109315059Y-109494685D01*
X109315061Y-109494684D01*
X109414225Y-109295537D01*
X109414226Y-109295533D01*
X109414229Y-109295528D01*
X109418810Y-109279429D01*
X109456690Y-109219382D01*
X109521021Y-109189348D01*
X109591378Y-109198861D01*
X109645422Y-109244901D01*
X109661190Y-109279429D01*
X109665768Y-109295520D01*
X109665774Y-109295537D01*
X109764938Y-109494684D01*
X109764942Y-109494689D01*
X109899017Y-109672235D01*
X110063438Y-109822124D01*
X110063439Y-109822125D01*
X110252587Y-109939240D01*
X110252590Y-109939241D01*
X110252599Y-109939247D01*
X110342989Y-109974264D01*
X110460053Y-110019616D01*
X110460056Y-110019616D01*
X110460060Y-110019618D01*
X110678757Y-110060500D01*
X110678760Y-110060500D01*
X110901240Y-110060500D01*
X110901243Y-110060500D01*
X111119940Y-110019618D01*
X111119944Y-110019616D01*
X111119946Y-110019616D01*
X111175484Y-109998100D01*
X111327401Y-109939247D01*
X111516562Y-109822124D01*
X111680981Y-109672236D01*
X111815058Y-109494689D01*
X111815059Y-109494685D01*
X111815061Y-109494684D01*
X111914225Y-109295537D01*
X111914226Y-109295533D01*
X111914229Y-109295528D01*
X111975115Y-109081536D01*
X111995643Y-108860000D01*
X111975115Y-108638464D01*
X111914229Y-108424472D01*
X111914227Y-108424468D01*
X111914225Y-108424462D01*
X111815061Y-108225315D01*
X111815057Y-108225310D01*
X111807237Y-108214955D01*
X111788686Y-108190389D01*
X111680982Y-108047764D01*
X111516561Y-107897875D01*
X111516560Y-107897874D01*
X111327412Y-107780759D01*
X111327405Y-107780755D01*
X111327401Y-107780753D01*
X111327396Y-107780751D01*
X111119946Y-107700383D01*
X111080972Y-107693097D01*
X110901243Y-107659500D01*
X110678757Y-107659500D01*
X110537674Y-107685873D01*
X110460053Y-107700383D01*
X110252603Y-107780751D01*
X110252587Y-107780759D01*
X110063439Y-107897874D01*
X110063438Y-107897875D01*
X109899017Y-108047764D01*
X109764942Y-108225310D01*
X109764938Y-108225315D01*
X109665774Y-108424462D01*
X109665770Y-108424474D01*
X109661190Y-108440572D01*
X109623308Y-108500618D01*
X109558977Y-108530652D01*
X109488621Y-108521138D01*
X109434577Y-108475097D01*
X109418810Y-108440572D01*
X109417839Y-108437159D01*
X109414229Y-108424472D01*
X109414226Y-108424467D01*
X109414225Y-108424462D01*
X109315061Y-108225315D01*
X109315057Y-108225310D01*
X109307237Y-108214955D01*
X109288686Y-108190389D01*
X109180982Y-108047764D01*
X109016561Y-107897875D01*
X109016560Y-107897874D01*
X108827412Y-107780759D01*
X108827405Y-107780755D01*
X108827401Y-107780753D01*
X108827396Y-107780751D01*
X108619946Y-107700383D01*
X108580972Y-107693097D01*
X108401243Y-107659500D01*
X108178757Y-107659500D01*
X108037674Y-107685873D01*
X107960053Y-107700383D01*
X107752603Y-107780751D01*
X107752587Y-107780759D01*
X107563439Y-107897874D01*
X107563438Y-107897875D01*
X107399017Y-108047764D01*
X107264942Y-108225310D01*
X107264938Y-108225315D01*
X107165774Y-108424462D01*
X107165768Y-108424479D01*
X107104885Y-108638460D01*
X107084357Y-108860000D01*
X74597783Y-108860000D01*
X74605682Y-108800000D01*
X74585044Y-108643238D01*
X74524536Y-108497159D01*
X74428282Y-108371718D01*
X74302841Y-108275464D01*
X74181762Y-108225311D01*
X74156760Y-108214955D01*
X74000000Y-108194318D01*
X73843239Y-108214955D01*
X73697160Y-108275463D01*
X73697157Y-108275465D01*
X73571718Y-108371718D01*
X73475465Y-108497157D01*
X73475463Y-108497160D01*
X73414955Y-108643239D01*
X73394318Y-108799999D01*
X66535934Y-108799999D01*
X66535044Y-108793239D01*
X66474536Y-108647160D01*
X66474536Y-108647159D01*
X66378282Y-108521718D01*
X66252841Y-108425464D01*
X66250447Y-108424472D01*
X66106760Y-108364955D01*
X65950000Y-108344318D01*
X65793239Y-108364955D01*
X65647160Y-108425463D01*
X65647157Y-108425465D01*
X65521718Y-108521718D01*
X65425465Y-108647157D01*
X65425463Y-108647160D01*
X65364955Y-108793239D01*
X65344318Y-108949999D01*
X58300500Y-108949999D01*
X58300500Y-107237346D01*
X89406971Y-107237346D01*
X89406971Y-107237347D01*
X89427608Y-107394107D01*
X89448012Y-107443365D01*
X89488117Y-107540188D01*
X89584371Y-107665629D01*
X89709812Y-107761883D01*
X89855891Y-107822391D01*
X90012653Y-107843029D01*
X90169415Y-107822391D01*
X90315494Y-107761883D01*
X90440935Y-107665629D01*
X90537189Y-107540188D01*
X90597697Y-107394109D01*
X90618335Y-107237347D01*
X90597697Y-107080585D01*
X90570213Y-107014234D01*
X103209500Y-107014234D01*
X103209500Y-107165766D01*
X103228680Y-107237346D01*
X103248718Y-107312132D01*
X103248721Y-107312139D01*
X103324482Y-107443361D01*
X103324490Y-107443371D01*
X103431628Y-107550509D01*
X103431633Y-107550513D01*
X103431635Y-107550515D01*
X103562865Y-107626281D01*
X103709234Y-107665500D01*
X103709236Y-107665500D01*
X103860764Y-107665500D01*
X103860766Y-107665500D01*
X104007135Y-107626281D01*
X104138365Y-107550515D01*
X104245515Y-107443365D01*
X104310882Y-107330145D01*
X104362263Y-107281154D01*
X104431977Y-107267717D01*
X104497888Y-107294104D01*
X104529116Y-107330144D01*
X104541241Y-107351144D01*
X104594482Y-107443361D01*
X104594490Y-107443371D01*
X104701628Y-107550509D01*
X104701633Y-107550513D01*
X104701635Y-107550515D01*
X104832865Y-107626281D01*
X104979234Y-107665500D01*
X104979236Y-107665500D01*
X105130764Y-107665500D01*
X105130766Y-107665500D01*
X105277135Y-107626281D01*
X105408365Y-107550515D01*
X105515515Y-107443365D01*
X105580882Y-107330145D01*
X105632263Y-107281154D01*
X105701977Y-107267717D01*
X105767888Y-107294104D01*
X105799116Y-107330144D01*
X105811241Y-107351144D01*
X105864482Y-107443361D01*
X105864490Y-107443371D01*
X105971628Y-107550509D01*
X105971633Y-107550513D01*
X105971635Y-107550515D01*
X106102865Y-107626281D01*
X106249234Y-107665500D01*
X106249236Y-107665500D01*
X106400764Y-107665500D01*
X106400766Y-107665500D01*
X106547135Y-107626281D01*
X106678365Y-107550515D01*
X106785515Y-107443365D01*
X106861281Y-107312135D01*
X106900500Y-107165766D01*
X106900500Y-107014234D01*
X106861281Y-106867865D01*
X106785515Y-106736635D01*
X106785513Y-106736633D01*
X106785509Y-106736628D01*
X106678371Y-106629490D01*
X106678361Y-106629482D01*
X106547139Y-106553721D01*
X106547136Y-106553720D01*
X106547135Y-106553719D01*
X106547133Y-106553718D01*
X106547132Y-106553718D01*
X106507086Y-106542988D01*
X106400766Y-106514500D01*
X106249234Y-106514500D01*
X106170798Y-106535516D01*
X106102867Y-106553718D01*
X106102860Y-106553721D01*
X105971638Y-106629482D01*
X105971628Y-106629490D01*
X105864490Y-106736628D01*
X105864482Y-106736638D01*
X105799119Y-106849852D01*
X105747737Y-106898845D01*
X105678023Y-106912281D01*
X105612112Y-106885895D01*
X105580881Y-106849852D01*
X105515517Y-106736638D01*
X105515509Y-106736628D01*
X105408371Y-106629490D01*
X105408361Y-106629482D01*
X105277139Y-106553721D01*
X105277136Y-106553720D01*
X105277135Y-106553719D01*
X105277133Y-106553718D01*
X105277132Y-106553718D01*
X105237086Y-106542988D01*
X105130766Y-106514500D01*
X104979234Y-106514500D01*
X104900798Y-106535516D01*
X104832867Y-106553718D01*
X104832860Y-106553721D01*
X104701638Y-106629482D01*
X104701628Y-106629490D01*
X104594490Y-106736628D01*
X104594482Y-106736638D01*
X104529119Y-106849852D01*
X104477737Y-106898845D01*
X104408023Y-106912281D01*
X104342112Y-106885895D01*
X104310881Y-106849852D01*
X104245517Y-106736638D01*
X104245509Y-106736628D01*
X104138371Y-106629490D01*
X104138361Y-106629482D01*
X104007139Y-106553721D01*
X104007136Y-106553720D01*
X104007135Y-106553719D01*
X104007133Y-106553718D01*
X104007132Y-106553718D01*
X103967086Y-106542988D01*
X103860766Y-106514500D01*
X103709234Y-106514500D01*
X103630798Y-106535516D01*
X103562867Y-106553718D01*
X103562860Y-106553721D01*
X103431638Y-106629482D01*
X103431628Y-106629490D01*
X103324490Y-106736628D01*
X103324482Y-106736638D01*
X103248721Y-106867860D01*
X103248718Y-106867867D01*
X103223854Y-106960661D01*
X103209500Y-107014234D01*
X90570213Y-107014234D01*
X90537189Y-106934506D01*
X90440935Y-106809065D01*
X90315494Y-106712811D01*
X90232132Y-106678281D01*
X90169413Y-106652302D01*
X90012653Y-106631665D01*
X89855892Y-106652302D01*
X89709813Y-106712810D01*
X89709810Y-106712812D01*
X89584371Y-106809065D01*
X89488118Y-106934504D01*
X89488116Y-106934507D01*
X89427608Y-107080586D01*
X89406971Y-107237346D01*
X58300500Y-107237346D01*
X58300500Y-105562298D01*
X83432019Y-105562298D01*
X83432019Y-105562299D01*
X83452656Y-105719059D01*
X83493272Y-105817113D01*
X83513165Y-105865140D01*
X83609419Y-105990581D01*
X83734860Y-106086835D01*
X83880939Y-106147343D01*
X83959112Y-106157634D01*
X84024038Y-106186356D01*
X84031760Y-106193461D01*
X84091537Y-106253238D01*
X84125563Y-106315550D01*
X84127364Y-106325885D01*
X84137656Y-106404059D01*
X84195203Y-106542988D01*
X84198165Y-106550140D01*
X84294419Y-106675581D01*
X84419860Y-106771835D01*
X84565939Y-106832343D01*
X84722701Y-106852981D01*
X84879463Y-106832343D01*
X85025542Y-106771835D01*
X85150983Y-106675581D01*
X85247237Y-106550140D01*
X85247238Y-106550138D01*
X85251366Y-106542988D01*
X85251856Y-106543271D01*
X85274499Y-106509379D01*
X85533879Y-106249999D01*
X87394318Y-106249999D01*
X87394318Y-106250000D01*
X87414955Y-106406760D01*
X87474346Y-106550141D01*
X87475464Y-106552841D01*
X87571718Y-106678282D01*
X87697159Y-106774536D01*
X87843238Y-106835044D01*
X88000000Y-106855682D01*
X88156762Y-106835044D01*
X88302841Y-106774536D01*
X88428282Y-106678282D01*
X88524536Y-106552841D01*
X88550566Y-106490000D01*
X108064540Y-106490000D01*
X108084325Y-106678256D01*
X108142818Y-106858278D01*
X108142822Y-106858286D01*
X108237463Y-107022211D01*
X108237466Y-107022216D01*
X108364126Y-107162886D01*
X108517267Y-107274149D01*
X108517267Y-107274150D01*
X108562085Y-107294104D01*
X108690197Y-107351144D01*
X108875354Y-107390500D01*
X109064646Y-107390500D01*
X109249803Y-107351144D01*
X109422730Y-107274151D01*
X109422730Y-107274150D01*
X109422732Y-107274150D01*
X109422732Y-107274149D01*
X109575871Y-107162888D01*
X109702533Y-107022216D01*
X109702537Y-107022211D01*
X109773761Y-106898845D01*
X109797179Y-106858284D01*
X109855674Y-106678256D01*
X109875460Y-106490000D01*
X109855674Y-106301744D01*
X109849741Y-106283483D01*
X109797181Y-106121721D01*
X109797177Y-106121713D01*
X109702534Y-105957785D01*
X109702533Y-105957783D01*
X109575873Y-105817113D01*
X109422732Y-105705850D01*
X109422732Y-105705849D01*
X109284531Y-105644318D01*
X109249803Y-105628856D01*
X109249801Y-105628855D01*
X109249800Y-105628855D01*
X109064646Y-105589500D01*
X108875354Y-105589500D01*
X108690199Y-105628855D01*
X108517267Y-105705849D01*
X108517267Y-105705850D01*
X108364126Y-105817113D01*
X108237466Y-105957783D01*
X108237465Y-105957785D01*
X108142822Y-106121713D01*
X108142818Y-106121721D01*
X108084325Y-106301743D01*
X108064540Y-106490000D01*
X88550566Y-106490000D01*
X88585044Y-106406762D01*
X88605682Y-106250000D01*
X88585044Y-106093238D01*
X88524536Y-105947159D01*
X88428282Y-105821718D01*
X88302841Y-105725464D01*
X88255487Y-105705849D01*
X88156760Y-105664955D01*
X88000000Y-105644318D01*
X87843239Y-105664955D01*
X87697160Y-105725463D01*
X87697157Y-105725465D01*
X87571718Y-105821718D01*
X87475465Y-105947157D01*
X87475463Y-105947160D01*
X87414955Y-106093239D01*
X87394318Y-106249999D01*
X85533879Y-106249999D01*
X88180515Y-103603365D01*
X88256281Y-103472135D01*
X88295500Y-103325766D01*
X88295500Y-103325763D01*
X88296578Y-103317577D01*
X88299476Y-103317958D01*
X88315502Y-103263379D01*
X88369158Y-103216886D01*
X88421500Y-103205500D01*
X88565133Y-103205500D01*
X88605112Y-103213451D01*
X88605259Y-103212906D01*
X88613238Y-103215044D01*
X88770000Y-103235682D01*
X88926762Y-103215044D01*
X89072841Y-103154536D01*
X89198282Y-103058282D01*
X89246494Y-102995451D01*
X101832402Y-102995451D01*
X101832402Y-102995458D01*
X101850430Y-103201530D01*
X101908315Y-103400123D01*
X102003830Y-103583604D01*
X102003836Y-103583613D01*
X102133305Y-103744928D01*
X102133306Y-103744929D01*
X102133308Y-103744931D01*
X103671309Y-105035467D01*
X103675494Y-105037763D01*
X103850941Y-105134017D01*
X103852666Y-105134963D01*
X104049949Y-105197166D01*
X104255578Y-105219686D01*
X104461648Y-105201657D01*
X104660241Y-105143773D01*
X104843726Y-105048257D01*
X105005051Y-104918780D01*
X105138017Y-104760317D01*
X105237513Y-104578960D01*
X105299716Y-104381676D01*
X105322236Y-104176048D01*
X105304207Y-103969978D01*
X105298384Y-103950000D01*
X108064540Y-103950000D01*
X108084325Y-104138256D01*
X108142818Y-104318278D01*
X108142822Y-104318286D01*
X108237465Y-104482214D01*
X108237466Y-104482216D01*
X108364126Y-104622886D01*
X108517267Y-104734149D01*
X108517267Y-104734150D01*
X108564612Y-104755229D01*
X108690197Y-104811144D01*
X108875354Y-104850500D01*
X109064646Y-104850500D01*
X109249803Y-104811144D01*
X109422730Y-104734151D01*
X109422730Y-104734150D01*
X109422732Y-104734150D01*
X109422732Y-104734149D01*
X109575871Y-104622888D01*
X109702533Y-104482216D01*
X109797179Y-104318284D01*
X109855674Y-104138256D01*
X109875460Y-103950000D01*
X109855674Y-103761744D01*
X109804214Y-103603367D01*
X109797181Y-103581721D01*
X109797177Y-103581713D01*
X109702534Y-103417785D01*
X109702533Y-103417783D01*
X109575873Y-103277113D01*
X109422732Y-103165850D01*
X109422732Y-103165849D01*
X109297145Y-103109934D01*
X109249803Y-103088856D01*
X109249801Y-103088855D01*
X109249800Y-103088855D01*
X109064646Y-103049500D01*
X108875354Y-103049500D01*
X108690199Y-103088855D01*
X108517267Y-103165849D01*
X108517267Y-103165850D01*
X108364126Y-103277113D01*
X108237466Y-103417783D01*
X108237465Y-103417785D01*
X108142822Y-103581713D01*
X108142818Y-103581721D01*
X108084325Y-103761743D01*
X108064540Y-103950000D01*
X105298384Y-103950000D01*
X105246323Y-103771384D01*
X105150807Y-103587900D01*
X105147366Y-103583613D01*
X105021332Y-103426577D01*
X105010852Y-103417783D01*
X103483329Y-102136039D01*
X103483324Y-102136036D01*
X103301973Y-102036543D01*
X103104697Y-101974342D01*
X103104683Y-101974339D01*
X102899062Y-101951820D01*
X102899060Y-101951820D01*
X102816632Y-101959031D01*
X102692987Y-101969848D01*
X102494394Y-102027733D01*
X102310913Y-102123248D01*
X102310904Y-102123254D01*
X102149589Y-102252723D01*
X102016618Y-102411193D01*
X101917125Y-102592544D01*
X101854924Y-102789820D01*
X101854921Y-102789834D01*
X101832402Y-102995451D01*
X89246494Y-102995451D01*
X89294536Y-102932841D01*
X89355044Y-102786762D01*
X89375682Y-102630000D01*
X89355044Y-102473238D01*
X89294536Y-102327159D01*
X89198282Y-102201718D01*
X89072841Y-102105464D01*
X89044487Y-102093719D01*
X88926760Y-102044955D01*
X88770000Y-102024318D01*
X88613238Y-102044955D01*
X88605259Y-102047094D01*
X88605112Y-102046548D01*
X88565133Y-102054500D01*
X87895766Y-102054500D01*
X87744233Y-102054500D01*
X87665797Y-102075516D01*
X87597867Y-102093718D01*
X87597860Y-102093721D01*
X87466638Y-102169482D01*
X87466631Y-102169488D01*
X87466630Y-102169490D01*
X87457916Y-102178203D01*
X87424030Y-102200844D01*
X87424313Y-102201333D01*
X87417163Y-102205461D01*
X87291718Y-102301718D01*
X87195465Y-102427157D01*
X87195463Y-102427160D01*
X87134955Y-102573239D01*
X87114318Y-102729999D01*
X87114318Y-102730000D01*
X87134955Y-102886761D01*
X87137094Y-102894741D01*
X87136547Y-102894887D01*
X87144500Y-102934866D01*
X87144500Y-102959429D01*
X87124498Y-103027550D01*
X87107595Y-103048524D01*
X84793527Y-105362591D01*
X84731215Y-105396617D01*
X84660399Y-105391552D01*
X84603564Y-105349005D01*
X84588026Y-105321718D01*
X84562237Y-105259458D01*
X84465983Y-105134017D01*
X84340542Y-105037763D01*
X84194463Y-104977255D01*
X84194461Y-104977254D01*
X84037701Y-104956617D01*
X83880940Y-104977254D01*
X83734861Y-105037762D01*
X83734858Y-105037764D01*
X83609419Y-105134017D01*
X83513166Y-105259456D01*
X83513164Y-105259459D01*
X83452656Y-105405538D01*
X83432019Y-105562298D01*
X58300500Y-105562298D01*
X58300500Y-104512535D01*
X74418086Y-104512535D01*
X74418086Y-104512536D01*
X74438723Y-104669296D01*
X74497479Y-104811144D01*
X74499232Y-104815377D01*
X74595486Y-104940818D01*
X74720927Y-105037072D01*
X74867006Y-105097580D01*
X75023768Y-105118218D01*
X75180530Y-105097580D01*
X75326609Y-105037072D01*
X75452050Y-104940818D01*
X75548304Y-104815377D01*
X75608812Y-104669298D01*
X75629450Y-104512536D01*
X75608812Y-104355774D01*
X75548304Y-104209695D01*
X75452050Y-104084254D01*
X75326609Y-103988000D01*
X75283101Y-103969978D01*
X75180528Y-103927491D01*
X75023768Y-103906854D01*
X74867007Y-103927491D01*
X74720928Y-103987999D01*
X74720925Y-103988001D01*
X74595486Y-104084254D01*
X74499233Y-104209693D01*
X74499231Y-104209696D01*
X74438723Y-104355775D01*
X74418086Y-104512535D01*
X58300500Y-104512535D01*
X58300500Y-101910000D01*
X97104353Y-101910000D01*
X97124835Y-102052457D01*
X97178281Y-102169486D01*
X97184623Y-102183373D01*
X97278873Y-102292144D01*
X97293771Y-102301718D01*
X97399947Y-102369953D01*
X97538039Y-102410500D01*
X97681961Y-102410500D01*
X97820053Y-102369953D01*
X97941128Y-102292143D01*
X98035377Y-102183373D01*
X98095165Y-102052457D01*
X98115647Y-101910000D01*
X98095165Y-101767543D01*
X98035377Y-101636627D01*
X97941128Y-101527857D01*
X97941127Y-101527856D01*
X97941126Y-101527855D01*
X97820053Y-101450047D01*
X97681961Y-101409500D01*
X97538039Y-101409500D01*
X97399946Y-101450047D01*
X97278873Y-101527855D01*
X97184623Y-101636626D01*
X97176453Y-101654516D01*
X97124835Y-101767543D01*
X97104353Y-101910000D01*
X58300500Y-101910000D01*
X58300500Y-99719999D01*
X63764318Y-99719999D01*
X63764318Y-99720000D01*
X63784955Y-99876760D01*
X63808555Y-99933734D01*
X63845464Y-100022841D01*
X63941718Y-100148282D01*
X64067159Y-100244536D01*
X64213238Y-100305044D01*
X64370000Y-100325682D01*
X64526762Y-100305044D01*
X64672841Y-100244536D01*
X64798282Y-100148282D01*
X64894536Y-100022841D01*
X64955044Y-99876762D01*
X64975682Y-99720000D01*
X64975682Y-99719999D01*
X65394318Y-99719999D01*
X65394318Y-99720000D01*
X65414955Y-99876760D01*
X65438555Y-99933734D01*
X65475464Y-100022841D01*
X65571718Y-100148282D01*
X65697159Y-100244536D01*
X65843238Y-100305044D01*
X66000000Y-100325682D01*
X66156762Y-100305044D01*
X66302841Y-100244536D01*
X66428282Y-100148282D01*
X66524536Y-100022841D01*
X66585044Y-99876762D01*
X66605682Y-99720000D01*
X66596968Y-99653814D01*
X66590258Y-99602841D01*
X66585044Y-99563238D01*
X66524536Y-99417159D01*
X66428282Y-99291718D01*
X66302841Y-99195464D01*
X66289479Y-99189929D01*
X66156760Y-99134955D01*
X66000000Y-99114318D01*
X65843239Y-99134955D01*
X65697160Y-99195463D01*
X65697157Y-99195465D01*
X65571718Y-99291718D01*
X65475465Y-99417157D01*
X65475463Y-99417160D01*
X65414955Y-99563239D01*
X65394318Y-99719999D01*
X64975682Y-99719999D01*
X64966968Y-99653814D01*
X64960258Y-99602841D01*
X64955044Y-99563238D01*
X64894536Y-99417159D01*
X64798282Y-99291718D01*
X64672841Y-99195464D01*
X64659479Y-99189929D01*
X64526760Y-99134955D01*
X64370000Y-99114318D01*
X64213239Y-99134955D01*
X64067160Y-99195463D01*
X64067157Y-99195465D01*
X63941718Y-99291718D01*
X63845465Y-99417157D01*
X63845463Y-99417160D01*
X63784955Y-99563239D01*
X63764318Y-99719999D01*
X58300500Y-99719999D01*
X58300500Y-95889996D01*
X61521917Y-95889996D01*
X61521917Y-95890003D01*
X61542198Y-96095927D01*
X61602268Y-96293954D01*
X61699154Y-96475215D01*
X61699815Y-96476450D01*
X61831090Y-96636410D01*
X61991050Y-96767685D01*
X62173546Y-96865232D01*
X62371566Y-96925300D01*
X62371570Y-96925300D01*
X62371572Y-96925301D01*
X62577497Y-96945583D01*
X62577500Y-96945583D01*
X62577503Y-96945583D01*
X62783427Y-96925301D01*
X62783428Y-96925300D01*
X62783434Y-96925300D01*
X62981454Y-96865232D01*
X63163950Y-96767685D01*
X63323910Y-96636410D01*
X63455185Y-96476450D01*
X63552732Y-96293954D01*
X63612800Y-96095934D01*
X63617029Y-96053003D01*
X63633083Y-95890003D01*
X63633083Y-95889996D01*
X63612801Y-95684072D01*
X63612800Y-95684070D01*
X63612800Y-95684066D01*
X63552732Y-95486046D01*
X63507743Y-95401879D01*
X64067500Y-95401879D01*
X64067500Y-95640000D01*
X64684488Y-95640000D01*
X64651575Y-95697007D01*
X64617500Y-95824174D01*
X64617500Y-95955826D01*
X64651575Y-96082993D01*
X64684488Y-96140000D01*
X64067500Y-96140000D01*
X64067500Y-96378120D01*
X64070288Y-96413541D01*
X64070290Y-96413554D01*
X64114346Y-96565194D01*
X64194726Y-96701109D01*
X64194732Y-96701116D01*
X64306383Y-96812767D01*
X64306390Y-96812773D01*
X64442305Y-96893153D01*
X64593945Y-96937209D01*
X64593958Y-96937211D01*
X64629379Y-96939999D01*
X64629381Y-96940000D01*
X64867500Y-96940000D01*
X64867500Y-96323012D01*
X64924507Y-96355925D01*
X65051674Y-96390000D01*
X65183326Y-96390000D01*
X65310493Y-96355925D01*
X65367500Y-96323012D01*
X65367500Y-96940000D01*
X65605619Y-96940000D01*
X65605620Y-96939999D01*
X65641041Y-96937211D01*
X65641054Y-96937209D01*
X65792694Y-96893153D01*
X65928609Y-96812773D01*
X65928616Y-96812767D01*
X66040267Y-96701116D01*
X66040273Y-96701109D01*
X66120653Y-96565194D01*
X66164709Y-96413554D01*
X66164711Y-96413541D01*
X66167499Y-96378120D01*
X66167500Y-96378119D01*
X66167500Y-96140000D01*
X65550512Y-96140000D01*
X65583425Y-96082993D01*
X65617500Y-95955826D01*
X65617500Y-95824174D01*
X65583425Y-95697007D01*
X65550512Y-95640000D01*
X66167500Y-95640000D01*
X66167500Y-95401880D01*
X66167499Y-95401879D01*
X66607500Y-95401879D01*
X66607500Y-95640000D01*
X67224488Y-95640000D01*
X67191575Y-95697007D01*
X67157500Y-95824174D01*
X67157500Y-95955826D01*
X67191575Y-96082993D01*
X67224488Y-96140000D01*
X66607500Y-96140000D01*
X66607500Y-96378120D01*
X66610288Y-96413541D01*
X66610290Y-96413554D01*
X66654346Y-96565194D01*
X66734726Y-96701109D01*
X66734732Y-96701116D01*
X66846383Y-96812767D01*
X66846390Y-96812773D01*
X66982305Y-96893153D01*
X67133945Y-96937209D01*
X67133958Y-96937211D01*
X67169379Y-96939999D01*
X67169381Y-96940000D01*
X67407500Y-96940000D01*
X67407500Y-96323012D01*
X67464507Y-96355925D01*
X67591674Y-96390000D01*
X67723326Y-96390000D01*
X67850493Y-96355925D01*
X67907500Y-96323012D01*
X67907500Y-96940000D01*
X68145619Y-96940000D01*
X68145620Y-96939999D01*
X68181041Y-96937211D01*
X68181054Y-96937209D01*
X68332694Y-96893153D01*
X68468609Y-96812773D01*
X68468616Y-96812767D01*
X68580267Y-96701116D01*
X68580273Y-96701109D01*
X68660653Y-96565194D01*
X68704709Y-96413554D01*
X68704711Y-96413541D01*
X68707499Y-96378120D01*
X68707500Y-96378119D01*
X68707500Y-96140000D01*
X68090512Y-96140000D01*
X68123425Y-96082993D01*
X68157500Y-95955826D01*
X68157500Y-95889996D01*
X69141917Y-95889996D01*
X69141917Y-95890003D01*
X69162198Y-96095927D01*
X69222268Y-96293954D01*
X69319154Y-96475215D01*
X69319815Y-96476450D01*
X69451090Y-96636410D01*
X69611050Y-96767685D01*
X69793546Y-96865232D01*
X69991566Y-96925300D01*
X69991570Y-96925300D01*
X69991572Y-96925301D01*
X70197497Y-96945583D01*
X70197500Y-96945583D01*
X70197503Y-96945583D01*
X70403427Y-96925301D01*
X70403428Y-96925300D01*
X70403434Y-96925300D01*
X70601454Y-96865232D01*
X70783950Y-96767685D01*
X70943910Y-96636410D01*
X71075185Y-96476450D01*
X71172732Y-96293954D01*
X71232800Y-96095934D01*
X71237029Y-96053003D01*
X71253083Y-95890003D01*
X71253083Y-95889996D01*
X71232801Y-95684072D01*
X71232800Y-95684070D01*
X71232800Y-95684066D01*
X71172732Y-95486046D01*
X71075185Y-95303550D01*
X70943910Y-95143590D01*
X70783950Y-95012315D01*
X70783948Y-95012314D01*
X70783947Y-95012313D01*
X70601454Y-94914768D01*
X70536386Y-94895030D01*
X70403434Y-94854700D01*
X70403433Y-94854699D01*
X70403427Y-94854698D01*
X70197503Y-94834417D01*
X70197497Y-94834417D01*
X69991572Y-94854698D01*
X69793545Y-94914768D01*
X69611052Y-95012313D01*
X69451090Y-95143590D01*
X69319813Y-95303552D01*
X69222268Y-95486045D01*
X69162198Y-95684072D01*
X69141917Y-95889996D01*
X68157500Y-95889996D01*
X68157500Y-95824174D01*
X68123425Y-95697007D01*
X68090512Y-95640000D01*
X68707500Y-95640000D01*
X68707500Y-95401880D01*
X68707499Y-95401879D01*
X68704711Y-95366458D01*
X68704709Y-95366445D01*
X68660653Y-95214805D01*
X68580273Y-95078890D01*
X68580267Y-95078883D01*
X68468616Y-94967232D01*
X68468609Y-94967226D01*
X68332694Y-94886846D01*
X68181054Y-94842790D01*
X68181041Y-94842788D01*
X68145620Y-94840000D01*
X67907500Y-94840000D01*
X67907500Y-95456988D01*
X67850493Y-95424075D01*
X67723326Y-95390000D01*
X67591674Y-95390000D01*
X67464507Y-95424075D01*
X67407500Y-95456988D01*
X67407500Y-94840000D01*
X67169380Y-94840000D01*
X67133958Y-94842788D01*
X67133945Y-94842790D01*
X66982305Y-94886846D01*
X66846390Y-94967226D01*
X66846383Y-94967232D01*
X66734732Y-95078883D01*
X66734726Y-95078890D01*
X66654346Y-95214805D01*
X66610290Y-95366445D01*
X66610288Y-95366458D01*
X66607500Y-95401879D01*
X66167499Y-95401879D01*
X66164711Y-95366458D01*
X66164709Y-95366445D01*
X66120653Y-95214805D01*
X66040273Y-95078890D01*
X66040267Y-95078883D01*
X65928616Y-94967232D01*
X65928609Y-94967226D01*
X65792694Y-94886846D01*
X65641054Y-94842790D01*
X65641041Y-94842788D01*
X65605620Y-94840000D01*
X65367500Y-94840000D01*
X65367500Y-95456988D01*
X65310493Y-95424075D01*
X65183326Y-95390000D01*
X65051674Y-95390000D01*
X64924507Y-95424075D01*
X64867500Y-95456988D01*
X64867500Y-94840000D01*
X64629380Y-94840000D01*
X64593958Y-94842788D01*
X64593945Y-94842790D01*
X64442305Y-94886846D01*
X64306390Y-94967226D01*
X64306383Y-94967232D01*
X64194732Y-95078883D01*
X64194726Y-95078890D01*
X64114346Y-95214805D01*
X64070290Y-95366445D01*
X64070288Y-95366458D01*
X64067500Y-95401879D01*
X63507743Y-95401879D01*
X63455185Y-95303550D01*
X63323910Y-95143590D01*
X63163950Y-95012315D01*
X63163948Y-95012314D01*
X63163947Y-95012313D01*
X62981454Y-94914768D01*
X62916386Y-94895030D01*
X62783434Y-94854700D01*
X62783433Y-94854699D01*
X62783427Y-94854698D01*
X62577503Y-94834417D01*
X62577497Y-94834417D01*
X62371572Y-94854698D01*
X62173545Y-94914768D01*
X61991052Y-95012313D01*
X61831090Y-95143590D01*
X61699813Y-95303552D01*
X61602268Y-95486045D01*
X61542198Y-95684072D01*
X61521917Y-95889996D01*
X58300500Y-95889996D01*
X58300500Y-95682148D01*
X58300500Y-95682147D01*
X58278318Y-95599362D01*
X58278318Y-95599361D01*
X58235465Y-95525138D01*
X58235463Y-95525136D01*
X58235459Y-95525131D01*
X57132708Y-94422381D01*
X57098683Y-94360069D01*
X57096881Y-94316843D01*
X57105682Y-94250000D01*
X57085044Y-94093238D01*
X57024536Y-93947159D01*
X56928282Y-93821718D01*
X56802841Y-93725464D01*
X56770011Y-93711865D01*
X56656760Y-93664955D01*
X56500000Y-93644318D01*
X56343239Y-93664955D01*
X56197160Y-93725463D01*
X56197157Y-93725465D01*
X56071718Y-93821718D01*
X55975465Y-93947157D01*
X55975463Y-93947160D01*
X55914955Y-94093239D01*
X55894318Y-94249999D01*
X55894318Y-94250000D01*
X55914955Y-94406760D01*
X55973110Y-94547157D01*
X55975464Y-94552841D01*
X55994123Y-94577157D01*
X56071719Y-94678283D01*
X56106431Y-94704918D01*
X56148299Y-94762256D01*
X56152521Y-94833126D01*
X56117758Y-94895030D01*
X56077948Y-94921289D01*
X55947159Y-94975464D01*
X55947158Y-94975465D01*
X55947157Y-94975465D01*
X55821718Y-95071718D01*
X55725465Y-95197157D01*
X55725463Y-95197160D01*
X55664955Y-95343239D01*
X55644318Y-95499999D01*
X49317511Y-95499999D01*
X49316440Y-93549999D01*
X50064318Y-93549999D01*
X50064318Y-93550000D01*
X50084955Y-93706760D01*
X50145054Y-93851850D01*
X50145464Y-93852841D01*
X50241718Y-93978282D01*
X50241722Y-93978285D01*
X50246274Y-93982837D01*
X50280302Y-94045148D01*
X50275241Y-94115964D01*
X50257148Y-94148638D01*
X50239104Y-94172153D01*
X50239100Y-94172160D01*
X50178592Y-94318239D01*
X50157955Y-94474999D01*
X50157955Y-94475000D01*
X50178592Y-94631760D01*
X50216484Y-94723238D01*
X50239101Y-94777841D01*
X50335355Y-94903282D01*
X50460796Y-94999536D01*
X50606875Y-95060044D01*
X50763637Y-95080682D01*
X50920399Y-95060044D01*
X51066478Y-94999536D01*
X51191919Y-94903282D01*
X51288173Y-94777841D01*
X51348681Y-94631762D01*
X51369319Y-94475000D01*
X51348681Y-94318238D01*
X51288173Y-94172159D01*
X51191919Y-94046718D01*
X51191917Y-94046716D01*
X51191913Y-94046711D01*
X51187358Y-94042156D01*
X51153332Y-93979844D01*
X51158397Y-93909029D01*
X51176489Y-93876359D01*
X51194536Y-93852841D01*
X51255044Y-93706762D01*
X51275682Y-93550000D01*
X51255044Y-93393238D01*
X51194536Y-93247159D01*
X51098282Y-93121718D01*
X50972841Y-93025464D01*
X50967540Y-93023268D01*
X50826760Y-92964955D01*
X50670000Y-92944318D01*
X50513239Y-92964955D01*
X50367160Y-93025463D01*
X50367157Y-93025465D01*
X50241718Y-93121718D01*
X50145465Y-93247157D01*
X50145463Y-93247160D01*
X50084955Y-93393239D01*
X50064318Y-93549999D01*
X49316440Y-93549999D01*
X49314352Y-89749999D01*
X51144318Y-89749999D01*
X51144318Y-89750000D01*
X51164955Y-89906760D01*
X51209982Y-90015463D01*
X51225464Y-90052841D01*
X51321717Y-90178281D01*
X51321720Y-90178284D01*
X51447812Y-90275038D01*
X51489679Y-90332376D01*
X51493901Y-90403247D01*
X51459137Y-90465149D01*
X51447812Y-90474962D01*
X51321720Y-90571715D01*
X51225465Y-90697157D01*
X51225463Y-90697160D01*
X51164955Y-90843239D01*
X51144318Y-90999999D01*
X51144318Y-91000000D01*
X51164955Y-91156760D01*
X51207041Y-91258363D01*
X51225464Y-91302841D01*
X51321718Y-91428282D01*
X51447159Y-91524536D01*
X51593238Y-91585044D01*
X51750000Y-91605682D01*
X51906762Y-91585044D01*
X52052841Y-91524536D01*
X52178282Y-91428282D01*
X52274536Y-91302841D01*
X52335044Y-91156762D01*
X52355682Y-91000000D01*
X52335044Y-90843238D01*
X52274536Y-90697159D01*
X52178282Y-90571718D01*
X52136945Y-90539999D01*
X61134318Y-90539999D01*
X61134318Y-90540000D01*
X61154955Y-90696760D01*
X61198637Y-90802216D01*
X61215464Y-90842841D01*
X61311718Y-90968282D01*
X61437159Y-91064536D01*
X61583238Y-91125044D01*
X61740000Y-91145682D01*
X61844363Y-91131942D01*
X61914510Y-91142881D01*
X61967609Y-91190009D01*
X61986799Y-91258363D01*
X61985730Y-91273309D01*
X61974318Y-91359998D01*
X61974318Y-91360000D01*
X61994955Y-91516760D01*
X61994956Y-91516762D01*
X62055464Y-91662841D01*
X62151718Y-91788282D01*
X62277159Y-91884536D01*
X62423238Y-91945044D01*
X62580000Y-91965682D01*
X62736762Y-91945044D01*
X62882841Y-91884536D01*
X63008282Y-91788282D01*
X63104536Y-91662841D01*
X63165044Y-91516762D01*
X63185682Y-91360000D01*
X63165044Y-91203238D01*
X63104536Y-91057159D01*
X63008282Y-90931718D01*
X62882841Y-90835464D01*
X62802574Y-90802216D01*
X62736760Y-90774955D01*
X62580000Y-90754318D01*
X62579999Y-90754318D01*
X62475637Y-90768057D01*
X62405488Y-90757117D01*
X62352390Y-90709989D01*
X62333200Y-90641635D01*
X62334269Y-90626688D01*
X62341507Y-90571715D01*
X62345682Y-90540000D01*
X62325044Y-90383238D01*
X62264536Y-90237159D01*
X62168282Y-90111718D01*
X62042841Y-90015464D01*
X61896762Y-89954956D01*
X61896760Y-89954955D01*
X61740000Y-89934318D01*
X61583239Y-89954955D01*
X61437160Y-90015463D01*
X61437157Y-90015465D01*
X61311718Y-90111718D01*
X61215465Y-90237157D01*
X61215463Y-90237160D01*
X61154955Y-90383239D01*
X61134318Y-90539999D01*
X52136945Y-90539999D01*
X52052841Y-90475464D01*
X52052838Y-90475463D01*
X52052187Y-90474963D01*
X52010320Y-90417625D01*
X52006098Y-90346754D01*
X52040862Y-90284851D01*
X52052187Y-90275037D01*
X52052838Y-90274536D01*
X52052841Y-90274536D01*
X52178282Y-90178282D01*
X52274536Y-90052841D01*
X52335044Y-89906762D01*
X52355682Y-89750000D01*
X52335044Y-89593238D01*
X52274536Y-89447159D01*
X52178282Y-89321718D01*
X52052841Y-89225464D01*
X51906762Y-89164956D01*
X51906760Y-89164955D01*
X51750000Y-89144318D01*
X51593239Y-89164955D01*
X51447160Y-89225463D01*
X51447157Y-89225465D01*
X51321718Y-89321718D01*
X51225465Y-89447157D01*
X51225463Y-89447160D01*
X51164955Y-89593239D01*
X51144318Y-89749999D01*
X49314352Y-89749999D01*
X49313440Y-88089999D01*
X53754318Y-88089999D01*
X53754318Y-88090000D01*
X53774955Y-88246760D01*
X53829629Y-88378753D01*
X53835464Y-88392841D01*
X53931718Y-88518282D01*
X54057159Y-88614536D01*
X54203238Y-88675044D01*
X54360000Y-88695682D01*
X54516762Y-88675044D01*
X54662841Y-88614536D01*
X54788282Y-88518282D01*
X54884536Y-88392841D01*
X54945044Y-88246762D01*
X54965682Y-88090000D01*
X54945044Y-87933238D01*
X54884536Y-87787159D01*
X54788282Y-87661718D01*
X54662841Y-87565464D01*
X54630151Y-87551923D01*
X54516760Y-87504955D01*
X54360000Y-87484318D01*
X54203239Y-87504955D01*
X54057160Y-87565463D01*
X54057157Y-87565465D01*
X53931718Y-87661718D01*
X53835465Y-87787157D01*
X53835463Y-87787160D01*
X53774955Y-87933239D01*
X53754318Y-88089999D01*
X49313440Y-88089999D01*
X49311115Y-83859999D01*
X52054318Y-83859999D01*
X52054318Y-83860000D01*
X52074955Y-84016760D01*
X52129972Y-84149581D01*
X52135464Y-84162841D01*
X52231718Y-84288282D01*
X52357159Y-84384536D01*
X52503238Y-84445044D01*
X52660000Y-84465682D01*
X52816762Y-84445044D01*
X52911568Y-84405773D01*
X52982156Y-84398184D01*
X53045643Y-84429963D01*
X53081871Y-84491020D01*
X53079337Y-84561972D01*
X53048880Y-84611277D01*
X52838340Y-84821817D01*
X52776028Y-84855843D01*
X52732799Y-84857644D01*
X52665962Y-84848845D01*
X52665960Y-84848845D01*
X52509199Y-84869482D01*
X52363120Y-84929990D01*
X52363117Y-84929992D01*
X52237678Y-85026245D01*
X52141425Y-85151684D01*
X52141423Y-85151687D01*
X52080915Y-85297766D01*
X52060278Y-85454526D01*
X52060278Y-85454527D01*
X52080915Y-85611287D01*
X52101640Y-85661320D01*
X52141424Y-85757368D01*
X52237678Y-85882809D01*
X52363119Y-85979063D01*
X52509198Y-86039571D01*
X52665960Y-86060209D01*
X52822722Y-86039571D01*
X52968801Y-85979063D01*
X53094242Y-85882809D01*
X53190496Y-85757368D01*
X53251004Y-85611289D01*
X53252490Y-85599999D01*
X63494318Y-85599999D01*
X63494318Y-85600000D01*
X63514955Y-85756760D01*
X63514956Y-85756762D01*
X63575464Y-85902841D01*
X63671718Y-86028282D01*
X63797159Y-86124536D01*
X63943238Y-86185044D01*
X64100000Y-86205682D01*
X64256762Y-86185044D01*
X64402841Y-86124536D01*
X64528282Y-86028282D01*
X64624536Y-85902841D01*
X64685044Y-85756762D01*
X64705682Y-85600000D01*
X64685044Y-85443238D01*
X64624536Y-85297159D01*
X64528282Y-85171718D01*
X64402841Y-85075464D01*
X64256762Y-85014956D01*
X64256760Y-85014955D01*
X64100000Y-84994318D01*
X63943239Y-85014955D01*
X63797160Y-85075463D01*
X63797157Y-85075465D01*
X63671718Y-85171718D01*
X63575465Y-85297157D01*
X63575463Y-85297160D01*
X63514955Y-85443239D01*
X63494318Y-85599999D01*
X53252490Y-85599999D01*
X53271642Y-85454527D01*
X53262841Y-85387685D01*
X53273779Y-85317540D01*
X53298665Y-85282147D01*
X53628901Y-84951913D01*
X53691213Y-84917888D01*
X53717996Y-84915009D01*
X59166826Y-84915009D01*
X59166828Y-84915009D01*
X59249614Y-84892827D01*
X59323837Y-84849974D01*
X60093812Y-84079999D01*
X62144318Y-84079999D01*
X62144318Y-84080000D01*
X62164955Y-84236760D01*
X62222132Y-84374796D01*
X62225464Y-84382841D01*
X62321718Y-84508282D01*
X62447159Y-84604536D01*
X62593238Y-84665044D01*
X62750000Y-84685682D01*
X62906762Y-84665044D01*
X63052841Y-84604536D01*
X63178282Y-84508282D01*
X63274536Y-84382841D01*
X63335044Y-84236762D01*
X63355682Y-84080000D01*
X63335044Y-83923238D01*
X63274536Y-83777159D01*
X63178282Y-83651718D01*
X63052841Y-83555464D01*
X63044153Y-83551865D01*
X62906760Y-83494955D01*
X62750000Y-83474318D01*
X62593239Y-83494955D01*
X62447160Y-83555463D01*
X62447157Y-83555465D01*
X62321718Y-83651718D01*
X62225465Y-83777157D01*
X62225463Y-83777160D01*
X62164955Y-83923239D01*
X62144318Y-84079999D01*
X60093812Y-84079999D01*
X61132422Y-83041389D01*
X61194734Y-83007364D01*
X61221517Y-83004484D01*
X79613867Y-83004484D01*
X79613869Y-83004484D01*
X79696655Y-82982302D01*
X79770878Y-82939449D01*
X80122923Y-82587403D01*
X80185234Y-82553380D01*
X80212017Y-82550500D01*
X81597640Y-82550500D01*
X81665761Y-82570502D01*
X81712254Y-82624158D01*
X81722358Y-82694432D01*
X81714049Y-82724718D01*
X81664955Y-82843239D01*
X81644191Y-83000961D01*
X81615468Y-83065888D01*
X81556203Y-83104979D01*
X81485211Y-83105824D01*
X81435050Y-83076463D01*
X81434834Y-83076746D01*
X81432584Y-83075020D01*
X81430174Y-83073609D01*
X81428288Y-83071723D01*
X81428282Y-83071718D01*
X81302841Y-82975464D01*
X81215894Y-82939449D01*
X81156760Y-82914955D01*
X81000000Y-82894318D01*
X80843239Y-82914955D01*
X80697160Y-82975463D01*
X80697157Y-82975465D01*
X80571718Y-83071718D01*
X80475465Y-83197157D01*
X80475463Y-83197160D01*
X80414955Y-83343239D01*
X80394318Y-83499999D01*
X80394318Y-83500001D01*
X80403117Y-83566842D01*
X80392177Y-83636991D01*
X80367290Y-83672382D01*
X76652078Y-87387595D01*
X76589766Y-87421621D01*
X76562983Y-87424500D01*
X60699976Y-87424500D01*
X60699960Y-87424499D01*
X60692242Y-87424499D01*
X60606536Y-87424499D01*
X60606532Y-87424499D01*
X60523754Y-87446680D01*
X60449528Y-87489534D01*
X60449525Y-87489536D01*
X60434107Y-87504955D01*
X60388924Y-87550138D01*
X60388922Y-87550140D01*
X59972984Y-87966078D01*
X59560309Y-88378753D01*
X59497997Y-88412778D01*
X59454769Y-88414579D01*
X59387929Y-88405780D01*
X59387927Y-88405780D01*
X59231166Y-88426417D01*
X59085087Y-88486925D01*
X59085084Y-88486927D01*
X58959645Y-88583180D01*
X58863392Y-88708619D01*
X58863390Y-88708622D01*
X58802882Y-88854701D01*
X58782245Y-89011461D01*
X58782245Y-89011462D01*
X58802882Y-89168222D01*
X58863249Y-89313959D01*
X58863391Y-89314303D01*
X58959645Y-89439744D01*
X59085086Y-89535998D01*
X59231165Y-89596506D01*
X59387927Y-89617144D01*
X59544689Y-89596506D01*
X59690768Y-89535998D01*
X59816209Y-89439744D01*
X59912463Y-89314303D01*
X59972971Y-89168224D01*
X59993609Y-89011462D01*
X59984808Y-88944618D01*
X59995746Y-88874473D01*
X60020632Y-88839081D01*
X60747311Y-88112404D01*
X60809623Y-88078379D01*
X60836406Y-88075500D01*
X76792851Y-88075500D01*
X76792853Y-88075500D01*
X76875639Y-88053318D01*
X76949862Y-88010465D01*
X80827619Y-84132705D01*
X80889928Y-84098683D01*
X80933154Y-84096881D01*
X81000000Y-84105682D01*
X81156762Y-84085044D01*
X81302841Y-84024536D01*
X81428282Y-83928282D01*
X81524536Y-83802841D01*
X81585044Y-83656762D01*
X81605682Y-83500000D01*
X81605681Y-83499998D01*
X81605808Y-83499039D01*
X81634530Y-83434112D01*
X81693795Y-83395020D01*
X81764787Y-83394175D01*
X81814949Y-83423536D01*
X81815166Y-83423254D01*
X81817413Y-83424978D01*
X81819825Y-83426390D01*
X81821711Y-83428276D01*
X81821716Y-83428280D01*
X81821718Y-83428282D01*
X81947159Y-83524536D01*
X82093238Y-83585044D01*
X82250000Y-83605682D01*
X82406762Y-83585044D01*
X82552841Y-83524536D01*
X82678282Y-83428282D01*
X82774536Y-83302841D01*
X82835044Y-83156762D01*
X82855682Y-83000000D01*
X82835044Y-82843238D01*
X82785950Y-82724716D01*
X82778362Y-82654128D01*
X82810141Y-82590641D01*
X82871199Y-82554414D01*
X82902360Y-82550500D01*
X84377127Y-82550500D01*
X84445248Y-82570502D01*
X84491741Y-82624158D01*
X84501845Y-82694432D01*
X84472351Y-82759012D01*
X84440127Y-82785618D01*
X84436952Y-82787451D01*
X84433387Y-82789510D01*
X84433379Y-82789516D01*
X72974059Y-94248836D01*
X72911747Y-94282862D01*
X72901412Y-94284663D01*
X72823238Y-94294956D01*
X72677160Y-94355463D01*
X72677157Y-94355465D01*
X72551718Y-94451718D01*
X72455465Y-94577157D01*
X72455463Y-94577160D01*
X72394955Y-94723239D01*
X72374318Y-94879999D01*
X72374318Y-94880000D01*
X72394955Y-95036760D01*
X72444124Y-95155463D01*
X72455464Y-95182841D01*
X72551718Y-95308282D01*
X72677159Y-95404536D01*
X72823238Y-95465044D01*
X72980000Y-95485682D01*
X73136762Y-95465044D01*
X73282841Y-95404536D01*
X73310751Y-95383120D01*
X73345396Y-95356537D01*
X73411616Y-95330937D01*
X73422099Y-95330500D01*
X77271207Y-95330500D01*
X77339328Y-95350502D01*
X77360302Y-95367405D01*
X78888836Y-96895939D01*
X78922862Y-96958251D01*
X78924663Y-96968586D01*
X78934955Y-97046760D01*
X78934956Y-97046762D01*
X78995464Y-97192841D01*
X79091718Y-97318282D01*
X79217159Y-97414536D01*
X79363238Y-97475044D01*
X79441411Y-97485335D01*
X79506337Y-97514057D01*
X79514059Y-97521162D01*
X79652039Y-97659142D01*
X79681077Y-97709430D01*
X79681796Y-97709133D01*
X79684055Y-97714588D01*
X79684648Y-97715614D01*
X79684955Y-97716759D01*
X79745463Y-97862839D01*
X79745465Y-97862842D01*
X79809193Y-97945894D01*
X79834793Y-98012115D01*
X79820528Y-98081663D01*
X79770927Y-98132459D01*
X79725677Y-98147520D01*
X79651656Y-98157265D01*
X79593238Y-98164956D01*
X79562858Y-98177540D01*
X79447160Y-98225463D01*
X79447157Y-98225465D01*
X79321718Y-98321718D01*
X79225465Y-98447157D01*
X79225463Y-98447160D01*
X79164955Y-98593239D01*
X79144318Y-98749999D01*
X79144318Y-98750000D01*
X79164955Y-98906760D01*
X79164956Y-98906762D01*
X79225464Y-99052841D01*
X79225465Y-99052842D01*
X79228625Y-99060471D01*
X79226724Y-99061258D01*
X79240850Y-99119508D01*
X79217622Y-99186597D01*
X79161811Y-99230479D01*
X79114993Y-99239500D01*
X74692099Y-99239500D01*
X74623978Y-99219498D01*
X74615396Y-99213463D01*
X74552847Y-99165468D01*
X74552839Y-99165463D01*
X74406760Y-99104955D01*
X74250000Y-99084318D01*
X74093239Y-99104955D01*
X73947160Y-99165463D01*
X73947157Y-99165465D01*
X73821718Y-99261718D01*
X73725465Y-99387157D01*
X73725463Y-99387160D01*
X73664956Y-99533237D01*
X73654663Y-99611411D01*
X73625939Y-99676337D01*
X73618837Y-99684057D01*
X73315013Y-99987883D01*
X73315008Y-99987889D01*
X73255700Y-100090613D01*
X73255701Y-100090614D01*
X73235358Y-100166537D01*
X73225000Y-100205192D01*
X73225000Y-100327901D01*
X73204998Y-100396022D01*
X73198963Y-100404604D01*
X73150968Y-100467152D01*
X73150963Y-100467160D01*
X73090455Y-100613239D01*
X73069818Y-100769999D01*
X73069818Y-100770000D01*
X73090455Y-100926760D01*
X73134395Y-101032839D01*
X73150964Y-101072841D01*
X73247218Y-101198282D01*
X73372659Y-101294536D01*
X73518738Y-101355044D01*
X73675500Y-101375682D01*
X73832262Y-101355044D01*
X73978341Y-101294536D01*
X74103782Y-101198282D01*
X74200036Y-101072841D01*
X74260544Y-100926762D01*
X74281182Y-100770000D01*
X74260544Y-100613238D01*
X74205865Y-100481233D01*
X74198277Y-100410647D01*
X74230056Y-100347160D01*
X74233180Y-100343923D01*
X74255941Y-100321162D01*
X74318253Y-100287136D01*
X74328581Y-100285336D01*
X74406762Y-100275044D01*
X74552841Y-100214536D01*
X74578787Y-100194627D01*
X74615396Y-100166537D01*
X74681616Y-100140937D01*
X74692099Y-100140500D01*
X76109922Y-100140500D01*
X76178043Y-100160502D01*
X76224536Y-100214158D01*
X76234640Y-100284432D01*
X76209885Y-100343204D01*
X76145465Y-100427157D01*
X76145463Y-100427160D01*
X76084955Y-100573239D01*
X76064318Y-100729999D01*
X76064318Y-100730000D01*
X76084955Y-100886760D01*
X76139088Y-101017447D01*
X76145464Y-101032841D01*
X76241718Y-101158282D01*
X76367159Y-101254536D01*
X76513238Y-101315044D01*
X76670000Y-101335682D01*
X76826762Y-101315044D01*
X76972841Y-101254536D01*
X77098282Y-101158282D01*
X77194536Y-101032841D01*
X77255044Y-100886762D01*
X77275682Y-100730000D01*
X77255044Y-100573238D01*
X77194536Y-100427159D01*
X77130114Y-100343203D01*
X77104515Y-100276983D01*
X77118780Y-100207435D01*
X77168381Y-100156639D01*
X77230078Y-100140500D01*
X80309309Y-100140500D01*
X80399673Y-100116286D01*
X80423887Y-100109799D01*
X80526614Y-100050489D01*
X83194687Y-97382416D01*
X83256999Y-97348390D01*
X83283782Y-97345511D01*
X86704298Y-97345511D01*
X86794662Y-97321297D01*
X86818876Y-97314810D01*
X86921603Y-97255500D01*
X87865941Y-96311160D01*
X87928252Y-96277137D01*
X87938583Y-96275336D01*
X88016762Y-96265044D01*
X88162841Y-96204536D01*
X88288282Y-96108282D01*
X88384536Y-95982841D01*
X88445044Y-95836762D01*
X88455335Y-95758587D01*
X88484057Y-95693661D01*
X88491150Y-95685951D01*
X88691393Y-95485708D01*
X88753703Y-95451684D01*
X88764029Y-95449884D01*
X88876762Y-95435044D01*
X89022841Y-95374536D01*
X89148282Y-95278282D01*
X89244536Y-95152841D01*
X89305044Y-95006762D01*
X89325682Y-94850000D01*
X89324365Y-94840000D01*
X89308994Y-94723239D01*
X89305044Y-94693238D01*
X89244536Y-94547159D01*
X89148282Y-94421718D01*
X89022841Y-94325464D01*
X89005399Y-94318239D01*
X88876760Y-94264955D01*
X88720000Y-94244318D01*
X88563239Y-94264955D01*
X88417160Y-94325463D01*
X88417157Y-94325465D01*
X88291718Y-94421718D01*
X88195465Y-94547157D01*
X88195463Y-94547160D01*
X88134956Y-94693238D01*
X88129212Y-94736864D01*
X88100488Y-94801790D01*
X88093385Y-94809510D01*
X87854059Y-95048836D01*
X87791747Y-95082862D01*
X87781412Y-95084663D01*
X87703238Y-95094956D01*
X87557160Y-95155463D01*
X87557157Y-95155465D01*
X87431718Y-95251718D01*
X87335465Y-95377157D01*
X87335463Y-95377160D01*
X87274955Y-95523238D01*
X87264663Y-95601411D01*
X87235939Y-95666338D01*
X87228837Y-95674058D01*
X86495291Y-96407606D01*
X86432978Y-96441631D01*
X86406195Y-96444511D01*
X82985680Y-96444511D01*
X82921463Y-96461718D01*
X82871106Y-96475211D01*
X82871095Y-96475215D01*
X82868956Y-96476451D01*
X82868953Y-96476453D01*
X82768378Y-96534519D01*
X82768368Y-96534527D01*
X80559292Y-98743603D01*
X80496980Y-98777629D01*
X80426164Y-98772564D01*
X80369329Y-98730017D01*
X80345275Y-98670954D01*
X80335044Y-98593239D01*
X80317880Y-98551800D01*
X80274536Y-98447159D01*
X80210805Y-98364103D01*
X80185206Y-98297885D01*
X80199471Y-98228336D01*
X80249072Y-98177540D01*
X80294318Y-98162480D01*
X80426762Y-98145044D01*
X80572841Y-98084536D01*
X80698282Y-97988282D01*
X80794536Y-97862841D01*
X80855044Y-97716762D01*
X80875682Y-97560000D01*
X80855044Y-97403238D01*
X80794536Y-97257159D01*
X80698282Y-97131718D01*
X80572841Y-97035464D01*
X80566835Y-97032976D01*
X80426760Y-96974955D01*
X80261813Y-96953240D01*
X80262115Y-96950942D01*
X80205490Y-96934316D01*
X80184516Y-96917413D01*
X80151162Y-96884059D01*
X80117136Y-96821747D01*
X80115335Y-96811410D01*
X80105044Y-96733239D01*
X80091739Y-96701116D01*
X80044536Y-96587159D01*
X79948282Y-96461718D01*
X79822841Y-96365464D01*
X79676762Y-96304956D01*
X79676760Y-96304955D01*
X79676761Y-96304955D01*
X79598586Y-96294663D01*
X79533659Y-96265940D01*
X79525939Y-96258836D01*
X77786620Y-94519516D01*
X77786610Y-94519508D01*
X77683891Y-94460203D01*
X77683888Y-94460202D01*
X77683887Y-94460201D01*
X77683885Y-94460200D01*
X77683884Y-94460200D01*
X77670502Y-94456614D01*
X77652227Y-94451718D01*
X77652225Y-94451717D01*
X77613743Y-94441406D01*
X77569309Y-94429500D01*
X77569307Y-94429500D01*
X74371793Y-94429500D01*
X74303672Y-94409498D01*
X74257179Y-94355842D01*
X74247075Y-94285568D01*
X74276569Y-94220988D01*
X74282698Y-94214405D01*
X78297104Y-90199999D01*
X85394318Y-90199999D01*
X85394318Y-90200000D01*
X85414955Y-90356760D01*
X85463917Y-90474963D01*
X85475464Y-90502841D01*
X85571718Y-90628282D01*
X85697159Y-90724536D01*
X85843238Y-90785044D01*
X86000000Y-90805682D01*
X86156762Y-90785044D01*
X86302841Y-90724536D01*
X86428282Y-90628282D01*
X86438118Y-90615462D01*
X86469324Y-90574796D01*
X86526662Y-90532929D01*
X86569286Y-90525500D01*
X88212983Y-90525500D01*
X88281104Y-90545502D01*
X88302078Y-90562405D01*
X93837595Y-96097921D01*
X93871621Y-96160233D01*
X93874500Y-96187016D01*
X93874500Y-98257147D01*
X93874500Y-98342853D01*
X93896682Y-98425639D01*
X93896683Y-98425641D01*
X93896684Y-98425643D01*
X93939532Y-98499858D01*
X93939534Y-98499860D01*
X93939535Y-98499862D01*
X94254207Y-98814534D01*
X94567290Y-99127616D01*
X94601315Y-99189929D01*
X94603117Y-99233157D01*
X94594318Y-99299998D01*
X94594318Y-99300000D01*
X94614955Y-99456760D01*
X94646442Y-99532775D01*
X94675464Y-99602841D01*
X94771718Y-99728282D01*
X94897159Y-99824536D01*
X95043238Y-99885044D01*
X95200000Y-99905682D01*
X95258569Y-99897971D01*
X95328718Y-99908910D01*
X95381817Y-99956038D01*
X95401007Y-100024392D01*
X95380196Y-100092270D01*
X95374979Y-100099596D01*
X95315468Y-100177152D01*
X95315463Y-100177160D01*
X95254955Y-100323239D01*
X95234318Y-100479999D01*
X95234318Y-100480000D01*
X95254955Y-100636760D01*
X95310145Y-100769999D01*
X95315464Y-100782841D01*
X95411718Y-100908282D01*
X95537159Y-101004536D01*
X95683238Y-101065044D01*
X95840000Y-101085682D01*
X95996762Y-101065044D01*
X96033810Y-101049698D01*
X103465083Y-101049698D01*
X103465083Y-101049705D01*
X103483111Y-101255777D01*
X103540996Y-101454370D01*
X103636511Y-101637851D01*
X103636517Y-101637860D01*
X103765986Y-101799175D01*
X103765987Y-101799176D01*
X103765989Y-101799178D01*
X105303990Y-103089714D01*
X105485347Y-103189210D01*
X105682630Y-103251413D01*
X105888259Y-103273933D01*
X106094329Y-103255904D01*
X106292922Y-103198020D01*
X106476407Y-103102504D01*
X106637732Y-102973027D01*
X106770698Y-102814564D01*
X106870194Y-102633207D01*
X106932397Y-102435923D01*
X106954917Y-102230295D01*
X106936888Y-102024225D01*
X106879004Y-101825631D01*
X106783488Y-101642147D01*
X106780047Y-101637860D01*
X106654013Y-101480824D01*
X106654011Y-101480822D01*
X105116010Y-100190286D01*
X105112159Y-100188173D01*
X104934654Y-100090790D01*
X104737378Y-100028589D01*
X104737364Y-100028586D01*
X104531743Y-100006067D01*
X104531741Y-100006067D01*
X104449313Y-100013278D01*
X104325668Y-100024095D01*
X104127075Y-100081980D01*
X103943594Y-100177495D01*
X103943585Y-100177501D01*
X103782270Y-100306970D01*
X103649299Y-100465440D01*
X103549806Y-100646791D01*
X103487605Y-100844067D01*
X103487602Y-100844081D01*
X103465083Y-101049698D01*
X96033810Y-101049698D01*
X96142841Y-101004536D01*
X96268282Y-100908282D01*
X96364536Y-100782841D01*
X96425044Y-100636762D01*
X96445682Y-100480000D01*
X96443991Y-100467159D01*
X96442964Y-100459361D01*
X96425044Y-100323238D01*
X96398336Y-100258761D01*
X96390747Y-100188173D01*
X96422526Y-100124686D01*
X96483583Y-100088458D01*
X96554535Y-100090992D01*
X96562946Y-100094128D01*
X96656582Y-100132914D01*
X96813344Y-100153552D01*
X96970106Y-100132914D01*
X97116185Y-100072406D01*
X97241626Y-99976152D01*
X97337880Y-99850711D01*
X97398388Y-99704632D01*
X97419026Y-99547870D01*
X97398388Y-99391108D01*
X97337880Y-99245029D01*
X97260083Y-99143642D01*
X104925102Y-99143642D01*
X104938861Y-99300911D01*
X104991297Y-99449811D01*
X105079117Y-99580997D01*
X105104457Y-99605898D01*
X105976480Y-100337611D01*
X105976481Y-100337611D01*
X106371043Y-99867390D01*
X106376401Y-99887387D01*
X106442277Y-100001488D01*
X106535440Y-100094651D01*
X106649541Y-100160527D01*
X106754236Y-100188579D01*
X106359503Y-100659005D01*
X106359503Y-100659006D01*
X107231532Y-101390724D01*
X107231534Y-101390726D01*
X107260446Y-101411349D01*
X107404889Y-101475057D01*
X107560630Y-101500841D01*
X107717900Y-101487082D01*
X107866800Y-101434646D01*
X107997984Y-101346826D01*
X108022888Y-101321483D01*
X108022895Y-101321476D01*
X108175815Y-101139230D01*
X107015826Y-100165884D01*
X107035821Y-100160527D01*
X107149922Y-100094651D01*
X107243085Y-100001488D01*
X107308961Y-99887387D01*
X107337014Y-99782690D01*
X108497208Y-100756208D01*
X108497210Y-100756208D01*
X108650116Y-100573982D01*
X108650134Y-100573959D01*
X108670772Y-100545029D01*
X108670773Y-100545028D01*
X108734475Y-100400593D01*
X108760259Y-100244851D01*
X108746500Y-100087582D01*
X108694064Y-99938682D01*
X108693741Y-99938200D01*
X114604357Y-99938200D01*
X114624885Y-100159739D01*
X114685768Y-100373720D01*
X114685774Y-100373737D01*
X114784938Y-100572884D01*
X114784942Y-100572889D01*
X114919017Y-100750435D01*
X115083438Y-100900324D01*
X115083439Y-100900325D01*
X115272587Y-101017440D01*
X115272590Y-101017441D01*
X115272599Y-101017447D01*
X115355848Y-101049698D01*
X115480053Y-101097816D01*
X115480056Y-101097816D01*
X115480060Y-101097818D01*
X115698757Y-101138700D01*
X115698760Y-101138700D01*
X115921240Y-101138700D01*
X115921243Y-101138700D01*
X116139940Y-101097818D01*
X116139944Y-101097816D01*
X116139946Y-101097816D01*
X116224539Y-101065044D01*
X116347401Y-101017447D01*
X116536562Y-100900324D01*
X116700981Y-100750436D01*
X116835058Y-100572889D01*
X116835059Y-100572885D01*
X116835061Y-100572884D01*
X116873893Y-100494900D01*
X122224357Y-100494900D01*
X122244885Y-100716439D01*
X122305768Y-100930420D01*
X122305774Y-100930437D01*
X122404938Y-101129584D01*
X122404942Y-101129589D01*
X122539017Y-101307135D01*
X122703438Y-101457024D01*
X122703439Y-101457025D01*
X122892587Y-101574140D01*
X122892590Y-101574141D01*
X122892599Y-101574147D01*
X122982989Y-101609164D01*
X123100053Y-101654516D01*
X123100056Y-101654516D01*
X123100060Y-101654518D01*
X123318757Y-101695400D01*
X123318760Y-101695400D01*
X123541240Y-101695400D01*
X123541243Y-101695400D01*
X123759940Y-101654518D01*
X123759944Y-101654516D01*
X123759946Y-101654516D01*
X123813298Y-101633846D01*
X123967401Y-101574147D01*
X124156562Y-101457024D01*
X124320981Y-101307136D01*
X124455058Y-101129589D01*
X124455059Y-101129585D01*
X124455061Y-101129584D01*
X124554225Y-100930437D01*
X124554226Y-100930433D01*
X124554229Y-100930428D01*
X124615115Y-100716436D01*
X124635643Y-100494900D01*
X124615115Y-100273364D01*
X124598269Y-100214158D01*
X124554231Y-100059379D01*
X124554225Y-100059362D01*
X124455061Y-99860215D01*
X124455057Y-99860210D01*
X124439566Y-99839697D01*
X124415250Y-99807496D01*
X124320982Y-99682664D01*
X124156561Y-99532775D01*
X124156560Y-99532774D01*
X123967412Y-99415659D01*
X123967405Y-99415655D01*
X123967401Y-99415653D01*
X123967396Y-99415651D01*
X123759946Y-99335283D01*
X123720972Y-99327997D01*
X123541243Y-99294400D01*
X123318757Y-99294400D01*
X123177674Y-99320773D01*
X123100053Y-99335283D01*
X122892603Y-99415651D01*
X122892587Y-99415659D01*
X122703439Y-99532774D01*
X122703438Y-99532775D01*
X122539017Y-99682664D01*
X122404942Y-99860210D01*
X122404938Y-99860215D01*
X122305774Y-100059362D01*
X122305768Y-100059379D01*
X122244885Y-100273360D01*
X122224357Y-100494900D01*
X116873893Y-100494900D01*
X116934225Y-100373737D01*
X116934226Y-100373733D01*
X116934229Y-100373728D01*
X116995115Y-100159736D01*
X117015643Y-99938200D01*
X116995115Y-99716664D01*
X116993622Y-99711418D01*
X116934231Y-99502679D01*
X116934225Y-99502662D01*
X116835061Y-99303515D01*
X116835057Y-99303510D01*
X116833094Y-99300911D01*
X116808686Y-99268589D01*
X116700982Y-99125964D01*
X116536561Y-98976075D01*
X116536560Y-98976074D01*
X116347412Y-98858959D01*
X116347405Y-98858955D01*
X116347401Y-98858953D01*
X116347396Y-98858951D01*
X116139946Y-98778583D01*
X116100972Y-98771297D01*
X115921243Y-98737700D01*
X115698757Y-98737700D01*
X115557674Y-98764073D01*
X115480053Y-98778583D01*
X115272603Y-98858951D01*
X115272587Y-98858959D01*
X115083439Y-98976074D01*
X115083438Y-98976075D01*
X114919017Y-99125964D01*
X114784942Y-99303510D01*
X114784938Y-99303515D01*
X114685774Y-99502662D01*
X114685768Y-99502679D01*
X114624885Y-99716660D01*
X114604357Y-99938200D01*
X108693741Y-99938200D01*
X108606244Y-99807496D01*
X108580904Y-99782595D01*
X107708880Y-99050881D01*
X107708879Y-99050881D01*
X107314318Y-99521099D01*
X107308961Y-99501107D01*
X107243085Y-99387006D01*
X107149922Y-99293843D01*
X107035821Y-99227967D01*
X106931122Y-99199913D01*
X107325857Y-98729487D01*
X107325857Y-98729486D01*
X106453829Y-97997769D01*
X106453827Y-97997767D01*
X106450088Y-97995100D01*
X110604357Y-97995100D01*
X110624885Y-98216639D01*
X110685768Y-98430620D01*
X110685774Y-98430637D01*
X110784938Y-98629784D01*
X110784942Y-98629789D01*
X110919017Y-98807335D01*
X111083438Y-98957224D01*
X111083439Y-98957225D01*
X111272587Y-99074340D01*
X111272590Y-99074341D01*
X111272599Y-99074347D01*
X111351607Y-99104955D01*
X111480053Y-99154716D01*
X111480056Y-99154716D01*
X111480060Y-99154718D01*
X111698757Y-99195600D01*
X111698760Y-99195600D01*
X111921240Y-99195600D01*
X111921243Y-99195600D01*
X112139940Y-99154718D01*
X112139944Y-99154716D01*
X112139946Y-99154716D01*
X112214162Y-99125964D01*
X112347401Y-99074347D01*
X112536562Y-98957224D01*
X112700981Y-98807336D01*
X112835058Y-98629789D01*
X112835059Y-98629785D01*
X112835061Y-98629784D01*
X112873893Y-98551800D01*
X118224357Y-98551800D01*
X118244885Y-98773339D01*
X118305768Y-98987320D01*
X118305774Y-98987337D01*
X118404938Y-99186484D01*
X118404942Y-99186489D01*
X118539017Y-99364035D01*
X118703438Y-99513924D01*
X118703439Y-99513925D01*
X118892587Y-99631040D01*
X118892590Y-99631041D01*
X118892599Y-99631047D01*
X118976192Y-99663431D01*
X119100053Y-99711416D01*
X119100056Y-99711416D01*
X119100060Y-99711418D01*
X119318757Y-99752300D01*
X119318760Y-99752300D01*
X119541240Y-99752300D01*
X119541243Y-99752300D01*
X119759940Y-99711418D01*
X119759944Y-99711416D01*
X119759946Y-99711416D01*
X119821093Y-99687727D01*
X119967401Y-99631047D01*
X120156562Y-99513924D01*
X120320981Y-99364036D01*
X120455058Y-99186489D01*
X120455059Y-99186485D01*
X120455061Y-99186484D01*
X120554225Y-98987337D01*
X120554226Y-98987333D01*
X120554229Y-98987328D01*
X120615115Y-98773336D01*
X120635643Y-98551800D01*
X120615115Y-98330264D01*
X120612683Y-98321718D01*
X120554231Y-98116279D01*
X120554225Y-98116262D01*
X120455061Y-97917115D01*
X120455057Y-97917110D01*
X120320982Y-97739564D01*
X120156561Y-97589675D01*
X120156560Y-97589674D01*
X119967412Y-97472559D01*
X119967405Y-97472555D01*
X119967401Y-97472553D01*
X119967396Y-97472551D01*
X119759946Y-97392183D01*
X119707697Y-97382416D01*
X119541243Y-97351300D01*
X119318757Y-97351300D01*
X119177674Y-97377673D01*
X119100053Y-97392183D01*
X118892603Y-97472551D01*
X118892587Y-97472559D01*
X118703439Y-97589674D01*
X118703438Y-97589675D01*
X118539017Y-97739564D01*
X118404942Y-97917110D01*
X118404938Y-97917115D01*
X118305774Y-98116262D01*
X118305768Y-98116279D01*
X118244885Y-98330260D01*
X118224357Y-98551800D01*
X112873893Y-98551800D01*
X112934225Y-98430637D01*
X112934226Y-98430633D01*
X112934229Y-98430628D01*
X112995115Y-98216636D01*
X113015643Y-97995100D01*
X112995115Y-97773564D01*
X112978953Y-97716762D01*
X112934231Y-97559579D01*
X112934225Y-97559562D01*
X112835061Y-97360415D01*
X112835057Y-97360410D01*
X112700982Y-97182864D01*
X112536561Y-97032975D01*
X112536560Y-97032974D01*
X112347412Y-96915859D01*
X112347405Y-96915855D01*
X112347401Y-96915853D01*
X112347396Y-96915851D01*
X112139946Y-96835483D01*
X112100972Y-96828197D01*
X111921243Y-96794600D01*
X111698757Y-96794600D01*
X111557674Y-96820973D01*
X111480053Y-96835483D01*
X111272603Y-96915851D01*
X111272587Y-96915859D01*
X111083439Y-97032974D01*
X111083438Y-97032975D01*
X110919017Y-97182864D01*
X110784942Y-97360410D01*
X110784938Y-97360415D01*
X110685774Y-97559562D01*
X110685768Y-97559579D01*
X110624885Y-97773560D01*
X110604357Y-97995100D01*
X106450088Y-97995100D01*
X106424915Y-97977144D01*
X106280472Y-97913436D01*
X106124731Y-97887652D01*
X105967461Y-97901411D01*
X105818561Y-97953847D01*
X105687377Y-98041667D01*
X105662473Y-98067010D01*
X105662466Y-98067017D01*
X105509545Y-98249261D01*
X105509545Y-98249262D01*
X106669535Y-99222609D01*
X106649541Y-99227967D01*
X106535440Y-99293843D01*
X106442277Y-99387006D01*
X106376401Y-99501107D01*
X106348347Y-99605803D01*
X105188152Y-98632284D01*
X105188151Y-98632284D01*
X105035233Y-98814526D01*
X105035227Y-98814534D01*
X105014589Y-98843464D01*
X105014588Y-98843465D01*
X104950886Y-98987900D01*
X104925102Y-99143642D01*
X97260083Y-99143642D01*
X97241626Y-99119588D01*
X97116185Y-99023334D01*
X97052996Y-98997160D01*
X96970104Y-98962825D01*
X96813344Y-98942188D01*
X96656583Y-98962825D01*
X96510504Y-99023333D01*
X96510501Y-99023335D01*
X96385062Y-99119588D01*
X96288809Y-99245027D01*
X96288807Y-99245030D01*
X96228299Y-99391109D01*
X96207662Y-99547869D01*
X96207662Y-99547870D01*
X96228299Y-99704630D01*
X96228300Y-99704632D01*
X96255007Y-99769108D01*
X96262596Y-99839697D01*
X96230817Y-99903184D01*
X96169759Y-99939411D01*
X96098807Y-99936877D01*
X96090380Y-99933734D01*
X95996760Y-99894955D01*
X95840000Y-99874318D01*
X95839997Y-99874318D01*
X95781427Y-99882028D01*
X95711279Y-99871088D01*
X95658181Y-99823959D01*
X95638992Y-99755605D01*
X95659804Y-99687727D01*
X95665004Y-99680424D01*
X95724536Y-99602841D01*
X95785044Y-99456762D01*
X95805682Y-99300000D01*
X95804871Y-99293843D01*
X95791920Y-99195464D01*
X95785044Y-99143238D01*
X95724536Y-98997159D01*
X95628282Y-98871718D01*
X95502841Y-98775464D01*
X95441364Y-98749999D01*
X95356760Y-98714955D01*
X95200000Y-98694318D01*
X95199998Y-98694318D01*
X95133157Y-98703117D01*
X95063008Y-98692177D01*
X95027616Y-98667290D01*
X94562404Y-98202077D01*
X94528379Y-98139765D01*
X94525500Y-98112982D01*
X94525500Y-96053016D01*
X94525501Y-96053003D01*
X94525501Y-95957147D01*
X94525500Y-95957143D01*
X94503319Y-95874365D01*
X94503317Y-95874360D01*
X94491497Y-95853887D01*
X94460467Y-95800141D01*
X94460459Y-95800131D01*
X94395473Y-95735145D01*
X94395450Y-95735124D01*
X92902826Y-94242499D01*
X128671086Y-94242499D01*
X128671087Y-94242500D01*
X131380038Y-94242500D01*
X131350000Y-94393516D01*
X131350000Y-94591484D01*
X131380038Y-94742500D01*
X128671087Y-94742500D01*
X128688363Y-94873735D01*
X128754524Y-95120651D01*
X128852349Y-95356819D01*
X128852352Y-95356825D01*
X128980155Y-95578187D01*
X129135768Y-95780984D01*
X129135781Y-95780998D01*
X129316501Y-95961718D01*
X129316515Y-95961731D01*
X129519312Y-96117344D01*
X129740674Y-96245147D01*
X129740680Y-96245150D01*
X129976848Y-96342975D01*
X130223764Y-96409136D01*
X130477187Y-96442499D01*
X130477197Y-96442500D01*
X132105000Y-96442500D01*
X132105000Y-95467461D01*
X132256016Y-95497500D01*
X132453984Y-95497500D01*
X132605000Y-95467461D01*
X132605000Y-96442500D01*
X134232803Y-96442500D01*
X134232812Y-96442499D01*
X134486235Y-96409136D01*
X134733151Y-96342975D01*
X134969319Y-96245150D01*
X134969325Y-96245147D01*
X135190687Y-96117344D01*
X135393484Y-95961731D01*
X135393498Y-95961718D01*
X135574218Y-95780998D01*
X135574231Y-95780984D01*
X135729844Y-95578187D01*
X135857647Y-95356825D01*
X135857650Y-95356819D01*
X135955475Y-95120651D01*
X136021636Y-94873735D01*
X136038913Y-94742500D01*
X133329962Y-94742500D01*
X133360000Y-94591484D01*
X133360000Y-94393516D01*
X133329962Y-94242500D01*
X136038913Y-94242500D01*
X136038913Y-94242499D01*
X136021636Y-94111264D01*
X135955475Y-93864348D01*
X135857650Y-93628180D01*
X135857647Y-93628174D01*
X135729844Y-93406812D01*
X135574231Y-93204015D01*
X135574218Y-93204001D01*
X135393498Y-93023281D01*
X135393484Y-93023268D01*
X135190687Y-92867655D01*
X134969325Y-92739852D01*
X134969319Y-92739849D01*
X134733151Y-92642024D01*
X134486235Y-92575863D01*
X134232812Y-92542500D01*
X132605000Y-92542500D01*
X132605000Y-93517538D01*
X132453984Y-93487500D01*
X132256016Y-93487500D01*
X132105000Y-93517538D01*
X132105000Y-92542500D01*
X130477187Y-92542500D01*
X130223764Y-92575863D01*
X129976848Y-92642024D01*
X129740680Y-92739849D01*
X129740674Y-92739852D01*
X129519312Y-92867655D01*
X129316515Y-93023268D01*
X129316501Y-93023281D01*
X129135781Y-93204001D01*
X129135768Y-93204015D01*
X128980155Y-93406812D01*
X128852352Y-93628174D01*
X128852349Y-93628180D01*
X128754524Y-93864348D01*
X128688363Y-94111264D01*
X128671086Y-94242499D01*
X92902826Y-94242499D01*
X88599868Y-89939540D01*
X88599858Y-89939532D01*
X88525643Y-89896684D01*
X88525641Y-89896683D01*
X88525639Y-89896682D01*
X88451788Y-89876894D01*
X119719500Y-89876894D01*
X119719500Y-90663105D01*
X119730122Y-90751564D01*
X119785638Y-90892341D01*
X119785641Y-90892345D01*
X119877077Y-91012922D01*
X119997654Y-91104358D01*
X119997658Y-91104361D01*
X120138435Y-91159877D01*
X120138434Y-91159877D01*
X120166394Y-91163234D01*
X120226898Y-91170500D01*
X120226901Y-91170500D01*
X121013099Y-91170500D01*
X121013102Y-91170500D01*
X121101564Y-91159877D01*
X121242342Y-91104361D01*
X121362922Y-91012922D01*
X121454361Y-90892342D01*
X121509877Y-90751564D01*
X121520500Y-90663102D01*
X121520500Y-90270000D01*
X122254540Y-90270000D01*
X122274325Y-90458256D01*
X122332818Y-90638278D01*
X122332822Y-90638286D01*
X122427465Y-90802214D01*
X122427466Y-90802216D01*
X122554126Y-90942886D01*
X122707267Y-91054149D01*
X122707267Y-91054150D01*
X122754612Y-91075229D01*
X122880197Y-91131144D01*
X123065354Y-91170500D01*
X123254646Y-91170500D01*
X123439803Y-91131144D01*
X123612730Y-91054151D01*
X123612730Y-91054150D01*
X123612732Y-91054150D01*
X123612732Y-91054149D01*
X123765871Y-90942888D01*
X123892533Y-90802216D01*
X123987179Y-90638284D01*
X124045674Y-90458256D01*
X124065460Y-90270000D01*
X124045674Y-90081744D01*
X124035452Y-90050284D01*
X123987181Y-89901721D01*
X123987177Y-89901713D01*
X123984548Y-89897160D01*
X123921777Y-89788436D01*
X123892534Y-89737785D01*
X123892533Y-89737783D01*
X123765873Y-89597113D01*
X123612732Y-89485850D01*
X123612732Y-89485849D01*
X123487145Y-89429934D01*
X123439803Y-89408856D01*
X123439801Y-89408855D01*
X123439800Y-89408855D01*
X123254646Y-89369500D01*
X123065354Y-89369500D01*
X122880199Y-89408855D01*
X122707267Y-89485849D01*
X122707267Y-89485850D01*
X122554126Y-89597113D01*
X122427466Y-89737783D01*
X122427465Y-89737785D01*
X122332822Y-89901713D01*
X122332818Y-89901721D01*
X122274325Y-90081743D01*
X122254540Y-90270000D01*
X121520500Y-90270000D01*
X121520500Y-89876898D01*
X121509877Y-89788436D01*
X121503284Y-89771718D01*
X121454361Y-89647658D01*
X121454358Y-89647654D01*
X121362922Y-89527077D01*
X121242345Y-89435641D01*
X121242341Y-89435638D01*
X121101564Y-89380122D01*
X121101565Y-89380122D01*
X121013105Y-89369500D01*
X121013102Y-89369500D01*
X120226898Y-89369500D01*
X120226894Y-89369500D01*
X120138435Y-89380122D01*
X119997658Y-89435638D01*
X119997654Y-89435641D01*
X119877077Y-89527077D01*
X119785641Y-89647654D01*
X119785638Y-89647658D01*
X119730122Y-89788435D01*
X119719500Y-89876894D01*
X88451788Y-89876894D01*
X88442853Y-89874500D01*
X88442851Y-89874500D01*
X86569286Y-89874500D01*
X86501165Y-89854498D01*
X86469324Y-89825204D01*
X86428284Y-89771720D01*
X86428282Y-89771719D01*
X86428282Y-89771718D01*
X86302841Y-89675464D01*
X86235712Y-89647658D01*
X86156760Y-89614955D01*
X86000000Y-89594318D01*
X85843239Y-89614955D01*
X85697160Y-89675463D01*
X85697157Y-89675465D01*
X85571718Y-89771718D01*
X85475465Y-89897157D01*
X85475463Y-89897160D01*
X85414955Y-90043239D01*
X85394318Y-90199999D01*
X78297104Y-90199999D01*
X79183148Y-89313955D01*
X125824500Y-89313955D01*
X125824500Y-89511044D01*
X125862949Y-89704335D01*
X125862950Y-89704338D01*
X125913014Y-89825204D01*
X125938368Y-89886414D01*
X126047861Y-90050282D01*
X126187218Y-90189639D01*
X126351086Y-90299132D01*
X126533165Y-90374551D01*
X126726459Y-90413000D01*
X127823541Y-90413000D01*
X128016835Y-90374551D01*
X128198914Y-90299132D01*
X128362782Y-90189639D01*
X128502139Y-90050282D01*
X128611632Y-89886414D01*
X128687051Y-89704335D01*
X128725500Y-89511041D01*
X128725500Y-89313959D01*
X128687051Y-89120665D01*
X128611632Y-88938586D01*
X128502139Y-88774718D01*
X128362782Y-88635361D01*
X128198914Y-88525868D01*
X128180597Y-88518281D01*
X128016838Y-88450450D01*
X128016835Y-88450449D01*
X127823544Y-88412000D01*
X127823541Y-88412000D01*
X126726459Y-88412000D01*
X126726455Y-88412000D01*
X126533164Y-88450449D01*
X126533161Y-88450450D01*
X126351085Y-88525868D01*
X126187222Y-88635358D01*
X126187215Y-88635363D01*
X126047863Y-88774715D01*
X126047858Y-88774722D01*
X125938368Y-88938585D01*
X125862950Y-89120661D01*
X125862949Y-89120664D01*
X125824500Y-89313955D01*
X79183148Y-89313955D01*
X80922104Y-87574999D01*
X85069318Y-87574999D01*
X85069318Y-87575000D01*
X85089955Y-87731760D01*
X85132333Y-87834068D01*
X85150464Y-87877841D01*
X85246718Y-88003282D01*
X85372159Y-88099536D01*
X85518238Y-88160044D01*
X85675000Y-88180682D01*
X85831762Y-88160044D01*
X85977841Y-88099536D01*
X86103282Y-88003282D01*
X86167186Y-87920000D01*
X119614540Y-87920000D01*
X119634325Y-88108256D01*
X119692818Y-88288278D01*
X119692822Y-88288286D01*
X119787465Y-88452214D01*
X119787466Y-88452216D01*
X119914126Y-88592886D01*
X120067267Y-88704149D01*
X120067267Y-88704150D01*
X120114612Y-88725229D01*
X120240197Y-88781144D01*
X120425354Y-88820500D01*
X120614646Y-88820500D01*
X120799803Y-88781144D01*
X120958270Y-88710589D01*
X122622961Y-88710589D01*
X122780352Y-88780664D01*
X122965410Y-88820000D01*
X123154590Y-88820000D01*
X123339644Y-88780665D01*
X123497037Y-88710589D01*
X123060001Y-88273553D01*
X123060000Y-88273553D01*
X122622962Y-88710589D01*
X122622961Y-88710589D01*
X120958270Y-88710589D01*
X120972730Y-88704151D01*
X120972730Y-88704150D01*
X120972732Y-88704150D01*
X120972732Y-88704149D01*
X121125871Y-88592888D01*
X121252533Y-88452216D01*
X121347179Y-88288284D01*
X121405674Y-88108256D01*
X121425460Y-87920000D01*
X122155043Y-87920000D01*
X122174817Y-88108150D01*
X122233281Y-88288077D01*
X122233284Y-88288084D01*
X122271745Y-88354701D01*
X122706446Y-87920001D01*
X122706446Y-87919999D01*
X122660369Y-87873922D01*
X122710000Y-87873922D01*
X122710000Y-87966078D01*
X122733852Y-88055095D01*
X122779930Y-88134905D01*
X122845095Y-88200070D01*
X122924905Y-88246148D01*
X123013922Y-88270000D01*
X123106078Y-88270000D01*
X123195095Y-88246148D01*
X123274905Y-88200070D01*
X123340070Y-88134905D01*
X123386148Y-88055095D01*
X123410000Y-87966078D01*
X123410000Y-87919999D01*
X123413553Y-87919999D01*
X123413553Y-87920001D01*
X123848253Y-88354701D01*
X123886719Y-88288077D01*
X123945182Y-88108150D01*
X123964956Y-87920000D01*
X123945182Y-87731849D01*
X123886717Y-87551916D01*
X123848254Y-87485297D01*
X123413553Y-87919999D01*
X123410000Y-87919999D01*
X123410000Y-87873922D01*
X123386148Y-87784905D01*
X123340070Y-87705095D01*
X123274905Y-87639930D01*
X123195095Y-87593852D01*
X123106078Y-87570000D01*
X123013922Y-87570000D01*
X122924905Y-87593852D01*
X122845095Y-87639930D01*
X122779930Y-87705095D01*
X122733852Y-87784905D01*
X122710000Y-87873922D01*
X122660369Y-87873922D01*
X122271745Y-87485298D01*
X122233280Y-87551921D01*
X122233279Y-87551923D01*
X122174817Y-87731849D01*
X122155043Y-87920000D01*
X121425460Y-87920000D01*
X121405674Y-87731744D01*
X121382921Y-87661718D01*
X121347181Y-87551721D01*
X121347177Y-87551713D01*
X121346269Y-87550141D01*
X121273731Y-87424500D01*
X121252534Y-87387785D01*
X121252533Y-87387783D01*
X121125873Y-87247113D01*
X120972732Y-87135850D01*
X120972732Y-87135849D01*
X120958265Y-87129408D01*
X122622962Y-87129408D01*
X123060000Y-87566446D01*
X123060001Y-87566446D01*
X123497037Y-87129409D01*
X123339647Y-87059335D01*
X123154590Y-87020000D01*
X122965410Y-87020000D01*
X122780350Y-87059335D01*
X122622962Y-87129408D01*
X120958265Y-87129408D01*
X120847145Y-87079934D01*
X120799803Y-87058856D01*
X120799801Y-87058855D01*
X120799800Y-87058855D01*
X120614646Y-87019500D01*
X120425354Y-87019500D01*
X120240199Y-87058855D01*
X120067267Y-87135849D01*
X120067267Y-87135850D01*
X119914126Y-87247113D01*
X119787466Y-87387783D01*
X119787465Y-87387785D01*
X119692822Y-87551713D01*
X119692818Y-87551721D01*
X119634325Y-87731743D01*
X119614540Y-87920000D01*
X86167186Y-87920000D01*
X86199536Y-87877841D01*
X86260044Y-87731762D01*
X86280682Y-87575000D01*
X86279426Y-87565463D01*
X86270363Y-87496619D01*
X86260044Y-87418238D01*
X86199536Y-87272159D01*
X86103282Y-87146718D01*
X85977841Y-87050464D01*
X85903088Y-87019500D01*
X85831760Y-86989955D01*
X85675000Y-86969318D01*
X85518239Y-86989955D01*
X85372160Y-87050463D01*
X85372157Y-87050465D01*
X85246718Y-87146718D01*
X85150465Y-87272157D01*
X85150463Y-87272160D01*
X85089955Y-87418239D01*
X85069318Y-87574999D01*
X80922104Y-87574999D01*
X81874604Y-86622499D01*
X125855136Y-86622499D01*
X125855137Y-86622500D01*
X126905496Y-86622500D01*
X126860326Y-86700736D01*
X126830000Y-86813915D01*
X126830000Y-86931085D01*
X126860326Y-87044264D01*
X126905496Y-87122500D01*
X125855136Y-87122500D01*
X125863427Y-87164183D01*
X125863429Y-87164190D01*
X125938811Y-87346177D01*
X126048248Y-87509962D01*
X126048253Y-87509968D01*
X126187531Y-87649246D01*
X126187537Y-87649251D01*
X126351322Y-87758688D01*
X126533305Y-87834068D01*
X126533310Y-87834070D01*
X126726506Y-87872499D01*
X126726510Y-87872500D01*
X127025000Y-87872500D01*
X127025000Y-87242004D01*
X127103236Y-87287174D01*
X127216415Y-87317500D01*
X127333585Y-87317500D01*
X127446764Y-87287174D01*
X127525000Y-87242004D01*
X127525000Y-87872500D01*
X127823490Y-87872500D01*
X127823493Y-87872499D01*
X128016689Y-87834070D01*
X128016694Y-87834068D01*
X128198677Y-87758688D01*
X128362462Y-87649251D01*
X128362468Y-87649246D01*
X128501746Y-87509968D01*
X128501751Y-87509962D01*
X128611188Y-87346177D01*
X128686570Y-87164190D01*
X128686572Y-87164183D01*
X128694863Y-87122500D01*
X127644504Y-87122500D01*
X127689674Y-87044264D01*
X127720000Y-86931085D01*
X127720000Y-86813915D01*
X127689674Y-86700736D01*
X127644504Y-86622500D01*
X128694863Y-86622500D01*
X128694863Y-86622499D01*
X128686572Y-86580816D01*
X128686570Y-86580809D01*
X128611188Y-86398822D01*
X128501751Y-86235037D01*
X128501746Y-86235031D01*
X128362468Y-86095753D01*
X128362462Y-86095748D01*
X128198677Y-85986311D01*
X128016694Y-85910931D01*
X128016689Y-85910929D01*
X127823493Y-85872500D01*
X127525000Y-85872500D01*
X127525000Y-86502995D01*
X127446764Y-86457826D01*
X127333585Y-86427500D01*
X127216415Y-86427500D01*
X127103236Y-86457826D01*
X127025000Y-86502995D01*
X127025000Y-85872500D01*
X126726506Y-85872500D01*
X126533310Y-85910929D01*
X126533305Y-85910931D01*
X126351322Y-85986311D01*
X126187537Y-86095748D01*
X126187531Y-86095753D01*
X126048253Y-86235031D01*
X126048248Y-86235037D01*
X125938811Y-86398822D01*
X125863429Y-86580809D01*
X125863427Y-86580816D01*
X125855136Y-86622499D01*
X81874604Y-86622499D01*
X82547104Y-85949999D01*
X112894318Y-85949999D01*
X112894318Y-85950000D01*
X112914955Y-86106760D01*
X112947382Y-86185044D01*
X112975464Y-86252841D01*
X113071718Y-86378282D01*
X113197159Y-86474536D01*
X113343238Y-86535044D01*
X113500000Y-86555682D01*
X113656762Y-86535044D01*
X113802841Y-86474536D01*
X113928282Y-86378282D01*
X114000038Y-86284766D01*
X114057375Y-86242901D01*
X114128246Y-86238679D01*
X114190149Y-86273443D01*
X114199957Y-86284761D01*
X114271718Y-86378282D01*
X114397159Y-86474536D01*
X114543238Y-86535044D01*
X114700000Y-86555682D01*
X114856762Y-86535044D01*
X115002841Y-86474536D01*
X115128282Y-86378282D01*
X115224536Y-86252841D01*
X115285044Y-86106762D01*
X115305682Y-85950000D01*
X115300538Y-85910931D01*
X115285044Y-85793239D01*
X115270187Y-85757369D01*
X115224536Y-85647159D01*
X115128282Y-85521718D01*
X115002841Y-85425464D01*
X114911645Y-85387689D01*
X114856760Y-85364955D01*
X114700000Y-85344318D01*
X114543239Y-85364955D01*
X114397160Y-85425463D01*
X114397157Y-85425465D01*
X114271715Y-85521720D01*
X114199962Y-85615231D01*
X114142624Y-85657098D01*
X114071753Y-85661320D01*
X114009850Y-85626556D01*
X114000038Y-85615231D01*
X113928284Y-85521720D01*
X113928282Y-85521719D01*
X113928282Y-85521718D01*
X113802841Y-85425464D01*
X113711645Y-85387689D01*
X113656760Y-85364955D01*
X113500000Y-85344318D01*
X113343239Y-85364955D01*
X113197160Y-85425463D01*
X113197157Y-85425465D01*
X113071718Y-85521718D01*
X112975465Y-85647157D01*
X112975463Y-85647160D01*
X112914955Y-85793239D01*
X112894318Y-85949999D01*
X82547104Y-85949999D01*
X84859698Y-83637405D01*
X84922010Y-83603379D01*
X84948793Y-83600500D01*
X86826929Y-83600500D01*
X86895050Y-83620502D01*
X86941543Y-83674158D01*
X86951647Y-83744432D01*
X86943338Y-83774718D01*
X86914955Y-83843239D01*
X86894318Y-83999999D01*
X86894318Y-84000000D01*
X86914955Y-84156760D01*
X86968569Y-84286194D01*
X86975464Y-84302841D01*
X87071718Y-84428282D01*
X87197159Y-84524536D01*
X87343238Y-84585044D01*
X87500000Y-84605682D01*
X87656762Y-84585044D01*
X87802841Y-84524536D01*
X87928282Y-84428282D01*
X87956789Y-84391131D01*
X87969324Y-84374796D01*
X88026662Y-84332929D01*
X88069286Y-84325500D01*
X89792851Y-84325500D01*
X89792853Y-84325500D01*
X89875639Y-84303318D01*
X89949862Y-84260465D01*
X93241448Y-80968878D01*
X103579500Y-80968878D01*
X103579500Y-81231121D01*
X103613728Y-81491108D01*
X103613729Y-81491114D01*
X103613730Y-81491116D01*
X103681602Y-81744419D01*
X103781957Y-81986697D01*
X103781958Y-81986698D01*
X103781963Y-81986709D01*
X103913073Y-82213799D01*
X103913077Y-82213805D01*
X104072710Y-82421842D01*
X104072729Y-82421863D01*
X104258136Y-82607270D01*
X104258157Y-82607289D01*
X104466194Y-82766922D01*
X104466200Y-82766926D01*
X104693290Y-82898036D01*
X104693294Y-82898037D01*
X104693303Y-82898043D01*
X104935581Y-82998398D01*
X105188884Y-83066270D01*
X105188890Y-83066270D01*
X105188891Y-83066271D01*
X105213900Y-83069563D01*
X105448880Y-83100500D01*
X105448887Y-83100500D01*
X105711113Y-83100500D01*
X105711120Y-83100500D01*
X105971116Y-83066270D01*
X106224419Y-82998398D01*
X106466697Y-82898043D01*
X106693803Y-82766924D01*
X106901851Y-82607282D01*
X107087282Y-82421851D01*
X107246924Y-82213803D01*
X107378043Y-81986697D01*
X107478398Y-81744419D01*
X107546270Y-81491116D01*
X107580500Y-81231120D01*
X107580500Y-80968880D01*
X107546270Y-80708884D01*
X107478398Y-80455581D01*
X107378043Y-80213303D01*
X107378037Y-80213294D01*
X107378036Y-80213290D01*
X107246926Y-79986200D01*
X107246922Y-79986194D01*
X107087289Y-79778157D01*
X107087270Y-79778136D01*
X106901863Y-79592729D01*
X106901842Y-79592710D01*
X106693805Y-79433077D01*
X106693799Y-79433073D01*
X106466709Y-79301963D01*
X106466701Y-79301959D01*
X106466697Y-79301957D01*
X106224419Y-79201602D01*
X105971116Y-79133730D01*
X105971114Y-79133729D01*
X105971108Y-79133728D01*
X105711121Y-79099500D01*
X105711120Y-79099500D01*
X105448880Y-79099500D01*
X105448878Y-79099500D01*
X105188891Y-79133728D01*
X104941560Y-79200000D01*
X104935581Y-79201602D01*
X104704887Y-79297159D01*
X104693301Y-79301958D01*
X104693290Y-79301963D01*
X104466200Y-79433073D01*
X104466194Y-79433077D01*
X104258157Y-79592710D01*
X104258136Y-79592729D01*
X104072729Y-79778136D01*
X104072710Y-79778157D01*
X103913077Y-79986194D01*
X103913073Y-79986200D01*
X103781963Y-80213290D01*
X103781958Y-80213301D01*
X103781957Y-80213303D01*
X103734331Y-80328282D01*
X103681602Y-80455581D01*
X103613728Y-80708891D01*
X103579500Y-80968878D01*
X93241448Y-80968878D01*
X95080613Y-79129713D01*
X95142924Y-79095689D01*
X95213739Y-79100753D01*
X95270575Y-79143300D01*
X95294629Y-79202363D01*
X95314955Y-79356760D01*
X95366003Y-79479999D01*
X95375464Y-79502841D01*
X95471718Y-79628282D01*
X95597159Y-79724536D01*
X95743238Y-79785044D01*
X95900000Y-79805682D01*
X96056762Y-79785044D01*
X96202841Y-79724536D01*
X96328282Y-79628282D01*
X96424536Y-79502841D01*
X96485044Y-79356762D01*
X96505682Y-79200000D01*
X96505682Y-79199999D01*
X98994318Y-79199999D01*
X98994318Y-79200000D01*
X99014955Y-79356760D01*
X99066003Y-79479999D01*
X99075464Y-79502841D01*
X99171718Y-79628282D01*
X99297159Y-79724536D01*
X99443238Y-79785044D01*
X99600000Y-79805682D01*
X99756762Y-79785044D01*
X99902841Y-79724536D01*
X100028282Y-79628282D01*
X100124536Y-79502841D01*
X100185044Y-79356762D01*
X100205682Y-79200000D01*
X100185044Y-79043238D01*
X100124536Y-78897159D01*
X100028282Y-78771718D01*
X99902841Y-78675464D01*
X99896345Y-78672773D01*
X99756760Y-78614955D01*
X99600000Y-78594318D01*
X99443239Y-78614955D01*
X99297160Y-78675463D01*
X99297157Y-78675465D01*
X99171718Y-78771718D01*
X99075465Y-78897157D01*
X99075463Y-78897160D01*
X99014955Y-79043239D01*
X98994318Y-79199999D01*
X96505682Y-79199999D01*
X96485044Y-79043238D01*
X96424536Y-78897159D01*
X96328282Y-78771718D01*
X96202841Y-78675464D01*
X96196345Y-78672773D01*
X96056760Y-78614955D01*
X95902363Y-78594629D01*
X95837436Y-78565907D01*
X95798344Y-78506641D01*
X95797499Y-78435650D01*
X95829713Y-78380613D01*
X96622577Y-77587749D01*
X121039500Y-77587749D01*
X121039500Y-77587752D01*
X121039500Y-79532248D01*
X121051133Y-79590731D01*
X121095448Y-79657052D01*
X121161769Y-79701367D01*
X121220252Y-79713000D01*
X121220253Y-79713000D01*
X121978196Y-79713000D01*
X122046317Y-79733002D01*
X122092810Y-79786658D01*
X122102914Y-79856932D01*
X122073420Y-79921512D01*
X122013694Y-79959896D01*
X121997916Y-79963446D01*
X121922505Y-79975391D01*
X121922499Y-79975392D01*
X121749906Y-80031471D01*
X121749900Y-80031474D01*
X121588192Y-80113868D01*
X121441368Y-80220542D01*
X121313042Y-80348868D01*
X121206368Y-80495692D01*
X121123974Y-80657400D01*
X121123971Y-80657406D01*
X121067892Y-80829999D01*
X121067891Y-80830004D01*
X121067891Y-80830005D01*
X121039500Y-81009257D01*
X121039500Y-81190743D01*
X121067891Y-81369995D01*
X121067892Y-81370000D01*
X121123971Y-81542593D01*
X121123973Y-81542598D01*
X121206366Y-81704304D01*
X121206368Y-81704307D01*
X121313042Y-81851131D01*
X121441368Y-81979457D01*
X121451350Y-81986709D01*
X121588196Y-82086134D01*
X121749902Y-82168527D01*
X121922505Y-82224609D01*
X122054730Y-82245551D01*
X122118882Y-82275964D01*
X122156409Y-82336232D01*
X122155395Y-82407221D01*
X122116162Y-82466393D01*
X122054730Y-82494448D01*
X121922505Y-82515391D01*
X121922499Y-82515392D01*
X121749906Y-82571471D01*
X121749900Y-82571474D01*
X121588192Y-82653868D01*
X121441368Y-82760542D01*
X121313042Y-82888868D01*
X121206368Y-83035692D01*
X121123974Y-83197400D01*
X121123971Y-83197406D01*
X121067892Y-83369999D01*
X121067891Y-83370004D01*
X121067891Y-83370005D01*
X121039500Y-83549257D01*
X121039500Y-83730743D01*
X121067891Y-83909995D01*
X121067892Y-83910000D01*
X121123941Y-84082500D01*
X121123973Y-84082598D01*
X121206366Y-84244304D01*
X121206368Y-84244307D01*
X121313042Y-84391131D01*
X121441368Y-84519457D01*
X121441371Y-84519459D01*
X121588196Y-84626134D01*
X121749902Y-84708527D01*
X121922505Y-84764609D01*
X122101757Y-84793000D01*
X122101760Y-84793000D01*
X122378240Y-84793000D01*
X122378243Y-84793000D01*
X122557495Y-84764609D01*
X122730098Y-84708527D01*
X122891804Y-84626134D01*
X123038629Y-84519459D01*
X123166959Y-84391129D01*
X123273634Y-84244304D01*
X123356027Y-84082598D01*
X123356059Y-84082499D01*
X128671086Y-84082499D01*
X128671087Y-84082500D01*
X131380038Y-84082500D01*
X131350000Y-84233516D01*
X131350000Y-84431484D01*
X131380038Y-84582500D01*
X128671087Y-84582500D01*
X128688363Y-84713735D01*
X128754524Y-84960651D01*
X128852349Y-85196819D01*
X128852352Y-85196825D01*
X128980155Y-85418187D01*
X129135768Y-85620984D01*
X129135781Y-85620998D01*
X129316501Y-85801718D01*
X129316515Y-85801731D01*
X129519312Y-85957344D01*
X129740674Y-86085147D01*
X129740680Y-86085150D01*
X129976848Y-86182975D01*
X130223764Y-86249136D01*
X130477187Y-86282499D01*
X130477197Y-86282500D01*
X132105000Y-86282500D01*
X132105000Y-85307461D01*
X132256016Y-85337500D01*
X132453984Y-85337500D01*
X132605000Y-85307461D01*
X132605000Y-86282500D01*
X134232803Y-86282500D01*
X134232812Y-86282499D01*
X134486235Y-86249136D01*
X134733151Y-86182975D01*
X134969319Y-86085150D01*
X134969325Y-86085147D01*
X135190687Y-85957344D01*
X135393484Y-85801731D01*
X135393498Y-85801718D01*
X135574218Y-85620998D01*
X135574231Y-85620984D01*
X135729844Y-85418187D01*
X135857647Y-85196825D01*
X135857650Y-85196819D01*
X135955475Y-84960651D01*
X136021636Y-84713735D01*
X136038913Y-84582500D01*
X133329962Y-84582500D01*
X133360000Y-84431484D01*
X133360000Y-84233516D01*
X133329962Y-84082500D01*
X136038913Y-84082500D01*
X136038913Y-84082499D01*
X136021636Y-83951264D01*
X135955475Y-83704348D01*
X135857650Y-83468180D01*
X135857647Y-83468174D01*
X135729844Y-83246812D01*
X135574231Y-83044015D01*
X135574218Y-83044001D01*
X135393498Y-82863281D01*
X135393484Y-82863268D01*
X135190687Y-82707655D01*
X134969325Y-82579852D01*
X134969319Y-82579849D01*
X134733151Y-82482024D01*
X134486235Y-82415863D01*
X134232812Y-82382500D01*
X132605000Y-82382500D01*
X132605000Y-83357538D01*
X132453984Y-83327500D01*
X132256016Y-83327500D01*
X132105000Y-83357538D01*
X132105000Y-82382500D01*
X130477187Y-82382500D01*
X130223764Y-82415863D01*
X129976848Y-82482024D01*
X129740680Y-82579849D01*
X129740674Y-82579852D01*
X129519312Y-82707655D01*
X129316515Y-82863268D01*
X129316501Y-82863281D01*
X129135781Y-83044001D01*
X129135768Y-83044015D01*
X128980155Y-83246812D01*
X128852352Y-83468174D01*
X128852349Y-83468180D01*
X128754524Y-83704348D01*
X128688363Y-83951264D01*
X128671086Y-84082499D01*
X123356059Y-84082499D01*
X123412109Y-83909995D01*
X123440500Y-83730743D01*
X123440500Y-83549257D01*
X123412109Y-83370005D01*
X123356027Y-83197402D01*
X123273634Y-83035696D01*
X123173623Y-82898043D01*
X123166957Y-82888868D01*
X123038631Y-82760542D01*
X122891807Y-82653868D01*
X122891806Y-82653867D01*
X122891804Y-82653866D01*
X122730098Y-82571473D01*
X122730095Y-82571472D01*
X122730093Y-82571471D01*
X122557500Y-82515392D01*
X122557496Y-82515391D01*
X122557495Y-82515391D01*
X122425268Y-82494448D01*
X122361117Y-82464036D01*
X122323590Y-82403768D01*
X122324604Y-82332779D01*
X122363837Y-82273607D01*
X122425268Y-82245551D01*
X122557495Y-82224609D01*
X122730098Y-82168527D01*
X122891804Y-82086134D01*
X123038629Y-81979459D01*
X123166959Y-81851129D01*
X123273634Y-81704304D01*
X123356027Y-81542598D01*
X123412109Y-81369995D01*
X123440500Y-81190743D01*
X123440500Y-81009257D01*
X123412109Y-80830005D01*
X123356027Y-80657402D01*
X123273634Y-80495696D01*
X123166959Y-80348871D01*
X123166957Y-80348868D01*
X123038631Y-80220542D01*
X122891807Y-80113868D01*
X122891806Y-80113867D01*
X122891804Y-80113866D01*
X122730098Y-80031473D01*
X122730095Y-80031472D01*
X122730093Y-80031471D01*
X122557500Y-79975392D01*
X122557496Y-79975391D01*
X122557495Y-79975391D01*
X122482091Y-79963448D01*
X122417940Y-79933036D01*
X122380413Y-79872768D01*
X122381427Y-79801779D01*
X122420660Y-79742607D01*
X122485655Y-79714039D01*
X122501804Y-79713000D01*
X123259747Y-79713000D01*
X123259748Y-79713000D01*
X123318231Y-79701367D01*
X123384552Y-79657052D01*
X123428867Y-79590731D01*
X123440500Y-79532248D01*
X123440500Y-78259999D01*
X126334318Y-78259999D01*
X126334318Y-78260000D01*
X126354955Y-78416760D01*
X126414747Y-78561109D01*
X126415464Y-78562841D01*
X126511718Y-78688282D01*
X126637159Y-78784536D01*
X126638639Y-78785149D01*
X126639693Y-78785998D01*
X126644309Y-78788663D01*
X126643893Y-78789382D01*
X126693923Y-78829692D01*
X126716348Y-78897053D01*
X126698796Y-78965846D01*
X126667134Y-79001522D01*
X126601718Y-79051717D01*
X126505465Y-79177157D01*
X126505463Y-79177160D01*
X126444955Y-79323239D01*
X126424318Y-79479999D01*
X126424318Y-79480000D01*
X126444955Y-79636760D01*
X126503521Y-79778149D01*
X126505464Y-79782841D01*
X126601718Y-79908282D01*
X126727159Y-80004536D01*
X126873238Y-80065044D01*
X127030000Y-80085682D01*
X127186762Y-80065044D01*
X127332841Y-80004536D01*
X127458282Y-79908282D01*
X127554536Y-79782841D01*
X127615044Y-79636762D01*
X127635682Y-79480000D01*
X127615044Y-79323238D01*
X127554536Y-79177159D01*
X127458282Y-79051718D01*
X127332841Y-78955464D01*
X127331351Y-78954847D01*
X127330292Y-78953993D01*
X127325691Y-78951337D01*
X127326105Y-78950619D01*
X127276072Y-78910302D01*
X127253650Y-78842939D01*
X127271207Y-78774147D01*
X127302865Y-78738477D01*
X127368282Y-78688282D01*
X127464536Y-78562841D01*
X127525044Y-78416762D01*
X127545682Y-78260000D01*
X127528268Y-78127729D01*
X127539207Y-78057582D01*
X127586335Y-78004483D01*
X127636745Y-77986362D01*
X127646762Y-77985044D01*
X127792841Y-77924536D01*
X127918282Y-77828282D01*
X128014536Y-77702841D01*
X128075044Y-77556762D01*
X128095682Y-77400000D01*
X128075044Y-77243238D01*
X128014536Y-77097159D01*
X127918282Y-76971718D01*
X127792841Y-76875464D01*
X127706628Y-76839753D01*
X127646760Y-76814955D01*
X127490000Y-76794318D01*
X127333239Y-76814955D01*
X127187160Y-76875463D01*
X127187157Y-76875465D01*
X127061718Y-76971718D01*
X126965465Y-77097157D01*
X126965463Y-77097160D01*
X126904955Y-77243239D01*
X126884318Y-77399999D01*
X126884318Y-77400000D01*
X126901731Y-77532269D01*
X126890791Y-77602418D01*
X126843663Y-77655516D01*
X126793257Y-77673636D01*
X126783238Y-77674956D01*
X126760984Y-77684174D01*
X126637160Y-77735463D01*
X126637157Y-77735465D01*
X126511718Y-77831718D01*
X126415465Y-77957157D01*
X126415463Y-77957160D01*
X126354955Y-78103239D01*
X126334318Y-78259999D01*
X123440500Y-78259999D01*
X123440500Y-77587752D01*
X123428867Y-77529269D01*
X123384552Y-77462948D01*
X123318231Y-77418633D01*
X123318228Y-77418632D01*
X123259750Y-77407000D01*
X123259748Y-77407000D01*
X121220252Y-77407000D01*
X121220249Y-77407000D01*
X121161771Y-77418632D01*
X121161768Y-77418633D01*
X121095448Y-77462948D01*
X121051133Y-77529268D01*
X121051132Y-77529271D01*
X121039500Y-77587749D01*
X96622577Y-77587749D01*
X101620326Y-72589999D01*
X120004318Y-72589999D01*
X120004318Y-72590000D01*
X120024955Y-72746760D01*
X120024956Y-72746762D01*
X120085464Y-72892841D01*
X120181718Y-73018282D01*
X120307159Y-73114536D01*
X120453238Y-73175044D01*
X120610000Y-73195682D01*
X120766762Y-73175044D01*
X120912841Y-73114536D01*
X120955416Y-73081866D01*
X121021633Y-73056266D01*
X121091182Y-73070530D01*
X121141979Y-73120130D01*
X121157896Y-73189319D01*
X121133880Y-73256131D01*
X121132086Y-73258527D01*
X121125469Y-73267150D01*
X121125463Y-73267160D01*
X121064955Y-73413239D01*
X121044318Y-73569999D01*
X121044318Y-73570000D01*
X121064955Y-73726760D01*
X121074582Y-73750000D01*
X121125464Y-73872841D01*
X121221718Y-73998282D01*
X121347159Y-74094536D01*
X121493238Y-74155044D01*
X121650000Y-74175682D01*
X121806762Y-74155044D01*
X121952841Y-74094536D01*
X122078282Y-73998282D01*
X122174536Y-73872841D01*
X122235044Y-73726762D01*
X122255682Y-73570000D01*
X122235044Y-73413238D01*
X122174536Y-73267159D01*
X122078282Y-73141718D01*
X121952841Y-73045464D01*
X121947470Y-73043239D01*
X121806760Y-72984955D01*
X121650000Y-72964318D01*
X121493239Y-72984955D01*
X121347160Y-73045463D01*
X121347152Y-73045468D01*
X121304583Y-73078133D01*
X121238363Y-73103733D01*
X121168814Y-73089468D01*
X121118018Y-73039866D01*
X121102103Y-72970677D01*
X121126121Y-72903866D01*
X121127894Y-72901496D01*
X121134536Y-72892841D01*
X121195044Y-72746762D01*
X121215682Y-72590000D01*
X121195044Y-72433238D01*
X121134536Y-72287159D01*
X121038282Y-72161718D01*
X120912841Y-72065464D01*
X120882367Y-72052841D01*
X120766760Y-72004955D01*
X120610000Y-71984318D01*
X120453239Y-72004955D01*
X120307160Y-72065463D01*
X120307157Y-72065465D01*
X120181718Y-72161718D01*
X120085465Y-72287157D01*
X120085463Y-72287160D01*
X120024955Y-72433239D01*
X120004318Y-72589999D01*
X101620326Y-72589999D01*
X102577619Y-71632706D01*
X102639929Y-71598682D01*
X102683154Y-71596881D01*
X102750000Y-71605682D01*
X102906762Y-71585044D01*
X103052841Y-71524536D01*
X103178282Y-71428282D01*
X103274536Y-71302841D01*
X103335044Y-71156762D01*
X103355682Y-71000000D01*
X103355306Y-70997147D01*
X103338994Y-70873239D01*
X103335044Y-70843238D01*
X103274536Y-70697159D01*
X103178282Y-70571718D01*
X103052841Y-70475464D01*
X102979189Y-70444956D01*
X102906760Y-70414955D01*
X102750000Y-70394318D01*
X102593239Y-70414955D01*
X102447160Y-70475463D01*
X102447157Y-70475465D01*
X102321718Y-70571718D01*
X102225465Y-70697157D01*
X102225463Y-70697160D01*
X102164955Y-70843239D01*
X102144318Y-70999999D01*
X102153117Y-71066841D01*
X102142177Y-71136989D01*
X102117290Y-71172381D01*
X97802349Y-75487322D01*
X97740037Y-75521348D01*
X97669222Y-75516283D01*
X97612386Y-75473736D01*
X97587575Y-75407216D01*
X97588331Y-75381789D01*
X97605682Y-75250000D01*
X97585044Y-75093238D01*
X97524536Y-74947159D01*
X97428282Y-74821718D01*
X97302841Y-74725464D01*
X97156762Y-74664956D01*
X97156760Y-74664955D01*
X97000000Y-74644318D01*
X96843239Y-74664955D01*
X96697160Y-74725463D01*
X96697157Y-74725465D01*
X96571718Y-74821718D01*
X96475465Y-74947157D01*
X96475463Y-74947160D01*
X96414956Y-75093238D01*
X96404663Y-75171412D01*
X96375939Y-75236339D01*
X96368836Y-75244059D01*
X96119059Y-75493836D01*
X96056747Y-75527862D01*
X96046412Y-75529663D01*
X95968238Y-75539956D01*
X95822160Y-75600463D01*
X95822157Y-75600465D01*
X95696718Y-75696718D01*
X95600465Y-75822157D01*
X95600463Y-75822160D01*
X95539956Y-75968238D01*
X95529663Y-76046412D01*
X95500939Y-76111339D01*
X95493836Y-76119059D01*
X88950302Y-82662595D01*
X88887990Y-82696621D01*
X88861207Y-82699500D01*
X88142004Y-82699500D01*
X88073883Y-82679498D01*
X88027390Y-82625842D01*
X88017286Y-82555568D01*
X88025592Y-82525290D01*
X88085044Y-82381762D01*
X88105682Y-82225000D01*
X88085044Y-82068238D01*
X88024536Y-81922159D01*
X87928282Y-81796718D01*
X87802841Y-81700464D01*
X87769388Y-81686607D01*
X87656760Y-81639955D01*
X87500000Y-81619318D01*
X87343239Y-81639955D01*
X87197160Y-81700463D01*
X87197157Y-81700465D01*
X87071715Y-81796720D01*
X87030676Y-81850204D01*
X86973338Y-81892071D01*
X86930714Y-81899500D01*
X85261169Y-81899500D01*
X85193048Y-81879498D01*
X85146555Y-81825842D01*
X85136451Y-81755568D01*
X85165945Y-81690988D01*
X85172826Y-81684505D01*
X85172443Y-81684122D01*
X85178276Y-81678288D01*
X85178278Y-81678284D01*
X85178282Y-81678282D01*
X85274536Y-81552841D01*
X85335044Y-81406762D01*
X85355682Y-81250000D01*
X85353196Y-81231120D01*
X85335044Y-81093239D01*
X85300258Y-81009257D01*
X85274536Y-80947159D01*
X85178282Y-80821718D01*
X85052841Y-80725464D01*
X85012831Y-80708891D01*
X84906760Y-80664955D01*
X84750000Y-80644318D01*
X84593239Y-80664955D01*
X84447160Y-80725463D01*
X84447157Y-80725465D01*
X84321718Y-80821718D01*
X84225465Y-80947157D01*
X84225463Y-80947160D01*
X84164955Y-81093239D01*
X84144318Y-81249999D01*
X84144318Y-81250000D01*
X84164955Y-81406760D01*
X84221222Y-81542599D01*
X84225464Y-81552841D01*
X84276473Y-81619318D01*
X84321723Y-81678288D01*
X84327557Y-81684122D01*
X84325071Y-81686607D01*
X84357392Y-81730846D01*
X84361631Y-81801716D01*
X84326882Y-81863628D01*
X84264177Y-81896924D01*
X84238831Y-81899500D01*
X79982147Y-81899500D01*
X79940754Y-81910591D01*
X79899360Y-81921682D01*
X79894419Y-81924536D01*
X79894416Y-81924537D01*
X79825141Y-81964532D01*
X79825135Y-81964537D01*
X79721435Y-82068238D01*
X79473092Y-82316580D01*
X79410782Y-82350604D01*
X79383999Y-82353484D01*
X60991647Y-82353484D01*
X60947285Y-82365370D01*
X60908864Y-82375665D01*
X60908859Y-82375667D01*
X60876556Y-82394318D01*
X60876555Y-82394317D01*
X60834641Y-82418516D01*
X60834631Y-82418524D01*
X59026053Y-84227104D01*
X58963741Y-84261129D01*
X58936958Y-84264009D01*
X53573831Y-84264009D01*
X53488125Y-84264009D01*
X53405339Y-84286191D01*
X53405336Y-84286192D01*
X53405332Y-84286194D01*
X53369434Y-84306920D01*
X53300439Y-84323657D01*
X53233347Y-84300436D01*
X53189461Y-84244628D01*
X53182713Y-84173953D01*
X53190023Y-84149593D01*
X53245044Y-84016762D01*
X53265682Y-83860000D01*
X53245044Y-83703238D01*
X53184536Y-83557159D01*
X53088282Y-83431718D01*
X52962841Y-83335464D01*
X52943615Y-83327500D01*
X52816760Y-83274955D01*
X52660000Y-83254318D01*
X52503239Y-83274955D01*
X52357160Y-83335463D01*
X52357157Y-83335465D01*
X52231718Y-83431718D01*
X52135465Y-83557157D01*
X52135463Y-83557160D01*
X52074955Y-83703239D01*
X52054318Y-83859999D01*
X49311115Y-83859999D01*
X49310000Y-81830000D01*
X49309999Y-81829999D01*
X49309999Y-81829998D01*
X48186735Y-81399999D01*
X74294318Y-81399999D01*
X74294318Y-81400000D01*
X74314955Y-81556760D01*
X74368740Y-81686607D01*
X74375464Y-81702841D01*
X74471718Y-81828282D01*
X74597159Y-81924536D01*
X74743238Y-81985044D01*
X74900000Y-82005682D01*
X75056762Y-81985044D01*
X75202841Y-81924536D01*
X75328282Y-81828282D01*
X75424536Y-81702841D01*
X75485044Y-81556762D01*
X75505682Y-81400000D01*
X75501732Y-81370000D01*
X75485044Y-81243239D01*
X75480025Y-81231120D01*
X75424536Y-81097159D01*
X75328282Y-80971718D01*
X75202841Y-80875464D01*
X75093094Y-80830005D01*
X75056760Y-80814955D01*
X74900000Y-80794318D01*
X74743239Y-80814955D01*
X74597160Y-80875463D01*
X74597157Y-80875465D01*
X74471718Y-80971718D01*
X74375465Y-81097157D01*
X74375463Y-81097160D01*
X74314955Y-81243239D01*
X74294318Y-81399999D01*
X48186735Y-81399999D01*
X46829163Y-80880304D01*
X46772695Y-80837270D01*
X46748457Y-80770539D01*
X46748236Y-80765254D01*
X46730226Y-79899999D01*
X74594318Y-79899999D01*
X74594318Y-79900000D01*
X74614955Y-80056760D01*
X74618387Y-80065044D01*
X74675464Y-80202841D01*
X74771718Y-80328282D01*
X74897159Y-80424536D01*
X75043238Y-80485044D01*
X75200000Y-80505682D01*
X75356762Y-80485044D01*
X75502841Y-80424536D01*
X75628282Y-80328282D01*
X75724536Y-80202841D01*
X75785044Y-80056762D01*
X75805682Y-79900000D01*
X75785044Y-79743238D01*
X75725712Y-79599999D01*
X76494318Y-79599999D01*
X76494318Y-79600000D01*
X76514955Y-79756760D01*
X76514956Y-79756762D01*
X76575464Y-79902841D01*
X76671718Y-80028282D01*
X76797159Y-80124536D01*
X76943238Y-80185044D01*
X77100000Y-80205682D01*
X77256762Y-80185044D01*
X77402841Y-80124536D01*
X77528282Y-80028282D01*
X77624536Y-79902841D01*
X77685044Y-79756762D01*
X77705682Y-79600000D01*
X77685044Y-79443238D01*
X77624536Y-79297159D01*
X77528282Y-79171718D01*
X77402841Y-79075464D01*
X77348225Y-79052841D01*
X77256760Y-79014955D01*
X77100000Y-78994318D01*
X76943239Y-79014955D01*
X76797160Y-79075463D01*
X76797157Y-79075465D01*
X76671718Y-79171718D01*
X76575465Y-79297157D01*
X76575463Y-79297160D01*
X76514955Y-79443239D01*
X76494318Y-79599999D01*
X75725712Y-79599999D01*
X75724536Y-79597159D01*
X75628282Y-79471718D01*
X75502841Y-79375464D01*
X75457691Y-79356762D01*
X75356760Y-79314955D01*
X75200000Y-79294318D01*
X75043239Y-79314955D01*
X74897160Y-79375463D01*
X74897157Y-79375465D01*
X74771718Y-79471718D01*
X74675465Y-79597157D01*
X74675463Y-79597160D01*
X74614955Y-79743239D01*
X74594318Y-79899999D01*
X46730226Y-79899999D01*
X46693690Y-78144765D01*
X46675312Y-77261879D01*
X50002500Y-77261879D01*
X50002500Y-77500000D01*
X50619488Y-77500000D01*
X50586575Y-77557007D01*
X50552500Y-77684174D01*
X50552500Y-77815826D01*
X50586575Y-77942993D01*
X50619488Y-78000000D01*
X50002500Y-78000000D01*
X50002500Y-78238120D01*
X50005288Y-78273541D01*
X50005290Y-78273554D01*
X50049346Y-78425194D01*
X50129726Y-78561109D01*
X50129732Y-78561116D01*
X50241383Y-78672767D01*
X50241390Y-78672773D01*
X50377305Y-78753153D01*
X50528945Y-78797209D01*
X50528958Y-78797211D01*
X50564379Y-78799999D01*
X50564381Y-78800000D01*
X50802500Y-78800000D01*
X50802500Y-78183012D01*
X50859507Y-78215925D01*
X50986674Y-78250000D01*
X51118326Y-78250000D01*
X51245493Y-78215925D01*
X51302500Y-78183012D01*
X51302500Y-78800000D01*
X51540619Y-78800000D01*
X51540620Y-78799999D01*
X51576041Y-78797211D01*
X51576054Y-78797209D01*
X51727694Y-78753153D01*
X51863609Y-78672773D01*
X51863616Y-78672767D01*
X51975267Y-78561116D01*
X51975273Y-78561109D01*
X52055653Y-78425194D01*
X52099709Y-78273554D01*
X52099711Y-78273541D01*
X52102499Y-78238120D01*
X52102500Y-78238119D01*
X52102500Y-78000000D01*
X51485512Y-78000000D01*
X51518425Y-77942993D01*
X51552500Y-77815826D01*
X51552500Y-77749996D01*
X52536917Y-77749996D01*
X52536917Y-77750003D01*
X52557198Y-77955927D01*
X52617268Y-78153954D01*
X52706940Y-78321718D01*
X52714815Y-78336450D01*
X52846090Y-78496410D01*
X53006050Y-78627685D01*
X53188546Y-78725232D01*
X53386566Y-78785300D01*
X53386570Y-78785300D01*
X53386572Y-78785301D01*
X53592497Y-78805583D01*
X53592500Y-78805583D01*
X53592503Y-78805583D01*
X53798427Y-78785301D01*
X53798428Y-78785300D01*
X53798434Y-78785300D01*
X53996454Y-78725232D01*
X54178950Y-78627685D01*
X54338910Y-78496410D01*
X54470185Y-78336450D01*
X54567732Y-78153954D01*
X54627800Y-77955934D01*
X54630893Y-77924536D01*
X54648083Y-77750003D01*
X54648083Y-77749996D01*
X55076917Y-77749996D01*
X55076917Y-77750003D01*
X55097198Y-77955927D01*
X55157268Y-78153954D01*
X55246940Y-78321718D01*
X55254815Y-78336450D01*
X55386090Y-78496410D01*
X55546050Y-78627685D01*
X55728546Y-78725232D01*
X55926566Y-78785300D01*
X55926570Y-78785300D01*
X55926572Y-78785301D01*
X56132497Y-78805583D01*
X56132500Y-78805583D01*
X56132503Y-78805583D01*
X56338427Y-78785301D01*
X56338428Y-78785300D01*
X56338434Y-78785300D01*
X56536454Y-78725232D01*
X56718950Y-78627685D01*
X56878910Y-78496410D01*
X57010185Y-78336450D01*
X57107732Y-78153954D01*
X57167800Y-77955934D01*
X57170893Y-77924536D01*
X57188083Y-77750003D01*
X57188083Y-77749996D01*
X57616917Y-77749996D01*
X57616917Y-77750003D01*
X57637198Y-77955927D01*
X57697268Y-78153954D01*
X57786940Y-78321718D01*
X57794815Y-78336450D01*
X57926090Y-78496410D01*
X58086050Y-78627685D01*
X58268546Y-78725232D01*
X58466566Y-78785300D01*
X58466570Y-78785300D01*
X58466572Y-78785301D01*
X58672497Y-78805583D01*
X58672500Y-78805583D01*
X58672503Y-78805583D01*
X58878427Y-78785301D01*
X58878428Y-78785300D01*
X58878434Y-78785300D01*
X59076454Y-78725232D01*
X59258950Y-78627685D01*
X59418910Y-78496410D01*
X59498032Y-78399999D01*
X74494318Y-78399999D01*
X74494318Y-78400000D01*
X74514955Y-78556760D01*
X74564537Y-78676460D01*
X74575464Y-78702841D01*
X74671718Y-78828282D01*
X74797159Y-78924536D01*
X74943238Y-78985044D01*
X75100000Y-79005682D01*
X75256762Y-78985044D01*
X75402841Y-78924536D01*
X75528282Y-78828282D01*
X75624536Y-78702841D01*
X75685044Y-78556762D01*
X75692517Y-78499999D01*
X82894318Y-78499999D01*
X82894318Y-78500000D01*
X82914955Y-78656760D01*
X82963579Y-78774147D01*
X82975464Y-78802841D01*
X83071718Y-78928282D01*
X83197159Y-79024536D01*
X83343238Y-79085044D01*
X83500000Y-79105682D01*
X83656762Y-79085044D01*
X83802841Y-79024536D01*
X83928282Y-78928282D01*
X84024536Y-78802841D01*
X84046424Y-78749999D01*
X85644318Y-78749999D01*
X85644318Y-78750000D01*
X85664955Y-78906760D01*
X85713740Y-79024536D01*
X85725464Y-79052841D01*
X85821718Y-79178282D01*
X85947159Y-79274536D01*
X86093238Y-79335044D01*
X86250000Y-79355682D01*
X86406762Y-79335044D01*
X86552841Y-79274536D01*
X86678282Y-79178282D01*
X86774536Y-79052841D01*
X86835044Y-78906762D01*
X86855682Y-78750000D01*
X86855235Y-78746607D01*
X86855682Y-78743741D01*
X86855682Y-78741742D01*
X86855994Y-78741742D01*
X86866170Y-78676460D01*
X86913295Y-78623359D01*
X86981648Y-78604165D01*
X86996599Y-78605234D01*
X87000000Y-78605682D01*
X87156762Y-78585044D01*
X87302841Y-78524536D01*
X87428282Y-78428282D01*
X87524536Y-78302841D01*
X87585044Y-78156762D01*
X87605682Y-78000000D01*
X87603886Y-77986361D01*
X87585044Y-77843239D01*
X87578849Y-77828281D01*
X87524536Y-77697159D01*
X87428282Y-77571718D01*
X87302841Y-77475464D01*
X87296403Y-77472797D01*
X87156760Y-77414955D01*
X87000000Y-77394318D01*
X86843239Y-77414955D01*
X86697160Y-77475463D01*
X86697157Y-77475465D01*
X86571718Y-77571718D01*
X86475465Y-77697157D01*
X86475463Y-77697160D01*
X86414955Y-77843239D01*
X86394318Y-77999999D01*
X86394318Y-78000000D01*
X86394765Y-78003399D01*
X86394318Y-78006265D01*
X86394318Y-78008258D01*
X86394007Y-78008258D01*
X86383825Y-78073547D01*
X86336696Y-78126645D01*
X86268342Y-78145834D01*
X86253399Y-78144765D01*
X86250003Y-78144318D01*
X86250000Y-78144318D01*
X86093239Y-78164955D01*
X85947160Y-78225463D01*
X85947157Y-78225465D01*
X85821718Y-78321718D01*
X85725465Y-78447157D01*
X85725463Y-78447160D01*
X85664955Y-78593239D01*
X85644318Y-78749999D01*
X84046424Y-78749999D01*
X84085044Y-78656762D01*
X84105682Y-78500000D01*
X84085044Y-78343238D01*
X84024536Y-78197159D01*
X83928282Y-78071718D01*
X83802841Y-77975464D01*
X83793798Y-77971718D01*
X83656760Y-77914955D01*
X83500000Y-77894318D01*
X83343239Y-77914955D01*
X83197160Y-77975463D01*
X83197157Y-77975465D01*
X83071718Y-78071718D01*
X82975465Y-78197157D01*
X82975463Y-78197160D01*
X82914955Y-78343239D01*
X82894318Y-78499999D01*
X75692517Y-78499999D01*
X75705682Y-78400000D01*
X75685044Y-78243238D01*
X75624536Y-78097159D01*
X75528282Y-77971718D01*
X75402841Y-77875464D01*
X75325044Y-77843239D01*
X75256760Y-77814955D01*
X75100000Y-77794318D01*
X74943239Y-77814955D01*
X74797160Y-77875463D01*
X74797157Y-77875465D01*
X74671718Y-77971718D01*
X74575465Y-78097157D01*
X74575463Y-78097160D01*
X74514955Y-78243239D01*
X74494318Y-78399999D01*
X59498032Y-78399999D01*
X59550185Y-78336450D01*
X59647732Y-78153954D01*
X59707800Y-77955934D01*
X59710893Y-77924536D01*
X59728083Y-77750003D01*
X59728083Y-77749996D01*
X59707801Y-77544072D01*
X59707800Y-77544070D01*
X59707800Y-77544066D01*
X59647732Y-77346046D01*
X59569668Y-77199999D01*
X62794318Y-77199999D01*
X62794318Y-77200000D01*
X62814955Y-77356760D01*
X62864124Y-77475463D01*
X62875464Y-77502841D01*
X62971718Y-77628282D01*
X63097159Y-77724536D01*
X63243238Y-77785044D01*
X63400000Y-77805682D01*
X63556762Y-77785044D01*
X63702841Y-77724536D01*
X63828282Y-77628282D01*
X63924536Y-77502841D01*
X63933592Y-77480977D01*
X63978139Y-77425698D01*
X64045503Y-77403277D01*
X64114294Y-77420835D01*
X64162672Y-77472797D01*
X64166403Y-77480966D01*
X64175464Y-77502841D01*
X64271718Y-77628282D01*
X64397159Y-77724536D01*
X64543238Y-77785044D01*
X64700000Y-77805682D01*
X64856762Y-77785044D01*
X65002841Y-77724536D01*
X65128282Y-77628282D01*
X65224536Y-77502841D01*
X65285044Y-77356762D01*
X65305682Y-77200000D01*
X65285044Y-77043238D01*
X65224536Y-76897159D01*
X65128282Y-76771718D01*
X65002841Y-76675464D01*
X64940246Y-76649536D01*
X64856760Y-76614955D01*
X64700000Y-76594318D01*
X64543239Y-76614955D01*
X64397160Y-76675463D01*
X64397157Y-76675465D01*
X64271718Y-76771718D01*
X64175465Y-76897157D01*
X64175462Y-76897162D01*
X64166408Y-76919022D01*
X64121859Y-76974302D01*
X64054496Y-76996722D01*
X63985705Y-76979163D01*
X63937327Y-76927200D01*
X63933592Y-76919022D01*
X63924537Y-76897162D01*
X63924536Y-76897160D01*
X63924536Y-76897159D01*
X63828282Y-76771718D01*
X63702841Y-76675464D01*
X63640246Y-76649536D01*
X63556760Y-76614955D01*
X63400000Y-76594318D01*
X63243239Y-76614955D01*
X63097160Y-76675463D01*
X63097157Y-76675465D01*
X62971718Y-76771718D01*
X62875465Y-76897157D01*
X62875463Y-76897160D01*
X62814955Y-77043239D01*
X62794318Y-77199999D01*
X59569668Y-77199999D01*
X59550185Y-77163550D01*
X59418910Y-77003590D01*
X59258950Y-76872315D01*
X59258948Y-76872314D01*
X59258947Y-76872313D01*
X59076454Y-76774768D01*
X59065348Y-76771399D01*
X58878434Y-76714700D01*
X58878433Y-76714699D01*
X58878427Y-76714698D01*
X58672503Y-76694417D01*
X58672497Y-76694417D01*
X58466572Y-76714698D01*
X58268545Y-76774768D01*
X58086052Y-76872313D01*
X57926090Y-77003590D01*
X57794813Y-77163552D01*
X57697268Y-77346045D01*
X57637198Y-77544072D01*
X57616917Y-77749996D01*
X57188083Y-77749996D01*
X57167801Y-77544072D01*
X57167800Y-77544070D01*
X57167800Y-77544066D01*
X57107732Y-77346046D01*
X57010185Y-77163550D01*
X56878910Y-77003590D01*
X56718950Y-76872315D01*
X56718948Y-76872314D01*
X56718947Y-76872313D01*
X56536454Y-76774768D01*
X56525348Y-76771399D01*
X56338434Y-76714700D01*
X56338433Y-76714699D01*
X56338427Y-76714698D01*
X56132503Y-76694417D01*
X56132497Y-76694417D01*
X55926572Y-76714698D01*
X55728545Y-76774768D01*
X55546052Y-76872313D01*
X55386090Y-77003590D01*
X55254813Y-77163552D01*
X55157268Y-77346045D01*
X55097198Y-77544072D01*
X55076917Y-77749996D01*
X54648083Y-77749996D01*
X54627801Y-77544072D01*
X54627800Y-77544070D01*
X54627800Y-77544066D01*
X54567732Y-77346046D01*
X54470185Y-77163550D01*
X54338910Y-77003590D01*
X54178950Y-76872315D01*
X54178948Y-76872314D01*
X54178947Y-76872313D01*
X53996454Y-76774768D01*
X53985348Y-76771399D01*
X53798434Y-76714700D01*
X53798433Y-76714699D01*
X53798427Y-76714698D01*
X53592503Y-76694417D01*
X53592497Y-76694417D01*
X53386572Y-76714698D01*
X53188545Y-76774768D01*
X53006052Y-76872313D01*
X52846090Y-77003590D01*
X52714813Y-77163552D01*
X52617268Y-77346045D01*
X52557198Y-77544072D01*
X52536917Y-77749996D01*
X51552500Y-77749996D01*
X51552500Y-77684174D01*
X51518425Y-77557007D01*
X51485512Y-77500000D01*
X52102500Y-77500000D01*
X52102500Y-77261880D01*
X52102499Y-77261879D01*
X52099711Y-77226458D01*
X52099709Y-77226445D01*
X52055653Y-77074805D01*
X51975273Y-76938890D01*
X51975267Y-76938883D01*
X51863616Y-76827232D01*
X51863609Y-76827226D01*
X51727694Y-76746846D01*
X51576054Y-76702790D01*
X51576041Y-76702788D01*
X51540620Y-76700000D01*
X51302500Y-76700000D01*
X51302500Y-77316988D01*
X51245493Y-77284075D01*
X51118326Y-77250000D01*
X50986674Y-77250000D01*
X50859507Y-77284075D01*
X50802500Y-77316988D01*
X50802500Y-76700000D01*
X50564380Y-76700000D01*
X50528958Y-76702788D01*
X50528945Y-76702790D01*
X50377305Y-76746846D01*
X50241390Y-76827226D01*
X50241383Y-76827232D01*
X50129732Y-76938883D01*
X50129726Y-76938890D01*
X50049346Y-77074805D01*
X50005290Y-77226445D01*
X50005288Y-77226458D01*
X50002500Y-77261879D01*
X46675312Y-77261879D01*
X46590763Y-73199999D01*
X81394318Y-73199999D01*
X81394318Y-73200000D01*
X81414955Y-73356760D01*
X81438350Y-73413239D01*
X81475464Y-73502841D01*
X81571718Y-73628282D01*
X81697159Y-73724536D01*
X81843238Y-73785044D01*
X82000000Y-73805682D01*
X82156762Y-73785044D01*
X82241368Y-73749999D01*
X89644318Y-73749999D01*
X89644318Y-73750000D01*
X89664955Y-73906760D01*
X89664956Y-73906762D01*
X89725464Y-74052841D01*
X89821718Y-74178282D01*
X89947159Y-74274536D01*
X90093238Y-74335044D01*
X90250000Y-74355682D01*
X90406762Y-74335044D01*
X90552841Y-74274536D01*
X90678282Y-74178282D01*
X90774536Y-74052841D01*
X90835044Y-73906762D01*
X90855682Y-73750000D01*
X90852622Y-73726760D01*
X90835044Y-73593239D01*
X90797601Y-73502842D01*
X90774536Y-73447159D01*
X90678282Y-73321718D01*
X90552841Y-73225464D01*
X90491364Y-73199999D01*
X90406760Y-73164955D01*
X90250000Y-73144318D01*
X90093239Y-73164955D01*
X89947160Y-73225463D01*
X89947157Y-73225465D01*
X89821718Y-73321718D01*
X89725465Y-73447157D01*
X89725463Y-73447160D01*
X89664955Y-73593239D01*
X89644318Y-73749999D01*
X82241368Y-73749999D01*
X82302841Y-73724536D01*
X82428282Y-73628282D01*
X82524536Y-73502841D01*
X82585044Y-73356762D01*
X82605682Y-73200000D01*
X82602396Y-73175044D01*
X82595167Y-73120130D01*
X82585044Y-73043238D01*
X82524536Y-72897159D01*
X82428282Y-72771718D01*
X82302841Y-72675464D01*
X82156762Y-72614956D01*
X82156760Y-72614955D01*
X82000000Y-72594318D01*
X81843239Y-72614955D01*
X81697160Y-72675463D01*
X81697157Y-72675465D01*
X81571718Y-72771718D01*
X81475465Y-72897157D01*
X81475463Y-72897160D01*
X81414955Y-73043239D01*
X81394318Y-73199999D01*
X46590763Y-73199999D01*
X46560581Y-71749999D01*
X68894318Y-71749999D01*
X68894318Y-71750000D01*
X68914955Y-71906760D01*
X68914956Y-71906762D01*
X68975464Y-72052841D01*
X69071718Y-72178282D01*
X69197159Y-72274536D01*
X69343238Y-72335044D01*
X69500000Y-72355682D01*
X69656762Y-72335044D01*
X69802841Y-72274536D01*
X69928282Y-72178282D01*
X70024536Y-72052841D01*
X70085044Y-71906762D01*
X70105682Y-71750000D01*
X70102396Y-71725044D01*
X70095363Y-71671619D01*
X70085044Y-71593238D01*
X70024536Y-71447159D01*
X69928282Y-71321718D01*
X69802841Y-71225464D01*
X69709407Y-71186762D01*
X69656760Y-71164955D01*
X69500000Y-71144318D01*
X69343239Y-71164955D01*
X69197160Y-71225463D01*
X69197157Y-71225465D01*
X69071718Y-71321718D01*
X68975465Y-71447157D01*
X68975463Y-71447160D01*
X68914955Y-71593239D01*
X68894318Y-71749999D01*
X46560581Y-71749999D01*
X46545594Y-71029999D01*
X56394318Y-71029999D01*
X56394318Y-71030000D01*
X56414955Y-71186760D01*
X56463038Y-71302841D01*
X56475464Y-71332841D01*
X56571718Y-71458282D01*
X56697159Y-71554536D01*
X56843238Y-71615044D01*
X57000000Y-71635682D01*
X57156762Y-71615044D01*
X57302841Y-71554536D01*
X57428282Y-71458282D01*
X57524536Y-71332841D01*
X57585044Y-71186762D01*
X57591200Y-71139999D01*
X98994318Y-71139999D01*
X98994318Y-71140000D01*
X99014955Y-71296760D01*
X99029900Y-71332839D01*
X99075464Y-71442841D01*
X99171718Y-71568282D01*
X99297159Y-71664536D01*
X99443238Y-71725044D01*
X99600000Y-71745682D01*
X99756762Y-71725044D01*
X99902841Y-71664536D01*
X100028282Y-71568282D01*
X100124536Y-71442841D01*
X100185044Y-71296762D01*
X100205682Y-71140000D01*
X100185044Y-70983238D01*
X100124536Y-70837159D01*
X100028282Y-70711718D01*
X99902841Y-70615464D01*
X99875660Y-70604205D01*
X99756760Y-70554955D01*
X99600000Y-70534318D01*
X99443239Y-70554955D01*
X99297160Y-70615463D01*
X99297157Y-70615465D01*
X99171718Y-70711718D01*
X99075465Y-70837157D01*
X99075463Y-70837160D01*
X99014955Y-70983239D01*
X98994318Y-71139999D01*
X57591200Y-71139999D01*
X57605682Y-71030000D01*
X57601732Y-71000000D01*
X57585044Y-70873239D01*
X57572618Y-70843238D01*
X57524536Y-70727159D01*
X57428282Y-70601718D01*
X57302841Y-70505464D01*
X57233612Y-70476788D01*
X57156760Y-70444955D01*
X57000000Y-70424318D01*
X56843239Y-70444955D01*
X56697160Y-70505463D01*
X56697157Y-70505465D01*
X56571718Y-70601718D01*
X56475465Y-70727157D01*
X56475463Y-70727160D01*
X56414955Y-70873239D01*
X56394318Y-71029999D01*
X46545594Y-71029999D01*
X46512677Y-69448620D01*
X46531257Y-69380100D01*
X46583934Y-69332500D01*
X46638650Y-69320000D01*
X49340000Y-69320000D01*
X49338567Y-68013389D01*
X70399500Y-68013389D01*
X70399500Y-69986611D01*
X70426598Y-70157701D01*
X70480127Y-70322445D01*
X70480128Y-70322448D01*
X70480130Y-70322452D01*
X70558765Y-70476783D01*
X70558766Y-70476786D01*
X70660587Y-70616930D01*
X70783069Y-70739412D01*
X70783072Y-70739414D01*
X70923212Y-70841232D01*
X71077555Y-70919873D01*
X71242299Y-70973402D01*
X71413389Y-71000500D01*
X71413392Y-71000500D01*
X71586608Y-71000500D01*
X71586611Y-71000500D01*
X71757701Y-70973402D01*
X71922445Y-70919873D01*
X72076788Y-70841232D01*
X72216928Y-70739414D01*
X72339414Y-70616928D01*
X72441232Y-70476788D01*
X72441907Y-70475465D01*
X72519869Y-70322452D01*
X72519873Y-70322445D01*
X72573402Y-70157701D01*
X72600500Y-69986611D01*
X72600500Y-68013389D01*
X72573402Y-67842299D01*
X72519873Y-67677555D01*
X72441232Y-67523212D01*
X72362579Y-67414956D01*
X72348657Y-67395794D01*
X72900000Y-67395794D01*
X72900000Y-68750000D01*
X73451518Y-68750000D01*
X73440889Y-68768409D01*
X73400000Y-68921009D01*
X73400000Y-69078991D01*
X73440889Y-69231591D01*
X73451518Y-69250000D01*
X72900001Y-69250000D01*
X72900001Y-70604209D01*
X72902851Y-70634606D01*
X72902852Y-70634609D01*
X72947653Y-70762644D01*
X72947653Y-70762645D01*
X73028207Y-70871792D01*
X73137354Y-70952346D01*
X73265389Y-70997147D01*
X73265394Y-70997148D01*
X73295797Y-70999999D01*
X73750000Y-70999999D01*
X73750000Y-69548482D01*
X73768409Y-69559111D01*
X73921009Y-69600000D01*
X74078991Y-69600000D01*
X74231591Y-69559111D01*
X74250000Y-69548482D01*
X74250000Y-70999999D01*
X74704195Y-70999999D01*
X74704209Y-70999998D01*
X74734606Y-70997148D01*
X74734609Y-70997147D01*
X74862644Y-70952346D01*
X74862645Y-70952346D01*
X74971792Y-70871792D01*
X75052346Y-70762645D01*
X75052346Y-70762644D01*
X75097147Y-70634610D01*
X75097148Y-70634605D01*
X75099999Y-70604205D01*
X75100000Y-70604199D01*
X75100000Y-69250000D01*
X74548482Y-69250000D01*
X74559111Y-69231591D01*
X74600000Y-69078991D01*
X74600000Y-68921009D01*
X74559111Y-68768409D01*
X74548482Y-68750000D01*
X75099999Y-68750000D01*
X75099999Y-67395805D01*
X75099998Y-67395794D01*
X75400000Y-67395794D01*
X75400000Y-68750000D01*
X75951518Y-68750000D01*
X75940889Y-68768409D01*
X75900000Y-68921009D01*
X75900000Y-69078991D01*
X75940889Y-69231591D01*
X75951518Y-69250000D01*
X75400001Y-69250000D01*
X75400001Y-70604209D01*
X75402851Y-70634606D01*
X75402852Y-70634609D01*
X75447653Y-70762644D01*
X75447653Y-70762645D01*
X75528207Y-70871792D01*
X75637354Y-70952346D01*
X75765389Y-70997147D01*
X75765394Y-70997148D01*
X75795797Y-70999999D01*
X76250000Y-70999999D01*
X76250000Y-69548482D01*
X76268409Y-69559111D01*
X76421009Y-69600000D01*
X76578991Y-69600000D01*
X76731591Y-69559111D01*
X76750000Y-69548482D01*
X76750000Y-70999999D01*
X77204195Y-70999999D01*
X77204209Y-70999998D01*
X77234606Y-70997148D01*
X77234609Y-70997147D01*
X77362644Y-70952346D01*
X77362645Y-70952346D01*
X77471792Y-70871792D01*
X77552346Y-70762645D01*
X77552346Y-70762644D01*
X77597147Y-70634610D01*
X77597148Y-70634605D01*
X77599999Y-70604205D01*
X77600000Y-70604199D01*
X77600000Y-69250000D01*
X77048482Y-69250000D01*
X77059111Y-69231591D01*
X77100000Y-69078991D01*
X77100000Y-68921009D01*
X77059111Y-68768409D01*
X77048482Y-68750000D01*
X77599999Y-68750000D01*
X77599999Y-68013389D01*
X77899500Y-68013389D01*
X77899500Y-69986611D01*
X77926598Y-70157701D01*
X77980127Y-70322445D01*
X77980128Y-70322448D01*
X77980130Y-70322452D01*
X78058765Y-70476783D01*
X78058766Y-70476786D01*
X78160587Y-70616930D01*
X78283069Y-70739412D01*
X78283072Y-70739414D01*
X78423212Y-70841232D01*
X78577555Y-70919873D01*
X78742299Y-70973402D01*
X78913389Y-71000500D01*
X78913392Y-71000500D01*
X79086608Y-71000500D01*
X79086611Y-71000500D01*
X79257701Y-70973402D01*
X79422445Y-70919873D01*
X79576788Y-70841232D01*
X79716928Y-70739414D01*
X79839414Y-70616928D01*
X79941232Y-70476788D01*
X79941907Y-70475465D01*
X80019869Y-70322452D01*
X80019873Y-70322445D01*
X80073402Y-70157701D01*
X80100500Y-69986611D01*
X80100500Y-68013389D01*
X80098379Y-67999999D01*
X95644318Y-67999999D01*
X95644318Y-68000000D01*
X95664955Y-68156760D01*
X95703577Y-68250000D01*
X95725464Y-68302841D01*
X95821718Y-68428282D01*
X95947159Y-68524536D01*
X96093238Y-68585044D01*
X96250000Y-68605682D01*
X96406762Y-68585044D01*
X96552841Y-68524536D01*
X96552847Y-68524531D01*
X96559995Y-68520405D01*
X96561538Y-68523078D01*
X96614025Y-68502762D01*
X96683580Y-68516998D01*
X96724525Y-68551617D01*
X96725463Y-68552839D01*
X96725464Y-68552841D01*
X96821718Y-68678282D01*
X96947159Y-68774536D01*
X97093238Y-68835044D01*
X97250000Y-68855682D01*
X97406762Y-68835044D01*
X97552841Y-68774536D01*
X97678282Y-68678282D01*
X97774536Y-68552841D01*
X97835044Y-68406762D01*
X97855682Y-68250000D01*
X97835044Y-68093238D01*
X97774536Y-67947159D01*
X97678282Y-67821718D01*
X97552841Y-67725464D01*
X97487460Y-67698382D01*
X97406760Y-67664955D01*
X97250000Y-67644318D01*
X97093239Y-67664955D01*
X96947160Y-67725463D01*
X96940005Y-67729595D01*
X96938467Y-67726932D01*
X96885885Y-67747244D01*
X96816340Y-67732960D01*
X96775474Y-67698382D01*
X96759487Y-67677547D01*
X96678282Y-67571718D01*
X96552841Y-67475464D01*
X96406762Y-67414956D01*
X96406760Y-67414955D01*
X96250000Y-67394318D01*
X96093239Y-67414955D01*
X95947160Y-67475463D01*
X95947157Y-67475465D01*
X95821718Y-67571718D01*
X95725465Y-67697157D01*
X95725463Y-67697160D01*
X95664955Y-67843239D01*
X95644318Y-67999999D01*
X80098379Y-67999999D01*
X80073402Y-67842299D01*
X80019873Y-67677555D01*
X79941232Y-67523212D01*
X79862579Y-67414956D01*
X79839412Y-67383069D01*
X79716930Y-67260587D01*
X79576788Y-67158768D01*
X79422452Y-67080130D01*
X79422448Y-67080128D01*
X79422445Y-67080127D01*
X79257701Y-67026598D01*
X79086611Y-66999500D01*
X78913389Y-66999500D01*
X78742299Y-67026598D01*
X78742296Y-67026598D01*
X78742295Y-67026599D01*
X78677499Y-67047653D01*
X78577555Y-67080127D01*
X78577553Y-67080127D01*
X78577547Y-67080130D01*
X78423211Y-67158768D01*
X78283069Y-67260587D01*
X78160587Y-67383069D01*
X78058768Y-67523211D01*
X77980130Y-67677547D01*
X77980127Y-67677553D01*
X77980127Y-67677555D01*
X77926598Y-67842299D01*
X77899500Y-68013389D01*
X77599999Y-68013389D01*
X77599999Y-67395805D01*
X77599998Y-67395790D01*
X77597148Y-67365393D01*
X77597147Y-67365390D01*
X77552346Y-67237355D01*
X77552346Y-67237354D01*
X77471792Y-67128207D01*
X77362645Y-67047653D01*
X77234610Y-67002852D01*
X77234605Y-67002851D01*
X77204205Y-67000000D01*
X76750000Y-67000000D01*
X76750000Y-68451517D01*
X76731591Y-68440889D01*
X76578991Y-68400000D01*
X76421009Y-68400000D01*
X76268409Y-68440889D01*
X76250000Y-68451517D01*
X76250000Y-67000000D01*
X75795805Y-67000000D01*
X75795790Y-67000001D01*
X75765393Y-67002851D01*
X75765390Y-67002852D01*
X75637355Y-67047653D01*
X75637354Y-67047653D01*
X75528207Y-67128207D01*
X75447653Y-67237354D01*
X75447653Y-67237355D01*
X75402852Y-67365389D01*
X75402851Y-67365394D01*
X75400000Y-67395794D01*
X75099998Y-67395794D01*
X75099998Y-67395790D01*
X75097148Y-67365393D01*
X75097147Y-67365390D01*
X75052346Y-67237355D01*
X75052346Y-67237354D01*
X74971792Y-67128207D01*
X74862645Y-67047653D01*
X74734610Y-67002852D01*
X74734605Y-67002851D01*
X74704205Y-67000000D01*
X74250000Y-67000000D01*
X74250000Y-68451517D01*
X74231591Y-68440889D01*
X74078991Y-68400000D01*
X73921009Y-68400000D01*
X73768409Y-68440889D01*
X73750000Y-68451517D01*
X73750000Y-67000000D01*
X73295805Y-67000000D01*
X73295790Y-67000001D01*
X73265393Y-67002851D01*
X73265390Y-67002852D01*
X73137355Y-67047653D01*
X73137354Y-67047653D01*
X73028207Y-67128207D01*
X72947653Y-67237354D01*
X72947653Y-67237355D01*
X72902852Y-67365389D01*
X72902851Y-67365394D01*
X72900000Y-67395794D01*
X72348657Y-67395794D01*
X72339412Y-67383069D01*
X72216930Y-67260587D01*
X72076788Y-67158768D01*
X71922452Y-67080130D01*
X71922448Y-67080128D01*
X71922445Y-67080127D01*
X71757701Y-67026598D01*
X71586611Y-66999500D01*
X71413389Y-66999500D01*
X71242299Y-67026598D01*
X71242296Y-67026598D01*
X71242295Y-67026599D01*
X71177499Y-67047653D01*
X71077555Y-67080127D01*
X71077553Y-67080127D01*
X71077547Y-67080130D01*
X70923211Y-67158768D01*
X70783069Y-67260587D01*
X70660587Y-67383069D01*
X70558768Y-67523211D01*
X70480130Y-67677547D01*
X70480127Y-67677553D01*
X70480127Y-67677555D01*
X70426598Y-67842299D01*
X70399500Y-68013389D01*
X49338567Y-68013389D01*
X49335631Y-65335298D01*
X51520000Y-65335298D01*
X51520000Y-65955000D01*
X52136988Y-65955000D01*
X52104075Y-66012007D01*
X52070000Y-66139174D01*
X52070000Y-66270826D01*
X52104075Y-66397993D01*
X52136988Y-66455000D01*
X51520000Y-66455000D01*
X51520000Y-67074701D01*
X51531604Y-67133036D01*
X51575807Y-67199192D01*
X51641963Y-67243395D01*
X51700298Y-67254999D01*
X51700303Y-67255000D01*
X52320000Y-67255000D01*
X52320000Y-66638012D01*
X52377007Y-66670925D01*
X52504174Y-66705000D01*
X52635826Y-66705000D01*
X52762993Y-66670925D01*
X52820000Y-66638012D01*
X52820000Y-67255000D01*
X53439697Y-67255000D01*
X53439701Y-67254999D01*
X53498036Y-67243395D01*
X53564192Y-67199192D01*
X53608395Y-67133036D01*
X53619999Y-67074701D01*
X53620000Y-67074696D01*
X53620000Y-66499999D01*
X92644318Y-66499999D01*
X92644318Y-66500000D01*
X92664955Y-66656760D01*
X92670823Y-66670925D01*
X92725464Y-66802841D01*
X92821718Y-66928282D01*
X92947159Y-67024536D01*
X93093238Y-67085044D01*
X93250000Y-67105682D01*
X93406762Y-67085044D01*
X93552841Y-67024536D01*
X93673296Y-66932108D01*
X93739516Y-66906507D01*
X93809065Y-66920772D01*
X93826704Y-66932108D01*
X93918899Y-67002852D01*
X93947159Y-67024536D01*
X94093238Y-67085044D01*
X94250000Y-67105682D01*
X94406762Y-67085044D01*
X94552841Y-67024536D01*
X94678282Y-66928282D01*
X94774536Y-66802841D01*
X94835044Y-66656762D01*
X94855682Y-66500000D01*
X94835044Y-66343238D01*
X94774536Y-66197159D01*
X94678282Y-66071718D01*
X94552841Y-65975464D01*
X94406762Y-65914956D01*
X94406760Y-65914955D01*
X94250000Y-65894318D01*
X94093239Y-65914955D01*
X93947160Y-65975463D01*
X93947153Y-65975468D01*
X93826703Y-66067892D01*
X93760483Y-66093492D01*
X93690934Y-66079227D01*
X93673297Y-66067892D01*
X93552846Y-65975468D01*
X93552842Y-65975465D01*
X93552841Y-65975464D01*
X93406762Y-65914956D01*
X93406760Y-65914955D01*
X93250000Y-65894318D01*
X93093239Y-65914955D01*
X92947160Y-65975463D01*
X92947157Y-65975465D01*
X92821718Y-66071718D01*
X92725465Y-66197157D01*
X92725463Y-66197160D01*
X92664955Y-66343239D01*
X92644318Y-66499999D01*
X53620000Y-66499999D01*
X53620000Y-66455000D01*
X53003012Y-66455000D01*
X53035925Y-66397993D01*
X53070000Y-66270826D01*
X53070000Y-66139174D01*
X53035925Y-66012007D01*
X53003012Y-65955000D01*
X53620000Y-65955000D01*
X53620000Y-65429997D01*
X97584355Y-65429997D01*
X97584355Y-65430002D01*
X97604859Y-65598871D01*
X97665179Y-65757925D01*
X97665181Y-65757929D01*
X97761816Y-65897928D01*
X97761818Y-65897930D01*
X97849340Y-65975468D01*
X97889148Y-66010734D01*
X98039775Y-66089790D01*
X98039776Y-66089790D01*
X98039778Y-66089791D01*
X98196461Y-66128409D01*
X98204944Y-66130500D01*
X98204947Y-66130500D01*
X98375053Y-66130500D01*
X98375056Y-66130500D01*
X98540225Y-66089790D01*
X98690852Y-66010734D01*
X98818183Y-65897929D01*
X98914818Y-65757930D01*
X98975140Y-65598872D01*
X98995645Y-65430000D01*
X98975140Y-65261128D01*
X98956056Y-65210807D01*
X98914820Y-65102074D01*
X98914818Y-65102070D01*
X98818183Y-64962071D01*
X98818181Y-64962069D01*
X98690857Y-64849270D01*
X98690851Y-64849265D01*
X98540225Y-64770210D01*
X98540221Y-64770208D01*
X98375059Y-64729500D01*
X98375056Y-64729500D01*
X98204944Y-64729500D01*
X98204940Y-64729500D01*
X98039778Y-64770208D01*
X98039774Y-64770210D01*
X97889148Y-64849265D01*
X97889142Y-64849270D01*
X97761818Y-64962069D01*
X97761816Y-64962071D01*
X97665181Y-65102070D01*
X97665179Y-65102074D01*
X97604859Y-65261128D01*
X97584355Y-65429997D01*
X53620000Y-65429997D01*
X53620000Y-65335303D01*
X53619999Y-65335298D01*
X53608395Y-65276963D01*
X53564192Y-65210807D01*
X53498036Y-65166604D01*
X53439701Y-65155000D01*
X52820000Y-65155000D01*
X52820000Y-65771988D01*
X52762993Y-65739075D01*
X52635826Y-65705000D01*
X52504174Y-65705000D01*
X52377007Y-65739075D01*
X52320000Y-65771988D01*
X52320000Y-65155000D01*
X51700298Y-65155000D01*
X51641963Y-65166604D01*
X51575807Y-65210807D01*
X51531604Y-65276963D01*
X51520000Y-65335298D01*
X49335631Y-65335298D01*
X49333799Y-63664996D01*
X51514417Y-63664996D01*
X51514417Y-63665003D01*
X51534698Y-63870927D01*
X51594768Y-64068954D01*
X51691592Y-64250099D01*
X51692315Y-64251450D01*
X51823590Y-64411410D01*
X51983550Y-64542685D01*
X52166046Y-64640232D01*
X52364066Y-64700300D01*
X52364070Y-64700300D01*
X52364072Y-64700301D01*
X52569997Y-64720583D01*
X52570000Y-64720583D01*
X52570003Y-64720583D01*
X52775927Y-64700301D01*
X52775928Y-64700300D01*
X52775934Y-64700300D01*
X52973954Y-64640232D01*
X53156450Y-64542685D01*
X53316410Y-64411410D01*
X53447685Y-64251450D01*
X53545232Y-64068954D01*
X53605300Y-63870934D01*
X53607363Y-63849996D01*
X63104417Y-63849996D01*
X63104417Y-63850003D01*
X63124698Y-64055927D01*
X63184768Y-64253954D01*
X63268930Y-64411410D01*
X63282315Y-64436450D01*
X63413590Y-64596410D01*
X63573550Y-64727685D01*
X63756046Y-64825232D01*
X63954066Y-64885300D01*
X63954070Y-64885300D01*
X63954072Y-64885301D01*
X64159997Y-64905583D01*
X64160000Y-64905583D01*
X64160003Y-64905583D01*
X64365927Y-64885301D01*
X64365928Y-64885300D01*
X64365934Y-64885300D01*
X64563954Y-64825232D01*
X64746450Y-64727685D01*
X64906410Y-64596410D01*
X65037685Y-64436450D01*
X65135232Y-64253954D01*
X65195300Y-64055934D01*
X65206717Y-63940023D01*
X65215583Y-63850003D01*
X65215583Y-63849996D01*
X65195301Y-63644072D01*
X65195300Y-63644070D01*
X65195300Y-63644066D01*
X65135232Y-63446046D01*
X65037685Y-63263550D01*
X64906410Y-63103590D01*
X64756177Y-62980298D01*
X65650000Y-62980298D01*
X65650000Y-63600000D01*
X66266988Y-63600000D01*
X66234075Y-63657007D01*
X66200000Y-63784174D01*
X66200000Y-63915826D01*
X66234075Y-64042993D01*
X66266988Y-64100000D01*
X65650000Y-64100000D01*
X65650000Y-64719701D01*
X65661604Y-64778036D01*
X65705807Y-64844192D01*
X65771963Y-64888395D01*
X65830298Y-64899999D01*
X65830303Y-64900000D01*
X66450000Y-64900000D01*
X66450000Y-64283012D01*
X66507007Y-64315925D01*
X66634174Y-64350000D01*
X66765826Y-64350000D01*
X66892993Y-64315925D01*
X66950000Y-64283012D01*
X66950000Y-64900000D01*
X67569697Y-64900000D01*
X67569701Y-64899999D01*
X67628036Y-64888395D01*
X67694192Y-64844192D01*
X67738395Y-64778036D01*
X67749999Y-64719701D01*
X67750000Y-64719696D01*
X67750000Y-64100000D01*
X67133012Y-64100000D01*
X67165925Y-64042993D01*
X67200000Y-63915826D01*
X67200000Y-63784174D01*
X67165925Y-63657007D01*
X67133012Y-63600000D01*
X67750000Y-63600000D01*
X67750000Y-63361583D01*
X114029500Y-63361583D01*
X114029500Y-63558417D01*
X114060291Y-63752826D01*
X114121116Y-63940025D01*
X114202627Y-64100000D01*
X114210478Y-64115408D01*
X114326173Y-64274648D01*
X114465351Y-64413826D01*
X114465354Y-64413828D01*
X114624595Y-64529524D01*
X114799975Y-64618884D01*
X114987174Y-64679709D01*
X115181583Y-64710500D01*
X115181586Y-64710500D01*
X115378414Y-64710500D01*
X115378417Y-64710500D01*
X115572826Y-64679709D01*
X115760025Y-64618884D01*
X115935405Y-64529524D01*
X116094646Y-64413828D01*
X116233828Y-64274646D01*
X116349524Y-64115405D01*
X116438884Y-63940025D01*
X116499709Y-63752826D01*
X116530500Y-63558417D01*
X116530500Y-63361583D01*
X116499709Y-63167174D01*
X116438884Y-62979975D01*
X116349524Y-62804595D01*
X116233828Y-62645354D01*
X116233826Y-62645351D01*
X116094648Y-62506173D01*
X115935408Y-62390478D01*
X115935407Y-62390477D01*
X115935405Y-62390476D01*
X115760025Y-62301116D01*
X115572826Y-62240291D01*
X115378417Y-62209500D01*
X115181583Y-62209500D01*
X114987174Y-62240291D01*
X114987171Y-62240291D01*
X114987170Y-62240292D01*
X114897354Y-62269475D01*
X114799975Y-62301116D01*
X114799973Y-62301116D01*
X114799973Y-62301117D01*
X114624591Y-62390478D01*
X114465351Y-62506173D01*
X114326173Y-62645351D01*
X114210478Y-62804591D01*
X114210476Y-62804595D01*
X114121116Y-62979975D01*
X114060291Y-63167174D01*
X114029500Y-63361583D01*
X67750000Y-63361583D01*
X67750000Y-62980303D01*
X67749999Y-62980298D01*
X67738395Y-62921963D01*
X67694192Y-62855807D01*
X67628036Y-62811604D01*
X67569701Y-62800000D01*
X66950000Y-62800000D01*
X66950000Y-63416988D01*
X66892993Y-63384075D01*
X66765826Y-63350000D01*
X66634174Y-63350000D01*
X66507007Y-63384075D01*
X66450000Y-63416988D01*
X66450000Y-62800000D01*
X65830298Y-62800000D01*
X65771963Y-62811604D01*
X65705807Y-62855807D01*
X65661604Y-62921963D01*
X65650000Y-62980298D01*
X64756177Y-62980298D01*
X64746450Y-62972315D01*
X64746448Y-62972314D01*
X64746447Y-62972313D01*
X64563954Y-62874768D01*
X64365927Y-62814698D01*
X64160003Y-62794417D01*
X64159997Y-62794417D01*
X63954072Y-62814698D01*
X63756045Y-62874768D01*
X63573552Y-62972313D01*
X63413590Y-63103590D01*
X63282313Y-63263552D01*
X63184768Y-63446045D01*
X63124698Y-63644072D01*
X63104417Y-63849996D01*
X53607363Y-63849996D01*
X53625583Y-63665003D01*
X53625583Y-63664996D01*
X53605301Y-63459072D01*
X53605300Y-63459070D01*
X53605300Y-63459066D01*
X53545232Y-63261046D01*
X53447685Y-63078550D01*
X53316410Y-62918590D01*
X53156450Y-62787315D01*
X53156448Y-62787314D01*
X53156447Y-62787313D01*
X52973954Y-62689768D01*
X52775927Y-62629698D01*
X52570003Y-62609417D01*
X52569997Y-62609417D01*
X52364072Y-62629698D01*
X52166045Y-62689768D01*
X51983552Y-62787313D01*
X51823590Y-62918590D01*
X51692313Y-63078552D01*
X51594768Y-63261045D01*
X51534698Y-63459072D01*
X51514417Y-63664996D01*
X49333799Y-63664996D01*
X49331951Y-61979999D01*
X95144318Y-61979999D01*
X95144318Y-61980000D01*
X95164955Y-62136760D01*
X95207840Y-62240292D01*
X95225464Y-62282841D01*
X95321718Y-62408282D01*
X95447159Y-62504536D01*
X95593238Y-62565044D01*
X95750000Y-62585682D01*
X95906762Y-62565044D01*
X96052841Y-62504536D01*
X96178282Y-62408282D01*
X96274536Y-62282841D01*
X96335044Y-62136762D01*
X96355682Y-61980000D01*
X96355682Y-61979999D01*
X96644318Y-61979999D01*
X96644318Y-61980000D01*
X96664955Y-62136760D01*
X96707840Y-62240292D01*
X96725464Y-62282841D01*
X96821718Y-62408282D01*
X96947159Y-62504536D01*
X97093238Y-62565044D01*
X97250000Y-62585682D01*
X97406762Y-62565044D01*
X97552841Y-62504536D01*
X97678282Y-62408282D01*
X97774536Y-62282841D01*
X97835044Y-62136762D01*
X97855682Y-61980000D01*
X97835044Y-61823238D01*
X97774536Y-61677159D01*
X97678282Y-61551718D01*
X97552841Y-61455464D01*
X97406762Y-61394956D01*
X97406760Y-61394955D01*
X97250000Y-61374318D01*
X97093239Y-61394955D01*
X96947160Y-61455463D01*
X96947157Y-61455465D01*
X96821718Y-61551718D01*
X96725465Y-61677157D01*
X96725463Y-61677160D01*
X96664955Y-61823239D01*
X96644318Y-61979999D01*
X96355682Y-61979999D01*
X96335044Y-61823238D01*
X96274536Y-61677159D01*
X96178282Y-61551718D01*
X96052841Y-61455464D01*
X95906762Y-61394956D01*
X95906760Y-61394955D01*
X95750000Y-61374318D01*
X95593239Y-61394955D01*
X95447160Y-61455463D01*
X95447157Y-61455465D01*
X95321718Y-61551718D01*
X95225465Y-61677157D01*
X95225463Y-61677160D01*
X95164955Y-61823239D01*
X95144318Y-61979999D01*
X49331951Y-61979999D01*
X49330138Y-60326136D01*
X49350065Y-60257996D01*
X49403670Y-60211444D01*
X49456138Y-60200000D01*
X130534000Y-60200000D01*
X130602121Y-60220002D01*
G37*
%TD.AperFunction*%
%TD*%
M02*
