%TF.GenerationSoftware,KiCad,Pcbnew,8.0.9*%
%TF.CreationDate,2025-09-11T17:56:39-04:00*%
%TF.ProjectId,SignalSlinger,5369676e-616c-4536-9c69-6e6765722e6b,rev?*%
%TF.SameCoordinates,Original*%
%TF.FileFunction,Drillmap*%
%TF.FilePolarity,Positive*%
%FSLAX45Y45*%
G04 Gerber Fmt 4.5, Leading zero omitted, Abs format (unit mm)*
G04 Created by KiCad (PCBNEW 8.0.9) date 2025-09-11 17:56:39*
%MOMM*%
%LPD*%
G01*
G04 APERTURE LIST*
%ADD10C,0.100000*%
%ADD11C,0.200000*%
%ADD12C,0.350000*%
G04 APERTURE END LIST*
D10*
X4883240Y-5988500D02*
X13107760Y-5988500D01*
X4600000Y-10989760D02*
X4883240Y-10989760D01*
X4600000Y-6892740D02*
X4883240Y-6892740D01*
X13107760Y-11894000D02*
X4883240Y-11894000D01*
X13107760Y-10989760D02*
X14012000Y-10989760D01*
X13107760Y-11894000D02*
X13107760Y-10989760D01*
X4883240Y-10989760D02*
X4883240Y-11894000D01*
X14012000Y-6892740D02*
X14012000Y-10989760D01*
X4600000Y-6892740D02*
X4600000Y-10989760D01*
X13107760Y-6892740D02*
X14012000Y-6892740D01*
X4883240Y-6892740D02*
X4883240Y-5988500D01*
X13107760Y-5988500D02*
X13107760Y-6892740D01*
D11*
D10*
X8181500Y-11444000D02*
X8256500Y-11519000D01*
X8256500Y-11444000D02*
X8181500Y-11519000D01*
X8181500Y-11719000D02*
X8256500Y-11794000D01*
X8256500Y-11719000D02*
X8181500Y-11794000D01*
D11*
X7345000Y-6250000D02*
G75*
G02*
X7145000Y-6250000I-100000J0D01*
G01*
X7145000Y-6250000D02*
G75*
G02*
X7345000Y-6250000I100000J0D01*
G01*
X7706000Y-6250000D02*
G75*
G02*
X7506000Y-6250000I-100000J0D01*
G01*
X7506000Y-6250000D02*
G75*
G02*
X7706000Y-6250000I100000J0D01*
G01*
X11628000Y-6346000D02*
G75*
G02*
X11428000Y-6346000I-100000J0D01*
G01*
X11428000Y-6346000D02*
G75*
G02*
X11628000Y-6346000I100000J0D01*
G01*
D12*
X10558000Y-7935000D02*
X10558000Y-8285000D01*
X10383000Y-8110000D02*
X10733000Y-8110000D01*
D11*
X4855777Y-12210484D02*
X4855777Y-12010484D01*
X4855777Y-12010484D02*
X4903396Y-12010484D01*
X4903396Y-12010484D02*
X4931967Y-12020008D01*
X4931967Y-12020008D02*
X4951015Y-12039055D01*
X4951015Y-12039055D02*
X4960539Y-12058103D01*
X4960539Y-12058103D02*
X4970063Y-12096198D01*
X4970063Y-12096198D02*
X4970063Y-12124769D01*
X4970063Y-12124769D02*
X4960539Y-12162865D01*
X4960539Y-12162865D02*
X4951015Y-12181912D01*
X4951015Y-12181912D02*
X4931967Y-12200960D01*
X4931967Y-12200960D02*
X4903396Y-12210484D01*
X4903396Y-12210484D02*
X4855777Y-12210484D01*
X5055777Y-12210484D02*
X5055777Y-12077150D01*
X5055777Y-12115246D02*
X5065301Y-12096198D01*
X5065301Y-12096198D02*
X5074824Y-12086674D01*
X5074824Y-12086674D02*
X5093872Y-12077150D01*
X5093872Y-12077150D02*
X5112920Y-12077150D01*
X5179586Y-12210484D02*
X5179586Y-12077150D01*
X5179586Y-12010484D02*
X5170063Y-12020008D01*
X5170063Y-12020008D02*
X5179586Y-12029531D01*
X5179586Y-12029531D02*
X5189110Y-12020008D01*
X5189110Y-12020008D02*
X5179586Y-12010484D01*
X5179586Y-12010484D02*
X5179586Y-12029531D01*
X5303396Y-12210484D02*
X5284348Y-12200960D01*
X5284348Y-12200960D02*
X5274824Y-12181912D01*
X5274824Y-12181912D02*
X5274824Y-12010484D01*
X5408158Y-12210484D02*
X5389110Y-12200960D01*
X5389110Y-12200960D02*
X5379586Y-12181912D01*
X5379586Y-12181912D02*
X5379586Y-12010484D01*
X5636729Y-12210484D02*
X5636729Y-12010484D01*
X5636729Y-12010484D02*
X5703396Y-12153341D01*
X5703396Y-12153341D02*
X5770062Y-12010484D01*
X5770062Y-12010484D02*
X5770062Y-12210484D01*
X5951015Y-12210484D02*
X5951015Y-12105722D01*
X5951015Y-12105722D02*
X5941491Y-12086674D01*
X5941491Y-12086674D02*
X5922443Y-12077150D01*
X5922443Y-12077150D02*
X5884348Y-12077150D01*
X5884348Y-12077150D02*
X5865301Y-12086674D01*
X5951015Y-12200960D02*
X5931967Y-12210484D01*
X5931967Y-12210484D02*
X5884348Y-12210484D01*
X5884348Y-12210484D02*
X5865301Y-12200960D01*
X5865301Y-12200960D02*
X5855777Y-12181912D01*
X5855777Y-12181912D02*
X5855777Y-12162865D01*
X5855777Y-12162865D02*
X5865301Y-12143817D01*
X5865301Y-12143817D02*
X5884348Y-12134293D01*
X5884348Y-12134293D02*
X5931967Y-12134293D01*
X5931967Y-12134293D02*
X5951015Y-12124769D01*
X6046253Y-12077150D02*
X6046253Y-12277150D01*
X6046253Y-12086674D02*
X6065301Y-12077150D01*
X6065301Y-12077150D02*
X6103396Y-12077150D01*
X6103396Y-12077150D02*
X6122443Y-12086674D01*
X6122443Y-12086674D02*
X6131967Y-12096198D01*
X6131967Y-12096198D02*
X6141491Y-12115246D01*
X6141491Y-12115246D02*
X6141491Y-12172388D01*
X6141491Y-12172388D02*
X6131967Y-12191436D01*
X6131967Y-12191436D02*
X6122443Y-12200960D01*
X6122443Y-12200960D02*
X6103396Y-12210484D01*
X6103396Y-12210484D02*
X6065301Y-12210484D01*
X6065301Y-12210484D02*
X6046253Y-12200960D01*
X6227205Y-12191436D02*
X6236729Y-12200960D01*
X6236729Y-12200960D02*
X6227205Y-12210484D01*
X6227205Y-12210484D02*
X6217682Y-12200960D01*
X6217682Y-12200960D02*
X6227205Y-12191436D01*
X6227205Y-12191436D02*
X6227205Y-12210484D01*
X6227205Y-12086674D02*
X6236729Y-12096198D01*
X6236729Y-12096198D02*
X6227205Y-12105722D01*
X6227205Y-12105722D02*
X6217682Y-12096198D01*
X6217682Y-12096198D02*
X6227205Y-12086674D01*
X6227205Y-12086674D02*
X6227205Y-12105722D01*
D10*
X4520000Y-12501500D02*
X4595000Y-12576500D01*
X4595000Y-12501500D02*
X4520000Y-12576500D01*
D11*
X4893872Y-12430484D02*
X4912920Y-12430484D01*
X4912920Y-12430484D02*
X4931967Y-12440008D01*
X4931967Y-12440008D02*
X4941491Y-12449531D01*
X4941491Y-12449531D02*
X4951015Y-12468579D01*
X4951015Y-12468579D02*
X4960539Y-12506674D01*
X4960539Y-12506674D02*
X4960539Y-12554293D01*
X4960539Y-12554293D02*
X4951015Y-12592388D01*
X4951015Y-12592388D02*
X4941491Y-12611436D01*
X4941491Y-12611436D02*
X4931967Y-12620960D01*
X4931967Y-12620960D02*
X4912920Y-12630484D01*
X4912920Y-12630484D02*
X4893872Y-12630484D01*
X4893872Y-12630484D02*
X4874824Y-12620960D01*
X4874824Y-12620960D02*
X4865301Y-12611436D01*
X4865301Y-12611436D02*
X4855777Y-12592388D01*
X4855777Y-12592388D02*
X4846253Y-12554293D01*
X4846253Y-12554293D02*
X4846253Y-12506674D01*
X4846253Y-12506674D02*
X4855777Y-12468579D01*
X4855777Y-12468579D02*
X4865301Y-12449531D01*
X4865301Y-12449531D02*
X4874824Y-12440008D01*
X4874824Y-12440008D02*
X4893872Y-12430484D01*
X5046253Y-12611436D02*
X5055777Y-12620960D01*
X5055777Y-12620960D02*
X5046253Y-12630484D01*
X5046253Y-12630484D02*
X5036729Y-12620960D01*
X5036729Y-12620960D02*
X5046253Y-12611436D01*
X5046253Y-12611436D02*
X5046253Y-12630484D01*
X5122444Y-12430484D02*
X5255777Y-12430484D01*
X5255777Y-12430484D02*
X5170063Y-12630484D01*
X5427205Y-12430484D02*
X5331967Y-12430484D01*
X5331967Y-12430484D02*
X5322444Y-12525722D01*
X5322444Y-12525722D02*
X5331967Y-12516198D01*
X5331967Y-12516198D02*
X5351015Y-12506674D01*
X5351015Y-12506674D02*
X5398634Y-12506674D01*
X5398634Y-12506674D02*
X5417682Y-12516198D01*
X5417682Y-12516198D02*
X5427205Y-12525722D01*
X5427205Y-12525722D02*
X5436729Y-12544769D01*
X5436729Y-12544769D02*
X5436729Y-12592388D01*
X5436729Y-12592388D02*
X5427205Y-12611436D01*
X5427205Y-12611436D02*
X5417682Y-12620960D01*
X5417682Y-12620960D02*
X5398634Y-12630484D01*
X5398634Y-12630484D02*
X5351015Y-12630484D01*
X5351015Y-12630484D02*
X5331967Y-12620960D01*
X5331967Y-12620960D02*
X5322444Y-12611436D01*
X5560539Y-12430484D02*
X5579586Y-12430484D01*
X5579586Y-12430484D02*
X5598634Y-12440008D01*
X5598634Y-12440008D02*
X5608158Y-12449531D01*
X5608158Y-12449531D02*
X5617682Y-12468579D01*
X5617682Y-12468579D02*
X5627205Y-12506674D01*
X5627205Y-12506674D02*
X5627205Y-12554293D01*
X5627205Y-12554293D02*
X5617682Y-12592388D01*
X5617682Y-12592388D02*
X5608158Y-12611436D01*
X5608158Y-12611436D02*
X5598634Y-12620960D01*
X5598634Y-12620960D02*
X5579586Y-12630484D01*
X5579586Y-12630484D02*
X5560539Y-12630484D01*
X5560539Y-12630484D02*
X5541491Y-12620960D01*
X5541491Y-12620960D02*
X5531967Y-12611436D01*
X5531967Y-12611436D02*
X5522444Y-12592388D01*
X5522444Y-12592388D02*
X5512920Y-12554293D01*
X5512920Y-12554293D02*
X5512920Y-12506674D01*
X5512920Y-12506674D02*
X5522444Y-12468579D01*
X5522444Y-12468579D02*
X5531967Y-12449531D01*
X5531967Y-12449531D02*
X5541491Y-12440008D01*
X5541491Y-12440008D02*
X5560539Y-12430484D01*
X5712920Y-12630484D02*
X5712920Y-12497150D01*
X5712920Y-12516198D02*
X5722443Y-12506674D01*
X5722443Y-12506674D02*
X5741491Y-12497150D01*
X5741491Y-12497150D02*
X5770063Y-12497150D01*
X5770063Y-12497150D02*
X5789110Y-12506674D01*
X5789110Y-12506674D02*
X5798634Y-12525722D01*
X5798634Y-12525722D02*
X5798634Y-12630484D01*
X5798634Y-12525722D02*
X5808158Y-12506674D01*
X5808158Y-12506674D02*
X5827205Y-12497150D01*
X5827205Y-12497150D02*
X5855777Y-12497150D01*
X5855777Y-12497150D02*
X5874824Y-12506674D01*
X5874824Y-12506674D02*
X5884348Y-12525722D01*
X5884348Y-12525722D02*
X5884348Y-12630484D01*
X5979586Y-12630484D02*
X5979586Y-12497150D01*
X5979586Y-12516198D02*
X5989110Y-12506674D01*
X5989110Y-12506674D02*
X6008158Y-12497150D01*
X6008158Y-12497150D02*
X6036729Y-12497150D01*
X6036729Y-12497150D02*
X6055777Y-12506674D01*
X6055777Y-12506674D02*
X6065301Y-12525722D01*
X6065301Y-12525722D02*
X6065301Y-12630484D01*
X6065301Y-12525722D02*
X6074824Y-12506674D01*
X6074824Y-12506674D02*
X6093872Y-12497150D01*
X6093872Y-12497150D02*
X6122443Y-12497150D01*
X6122443Y-12497150D02*
X6141491Y-12506674D01*
X6141491Y-12506674D02*
X6151015Y-12525722D01*
X6151015Y-12525722D02*
X6151015Y-12630484D01*
X6541491Y-12420960D02*
X6370063Y-12678103D01*
X6798634Y-12430484D02*
X6817682Y-12430484D01*
X6817682Y-12430484D02*
X6836729Y-12440008D01*
X6836729Y-12440008D02*
X6846253Y-12449531D01*
X6846253Y-12449531D02*
X6855777Y-12468579D01*
X6855777Y-12468579D02*
X6865301Y-12506674D01*
X6865301Y-12506674D02*
X6865301Y-12554293D01*
X6865301Y-12554293D02*
X6855777Y-12592388D01*
X6855777Y-12592388D02*
X6846253Y-12611436D01*
X6846253Y-12611436D02*
X6836729Y-12620960D01*
X6836729Y-12620960D02*
X6817682Y-12630484D01*
X6817682Y-12630484D02*
X6798634Y-12630484D01*
X6798634Y-12630484D02*
X6779586Y-12620960D01*
X6779586Y-12620960D02*
X6770063Y-12611436D01*
X6770063Y-12611436D02*
X6760539Y-12592388D01*
X6760539Y-12592388D02*
X6751015Y-12554293D01*
X6751015Y-12554293D02*
X6751015Y-12506674D01*
X6751015Y-12506674D02*
X6760539Y-12468579D01*
X6760539Y-12468579D02*
X6770063Y-12449531D01*
X6770063Y-12449531D02*
X6779586Y-12440008D01*
X6779586Y-12440008D02*
X6798634Y-12430484D01*
X6951015Y-12611436D02*
X6960539Y-12620960D01*
X6960539Y-12620960D02*
X6951015Y-12630484D01*
X6951015Y-12630484D02*
X6941491Y-12620960D01*
X6941491Y-12620960D02*
X6951015Y-12611436D01*
X6951015Y-12611436D02*
X6951015Y-12630484D01*
X7084348Y-12430484D02*
X7103396Y-12430484D01*
X7103396Y-12430484D02*
X7122444Y-12440008D01*
X7122444Y-12440008D02*
X7131967Y-12449531D01*
X7131967Y-12449531D02*
X7141491Y-12468579D01*
X7141491Y-12468579D02*
X7151015Y-12506674D01*
X7151015Y-12506674D02*
X7151015Y-12554293D01*
X7151015Y-12554293D02*
X7141491Y-12592388D01*
X7141491Y-12592388D02*
X7131967Y-12611436D01*
X7131967Y-12611436D02*
X7122444Y-12620960D01*
X7122444Y-12620960D02*
X7103396Y-12630484D01*
X7103396Y-12630484D02*
X7084348Y-12630484D01*
X7084348Y-12630484D02*
X7065301Y-12620960D01*
X7065301Y-12620960D02*
X7055777Y-12611436D01*
X7055777Y-12611436D02*
X7046253Y-12592388D01*
X7046253Y-12592388D02*
X7036729Y-12554293D01*
X7036729Y-12554293D02*
X7036729Y-12506674D01*
X7036729Y-12506674D02*
X7046253Y-12468579D01*
X7046253Y-12468579D02*
X7055777Y-12449531D01*
X7055777Y-12449531D02*
X7065301Y-12440008D01*
X7065301Y-12440008D02*
X7084348Y-12430484D01*
X7227206Y-12449531D02*
X7236729Y-12440008D01*
X7236729Y-12440008D02*
X7255777Y-12430484D01*
X7255777Y-12430484D02*
X7303396Y-12430484D01*
X7303396Y-12430484D02*
X7322444Y-12440008D01*
X7322444Y-12440008D02*
X7331967Y-12449531D01*
X7331967Y-12449531D02*
X7341491Y-12468579D01*
X7341491Y-12468579D02*
X7341491Y-12487627D01*
X7341491Y-12487627D02*
X7331967Y-12516198D01*
X7331967Y-12516198D02*
X7217682Y-12630484D01*
X7217682Y-12630484D02*
X7341491Y-12630484D01*
X7436729Y-12630484D02*
X7474825Y-12630484D01*
X7474825Y-12630484D02*
X7493872Y-12620960D01*
X7493872Y-12620960D02*
X7503396Y-12611436D01*
X7503396Y-12611436D02*
X7522444Y-12582865D01*
X7522444Y-12582865D02*
X7531967Y-12544769D01*
X7531967Y-12544769D02*
X7531967Y-12468579D01*
X7531967Y-12468579D02*
X7522444Y-12449531D01*
X7522444Y-12449531D02*
X7512920Y-12440008D01*
X7512920Y-12440008D02*
X7493872Y-12430484D01*
X7493872Y-12430484D02*
X7455777Y-12430484D01*
X7455777Y-12430484D02*
X7436729Y-12440008D01*
X7436729Y-12440008D02*
X7427206Y-12449531D01*
X7427206Y-12449531D02*
X7417682Y-12468579D01*
X7417682Y-12468579D02*
X7417682Y-12516198D01*
X7417682Y-12516198D02*
X7427206Y-12535246D01*
X7427206Y-12535246D02*
X7436729Y-12544769D01*
X7436729Y-12544769D02*
X7455777Y-12554293D01*
X7455777Y-12554293D02*
X7493872Y-12554293D01*
X7493872Y-12554293D02*
X7512920Y-12544769D01*
X7512920Y-12544769D02*
X7522444Y-12535246D01*
X7522444Y-12535246D02*
X7531967Y-12516198D01*
X7712920Y-12430484D02*
X7617682Y-12430484D01*
X7617682Y-12430484D02*
X7608158Y-12525722D01*
X7608158Y-12525722D02*
X7617682Y-12516198D01*
X7617682Y-12516198D02*
X7636729Y-12506674D01*
X7636729Y-12506674D02*
X7684348Y-12506674D01*
X7684348Y-12506674D02*
X7703396Y-12516198D01*
X7703396Y-12516198D02*
X7712920Y-12525722D01*
X7712920Y-12525722D02*
X7722444Y-12544769D01*
X7722444Y-12544769D02*
X7722444Y-12592388D01*
X7722444Y-12592388D02*
X7712920Y-12611436D01*
X7712920Y-12611436D02*
X7703396Y-12620960D01*
X7703396Y-12620960D02*
X7684348Y-12630484D01*
X7684348Y-12630484D02*
X7636729Y-12630484D01*
X7636729Y-12630484D02*
X7617682Y-12620960D01*
X7617682Y-12620960D02*
X7608158Y-12611436D01*
X7798634Y-12430484D02*
X7798634Y-12468579D01*
X7874825Y-12430484D02*
X7874825Y-12468579D01*
X8170063Y-12706674D02*
X8160539Y-12697150D01*
X8160539Y-12697150D02*
X8141491Y-12668579D01*
X8141491Y-12668579D02*
X8131968Y-12649531D01*
X8131968Y-12649531D02*
X8122444Y-12620960D01*
X8122444Y-12620960D02*
X8112920Y-12573341D01*
X8112920Y-12573341D02*
X8112920Y-12535246D01*
X8112920Y-12535246D02*
X8122444Y-12487627D01*
X8122444Y-12487627D02*
X8131968Y-12459055D01*
X8131968Y-12459055D02*
X8141491Y-12440008D01*
X8141491Y-12440008D02*
X8160539Y-12411436D01*
X8160539Y-12411436D02*
X8170063Y-12401912D01*
X8236729Y-12449531D02*
X8246253Y-12440008D01*
X8246253Y-12440008D02*
X8265301Y-12430484D01*
X8265301Y-12430484D02*
X8312920Y-12430484D01*
X8312920Y-12430484D02*
X8331968Y-12440008D01*
X8331968Y-12440008D02*
X8341491Y-12449531D01*
X8341491Y-12449531D02*
X8351015Y-12468579D01*
X8351015Y-12468579D02*
X8351015Y-12487627D01*
X8351015Y-12487627D02*
X8341491Y-12516198D01*
X8341491Y-12516198D02*
X8227206Y-12630484D01*
X8227206Y-12630484D02*
X8351015Y-12630484D01*
X8589111Y-12630484D02*
X8589111Y-12430484D01*
X8674825Y-12630484D02*
X8674825Y-12525722D01*
X8674825Y-12525722D02*
X8665301Y-12506674D01*
X8665301Y-12506674D02*
X8646253Y-12497150D01*
X8646253Y-12497150D02*
X8617682Y-12497150D01*
X8617682Y-12497150D02*
X8598634Y-12506674D01*
X8598634Y-12506674D02*
X8589111Y-12516198D01*
X8798634Y-12630484D02*
X8779587Y-12620960D01*
X8779587Y-12620960D02*
X8770063Y-12611436D01*
X8770063Y-12611436D02*
X8760539Y-12592388D01*
X8760539Y-12592388D02*
X8760539Y-12535246D01*
X8760539Y-12535246D02*
X8770063Y-12516198D01*
X8770063Y-12516198D02*
X8779587Y-12506674D01*
X8779587Y-12506674D02*
X8798634Y-12497150D01*
X8798634Y-12497150D02*
X8827206Y-12497150D01*
X8827206Y-12497150D02*
X8846253Y-12506674D01*
X8846253Y-12506674D02*
X8855777Y-12516198D01*
X8855777Y-12516198D02*
X8865301Y-12535246D01*
X8865301Y-12535246D02*
X8865301Y-12592388D01*
X8865301Y-12592388D02*
X8855777Y-12611436D01*
X8855777Y-12611436D02*
X8846253Y-12620960D01*
X8846253Y-12620960D02*
X8827206Y-12630484D01*
X8827206Y-12630484D02*
X8798634Y-12630484D01*
X8979587Y-12630484D02*
X8960539Y-12620960D01*
X8960539Y-12620960D02*
X8951015Y-12601912D01*
X8951015Y-12601912D02*
X8951015Y-12430484D01*
X9131968Y-12620960D02*
X9112920Y-12630484D01*
X9112920Y-12630484D02*
X9074825Y-12630484D01*
X9074825Y-12630484D02*
X9055777Y-12620960D01*
X9055777Y-12620960D02*
X9046253Y-12601912D01*
X9046253Y-12601912D02*
X9046253Y-12525722D01*
X9046253Y-12525722D02*
X9055777Y-12506674D01*
X9055777Y-12506674D02*
X9074825Y-12497150D01*
X9074825Y-12497150D02*
X9112920Y-12497150D01*
X9112920Y-12497150D02*
X9131968Y-12506674D01*
X9131968Y-12506674D02*
X9141492Y-12525722D01*
X9141492Y-12525722D02*
X9141492Y-12544769D01*
X9141492Y-12544769D02*
X9046253Y-12563817D01*
X9217682Y-12620960D02*
X9236730Y-12630484D01*
X9236730Y-12630484D02*
X9274825Y-12630484D01*
X9274825Y-12630484D02*
X9293873Y-12620960D01*
X9293873Y-12620960D02*
X9303396Y-12601912D01*
X9303396Y-12601912D02*
X9303396Y-12592388D01*
X9303396Y-12592388D02*
X9293873Y-12573341D01*
X9293873Y-12573341D02*
X9274825Y-12563817D01*
X9274825Y-12563817D02*
X9246253Y-12563817D01*
X9246253Y-12563817D02*
X9227206Y-12554293D01*
X9227206Y-12554293D02*
X9217682Y-12535246D01*
X9217682Y-12535246D02*
X9217682Y-12525722D01*
X9217682Y-12525722D02*
X9227206Y-12506674D01*
X9227206Y-12506674D02*
X9246253Y-12497150D01*
X9246253Y-12497150D02*
X9274825Y-12497150D01*
X9274825Y-12497150D02*
X9293873Y-12506674D01*
X9370063Y-12706674D02*
X9379587Y-12697150D01*
X9379587Y-12697150D02*
X9398634Y-12668579D01*
X9398634Y-12668579D02*
X9408158Y-12649531D01*
X9408158Y-12649531D02*
X9417682Y-12620960D01*
X9417682Y-12620960D02*
X9427206Y-12573341D01*
X9427206Y-12573341D02*
X9427206Y-12535246D01*
X9427206Y-12535246D02*
X9417682Y-12487627D01*
X9417682Y-12487627D02*
X9408158Y-12459055D01*
X9408158Y-12459055D02*
X9398634Y-12440008D01*
X9398634Y-12440008D02*
X9379587Y-12411436D01*
X9379587Y-12411436D02*
X9370063Y-12401912D01*
X9731968Y-12706674D02*
X9722444Y-12697150D01*
X9722444Y-12697150D02*
X9703396Y-12668579D01*
X9703396Y-12668579D02*
X9693873Y-12649531D01*
X9693873Y-12649531D02*
X9684349Y-12620960D01*
X9684349Y-12620960D02*
X9674825Y-12573341D01*
X9674825Y-12573341D02*
X9674825Y-12535246D01*
X9674825Y-12535246D02*
X9684349Y-12487627D01*
X9684349Y-12487627D02*
X9693873Y-12459055D01*
X9693873Y-12459055D02*
X9703396Y-12440008D01*
X9703396Y-12440008D02*
X9722444Y-12411436D01*
X9722444Y-12411436D02*
X9731968Y-12401912D01*
X9808158Y-12497150D02*
X9808158Y-12630484D01*
X9808158Y-12516198D02*
X9817682Y-12506674D01*
X9817682Y-12506674D02*
X9836730Y-12497150D01*
X9836730Y-12497150D02*
X9865301Y-12497150D01*
X9865301Y-12497150D02*
X9884349Y-12506674D01*
X9884349Y-12506674D02*
X9893873Y-12525722D01*
X9893873Y-12525722D02*
X9893873Y-12630484D01*
X10017682Y-12630484D02*
X9998634Y-12620960D01*
X9998634Y-12620960D02*
X9989111Y-12611436D01*
X9989111Y-12611436D02*
X9979587Y-12592388D01*
X9979587Y-12592388D02*
X9979587Y-12535246D01*
X9979587Y-12535246D02*
X9989111Y-12516198D01*
X9989111Y-12516198D02*
X9998634Y-12506674D01*
X9998634Y-12506674D02*
X10017682Y-12497150D01*
X10017682Y-12497150D02*
X10046254Y-12497150D01*
X10046254Y-12497150D02*
X10065301Y-12506674D01*
X10065301Y-12506674D02*
X10074825Y-12516198D01*
X10074825Y-12516198D02*
X10084349Y-12535246D01*
X10084349Y-12535246D02*
X10084349Y-12592388D01*
X10084349Y-12592388D02*
X10074825Y-12611436D01*
X10074825Y-12611436D02*
X10065301Y-12620960D01*
X10065301Y-12620960D02*
X10046254Y-12630484D01*
X10046254Y-12630484D02*
X10017682Y-12630484D01*
X10141492Y-12497150D02*
X10217682Y-12497150D01*
X10170063Y-12430484D02*
X10170063Y-12601912D01*
X10170063Y-12601912D02*
X10179587Y-12620960D01*
X10179587Y-12620960D02*
X10198634Y-12630484D01*
X10198634Y-12630484D02*
X10217682Y-12630484D01*
X10436730Y-12497150D02*
X10436730Y-12697150D01*
X10436730Y-12506674D02*
X10455777Y-12497150D01*
X10455777Y-12497150D02*
X10493873Y-12497150D01*
X10493873Y-12497150D02*
X10512920Y-12506674D01*
X10512920Y-12506674D02*
X10522444Y-12516198D01*
X10522444Y-12516198D02*
X10531968Y-12535246D01*
X10531968Y-12535246D02*
X10531968Y-12592388D01*
X10531968Y-12592388D02*
X10522444Y-12611436D01*
X10522444Y-12611436D02*
X10512920Y-12620960D01*
X10512920Y-12620960D02*
X10493873Y-12630484D01*
X10493873Y-12630484D02*
X10455777Y-12630484D01*
X10455777Y-12630484D02*
X10436730Y-12620960D01*
X10646254Y-12630484D02*
X10627206Y-12620960D01*
X10627206Y-12620960D02*
X10617682Y-12601912D01*
X10617682Y-12601912D02*
X10617682Y-12430484D01*
X10808158Y-12630484D02*
X10808158Y-12525722D01*
X10808158Y-12525722D02*
X10798635Y-12506674D01*
X10798635Y-12506674D02*
X10779587Y-12497150D01*
X10779587Y-12497150D02*
X10741492Y-12497150D01*
X10741492Y-12497150D02*
X10722444Y-12506674D01*
X10808158Y-12620960D02*
X10789111Y-12630484D01*
X10789111Y-12630484D02*
X10741492Y-12630484D01*
X10741492Y-12630484D02*
X10722444Y-12620960D01*
X10722444Y-12620960D02*
X10712920Y-12601912D01*
X10712920Y-12601912D02*
X10712920Y-12582865D01*
X10712920Y-12582865D02*
X10722444Y-12563817D01*
X10722444Y-12563817D02*
X10741492Y-12554293D01*
X10741492Y-12554293D02*
X10789111Y-12554293D01*
X10789111Y-12554293D02*
X10808158Y-12544769D01*
X10874825Y-12497150D02*
X10951015Y-12497150D01*
X10903396Y-12430484D02*
X10903396Y-12601912D01*
X10903396Y-12601912D02*
X10912920Y-12620960D01*
X10912920Y-12620960D02*
X10931968Y-12630484D01*
X10931968Y-12630484D02*
X10951015Y-12630484D01*
X11093873Y-12620960D02*
X11074825Y-12630484D01*
X11074825Y-12630484D02*
X11036730Y-12630484D01*
X11036730Y-12630484D02*
X11017682Y-12620960D01*
X11017682Y-12620960D02*
X11008158Y-12601912D01*
X11008158Y-12601912D02*
X11008158Y-12525722D01*
X11008158Y-12525722D02*
X11017682Y-12506674D01*
X11017682Y-12506674D02*
X11036730Y-12497150D01*
X11036730Y-12497150D02*
X11074825Y-12497150D01*
X11074825Y-12497150D02*
X11093873Y-12506674D01*
X11093873Y-12506674D02*
X11103396Y-12525722D01*
X11103396Y-12525722D02*
X11103396Y-12544769D01*
X11103396Y-12544769D02*
X11008158Y-12563817D01*
X11274825Y-12630484D02*
X11274825Y-12430484D01*
X11274825Y-12620960D02*
X11255777Y-12630484D01*
X11255777Y-12630484D02*
X11217682Y-12630484D01*
X11217682Y-12630484D02*
X11198634Y-12620960D01*
X11198634Y-12620960D02*
X11189111Y-12611436D01*
X11189111Y-12611436D02*
X11179587Y-12592388D01*
X11179587Y-12592388D02*
X11179587Y-12535246D01*
X11179587Y-12535246D02*
X11189111Y-12516198D01*
X11189111Y-12516198D02*
X11198634Y-12506674D01*
X11198634Y-12506674D02*
X11217682Y-12497150D01*
X11217682Y-12497150D02*
X11255777Y-12497150D01*
X11255777Y-12497150D02*
X11274825Y-12506674D01*
X11351015Y-12706674D02*
X11360539Y-12697150D01*
X11360539Y-12697150D02*
X11379587Y-12668579D01*
X11379587Y-12668579D02*
X11389111Y-12649531D01*
X11389111Y-12649531D02*
X11398634Y-12620960D01*
X11398634Y-12620960D02*
X11408158Y-12573341D01*
X11408158Y-12573341D02*
X11408158Y-12535246D01*
X11408158Y-12535246D02*
X11398634Y-12487627D01*
X11398634Y-12487627D02*
X11389111Y-12459055D01*
X11389111Y-12459055D02*
X11379587Y-12440008D01*
X11379587Y-12440008D02*
X11360539Y-12411436D01*
X11360539Y-12411436D02*
X11351015Y-12401912D01*
X4595000Y-12803000D02*
G75*
G02*
X4395000Y-12803000I-100000J0D01*
G01*
X4395000Y-12803000D02*
G75*
G02*
X4595000Y-12803000I100000J0D01*
G01*
X4846253Y-12713531D02*
X4855777Y-12704008D01*
X4855777Y-12704008D02*
X4874824Y-12694484D01*
X4874824Y-12694484D02*
X4922444Y-12694484D01*
X4922444Y-12694484D02*
X4941491Y-12704008D01*
X4941491Y-12704008D02*
X4951015Y-12713531D01*
X4951015Y-12713531D02*
X4960539Y-12732579D01*
X4960539Y-12732579D02*
X4960539Y-12751627D01*
X4960539Y-12751627D02*
X4951015Y-12780198D01*
X4951015Y-12780198D02*
X4836729Y-12894484D01*
X4836729Y-12894484D02*
X4960539Y-12894484D01*
X5046253Y-12875436D02*
X5055777Y-12884960D01*
X5055777Y-12884960D02*
X5046253Y-12894484D01*
X5046253Y-12894484D02*
X5036729Y-12884960D01*
X5036729Y-12884960D02*
X5046253Y-12875436D01*
X5046253Y-12875436D02*
X5046253Y-12894484D01*
X5179586Y-12694484D02*
X5198634Y-12694484D01*
X5198634Y-12694484D02*
X5217682Y-12704008D01*
X5217682Y-12704008D02*
X5227205Y-12713531D01*
X5227205Y-12713531D02*
X5236729Y-12732579D01*
X5236729Y-12732579D02*
X5246253Y-12770674D01*
X5246253Y-12770674D02*
X5246253Y-12818293D01*
X5246253Y-12818293D02*
X5236729Y-12856388D01*
X5236729Y-12856388D02*
X5227205Y-12875436D01*
X5227205Y-12875436D02*
X5217682Y-12884960D01*
X5217682Y-12884960D02*
X5198634Y-12894484D01*
X5198634Y-12894484D02*
X5179586Y-12894484D01*
X5179586Y-12894484D02*
X5160539Y-12884960D01*
X5160539Y-12884960D02*
X5151015Y-12875436D01*
X5151015Y-12875436D02*
X5141491Y-12856388D01*
X5141491Y-12856388D02*
X5131967Y-12818293D01*
X5131967Y-12818293D02*
X5131967Y-12770674D01*
X5131967Y-12770674D02*
X5141491Y-12732579D01*
X5141491Y-12732579D02*
X5151015Y-12713531D01*
X5151015Y-12713531D02*
X5160539Y-12704008D01*
X5160539Y-12704008D02*
X5179586Y-12694484D01*
X5370063Y-12694484D02*
X5389110Y-12694484D01*
X5389110Y-12694484D02*
X5408158Y-12704008D01*
X5408158Y-12704008D02*
X5417682Y-12713531D01*
X5417682Y-12713531D02*
X5427205Y-12732579D01*
X5427205Y-12732579D02*
X5436729Y-12770674D01*
X5436729Y-12770674D02*
X5436729Y-12818293D01*
X5436729Y-12818293D02*
X5427205Y-12856388D01*
X5427205Y-12856388D02*
X5417682Y-12875436D01*
X5417682Y-12875436D02*
X5408158Y-12884960D01*
X5408158Y-12884960D02*
X5389110Y-12894484D01*
X5389110Y-12894484D02*
X5370063Y-12894484D01*
X5370063Y-12894484D02*
X5351015Y-12884960D01*
X5351015Y-12884960D02*
X5341491Y-12875436D01*
X5341491Y-12875436D02*
X5331967Y-12856388D01*
X5331967Y-12856388D02*
X5322444Y-12818293D01*
X5322444Y-12818293D02*
X5322444Y-12770674D01*
X5322444Y-12770674D02*
X5331967Y-12732579D01*
X5331967Y-12732579D02*
X5341491Y-12713531D01*
X5341491Y-12713531D02*
X5351015Y-12704008D01*
X5351015Y-12704008D02*
X5370063Y-12694484D01*
X5560539Y-12694484D02*
X5579586Y-12694484D01*
X5579586Y-12694484D02*
X5598634Y-12704008D01*
X5598634Y-12704008D02*
X5608158Y-12713531D01*
X5608158Y-12713531D02*
X5617682Y-12732579D01*
X5617682Y-12732579D02*
X5627205Y-12770674D01*
X5627205Y-12770674D02*
X5627205Y-12818293D01*
X5627205Y-12818293D02*
X5617682Y-12856388D01*
X5617682Y-12856388D02*
X5608158Y-12875436D01*
X5608158Y-12875436D02*
X5598634Y-12884960D01*
X5598634Y-12884960D02*
X5579586Y-12894484D01*
X5579586Y-12894484D02*
X5560539Y-12894484D01*
X5560539Y-12894484D02*
X5541491Y-12884960D01*
X5541491Y-12884960D02*
X5531967Y-12875436D01*
X5531967Y-12875436D02*
X5522444Y-12856388D01*
X5522444Y-12856388D02*
X5512920Y-12818293D01*
X5512920Y-12818293D02*
X5512920Y-12770674D01*
X5512920Y-12770674D02*
X5522444Y-12732579D01*
X5522444Y-12732579D02*
X5531967Y-12713531D01*
X5531967Y-12713531D02*
X5541491Y-12704008D01*
X5541491Y-12704008D02*
X5560539Y-12694484D01*
X5712920Y-12894484D02*
X5712920Y-12761150D01*
X5712920Y-12780198D02*
X5722443Y-12770674D01*
X5722443Y-12770674D02*
X5741491Y-12761150D01*
X5741491Y-12761150D02*
X5770063Y-12761150D01*
X5770063Y-12761150D02*
X5789110Y-12770674D01*
X5789110Y-12770674D02*
X5798634Y-12789722D01*
X5798634Y-12789722D02*
X5798634Y-12894484D01*
X5798634Y-12789722D02*
X5808158Y-12770674D01*
X5808158Y-12770674D02*
X5827205Y-12761150D01*
X5827205Y-12761150D02*
X5855777Y-12761150D01*
X5855777Y-12761150D02*
X5874824Y-12770674D01*
X5874824Y-12770674D02*
X5884348Y-12789722D01*
X5884348Y-12789722D02*
X5884348Y-12894484D01*
X5979586Y-12894484D02*
X5979586Y-12761150D01*
X5979586Y-12780198D02*
X5989110Y-12770674D01*
X5989110Y-12770674D02*
X6008158Y-12761150D01*
X6008158Y-12761150D02*
X6036729Y-12761150D01*
X6036729Y-12761150D02*
X6055777Y-12770674D01*
X6055777Y-12770674D02*
X6065301Y-12789722D01*
X6065301Y-12789722D02*
X6065301Y-12894484D01*
X6065301Y-12789722D02*
X6074824Y-12770674D01*
X6074824Y-12770674D02*
X6093872Y-12761150D01*
X6093872Y-12761150D02*
X6122443Y-12761150D01*
X6122443Y-12761150D02*
X6141491Y-12770674D01*
X6141491Y-12770674D02*
X6151015Y-12789722D01*
X6151015Y-12789722D02*
X6151015Y-12894484D01*
X6541491Y-12684960D02*
X6370063Y-12942103D01*
X6798634Y-12694484D02*
X6817682Y-12694484D01*
X6817682Y-12694484D02*
X6836729Y-12704008D01*
X6836729Y-12704008D02*
X6846253Y-12713531D01*
X6846253Y-12713531D02*
X6855777Y-12732579D01*
X6855777Y-12732579D02*
X6865301Y-12770674D01*
X6865301Y-12770674D02*
X6865301Y-12818293D01*
X6865301Y-12818293D02*
X6855777Y-12856388D01*
X6855777Y-12856388D02*
X6846253Y-12875436D01*
X6846253Y-12875436D02*
X6836729Y-12884960D01*
X6836729Y-12884960D02*
X6817682Y-12894484D01*
X6817682Y-12894484D02*
X6798634Y-12894484D01*
X6798634Y-12894484D02*
X6779586Y-12884960D01*
X6779586Y-12884960D02*
X6770063Y-12875436D01*
X6770063Y-12875436D02*
X6760539Y-12856388D01*
X6760539Y-12856388D02*
X6751015Y-12818293D01*
X6751015Y-12818293D02*
X6751015Y-12770674D01*
X6751015Y-12770674D02*
X6760539Y-12732579D01*
X6760539Y-12732579D02*
X6770063Y-12713531D01*
X6770063Y-12713531D02*
X6779586Y-12704008D01*
X6779586Y-12704008D02*
X6798634Y-12694484D01*
X6951015Y-12875436D02*
X6960539Y-12884960D01*
X6960539Y-12884960D02*
X6951015Y-12894484D01*
X6951015Y-12894484D02*
X6941491Y-12884960D01*
X6941491Y-12884960D02*
X6951015Y-12875436D01*
X6951015Y-12875436D02*
X6951015Y-12894484D01*
X7084348Y-12694484D02*
X7103396Y-12694484D01*
X7103396Y-12694484D02*
X7122444Y-12704008D01*
X7122444Y-12704008D02*
X7131967Y-12713531D01*
X7131967Y-12713531D02*
X7141491Y-12732579D01*
X7141491Y-12732579D02*
X7151015Y-12770674D01*
X7151015Y-12770674D02*
X7151015Y-12818293D01*
X7151015Y-12818293D02*
X7141491Y-12856388D01*
X7141491Y-12856388D02*
X7131967Y-12875436D01*
X7131967Y-12875436D02*
X7122444Y-12884960D01*
X7122444Y-12884960D02*
X7103396Y-12894484D01*
X7103396Y-12894484D02*
X7084348Y-12894484D01*
X7084348Y-12894484D02*
X7065301Y-12884960D01*
X7065301Y-12884960D02*
X7055777Y-12875436D01*
X7055777Y-12875436D02*
X7046253Y-12856388D01*
X7046253Y-12856388D02*
X7036729Y-12818293D01*
X7036729Y-12818293D02*
X7036729Y-12770674D01*
X7036729Y-12770674D02*
X7046253Y-12732579D01*
X7046253Y-12732579D02*
X7055777Y-12713531D01*
X7055777Y-12713531D02*
X7065301Y-12704008D01*
X7065301Y-12704008D02*
X7084348Y-12694484D01*
X7217682Y-12694484D02*
X7351015Y-12694484D01*
X7351015Y-12694484D02*
X7265301Y-12894484D01*
X7455777Y-12780198D02*
X7436729Y-12770674D01*
X7436729Y-12770674D02*
X7427206Y-12761150D01*
X7427206Y-12761150D02*
X7417682Y-12742103D01*
X7417682Y-12742103D02*
X7417682Y-12732579D01*
X7417682Y-12732579D02*
X7427206Y-12713531D01*
X7427206Y-12713531D02*
X7436729Y-12704008D01*
X7436729Y-12704008D02*
X7455777Y-12694484D01*
X7455777Y-12694484D02*
X7493872Y-12694484D01*
X7493872Y-12694484D02*
X7512920Y-12704008D01*
X7512920Y-12704008D02*
X7522444Y-12713531D01*
X7522444Y-12713531D02*
X7531967Y-12732579D01*
X7531967Y-12732579D02*
X7531967Y-12742103D01*
X7531967Y-12742103D02*
X7522444Y-12761150D01*
X7522444Y-12761150D02*
X7512920Y-12770674D01*
X7512920Y-12770674D02*
X7493872Y-12780198D01*
X7493872Y-12780198D02*
X7455777Y-12780198D01*
X7455777Y-12780198D02*
X7436729Y-12789722D01*
X7436729Y-12789722D02*
X7427206Y-12799246D01*
X7427206Y-12799246D02*
X7417682Y-12818293D01*
X7417682Y-12818293D02*
X7417682Y-12856388D01*
X7417682Y-12856388D02*
X7427206Y-12875436D01*
X7427206Y-12875436D02*
X7436729Y-12884960D01*
X7436729Y-12884960D02*
X7455777Y-12894484D01*
X7455777Y-12894484D02*
X7493872Y-12894484D01*
X7493872Y-12894484D02*
X7512920Y-12884960D01*
X7512920Y-12884960D02*
X7522444Y-12875436D01*
X7522444Y-12875436D02*
X7531967Y-12856388D01*
X7531967Y-12856388D02*
X7531967Y-12818293D01*
X7531967Y-12818293D02*
X7522444Y-12799246D01*
X7522444Y-12799246D02*
X7512920Y-12789722D01*
X7512920Y-12789722D02*
X7493872Y-12780198D01*
X7598634Y-12694484D02*
X7731967Y-12694484D01*
X7731967Y-12694484D02*
X7646253Y-12894484D01*
X7798634Y-12694484D02*
X7798634Y-12732579D01*
X7874825Y-12694484D02*
X7874825Y-12732579D01*
X8170063Y-12970674D02*
X8160539Y-12961150D01*
X8160539Y-12961150D02*
X8141491Y-12932579D01*
X8141491Y-12932579D02*
X8131968Y-12913531D01*
X8131968Y-12913531D02*
X8122444Y-12884960D01*
X8122444Y-12884960D02*
X8112920Y-12837341D01*
X8112920Y-12837341D02*
X8112920Y-12799246D01*
X8112920Y-12799246D02*
X8122444Y-12751627D01*
X8122444Y-12751627D02*
X8131968Y-12723055D01*
X8131968Y-12723055D02*
X8141491Y-12704008D01*
X8141491Y-12704008D02*
X8160539Y-12675436D01*
X8160539Y-12675436D02*
X8170063Y-12665912D01*
X8227206Y-12694484D02*
X8351015Y-12694484D01*
X8351015Y-12694484D02*
X8284348Y-12770674D01*
X8284348Y-12770674D02*
X8312920Y-12770674D01*
X8312920Y-12770674D02*
X8331968Y-12780198D01*
X8331968Y-12780198D02*
X8341491Y-12789722D01*
X8341491Y-12789722D02*
X8351015Y-12808769D01*
X8351015Y-12808769D02*
X8351015Y-12856388D01*
X8351015Y-12856388D02*
X8341491Y-12875436D01*
X8341491Y-12875436D02*
X8331968Y-12884960D01*
X8331968Y-12884960D02*
X8312920Y-12894484D01*
X8312920Y-12894484D02*
X8255777Y-12894484D01*
X8255777Y-12894484D02*
X8236729Y-12884960D01*
X8236729Y-12884960D02*
X8227206Y-12875436D01*
X8589111Y-12894484D02*
X8589111Y-12694484D01*
X8674825Y-12894484D02*
X8674825Y-12789722D01*
X8674825Y-12789722D02*
X8665301Y-12770674D01*
X8665301Y-12770674D02*
X8646253Y-12761150D01*
X8646253Y-12761150D02*
X8617682Y-12761150D01*
X8617682Y-12761150D02*
X8598634Y-12770674D01*
X8598634Y-12770674D02*
X8589111Y-12780198D01*
X8798634Y-12894484D02*
X8779587Y-12884960D01*
X8779587Y-12884960D02*
X8770063Y-12875436D01*
X8770063Y-12875436D02*
X8760539Y-12856388D01*
X8760539Y-12856388D02*
X8760539Y-12799246D01*
X8760539Y-12799246D02*
X8770063Y-12780198D01*
X8770063Y-12780198D02*
X8779587Y-12770674D01*
X8779587Y-12770674D02*
X8798634Y-12761150D01*
X8798634Y-12761150D02*
X8827206Y-12761150D01*
X8827206Y-12761150D02*
X8846253Y-12770674D01*
X8846253Y-12770674D02*
X8855777Y-12780198D01*
X8855777Y-12780198D02*
X8865301Y-12799246D01*
X8865301Y-12799246D02*
X8865301Y-12856388D01*
X8865301Y-12856388D02*
X8855777Y-12875436D01*
X8855777Y-12875436D02*
X8846253Y-12884960D01*
X8846253Y-12884960D02*
X8827206Y-12894484D01*
X8827206Y-12894484D02*
X8798634Y-12894484D01*
X8979587Y-12894484D02*
X8960539Y-12884960D01*
X8960539Y-12884960D02*
X8951015Y-12865912D01*
X8951015Y-12865912D02*
X8951015Y-12694484D01*
X9131968Y-12884960D02*
X9112920Y-12894484D01*
X9112920Y-12894484D02*
X9074825Y-12894484D01*
X9074825Y-12894484D02*
X9055777Y-12884960D01*
X9055777Y-12884960D02*
X9046253Y-12865912D01*
X9046253Y-12865912D02*
X9046253Y-12789722D01*
X9046253Y-12789722D02*
X9055777Y-12770674D01*
X9055777Y-12770674D02*
X9074825Y-12761150D01*
X9074825Y-12761150D02*
X9112920Y-12761150D01*
X9112920Y-12761150D02*
X9131968Y-12770674D01*
X9131968Y-12770674D02*
X9141492Y-12789722D01*
X9141492Y-12789722D02*
X9141492Y-12808769D01*
X9141492Y-12808769D02*
X9046253Y-12827817D01*
X9217682Y-12884960D02*
X9236730Y-12894484D01*
X9236730Y-12894484D02*
X9274825Y-12894484D01*
X9274825Y-12894484D02*
X9293873Y-12884960D01*
X9293873Y-12884960D02*
X9303396Y-12865912D01*
X9303396Y-12865912D02*
X9303396Y-12856388D01*
X9303396Y-12856388D02*
X9293873Y-12837341D01*
X9293873Y-12837341D02*
X9274825Y-12827817D01*
X9274825Y-12827817D02*
X9246253Y-12827817D01*
X9246253Y-12827817D02*
X9227206Y-12818293D01*
X9227206Y-12818293D02*
X9217682Y-12799246D01*
X9217682Y-12799246D02*
X9217682Y-12789722D01*
X9217682Y-12789722D02*
X9227206Y-12770674D01*
X9227206Y-12770674D02*
X9246253Y-12761150D01*
X9246253Y-12761150D02*
X9274825Y-12761150D01*
X9274825Y-12761150D02*
X9293873Y-12770674D01*
X9370063Y-12970674D02*
X9379587Y-12961150D01*
X9379587Y-12961150D02*
X9398634Y-12932579D01*
X9398634Y-12932579D02*
X9408158Y-12913531D01*
X9408158Y-12913531D02*
X9417682Y-12884960D01*
X9417682Y-12884960D02*
X9427206Y-12837341D01*
X9427206Y-12837341D02*
X9427206Y-12799246D01*
X9427206Y-12799246D02*
X9417682Y-12751627D01*
X9417682Y-12751627D02*
X9408158Y-12723055D01*
X9408158Y-12723055D02*
X9398634Y-12704008D01*
X9398634Y-12704008D02*
X9379587Y-12675436D01*
X9379587Y-12675436D02*
X9370063Y-12665912D01*
X9731968Y-12970674D02*
X9722444Y-12961150D01*
X9722444Y-12961150D02*
X9703396Y-12932579D01*
X9703396Y-12932579D02*
X9693873Y-12913531D01*
X9693873Y-12913531D02*
X9684349Y-12884960D01*
X9684349Y-12884960D02*
X9674825Y-12837341D01*
X9674825Y-12837341D02*
X9674825Y-12799246D01*
X9674825Y-12799246D02*
X9684349Y-12751627D01*
X9684349Y-12751627D02*
X9693873Y-12723055D01*
X9693873Y-12723055D02*
X9703396Y-12704008D01*
X9703396Y-12704008D02*
X9722444Y-12675436D01*
X9722444Y-12675436D02*
X9731968Y-12665912D01*
X9808158Y-12761150D02*
X9808158Y-12894484D01*
X9808158Y-12780198D02*
X9817682Y-12770674D01*
X9817682Y-12770674D02*
X9836730Y-12761150D01*
X9836730Y-12761150D02*
X9865301Y-12761150D01*
X9865301Y-12761150D02*
X9884349Y-12770674D01*
X9884349Y-12770674D02*
X9893873Y-12789722D01*
X9893873Y-12789722D02*
X9893873Y-12894484D01*
X10017682Y-12894484D02*
X9998634Y-12884960D01*
X9998634Y-12884960D02*
X9989111Y-12875436D01*
X9989111Y-12875436D02*
X9979587Y-12856388D01*
X9979587Y-12856388D02*
X9979587Y-12799246D01*
X9979587Y-12799246D02*
X9989111Y-12780198D01*
X9989111Y-12780198D02*
X9998634Y-12770674D01*
X9998634Y-12770674D02*
X10017682Y-12761150D01*
X10017682Y-12761150D02*
X10046254Y-12761150D01*
X10046254Y-12761150D02*
X10065301Y-12770674D01*
X10065301Y-12770674D02*
X10074825Y-12780198D01*
X10074825Y-12780198D02*
X10084349Y-12799246D01*
X10084349Y-12799246D02*
X10084349Y-12856388D01*
X10084349Y-12856388D02*
X10074825Y-12875436D01*
X10074825Y-12875436D02*
X10065301Y-12884960D01*
X10065301Y-12884960D02*
X10046254Y-12894484D01*
X10046254Y-12894484D02*
X10017682Y-12894484D01*
X10141492Y-12761150D02*
X10217682Y-12761150D01*
X10170063Y-12694484D02*
X10170063Y-12865912D01*
X10170063Y-12865912D02*
X10179587Y-12884960D01*
X10179587Y-12884960D02*
X10198634Y-12894484D01*
X10198634Y-12894484D02*
X10217682Y-12894484D01*
X10436730Y-12761150D02*
X10436730Y-12961150D01*
X10436730Y-12770674D02*
X10455777Y-12761150D01*
X10455777Y-12761150D02*
X10493873Y-12761150D01*
X10493873Y-12761150D02*
X10512920Y-12770674D01*
X10512920Y-12770674D02*
X10522444Y-12780198D01*
X10522444Y-12780198D02*
X10531968Y-12799246D01*
X10531968Y-12799246D02*
X10531968Y-12856388D01*
X10531968Y-12856388D02*
X10522444Y-12875436D01*
X10522444Y-12875436D02*
X10512920Y-12884960D01*
X10512920Y-12884960D02*
X10493873Y-12894484D01*
X10493873Y-12894484D02*
X10455777Y-12894484D01*
X10455777Y-12894484D02*
X10436730Y-12884960D01*
X10646254Y-12894484D02*
X10627206Y-12884960D01*
X10627206Y-12884960D02*
X10617682Y-12865912D01*
X10617682Y-12865912D02*
X10617682Y-12694484D01*
X10808158Y-12894484D02*
X10808158Y-12789722D01*
X10808158Y-12789722D02*
X10798635Y-12770674D01*
X10798635Y-12770674D02*
X10779587Y-12761150D01*
X10779587Y-12761150D02*
X10741492Y-12761150D01*
X10741492Y-12761150D02*
X10722444Y-12770674D01*
X10808158Y-12884960D02*
X10789111Y-12894484D01*
X10789111Y-12894484D02*
X10741492Y-12894484D01*
X10741492Y-12894484D02*
X10722444Y-12884960D01*
X10722444Y-12884960D02*
X10712920Y-12865912D01*
X10712920Y-12865912D02*
X10712920Y-12846865D01*
X10712920Y-12846865D02*
X10722444Y-12827817D01*
X10722444Y-12827817D02*
X10741492Y-12818293D01*
X10741492Y-12818293D02*
X10789111Y-12818293D01*
X10789111Y-12818293D02*
X10808158Y-12808769D01*
X10874825Y-12761150D02*
X10951015Y-12761150D01*
X10903396Y-12694484D02*
X10903396Y-12865912D01*
X10903396Y-12865912D02*
X10912920Y-12884960D01*
X10912920Y-12884960D02*
X10931968Y-12894484D01*
X10931968Y-12894484D02*
X10951015Y-12894484D01*
X11093873Y-12884960D02*
X11074825Y-12894484D01*
X11074825Y-12894484D02*
X11036730Y-12894484D01*
X11036730Y-12894484D02*
X11017682Y-12884960D01*
X11017682Y-12884960D02*
X11008158Y-12865912D01*
X11008158Y-12865912D02*
X11008158Y-12789722D01*
X11008158Y-12789722D02*
X11017682Y-12770674D01*
X11017682Y-12770674D02*
X11036730Y-12761150D01*
X11036730Y-12761150D02*
X11074825Y-12761150D01*
X11074825Y-12761150D02*
X11093873Y-12770674D01*
X11093873Y-12770674D02*
X11103396Y-12789722D01*
X11103396Y-12789722D02*
X11103396Y-12808769D01*
X11103396Y-12808769D02*
X11008158Y-12827817D01*
X11274825Y-12894484D02*
X11274825Y-12694484D01*
X11274825Y-12884960D02*
X11255777Y-12894484D01*
X11255777Y-12894484D02*
X11217682Y-12894484D01*
X11217682Y-12894484D02*
X11198634Y-12884960D01*
X11198634Y-12884960D02*
X11189111Y-12875436D01*
X11189111Y-12875436D02*
X11179587Y-12856388D01*
X11179587Y-12856388D02*
X11179587Y-12799246D01*
X11179587Y-12799246D02*
X11189111Y-12780198D01*
X11189111Y-12780198D02*
X11198634Y-12770674D01*
X11198634Y-12770674D02*
X11217682Y-12761150D01*
X11217682Y-12761150D02*
X11255777Y-12761150D01*
X11255777Y-12761150D02*
X11274825Y-12770674D01*
X11351015Y-12970674D02*
X11360539Y-12961150D01*
X11360539Y-12961150D02*
X11379587Y-12932579D01*
X11379587Y-12932579D02*
X11389111Y-12913531D01*
X11389111Y-12913531D02*
X11398634Y-12884960D01*
X11398634Y-12884960D02*
X11408158Y-12837341D01*
X11408158Y-12837341D02*
X11408158Y-12799246D01*
X11408158Y-12799246D02*
X11398634Y-12751627D01*
X11398634Y-12751627D02*
X11389111Y-12723055D01*
X11389111Y-12723055D02*
X11379587Y-12704008D01*
X11379587Y-12704008D02*
X11360539Y-12675436D01*
X11360539Y-12675436D02*
X11351015Y-12665912D01*
X4495000Y-13023000D02*
X4495000Y-13223000D01*
X4395000Y-13123000D02*
X4595000Y-13123000D01*
X4836729Y-13014484D02*
X4960539Y-13014484D01*
X4960539Y-13014484D02*
X4893872Y-13090674D01*
X4893872Y-13090674D02*
X4922444Y-13090674D01*
X4922444Y-13090674D02*
X4941491Y-13100198D01*
X4941491Y-13100198D02*
X4951015Y-13109722D01*
X4951015Y-13109722D02*
X4960539Y-13128769D01*
X4960539Y-13128769D02*
X4960539Y-13176388D01*
X4960539Y-13176388D02*
X4951015Y-13195436D01*
X4951015Y-13195436D02*
X4941491Y-13204960D01*
X4941491Y-13204960D02*
X4922444Y-13214484D01*
X4922444Y-13214484D02*
X4865301Y-13214484D01*
X4865301Y-13214484D02*
X4846253Y-13204960D01*
X4846253Y-13204960D02*
X4836729Y-13195436D01*
X5046253Y-13195436D02*
X5055777Y-13204960D01*
X5055777Y-13204960D02*
X5046253Y-13214484D01*
X5046253Y-13214484D02*
X5036729Y-13204960D01*
X5036729Y-13204960D02*
X5046253Y-13195436D01*
X5046253Y-13195436D02*
X5046253Y-13214484D01*
X5236729Y-13014484D02*
X5141491Y-13014484D01*
X5141491Y-13014484D02*
X5131967Y-13109722D01*
X5131967Y-13109722D02*
X5141491Y-13100198D01*
X5141491Y-13100198D02*
X5160539Y-13090674D01*
X5160539Y-13090674D02*
X5208158Y-13090674D01*
X5208158Y-13090674D02*
X5227205Y-13100198D01*
X5227205Y-13100198D02*
X5236729Y-13109722D01*
X5236729Y-13109722D02*
X5246253Y-13128769D01*
X5246253Y-13128769D02*
X5246253Y-13176388D01*
X5246253Y-13176388D02*
X5236729Y-13195436D01*
X5236729Y-13195436D02*
X5227205Y-13204960D01*
X5227205Y-13204960D02*
X5208158Y-13214484D01*
X5208158Y-13214484D02*
X5160539Y-13214484D01*
X5160539Y-13214484D02*
X5141491Y-13204960D01*
X5141491Y-13204960D02*
X5131967Y-13195436D01*
X5370063Y-13014484D02*
X5389110Y-13014484D01*
X5389110Y-13014484D02*
X5408158Y-13024008D01*
X5408158Y-13024008D02*
X5417682Y-13033531D01*
X5417682Y-13033531D02*
X5427205Y-13052579D01*
X5427205Y-13052579D02*
X5436729Y-13090674D01*
X5436729Y-13090674D02*
X5436729Y-13138293D01*
X5436729Y-13138293D02*
X5427205Y-13176388D01*
X5427205Y-13176388D02*
X5417682Y-13195436D01*
X5417682Y-13195436D02*
X5408158Y-13204960D01*
X5408158Y-13204960D02*
X5389110Y-13214484D01*
X5389110Y-13214484D02*
X5370063Y-13214484D01*
X5370063Y-13214484D02*
X5351015Y-13204960D01*
X5351015Y-13204960D02*
X5341491Y-13195436D01*
X5341491Y-13195436D02*
X5331967Y-13176388D01*
X5331967Y-13176388D02*
X5322444Y-13138293D01*
X5322444Y-13138293D02*
X5322444Y-13090674D01*
X5322444Y-13090674D02*
X5331967Y-13052579D01*
X5331967Y-13052579D02*
X5341491Y-13033531D01*
X5341491Y-13033531D02*
X5351015Y-13024008D01*
X5351015Y-13024008D02*
X5370063Y-13014484D01*
X5560539Y-13014484D02*
X5579586Y-13014484D01*
X5579586Y-13014484D02*
X5598634Y-13024008D01*
X5598634Y-13024008D02*
X5608158Y-13033531D01*
X5608158Y-13033531D02*
X5617682Y-13052579D01*
X5617682Y-13052579D02*
X5627205Y-13090674D01*
X5627205Y-13090674D02*
X5627205Y-13138293D01*
X5627205Y-13138293D02*
X5617682Y-13176388D01*
X5617682Y-13176388D02*
X5608158Y-13195436D01*
X5608158Y-13195436D02*
X5598634Y-13204960D01*
X5598634Y-13204960D02*
X5579586Y-13214484D01*
X5579586Y-13214484D02*
X5560539Y-13214484D01*
X5560539Y-13214484D02*
X5541491Y-13204960D01*
X5541491Y-13204960D02*
X5531967Y-13195436D01*
X5531967Y-13195436D02*
X5522444Y-13176388D01*
X5522444Y-13176388D02*
X5512920Y-13138293D01*
X5512920Y-13138293D02*
X5512920Y-13090674D01*
X5512920Y-13090674D02*
X5522444Y-13052579D01*
X5522444Y-13052579D02*
X5531967Y-13033531D01*
X5531967Y-13033531D02*
X5541491Y-13024008D01*
X5541491Y-13024008D02*
X5560539Y-13014484D01*
X5712920Y-13214484D02*
X5712920Y-13081150D01*
X5712920Y-13100198D02*
X5722443Y-13090674D01*
X5722443Y-13090674D02*
X5741491Y-13081150D01*
X5741491Y-13081150D02*
X5770063Y-13081150D01*
X5770063Y-13081150D02*
X5789110Y-13090674D01*
X5789110Y-13090674D02*
X5798634Y-13109722D01*
X5798634Y-13109722D02*
X5798634Y-13214484D01*
X5798634Y-13109722D02*
X5808158Y-13090674D01*
X5808158Y-13090674D02*
X5827205Y-13081150D01*
X5827205Y-13081150D02*
X5855777Y-13081150D01*
X5855777Y-13081150D02*
X5874824Y-13090674D01*
X5874824Y-13090674D02*
X5884348Y-13109722D01*
X5884348Y-13109722D02*
X5884348Y-13214484D01*
X5979586Y-13214484D02*
X5979586Y-13081150D01*
X5979586Y-13100198D02*
X5989110Y-13090674D01*
X5989110Y-13090674D02*
X6008158Y-13081150D01*
X6008158Y-13081150D02*
X6036729Y-13081150D01*
X6036729Y-13081150D02*
X6055777Y-13090674D01*
X6055777Y-13090674D02*
X6065301Y-13109722D01*
X6065301Y-13109722D02*
X6065301Y-13214484D01*
X6065301Y-13109722D02*
X6074824Y-13090674D01*
X6074824Y-13090674D02*
X6093872Y-13081150D01*
X6093872Y-13081150D02*
X6122443Y-13081150D01*
X6122443Y-13081150D02*
X6141491Y-13090674D01*
X6141491Y-13090674D02*
X6151015Y-13109722D01*
X6151015Y-13109722D02*
X6151015Y-13214484D01*
X6541491Y-13004960D02*
X6370063Y-13262103D01*
X6798634Y-13014484D02*
X6817682Y-13014484D01*
X6817682Y-13014484D02*
X6836729Y-13024008D01*
X6836729Y-13024008D02*
X6846253Y-13033531D01*
X6846253Y-13033531D02*
X6855777Y-13052579D01*
X6855777Y-13052579D02*
X6865301Y-13090674D01*
X6865301Y-13090674D02*
X6865301Y-13138293D01*
X6865301Y-13138293D02*
X6855777Y-13176388D01*
X6855777Y-13176388D02*
X6846253Y-13195436D01*
X6846253Y-13195436D02*
X6836729Y-13204960D01*
X6836729Y-13204960D02*
X6817682Y-13214484D01*
X6817682Y-13214484D02*
X6798634Y-13214484D01*
X6798634Y-13214484D02*
X6779586Y-13204960D01*
X6779586Y-13204960D02*
X6770063Y-13195436D01*
X6770063Y-13195436D02*
X6760539Y-13176388D01*
X6760539Y-13176388D02*
X6751015Y-13138293D01*
X6751015Y-13138293D02*
X6751015Y-13090674D01*
X6751015Y-13090674D02*
X6760539Y-13052579D01*
X6760539Y-13052579D02*
X6770063Y-13033531D01*
X6770063Y-13033531D02*
X6779586Y-13024008D01*
X6779586Y-13024008D02*
X6798634Y-13014484D01*
X6951015Y-13195436D02*
X6960539Y-13204960D01*
X6960539Y-13204960D02*
X6951015Y-13214484D01*
X6951015Y-13214484D02*
X6941491Y-13204960D01*
X6941491Y-13204960D02*
X6951015Y-13195436D01*
X6951015Y-13195436D02*
X6951015Y-13214484D01*
X7151015Y-13214484D02*
X7036729Y-13214484D01*
X7093872Y-13214484D02*
X7093872Y-13014484D01*
X7093872Y-13014484D02*
X7074825Y-13043055D01*
X7074825Y-13043055D02*
X7055777Y-13062103D01*
X7055777Y-13062103D02*
X7036729Y-13071627D01*
X7217682Y-13014484D02*
X7341491Y-13014484D01*
X7341491Y-13014484D02*
X7274825Y-13090674D01*
X7274825Y-13090674D02*
X7303396Y-13090674D01*
X7303396Y-13090674D02*
X7322444Y-13100198D01*
X7322444Y-13100198D02*
X7331967Y-13109722D01*
X7331967Y-13109722D02*
X7341491Y-13128769D01*
X7341491Y-13128769D02*
X7341491Y-13176388D01*
X7341491Y-13176388D02*
X7331967Y-13195436D01*
X7331967Y-13195436D02*
X7322444Y-13204960D01*
X7322444Y-13204960D02*
X7303396Y-13214484D01*
X7303396Y-13214484D02*
X7246253Y-13214484D01*
X7246253Y-13214484D02*
X7227206Y-13204960D01*
X7227206Y-13204960D02*
X7217682Y-13195436D01*
X7408158Y-13014484D02*
X7541491Y-13014484D01*
X7541491Y-13014484D02*
X7455777Y-13214484D01*
X7646253Y-13100198D02*
X7627206Y-13090674D01*
X7627206Y-13090674D02*
X7617682Y-13081150D01*
X7617682Y-13081150D02*
X7608158Y-13062103D01*
X7608158Y-13062103D02*
X7608158Y-13052579D01*
X7608158Y-13052579D02*
X7617682Y-13033531D01*
X7617682Y-13033531D02*
X7627206Y-13024008D01*
X7627206Y-13024008D02*
X7646253Y-13014484D01*
X7646253Y-13014484D02*
X7684348Y-13014484D01*
X7684348Y-13014484D02*
X7703396Y-13024008D01*
X7703396Y-13024008D02*
X7712920Y-13033531D01*
X7712920Y-13033531D02*
X7722444Y-13052579D01*
X7722444Y-13052579D02*
X7722444Y-13062103D01*
X7722444Y-13062103D02*
X7712920Y-13081150D01*
X7712920Y-13081150D02*
X7703396Y-13090674D01*
X7703396Y-13090674D02*
X7684348Y-13100198D01*
X7684348Y-13100198D02*
X7646253Y-13100198D01*
X7646253Y-13100198D02*
X7627206Y-13109722D01*
X7627206Y-13109722D02*
X7617682Y-13119246D01*
X7617682Y-13119246D02*
X7608158Y-13138293D01*
X7608158Y-13138293D02*
X7608158Y-13176388D01*
X7608158Y-13176388D02*
X7617682Y-13195436D01*
X7617682Y-13195436D02*
X7627206Y-13204960D01*
X7627206Y-13204960D02*
X7646253Y-13214484D01*
X7646253Y-13214484D02*
X7684348Y-13214484D01*
X7684348Y-13214484D02*
X7703396Y-13204960D01*
X7703396Y-13204960D02*
X7712920Y-13195436D01*
X7712920Y-13195436D02*
X7722444Y-13176388D01*
X7722444Y-13176388D02*
X7722444Y-13138293D01*
X7722444Y-13138293D02*
X7712920Y-13119246D01*
X7712920Y-13119246D02*
X7703396Y-13109722D01*
X7703396Y-13109722D02*
X7684348Y-13100198D01*
X7798634Y-13014484D02*
X7798634Y-13052579D01*
X7874825Y-13014484D02*
X7874825Y-13052579D01*
X8170063Y-13290674D02*
X8160539Y-13281150D01*
X8160539Y-13281150D02*
X8141491Y-13252579D01*
X8141491Y-13252579D02*
X8131968Y-13233531D01*
X8131968Y-13233531D02*
X8122444Y-13204960D01*
X8122444Y-13204960D02*
X8112920Y-13157341D01*
X8112920Y-13157341D02*
X8112920Y-13119246D01*
X8112920Y-13119246D02*
X8122444Y-13071627D01*
X8122444Y-13071627D02*
X8131968Y-13043055D01*
X8131968Y-13043055D02*
X8141491Y-13024008D01*
X8141491Y-13024008D02*
X8160539Y-12995436D01*
X8160539Y-12995436D02*
X8170063Y-12985912D01*
X8351015Y-13214484D02*
X8236729Y-13214484D01*
X8293872Y-13214484D02*
X8293872Y-13014484D01*
X8293872Y-13014484D02*
X8274825Y-13043055D01*
X8274825Y-13043055D02*
X8255777Y-13062103D01*
X8255777Y-13062103D02*
X8236729Y-13071627D01*
X8589111Y-13214484D02*
X8589111Y-13014484D01*
X8674825Y-13214484D02*
X8674825Y-13109722D01*
X8674825Y-13109722D02*
X8665301Y-13090674D01*
X8665301Y-13090674D02*
X8646253Y-13081150D01*
X8646253Y-13081150D02*
X8617682Y-13081150D01*
X8617682Y-13081150D02*
X8598634Y-13090674D01*
X8598634Y-13090674D02*
X8589111Y-13100198D01*
X8798634Y-13214484D02*
X8779587Y-13204960D01*
X8779587Y-13204960D02*
X8770063Y-13195436D01*
X8770063Y-13195436D02*
X8760539Y-13176388D01*
X8760539Y-13176388D02*
X8760539Y-13119246D01*
X8760539Y-13119246D02*
X8770063Y-13100198D01*
X8770063Y-13100198D02*
X8779587Y-13090674D01*
X8779587Y-13090674D02*
X8798634Y-13081150D01*
X8798634Y-13081150D02*
X8827206Y-13081150D01*
X8827206Y-13081150D02*
X8846253Y-13090674D01*
X8846253Y-13090674D02*
X8855777Y-13100198D01*
X8855777Y-13100198D02*
X8865301Y-13119246D01*
X8865301Y-13119246D02*
X8865301Y-13176388D01*
X8865301Y-13176388D02*
X8855777Y-13195436D01*
X8855777Y-13195436D02*
X8846253Y-13204960D01*
X8846253Y-13204960D02*
X8827206Y-13214484D01*
X8827206Y-13214484D02*
X8798634Y-13214484D01*
X8979587Y-13214484D02*
X8960539Y-13204960D01*
X8960539Y-13204960D02*
X8951015Y-13185912D01*
X8951015Y-13185912D02*
X8951015Y-13014484D01*
X9131968Y-13204960D02*
X9112920Y-13214484D01*
X9112920Y-13214484D02*
X9074825Y-13214484D01*
X9074825Y-13214484D02*
X9055777Y-13204960D01*
X9055777Y-13204960D02*
X9046253Y-13185912D01*
X9046253Y-13185912D02*
X9046253Y-13109722D01*
X9046253Y-13109722D02*
X9055777Y-13090674D01*
X9055777Y-13090674D02*
X9074825Y-13081150D01*
X9074825Y-13081150D02*
X9112920Y-13081150D01*
X9112920Y-13081150D02*
X9131968Y-13090674D01*
X9131968Y-13090674D02*
X9141492Y-13109722D01*
X9141492Y-13109722D02*
X9141492Y-13128769D01*
X9141492Y-13128769D02*
X9046253Y-13147817D01*
X9208158Y-13290674D02*
X9217682Y-13281150D01*
X9217682Y-13281150D02*
X9236730Y-13252579D01*
X9236730Y-13252579D02*
X9246253Y-13233531D01*
X9246253Y-13233531D02*
X9255777Y-13204960D01*
X9255777Y-13204960D02*
X9265301Y-13157341D01*
X9265301Y-13157341D02*
X9265301Y-13119246D01*
X9265301Y-13119246D02*
X9255777Y-13071627D01*
X9255777Y-13071627D02*
X9246253Y-13043055D01*
X9246253Y-13043055D02*
X9236730Y-13024008D01*
X9236730Y-13024008D02*
X9217682Y-12995436D01*
X9217682Y-12995436D02*
X9208158Y-12985912D01*
X9570063Y-13290674D02*
X9560539Y-13281150D01*
X9560539Y-13281150D02*
X9541492Y-13252579D01*
X9541492Y-13252579D02*
X9531968Y-13233531D01*
X9531968Y-13233531D02*
X9522444Y-13204960D01*
X9522444Y-13204960D02*
X9512920Y-13157341D01*
X9512920Y-13157341D02*
X9512920Y-13119246D01*
X9512920Y-13119246D02*
X9522444Y-13071627D01*
X9522444Y-13071627D02*
X9531968Y-13043055D01*
X9531968Y-13043055D02*
X9541492Y-13024008D01*
X9541492Y-13024008D02*
X9560539Y-12995436D01*
X9560539Y-12995436D02*
X9570063Y-12985912D01*
X9646253Y-13081150D02*
X9646253Y-13214484D01*
X9646253Y-13100198D02*
X9655777Y-13090674D01*
X9655777Y-13090674D02*
X9674825Y-13081150D01*
X9674825Y-13081150D02*
X9703396Y-13081150D01*
X9703396Y-13081150D02*
X9722444Y-13090674D01*
X9722444Y-13090674D02*
X9731968Y-13109722D01*
X9731968Y-13109722D02*
X9731968Y-13214484D01*
X9855777Y-13214484D02*
X9836730Y-13204960D01*
X9836730Y-13204960D02*
X9827206Y-13195436D01*
X9827206Y-13195436D02*
X9817682Y-13176388D01*
X9817682Y-13176388D02*
X9817682Y-13119246D01*
X9817682Y-13119246D02*
X9827206Y-13100198D01*
X9827206Y-13100198D02*
X9836730Y-13090674D01*
X9836730Y-13090674D02*
X9855777Y-13081150D01*
X9855777Y-13081150D02*
X9884349Y-13081150D01*
X9884349Y-13081150D02*
X9903396Y-13090674D01*
X9903396Y-13090674D02*
X9912920Y-13100198D01*
X9912920Y-13100198D02*
X9922444Y-13119246D01*
X9922444Y-13119246D02*
X9922444Y-13176388D01*
X9922444Y-13176388D02*
X9912920Y-13195436D01*
X9912920Y-13195436D02*
X9903396Y-13204960D01*
X9903396Y-13204960D02*
X9884349Y-13214484D01*
X9884349Y-13214484D02*
X9855777Y-13214484D01*
X9979587Y-13081150D02*
X10055777Y-13081150D01*
X10008158Y-13014484D02*
X10008158Y-13185912D01*
X10008158Y-13185912D02*
X10017682Y-13204960D01*
X10017682Y-13204960D02*
X10036730Y-13214484D01*
X10036730Y-13214484D02*
X10055777Y-13214484D01*
X10274825Y-13081150D02*
X10274825Y-13281150D01*
X10274825Y-13090674D02*
X10293873Y-13081150D01*
X10293873Y-13081150D02*
X10331968Y-13081150D01*
X10331968Y-13081150D02*
X10351015Y-13090674D01*
X10351015Y-13090674D02*
X10360539Y-13100198D01*
X10360539Y-13100198D02*
X10370063Y-13119246D01*
X10370063Y-13119246D02*
X10370063Y-13176388D01*
X10370063Y-13176388D02*
X10360539Y-13195436D01*
X10360539Y-13195436D02*
X10351015Y-13204960D01*
X10351015Y-13204960D02*
X10331968Y-13214484D01*
X10331968Y-13214484D02*
X10293873Y-13214484D01*
X10293873Y-13214484D02*
X10274825Y-13204960D01*
X10484349Y-13214484D02*
X10465301Y-13204960D01*
X10465301Y-13204960D02*
X10455777Y-13185912D01*
X10455777Y-13185912D02*
X10455777Y-13014484D01*
X10646254Y-13214484D02*
X10646254Y-13109722D01*
X10646254Y-13109722D02*
X10636730Y-13090674D01*
X10636730Y-13090674D02*
X10617682Y-13081150D01*
X10617682Y-13081150D02*
X10579587Y-13081150D01*
X10579587Y-13081150D02*
X10560539Y-13090674D01*
X10646254Y-13204960D02*
X10627206Y-13214484D01*
X10627206Y-13214484D02*
X10579587Y-13214484D01*
X10579587Y-13214484D02*
X10560539Y-13204960D01*
X10560539Y-13204960D02*
X10551015Y-13185912D01*
X10551015Y-13185912D02*
X10551015Y-13166865D01*
X10551015Y-13166865D02*
X10560539Y-13147817D01*
X10560539Y-13147817D02*
X10579587Y-13138293D01*
X10579587Y-13138293D02*
X10627206Y-13138293D01*
X10627206Y-13138293D02*
X10646254Y-13128769D01*
X10712920Y-13081150D02*
X10789111Y-13081150D01*
X10741492Y-13014484D02*
X10741492Y-13185912D01*
X10741492Y-13185912D02*
X10751015Y-13204960D01*
X10751015Y-13204960D02*
X10770063Y-13214484D01*
X10770063Y-13214484D02*
X10789111Y-13214484D01*
X10931968Y-13204960D02*
X10912920Y-13214484D01*
X10912920Y-13214484D02*
X10874825Y-13214484D01*
X10874825Y-13214484D02*
X10855777Y-13204960D01*
X10855777Y-13204960D02*
X10846254Y-13185912D01*
X10846254Y-13185912D02*
X10846254Y-13109722D01*
X10846254Y-13109722D02*
X10855777Y-13090674D01*
X10855777Y-13090674D02*
X10874825Y-13081150D01*
X10874825Y-13081150D02*
X10912920Y-13081150D01*
X10912920Y-13081150D02*
X10931968Y-13090674D01*
X10931968Y-13090674D02*
X10941492Y-13109722D01*
X10941492Y-13109722D02*
X10941492Y-13128769D01*
X10941492Y-13128769D02*
X10846254Y-13147817D01*
X11112920Y-13214484D02*
X11112920Y-13014484D01*
X11112920Y-13204960D02*
X11093873Y-13214484D01*
X11093873Y-13214484D02*
X11055777Y-13214484D01*
X11055777Y-13214484D02*
X11036730Y-13204960D01*
X11036730Y-13204960D02*
X11027206Y-13195436D01*
X11027206Y-13195436D02*
X11017682Y-13176388D01*
X11017682Y-13176388D02*
X11017682Y-13119246D01*
X11017682Y-13119246D02*
X11027206Y-13100198D01*
X11027206Y-13100198D02*
X11036730Y-13090674D01*
X11036730Y-13090674D02*
X11055777Y-13081150D01*
X11055777Y-13081150D02*
X11093873Y-13081150D01*
X11093873Y-13081150D02*
X11112920Y-13090674D01*
X11189111Y-13290674D02*
X11198634Y-13281150D01*
X11198634Y-13281150D02*
X11217682Y-13252579D01*
X11217682Y-13252579D02*
X11227206Y-13233531D01*
X11227206Y-13233531D02*
X11236730Y-13204960D01*
X11236730Y-13204960D02*
X11246253Y-13157341D01*
X11246253Y-13157341D02*
X11246253Y-13119246D01*
X11246253Y-13119246D02*
X11236730Y-13071627D01*
X11236730Y-13071627D02*
X11227206Y-13043055D01*
X11227206Y-13043055D02*
X11217682Y-13024008D01*
X11217682Y-13024008D02*
X11198634Y-12995436D01*
X11198634Y-12995436D02*
X11189111Y-12985912D01*
M02*
