%FSLAX45Y45*%
G04 Gerber Fmt 4.5, Leading zero omitted, Abs format (unit mm)*
G04 Created by KiCad (PCBNEW (6.0.4-0)) date 2023-12-08 20:21:13*
%MOMM*%
%LPD*%
G01*
G04 APERTURE LIST*
%TA.AperFunction,Profile*%
%ADD10C,0.100000*%
%TD*%
%ADD11C,0.200000*%
%ADD12C,0.030000*%
%ADD13C,0.033060*%
%ADD14C,0.040000*%
%ADD15C,0.060000*%
%ADD16C,0.070000*%
%ADD17C,0.080000*%
%ADD18C,0.089000*%
%ADD19C,0.100000*%
%ADD20C,0.100076*%
%ADD21C,0.101600*%
%ADD22C,0.110000*%
%ADD23C,0.201000*%
G04 APERTURE END LIST*
D10*
X4883240Y-5988500D02*
X13107760Y-5988500D01*
X4600000Y-10989760D02*
X4883240Y-10989760D01*
X4600000Y-6892740D02*
X4883240Y-6892740D01*
X13107760Y-11894000D02*
X4883240Y-11894000D01*
X13107760Y-10989760D02*
X14012000Y-10989760D01*
X13107760Y-11894000D02*
X13107760Y-10989760D01*
X4883240Y-10989760D02*
X4883240Y-11894000D01*
X14012000Y-6892740D02*
X14012000Y-10989760D01*
X4600000Y-6892740D02*
X4600000Y-10989760D01*
X13107760Y-6892740D02*
X14012000Y-6892740D01*
X4883240Y-6892740D02*
X4883240Y-5988500D01*
X13107760Y-5988500D02*
X13107760Y-6892740D01*
D11*
D12*
X8874100Y-7690000D02*
X8904100Y-7720000D01*
X8904100Y-7690000D02*
X8874100Y-7720000D01*
X8874100Y-7790000D02*
X8904100Y-7820000D01*
X8904100Y-7790000D02*
X8874100Y-7820000D01*
X8924100Y-7740000D02*
X8954100Y-7770000D01*
X8954100Y-7740000D02*
X8924100Y-7770000D01*
X8974100Y-7690000D02*
X9004100Y-7720000D01*
X9004100Y-7690000D02*
X8974100Y-7720000D01*
X8974100Y-7790000D02*
X9004100Y-7820000D01*
X9004100Y-7790000D02*
X8974100Y-7820000D01*
D13*
X9145845Y-9650315D02*
G75*
G03*
X9145845Y-9650315I-16530J0D01*
G01*
X9711530Y-10216000D02*
G75*
G03*
X9711530Y-10216000I-16530J0D01*
G01*
D14*
X4996000Y-9754000D02*
X4996000Y-9794000D01*
X4976000Y-9774000D02*
X5016000Y-9774000D01*
X4998000Y-11278000D02*
X4998000Y-11318000D01*
X4978000Y-11298000D02*
X5018000Y-11298000D01*
X4998000Y-11497000D02*
X4998000Y-11537000D01*
X4978000Y-11517000D02*
X5018000Y-11517000D01*
X5000000Y-11743000D02*
X5000000Y-11783000D01*
X4980000Y-11763000D02*
X5020000Y-11763000D01*
X5001000Y-10293000D02*
X5001000Y-10333000D01*
X4981000Y-10313000D02*
X5021000Y-10313000D01*
X5001000Y-11039000D02*
X5001000Y-11079000D01*
X4981000Y-11059000D02*
X5021000Y-11059000D01*
X5003000Y-8180000D02*
X5003000Y-8220000D01*
X4983000Y-8200000D02*
X5023000Y-8200000D01*
X5005000Y-7983000D02*
X5005000Y-8023000D01*
X4985000Y-8003000D02*
X5025000Y-8003000D01*
X5006000Y-9946000D02*
X5006000Y-9986000D01*
X4986000Y-9966000D02*
X5026000Y-9966000D01*
X5009000Y-7557000D02*
X5009000Y-7597000D01*
X4989000Y-7577000D02*
X5029000Y-7577000D01*
X5011000Y-6791000D02*
X5011000Y-6831000D01*
X4991000Y-6811000D02*
X5031000Y-6811000D01*
X5015000Y-6100000D02*
X5015000Y-6140000D01*
X4995000Y-6120000D02*
X5035000Y-6120000D01*
X5015000Y-6417000D02*
X5015000Y-6457000D01*
X4995000Y-6437000D02*
X5035000Y-6437000D01*
X5067000Y-9335000D02*
X5067000Y-9375000D01*
X5047000Y-9355000D02*
X5087000Y-9355000D01*
X5131000Y-9401000D02*
X5131000Y-9441000D01*
X5111000Y-9421000D02*
X5151000Y-9421000D01*
X5165000Y-8910000D02*
X5165000Y-8950000D01*
X5145000Y-8930000D02*
X5185000Y-8930000D01*
X5177000Y-8439700D02*
X5177000Y-8479700D01*
X5157000Y-8459700D02*
X5197000Y-8459700D01*
X5204000Y-9132200D02*
X5204000Y-9172200D01*
X5184000Y-9152200D02*
X5224000Y-9152200D01*
X5206000Y-9678000D02*
X5206000Y-9718000D01*
X5186000Y-9698000D02*
X5226000Y-9698000D01*
X5225000Y-11743000D02*
X5225000Y-11783000D01*
X5205000Y-11763000D02*
X5245000Y-11763000D01*
X5263000Y-9500000D02*
X5263000Y-9540000D01*
X5243000Y-9520000D02*
X5283000Y-9520000D01*
X5266000Y-8366000D02*
X5266000Y-8406000D01*
X5246000Y-8386000D02*
X5286000Y-8386000D01*
X5266596Y-8525453D02*
X5266596Y-8565453D01*
X5246596Y-8545453D02*
X5286596Y-8545453D01*
X5277000Y-9201000D02*
X5277000Y-9241000D01*
X5257000Y-9221000D02*
X5297000Y-9221000D01*
X5288000Y-6100000D02*
X5288000Y-6140000D01*
X5268000Y-6120000D02*
X5308000Y-6120000D01*
X5334000Y-8737000D02*
X5334000Y-8777000D01*
X5314000Y-8757000D02*
X5354000Y-8757000D01*
X5357000Y-6591000D02*
X5357000Y-6631000D01*
X5337000Y-6611000D02*
X5377000Y-6611000D01*
X5459000Y-9727000D02*
X5459000Y-9767000D01*
X5439000Y-9747000D02*
X5479000Y-9747000D01*
X5476000Y-11740000D02*
X5476000Y-11780000D01*
X5456000Y-11760000D02*
X5496000Y-11760000D01*
X5526230Y-9885230D02*
X5526230Y-9925230D01*
X5506230Y-9905230D02*
X5546230Y-9905230D01*
X5541000Y-7979000D02*
X5541000Y-8019000D01*
X5521000Y-7999000D02*
X5561000Y-7999000D01*
X5545000Y-8246000D02*
X5545000Y-8286000D01*
X5525000Y-8266000D02*
X5565000Y-8266000D01*
X5578000Y-6100000D02*
X5578000Y-6140000D01*
X5558000Y-6120000D02*
X5598000Y-6120000D01*
X5589000Y-9161000D02*
X5589000Y-9201000D01*
X5569000Y-9181000D02*
X5609000Y-9181000D01*
X5604000Y-9525000D02*
X5604000Y-9565000D01*
X5584000Y-9545000D02*
X5624000Y-9545000D01*
X5610000Y-9820001D02*
X5610000Y-9860001D01*
X5590000Y-9840001D02*
X5630000Y-9840001D01*
X5627564Y-8888461D02*
X5627564Y-8928461D01*
X5607564Y-8908461D02*
X5647564Y-8908461D01*
X5668000Y-9304000D02*
X5668000Y-9344000D01*
X5648000Y-9324000D02*
X5688000Y-9324000D01*
X5675000Y-8516402D02*
X5675000Y-8556402D01*
X5655000Y-8536402D02*
X5695000Y-8536402D01*
X5705000Y-8646000D02*
X5705000Y-8686000D01*
X5685000Y-8666000D02*
X5725000Y-8666000D01*
X5726000Y-11738000D02*
X5726000Y-11778000D01*
X5706000Y-11758000D02*
X5746000Y-11758000D01*
X5750000Y-7998000D02*
X5750000Y-8038000D01*
X5730000Y-8018000D02*
X5770000Y-8018000D01*
X5776000Y-9820000D02*
X5776000Y-9860000D01*
X5756000Y-9840000D02*
X5796000Y-9840000D01*
X5783000Y-8225000D02*
X5783000Y-8265000D01*
X5763000Y-8245000D02*
X5803000Y-8245000D01*
X5805000Y-8361000D02*
X5805000Y-8401000D01*
X5785000Y-8381000D02*
X5825000Y-8381000D01*
X5815770Y-9251770D02*
X5815770Y-9291770D01*
X5795770Y-9271770D02*
X5835770Y-9271770D01*
X5821000Y-8726000D02*
X5821000Y-8766000D01*
X5801000Y-8746000D02*
X5841000Y-8746000D01*
X5823000Y-8519000D02*
X5823000Y-8559000D01*
X5803000Y-8539000D02*
X5843000Y-8539000D01*
X5829550Y-8877000D02*
X5829550Y-8917000D01*
X5809550Y-8897000D02*
X5849550Y-8897000D01*
X5829550Y-9074000D02*
X5829550Y-9114000D01*
X5809550Y-9094000D02*
X5849550Y-9094000D01*
X5869000Y-6100000D02*
X5869000Y-6140000D01*
X5849000Y-6120000D02*
X5889000Y-6120000D01*
X5969000Y-9893000D02*
X5969000Y-9933000D01*
X5949000Y-9913000D02*
X5989000Y-9913000D01*
X6000000Y-11738000D02*
X6000000Y-11778000D01*
X5980000Y-11758000D02*
X6020000Y-11758000D01*
X6053000Y-7953000D02*
X6053000Y-7993000D01*
X6033000Y-7973000D02*
X6073000Y-7973000D01*
X6060000Y-9204000D02*
X6060000Y-9244000D01*
X6040000Y-9224000D02*
X6080000Y-9224000D01*
X6060000Y-9642000D02*
X6060000Y-9682000D01*
X6040000Y-9662000D02*
X6080000Y-9662000D01*
X6060318Y-9423430D02*
X6060318Y-9463430D01*
X6040318Y-9443430D02*
X6080318Y-9443430D01*
X6082000Y-9521000D02*
X6082000Y-9561000D01*
X6062000Y-9541000D02*
X6102000Y-9541000D01*
X6119000Y-7837000D02*
X6119000Y-7877000D01*
X6099000Y-7857000D02*
X6139000Y-7857000D01*
X6124000Y-8336950D02*
X6124000Y-8376950D01*
X6104000Y-8356950D02*
X6144000Y-8356950D01*
X6156000Y-8594000D02*
X6156000Y-8634000D01*
X6136000Y-8614000D02*
X6176000Y-8614000D01*
X6159000Y-6097000D02*
X6159000Y-6137000D01*
X6139000Y-6117000D02*
X6179000Y-6117000D01*
X6174000Y-9034000D02*
X6174000Y-9074000D01*
X6154000Y-9054000D02*
X6194000Y-9054000D01*
X6181000Y-8065050D02*
X6181000Y-8105050D01*
X6161000Y-8085050D02*
X6201000Y-8085050D01*
X6187000Y-9897000D02*
X6187000Y-9937000D01*
X6167000Y-9917000D02*
X6207000Y-9917000D01*
X6190000Y-7766000D02*
X6190000Y-7806000D01*
X6170000Y-7786000D02*
X6210000Y-7786000D01*
X6258000Y-9116000D02*
X6258000Y-9156000D01*
X6238000Y-9136000D02*
X6278000Y-9136000D01*
X6260000Y-10185000D02*
X6260000Y-10225000D01*
X6240000Y-10205000D02*
X6280000Y-10205000D01*
X6268000Y-8476000D02*
X6268000Y-8516000D01*
X6248000Y-8496000D02*
X6288000Y-8496000D01*
X6270000Y-11736000D02*
X6270000Y-11776000D01*
X6250000Y-11756000D02*
X6290000Y-11756000D01*
X6285000Y-8358000D02*
X6285000Y-8398000D01*
X6265000Y-8378000D02*
X6305000Y-8378000D01*
X6301431Y-7523431D02*
X6301431Y-7563431D01*
X6281431Y-7543431D02*
X6321431Y-7543431D01*
X6445000Y-6097000D02*
X6445000Y-6137000D01*
X6425000Y-6117000D02*
X6465000Y-6117000D01*
X6479000Y-6647000D02*
X6479000Y-6687000D01*
X6459000Y-6667000D02*
X6499000Y-6667000D01*
X6561000Y-11737000D02*
X6561000Y-11777000D01*
X6541000Y-11757000D02*
X6581000Y-11757000D01*
X6579000Y-8768000D02*
X6579000Y-8808000D01*
X6559000Y-8788000D02*
X6599000Y-8788000D01*
X6631000Y-8524000D02*
X6631000Y-8564000D01*
X6611000Y-8544000D02*
X6651000Y-8544000D01*
X6651000Y-6657000D02*
X6651000Y-6697000D01*
X6631000Y-6677000D02*
X6671000Y-6677000D01*
X6657000Y-6812000D02*
X6657000Y-6852000D01*
X6637000Y-6832000D02*
X6677000Y-6832000D01*
X6659000Y-7436000D02*
X6659000Y-7476000D01*
X6639000Y-7456000D02*
X6679000Y-7456000D01*
X6660000Y-6970000D02*
X6660000Y-7010000D01*
X6640000Y-6990000D02*
X6680000Y-6990000D01*
X6679000Y-8012000D02*
X6679000Y-8052000D01*
X6659000Y-8032000D02*
X6699000Y-8032000D01*
X6700000Y-7645000D02*
X6700000Y-7685000D01*
X6680000Y-7665000D02*
X6720000Y-7665000D01*
X6707000Y-6094000D02*
X6707000Y-6134000D01*
X6687000Y-6114000D02*
X6727000Y-6114000D01*
X6712000Y-9255000D02*
X6712000Y-9295000D01*
X6692000Y-9275000D02*
X6732000Y-9275000D01*
X6712000Y-9400000D02*
X6712000Y-9440000D01*
X6692000Y-9420000D02*
X6732000Y-9420000D01*
X6734000Y-11080000D02*
X6734000Y-11120000D01*
X6714000Y-11100000D02*
X6754000Y-11100000D01*
X6772712Y-7207757D02*
X6772712Y-7247757D01*
X6752712Y-7227757D02*
X6792712Y-7227757D01*
X6777000Y-7313000D02*
X6777000Y-7353000D01*
X6757000Y-7333000D02*
X6797000Y-7333000D01*
X6805000Y-8999000D02*
X6805000Y-9039000D01*
X6785000Y-9019000D02*
X6825000Y-9019000D01*
X6841000Y-6938000D02*
X6841000Y-6978000D01*
X6821000Y-6958000D02*
X6861000Y-6958000D01*
X6849000Y-11737000D02*
X6849000Y-11777000D01*
X6829000Y-11757000D02*
X6869000Y-11757000D01*
X6858000Y-7691000D02*
X6858000Y-7731000D01*
X6838000Y-7711000D02*
X6878000Y-7711000D01*
X6860700Y-6541000D02*
X6860700Y-6581000D01*
X6840700Y-6561000D02*
X6880700Y-6561000D01*
X6860700Y-6728000D02*
X6860700Y-6768000D01*
X6840700Y-6748000D02*
X6880700Y-6748000D01*
X6861000Y-7500000D02*
X6861000Y-7540000D01*
X6841000Y-7520000D02*
X6881000Y-7520000D01*
X6930000Y-6818000D02*
X6930000Y-6858000D01*
X6910000Y-6838000D02*
X6950000Y-6838000D01*
X6933000Y-8737000D02*
X6933000Y-8777000D01*
X6913000Y-8757000D02*
X6953000Y-8757000D01*
X6956450Y-8859000D02*
X6956450Y-8899000D01*
X6936450Y-8879000D02*
X6976450Y-8879000D01*
X6994000Y-6094000D02*
X6994000Y-6134000D01*
X6974000Y-6114000D02*
X7014000Y-6114000D01*
X7016000Y-9784000D02*
X7016000Y-9824000D01*
X6996000Y-9804000D02*
X7036000Y-9804000D01*
X7035000Y-8991000D02*
X7035000Y-9031000D01*
X7015000Y-9011000D02*
X7055000Y-9011000D01*
X7067000Y-6741000D02*
X7067000Y-6781000D01*
X7047000Y-6761000D02*
X7087000Y-6761000D01*
X7070000Y-7171000D02*
X7070000Y-7211000D01*
X7050000Y-7191000D02*
X7090000Y-7191000D01*
X7094000Y-8854000D02*
X7094000Y-8894000D01*
X7074000Y-8874000D02*
X7114000Y-8874000D01*
X7139000Y-9182450D02*
X7139000Y-9222450D01*
X7119000Y-9202450D02*
X7159000Y-9202450D01*
X7155000Y-11737000D02*
X7155000Y-11777000D01*
X7135000Y-11757000D02*
X7175000Y-11757000D01*
X7247450Y-8139000D02*
X7247450Y-8179000D01*
X7227450Y-8159000D02*
X7267450Y-8159000D01*
X7247450Y-8261000D02*
X7247450Y-8301000D01*
X7227450Y-8281000D02*
X7267450Y-8281000D01*
X7270000Y-6094000D02*
X7270000Y-6134000D01*
X7250000Y-6114000D02*
X7290000Y-6114000D01*
X7289000Y-8522000D02*
X7289000Y-8562000D01*
X7269000Y-8542000D02*
X7309000Y-8542000D01*
X7292000Y-9013000D02*
X7292000Y-9053000D01*
X7272000Y-9033000D02*
X7312000Y-9033000D01*
X7302000Y-9950000D02*
X7302000Y-9990000D01*
X7282000Y-9970000D02*
X7322000Y-9970000D01*
X7339000Y-8665000D02*
X7339000Y-8705000D01*
X7319000Y-8685000D02*
X7359000Y-8685000D01*
X7376000Y-8934000D02*
X7376000Y-8974000D01*
X7356000Y-8954000D02*
X7396000Y-8954000D01*
X7462000Y-11733000D02*
X7462000Y-11773000D01*
X7442000Y-11753000D02*
X7482000Y-11753000D01*
X7480000Y-9766000D02*
X7480000Y-9806000D01*
X7460000Y-9786000D02*
X7500000Y-9786000D01*
X7484598Y-9865844D02*
X7484598Y-9905844D01*
X7464598Y-9885844D02*
X7504598Y-9885844D01*
X7485000Y-9037550D02*
X7485000Y-9077550D01*
X7465000Y-9057550D02*
X7505000Y-9057550D01*
X7510000Y-6094000D02*
X7510000Y-6134000D01*
X7490000Y-6114000D02*
X7530000Y-6114000D01*
X7514000Y-10833000D02*
X7514000Y-10873000D01*
X7494000Y-10853000D02*
X7534000Y-10853000D01*
X7538000Y-9234000D02*
X7538000Y-9274000D01*
X7518000Y-9254000D02*
X7558000Y-9254000D01*
X7549000Y-8733000D02*
X7549000Y-8773000D01*
X7529000Y-8753000D02*
X7569000Y-8753000D01*
X7565000Y-8934000D02*
X7565000Y-8974000D01*
X7545000Y-8954000D02*
X7585000Y-8954000D01*
X7566000Y-6632000D02*
X7566000Y-6672000D01*
X7546000Y-6652000D02*
X7586000Y-6652000D01*
X7611770Y-8244770D02*
X7611770Y-8284770D01*
X7591770Y-8264770D02*
X7631770Y-8264770D01*
X7633000Y-8120000D02*
X7633000Y-8160000D01*
X7613000Y-8140000D02*
X7653000Y-8140000D01*
X7637000Y-9110000D02*
X7637000Y-9150000D01*
X7617000Y-9130000D02*
X7657000Y-9130000D01*
X7638000Y-7946000D02*
X7638000Y-7986000D01*
X7618000Y-7966000D02*
X7658000Y-7966000D01*
X7654000Y-9348000D02*
X7654000Y-9388000D01*
X7634000Y-9368000D02*
X7674000Y-9368000D01*
X7657000Y-7097000D02*
X7657000Y-7137000D01*
X7637000Y-7117000D02*
X7677000Y-7117000D01*
X7668000Y-7517000D02*
X7668000Y-7557000D01*
X7648000Y-7537000D02*
X7688000Y-7537000D01*
X7682000Y-9722000D02*
X7682000Y-9762000D01*
X7662000Y-9742000D02*
X7702000Y-9742000D01*
X7683000Y-9481000D02*
X7683000Y-9521000D01*
X7663000Y-9501000D02*
X7703000Y-9501000D01*
X7687000Y-6927000D02*
X7687000Y-6967000D01*
X7667000Y-6947000D02*
X7707000Y-6947000D01*
X7728000Y-7219000D02*
X7728000Y-7259000D01*
X7708000Y-7239000D02*
X7748000Y-7239000D01*
X7732000Y-8374000D02*
X7732000Y-8414000D01*
X7712000Y-8394000D02*
X7752000Y-8394000D01*
X7737000Y-6094050D02*
X7737000Y-6134050D01*
X7717000Y-6114050D02*
X7757000Y-6114050D01*
X7749000Y-8515000D02*
X7749000Y-8555000D01*
X7729000Y-8535000D02*
X7769000Y-8535000D01*
X7749000Y-8936000D02*
X7749000Y-8976000D01*
X7729000Y-8956000D02*
X7769000Y-8956000D01*
X7753000Y-8730000D02*
X7753000Y-8770000D01*
X7733000Y-8750000D02*
X7773000Y-8750000D01*
X7763000Y-11733000D02*
X7763000Y-11773000D01*
X7743000Y-11753000D02*
X7783000Y-11753000D01*
X7766000Y-9628000D02*
X7766000Y-9668000D01*
X7746000Y-9648000D02*
X7786000Y-9648000D01*
X7780000Y-6712000D02*
X7780000Y-6752000D01*
X7760000Y-6732000D02*
X7800000Y-6732000D01*
X7782000Y-7525000D02*
X7782000Y-7565000D01*
X7762000Y-7545000D02*
X7802000Y-7545000D01*
X7786750Y-9504250D02*
X7786750Y-9544250D01*
X7766750Y-9524250D02*
X7806750Y-9524250D01*
X7926500Y-7896500D02*
X7926500Y-7936500D01*
X7906500Y-7916500D02*
X7946500Y-7916500D01*
X7971000Y-9687000D02*
X7971000Y-9727000D01*
X7951000Y-9707000D02*
X7991000Y-9707000D01*
X7989000Y-9863000D02*
X7989000Y-9903000D01*
X7969000Y-9883000D02*
X8009000Y-9883000D01*
X8004000Y-6094050D02*
X8004000Y-6134050D01*
X7984000Y-6114050D02*
X8024000Y-6114050D01*
X8012000Y-7979000D02*
X8012000Y-8019000D01*
X7992000Y-7999000D02*
X8032000Y-7999000D01*
X8036000Y-8744000D02*
X8036000Y-8784000D01*
X8016000Y-8764000D02*
X8056000Y-8764000D01*
X8090450Y-9322000D02*
X8090450Y-9362000D01*
X8070450Y-9342000D02*
X8110450Y-9342000D01*
X8091000Y-9755000D02*
X8091000Y-9795000D01*
X8071000Y-9775000D02*
X8111000Y-9775000D01*
X8099000Y-11731000D02*
X8099000Y-11771000D01*
X8079000Y-11751000D02*
X8119000Y-11751000D01*
X8127000Y-9585000D02*
X8127000Y-9625000D01*
X8107000Y-9605000D02*
X8147000Y-9605000D01*
X8170000Y-9477000D02*
X8170000Y-9517000D01*
X8150000Y-9497000D02*
X8190000Y-9497000D01*
X8173000Y-8907000D02*
X8173000Y-8947000D01*
X8153000Y-8927000D02*
X8193000Y-8927000D01*
X8194000Y-7332000D02*
X8194000Y-7372000D01*
X8174000Y-7352000D02*
X8214000Y-7352000D01*
X8206000Y-8135000D02*
X8206000Y-8175000D01*
X8186000Y-8155000D02*
X8226000Y-8155000D01*
X8215000Y-8319000D02*
X8215000Y-8359000D01*
X8195000Y-8339000D02*
X8235000Y-8339000D01*
X8222000Y-8523000D02*
X8222000Y-8563000D01*
X8202000Y-8543000D02*
X8242000Y-8543000D01*
X8223000Y-7143000D02*
X8223000Y-7183000D01*
X8203000Y-7163000D02*
X8243000Y-7163000D01*
X8265000Y-7001000D02*
X8265000Y-7041000D01*
X8245000Y-7021000D02*
X8285000Y-7021000D01*
X8283000Y-6514000D02*
X8283000Y-6554000D01*
X8263000Y-6534000D02*
X8303000Y-6534000D01*
X8289000Y-7262000D02*
X8289000Y-7302000D01*
X8269000Y-7282000D02*
X8309000Y-7282000D01*
X8307000Y-7932000D02*
X8307000Y-7972000D01*
X8287000Y-7952000D02*
X8327000Y-7952000D01*
X8317000Y-6093000D02*
X8317000Y-6133000D01*
X8297000Y-6113000D02*
X8337000Y-6113000D01*
X8323000Y-8725000D02*
X8323000Y-8765000D01*
X8303000Y-8745000D02*
X8343000Y-8745000D01*
X8330000Y-9070000D02*
X8330000Y-9110000D01*
X8310000Y-9090000D02*
X8350000Y-9090000D01*
X8336000Y-11739000D02*
X8336000Y-11779000D01*
X8316000Y-11759000D02*
X8356000Y-11759000D01*
X8393508Y-9486507D02*
X8393508Y-9526507D01*
X8373508Y-9506507D02*
X8413508Y-9506507D01*
X8434000Y-8258000D02*
X8434000Y-8298000D01*
X8414000Y-8278000D02*
X8454000Y-8278000D01*
X8436000Y-6543000D02*
X8436000Y-6583000D01*
X8416000Y-6563000D02*
X8456000Y-6563000D01*
X8439000Y-7848000D02*
X8439000Y-7888000D01*
X8419000Y-7868000D02*
X8459000Y-7868000D01*
X8442000Y-8871000D02*
X8442000Y-8911000D01*
X8422000Y-8891000D02*
X8462000Y-8891000D01*
X8446000Y-7747000D02*
X8446000Y-7787000D01*
X8426000Y-7767000D02*
X8466000Y-7767000D01*
X8451598Y-9584550D02*
X8451598Y-9624550D01*
X8431598Y-9604550D02*
X8471598Y-9604550D01*
X8460000Y-9247000D02*
X8460000Y-9287000D01*
X8440000Y-9267000D02*
X8480000Y-9267000D01*
X8472000Y-7167000D02*
X8472000Y-7207000D01*
X8452000Y-7187000D02*
X8492000Y-7187000D01*
X8500000Y-8553000D02*
X8500000Y-8593000D01*
X8480000Y-8573000D02*
X8520000Y-8573000D01*
X8512000Y-9806000D02*
X8512000Y-9846000D01*
X8492000Y-9826000D02*
X8532000Y-9826000D01*
X8612000Y-6686000D02*
X8612000Y-6726000D01*
X8592000Y-6706000D02*
X8632000Y-6706000D01*
X8614000Y-7171000D02*
X8614000Y-7211000D01*
X8594000Y-7191000D02*
X8634000Y-7191000D01*
X8632000Y-6093000D02*
X8632000Y-6133000D01*
X8612000Y-6113000D02*
X8652000Y-6113000D01*
X8633451Y-8410549D02*
X8633451Y-8450549D01*
X8613451Y-8430549D02*
X8653451Y-8430549D01*
X8636000Y-10666000D02*
X8636000Y-10706000D01*
X8616000Y-10686000D02*
X8656000Y-10686000D01*
X8639000Y-9774000D02*
X8639000Y-9814000D01*
X8619000Y-9794000D02*
X8659000Y-9794000D01*
X8644000Y-8253000D02*
X8644000Y-8293000D01*
X8624000Y-8273000D02*
X8664000Y-8273000D01*
X8644000Y-11734000D02*
X8644000Y-11774000D01*
X8624000Y-11754000D02*
X8664000Y-11754000D01*
X8699000Y-6901000D02*
X8699000Y-6941000D01*
X8679000Y-6921000D02*
X8719000Y-6921000D01*
X8732000Y-6589450D02*
X8732000Y-6629450D01*
X8712000Y-6609450D02*
X8752000Y-6609450D01*
X8753000Y-8554000D02*
X8753000Y-8594000D01*
X8733000Y-8574000D02*
X8773000Y-8574000D01*
X8761000Y-8825000D02*
X8761000Y-8865000D01*
X8741000Y-8845000D02*
X8781000Y-8845000D01*
X8769000Y-10552000D02*
X8769000Y-10592000D01*
X8749000Y-10572000D02*
X8789000Y-10572000D01*
X8789000Y-8410000D02*
X8789000Y-8450000D01*
X8769000Y-8430000D02*
X8809000Y-8430000D01*
X8824000Y-6746000D02*
X8824000Y-6786000D01*
X8804000Y-6766000D02*
X8844000Y-6766000D01*
X8838000Y-7978000D02*
X8838000Y-8018000D01*
X8818000Y-7998000D02*
X8858000Y-7998000D01*
X8838000Y-8190000D02*
X8838000Y-8230000D01*
X8818000Y-8210000D02*
X8858000Y-8210000D01*
X8852000Y-9791000D02*
X8852000Y-9831000D01*
X8832000Y-9811000D02*
X8872000Y-9811000D01*
X8868000Y-8079000D02*
X8868000Y-8119000D01*
X8848000Y-8099000D02*
X8888000Y-8099000D01*
X8875000Y-10032000D02*
X8875000Y-10072000D01*
X8855000Y-10052000D02*
X8895000Y-10052000D01*
X8881000Y-11715000D02*
X8881000Y-11755000D01*
X8861000Y-11735000D02*
X8901000Y-11735000D01*
X8895000Y-7123000D02*
X8895000Y-7163000D01*
X8875000Y-7143000D02*
X8915000Y-7143000D01*
X8895000Y-8549000D02*
X8895000Y-8589000D01*
X8875000Y-8569000D02*
X8915000Y-8569000D01*
X8896000Y-7494000D02*
X8896000Y-7534000D01*
X8876000Y-7514000D02*
X8916000Y-7514000D01*
X8897000Y-6589450D02*
X8897000Y-6629450D01*
X8877000Y-6609450D02*
X8917000Y-6609450D01*
X8903000Y-6899000D02*
X8903000Y-6939000D01*
X8883000Y-6919000D02*
X8923000Y-6919000D01*
X8904000Y-7303000D02*
X8904000Y-7343000D01*
X8884000Y-7323000D02*
X8924000Y-7323000D01*
X8930000Y-8425000D02*
X8930000Y-8465000D01*
X8910000Y-8445000D02*
X8950000Y-8445000D01*
X8942000Y-7980000D02*
X8942000Y-8020000D01*
X8922000Y-8000000D02*
X8962000Y-8000000D01*
X8943000Y-8232000D02*
X8943000Y-8272000D01*
X8923000Y-8252000D02*
X8963000Y-8252000D01*
X8953979Y-6082481D02*
X8953979Y-6122481D01*
X8933979Y-6102481D02*
X8973979Y-6102481D01*
X8984050Y-7017000D02*
X8984050Y-7057000D01*
X8964050Y-7037000D02*
X9004050Y-7037000D01*
X8984050Y-7209000D02*
X8984050Y-7249000D01*
X8964050Y-7229000D02*
X9004050Y-7229000D01*
X8984050Y-7388000D02*
X8984050Y-7428000D01*
X8964050Y-7408000D02*
X9004050Y-7408000D01*
X9010000Y-6750099D02*
X9010000Y-6790099D01*
X8990000Y-6770099D02*
X9030000Y-6770099D01*
X9014000Y-7499000D02*
X9014000Y-7539000D01*
X8994000Y-7519000D02*
X9034000Y-7519000D01*
X9018000Y-8080000D02*
X9018000Y-8120000D01*
X8998000Y-8100000D02*
X9038000Y-8100000D01*
X9038000Y-8190000D02*
X9038000Y-8230000D01*
X9018000Y-8210000D02*
X9058000Y-8210000D01*
X9040208Y-7976917D02*
X9040208Y-8016917D01*
X9020208Y-7996917D02*
X9060208Y-7996917D01*
X9055000Y-8539000D02*
X9055000Y-8579000D01*
X9035000Y-8559000D02*
X9075000Y-8559000D01*
X9064000Y-10737000D02*
X9064000Y-10777000D01*
X9044000Y-10757000D02*
X9084000Y-10757000D01*
X9075000Y-6587000D02*
X9075000Y-6627000D01*
X9055000Y-6607000D02*
X9095000Y-6607000D01*
X9085000Y-6900000D02*
X9085000Y-6940000D01*
X9065000Y-6920000D02*
X9105000Y-6920000D01*
X9095000Y-10041000D02*
X9095000Y-10081000D01*
X9075000Y-10061000D02*
X9115000Y-10061000D01*
X9108000Y-9875000D02*
X9108000Y-9915000D01*
X9088000Y-9895000D02*
X9128000Y-9895000D01*
X9121000Y-10332000D02*
X9121000Y-10372000D01*
X9101000Y-10352000D02*
X9141000Y-10352000D01*
X9123000Y-10576000D02*
X9123000Y-10616000D01*
X9103000Y-10596000D02*
X9143000Y-10596000D01*
X9213000Y-6750099D02*
X9213000Y-6790099D01*
X9193000Y-6770099D02*
X9233000Y-6770099D01*
X9251000Y-6086000D02*
X9251000Y-6126000D01*
X9231000Y-6106000D02*
X9271000Y-6106000D01*
X9279000Y-6902000D02*
X9279000Y-6942000D01*
X9259000Y-6922000D02*
X9299000Y-6922000D01*
X9281000Y-6587000D02*
X9281000Y-6627000D01*
X9261000Y-6607000D02*
X9301000Y-6607000D01*
X9309000Y-10602000D02*
X9309000Y-10642000D01*
X9289000Y-10622000D02*
X9329000Y-10622000D01*
X9310000Y-10455000D02*
X9310000Y-10495000D01*
X9290000Y-10475000D02*
X9330000Y-10475000D01*
X9313000Y-10282000D02*
X9313000Y-10322000D01*
X9293000Y-10302000D02*
X9333000Y-10302000D01*
X9316000Y-7273000D02*
X9316000Y-7313000D01*
X9296000Y-7293000D02*
X9336000Y-7293000D01*
X9318000Y-7468000D02*
X9318000Y-7508000D01*
X9298000Y-7488000D02*
X9338000Y-7488000D01*
X9320000Y-7089000D02*
X9320000Y-7129000D01*
X9300000Y-7109000D02*
X9340000Y-7109000D01*
X9365000Y-8729000D02*
X9365000Y-8769000D01*
X9345000Y-8749000D02*
X9385000Y-8749000D01*
X9468000Y-10177000D02*
X9468000Y-10217000D01*
X9448000Y-10197000D02*
X9488000Y-10197000D01*
X9470000Y-8723000D02*
X9470000Y-8763000D01*
X9450000Y-8743000D02*
X9490000Y-8743000D01*
X9478000Y-8498000D02*
X9478000Y-8538000D01*
X9458000Y-8518000D02*
X9498000Y-8518000D01*
X9478412Y-7936819D02*
X9478412Y-7976819D01*
X9458412Y-7956819D02*
X9498412Y-7956819D01*
X9490000Y-9192000D02*
X9490000Y-9232000D01*
X9470000Y-9212000D02*
X9510000Y-9212000D01*
X9507000Y-7482000D02*
X9507000Y-7522000D01*
X9487000Y-7502000D02*
X9527000Y-7502000D01*
X9527000Y-6084000D02*
X9527000Y-6124000D01*
X9507000Y-6104000D02*
X9547000Y-6104000D01*
X9538000Y-11768000D02*
X9538000Y-11808000D01*
X9518000Y-11788000D02*
X9558000Y-11788000D01*
X9559000Y-9762550D02*
X9559000Y-9802550D01*
X9539000Y-9782550D02*
X9579000Y-9782550D01*
X9584000Y-7914050D02*
X9584000Y-7954050D01*
X9564000Y-7934050D02*
X9604000Y-7934050D01*
X9607000Y-8372000D02*
X9607000Y-8412000D01*
X9587000Y-8392000D02*
X9627000Y-8392000D01*
X9689141Y-7936300D02*
X9689141Y-7976300D01*
X9669141Y-7956300D02*
X9709141Y-7956300D01*
X9727000Y-7502000D02*
X9727000Y-7542000D01*
X9707000Y-7522000D02*
X9747000Y-7522000D01*
X9729000Y-9192000D02*
X9729000Y-9232000D01*
X9709000Y-9212000D02*
X9749000Y-9212000D01*
X9745266Y-8672266D02*
X9745266Y-8712266D01*
X9725266Y-8692266D02*
X9765266Y-8692266D01*
X9778000Y-11768000D02*
X9778000Y-11808000D01*
X9758000Y-11788000D02*
X9798000Y-11788000D01*
X9796000Y-7913550D02*
X9796000Y-7953550D01*
X9776000Y-7933550D02*
X9816000Y-7933550D01*
X9798000Y-6091000D02*
X9798000Y-6131000D01*
X9778000Y-6111000D02*
X9818000Y-6111000D01*
X9806000Y-10352000D02*
X9806000Y-10392000D01*
X9786000Y-10372000D02*
X9826000Y-10372000D01*
X9809000Y-9926000D02*
X9809000Y-9966000D01*
X9789000Y-9946000D02*
X9829000Y-9946000D01*
X9810000Y-9690000D02*
X9810000Y-9730000D01*
X9790000Y-9710000D02*
X9830000Y-9710000D01*
X9861000Y-9405000D02*
X9861000Y-9445000D01*
X9841000Y-9425000D02*
X9881000Y-9425000D01*
X9866235Y-8332234D02*
X9866235Y-8372234D01*
X9846235Y-8352234D02*
X9886235Y-8352234D01*
X9873000Y-8560000D02*
X9873000Y-8600000D01*
X9853000Y-8580000D02*
X9893000Y-8580000D01*
X9899789Y-7941281D02*
X9899789Y-7981281D01*
X9879789Y-7961281D02*
X9919789Y-7961281D01*
X9913000Y-7451000D02*
X9913000Y-7491000D01*
X9893000Y-7471000D02*
X9933000Y-7471000D01*
X9943000Y-9298000D02*
X9943000Y-9338000D01*
X9923000Y-9318000D02*
X9963000Y-9318000D01*
X9950000Y-9192000D02*
X9950000Y-9232000D01*
X9930000Y-9212000D02*
X9970000Y-9212000D01*
X9951000Y-10205000D02*
X9951000Y-10245000D01*
X9931000Y-10225000D02*
X9971000Y-10225000D01*
X9954000Y-10365000D02*
X9954000Y-10405000D01*
X9934000Y-10385000D02*
X9974000Y-10385000D01*
X9960000Y-7094000D02*
X9960000Y-7134000D01*
X9940000Y-7114000D02*
X9980000Y-7114000D01*
X9963235Y-8235234D02*
X9963235Y-8275234D01*
X9943235Y-8255234D02*
X9983235Y-8255234D01*
X9998000Y-8440000D02*
X9998000Y-8480000D01*
X9978000Y-8460000D02*
X10018000Y-8460000D01*
X10011000Y-7496000D02*
X10011000Y-7536000D01*
X9991000Y-7516000D02*
X10031000Y-7516000D01*
X10015487Y-11769862D02*
X10015487Y-11809862D01*
X9995487Y-11789862D02*
X10035487Y-11789862D01*
X10025000Y-7897000D02*
X10025000Y-7937000D01*
X10005000Y-7917000D02*
X10045000Y-7917000D01*
X10042181Y-8646181D02*
X10042181Y-8686181D01*
X10022181Y-8666181D02*
X10062181Y-8666181D01*
X10067000Y-8131000D02*
X10067000Y-8171000D01*
X10047000Y-8151000D02*
X10087000Y-8151000D01*
X10100000Y-6083098D02*
X10100000Y-6123098D01*
X10080000Y-6103098D02*
X10120000Y-6103098D01*
X10118000Y-8316000D02*
X10118000Y-8356000D01*
X10098000Y-8336000D02*
X10138000Y-8336000D01*
X10123000Y-7997000D02*
X10123000Y-8037000D01*
X10103000Y-8017000D02*
X10143000Y-8017000D01*
X10141181Y-8547181D02*
X10141181Y-8587181D01*
X10121181Y-8567181D02*
X10161181Y-8567181D01*
X10143000Y-9192000D02*
X10143000Y-9232000D01*
X10123000Y-9212000D02*
X10163000Y-9212000D01*
X10170000Y-6630000D02*
X10170000Y-6670000D01*
X10150000Y-6650000D02*
X10190000Y-6650000D01*
X10215000Y-11769000D02*
X10215000Y-11809000D01*
X10195000Y-11789000D02*
X10235000Y-11789000D01*
X10249000Y-9957000D02*
X10249000Y-9997000D01*
X10229000Y-9977000D02*
X10269000Y-9977000D01*
X10289000Y-7221000D02*
X10289000Y-7261000D01*
X10269000Y-7241000D02*
X10309000Y-7241000D01*
X10294000Y-7413000D02*
X10294000Y-7453000D01*
X10274000Y-7433000D02*
X10314000Y-7433000D01*
X10311082Y-8580000D02*
X10311082Y-8620000D01*
X10291082Y-8600000D02*
X10331082Y-8600000D01*
X10312000Y-7768000D02*
X10312000Y-7808000D01*
X10292000Y-7788000D02*
X10332000Y-7788000D01*
X10315000Y-7950000D02*
X10315000Y-7990000D01*
X10295000Y-7970000D02*
X10335000Y-7970000D01*
X10315000Y-8200000D02*
X10315000Y-8240000D01*
X10295000Y-8220000D02*
X10335000Y-8220000D01*
X10316000Y-7605450D02*
X10316000Y-7645450D01*
X10296000Y-7625450D02*
X10336000Y-7625450D01*
X10316000Y-9419000D02*
X10316000Y-9459000D01*
X10296000Y-9439000D02*
X10336000Y-9439000D01*
X10321000Y-8385000D02*
X10321000Y-8425000D01*
X10301000Y-8405000D02*
X10341000Y-8405000D01*
X10328000Y-9205000D02*
X10328000Y-9245000D01*
X10308000Y-9225000D02*
X10348000Y-9225000D01*
X10372000Y-9804000D02*
X10372000Y-9844000D01*
X10352000Y-9824000D02*
X10392000Y-9824000D01*
X10378000Y-6084000D02*
X10378000Y-6124000D01*
X10358000Y-6104000D02*
X10398000Y-6104000D01*
X10407000Y-6547000D02*
X10407000Y-6587000D01*
X10387000Y-6567000D02*
X10427000Y-6567000D01*
X10461000Y-9105000D02*
X10461000Y-9145000D01*
X10441000Y-9125000D02*
X10481000Y-9125000D01*
X10475000Y-7413000D02*
X10475000Y-7453000D01*
X10455000Y-7433000D02*
X10495000Y-7433000D01*
X10477000Y-11769000D02*
X10477000Y-11809000D01*
X10457000Y-11789000D02*
X10497000Y-11789000D01*
X10484000Y-7771000D02*
X10484000Y-7811000D01*
X10464000Y-7791000D02*
X10504000Y-7791000D01*
X10484000Y-8411000D02*
X10484000Y-8451000D01*
X10464000Y-8431000D02*
X10504000Y-8431000D01*
X10486000Y-6780000D02*
X10486000Y-6820000D01*
X10466000Y-6800000D02*
X10506000Y-6800000D01*
X10490000Y-8567000D02*
X10490000Y-8607000D01*
X10470000Y-8587000D02*
X10510000Y-8587000D01*
X10511000Y-9669000D02*
X10511000Y-9709000D01*
X10491000Y-9689000D02*
X10531000Y-9689000D01*
X10526000Y-7610000D02*
X10526000Y-7650000D01*
X10506000Y-7630000D02*
X10546000Y-7630000D01*
X10545000Y-6659000D02*
X10545000Y-6699000D01*
X10525000Y-6679000D02*
X10565000Y-6679000D01*
X10563000Y-9370000D02*
X10563000Y-9410000D01*
X10543000Y-9390000D02*
X10583000Y-9390000D01*
X10607000Y-8969000D02*
X10607000Y-9009000D01*
X10587000Y-8989000D02*
X10627000Y-8989000D01*
X10618000Y-7413000D02*
X10618000Y-7453000D01*
X10598000Y-7433000D02*
X10638000Y-7433000D01*
X10628000Y-9569000D02*
X10628000Y-9609000D01*
X10608000Y-9589000D02*
X10648000Y-9589000D01*
X10666000Y-6084000D02*
X10666000Y-6124000D01*
X10646000Y-6104000D02*
X10686000Y-6104000D01*
X10669000Y-7768000D02*
X10669000Y-7808000D01*
X10649000Y-7788000D02*
X10689000Y-7788000D01*
X10672000Y-8408000D02*
X10672000Y-8448000D01*
X10652000Y-8428000D02*
X10692000Y-8428000D01*
X10678000Y-8563000D02*
X10678000Y-8603000D01*
X10658000Y-8583000D02*
X10698000Y-8583000D01*
X10713000Y-9226000D02*
X10713000Y-9266000D01*
X10693000Y-9246000D02*
X10733000Y-9246000D01*
X10715000Y-11769000D02*
X10715000Y-11809000D01*
X10695000Y-11789000D02*
X10735000Y-11789000D01*
X10746000Y-8830000D02*
X10746000Y-8870000D01*
X10726000Y-8850000D02*
X10766000Y-8850000D01*
X10758000Y-7407000D02*
X10758000Y-7447000D01*
X10738000Y-7427000D02*
X10778000Y-7427000D01*
X10763117Y-7627594D02*
X10763117Y-7667594D01*
X10743117Y-7647594D02*
X10783117Y-7647594D01*
X10780000Y-9686000D02*
X10780000Y-9726000D01*
X10760000Y-9706000D02*
X10800000Y-9706000D01*
X10826235Y-7909765D02*
X10826235Y-7949765D01*
X10806235Y-7929765D02*
X10846235Y-7929765D01*
X10843000Y-8400000D02*
X10843000Y-8440000D01*
X10823000Y-8420000D02*
X10863000Y-8420000D01*
X10843000Y-8565000D02*
X10843000Y-8605000D01*
X10823000Y-8585000D02*
X10863000Y-8585000D01*
X10857000Y-10222000D02*
X10857000Y-10262000D01*
X10837000Y-10242000D02*
X10877000Y-10242000D01*
X10942000Y-6081000D02*
X10942000Y-6121000D01*
X10922000Y-6101000D02*
X10962000Y-6101000D01*
X10953000Y-7801000D02*
X10953000Y-7841000D01*
X10933000Y-7821000D02*
X10973000Y-7821000D01*
X10960000Y-7643000D02*
X10960000Y-7683000D01*
X10940000Y-7663000D02*
X10980000Y-7663000D01*
X10960000Y-11766000D02*
X10960000Y-11806000D01*
X10940000Y-11786000D02*
X10980000Y-11786000D01*
X10969000Y-10057000D02*
X10969000Y-10097000D01*
X10949000Y-10077000D02*
X10989000Y-10077000D01*
X10985000Y-8203000D02*
X10985000Y-8243000D01*
X10965000Y-8223000D02*
X11005000Y-8223000D01*
X10993000Y-8570000D02*
X10993000Y-8610000D01*
X10973000Y-8590000D02*
X11013000Y-8590000D01*
X10996000Y-8395000D02*
X10996000Y-8435000D01*
X10976000Y-8415000D02*
X11016000Y-8415000D01*
X11102000Y-8076000D02*
X11102000Y-8116000D01*
X11082000Y-8096000D02*
X11122000Y-8096000D01*
X11150000Y-8842000D02*
X11150000Y-8882000D01*
X11130000Y-8862000D02*
X11170000Y-8862000D01*
X11176450Y-10075977D02*
X11176450Y-10115977D01*
X11156450Y-10095977D02*
X11196450Y-10095977D01*
X11177000Y-7653000D02*
X11177000Y-7693000D01*
X11157000Y-7673000D02*
X11197000Y-7673000D01*
X11182000Y-9547000D02*
X11182000Y-9587000D01*
X11162000Y-9567000D02*
X11202000Y-9567000D01*
X11200000Y-9005000D02*
X11200000Y-9045000D01*
X11180000Y-9025000D02*
X11220000Y-9025000D01*
X11220000Y-8183000D02*
X11220000Y-8223000D01*
X11200000Y-8203000D02*
X11240000Y-8203000D01*
X11250000Y-6085000D02*
X11250000Y-6125000D01*
X11230000Y-6105000D02*
X11270000Y-6105000D01*
X11280000Y-11763000D02*
X11280000Y-11803000D01*
X11260000Y-11783000D02*
X11300000Y-11783000D01*
X11295000Y-9663000D02*
X11295000Y-9703000D01*
X11275000Y-9683000D02*
X11315000Y-9683000D01*
X11320000Y-10083000D02*
X11320000Y-10123000D01*
X11300000Y-10103000D02*
X11340000Y-10103000D01*
X11494950Y-10112000D02*
X11494950Y-10152000D01*
X11474950Y-10132000D02*
X11514950Y-10132000D01*
X11530000Y-6088000D02*
X11530000Y-6128000D01*
X11510000Y-6108000D02*
X11550000Y-6108000D01*
X11537000Y-9678450D02*
X11537000Y-9718450D01*
X11517000Y-9698450D02*
X11557000Y-9698450D01*
X11583000Y-10165000D02*
X11583000Y-10205000D01*
X11563000Y-10185000D02*
X11603000Y-10185000D01*
X11627000Y-11757000D02*
X11627000Y-11797000D01*
X11607000Y-11777000D02*
X11647000Y-11777000D01*
X11688550Y-9747000D02*
X11688550Y-9787000D01*
X11668550Y-9767000D02*
X11708550Y-9767000D01*
X11688550Y-9852000D02*
X11688550Y-9892000D01*
X11668550Y-9872000D02*
X11708550Y-9872000D01*
X11764307Y-10348808D02*
X11764307Y-10388808D01*
X11744307Y-10368808D02*
X11784307Y-10368808D01*
X11794000Y-9238000D02*
X11794000Y-9278000D01*
X11774000Y-9258000D02*
X11814000Y-9258000D01*
X11807000Y-10932000D02*
X11807000Y-10972000D01*
X11787000Y-10952000D02*
X11827000Y-10952000D01*
X11835450Y-10086309D02*
X11835450Y-10126309D01*
X11815450Y-10106309D02*
X11855450Y-10106309D01*
X11843450Y-9707609D02*
X11843450Y-9747609D01*
X11823450Y-9727609D02*
X11863450Y-9727609D01*
X11855000Y-6088000D02*
X11855000Y-6128000D01*
X11835000Y-6108000D02*
X11875000Y-6108000D01*
X11865550Y-9324000D02*
X11865550Y-9364000D01*
X11845550Y-9344000D02*
X11885550Y-9344000D01*
X11865550Y-9453117D02*
X11865550Y-9493117D01*
X11845550Y-9473117D02*
X11885550Y-9473117D01*
X11929000Y-9111000D02*
X11929000Y-9151000D01*
X11909000Y-9131000D02*
X11949000Y-9131000D01*
X11935000Y-10197000D02*
X11935000Y-10237000D01*
X11915000Y-10217000D02*
X11955000Y-10217000D01*
X11973000Y-11752000D02*
X11973000Y-11792000D01*
X11953000Y-11772000D02*
X11993000Y-11772000D01*
X11982000Y-10823000D02*
X11982000Y-10863000D01*
X11962000Y-10843000D02*
X12002000Y-10843000D01*
X12020450Y-9288691D02*
X12020450Y-9328691D01*
X12000450Y-9308691D02*
X12040450Y-9308691D01*
X12020450Y-9430000D02*
X12020450Y-9470000D01*
X12000450Y-9450000D02*
X12040450Y-9450000D01*
X12020450Y-9574000D02*
X12020450Y-9614000D01*
X12000450Y-9594000D02*
X12040450Y-9594000D01*
X12025000Y-10130550D02*
X12025000Y-10170550D01*
X12005000Y-10150550D02*
X12045000Y-10150550D01*
X12027000Y-9689000D02*
X12027000Y-9729000D01*
X12007000Y-9709000D02*
X12047000Y-9709000D01*
X12120000Y-9732850D02*
X12120000Y-9772850D01*
X12100000Y-9752850D02*
X12140000Y-9752850D01*
X12164000Y-6088000D02*
X12164000Y-6128000D01*
X12144000Y-6108000D02*
X12184000Y-6108000D01*
X12172000Y-10134000D02*
X12172000Y-10174000D01*
X12152000Y-10154000D02*
X12192000Y-10154000D01*
X12195000Y-10823000D02*
X12195000Y-10863000D01*
X12175000Y-10843000D02*
X12215000Y-10843000D01*
X12267000Y-9732850D02*
X12267000Y-9772850D01*
X12247000Y-9752850D02*
X12287000Y-9752850D01*
X12351000Y-10194000D02*
X12351000Y-10234000D01*
X12331000Y-10214000D02*
X12371000Y-10214000D01*
X12358000Y-11757000D02*
X12358000Y-11797000D01*
X12338000Y-11777000D02*
X12378000Y-11777000D01*
X12373000Y-11006000D02*
X12373000Y-11046000D01*
X12353000Y-11026000D02*
X12393000Y-11026000D01*
X12416000Y-9757730D02*
X12416000Y-9797730D01*
X12396000Y-9777730D02*
X12436000Y-9777730D01*
X12454000Y-6088000D02*
X12454000Y-6128000D01*
X12434000Y-6108000D02*
X12474000Y-6108000D01*
X12496550Y-9524000D02*
X12496550Y-9564000D01*
X12476550Y-9544000D02*
X12516550Y-9544000D01*
X12496550Y-9665000D02*
X12496550Y-9705000D01*
X12476550Y-9685000D02*
X12516550Y-9685000D01*
X12496565Y-9361450D02*
X12496565Y-9401450D01*
X12476565Y-9381450D02*
X12516565Y-9381450D01*
X12515000Y-10081000D02*
X12515000Y-10121000D01*
X12495000Y-10101000D02*
X12535000Y-10101000D01*
X12561000Y-9253000D02*
X12561000Y-9293000D01*
X12541000Y-9273000D02*
X12581000Y-9273000D01*
X12645000Y-11332000D02*
X12645000Y-11372000D01*
X12625000Y-11352000D02*
X12665000Y-11352000D01*
X12650050Y-9072000D02*
X12650050Y-9112000D01*
X12630050Y-9092000D02*
X12670050Y-9092000D01*
X12650050Y-9173000D02*
X12650050Y-9213000D01*
X12630050Y-9193000D02*
X12670050Y-9193000D01*
X12658000Y-9726000D02*
X12658000Y-9766000D01*
X12638000Y-9746000D02*
X12678000Y-9746000D01*
X12658000Y-10014000D02*
X12658000Y-10054000D01*
X12638000Y-10034000D02*
X12678000Y-10034000D01*
X12662000Y-9549000D02*
X12662000Y-9589000D01*
X12642000Y-9569000D02*
X12682000Y-9569000D01*
X12681000Y-9398000D02*
X12681000Y-9438000D01*
X12661000Y-9418000D02*
X12701000Y-9418000D01*
X12683000Y-11752000D02*
X12683000Y-11792000D01*
X12663000Y-11772000D02*
X12703000Y-11772000D01*
X12719000Y-9846000D02*
X12719000Y-9886000D01*
X12699000Y-9866000D02*
X12739000Y-9866000D01*
X12750000Y-6082000D02*
X12750000Y-6122000D01*
X12730000Y-6102000D02*
X12770000Y-6102000D01*
X12778000Y-9290000D02*
X12778000Y-9330000D01*
X12758000Y-9310000D02*
X12798000Y-9310000D01*
X12812000Y-9179000D02*
X12812000Y-9219000D01*
X12792000Y-9199000D02*
X12832000Y-9199000D01*
X12847000Y-9059000D02*
X12847000Y-9099000D01*
X12827000Y-9079000D02*
X12867000Y-9079000D01*
X12987000Y-6557000D02*
X12987000Y-6597000D01*
X12967000Y-6577000D02*
X13007000Y-6577000D01*
X12990000Y-6085000D02*
X12990000Y-6125000D01*
X12970000Y-6105000D02*
X13010000Y-6105000D01*
X12990000Y-6778000D02*
X12990000Y-6818000D01*
X12970000Y-6798000D02*
X13010000Y-6798000D01*
X12991000Y-11504000D02*
X12991000Y-11544000D01*
X12971000Y-11524000D02*
X13011000Y-11524000D01*
X12991000Y-11757000D02*
X12991000Y-11797000D01*
X12971000Y-11777000D02*
X13011000Y-11777000D01*
X12993000Y-6322000D02*
X12993000Y-6362000D01*
X12973000Y-6342000D02*
X13013000Y-6342000D01*
X12996000Y-11185000D02*
X12996000Y-11225000D01*
X12976000Y-11205000D02*
X13016000Y-11205000D01*
X13261000Y-6959000D02*
X13261000Y-6999000D01*
X13241000Y-6979000D02*
X13281000Y-6979000D01*
X13301000Y-10815000D02*
X13301000Y-10855000D01*
X13281000Y-10835000D02*
X13321000Y-10835000D01*
X13532000Y-6962000D02*
X13532000Y-7002000D01*
X13512000Y-6982000D02*
X13552000Y-6982000D01*
X13600000Y-10820000D02*
X13600000Y-10860000D01*
X13580000Y-10840000D02*
X13620000Y-10840000D01*
X13885000Y-10138000D02*
X13885000Y-10178000D01*
X13865000Y-10158000D02*
X13905000Y-10158000D01*
X13894000Y-6977000D02*
X13894000Y-7017000D01*
X13874000Y-6997000D02*
X13914000Y-6997000D01*
X13895000Y-9092000D02*
X13895000Y-9132000D01*
X13875000Y-9112000D02*
X13915000Y-9112000D01*
X13895000Y-9784000D02*
X13895000Y-9824000D01*
X13875000Y-9804000D02*
X13915000Y-9804000D01*
X13900000Y-8743000D02*
X13900000Y-8783000D01*
X13880000Y-8763000D02*
X13920000Y-8763000D01*
X13900000Y-10496000D02*
X13900000Y-10536000D01*
X13880000Y-10516000D02*
X13920000Y-10516000D01*
X13902000Y-8466000D02*
X13902000Y-8506000D01*
X13882000Y-8486000D02*
X13922000Y-8486000D01*
X13902000Y-9444000D02*
X13902000Y-9484000D01*
X13882000Y-9464000D02*
X13922000Y-9464000D01*
X13905000Y-10825000D02*
X13905000Y-10865000D01*
X13885000Y-10845000D02*
X13925000Y-10845000D01*
X13907000Y-7253000D02*
X13907000Y-7293000D01*
X13887000Y-7273000D02*
X13927000Y-7273000D01*
D15*
X8628213Y-8861213D02*
X8628213Y-8818787D01*
X8585787Y-8818787D01*
X8585787Y-8861213D01*
X8628213Y-8861213D01*
X9865213Y-6617213D02*
X9865213Y-6574787D01*
X9822787Y-6574787D01*
X9822787Y-6617213D01*
X9865213Y-6617213D01*
D16*
X12056000Y-8839000D02*
X12091000Y-8804000D01*
X12056000Y-8769000D01*
X12021000Y-8804000D01*
X12056000Y-8839000D01*
X12066000Y-9057000D02*
X12101000Y-9022000D01*
X12066000Y-8987000D01*
X12031000Y-9022000D01*
X12066000Y-9057000D01*
X12310000Y-8839000D02*
X12345000Y-8804000D01*
X12310000Y-8769000D01*
X12275000Y-8804000D01*
X12310000Y-8839000D01*
X12320000Y-9057000D02*
X12355000Y-9022000D01*
X12320000Y-8987000D01*
X12285000Y-9022000D01*
X12320000Y-9057000D01*
D17*
X10975000Y-8985000D02*
X11055000Y-9065000D01*
X11055000Y-8985000D02*
X10975000Y-9065000D01*
X11055000Y-9025000D02*
G75*
G03*
X11055000Y-9025000I-40000J0D01*
G01*
X10975000Y-9485000D02*
X11055000Y-9565000D01*
X11055000Y-9485000D02*
X10975000Y-9565000D01*
X11055000Y-9525000D02*
G75*
G03*
X11055000Y-9525000I-40000J0D01*
G01*
X11718000Y-10189000D02*
X11798000Y-10269000D01*
X11798000Y-10189000D02*
X11718000Y-10269000D01*
X11798000Y-10229000D02*
G75*
G03*
X11798000Y-10229000I-40000J0D01*
G01*
X11718000Y-10689000D02*
X11798000Y-10769000D01*
X11798000Y-10689000D02*
X11718000Y-10769000D01*
X11798000Y-10729000D02*
G75*
G03*
X11798000Y-10729000I-40000J0D01*
G01*
X11726000Y-9071000D02*
X11806000Y-9151000D01*
X11806000Y-9071000D02*
X11726000Y-9151000D01*
X11806000Y-9111000D02*
G75*
G03*
X11806000Y-9111000I-40000J0D01*
G01*
X11726000Y-9571000D02*
X11806000Y-9651000D01*
X11806000Y-9571000D02*
X11726000Y-9651000D01*
X11806000Y-9611000D02*
G75*
G03*
X11806000Y-9611000I-40000J0D01*
G01*
X12536000Y-9854000D02*
X12616000Y-9934000D01*
X12616000Y-9854000D02*
X12536000Y-9934000D01*
X12616000Y-9894000D02*
G75*
G03*
X12616000Y-9894000I-40000J0D01*
G01*
X13036000Y-9854000D02*
X13116000Y-9934000D01*
X13116000Y-9854000D02*
X13036000Y-9934000D01*
X13116000Y-9894000D02*
G75*
G03*
X13116000Y-9894000I-40000J0D01*
G01*
D18*
X12683000Y-8642750D02*
X12772000Y-8731750D01*
X12772000Y-8642750D02*
X12683000Y-8731750D01*
X12727500Y-8642750D02*
X12727500Y-8731750D01*
X12683000Y-8687250D02*
X12772000Y-8687250D01*
X12683000Y-8896750D02*
X12772000Y-8985750D01*
X12772000Y-8896750D02*
X12683000Y-8985750D01*
X12727500Y-8896750D02*
X12727500Y-8985750D01*
X12683000Y-8941250D02*
X12772000Y-8941250D01*
D19*
X5055250Y-7725000D02*
X5155250Y-7825000D01*
X5155250Y-7725000D02*
X5055250Y-7825000D01*
X5140606Y-7810356D02*
X5140606Y-7739644D01*
X5069894Y-7739644D01*
X5069894Y-7810356D01*
X5140606Y-7810356D01*
X5154500Y-11421000D02*
X5254500Y-11521000D01*
X5254500Y-11421000D02*
X5154500Y-11521000D01*
X5239856Y-11506356D02*
X5239856Y-11435644D01*
X5169144Y-11435644D01*
X5169144Y-11506356D01*
X5239856Y-11506356D01*
X5309250Y-7725000D02*
X5409250Y-7825000D01*
X5409250Y-7725000D02*
X5309250Y-7825000D01*
X5394606Y-7810356D02*
X5394606Y-7739644D01*
X5323894Y-7739644D01*
X5323894Y-7810356D01*
X5394606Y-7810356D01*
X5408500Y-11421000D02*
X5508500Y-11521000D01*
X5508500Y-11421000D02*
X5408500Y-11521000D01*
X5493856Y-11506356D02*
X5493856Y-11435644D01*
X5423144Y-11435644D01*
X5423144Y-11506356D01*
X5493856Y-11506356D01*
X5563250Y-7725000D02*
X5663250Y-7825000D01*
X5663250Y-7725000D02*
X5563250Y-7825000D01*
X5648606Y-7810356D02*
X5648606Y-7739644D01*
X5577894Y-7739644D01*
X5577894Y-7810356D01*
X5648606Y-7810356D01*
X5662500Y-11421000D02*
X5762500Y-11521000D01*
X5762500Y-11421000D02*
X5662500Y-11521000D01*
X5747856Y-11506356D02*
X5747856Y-11435644D01*
X5677144Y-11435644D01*
X5677144Y-11506356D01*
X5747856Y-11506356D01*
X5699000Y-6748500D02*
X5799000Y-6848500D01*
X5799000Y-6748500D02*
X5699000Y-6848500D01*
X5784356Y-6833856D02*
X5784356Y-6763144D01*
X5713644Y-6763144D01*
X5713644Y-6833856D01*
X5784356Y-6833856D01*
X5699000Y-7002500D02*
X5799000Y-7102500D01*
X5799000Y-7002500D02*
X5699000Y-7102500D01*
X5784356Y-7087856D02*
X5784356Y-7017144D01*
X5713644Y-7017144D01*
X5713644Y-7087856D01*
X5784356Y-7087856D01*
X5817250Y-7725000D02*
X5917250Y-7825000D01*
X5917250Y-7725000D02*
X5817250Y-7825000D01*
X5902606Y-7810356D02*
X5902606Y-7739644D01*
X5831894Y-7739644D01*
X5831894Y-7810356D01*
X5902606Y-7810356D01*
X6013500Y-6321000D02*
X6113500Y-6421000D01*
X6113500Y-6321000D02*
X6013500Y-6421000D01*
X6098856Y-6406356D02*
X6098856Y-6335644D01*
X6028144Y-6335644D01*
X6028144Y-6406356D01*
X6098856Y-6406356D01*
X6077000Y-11128000D02*
X6177000Y-11228000D01*
X6177000Y-11128000D02*
X6077000Y-11228000D01*
X6162356Y-11213356D02*
X6162356Y-11142644D01*
X6091644Y-11142644D01*
X6091644Y-11213356D01*
X6162356Y-11213356D01*
X6077000Y-11382000D02*
X6177000Y-11482000D01*
X6177000Y-11382000D02*
X6077000Y-11482000D01*
X6162356Y-11467356D02*
X6162356Y-11396644D01*
X6091644Y-11396644D01*
X6091644Y-11467356D01*
X6162356Y-11467356D01*
X6207750Y-9539000D02*
X6307750Y-9639000D01*
X6307750Y-9539000D02*
X6207750Y-9639000D01*
X6293106Y-9624356D02*
X6293106Y-9553644D01*
X6222394Y-9553644D01*
X6222394Y-9624356D01*
X6293106Y-9624356D01*
X6267500Y-6321000D02*
X6367500Y-6421000D01*
X6367500Y-6321000D02*
X6267500Y-6421000D01*
X6352856Y-6406356D02*
X6352856Y-6335644D01*
X6282144Y-6335644D01*
X6282144Y-6406356D01*
X6352856Y-6406356D01*
X6461750Y-9539000D02*
X6561750Y-9639000D01*
X6561750Y-9539000D02*
X6461750Y-9639000D01*
X6547106Y-9624356D02*
X6547106Y-9553644D01*
X6476394Y-9553644D01*
X6476394Y-9624356D01*
X6547106Y-9624356D01*
X6715750Y-9539000D02*
X6815750Y-9639000D01*
X6815750Y-9539000D02*
X6715750Y-9639000D01*
X6801106Y-9624356D02*
X6801106Y-9553644D01*
X6730394Y-9553644D01*
X6730394Y-9624356D01*
X6801106Y-9624356D01*
X6969750Y-9539000D02*
X7069750Y-9639000D01*
X7069750Y-9539000D02*
X6969750Y-9639000D01*
X7055106Y-9624356D02*
X7055106Y-9553644D01*
X6984394Y-9553644D01*
X6984394Y-9624356D01*
X7055106Y-9624356D01*
X6991000Y-11128000D02*
X7091000Y-11228000D01*
X7091000Y-11128000D02*
X6991000Y-11228000D01*
X7076356Y-11213356D02*
X7076356Y-11142644D01*
X7005644Y-11142644D01*
X7005644Y-11213356D01*
X7076356Y-11213356D01*
X6991000Y-11382000D02*
X7091000Y-11482000D01*
X7091000Y-11382000D02*
X6991000Y-11482000D01*
X7076356Y-11467356D02*
X7076356Y-11396644D01*
X7005644Y-11396644D01*
X7005644Y-11467356D01*
X7076356Y-11467356D01*
X7771000Y-11018500D02*
X7871000Y-11118500D01*
X7871000Y-11018500D02*
X7771000Y-11118500D01*
X7856356Y-11103856D02*
X7856356Y-11033144D01*
X7785644Y-11033144D01*
X7785644Y-11103856D01*
X7856356Y-11103856D01*
X8025000Y-11018500D02*
X8125000Y-11118500D01*
X8125000Y-11018500D02*
X8025000Y-11118500D01*
X8110356Y-11103856D02*
X8110356Y-11033144D01*
X8039644Y-11033144D01*
X8039644Y-11103856D01*
X8110356Y-11103856D01*
X8456000Y-11032500D02*
X8556000Y-11132500D01*
X8556000Y-11032500D02*
X8456000Y-11132500D01*
X8541356Y-11117856D02*
X8541356Y-11047144D01*
X8470644Y-11047144D01*
X8470644Y-11117856D01*
X8541356Y-11117856D01*
X8710000Y-11032500D02*
X8810000Y-11132500D01*
X8810000Y-11032500D02*
X8710000Y-11132500D01*
X8795356Y-11117856D02*
X8795356Y-11047144D01*
X8724644Y-11047144D01*
X8724644Y-11117856D01*
X8795356Y-11117856D01*
X9125000Y-11618000D02*
X9225000Y-11718000D01*
X9225000Y-11618000D02*
X9125000Y-11718000D01*
X9210356Y-11703356D02*
X9210356Y-11632644D01*
X9139644Y-11632644D01*
X9139644Y-11703356D01*
X9210356Y-11703356D01*
X9379000Y-11618000D02*
X9479000Y-11718000D01*
X9479000Y-11618000D02*
X9379000Y-11718000D01*
X9464356Y-11703356D02*
X9464356Y-11632644D01*
X9393644Y-11632644D01*
X9393644Y-11703356D01*
X9464356Y-11703356D01*
X9633000Y-11618000D02*
X9733000Y-11718000D01*
X9733000Y-11618000D02*
X9633000Y-11718000D01*
X9718356Y-11703356D02*
X9718356Y-11632644D01*
X9647644Y-11632644D01*
X9647644Y-11703356D01*
X9718356Y-11703356D01*
X9887000Y-11618000D02*
X9987000Y-11718000D01*
X9987000Y-11618000D02*
X9887000Y-11718000D01*
X9972356Y-11703356D02*
X9972356Y-11632644D01*
X9901644Y-11632644D01*
X9901644Y-11703356D01*
X9972356Y-11703356D01*
D20*
X10307694Y-10308537D02*
X10407770Y-10408613D01*
X10407770Y-10308537D02*
X10307694Y-10408613D01*
X10357732Y-10408613D02*
X10407770Y-10358575D01*
X10357732Y-10308537D01*
X10307694Y-10358575D01*
X10357732Y-10408613D01*
X10470962Y-10113962D02*
X10571038Y-10214038D01*
X10571038Y-10113962D02*
X10470962Y-10214038D01*
X10521000Y-10214038D02*
X10571038Y-10164000D01*
X10521000Y-10113962D01*
X10470962Y-10164000D01*
X10521000Y-10214038D01*
X10634230Y-9919387D02*
X10734306Y-10019463D01*
X10734306Y-9919387D02*
X10634230Y-10019463D01*
X10684268Y-10019463D02*
X10734306Y-9969425D01*
X10684268Y-9919387D01*
X10634230Y-9969425D01*
X10684268Y-10019463D01*
X12225878Y-7815962D02*
X12325954Y-7916038D01*
X12325954Y-7815962D02*
X12225878Y-7916038D01*
X12275916Y-7916038D02*
X12325954Y-7866000D01*
X12275916Y-7815962D01*
X12225878Y-7866000D01*
X12275916Y-7916038D01*
X12225878Y-8069962D02*
X12325954Y-8170038D01*
X12325954Y-8069962D02*
X12225878Y-8170038D01*
X12275916Y-8170038D02*
X12325954Y-8120000D01*
X12275916Y-8069962D01*
X12225878Y-8120000D01*
X12275916Y-8170038D01*
X12225878Y-8323962D02*
X12325954Y-8424038D01*
X12325954Y-8323962D02*
X12225878Y-8424038D01*
X12275916Y-8424038D02*
X12325954Y-8374000D01*
X12275916Y-8323962D01*
X12225878Y-8374000D01*
X12275916Y-8424038D01*
D21*
X10579000Y-11435200D02*
X10579000Y-11536800D01*
X10528200Y-11486000D02*
X10629800Y-11486000D01*
X10629800Y-11486000D02*
G75*
G03*
X10629800Y-11486000I-50800J0D01*
G01*
X10829000Y-10835200D02*
X10829000Y-10936800D01*
X10778200Y-10886000D02*
X10879800Y-10886000D01*
X10879800Y-10886000D02*
G75*
G03*
X10879800Y-10886000I-50800J0D01*
G01*
X10829000Y-11435200D02*
X10829000Y-11536800D01*
X10778200Y-11486000D02*
X10879800Y-11486000D01*
X10879800Y-11486000D02*
G75*
G03*
X10879800Y-11486000I-50800J0D01*
G01*
X11079000Y-10835200D02*
X11079000Y-10936800D01*
X11028200Y-10886000D02*
X11129800Y-10886000D01*
X11129800Y-10886000D02*
G75*
G03*
X11129800Y-10886000I-50800J0D01*
G01*
X11181000Y-9748710D02*
X11181000Y-9850310D01*
X11130200Y-9799510D02*
X11231800Y-9799510D01*
X11231800Y-9799510D02*
G75*
G03*
X11231800Y-9799510I-50800J0D01*
G01*
X11581000Y-9943020D02*
X11581000Y-10044620D01*
X11530200Y-9993820D02*
X11631800Y-9993820D01*
X11631800Y-9993820D02*
G75*
G03*
X11631800Y-9993820I-50800J0D01*
G01*
X11943000Y-9804380D02*
X11943000Y-9905980D01*
X11892200Y-9855180D02*
X11993800Y-9855180D01*
X11993800Y-9855180D02*
G75*
G03*
X11993800Y-9855180I-50800J0D01*
G01*
X12343000Y-9998690D02*
X12343000Y-10100290D01*
X12292200Y-10049490D02*
X12393800Y-10049490D01*
X12393800Y-10049490D02*
G75*
G03*
X12393800Y-10049490I-50800J0D01*
G01*
D22*
X7790891Y-10013891D02*
X7790891Y-9936109D01*
X7713109Y-9936109D01*
X7713109Y-10013891D01*
X7790891Y-10013891D01*
X7807000Y-9975000D02*
G75*
G03*
X7807000Y-9975000I-55000J0D01*
G01*
X7790891Y-10473891D02*
X7790891Y-10396109D01*
X7713109Y-10396109D01*
X7713109Y-10473891D01*
X7790891Y-10473891D01*
X7807000Y-10435000D02*
G75*
G03*
X7807000Y-10435000I-55000J0D01*
G01*
D23*
X13235500Y-8533750D02*
X13336000Y-8433250D01*
X13235500Y-8332750D01*
X13135000Y-8433250D01*
X13235500Y-8533750D01*
X13336000Y-8433250D02*
G75*
G03*
X13336000Y-8433250I-100500J0D01*
G01*
X13235500Y-9549750D02*
X13336000Y-9449250D01*
X13235500Y-9348750D01*
X13135000Y-9449250D01*
X13235500Y-9549750D01*
X13336000Y-9449250D02*
G75*
G03*
X13336000Y-9449250I-100500J0D01*
G01*
D11*
X4852619Y-12209476D02*
X4852619Y-12009476D01*
X4900238Y-12009476D01*
X4928810Y-12019000D01*
X4947857Y-12038048D01*
X4957381Y-12057095D01*
X4966905Y-12095190D01*
X4966905Y-12123762D01*
X4957381Y-12161857D01*
X4947857Y-12180905D01*
X4928810Y-12199952D01*
X4900238Y-12209476D01*
X4852619Y-12209476D01*
X5052619Y-12209476D02*
X5052619Y-12076143D01*
X5052619Y-12114238D02*
X5062143Y-12095190D01*
X5071667Y-12085667D01*
X5090714Y-12076143D01*
X5109762Y-12076143D01*
X5176429Y-12209476D02*
X5176429Y-12076143D01*
X5176429Y-12009476D02*
X5166905Y-12019000D01*
X5176429Y-12028524D01*
X5185952Y-12019000D01*
X5176429Y-12009476D01*
X5176429Y-12028524D01*
X5300238Y-12209476D02*
X5281190Y-12199952D01*
X5271667Y-12180905D01*
X5271667Y-12009476D01*
X5405000Y-12209476D02*
X5385952Y-12199952D01*
X5376429Y-12180905D01*
X5376429Y-12009476D01*
X5633571Y-12209476D02*
X5633571Y-12009476D01*
X5700238Y-12152333D01*
X5766905Y-12009476D01*
X5766905Y-12209476D01*
X5947857Y-12209476D02*
X5947857Y-12104714D01*
X5938333Y-12085667D01*
X5919286Y-12076143D01*
X5881190Y-12076143D01*
X5862143Y-12085667D01*
X5947857Y-12199952D02*
X5928809Y-12209476D01*
X5881190Y-12209476D01*
X5862143Y-12199952D01*
X5852619Y-12180905D01*
X5852619Y-12161857D01*
X5862143Y-12142809D01*
X5881190Y-12133286D01*
X5928809Y-12133286D01*
X5947857Y-12123762D01*
X6043095Y-12076143D02*
X6043095Y-12276143D01*
X6043095Y-12085667D02*
X6062143Y-12076143D01*
X6100238Y-12076143D01*
X6119286Y-12085667D01*
X6128809Y-12095190D01*
X6138333Y-12114238D01*
X6138333Y-12171381D01*
X6128809Y-12190428D01*
X6119286Y-12199952D01*
X6100238Y-12209476D01*
X6062143Y-12209476D01*
X6043095Y-12199952D01*
X6224048Y-12190428D02*
X6233571Y-12199952D01*
X6224048Y-12209476D01*
X6214524Y-12199952D01*
X6224048Y-12190428D01*
X6224048Y-12209476D01*
X6224048Y-12085667D02*
X6233571Y-12095190D01*
X6224048Y-12104714D01*
X6214524Y-12095190D01*
X6224048Y-12085667D01*
X6224048Y-12104714D01*
D12*
X4565000Y-12524000D02*
X4595000Y-12554000D01*
X4595000Y-12524000D02*
X4565000Y-12554000D01*
D11*
X4890714Y-12429476D02*
X4909762Y-12429476D01*
X4928810Y-12439000D01*
X4938333Y-12448524D01*
X4947857Y-12467571D01*
X4957381Y-12505667D01*
X4957381Y-12553286D01*
X4947857Y-12591381D01*
X4938333Y-12610428D01*
X4928810Y-12619952D01*
X4909762Y-12629476D01*
X4890714Y-12629476D01*
X4871667Y-12619952D01*
X4862143Y-12610428D01*
X4852619Y-12591381D01*
X4843095Y-12553286D01*
X4843095Y-12505667D01*
X4852619Y-12467571D01*
X4862143Y-12448524D01*
X4871667Y-12439000D01*
X4890714Y-12429476D01*
X5043095Y-12610428D02*
X5052619Y-12619952D01*
X5043095Y-12629476D01*
X5033571Y-12619952D01*
X5043095Y-12610428D01*
X5043095Y-12629476D01*
X5119286Y-12429476D02*
X5243095Y-12429476D01*
X5176429Y-12505667D01*
X5205000Y-12505667D01*
X5224048Y-12515190D01*
X5233571Y-12524714D01*
X5243095Y-12543762D01*
X5243095Y-12591381D01*
X5233571Y-12610428D01*
X5224048Y-12619952D01*
X5205000Y-12629476D01*
X5147857Y-12629476D01*
X5128810Y-12619952D01*
X5119286Y-12610428D01*
X5366905Y-12429476D02*
X5385952Y-12429476D01*
X5405000Y-12439000D01*
X5414524Y-12448524D01*
X5424048Y-12467571D01*
X5433571Y-12505667D01*
X5433571Y-12553286D01*
X5424048Y-12591381D01*
X5414524Y-12610428D01*
X5405000Y-12619952D01*
X5385952Y-12629476D01*
X5366905Y-12629476D01*
X5347857Y-12619952D01*
X5338333Y-12610428D01*
X5328810Y-12591381D01*
X5319286Y-12553286D01*
X5319286Y-12505667D01*
X5328810Y-12467571D01*
X5338333Y-12448524D01*
X5347857Y-12439000D01*
X5366905Y-12429476D01*
X5557381Y-12429476D02*
X5576429Y-12429476D01*
X5595476Y-12439000D01*
X5605000Y-12448524D01*
X5614524Y-12467571D01*
X5624048Y-12505667D01*
X5624048Y-12553286D01*
X5614524Y-12591381D01*
X5605000Y-12610428D01*
X5595476Y-12619952D01*
X5576429Y-12629476D01*
X5557381Y-12629476D01*
X5538333Y-12619952D01*
X5528810Y-12610428D01*
X5519286Y-12591381D01*
X5509762Y-12553286D01*
X5509762Y-12505667D01*
X5519286Y-12467571D01*
X5528810Y-12448524D01*
X5538333Y-12439000D01*
X5557381Y-12429476D01*
X5709762Y-12629476D02*
X5709762Y-12496143D01*
X5709762Y-12515190D02*
X5719286Y-12505667D01*
X5738333Y-12496143D01*
X5766905Y-12496143D01*
X5785952Y-12505667D01*
X5795476Y-12524714D01*
X5795476Y-12629476D01*
X5795476Y-12524714D02*
X5805000Y-12505667D01*
X5824048Y-12496143D01*
X5852619Y-12496143D01*
X5871667Y-12505667D01*
X5881190Y-12524714D01*
X5881190Y-12629476D01*
X5976428Y-12629476D02*
X5976428Y-12496143D01*
X5976428Y-12515190D02*
X5985952Y-12505667D01*
X6005000Y-12496143D01*
X6033571Y-12496143D01*
X6052619Y-12505667D01*
X6062143Y-12524714D01*
X6062143Y-12629476D01*
X6062143Y-12524714D02*
X6071667Y-12505667D01*
X6090714Y-12496143D01*
X6119286Y-12496143D01*
X6138333Y-12505667D01*
X6147857Y-12524714D01*
X6147857Y-12629476D01*
X6538333Y-12419952D02*
X6366905Y-12677095D01*
X6795476Y-12429476D02*
X6814524Y-12429476D01*
X6833571Y-12439000D01*
X6843095Y-12448524D01*
X6852619Y-12467571D01*
X6862143Y-12505667D01*
X6862143Y-12553286D01*
X6852619Y-12591381D01*
X6843095Y-12610428D01*
X6833571Y-12619952D01*
X6814524Y-12629476D01*
X6795476Y-12629476D01*
X6776428Y-12619952D01*
X6766905Y-12610428D01*
X6757381Y-12591381D01*
X6747857Y-12553286D01*
X6747857Y-12505667D01*
X6757381Y-12467571D01*
X6766905Y-12448524D01*
X6776428Y-12439000D01*
X6795476Y-12429476D01*
X6947857Y-12610428D02*
X6957381Y-12619952D01*
X6947857Y-12629476D01*
X6938333Y-12619952D01*
X6947857Y-12610428D01*
X6947857Y-12629476D01*
X7081190Y-12429476D02*
X7100238Y-12429476D01*
X7119286Y-12439000D01*
X7128809Y-12448524D01*
X7138333Y-12467571D01*
X7147857Y-12505667D01*
X7147857Y-12553286D01*
X7138333Y-12591381D01*
X7128809Y-12610428D01*
X7119286Y-12619952D01*
X7100238Y-12629476D01*
X7081190Y-12629476D01*
X7062143Y-12619952D01*
X7052619Y-12610428D01*
X7043095Y-12591381D01*
X7033571Y-12553286D01*
X7033571Y-12505667D01*
X7043095Y-12467571D01*
X7052619Y-12448524D01*
X7062143Y-12439000D01*
X7081190Y-12429476D01*
X7338333Y-12629476D02*
X7224048Y-12629476D01*
X7281190Y-12629476D02*
X7281190Y-12429476D01*
X7262143Y-12458048D01*
X7243095Y-12477095D01*
X7224048Y-12486619D01*
X7528809Y-12629476D02*
X7414524Y-12629476D01*
X7471667Y-12629476D02*
X7471667Y-12429476D01*
X7452619Y-12458048D01*
X7433571Y-12477095D01*
X7414524Y-12486619D01*
X7643095Y-12515190D02*
X7624048Y-12505667D01*
X7614524Y-12496143D01*
X7605000Y-12477095D01*
X7605000Y-12467571D01*
X7614524Y-12448524D01*
X7624048Y-12439000D01*
X7643095Y-12429476D01*
X7681190Y-12429476D01*
X7700238Y-12439000D01*
X7709762Y-12448524D01*
X7719286Y-12467571D01*
X7719286Y-12477095D01*
X7709762Y-12496143D01*
X7700238Y-12505667D01*
X7681190Y-12515190D01*
X7643095Y-12515190D01*
X7624048Y-12524714D01*
X7614524Y-12534238D01*
X7605000Y-12553286D01*
X7605000Y-12591381D01*
X7614524Y-12610428D01*
X7624048Y-12619952D01*
X7643095Y-12629476D01*
X7681190Y-12629476D01*
X7700238Y-12619952D01*
X7709762Y-12610428D01*
X7719286Y-12591381D01*
X7719286Y-12553286D01*
X7709762Y-12534238D01*
X7700238Y-12524714D01*
X7681190Y-12515190D01*
X7795476Y-12429476D02*
X7795476Y-12467571D01*
X7871667Y-12429476D02*
X7871667Y-12467571D01*
X8166905Y-12705667D02*
X8157381Y-12696143D01*
X8138333Y-12667571D01*
X8128809Y-12648524D01*
X8119286Y-12619952D01*
X8109762Y-12572333D01*
X8109762Y-12534238D01*
X8119286Y-12486619D01*
X8128809Y-12458048D01*
X8138333Y-12439000D01*
X8157381Y-12410428D01*
X8166905Y-12400905D01*
X8338333Y-12429476D02*
X8243095Y-12429476D01*
X8233571Y-12524714D01*
X8243095Y-12515190D01*
X8262143Y-12505667D01*
X8309762Y-12505667D01*
X8328809Y-12515190D01*
X8338333Y-12524714D01*
X8347857Y-12543762D01*
X8347857Y-12591381D01*
X8338333Y-12610428D01*
X8328809Y-12619952D01*
X8309762Y-12629476D01*
X8262143Y-12629476D01*
X8243095Y-12619952D01*
X8233571Y-12610428D01*
X8585952Y-12629476D02*
X8585952Y-12429476D01*
X8671667Y-12629476D02*
X8671667Y-12524714D01*
X8662143Y-12505667D01*
X8643095Y-12496143D01*
X8614524Y-12496143D01*
X8595476Y-12505667D01*
X8585952Y-12515190D01*
X8795476Y-12629476D02*
X8776429Y-12619952D01*
X8766905Y-12610428D01*
X8757381Y-12591381D01*
X8757381Y-12534238D01*
X8766905Y-12515190D01*
X8776429Y-12505667D01*
X8795476Y-12496143D01*
X8824048Y-12496143D01*
X8843095Y-12505667D01*
X8852619Y-12515190D01*
X8862143Y-12534238D01*
X8862143Y-12591381D01*
X8852619Y-12610428D01*
X8843095Y-12619952D01*
X8824048Y-12629476D01*
X8795476Y-12629476D01*
X8976429Y-12629476D02*
X8957381Y-12619952D01*
X8947857Y-12600905D01*
X8947857Y-12429476D01*
X9128810Y-12619952D02*
X9109762Y-12629476D01*
X9071667Y-12629476D01*
X9052619Y-12619952D01*
X9043095Y-12600905D01*
X9043095Y-12524714D01*
X9052619Y-12505667D01*
X9071667Y-12496143D01*
X9109762Y-12496143D01*
X9128810Y-12505667D01*
X9138333Y-12524714D01*
X9138333Y-12543762D01*
X9043095Y-12562809D01*
X9214524Y-12619952D02*
X9233571Y-12629476D01*
X9271667Y-12629476D01*
X9290714Y-12619952D01*
X9300238Y-12600905D01*
X9300238Y-12591381D01*
X9290714Y-12572333D01*
X9271667Y-12562809D01*
X9243095Y-12562809D01*
X9224048Y-12553286D01*
X9214524Y-12534238D01*
X9214524Y-12524714D01*
X9224048Y-12505667D01*
X9243095Y-12496143D01*
X9271667Y-12496143D01*
X9290714Y-12505667D01*
X9366905Y-12705667D02*
X9376429Y-12696143D01*
X9395476Y-12667571D01*
X9405000Y-12648524D01*
X9414524Y-12619952D01*
X9424048Y-12572333D01*
X9424048Y-12534238D01*
X9414524Y-12486619D01*
X9405000Y-12458048D01*
X9395476Y-12439000D01*
X9376429Y-12410428D01*
X9366905Y-12400905D01*
D13*
X4595000Y-12803000D02*
G75*
G03*
X4595000Y-12803000I-16530J0D01*
G01*
D11*
X4890714Y-12693476D02*
X4909762Y-12693476D01*
X4928810Y-12703000D01*
X4938333Y-12712524D01*
X4947857Y-12731571D01*
X4957381Y-12769667D01*
X4957381Y-12817286D01*
X4947857Y-12855381D01*
X4938333Y-12874428D01*
X4928810Y-12883952D01*
X4909762Y-12893476D01*
X4890714Y-12893476D01*
X4871667Y-12883952D01*
X4862143Y-12874428D01*
X4852619Y-12855381D01*
X4843095Y-12817286D01*
X4843095Y-12769667D01*
X4852619Y-12731571D01*
X4862143Y-12712524D01*
X4871667Y-12703000D01*
X4890714Y-12693476D01*
X5043095Y-12874428D02*
X5052619Y-12883952D01*
X5043095Y-12893476D01*
X5033571Y-12883952D01*
X5043095Y-12874428D01*
X5043095Y-12893476D01*
X5119286Y-12693476D02*
X5243095Y-12693476D01*
X5176429Y-12769667D01*
X5205000Y-12769667D01*
X5224048Y-12779190D01*
X5233571Y-12788714D01*
X5243095Y-12807762D01*
X5243095Y-12855381D01*
X5233571Y-12874428D01*
X5224048Y-12883952D01*
X5205000Y-12893476D01*
X5147857Y-12893476D01*
X5128810Y-12883952D01*
X5119286Y-12874428D01*
X5309762Y-12693476D02*
X5433571Y-12693476D01*
X5366905Y-12769667D01*
X5395476Y-12769667D01*
X5414524Y-12779190D01*
X5424048Y-12788714D01*
X5433571Y-12807762D01*
X5433571Y-12855381D01*
X5424048Y-12874428D01*
X5414524Y-12883952D01*
X5395476Y-12893476D01*
X5338333Y-12893476D01*
X5319286Y-12883952D01*
X5309762Y-12874428D01*
X5624048Y-12893476D02*
X5509762Y-12893476D01*
X5566905Y-12893476D02*
X5566905Y-12693476D01*
X5547857Y-12722048D01*
X5528810Y-12741095D01*
X5509762Y-12750619D01*
X5709762Y-12893476D02*
X5709762Y-12760143D01*
X5709762Y-12779190D02*
X5719286Y-12769667D01*
X5738333Y-12760143D01*
X5766905Y-12760143D01*
X5785952Y-12769667D01*
X5795476Y-12788714D01*
X5795476Y-12893476D01*
X5795476Y-12788714D02*
X5805000Y-12769667D01*
X5824048Y-12760143D01*
X5852619Y-12760143D01*
X5871667Y-12769667D01*
X5881190Y-12788714D01*
X5881190Y-12893476D01*
X5976428Y-12893476D02*
X5976428Y-12760143D01*
X5976428Y-12779190D02*
X5985952Y-12769667D01*
X6005000Y-12760143D01*
X6033571Y-12760143D01*
X6052619Y-12769667D01*
X6062143Y-12788714D01*
X6062143Y-12893476D01*
X6062143Y-12788714D02*
X6071667Y-12769667D01*
X6090714Y-12760143D01*
X6119286Y-12760143D01*
X6138333Y-12769667D01*
X6147857Y-12788714D01*
X6147857Y-12893476D01*
X6538333Y-12683952D02*
X6366905Y-12941095D01*
X6795476Y-12693476D02*
X6814524Y-12693476D01*
X6833571Y-12703000D01*
X6843095Y-12712524D01*
X6852619Y-12731571D01*
X6862143Y-12769667D01*
X6862143Y-12817286D01*
X6852619Y-12855381D01*
X6843095Y-12874428D01*
X6833571Y-12883952D01*
X6814524Y-12893476D01*
X6795476Y-12893476D01*
X6776428Y-12883952D01*
X6766905Y-12874428D01*
X6757381Y-12855381D01*
X6747857Y-12817286D01*
X6747857Y-12769667D01*
X6757381Y-12731571D01*
X6766905Y-12712524D01*
X6776428Y-12703000D01*
X6795476Y-12693476D01*
X6947857Y-12874428D02*
X6957381Y-12883952D01*
X6947857Y-12893476D01*
X6938333Y-12883952D01*
X6947857Y-12874428D01*
X6947857Y-12893476D01*
X7081190Y-12693476D02*
X7100238Y-12693476D01*
X7119286Y-12703000D01*
X7128809Y-12712524D01*
X7138333Y-12731571D01*
X7147857Y-12769667D01*
X7147857Y-12817286D01*
X7138333Y-12855381D01*
X7128809Y-12874428D01*
X7119286Y-12883952D01*
X7100238Y-12893476D01*
X7081190Y-12893476D01*
X7062143Y-12883952D01*
X7052619Y-12874428D01*
X7043095Y-12855381D01*
X7033571Y-12817286D01*
X7033571Y-12769667D01*
X7043095Y-12731571D01*
X7052619Y-12712524D01*
X7062143Y-12703000D01*
X7081190Y-12693476D01*
X7338333Y-12893476D02*
X7224048Y-12893476D01*
X7281190Y-12893476D02*
X7281190Y-12693476D01*
X7262143Y-12722048D01*
X7243095Y-12741095D01*
X7224048Y-12750619D01*
X7405000Y-12693476D02*
X7528809Y-12693476D01*
X7462143Y-12769667D01*
X7490714Y-12769667D01*
X7509762Y-12779190D01*
X7519286Y-12788714D01*
X7528809Y-12807762D01*
X7528809Y-12855381D01*
X7519286Y-12874428D01*
X7509762Y-12883952D01*
X7490714Y-12893476D01*
X7433571Y-12893476D01*
X7414524Y-12883952D01*
X7405000Y-12874428D01*
X7652619Y-12693476D02*
X7671667Y-12693476D01*
X7690714Y-12703000D01*
X7700238Y-12712524D01*
X7709762Y-12731571D01*
X7719286Y-12769667D01*
X7719286Y-12817286D01*
X7709762Y-12855381D01*
X7700238Y-12874428D01*
X7690714Y-12883952D01*
X7671667Y-12893476D01*
X7652619Y-12893476D01*
X7633571Y-12883952D01*
X7624048Y-12874428D01*
X7614524Y-12855381D01*
X7605000Y-12817286D01*
X7605000Y-12769667D01*
X7614524Y-12731571D01*
X7624048Y-12712524D01*
X7633571Y-12703000D01*
X7652619Y-12693476D01*
X7795476Y-12693476D02*
X7795476Y-12731571D01*
X7871667Y-12693476D02*
X7871667Y-12731571D01*
X8166905Y-12969667D02*
X8157381Y-12960143D01*
X8138333Y-12931571D01*
X8128809Y-12912524D01*
X8119286Y-12883952D01*
X8109762Y-12836333D01*
X8109762Y-12798238D01*
X8119286Y-12750619D01*
X8128809Y-12722048D01*
X8138333Y-12703000D01*
X8157381Y-12674428D01*
X8166905Y-12664905D01*
X8233571Y-12712524D02*
X8243095Y-12703000D01*
X8262143Y-12693476D01*
X8309762Y-12693476D01*
X8328809Y-12703000D01*
X8338333Y-12712524D01*
X8347857Y-12731571D01*
X8347857Y-12750619D01*
X8338333Y-12779190D01*
X8224048Y-12893476D01*
X8347857Y-12893476D01*
X8585952Y-12893476D02*
X8585952Y-12693476D01*
X8671667Y-12893476D02*
X8671667Y-12788714D01*
X8662143Y-12769667D01*
X8643095Y-12760143D01*
X8614524Y-12760143D01*
X8595476Y-12769667D01*
X8585952Y-12779190D01*
X8795476Y-12893476D02*
X8776429Y-12883952D01*
X8766905Y-12874428D01*
X8757381Y-12855381D01*
X8757381Y-12798238D01*
X8766905Y-12779190D01*
X8776429Y-12769667D01*
X8795476Y-12760143D01*
X8824048Y-12760143D01*
X8843095Y-12769667D01*
X8852619Y-12779190D01*
X8862143Y-12798238D01*
X8862143Y-12855381D01*
X8852619Y-12874428D01*
X8843095Y-12883952D01*
X8824048Y-12893476D01*
X8795476Y-12893476D01*
X8976429Y-12893476D02*
X8957381Y-12883952D01*
X8947857Y-12864905D01*
X8947857Y-12693476D01*
X9128810Y-12883952D02*
X9109762Y-12893476D01*
X9071667Y-12893476D01*
X9052619Y-12883952D01*
X9043095Y-12864905D01*
X9043095Y-12788714D01*
X9052619Y-12769667D01*
X9071667Y-12760143D01*
X9109762Y-12760143D01*
X9128810Y-12769667D01*
X9138333Y-12788714D01*
X9138333Y-12807762D01*
X9043095Y-12826809D01*
X9214524Y-12883952D02*
X9233571Y-12893476D01*
X9271667Y-12893476D01*
X9290714Y-12883952D01*
X9300238Y-12864905D01*
X9300238Y-12855381D01*
X9290714Y-12836333D01*
X9271667Y-12826809D01*
X9243095Y-12826809D01*
X9224048Y-12817286D01*
X9214524Y-12798238D01*
X9214524Y-12788714D01*
X9224048Y-12769667D01*
X9243095Y-12760143D01*
X9271667Y-12760143D01*
X9290714Y-12769667D01*
X9366905Y-12969667D02*
X9376429Y-12960143D01*
X9395476Y-12931571D01*
X9405000Y-12912524D01*
X9414524Y-12883952D01*
X9424048Y-12836333D01*
X9424048Y-12798238D01*
X9414524Y-12750619D01*
X9405000Y-12722048D01*
X9395476Y-12703000D01*
X9376429Y-12674428D01*
X9366905Y-12664905D01*
D14*
X4575000Y-13047000D02*
X4575000Y-13087000D01*
X4555000Y-13067000D02*
X4595000Y-13067000D01*
D11*
X4890714Y-12957476D02*
X4909762Y-12957476D01*
X4928810Y-12967000D01*
X4938333Y-12976524D01*
X4947857Y-12995571D01*
X4957381Y-13033667D01*
X4957381Y-13081286D01*
X4947857Y-13119381D01*
X4938333Y-13138428D01*
X4928810Y-13147952D01*
X4909762Y-13157476D01*
X4890714Y-13157476D01*
X4871667Y-13147952D01*
X4862143Y-13138428D01*
X4852619Y-13119381D01*
X4843095Y-13081286D01*
X4843095Y-13033667D01*
X4852619Y-12995571D01*
X4862143Y-12976524D01*
X4871667Y-12967000D01*
X4890714Y-12957476D01*
X5043095Y-13138428D02*
X5052619Y-13147952D01*
X5043095Y-13157476D01*
X5033571Y-13147952D01*
X5043095Y-13138428D01*
X5043095Y-13157476D01*
X5224048Y-13024143D02*
X5224048Y-13157476D01*
X5176429Y-12947952D02*
X5128810Y-13090809D01*
X5252619Y-13090809D01*
X5366905Y-12957476D02*
X5385952Y-12957476D01*
X5405000Y-12967000D01*
X5414524Y-12976524D01*
X5424048Y-12995571D01*
X5433571Y-13033667D01*
X5433571Y-13081286D01*
X5424048Y-13119381D01*
X5414524Y-13138428D01*
X5405000Y-13147952D01*
X5385952Y-13157476D01*
X5366905Y-13157476D01*
X5347857Y-13147952D01*
X5338333Y-13138428D01*
X5328810Y-13119381D01*
X5319286Y-13081286D01*
X5319286Y-13033667D01*
X5328810Y-12995571D01*
X5338333Y-12976524D01*
X5347857Y-12967000D01*
X5366905Y-12957476D01*
X5557381Y-12957476D02*
X5576429Y-12957476D01*
X5595476Y-12967000D01*
X5605000Y-12976524D01*
X5614524Y-12995571D01*
X5624048Y-13033667D01*
X5624048Y-13081286D01*
X5614524Y-13119381D01*
X5605000Y-13138428D01*
X5595476Y-13147952D01*
X5576429Y-13157476D01*
X5557381Y-13157476D01*
X5538333Y-13147952D01*
X5528810Y-13138428D01*
X5519286Y-13119381D01*
X5509762Y-13081286D01*
X5509762Y-13033667D01*
X5519286Y-12995571D01*
X5528810Y-12976524D01*
X5538333Y-12967000D01*
X5557381Y-12957476D01*
X5709762Y-13157476D02*
X5709762Y-13024143D01*
X5709762Y-13043190D02*
X5719286Y-13033667D01*
X5738333Y-13024143D01*
X5766905Y-13024143D01*
X5785952Y-13033667D01*
X5795476Y-13052714D01*
X5795476Y-13157476D01*
X5795476Y-13052714D02*
X5805000Y-13033667D01*
X5824048Y-13024143D01*
X5852619Y-13024143D01*
X5871667Y-13033667D01*
X5881190Y-13052714D01*
X5881190Y-13157476D01*
X5976428Y-13157476D02*
X5976428Y-13024143D01*
X5976428Y-13043190D02*
X5985952Y-13033667D01*
X6005000Y-13024143D01*
X6033571Y-13024143D01*
X6052619Y-13033667D01*
X6062143Y-13052714D01*
X6062143Y-13157476D01*
X6062143Y-13052714D02*
X6071667Y-13033667D01*
X6090714Y-13024143D01*
X6119286Y-13024143D01*
X6138333Y-13033667D01*
X6147857Y-13052714D01*
X6147857Y-13157476D01*
X6538333Y-12947952D02*
X6366905Y-13205095D01*
X6795476Y-12957476D02*
X6814524Y-12957476D01*
X6833571Y-12967000D01*
X6843095Y-12976524D01*
X6852619Y-12995571D01*
X6862143Y-13033667D01*
X6862143Y-13081286D01*
X6852619Y-13119381D01*
X6843095Y-13138428D01*
X6833571Y-13147952D01*
X6814524Y-13157476D01*
X6795476Y-13157476D01*
X6776428Y-13147952D01*
X6766905Y-13138428D01*
X6757381Y-13119381D01*
X6747857Y-13081286D01*
X6747857Y-13033667D01*
X6757381Y-12995571D01*
X6766905Y-12976524D01*
X6776428Y-12967000D01*
X6795476Y-12957476D01*
X6947857Y-13138428D02*
X6957381Y-13147952D01*
X6947857Y-13157476D01*
X6938333Y-13147952D01*
X6947857Y-13138428D01*
X6947857Y-13157476D01*
X7081190Y-12957476D02*
X7100238Y-12957476D01*
X7119286Y-12967000D01*
X7128809Y-12976524D01*
X7138333Y-12995571D01*
X7147857Y-13033667D01*
X7147857Y-13081286D01*
X7138333Y-13119381D01*
X7128809Y-13138428D01*
X7119286Y-13147952D01*
X7100238Y-13157476D01*
X7081190Y-13157476D01*
X7062143Y-13147952D01*
X7052619Y-13138428D01*
X7043095Y-13119381D01*
X7033571Y-13081286D01*
X7033571Y-13033667D01*
X7043095Y-12995571D01*
X7052619Y-12976524D01*
X7062143Y-12967000D01*
X7081190Y-12957476D01*
X7338333Y-13157476D02*
X7224048Y-13157476D01*
X7281190Y-13157476D02*
X7281190Y-12957476D01*
X7262143Y-12986048D01*
X7243095Y-13005095D01*
X7224048Y-13014619D01*
X7519286Y-12957476D02*
X7424048Y-12957476D01*
X7414524Y-13052714D01*
X7424048Y-13043190D01*
X7443095Y-13033667D01*
X7490714Y-13033667D01*
X7509762Y-13043190D01*
X7519286Y-13052714D01*
X7528809Y-13071762D01*
X7528809Y-13119381D01*
X7519286Y-13138428D01*
X7509762Y-13147952D01*
X7490714Y-13157476D01*
X7443095Y-13157476D01*
X7424048Y-13147952D01*
X7414524Y-13138428D01*
X7595476Y-12957476D02*
X7728809Y-12957476D01*
X7643095Y-13157476D01*
X7795476Y-12957476D02*
X7795476Y-12995571D01*
X7871667Y-12957476D02*
X7871667Y-12995571D01*
X8166905Y-13233667D02*
X8157381Y-13224143D01*
X8138333Y-13195571D01*
X8128809Y-13176524D01*
X8119286Y-13147952D01*
X8109762Y-13100333D01*
X8109762Y-13062238D01*
X8119286Y-13014619D01*
X8128809Y-12986048D01*
X8138333Y-12967000D01*
X8157381Y-12938428D01*
X8166905Y-12928905D01*
X8328809Y-13024143D02*
X8328809Y-13157476D01*
X8281190Y-12947952D02*
X8233571Y-13090809D01*
X8357381Y-13090809D01*
X8538333Y-13157476D02*
X8424048Y-13157476D01*
X8481190Y-13157476D02*
X8481190Y-12957476D01*
X8462143Y-12986048D01*
X8443095Y-13005095D01*
X8424048Y-13014619D01*
X8633571Y-13157476D02*
X8671667Y-13157476D01*
X8690714Y-13147952D01*
X8700238Y-13138428D01*
X8719286Y-13109857D01*
X8728810Y-13071762D01*
X8728810Y-12995571D01*
X8719286Y-12976524D01*
X8709762Y-12967000D01*
X8690714Y-12957476D01*
X8652619Y-12957476D01*
X8633571Y-12967000D01*
X8624048Y-12976524D01*
X8614524Y-12995571D01*
X8614524Y-13043190D01*
X8624048Y-13062238D01*
X8633571Y-13071762D01*
X8652619Y-13081286D01*
X8690714Y-13081286D01*
X8709762Y-13071762D01*
X8719286Y-13062238D01*
X8728810Y-13043190D01*
X8966905Y-13157476D02*
X8966905Y-12957476D01*
X9052619Y-13157476D02*
X9052619Y-13052714D01*
X9043095Y-13033667D01*
X9024048Y-13024143D01*
X8995476Y-13024143D01*
X8976429Y-13033667D01*
X8966905Y-13043190D01*
X9176429Y-13157476D02*
X9157381Y-13147952D01*
X9147857Y-13138428D01*
X9138333Y-13119381D01*
X9138333Y-13062238D01*
X9147857Y-13043190D01*
X9157381Y-13033667D01*
X9176429Y-13024143D01*
X9205000Y-13024143D01*
X9224048Y-13033667D01*
X9233571Y-13043190D01*
X9243095Y-13062238D01*
X9243095Y-13119381D01*
X9233571Y-13138428D01*
X9224048Y-13147952D01*
X9205000Y-13157476D01*
X9176429Y-13157476D01*
X9357381Y-13157476D02*
X9338333Y-13147952D01*
X9328810Y-13128905D01*
X9328810Y-12957476D01*
X9509762Y-13147952D02*
X9490714Y-13157476D01*
X9452619Y-13157476D01*
X9433571Y-13147952D01*
X9424048Y-13128905D01*
X9424048Y-13052714D01*
X9433571Y-13033667D01*
X9452619Y-13024143D01*
X9490714Y-13024143D01*
X9509762Y-13033667D01*
X9519286Y-13052714D01*
X9519286Y-13071762D01*
X9424048Y-13090809D01*
X9595476Y-13147952D02*
X9614524Y-13157476D01*
X9652619Y-13157476D01*
X9671667Y-13147952D01*
X9681190Y-13128905D01*
X9681190Y-13119381D01*
X9671667Y-13100333D01*
X9652619Y-13090809D01*
X9624048Y-13090809D01*
X9605000Y-13081286D01*
X9595476Y-13062238D01*
X9595476Y-13052714D01*
X9605000Y-13033667D01*
X9624048Y-13024143D01*
X9652619Y-13024143D01*
X9671667Y-13033667D01*
X9747857Y-13233667D02*
X9757381Y-13224143D01*
X9776429Y-13195571D01*
X9785952Y-13176524D01*
X9795476Y-13147952D01*
X9805000Y-13100333D01*
X9805000Y-13062238D01*
X9795476Y-13014619D01*
X9785952Y-12986048D01*
X9776429Y-12967000D01*
X9757381Y-12938428D01*
X9747857Y-12928905D01*
D15*
X4586213Y-13352213D02*
X4586213Y-13309787D01*
X4543787Y-13309787D01*
X4543787Y-13352213D01*
X4586213Y-13352213D01*
D11*
X4890714Y-13221476D02*
X4909762Y-13221476D01*
X4928810Y-13231000D01*
X4938333Y-13240524D01*
X4947857Y-13259571D01*
X4957381Y-13297667D01*
X4957381Y-13345286D01*
X4947857Y-13383381D01*
X4938333Y-13402428D01*
X4928810Y-13411952D01*
X4909762Y-13421476D01*
X4890714Y-13421476D01*
X4871667Y-13411952D01*
X4862143Y-13402428D01*
X4852619Y-13383381D01*
X4843095Y-13345286D01*
X4843095Y-13297667D01*
X4852619Y-13259571D01*
X4862143Y-13240524D01*
X4871667Y-13231000D01*
X4890714Y-13221476D01*
X5043095Y-13402428D02*
X5052619Y-13411952D01*
X5043095Y-13421476D01*
X5033571Y-13411952D01*
X5043095Y-13402428D01*
X5043095Y-13421476D01*
X5224048Y-13221476D02*
X5185952Y-13221476D01*
X5166905Y-13231000D01*
X5157381Y-13240524D01*
X5138333Y-13269095D01*
X5128810Y-13307190D01*
X5128810Y-13383381D01*
X5138333Y-13402428D01*
X5147857Y-13411952D01*
X5166905Y-13421476D01*
X5205000Y-13421476D01*
X5224048Y-13411952D01*
X5233571Y-13402428D01*
X5243095Y-13383381D01*
X5243095Y-13335762D01*
X5233571Y-13316714D01*
X5224048Y-13307190D01*
X5205000Y-13297667D01*
X5166905Y-13297667D01*
X5147857Y-13307190D01*
X5138333Y-13316714D01*
X5128810Y-13335762D01*
X5366905Y-13221476D02*
X5385952Y-13221476D01*
X5405000Y-13231000D01*
X5414524Y-13240524D01*
X5424048Y-13259571D01*
X5433571Y-13297667D01*
X5433571Y-13345286D01*
X5424048Y-13383381D01*
X5414524Y-13402428D01*
X5405000Y-13411952D01*
X5385952Y-13421476D01*
X5366905Y-13421476D01*
X5347857Y-13411952D01*
X5338333Y-13402428D01*
X5328810Y-13383381D01*
X5319286Y-13345286D01*
X5319286Y-13297667D01*
X5328810Y-13259571D01*
X5338333Y-13240524D01*
X5347857Y-13231000D01*
X5366905Y-13221476D01*
X5557381Y-13221476D02*
X5576429Y-13221476D01*
X5595476Y-13231000D01*
X5605000Y-13240524D01*
X5614524Y-13259571D01*
X5624048Y-13297667D01*
X5624048Y-13345286D01*
X5614524Y-13383381D01*
X5605000Y-13402428D01*
X5595476Y-13411952D01*
X5576429Y-13421476D01*
X5557381Y-13421476D01*
X5538333Y-13411952D01*
X5528810Y-13402428D01*
X5519286Y-13383381D01*
X5509762Y-13345286D01*
X5509762Y-13297667D01*
X5519286Y-13259571D01*
X5528810Y-13240524D01*
X5538333Y-13231000D01*
X5557381Y-13221476D01*
X5709762Y-13421476D02*
X5709762Y-13288143D01*
X5709762Y-13307190D02*
X5719286Y-13297667D01*
X5738333Y-13288143D01*
X5766905Y-13288143D01*
X5785952Y-13297667D01*
X5795476Y-13316714D01*
X5795476Y-13421476D01*
X5795476Y-13316714D02*
X5805000Y-13297667D01*
X5824048Y-13288143D01*
X5852619Y-13288143D01*
X5871667Y-13297667D01*
X5881190Y-13316714D01*
X5881190Y-13421476D01*
X5976428Y-13421476D02*
X5976428Y-13288143D01*
X5976428Y-13307190D02*
X5985952Y-13297667D01*
X6005000Y-13288143D01*
X6033571Y-13288143D01*
X6052619Y-13297667D01*
X6062143Y-13316714D01*
X6062143Y-13421476D01*
X6062143Y-13316714D02*
X6071667Y-13297667D01*
X6090714Y-13288143D01*
X6119286Y-13288143D01*
X6138333Y-13297667D01*
X6147857Y-13316714D01*
X6147857Y-13421476D01*
X6538333Y-13211952D02*
X6366905Y-13469095D01*
X6795476Y-13221476D02*
X6814524Y-13221476D01*
X6833571Y-13231000D01*
X6843095Y-13240524D01*
X6852619Y-13259571D01*
X6862143Y-13297667D01*
X6862143Y-13345286D01*
X6852619Y-13383381D01*
X6843095Y-13402428D01*
X6833571Y-13411952D01*
X6814524Y-13421476D01*
X6795476Y-13421476D01*
X6776428Y-13411952D01*
X6766905Y-13402428D01*
X6757381Y-13383381D01*
X6747857Y-13345286D01*
X6747857Y-13297667D01*
X6757381Y-13259571D01*
X6766905Y-13240524D01*
X6776428Y-13231000D01*
X6795476Y-13221476D01*
X6947857Y-13402428D02*
X6957381Y-13411952D01*
X6947857Y-13421476D01*
X6938333Y-13411952D01*
X6947857Y-13402428D01*
X6947857Y-13421476D01*
X7081190Y-13221476D02*
X7100238Y-13221476D01*
X7119286Y-13231000D01*
X7128809Y-13240524D01*
X7138333Y-13259571D01*
X7147857Y-13297667D01*
X7147857Y-13345286D01*
X7138333Y-13383381D01*
X7128809Y-13402428D01*
X7119286Y-13411952D01*
X7100238Y-13421476D01*
X7081190Y-13421476D01*
X7062143Y-13411952D01*
X7052619Y-13402428D01*
X7043095Y-13383381D01*
X7033571Y-13345286D01*
X7033571Y-13297667D01*
X7043095Y-13259571D01*
X7052619Y-13240524D01*
X7062143Y-13231000D01*
X7081190Y-13221476D01*
X7224048Y-13240524D02*
X7233571Y-13231000D01*
X7252619Y-13221476D01*
X7300238Y-13221476D01*
X7319286Y-13231000D01*
X7328809Y-13240524D01*
X7338333Y-13259571D01*
X7338333Y-13278619D01*
X7328809Y-13307190D01*
X7214524Y-13421476D01*
X7338333Y-13421476D01*
X7405000Y-13221476D02*
X7528809Y-13221476D01*
X7462143Y-13297667D01*
X7490714Y-13297667D01*
X7509762Y-13307190D01*
X7519286Y-13316714D01*
X7528809Y-13335762D01*
X7528809Y-13383381D01*
X7519286Y-13402428D01*
X7509762Y-13411952D01*
X7490714Y-13421476D01*
X7433571Y-13421476D01*
X7414524Y-13411952D01*
X7405000Y-13402428D01*
X7700238Y-13221476D02*
X7662143Y-13221476D01*
X7643095Y-13231000D01*
X7633571Y-13240524D01*
X7614524Y-13269095D01*
X7605000Y-13307190D01*
X7605000Y-13383381D01*
X7614524Y-13402428D01*
X7624048Y-13411952D01*
X7643095Y-13421476D01*
X7681190Y-13421476D01*
X7700238Y-13411952D01*
X7709762Y-13402428D01*
X7719286Y-13383381D01*
X7719286Y-13335762D01*
X7709762Y-13316714D01*
X7700238Y-13307190D01*
X7681190Y-13297667D01*
X7643095Y-13297667D01*
X7624048Y-13307190D01*
X7614524Y-13316714D01*
X7605000Y-13335762D01*
X7795476Y-13221476D02*
X7795476Y-13259571D01*
X7871667Y-13221476D02*
X7871667Y-13259571D01*
X8166905Y-13497667D02*
X8157381Y-13488143D01*
X8138333Y-13459571D01*
X8128809Y-13440524D01*
X8119286Y-13411952D01*
X8109762Y-13364333D01*
X8109762Y-13326238D01*
X8119286Y-13278619D01*
X8128809Y-13250048D01*
X8138333Y-13231000D01*
X8157381Y-13202428D01*
X8166905Y-13192905D01*
X8233571Y-13240524D02*
X8243095Y-13231000D01*
X8262143Y-13221476D01*
X8309762Y-13221476D01*
X8328809Y-13231000D01*
X8338333Y-13240524D01*
X8347857Y-13259571D01*
X8347857Y-13278619D01*
X8338333Y-13307190D01*
X8224048Y-13421476D01*
X8347857Y-13421476D01*
X8585952Y-13421476D02*
X8585952Y-13221476D01*
X8671667Y-13421476D02*
X8671667Y-13316714D01*
X8662143Y-13297667D01*
X8643095Y-13288143D01*
X8614524Y-13288143D01*
X8595476Y-13297667D01*
X8585952Y-13307190D01*
X8795476Y-13421476D02*
X8776429Y-13411952D01*
X8766905Y-13402428D01*
X8757381Y-13383381D01*
X8757381Y-13326238D01*
X8766905Y-13307190D01*
X8776429Y-13297667D01*
X8795476Y-13288143D01*
X8824048Y-13288143D01*
X8843095Y-13297667D01*
X8852619Y-13307190D01*
X8862143Y-13326238D01*
X8862143Y-13383381D01*
X8852619Y-13402428D01*
X8843095Y-13411952D01*
X8824048Y-13421476D01*
X8795476Y-13421476D01*
X8976429Y-13421476D02*
X8957381Y-13411952D01*
X8947857Y-13392905D01*
X8947857Y-13221476D01*
X9128810Y-13411952D02*
X9109762Y-13421476D01*
X9071667Y-13421476D01*
X9052619Y-13411952D01*
X9043095Y-13392905D01*
X9043095Y-13316714D01*
X9052619Y-13297667D01*
X9071667Y-13288143D01*
X9109762Y-13288143D01*
X9128810Y-13297667D01*
X9138333Y-13316714D01*
X9138333Y-13335762D01*
X9043095Y-13354809D01*
X9214524Y-13411952D02*
X9233571Y-13421476D01*
X9271667Y-13421476D01*
X9290714Y-13411952D01*
X9300238Y-13392905D01*
X9300238Y-13383381D01*
X9290714Y-13364333D01*
X9271667Y-13354809D01*
X9243095Y-13354809D01*
X9224048Y-13345286D01*
X9214524Y-13326238D01*
X9214524Y-13316714D01*
X9224048Y-13297667D01*
X9243095Y-13288143D01*
X9271667Y-13288143D01*
X9290714Y-13297667D01*
X9366905Y-13497667D02*
X9376429Y-13488143D01*
X9395476Y-13459571D01*
X9405000Y-13440524D01*
X9414524Y-13411952D01*
X9424048Y-13364333D01*
X9424048Y-13326238D01*
X9414524Y-13278619D01*
X9405000Y-13250048D01*
X9395476Y-13231000D01*
X9376429Y-13202428D01*
X9366905Y-13192905D01*
D16*
X4560000Y-13630000D02*
X4595000Y-13595000D01*
X4560000Y-13560000D01*
X4525000Y-13595000D01*
X4560000Y-13630000D01*
D11*
X4890714Y-13485476D02*
X4909762Y-13485476D01*
X4928810Y-13495000D01*
X4938333Y-13504524D01*
X4947857Y-13523571D01*
X4957381Y-13561667D01*
X4957381Y-13609286D01*
X4947857Y-13647381D01*
X4938333Y-13666428D01*
X4928810Y-13675952D01*
X4909762Y-13685476D01*
X4890714Y-13685476D01*
X4871667Y-13675952D01*
X4862143Y-13666428D01*
X4852619Y-13647381D01*
X4843095Y-13609286D01*
X4843095Y-13561667D01*
X4852619Y-13523571D01*
X4862143Y-13504524D01*
X4871667Y-13495000D01*
X4890714Y-13485476D01*
X5043095Y-13666428D02*
X5052619Y-13675952D01*
X5043095Y-13685476D01*
X5033571Y-13675952D01*
X5043095Y-13666428D01*
X5043095Y-13685476D01*
X5119286Y-13485476D02*
X5252619Y-13485476D01*
X5166905Y-13685476D01*
X5366905Y-13485476D02*
X5385952Y-13485476D01*
X5405000Y-13495000D01*
X5414524Y-13504524D01*
X5424048Y-13523571D01*
X5433571Y-13561667D01*
X5433571Y-13609286D01*
X5424048Y-13647381D01*
X5414524Y-13666428D01*
X5405000Y-13675952D01*
X5385952Y-13685476D01*
X5366905Y-13685476D01*
X5347857Y-13675952D01*
X5338333Y-13666428D01*
X5328810Y-13647381D01*
X5319286Y-13609286D01*
X5319286Y-13561667D01*
X5328810Y-13523571D01*
X5338333Y-13504524D01*
X5347857Y-13495000D01*
X5366905Y-13485476D01*
X5557381Y-13485476D02*
X5576429Y-13485476D01*
X5595476Y-13495000D01*
X5605000Y-13504524D01*
X5614524Y-13523571D01*
X5624048Y-13561667D01*
X5624048Y-13609286D01*
X5614524Y-13647381D01*
X5605000Y-13666428D01*
X5595476Y-13675952D01*
X5576429Y-13685476D01*
X5557381Y-13685476D01*
X5538333Y-13675952D01*
X5528810Y-13666428D01*
X5519286Y-13647381D01*
X5509762Y-13609286D01*
X5509762Y-13561667D01*
X5519286Y-13523571D01*
X5528810Y-13504524D01*
X5538333Y-13495000D01*
X5557381Y-13485476D01*
X5709762Y-13685476D02*
X5709762Y-13552143D01*
X5709762Y-13571190D02*
X5719286Y-13561667D01*
X5738333Y-13552143D01*
X5766905Y-13552143D01*
X5785952Y-13561667D01*
X5795476Y-13580714D01*
X5795476Y-13685476D01*
X5795476Y-13580714D02*
X5805000Y-13561667D01*
X5824048Y-13552143D01*
X5852619Y-13552143D01*
X5871667Y-13561667D01*
X5881190Y-13580714D01*
X5881190Y-13685476D01*
X5976428Y-13685476D02*
X5976428Y-13552143D01*
X5976428Y-13571190D02*
X5985952Y-13561667D01*
X6005000Y-13552143D01*
X6033571Y-13552143D01*
X6052619Y-13561667D01*
X6062143Y-13580714D01*
X6062143Y-13685476D01*
X6062143Y-13580714D02*
X6071667Y-13561667D01*
X6090714Y-13552143D01*
X6119286Y-13552143D01*
X6138333Y-13561667D01*
X6147857Y-13580714D01*
X6147857Y-13685476D01*
X6538333Y-13475952D02*
X6366905Y-13733095D01*
X6795476Y-13485476D02*
X6814524Y-13485476D01*
X6833571Y-13495000D01*
X6843095Y-13504524D01*
X6852619Y-13523571D01*
X6862143Y-13561667D01*
X6862143Y-13609286D01*
X6852619Y-13647381D01*
X6843095Y-13666428D01*
X6833571Y-13675952D01*
X6814524Y-13685476D01*
X6795476Y-13685476D01*
X6776428Y-13675952D01*
X6766905Y-13666428D01*
X6757381Y-13647381D01*
X6747857Y-13609286D01*
X6747857Y-13561667D01*
X6757381Y-13523571D01*
X6766905Y-13504524D01*
X6776428Y-13495000D01*
X6795476Y-13485476D01*
X6947857Y-13666428D02*
X6957381Y-13675952D01*
X6947857Y-13685476D01*
X6938333Y-13675952D01*
X6947857Y-13666428D01*
X6947857Y-13685476D01*
X7081190Y-13485476D02*
X7100238Y-13485476D01*
X7119286Y-13495000D01*
X7128809Y-13504524D01*
X7138333Y-13523571D01*
X7147857Y-13561667D01*
X7147857Y-13609286D01*
X7138333Y-13647381D01*
X7128809Y-13666428D01*
X7119286Y-13675952D01*
X7100238Y-13685476D01*
X7081190Y-13685476D01*
X7062143Y-13675952D01*
X7052619Y-13666428D01*
X7043095Y-13647381D01*
X7033571Y-13609286D01*
X7033571Y-13561667D01*
X7043095Y-13523571D01*
X7052619Y-13504524D01*
X7062143Y-13495000D01*
X7081190Y-13485476D01*
X7224048Y-13504524D02*
X7233571Y-13495000D01*
X7252619Y-13485476D01*
X7300238Y-13485476D01*
X7319286Y-13495000D01*
X7328809Y-13504524D01*
X7338333Y-13523571D01*
X7338333Y-13542619D01*
X7328809Y-13571190D01*
X7214524Y-13685476D01*
X7338333Y-13685476D01*
X7405000Y-13485476D02*
X7538333Y-13485476D01*
X7452619Y-13685476D01*
X7700238Y-13485476D02*
X7662143Y-13485476D01*
X7643095Y-13495000D01*
X7633571Y-13504524D01*
X7614524Y-13533095D01*
X7605000Y-13571190D01*
X7605000Y-13647381D01*
X7614524Y-13666428D01*
X7624048Y-13675952D01*
X7643095Y-13685476D01*
X7681190Y-13685476D01*
X7700238Y-13675952D01*
X7709762Y-13666428D01*
X7719286Y-13647381D01*
X7719286Y-13599762D01*
X7709762Y-13580714D01*
X7700238Y-13571190D01*
X7681190Y-13561667D01*
X7643095Y-13561667D01*
X7624048Y-13571190D01*
X7614524Y-13580714D01*
X7605000Y-13599762D01*
X7795476Y-13485476D02*
X7795476Y-13523571D01*
X7871667Y-13485476D02*
X7871667Y-13523571D01*
X8166905Y-13761667D02*
X8157381Y-13752143D01*
X8138333Y-13723571D01*
X8128809Y-13704524D01*
X8119286Y-13675952D01*
X8109762Y-13628333D01*
X8109762Y-13590238D01*
X8119286Y-13542619D01*
X8128809Y-13514048D01*
X8138333Y-13495000D01*
X8157381Y-13466428D01*
X8166905Y-13456905D01*
X8328809Y-13552143D02*
X8328809Y-13685476D01*
X8281190Y-13475952D02*
X8233571Y-13618809D01*
X8357381Y-13618809D01*
X8585952Y-13685476D02*
X8585952Y-13485476D01*
X8671667Y-13685476D02*
X8671667Y-13580714D01*
X8662143Y-13561667D01*
X8643095Y-13552143D01*
X8614524Y-13552143D01*
X8595476Y-13561667D01*
X8585952Y-13571190D01*
X8795476Y-13685476D02*
X8776429Y-13675952D01*
X8766905Y-13666428D01*
X8757381Y-13647381D01*
X8757381Y-13590238D01*
X8766905Y-13571190D01*
X8776429Y-13561667D01*
X8795476Y-13552143D01*
X8824048Y-13552143D01*
X8843095Y-13561667D01*
X8852619Y-13571190D01*
X8862143Y-13590238D01*
X8862143Y-13647381D01*
X8852619Y-13666428D01*
X8843095Y-13675952D01*
X8824048Y-13685476D01*
X8795476Y-13685476D01*
X8976429Y-13685476D02*
X8957381Y-13675952D01*
X8947857Y-13656905D01*
X8947857Y-13485476D01*
X9128810Y-13675952D02*
X9109762Y-13685476D01*
X9071667Y-13685476D01*
X9052619Y-13675952D01*
X9043095Y-13656905D01*
X9043095Y-13580714D01*
X9052619Y-13561667D01*
X9071667Y-13552143D01*
X9109762Y-13552143D01*
X9128810Y-13561667D01*
X9138333Y-13580714D01*
X9138333Y-13599762D01*
X9043095Y-13618809D01*
X9214524Y-13675952D02*
X9233571Y-13685476D01*
X9271667Y-13685476D01*
X9290714Y-13675952D01*
X9300238Y-13656905D01*
X9300238Y-13647381D01*
X9290714Y-13628333D01*
X9271667Y-13618809D01*
X9243095Y-13618809D01*
X9224048Y-13609286D01*
X9214524Y-13590238D01*
X9214524Y-13580714D01*
X9224048Y-13561667D01*
X9243095Y-13552143D01*
X9271667Y-13552143D01*
X9290714Y-13561667D01*
X9366905Y-13761667D02*
X9376429Y-13752143D01*
X9395476Y-13723571D01*
X9405000Y-13704524D01*
X9414524Y-13675952D01*
X9424048Y-13628333D01*
X9424048Y-13590238D01*
X9414524Y-13542619D01*
X9405000Y-13514048D01*
X9395476Y-13495000D01*
X9376429Y-13466428D01*
X9366905Y-13456905D01*
D17*
X4515000Y-13819000D02*
X4595000Y-13899000D01*
X4595000Y-13819000D02*
X4515000Y-13899000D01*
X4595000Y-13859000D02*
G75*
G03*
X4595000Y-13859000I-40000J0D01*
G01*
D11*
X4890714Y-13749476D02*
X4909762Y-13749476D01*
X4928810Y-13759000D01*
X4938333Y-13768524D01*
X4947857Y-13787571D01*
X4957381Y-13825667D01*
X4957381Y-13873286D01*
X4947857Y-13911381D01*
X4938333Y-13930428D01*
X4928810Y-13939952D01*
X4909762Y-13949476D01*
X4890714Y-13949476D01*
X4871667Y-13939952D01*
X4862143Y-13930428D01*
X4852619Y-13911381D01*
X4843095Y-13873286D01*
X4843095Y-13825667D01*
X4852619Y-13787571D01*
X4862143Y-13768524D01*
X4871667Y-13759000D01*
X4890714Y-13749476D01*
X5043095Y-13930428D02*
X5052619Y-13939952D01*
X5043095Y-13949476D01*
X5033571Y-13939952D01*
X5043095Y-13930428D01*
X5043095Y-13949476D01*
X5166905Y-13835190D02*
X5147857Y-13825667D01*
X5138333Y-13816143D01*
X5128810Y-13797095D01*
X5128810Y-13787571D01*
X5138333Y-13768524D01*
X5147857Y-13759000D01*
X5166905Y-13749476D01*
X5205000Y-13749476D01*
X5224048Y-13759000D01*
X5233571Y-13768524D01*
X5243095Y-13787571D01*
X5243095Y-13797095D01*
X5233571Y-13816143D01*
X5224048Y-13825667D01*
X5205000Y-13835190D01*
X5166905Y-13835190D01*
X5147857Y-13844714D01*
X5138333Y-13854238D01*
X5128810Y-13873286D01*
X5128810Y-13911381D01*
X5138333Y-13930428D01*
X5147857Y-13939952D01*
X5166905Y-13949476D01*
X5205000Y-13949476D01*
X5224048Y-13939952D01*
X5233571Y-13930428D01*
X5243095Y-13911381D01*
X5243095Y-13873286D01*
X5233571Y-13854238D01*
X5224048Y-13844714D01*
X5205000Y-13835190D01*
X5366905Y-13749476D02*
X5385952Y-13749476D01*
X5405000Y-13759000D01*
X5414524Y-13768524D01*
X5424048Y-13787571D01*
X5433571Y-13825667D01*
X5433571Y-13873286D01*
X5424048Y-13911381D01*
X5414524Y-13930428D01*
X5405000Y-13939952D01*
X5385952Y-13949476D01*
X5366905Y-13949476D01*
X5347857Y-13939952D01*
X5338333Y-13930428D01*
X5328810Y-13911381D01*
X5319286Y-13873286D01*
X5319286Y-13825667D01*
X5328810Y-13787571D01*
X5338333Y-13768524D01*
X5347857Y-13759000D01*
X5366905Y-13749476D01*
X5557381Y-13749476D02*
X5576429Y-13749476D01*
X5595476Y-13759000D01*
X5605000Y-13768524D01*
X5614524Y-13787571D01*
X5624048Y-13825667D01*
X5624048Y-13873286D01*
X5614524Y-13911381D01*
X5605000Y-13930428D01*
X5595476Y-13939952D01*
X5576429Y-13949476D01*
X5557381Y-13949476D01*
X5538333Y-13939952D01*
X5528810Y-13930428D01*
X5519286Y-13911381D01*
X5509762Y-13873286D01*
X5509762Y-13825667D01*
X5519286Y-13787571D01*
X5528810Y-13768524D01*
X5538333Y-13759000D01*
X5557381Y-13749476D01*
X5709762Y-13949476D02*
X5709762Y-13816143D01*
X5709762Y-13835190D02*
X5719286Y-13825667D01*
X5738333Y-13816143D01*
X5766905Y-13816143D01*
X5785952Y-13825667D01*
X5795476Y-13844714D01*
X5795476Y-13949476D01*
X5795476Y-13844714D02*
X5805000Y-13825667D01*
X5824048Y-13816143D01*
X5852619Y-13816143D01*
X5871667Y-13825667D01*
X5881190Y-13844714D01*
X5881190Y-13949476D01*
X5976428Y-13949476D02*
X5976428Y-13816143D01*
X5976428Y-13835190D02*
X5985952Y-13825667D01*
X6005000Y-13816143D01*
X6033571Y-13816143D01*
X6052619Y-13825667D01*
X6062143Y-13844714D01*
X6062143Y-13949476D01*
X6062143Y-13844714D02*
X6071667Y-13825667D01*
X6090714Y-13816143D01*
X6119286Y-13816143D01*
X6138333Y-13825667D01*
X6147857Y-13844714D01*
X6147857Y-13949476D01*
X6538333Y-13739952D02*
X6366905Y-13997095D01*
X6795476Y-13749476D02*
X6814524Y-13749476D01*
X6833571Y-13759000D01*
X6843095Y-13768524D01*
X6852619Y-13787571D01*
X6862143Y-13825667D01*
X6862143Y-13873286D01*
X6852619Y-13911381D01*
X6843095Y-13930428D01*
X6833571Y-13939952D01*
X6814524Y-13949476D01*
X6795476Y-13949476D01*
X6776428Y-13939952D01*
X6766905Y-13930428D01*
X6757381Y-13911381D01*
X6747857Y-13873286D01*
X6747857Y-13825667D01*
X6757381Y-13787571D01*
X6766905Y-13768524D01*
X6776428Y-13759000D01*
X6795476Y-13749476D01*
X6947857Y-13930428D02*
X6957381Y-13939952D01*
X6947857Y-13949476D01*
X6938333Y-13939952D01*
X6947857Y-13930428D01*
X6947857Y-13949476D01*
X7081190Y-13749476D02*
X7100238Y-13749476D01*
X7119286Y-13759000D01*
X7128809Y-13768524D01*
X7138333Y-13787571D01*
X7147857Y-13825667D01*
X7147857Y-13873286D01*
X7138333Y-13911381D01*
X7128809Y-13930428D01*
X7119286Y-13939952D01*
X7100238Y-13949476D01*
X7081190Y-13949476D01*
X7062143Y-13939952D01*
X7052619Y-13930428D01*
X7043095Y-13911381D01*
X7033571Y-13873286D01*
X7033571Y-13825667D01*
X7043095Y-13787571D01*
X7052619Y-13768524D01*
X7062143Y-13759000D01*
X7081190Y-13749476D01*
X7214524Y-13749476D02*
X7338333Y-13749476D01*
X7271667Y-13825667D01*
X7300238Y-13825667D01*
X7319286Y-13835190D01*
X7328809Y-13844714D01*
X7338333Y-13863762D01*
X7338333Y-13911381D01*
X7328809Y-13930428D01*
X7319286Y-13939952D01*
X7300238Y-13949476D01*
X7243095Y-13949476D01*
X7224048Y-13939952D01*
X7214524Y-13930428D01*
X7528809Y-13949476D02*
X7414524Y-13949476D01*
X7471667Y-13949476D02*
X7471667Y-13749476D01*
X7452619Y-13778048D01*
X7433571Y-13797095D01*
X7414524Y-13806619D01*
X7709762Y-13749476D02*
X7614524Y-13749476D01*
X7605000Y-13844714D01*
X7614524Y-13835190D01*
X7633571Y-13825667D01*
X7681190Y-13825667D01*
X7700238Y-13835190D01*
X7709762Y-13844714D01*
X7719286Y-13863762D01*
X7719286Y-13911381D01*
X7709762Y-13930428D01*
X7700238Y-13939952D01*
X7681190Y-13949476D01*
X7633571Y-13949476D01*
X7614524Y-13939952D01*
X7605000Y-13930428D01*
X7795476Y-13749476D02*
X7795476Y-13787571D01*
X7871667Y-13749476D02*
X7871667Y-13787571D01*
X8166905Y-14025667D02*
X8157381Y-14016143D01*
X8138333Y-13987571D01*
X8128809Y-13968524D01*
X8119286Y-13939952D01*
X8109762Y-13892333D01*
X8109762Y-13854238D01*
X8119286Y-13806619D01*
X8128809Y-13778048D01*
X8138333Y-13759000D01*
X8157381Y-13730428D01*
X8166905Y-13720905D01*
X8271667Y-13835190D02*
X8252619Y-13825667D01*
X8243095Y-13816143D01*
X8233571Y-13797095D01*
X8233571Y-13787571D01*
X8243095Y-13768524D01*
X8252619Y-13759000D01*
X8271667Y-13749476D01*
X8309762Y-13749476D01*
X8328809Y-13759000D01*
X8338333Y-13768524D01*
X8347857Y-13787571D01*
X8347857Y-13797095D01*
X8338333Y-13816143D01*
X8328809Y-13825667D01*
X8309762Y-13835190D01*
X8271667Y-13835190D01*
X8252619Y-13844714D01*
X8243095Y-13854238D01*
X8233571Y-13873286D01*
X8233571Y-13911381D01*
X8243095Y-13930428D01*
X8252619Y-13939952D01*
X8271667Y-13949476D01*
X8309762Y-13949476D01*
X8328809Y-13939952D01*
X8338333Y-13930428D01*
X8347857Y-13911381D01*
X8347857Y-13873286D01*
X8338333Y-13854238D01*
X8328809Y-13844714D01*
X8309762Y-13835190D01*
X8585952Y-13949476D02*
X8585952Y-13749476D01*
X8671667Y-13949476D02*
X8671667Y-13844714D01*
X8662143Y-13825667D01*
X8643095Y-13816143D01*
X8614524Y-13816143D01*
X8595476Y-13825667D01*
X8585952Y-13835190D01*
X8795476Y-13949476D02*
X8776429Y-13939952D01*
X8766905Y-13930428D01*
X8757381Y-13911381D01*
X8757381Y-13854238D01*
X8766905Y-13835190D01*
X8776429Y-13825667D01*
X8795476Y-13816143D01*
X8824048Y-13816143D01*
X8843095Y-13825667D01*
X8852619Y-13835190D01*
X8862143Y-13854238D01*
X8862143Y-13911381D01*
X8852619Y-13930428D01*
X8843095Y-13939952D01*
X8824048Y-13949476D01*
X8795476Y-13949476D01*
X8976429Y-13949476D02*
X8957381Y-13939952D01*
X8947857Y-13920905D01*
X8947857Y-13749476D01*
X9128810Y-13939952D02*
X9109762Y-13949476D01*
X9071667Y-13949476D01*
X9052619Y-13939952D01*
X9043095Y-13920905D01*
X9043095Y-13844714D01*
X9052619Y-13825667D01*
X9071667Y-13816143D01*
X9109762Y-13816143D01*
X9128810Y-13825667D01*
X9138333Y-13844714D01*
X9138333Y-13863762D01*
X9043095Y-13882809D01*
X9214524Y-13939952D02*
X9233571Y-13949476D01*
X9271667Y-13949476D01*
X9290714Y-13939952D01*
X9300238Y-13920905D01*
X9300238Y-13911381D01*
X9290714Y-13892333D01*
X9271667Y-13882809D01*
X9243095Y-13882809D01*
X9224048Y-13873286D01*
X9214524Y-13854238D01*
X9214524Y-13844714D01*
X9224048Y-13825667D01*
X9243095Y-13816143D01*
X9271667Y-13816143D01*
X9290714Y-13825667D01*
X9366905Y-14025667D02*
X9376429Y-14016143D01*
X9395476Y-13987571D01*
X9405000Y-13968524D01*
X9414524Y-13939952D01*
X9424048Y-13892333D01*
X9424048Y-13854238D01*
X9414524Y-13806619D01*
X9405000Y-13778048D01*
X9395476Y-13759000D01*
X9376429Y-13730428D01*
X9366905Y-13720905D01*
D18*
X4506000Y-14078500D02*
X4595000Y-14167500D01*
X4595000Y-14078500D02*
X4506000Y-14167500D01*
X4550500Y-14078500D02*
X4550500Y-14167500D01*
X4506000Y-14123000D02*
X4595000Y-14123000D01*
D11*
X4890714Y-14013476D02*
X4909762Y-14013476D01*
X4928810Y-14023000D01*
X4938333Y-14032524D01*
X4947857Y-14051571D01*
X4957381Y-14089667D01*
X4957381Y-14137286D01*
X4947857Y-14175381D01*
X4938333Y-14194428D01*
X4928810Y-14203952D01*
X4909762Y-14213476D01*
X4890714Y-14213476D01*
X4871667Y-14203952D01*
X4862143Y-14194428D01*
X4852619Y-14175381D01*
X4843095Y-14137286D01*
X4843095Y-14089667D01*
X4852619Y-14051571D01*
X4862143Y-14032524D01*
X4871667Y-14023000D01*
X4890714Y-14013476D01*
X5043095Y-14194428D02*
X5052619Y-14203952D01*
X5043095Y-14213476D01*
X5033571Y-14203952D01*
X5043095Y-14194428D01*
X5043095Y-14213476D01*
X5166905Y-14099190D02*
X5147857Y-14089667D01*
X5138333Y-14080143D01*
X5128810Y-14061095D01*
X5128810Y-14051571D01*
X5138333Y-14032524D01*
X5147857Y-14023000D01*
X5166905Y-14013476D01*
X5205000Y-14013476D01*
X5224048Y-14023000D01*
X5233571Y-14032524D01*
X5243095Y-14051571D01*
X5243095Y-14061095D01*
X5233571Y-14080143D01*
X5224048Y-14089667D01*
X5205000Y-14099190D01*
X5166905Y-14099190D01*
X5147857Y-14108714D01*
X5138333Y-14118238D01*
X5128810Y-14137286D01*
X5128810Y-14175381D01*
X5138333Y-14194428D01*
X5147857Y-14203952D01*
X5166905Y-14213476D01*
X5205000Y-14213476D01*
X5224048Y-14203952D01*
X5233571Y-14194428D01*
X5243095Y-14175381D01*
X5243095Y-14137286D01*
X5233571Y-14118238D01*
X5224048Y-14108714D01*
X5205000Y-14099190D01*
X5338333Y-14213476D02*
X5376429Y-14213476D01*
X5395476Y-14203952D01*
X5405000Y-14194428D01*
X5424048Y-14165857D01*
X5433571Y-14127762D01*
X5433571Y-14051571D01*
X5424048Y-14032524D01*
X5414524Y-14023000D01*
X5395476Y-14013476D01*
X5357381Y-14013476D01*
X5338333Y-14023000D01*
X5328810Y-14032524D01*
X5319286Y-14051571D01*
X5319286Y-14099190D01*
X5328810Y-14118238D01*
X5338333Y-14127762D01*
X5357381Y-14137286D01*
X5395476Y-14137286D01*
X5414524Y-14127762D01*
X5424048Y-14118238D01*
X5433571Y-14099190D01*
X5557381Y-14013476D02*
X5576429Y-14013476D01*
X5595476Y-14023000D01*
X5605000Y-14032524D01*
X5614524Y-14051571D01*
X5624048Y-14089667D01*
X5624048Y-14137286D01*
X5614524Y-14175381D01*
X5605000Y-14194428D01*
X5595476Y-14203952D01*
X5576429Y-14213476D01*
X5557381Y-14213476D01*
X5538333Y-14203952D01*
X5528810Y-14194428D01*
X5519286Y-14175381D01*
X5509762Y-14137286D01*
X5509762Y-14089667D01*
X5519286Y-14051571D01*
X5528810Y-14032524D01*
X5538333Y-14023000D01*
X5557381Y-14013476D01*
X5709762Y-14213476D02*
X5709762Y-14080143D01*
X5709762Y-14099190D02*
X5719286Y-14089667D01*
X5738333Y-14080143D01*
X5766905Y-14080143D01*
X5785952Y-14089667D01*
X5795476Y-14108714D01*
X5795476Y-14213476D01*
X5795476Y-14108714D02*
X5805000Y-14089667D01*
X5824048Y-14080143D01*
X5852619Y-14080143D01*
X5871667Y-14089667D01*
X5881190Y-14108714D01*
X5881190Y-14213476D01*
X5976428Y-14213476D02*
X5976428Y-14080143D01*
X5976428Y-14099190D02*
X5985952Y-14089667D01*
X6005000Y-14080143D01*
X6033571Y-14080143D01*
X6052619Y-14089667D01*
X6062143Y-14108714D01*
X6062143Y-14213476D01*
X6062143Y-14108714D02*
X6071667Y-14089667D01*
X6090714Y-14080143D01*
X6119286Y-14080143D01*
X6138333Y-14089667D01*
X6147857Y-14108714D01*
X6147857Y-14213476D01*
X6538333Y-14003952D02*
X6366905Y-14261095D01*
X6795476Y-14013476D02*
X6814524Y-14013476D01*
X6833571Y-14023000D01*
X6843095Y-14032524D01*
X6852619Y-14051571D01*
X6862143Y-14089667D01*
X6862143Y-14137286D01*
X6852619Y-14175381D01*
X6843095Y-14194428D01*
X6833571Y-14203952D01*
X6814524Y-14213476D01*
X6795476Y-14213476D01*
X6776428Y-14203952D01*
X6766905Y-14194428D01*
X6757381Y-14175381D01*
X6747857Y-14137286D01*
X6747857Y-14089667D01*
X6757381Y-14051571D01*
X6766905Y-14032524D01*
X6776428Y-14023000D01*
X6795476Y-14013476D01*
X6947857Y-14194428D02*
X6957381Y-14203952D01*
X6947857Y-14213476D01*
X6938333Y-14203952D01*
X6947857Y-14194428D01*
X6947857Y-14213476D01*
X7081190Y-14013476D02*
X7100238Y-14013476D01*
X7119286Y-14023000D01*
X7128809Y-14032524D01*
X7138333Y-14051571D01*
X7147857Y-14089667D01*
X7147857Y-14137286D01*
X7138333Y-14175381D01*
X7128809Y-14194428D01*
X7119286Y-14203952D01*
X7100238Y-14213476D01*
X7081190Y-14213476D01*
X7062143Y-14203952D01*
X7052619Y-14194428D01*
X7043095Y-14175381D01*
X7033571Y-14137286D01*
X7033571Y-14089667D01*
X7043095Y-14051571D01*
X7052619Y-14032524D01*
X7062143Y-14023000D01*
X7081190Y-14013476D01*
X7214524Y-14013476D02*
X7338333Y-14013476D01*
X7271667Y-14089667D01*
X7300238Y-14089667D01*
X7319286Y-14099190D01*
X7328809Y-14108714D01*
X7338333Y-14127762D01*
X7338333Y-14175381D01*
X7328809Y-14194428D01*
X7319286Y-14203952D01*
X7300238Y-14213476D01*
X7243095Y-14213476D01*
X7224048Y-14203952D01*
X7214524Y-14194428D01*
X7519286Y-14013476D02*
X7424048Y-14013476D01*
X7414524Y-14108714D01*
X7424048Y-14099190D01*
X7443095Y-14089667D01*
X7490714Y-14089667D01*
X7509762Y-14099190D01*
X7519286Y-14108714D01*
X7528809Y-14127762D01*
X7528809Y-14175381D01*
X7519286Y-14194428D01*
X7509762Y-14203952D01*
X7490714Y-14213476D01*
X7443095Y-14213476D01*
X7424048Y-14203952D01*
X7414524Y-14194428D01*
X7652619Y-14013476D02*
X7671667Y-14013476D01*
X7690714Y-14023000D01*
X7700238Y-14032524D01*
X7709762Y-14051571D01*
X7719286Y-14089667D01*
X7719286Y-14137286D01*
X7709762Y-14175381D01*
X7700238Y-14194428D01*
X7690714Y-14203952D01*
X7671667Y-14213476D01*
X7652619Y-14213476D01*
X7633571Y-14203952D01*
X7624048Y-14194428D01*
X7614524Y-14175381D01*
X7605000Y-14137286D01*
X7605000Y-14089667D01*
X7614524Y-14051571D01*
X7624048Y-14032524D01*
X7633571Y-14023000D01*
X7652619Y-14013476D01*
X7795476Y-14013476D02*
X7795476Y-14051571D01*
X7871667Y-14013476D02*
X7871667Y-14051571D01*
X8166905Y-14289667D02*
X8157381Y-14280143D01*
X8138333Y-14251571D01*
X8128809Y-14232524D01*
X8119286Y-14203952D01*
X8109762Y-14156333D01*
X8109762Y-14118238D01*
X8119286Y-14070619D01*
X8128809Y-14042048D01*
X8138333Y-14023000D01*
X8157381Y-13994428D01*
X8166905Y-13984905D01*
X8233571Y-14032524D02*
X8243095Y-14023000D01*
X8262143Y-14013476D01*
X8309762Y-14013476D01*
X8328809Y-14023000D01*
X8338333Y-14032524D01*
X8347857Y-14051571D01*
X8347857Y-14070619D01*
X8338333Y-14099190D01*
X8224048Y-14213476D01*
X8347857Y-14213476D01*
X8585952Y-14213476D02*
X8585952Y-14013476D01*
X8671667Y-14213476D02*
X8671667Y-14108714D01*
X8662143Y-14089667D01*
X8643095Y-14080143D01*
X8614524Y-14080143D01*
X8595476Y-14089667D01*
X8585952Y-14099190D01*
X8795476Y-14213476D02*
X8776429Y-14203952D01*
X8766905Y-14194428D01*
X8757381Y-14175381D01*
X8757381Y-14118238D01*
X8766905Y-14099190D01*
X8776429Y-14089667D01*
X8795476Y-14080143D01*
X8824048Y-14080143D01*
X8843095Y-14089667D01*
X8852619Y-14099190D01*
X8862143Y-14118238D01*
X8862143Y-14175381D01*
X8852619Y-14194428D01*
X8843095Y-14203952D01*
X8824048Y-14213476D01*
X8795476Y-14213476D01*
X8976429Y-14213476D02*
X8957381Y-14203952D01*
X8947857Y-14184905D01*
X8947857Y-14013476D01*
X9128810Y-14203952D02*
X9109762Y-14213476D01*
X9071667Y-14213476D01*
X9052619Y-14203952D01*
X9043095Y-14184905D01*
X9043095Y-14108714D01*
X9052619Y-14089667D01*
X9071667Y-14080143D01*
X9109762Y-14080143D01*
X9128810Y-14089667D01*
X9138333Y-14108714D01*
X9138333Y-14127762D01*
X9043095Y-14146809D01*
X9214524Y-14203952D02*
X9233571Y-14213476D01*
X9271667Y-14213476D01*
X9290714Y-14203952D01*
X9300238Y-14184905D01*
X9300238Y-14175381D01*
X9290714Y-14156333D01*
X9271667Y-14146809D01*
X9243095Y-14146809D01*
X9224048Y-14137286D01*
X9214524Y-14118238D01*
X9214524Y-14108714D01*
X9224048Y-14089667D01*
X9243095Y-14080143D01*
X9271667Y-14080143D01*
X9290714Y-14089667D01*
X9366905Y-14289667D02*
X9376429Y-14280143D01*
X9395476Y-14251571D01*
X9405000Y-14232524D01*
X9414524Y-14203952D01*
X9424048Y-14156333D01*
X9424048Y-14118238D01*
X9414524Y-14070619D01*
X9405000Y-14042048D01*
X9395476Y-14023000D01*
X9376429Y-13994428D01*
X9366905Y-13984905D01*
D19*
X4495000Y-14337000D02*
X4595000Y-14437000D01*
X4595000Y-14337000D02*
X4495000Y-14437000D01*
X4580356Y-14422356D02*
X4580356Y-14351644D01*
X4509644Y-14351644D01*
X4509644Y-14422356D01*
X4580356Y-14422356D01*
D11*
X4957381Y-14477476D02*
X4843095Y-14477476D01*
X4900238Y-14477476D02*
X4900238Y-14277476D01*
X4881190Y-14306048D01*
X4862143Y-14325095D01*
X4843095Y-14334619D01*
X5043095Y-14458428D02*
X5052619Y-14467952D01*
X5043095Y-14477476D01*
X5033571Y-14467952D01*
X5043095Y-14458428D01*
X5043095Y-14477476D01*
X5176429Y-14277476D02*
X5195476Y-14277476D01*
X5214524Y-14287000D01*
X5224048Y-14296524D01*
X5233571Y-14315571D01*
X5243095Y-14353667D01*
X5243095Y-14401286D01*
X5233571Y-14439381D01*
X5224048Y-14458428D01*
X5214524Y-14467952D01*
X5195476Y-14477476D01*
X5176429Y-14477476D01*
X5157381Y-14467952D01*
X5147857Y-14458428D01*
X5138333Y-14439381D01*
X5128810Y-14401286D01*
X5128810Y-14353667D01*
X5138333Y-14315571D01*
X5147857Y-14296524D01*
X5157381Y-14287000D01*
X5176429Y-14277476D01*
X5366905Y-14277476D02*
X5385952Y-14277476D01*
X5405000Y-14287000D01*
X5414524Y-14296524D01*
X5424048Y-14315571D01*
X5433571Y-14353667D01*
X5433571Y-14401286D01*
X5424048Y-14439381D01*
X5414524Y-14458428D01*
X5405000Y-14467952D01*
X5385952Y-14477476D01*
X5366905Y-14477476D01*
X5347857Y-14467952D01*
X5338333Y-14458428D01*
X5328810Y-14439381D01*
X5319286Y-14401286D01*
X5319286Y-14353667D01*
X5328810Y-14315571D01*
X5338333Y-14296524D01*
X5347857Y-14287000D01*
X5366905Y-14277476D01*
X5557381Y-14277476D02*
X5576429Y-14277476D01*
X5595476Y-14287000D01*
X5605000Y-14296524D01*
X5614524Y-14315571D01*
X5624048Y-14353667D01*
X5624048Y-14401286D01*
X5614524Y-14439381D01*
X5605000Y-14458428D01*
X5595476Y-14467952D01*
X5576429Y-14477476D01*
X5557381Y-14477476D01*
X5538333Y-14467952D01*
X5528810Y-14458428D01*
X5519286Y-14439381D01*
X5509762Y-14401286D01*
X5509762Y-14353667D01*
X5519286Y-14315571D01*
X5528810Y-14296524D01*
X5538333Y-14287000D01*
X5557381Y-14277476D01*
X5709762Y-14477476D02*
X5709762Y-14344143D01*
X5709762Y-14363190D02*
X5719286Y-14353667D01*
X5738333Y-14344143D01*
X5766905Y-14344143D01*
X5785952Y-14353667D01*
X5795476Y-14372714D01*
X5795476Y-14477476D01*
X5795476Y-14372714D02*
X5805000Y-14353667D01*
X5824048Y-14344143D01*
X5852619Y-14344143D01*
X5871667Y-14353667D01*
X5881190Y-14372714D01*
X5881190Y-14477476D01*
X5976428Y-14477476D02*
X5976428Y-14344143D01*
X5976428Y-14363190D02*
X5985952Y-14353667D01*
X6005000Y-14344143D01*
X6033571Y-14344143D01*
X6052619Y-14353667D01*
X6062143Y-14372714D01*
X6062143Y-14477476D01*
X6062143Y-14372714D02*
X6071667Y-14353667D01*
X6090714Y-14344143D01*
X6119286Y-14344143D01*
X6138333Y-14353667D01*
X6147857Y-14372714D01*
X6147857Y-14477476D01*
X6538333Y-14267952D02*
X6366905Y-14525095D01*
X6795476Y-14277476D02*
X6814524Y-14277476D01*
X6833571Y-14287000D01*
X6843095Y-14296524D01*
X6852619Y-14315571D01*
X6862143Y-14353667D01*
X6862143Y-14401286D01*
X6852619Y-14439381D01*
X6843095Y-14458428D01*
X6833571Y-14467952D01*
X6814524Y-14477476D01*
X6795476Y-14477476D01*
X6776428Y-14467952D01*
X6766905Y-14458428D01*
X6757381Y-14439381D01*
X6747857Y-14401286D01*
X6747857Y-14353667D01*
X6757381Y-14315571D01*
X6766905Y-14296524D01*
X6776428Y-14287000D01*
X6795476Y-14277476D01*
X6947857Y-14458428D02*
X6957381Y-14467952D01*
X6947857Y-14477476D01*
X6938333Y-14467952D01*
X6947857Y-14458428D01*
X6947857Y-14477476D01*
X7081190Y-14277476D02*
X7100238Y-14277476D01*
X7119286Y-14287000D01*
X7128809Y-14296524D01*
X7138333Y-14315571D01*
X7147857Y-14353667D01*
X7147857Y-14401286D01*
X7138333Y-14439381D01*
X7128809Y-14458428D01*
X7119286Y-14467952D01*
X7100238Y-14477476D01*
X7081190Y-14477476D01*
X7062143Y-14467952D01*
X7052619Y-14458428D01*
X7043095Y-14439381D01*
X7033571Y-14401286D01*
X7033571Y-14353667D01*
X7043095Y-14315571D01*
X7052619Y-14296524D01*
X7062143Y-14287000D01*
X7081190Y-14277476D01*
X7214524Y-14277476D02*
X7338333Y-14277476D01*
X7271667Y-14353667D01*
X7300238Y-14353667D01*
X7319286Y-14363190D01*
X7328809Y-14372714D01*
X7338333Y-14391762D01*
X7338333Y-14439381D01*
X7328809Y-14458428D01*
X7319286Y-14467952D01*
X7300238Y-14477476D01*
X7243095Y-14477476D01*
X7224048Y-14467952D01*
X7214524Y-14458428D01*
X7433571Y-14477476D02*
X7471667Y-14477476D01*
X7490714Y-14467952D01*
X7500238Y-14458428D01*
X7519286Y-14429857D01*
X7528809Y-14391762D01*
X7528809Y-14315571D01*
X7519286Y-14296524D01*
X7509762Y-14287000D01*
X7490714Y-14277476D01*
X7452619Y-14277476D01*
X7433571Y-14287000D01*
X7424048Y-14296524D01*
X7414524Y-14315571D01*
X7414524Y-14363190D01*
X7424048Y-14382238D01*
X7433571Y-14391762D01*
X7452619Y-14401286D01*
X7490714Y-14401286D01*
X7509762Y-14391762D01*
X7519286Y-14382238D01*
X7528809Y-14363190D01*
X7700238Y-14344143D02*
X7700238Y-14477476D01*
X7652619Y-14267952D02*
X7605000Y-14410809D01*
X7728809Y-14410809D01*
X7795476Y-14277476D02*
X7795476Y-14315571D01*
X7871667Y-14277476D02*
X7871667Y-14315571D01*
X8166905Y-14553667D02*
X8157381Y-14544143D01*
X8138333Y-14515571D01*
X8128809Y-14496524D01*
X8119286Y-14467952D01*
X8109762Y-14420333D01*
X8109762Y-14382238D01*
X8119286Y-14334619D01*
X8128809Y-14306048D01*
X8138333Y-14287000D01*
X8157381Y-14258428D01*
X8166905Y-14248905D01*
X8233571Y-14296524D02*
X8243095Y-14287000D01*
X8262143Y-14277476D01*
X8309762Y-14277476D01*
X8328809Y-14287000D01*
X8338333Y-14296524D01*
X8347857Y-14315571D01*
X8347857Y-14334619D01*
X8338333Y-14363190D01*
X8224048Y-14477476D01*
X8347857Y-14477476D01*
X8414524Y-14277476D02*
X8547857Y-14277476D01*
X8462143Y-14477476D01*
X8776429Y-14477476D02*
X8776429Y-14277476D01*
X8862143Y-14477476D02*
X8862143Y-14372714D01*
X8852619Y-14353667D01*
X8833571Y-14344143D01*
X8805000Y-14344143D01*
X8785952Y-14353667D01*
X8776429Y-14363190D01*
X8985952Y-14477476D02*
X8966905Y-14467952D01*
X8957381Y-14458428D01*
X8947857Y-14439381D01*
X8947857Y-14382238D01*
X8957381Y-14363190D01*
X8966905Y-14353667D01*
X8985952Y-14344143D01*
X9014524Y-14344143D01*
X9033571Y-14353667D01*
X9043095Y-14363190D01*
X9052619Y-14382238D01*
X9052619Y-14439381D01*
X9043095Y-14458428D01*
X9033571Y-14467952D01*
X9014524Y-14477476D01*
X8985952Y-14477476D01*
X9166905Y-14477476D02*
X9147857Y-14467952D01*
X9138333Y-14448905D01*
X9138333Y-14277476D01*
X9319286Y-14467952D02*
X9300238Y-14477476D01*
X9262143Y-14477476D01*
X9243095Y-14467952D01*
X9233571Y-14448905D01*
X9233571Y-14372714D01*
X9243095Y-14353667D01*
X9262143Y-14344143D01*
X9300238Y-14344143D01*
X9319286Y-14353667D01*
X9328810Y-14372714D01*
X9328810Y-14391762D01*
X9233571Y-14410809D01*
X9405000Y-14467952D02*
X9424048Y-14477476D01*
X9462143Y-14477476D01*
X9481190Y-14467952D01*
X9490714Y-14448905D01*
X9490714Y-14439381D01*
X9481190Y-14420333D01*
X9462143Y-14410809D01*
X9433571Y-14410809D01*
X9414524Y-14401286D01*
X9405000Y-14382238D01*
X9405000Y-14372714D01*
X9414524Y-14353667D01*
X9433571Y-14344143D01*
X9462143Y-14344143D01*
X9481190Y-14353667D01*
X9557381Y-14553667D02*
X9566905Y-14544143D01*
X9585952Y-14515571D01*
X9595476Y-14496524D01*
X9605000Y-14467952D01*
X9614524Y-14420333D01*
X9614524Y-14382238D01*
X9605000Y-14334619D01*
X9595476Y-14306048D01*
X9585952Y-14287000D01*
X9566905Y-14258428D01*
X9557381Y-14248905D01*
D20*
X4494924Y-14600962D02*
X4595000Y-14701038D01*
X4595000Y-14600962D02*
X4494924Y-14701038D01*
X4544962Y-14701038D02*
X4595000Y-14651000D01*
X4544962Y-14600962D01*
X4494924Y-14651000D01*
X4544962Y-14701038D01*
D11*
X4957381Y-14741476D02*
X4843095Y-14741476D01*
X4900238Y-14741476D02*
X4900238Y-14541476D01*
X4881190Y-14570048D01*
X4862143Y-14589095D01*
X4843095Y-14598619D01*
X5043095Y-14722428D02*
X5052619Y-14731952D01*
X5043095Y-14741476D01*
X5033571Y-14731952D01*
X5043095Y-14722428D01*
X5043095Y-14741476D01*
X5176429Y-14541476D02*
X5195476Y-14541476D01*
X5214524Y-14551000D01*
X5224048Y-14560524D01*
X5233571Y-14579571D01*
X5243095Y-14617667D01*
X5243095Y-14665286D01*
X5233571Y-14703381D01*
X5224048Y-14722428D01*
X5214524Y-14731952D01*
X5195476Y-14741476D01*
X5176429Y-14741476D01*
X5157381Y-14731952D01*
X5147857Y-14722428D01*
X5138333Y-14703381D01*
X5128810Y-14665286D01*
X5128810Y-14617667D01*
X5138333Y-14579571D01*
X5147857Y-14560524D01*
X5157381Y-14551000D01*
X5176429Y-14541476D01*
X5366905Y-14541476D02*
X5385952Y-14541476D01*
X5405000Y-14551000D01*
X5414524Y-14560524D01*
X5424048Y-14579571D01*
X5433571Y-14617667D01*
X5433571Y-14665286D01*
X5424048Y-14703381D01*
X5414524Y-14722428D01*
X5405000Y-14731952D01*
X5385952Y-14741476D01*
X5366905Y-14741476D01*
X5347857Y-14731952D01*
X5338333Y-14722428D01*
X5328810Y-14703381D01*
X5319286Y-14665286D01*
X5319286Y-14617667D01*
X5328810Y-14579571D01*
X5338333Y-14560524D01*
X5347857Y-14551000D01*
X5366905Y-14541476D01*
X5624048Y-14741476D02*
X5509762Y-14741476D01*
X5566905Y-14741476D02*
X5566905Y-14541476D01*
X5547857Y-14570048D01*
X5528810Y-14589095D01*
X5509762Y-14598619D01*
X5709762Y-14741476D02*
X5709762Y-14608143D01*
X5709762Y-14627190D02*
X5719286Y-14617667D01*
X5738333Y-14608143D01*
X5766905Y-14608143D01*
X5785952Y-14617667D01*
X5795476Y-14636714D01*
X5795476Y-14741476D01*
X5795476Y-14636714D02*
X5805000Y-14617667D01*
X5824048Y-14608143D01*
X5852619Y-14608143D01*
X5871667Y-14617667D01*
X5881190Y-14636714D01*
X5881190Y-14741476D01*
X5976428Y-14741476D02*
X5976428Y-14608143D01*
X5976428Y-14627190D02*
X5985952Y-14617667D01*
X6005000Y-14608143D01*
X6033571Y-14608143D01*
X6052619Y-14617667D01*
X6062143Y-14636714D01*
X6062143Y-14741476D01*
X6062143Y-14636714D02*
X6071667Y-14617667D01*
X6090714Y-14608143D01*
X6119286Y-14608143D01*
X6138333Y-14617667D01*
X6147857Y-14636714D01*
X6147857Y-14741476D01*
X6538333Y-14531952D02*
X6366905Y-14789095D01*
X6795476Y-14541476D02*
X6814524Y-14541476D01*
X6833571Y-14551000D01*
X6843095Y-14560524D01*
X6852619Y-14579571D01*
X6862143Y-14617667D01*
X6862143Y-14665286D01*
X6852619Y-14703381D01*
X6843095Y-14722428D01*
X6833571Y-14731952D01*
X6814524Y-14741476D01*
X6795476Y-14741476D01*
X6776428Y-14731952D01*
X6766905Y-14722428D01*
X6757381Y-14703381D01*
X6747857Y-14665286D01*
X6747857Y-14617667D01*
X6757381Y-14579571D01*
X6766905Y-14560524D01*
X6776428Y-14551000D01*
X6795476Y-14541476D01*
X6947857Y-14722428D02*
X6957381Y-14731952D01*
X6947857Y-14741476D01*
X6938333Y-14731952D01*
X6947857Y-14722428D01*
X6947857Y-14741476D01*
X7081190Y-14541476D02*
X7100238Y-14541476D01*
X7119286Y-14551000D01*
X7128809Y-14560524D01*
X7138333Y-14579571D01*
X7147857Y-14617667D01*
X7147857Y-14665286D01*
X7138333Y-14703381D01*
X7128809Y-14722428D01*
X7119286Y-14731952D01*
X7100238Y-14741476D01*
X7081190Y-14741476D01*
X7062143Y-14731952D01*
X7052619Y-14722428D01*
X7043095Y-14703381D01*
X7033571Y-14665286D01*
X7033571Y-14617667D01*
X7043095Y-14579571D01*
X7052619Y-14560524D01*
X7062143Y-14551000D01*
X7081190Y-14541476D01*
X7214524Y-14541476D02*
X7338333Y-14541476D01*
X7271667Y-14617667D01*
X7300238Y-14617667D01*
X7319286Y-14627190D01*
X7328809Y-14636714D01*
X7338333Y-14655762D01*
X7338333Y-14703381D01*
X7328809Y-14722428D01*
X7319286Y-14731952D01*
X7300238Y-14741476D01*
X7243095Y-14741476D01*
X7224048Y-14731952D01*
X7214524Y-14722428D01*
X7433571Y-14741476D02*
X7471667Y-14741476D01*
X7490714Y-14731952D01*
X7500238Y-14722428D01*
X7519286Y-14693857D01*
X7528809Y-14655762D01*
X7528809Y-14579571D01*
X7519286Y-14560524D01*
X7509762Y-14551000D01*
X7490714Y-14541476D01*
X7452619Y-14541476D01*
X7433571Y-14551000D01*
X7424048Y-14560524D01*
X7414524Y-14579571D01*
X7414524Y-14627190D01*
X7424048Y-14646238D01*
X7433571Y-14655762D01*
X7452619Y-14665286D01*
X7490714Y-14665286D01*
X7509762Y-14655762D01*
X7519286Y-14646238D01*
X7528809Y-14627190D01*
X7700238Y-14608143D02*
X7700238Y-14741476D01*
X7652619Y-14531952D02*
X7605000Y-14674809D01*
X7728809Y-14674809D01*
X7795476Y-14541476D02*
X7795476Y-14579571D01*
X7871667Y-14541476D02*
X7871667Y-14579571D01*
X8166905Y-14817667D02*
X8157381Y-14808143D01*
X8138333Y-14779571D01*
X8128809Y-14760524D01*
X8119286Y-14731952D01*
X8109762Y-14684333D01*
X8109762Y-14646238D01*
X8119286Y-14598619D01*
X8128809Y-14570048D01*
X8138333Y-14551000D01*
X8157381Y-14522428D01*
X8166905Y-14512905D01*
X8328809Y-14541476D02*
X8290714Y-14541476D01*
X8271667Y-14551000D01*
X8262143Y-14560524D01*
X8243095Y-14589095D01*
X8233571Y-14627190D01*
X8233571Y-14703381D01*
X8243095Y-14722428D01*
X8252619Y-14731952D01*
X8271667Y-14741476D01*
X8309762Y-14741476D01*
X8328809Y-14731952D01*
X8338333Y-14722428D01*
X8347857Y-14703381D01*
X8347857Y-14655762D01*
X8338333Y-14636714D01*
X8328809Y-14627190D01*
X8309762Y-14617667D01*
X8271667Y-14617667D01*
X8252619Y-14627190D01*
X8243095Y-14636714D01*
X8233571Y-14655762D01*
X8585952Y-14741476D02*
X8585952Y-14541476D01*
X8671667Y-14741476D02*
X8671667Y-14636714D01*
X8662143Y-14617667D01*
X8643095Y-14608143D01*
X8614524Y-14608143D01*
X8595476Y-14617667D01*
X8585952Y-14627190D01*
X8795476Y-14741476D02*
X8776429Y-14731952D01*
X8766905Y-14722428D01*
X8757381Y-14703381D01*
X8757381Y-14646238D01*
X8766905Y-14627190D01*
X8776429Y-14617667D01*
X8795476Y-14608143D01*
X8824048Y-14608143D01*
X8843095Y-14617667D01*
X8852619Y-14627190D01*
X8862143Y-14646238D01*
X8862143Y-14703381D01*
X8852619Y-14722428D01*
X8843095Y-14731952D01*
X8824048Y-14741476D01*
X8795476Y-14741476D01*
X8976429Y-14741476D02*
X8957381Y-14731952D01*
X8947857Y-14712905D01*
X8947857Y-14541476D01*
X9128810Y-14731952D02*
X9109762Y-14741476D01*
X9071667Y-14741476D01*
X9052619Y-14731952D01*
X9043095Y-14712905D01*
X9043095Y-14636714D01*
X9052619Y-14617667D01*
X9071667Y-14608143D01*
X9109762Y-14608143D01*
X9128810Y-14617667D01*
X9138333Y-14636714D01*
X9138333Y-14655762D01*
X9043095Y-14674809D01*
X9214524Y-14731952D02*
X9233571Y-14741476D01*
X9271667Y-14741476D01*
X9290714Y-14731952D01*
X9300238Y-14712905D01*
X9300238Y-14703381D01*
X9290714Y-14684333D01*
X9271667Y-14674809D01*
X9243095Y-14674809D01*
X9224048Y-14665286D01*
X9214524Y-14646238D01*
X9214524Y-14636714D01*
X9224048Y-14617667D01*
X9243095Y-14608143D01*
X9271667Y-14608143D01*
X9290714Y-14617667D01*
X9366905Y-14817667D02*
X9376429Y-14808143D01*
X9395476Y-14779571D01*
X9405000Y-14760524D01*
X9414524Y-14731952D01*
X9424048Y-14684333D01*
X9424048Y-14646238D01*
X9414524Y-14598619D01*
X9405000Y-14570048D01*
X9395476Y-14551000D01*
X9376429Y-14522428D01*
X9366905Y-14512905D01*
D21*
X4544200Y-14864200D02*
X4544200Y-14965800D01*
X4493400Y-14915000D02*
X4595000Y-14915000D01*
X4595000Y-14915000D02*
G75*
G03*
X4595000Y-14915000I-50800J0D01*
G01*
D11*
X4957381Y-15005476D02*
X4843095Y-15005476D01*
X4900238Y-15005476D02*
X4900238Y-14805476D01*
X4881190Y-14834048D01*
X4862143Y-14853095D01*
X4843095Y-14862619D01*
X5043095Y-14986428D02*
X5052619Y-14995952D01*
X5043095Y-15005476D01*
X5033571Y-14995952D01*
X5043095Y-14986428D01*
X5043095Y-15005476D01*
X5176429Y-14805476D02*
X5195476Y-14805476D01*
X5214524Y-14815000D01*
X5224048Y-14824524D01*
X5233571Y-14843571D01*
X5243095Y-14881667D01*
X5243095Y-14929286D01*
X5233571Y-14967381D01*
X5224048Y-14986428D01*
X5214524Y-14995952D01*
X5195476Y-15005476D01*
X5176429Y-15005476D01*
X5157381Y-14995952D01*
X5147857Y-14986428D01*
X5138333Y-14967381D01*
X5128810Y-14929286D01*
X5128810Y-14881667D01*
X5138333Y-14843571D01*
X5147857Y-14824524D01*
X5157381Y-14815000D01*
X5176429Y-14805476D01*
X5433571Y-15005476D02*
X5319286Y-15005476D01*
X5376429Y-15005476D02*
X5376429Y-14805476D01*
X5357381Y-14834048D01*
X5338333Y-14853095D01*
X5319286Y-14862619D01*
X5605000Y-14805476D02*
X5566905Y-14805476D01*
X5547857Y-14815000D01*
X5538333Y-14824524D01*
X5519286Y-14853095D01*
X5509762Y-14891190D01*
X5509762Y-14967381D01*
X5519286Y-14986428D01*
X5528810Y-14995952D01*
X5547857Y-15005476D01*
X5585952Y-15005476D01*
X5605000Y-14995952D01*
X5614524Y-14986428D01*
X5624048Y-14967381D01*
X5624048Y-14919762D01*
X5614524Y-14900714D01*
X5605000Y-14891190D01*
X5585952Y-14881667D01*
X5547857Y-14881667D01*
X5528810Y-14891190D01*
X5519286Y-14900714D01*
X5509762Y-14919762D01*
X5709762Y-15005476D02*
X5709762Y-14872143D01*
X5709762Y-14891190D02*
X5719286Y-14881667D01*
X5738333Y-14872143D01*
X5766905Y-14872143D01*
X5785952Y-14881667D01*
X5795476Y-14900714D01*
X5795476Y-15005476D01*
X5795476Y-14900714D02*
X5805000Y-14881667D01*
X5824048Y-14872143D01*
X5852619Y-14872143D01*
X5871667Y-14881667D01*
X5881190Y-14900714D01*
X5881190Y-15005476D01*
X5976428Y-15005476D02*
X5976428Y-14872143D01*
X5976428Y-14891190D02*
X5985952Y-14881667D01*
X6005000Y-14872143D01*
X6033571Y-14872143D01*
X6052619Y-14881667D01*
X6062143Y-14900714D01*
X6062143Y-15005476D01*
X6062143Y-14900714D02*
X6071667Y-14881667D01*
X6090714Y-14872143D01*
X6119286Y-14872143D01*
X6138333Y-14881667D01*
X6147857Y-14900714D01*
X6147857Y-15005476D01*
X6538333Y-14795952D02*
X6366905Y-15053095D01*
X6795476Y-14805476D02*
X6814524Y-14805476D01*
X6833571Y-14815000D01*
X6843095Y-14824524D01*
X6852619Y-14843571D01*
X6862143Y-14881667D01*
X6862143Y-14929286D01*
X6852619Y-14967381D01*
X6843095Y-14986428D01*
X6833571Y-14995952D01*
X6814524Y-15005476D01*
X6795476Y-15005476D01*
X6776428Y-14995952D01*
X6766905Y-14986428D01*
X6757381Y-14967381D01*
X6747857Y-14929286D01*
X6747857Y-14881667D01*
X6757381Y-14843571D01*
X6766905Y-14824524D01*
X6776428Y-14815000D01*
X6795476Y-14805476D01*
X6947857Y-14986428D02*
X6957381Y-14995952D01*
X6947857Y-15005476D01*
X6938333Y-14995952D01*
X6947857Y-14986428D01*
X6947857Y-15005476D01*
X7081190Y-14805476D02*
X7100238Y-14805476D01*
X7119286Y-14815000D01*
X7128809Y-14824524D01*
X7138333Y-14843571D01*
X7147857Y-14881667D01*
X7147857Y-14929286D01*
X7138333Y-14967381D01*
X7128809Y-14986428D01*
X7119286Y-14995952D01*
X7100238Y-15005476D01*
X7081190Y-15005476D01*
X7062143Y-14995952D01*
X7052619Y-14986428D01*
X7043095Y-14967381D01*
X7033571Y-14929286D01*
X7033571Y-14881667D01*
X7043095Y-14843571D01*
X7052619Y-14824524D01*
X7062143Y-14815000D01*
X7081190Y-14805476D01*
X7319286Y-14872143D02*
X7319286Y-15005476D01*
X7271667Y-14795952D02*
X7224048Y-14938809D01*
X7347857Y-14938809D01*
X7462143Y-14805476D02*
X7481190Y-14805476D01*
X7500238Y-14815000D01*
X7509762Y-14824524D01*
X7519286Y-14843571D01*
X7528809Y-14881667D01*
X7528809Y-14929286D01*
X7519286Y-14967381D01*
X7509762Y-14986428D01*
X7500238Y-14995952D01*
X7481190Y-15005476D01*
X7462143Y-15005476D01*
X7443095Y-14995952D01*
X7433571Y-14986428D01*
X7424048Y-14967381D01*
X7414524Y-14929286D01*
X7414524Y-14881667D01*
X7424048Y-14843571D01*
X7433571Y-14824524D01*
X7443095Y-14815000D01*
X7462143Y-14805476D01*
X7652619Y-14805476D02*
X7671667Y-14805476D01*
X7690714Y-14815000D01*
X7700238Y-14824524D01*
X7709762Y-14843571D01*
X7719286Y-14881667D01*
X7719286Y-14929286D01*
X7709762Y-14967381D01*
X7700238Y-14986428D01*
X7690714Y-14995952D01*
X7671667Y-15005476D01*
X7652619Y-15005476D01*
X7633571Y-14995952D01*
X7624048Y-14986428D01*
X7614524Y-14967381D01*
X7605000Y-14929286D01*
X7605000Y-14881667D01*
X7614524Y-14843571D01*
X7624048Y-14824524D01*
X7633571Y-14815000D01*
X7652619Y-14805476D01*
X7795476Y-14805476D02*
X7795476Y-14843571D01*
X7871667Y-14805476D02*
X7871667Y-14843571D01*
X8166905Y-15081667D02*
X8157381Y-15072143D01*
X8138333Y-15043571D01*
X8128809Y-15024524D01*
X8119286Y-14995952D01*
X8109762Y-14948333D01*
X8109762Y-14910238D01*
X8119286Y-14862619D01*
X8128809Y-14834048D01*
X8138333Y-14815000D01*
X8157381Y-14786428D01*
X8166905Y-14776905D01*
X8271667Y-14891190D02*
X8252619Y-14881667D01*
X8243095Y-14872143D01*
X8233571Y-14853095D01*
X8233571Y-14843571D01*
X8243095Y-14824524D01*
X8252619Y-14815000D01*
X8271667Y-14805476D01*
X8309762Y-14805476D01*
X8328809Y-14815000D01*
X8338333Y-14824524D01*
X8347857Y-14843571D01*
X8347857Y-14853095D01*
X8338333Y-14872143D01*
X8328809Y-14881667D01*
X8309762Y-14891190D01*
X8271667Y-14891190D01*
X8252619Y-14900714D01*
X8243095Y-14910238D01*
X8233571Y-14929286D01*
X8233571Y-14967381D01*
X8243095Y-14986428D01*
X8252619Y-14995952D01*
X8271667Y-15005476D01*
X8309762Y-15005476D01*
X8328809Y-14995952D01*
X8338333Y-14986428D01*
X8347857Y-14967381D01*
X8347857Y-14929286D01*
X8338333Y-14910238D01*
X8328809Y-14900714D01*
X8309762Y-14891190D01*
X8585952Y-15005476D02*
X8585952Y-14805476D01*
X8671667Y-15005476D02*
X8671667Y-14900714D01*
X8662143Y-14881667D01*
X8643095Y-14872143D01*
X8614524Y-14872143D01*
X8595476Y-14881667D01*
X8585952Y-14891190D01*
X8795476Y-15005476D02*
X8776429Y-14995952D01*
X8766905Y-14986428D01*
X8757381Y-14967381D01*
X8757381Y-14910238D01*
X8766905Y-14891190D01*
X8776429Y-14881667D01*
X8795476Y-14872143D01*
X8824048Y-14872143D01*
X8843095Y-14881667D01*
X8852619Y-14891190D01*
X8862143Y-14910238D01*
X8862143Y-14967381D01*
X8852619Y-14986428D01*
X8843095Y-14995952D01*
X8824048Y-15005476D01*
X8795476Y-15005476D01*
X8976429Y-15005476D02*
X8957381Y-14995952D01*
X8947857Y-14976905D01*
X8947857Y-14805476D01*
X9128810Y-14995952D02*
X9109762Y-15005476D01*
X9071667Y-15005476D01*
X9052619Y-14995952D01*
X9043095Y-14976905D01*
X9043095Y-14900714D01*
X9052619Y-14881667D01*
X9071667Y-14872143D01*
X9109762Y-14872143D01*
X9128810Y-14881667D01*
X9138333Y-14900714D01*
X9138333Y-14919762D01*
X9043095Y-14938809D01*
X9214524Y-14995952D02*
X9233571Y-15005476D01*
X9271667Y-15005476D01*
X9290714Y-14995952D01*
X9300238Y-14976905D01*
X9300238Y-14967381D01*
X9290714Y-14948333D01*
X9271667Y-14938809D01*
X9243095Y-14938809D01*
X9224048Y-14929286D01*
X9214524Y-14910238D01*
X9214524Y-14900714D01*
X9224048Y-14881667D01*
X9243095Y-14872143D01*
X9271667Y-14872143D01*
X9290714Y-14881667D01*
X9366905Y-15081667D02*
X9376429Y-15072143D01*
X9395476Y-15043571D01*
X9405000Y-15024524D01*
X9414524Y-14995952D01*
X9424048Y-14948333D01*
X9424048Y-14910238D01*
X9414524Y-14862619D01*
X9405000Y-14834048D01*
X9395476Y-14815000D01*
X9376429Y-14786428D01*
X9366905Y-14776905D01*
D22*
X4578891Y-15217891D02*
X4578891Y-15140109D01*
X4501109Y-15140109D01*
X4501109Y-15217891D01*
X4578891Y-15217891D01*
X4595000Y-15179000D02*
G75*
G03*
X4595000Y-15179000I-55000J0D01*
G01*
D11*
X4957381Y-15269476D02*
X4843095Y-15269476D01*
X4900238Y-15269476D02*
X4900238Y-15069476D01*
X4881190Y-15098048D01*
X4862143Y-15117095D01*
X4843095Y-15126619D01*
X5043095Y-15250428D02*
X5052619Y-15259952D01*
X5043095Y-15269476D01*
X5033571Y-15259952D01*
X5043095Y-15250428D01*
X5043095Y-15269476D01*
X5243095Y-15269476D02*
X5128810Y-15269476D01*
X5185952Y-15269476D02*
X5185952Y-15069476D01*
X5166905Y-15098048D01*
X5147857Y-15117095D01*
X5128810Y-15126619D01*
X5366905Y-15069476D02*
X5385952Y-15069476D01*
X5405000Y-15079000D01*
X5414524Y-15088524D01*
X5424048Y-15107571D01*
X5433571Y-15145667D01*
X5433571Y-15193286D01*
X5424048Y-15231381D01*
X5414524Y-15250428D01*
X5405000Y-15259952D01*
X5385952Y-15269476D01*
X5366905Y-15269476D01*
X5347857Y-15259952D01*
X5338333Y-15250428D01*
X5328810Y-15231381D01*
X5319286Y-15193286D01*
X5319286Y-15145667D01*
X5328810Y-15107571D01*
X5338333Y-15088524D01*
X5347857Y-15079000D01*
X5366905Y-15069476D01*
X5557381Y-15069476D02*
X5576429Y-15069476D01*
X5595476Y-15079000D01*
X5605000Y-15088524D01*
X5614524Y-15107571D01*
X5624048Y-15145667D01*
X5624048Y-15193286D01*
X5614524Y-15231381D01*
X5605000Y-15250428D01*
X5595476Y-15259952D01*
X5576429Y-15269476D01*
X5557381Y-15269476D01*
X5538333Y-15259952D01*
X5528810Y-15250428D01*
X5519286Y-15231381D01*
X5509762Y-15193286D01*
X5509762Y-15145667D01*
X5519286Y-15107571D01*
X5528810Y-15088524D01*
X5538333Y-15079000D01*
X5557381Y-15069476D01*
X5709762Y-15269476D02*
X5709762Y-15136143D01*
X5709762Y-15155190D02*
X5719286Y-15145667D01*
X5738333Y-15136143D01*
X5766905Y-15136143D01*
X5785952Y-15145667D01*
X5795476Y-15164714D01*
X5795476Y-15269476D01*
X5795476Y-15164714D02*
X5805000Y-15145667D01*
X5824048Y-15136143D01*
X5852619Y-15136143D01*
X5871667Y-15145667D01*
X5881190Y-15164714D01*
X5881190Y-15269476D01*
X5976428Y-15269476D02*
X5976428Y-15136143D01*
X5976428Y-15155190D02*
X5985952Y-15145667D01*
X6005000Y-15136143D01*
X6033571Y-15136143D01*
X6052619Y-15145667D01*
X6062143Y-15164714D01*
X6062143Y-15269476D01*
X6062143Y-15164714D02*
X6071667Y-15145667D01*
X6090714Y-15136143D01*
X6119286Y-15136143D01*
X6138333Y-15145667D01*
X6147857Y-15164714D01*
X6147857Y-15269476D01*
X6538333Y-15059952D02*
X6366905Y-15317095D01*
X6795476Y-15069476D02*
X6814524Y-15069476D01*
X6833571Y-15079000D01*
X6843095Y-15088524D01*
X6852619Y-15107571D01*
X6862143Y-15145667D01*
X6862143Y-15193286D01*
X6852619Y-15231381D01*
X6843095Y-15250428D01*
X6833571Y-15259952D01*
X6814524Y-15269476D01*
X6795476Y-15269476D01*
X6776428Y-15259952D01*
X6766905Y-15250428D01*
X6757381Y-15231381D01*
X6747857Y-15193286D01*
X6747857Y-15145667D01*
X6757381Y-15107571D01*
X6766905Y-15088524D01*
X6776428Y-15079000D01*
X6795476Y-15069476D01*
X6947857Y-15250428D02*
X6957381Y-15259952D01*
X6947857Y-15269476D01*
X6938333Y-15259952D01*
X6947857Y-15250428D01*
X6947857Y-15269476D01*
X7081190Y-15069476D02*
X7100238Y-15069476D01*
X7119286Y-15079000D01*
X7128809Y-15088524D01*
X7138333Y-15107571D01*
X7147857Y-15145667D01*
X7147857Y-15193286D01*
X7138333Y-15231381D01*
X7128809Y-15250428D01*
X7119286Y-15259952D01*
X7100238Y-15269476D01*
X7081190Y-15269476D01*
X7062143Y-15259952D01*
X7052619Y-15250428D01*
X7043095Y-15231381D01*
X7033571Y-15193286D01*
X7033571Y-15145667D01*
X7043095Y-15107571D01*
X7052619Y-15088524D01*
X7062143Y-15079000D01*
X7081190Y-15069476D01*
X7319286Y-15136143D02*
X7319286Y-15269476D01*
X7271667Y-15059952D02*
X7224048Y-15202809D01*
X7347857Y-15202809D01*
X7405000Y-15069476D02*
X7528809Y-15069476D01*
X7462143Y-15145667D01*
X7490714Y-15145667D01*
X7509762Y-15155190D01*
X7519286Y-15164714D01*
X7528809Y-15183762D01*
X7528809Y-15231381D01*
X7519286Y-15250428D01*
X7509762Y-15259952D01*
X7490714Y-15269476D01*
X7433571Y-15269476D01*
X7414524Y-15259952D01*
X7405000Y-15250428D01*
X7595476Y-15069476D02*
X7719286Y-15069476D01*
X7652619Y-15145667D01*
X7681190Y-15145667D01*
X7700238Y-15155190D01*
X7709762Y-15164714D01*
X7719286Y-15183762D01*
X7719286Y-15231381D01*
X7709762Y-15250428D01*
X7700238Y-15259952D01*
X7681190Y-15269476D01*
X7624048Y-15269476D01*
X7605000Y-15259952D01*
X7595476Y-15250428D01*
X7795476Y-15069476D02*
X7795476Y-15107571D01*
X7871667Y-15069476D02*
X7871667Y-15107571D01*
X8166905Y-15345667D02*
X8157381Y-15336143D01*
X8138333Y-15307571D01*
X8128809Y-15288524D01*
X8119286Y-15259952D01*
X8109762Y-15212333D01*
X8109762Y-15174238D01*
X8119286Y-15126619D01*
X8128809Y-15098048D01*
X8138333Y-15079000D01*
X8157381Y-15050428D01*
X8166905Y-15040905D01*
X8233571Y-15088524D02*
X8243095Y-15079000D01*
X8262143Y-15069476D01*
X8309762Y-15069476D01*
X8328809Y-15079000D01*
X8338333Y-15088524D01*
X8347857Y-15107571D01*
X8347857Y-15126619D01*
X8338333Y-15155190D01*
X8224048Y-15269476D01*
X8347857Y-15269476D01*
X8585952Y-15269476D02*
X8585952Y-15069476D01*
X8671667Y-15269476D02*
X8671667Y-15164714D01*
X8662143Y-15145667D01*
X8643095Y-15136143D01*
X8614524Y-15136143D01*
X8595476Y-15145667D01*
X8585952Y-15155190D01*
X8795476Y-15269476D02*
X8776429Y-15259952D01*
X8766905Y-15250428D01*
X8757381Y-15231381D01*
X8757381Y-15174238D01*
X8766905Y-15155190D01*
X8776429Y-15145667D01*
X8795476Y-15136143D01*
X8824048Y-15136143D01*
X8843095Y-15145667D01*
X8852619Y-15155190D01*
X8862143Y-15174238D01*
X8862143Y-15231381D01*
X8852619Y-15250428D01*
X8843095Y-15259952D01*
X8824048Y-15269476D01*
X8795476Y-15269476D01*
X8976429Y-15269476D02*
X8957381Y-15259952D01*
X8947857Y-15240905D01*
X8947857Y-15069476D01*
X9128810Y-15259952D02*
X9109762Y-15269476D01*
X9071667Y-15269476D01*
X9052619Y-15259952D01*
X9043095Y-15240905D01*
X9043095Y-15164714D01*
X9052619Y-15145667D01*
X9071667Y-15136143D01*
X9109762Y-15136143D01*
X9128810Y-15145667D01*
X9138333Y-15164714D01*
X9138333Y-15183762D01*
X9043095Y-15202809D01*
X9214524Y-15259952D02*
X9233571Y-15269476D01*
X9271667Y-15269476D01*
X9290714Y-15259952D01*
X9300238Y-15240905D01*
X9300238Y-15231381D01*
X9290714Y-15212333D01*
X9271667Y-15202809D01*
X9243095Y-15202809D01*
X9224048Y-15193286D01*
X9214524Y-15174238D01*
X9214524Y-15164714D01*
X9224048Y-15145667D01*
X9243095Y-15136143D01*
X9271667Y-15136143D01*
X9290714Y-15145667D01*
X9366905Y-15345667D02*
X9376429Y-15336143D01*
X9395476Y-15307571D01*
X9405000Y-15288524D01*
X9414524Y-15259952D01*
X9424048Y-15212333D01*
X9424048Y-15174238D01*
X9414524Y-15126619D01*
X9405000Y-15098048D01*
X9395476Y-15079000D01*
X9376429Y-15050428D01*
X9366905Y-15040905D01*
X4495000Y-15543000D02*
X4595000Y-15443000D01*
X4495000Y-15343000D01*
X4395000Y-15443000D01*
X4495000Y-15543000D01*
X4595000Y-15443000D02*
G75*
G03*
X4595000Y-15443000I-100000J0D01*
G01*
X4843095Y-15352524D02*
X4852619Y-15343000D01*
X4871667Y-15333476D01*
X4919286Y-15333476D01*
X4938333Y-15343000D01*
X4947857Y-15352524D01*
X4957381Y-15371571D01*
X4957381Y-15390619D01*
X4947857Y-15419190D01*
X4833571Y-15533476D01*
X4957381Y-15533476D01*
X5043095Y-15514428D02*
X5052619Y-15523952D01*
X5043095Y-15533476D01*
X5033571Y-15523952D01*
X5043095Y-15514428D01*
X5043095Y-15533476D01*
X5176429Y-15333476D02*
X5195476Y-15333476D01*
X5214524Y-15343000D01*
X5224048Y-15352524D01*
X5233571Y-15371571D01*
X5243095Y-15409667D01*
X5243095Y-15457286D01*
X5233571Y-15495381D01*
X5224048Y-15514428D01*
X5214524Y-15523952D01*
X5195476Y-15533476D01*
X5176429Y-15533476D01*
X5157381Y-15523952D01*
X5147857Y-15514428D01*
X5138333Y-15495381D01*
X5128810Y-15457286D01*
X5128810Y-15409667D01*
X5138333Y-15371571D01*
X5147857Y-15352524D01*
X5157381Y-15343000D01*
X5176429Y-15333476D01*
X5433571Y-15533476D02*
X5319286Y-15533476D01*
X5376429Y-15533476D02*
X5376429Y-15333476D01*
X5357381Y-15362048D01*
X5338333Y-15381095D01*
X5319286Y-15390619D01*
X5557381Y-15333476D02*
X5576429Y-15333476D01*
X5595476Y-15343000D01*
X5605000Y-15352524D01*
X5614524Y-15371571D01*
X5624048Y-15409667D01*
X5624048Y-15457286D01*
X5614524Y-15495381D01*
X5605000Y-15514428D01*
X5595476Y-15523952D01*
X5576429Y-15533476D01*
X5557381Y-15533476D01*
X5538333Y-15523952D01*
X5528810Y-15514428D01*
X5519286Y-15495381D01*
X5509762Y-15457286D01*
X5509762Y-15409667D01*
X5519286Y-15371571D01*
X5528810Y-15352524D01*
X5538333Y-15343000D01*
X5557381Y-15333476D01*
X5709762Y-15533476D02*
X5709762Y-15400143D01*
X5709762Y-15419190D02*
X5719286Y-15409667D01*
X5738333Y-15400143D01*
X5766905Y-15400143D01*
X5785952Y-15409667D01*
X5795476Y-15428714D01*
X5795476Y-15533476D01*
X5795476Y-15428714D02*
X5805000Y-15409667D01*
X5824048Y-15400143D01*
X5852619Y-15400143D01*
X5871667Y-15409667D01*
X5881190Y-15428714D01*
X5881190Y-15533476D01*
X5976428Y-15533476D02*
X5976428Y-15400143D01*
X5976428Y-15419190D02*
X5985952Y-15409667D01*
X6005000Y-15400143D01*
X6033571Y-15400143D01*
X6052619Y-15409667D01*
X6062143Y-15428714D01*
X6062143Y-15533476D01*
X6062143Y-15428714D02*
X6071667Y-15409667D01*
X6090714Y-15400143D01*
X6119286Y-15400143D01*
X6138333Y-15409667D01*
X6147857Y-15428714D01*
X6147857Y-15533476D01*
X6538333Y-15323952D02*
X6366905Y-15581095D01*
X6795476Y-15333476D02*
X6814524Y-15333476D01*
X6833571Y-15343000D01*
X6843095Y-15352524D01*
X6852619Y-15371571D01*
X6862143Y-15409667D01*
X6862143Y-15457286D01*
X6852619Y-15495381D01*
X6843095Y-15514428D01*
X6833571Y-15523952D01*
X6814524Y-15533476D01*
X6795476Y-15533476D01*
X6776428Y-15523952D01*
X6766905Y-15514428D01*
X6757381Y-15495381D01*
X6747857Y-15457286D01*
X6747857Y-15409667D01*
X6757381Y-15371571D01*
X6766905Y-15352524D01*
X6776428Y-15343000D01*
X6795476Y-15333476D01*
X6947857Y-15514428D02*
X6957381Y-15523952D01*
X6947857Y-15533476D01*
X6938333Y-15523952D01*
X6947857Y-15514428D01*
X6947857Y-15533476D01*
X7081190Y-15333476D02*
X7100238Y-15333476D01*
X7119286Y-15343000D01*
X7128809Y-15352524D01*
X7138333Y-15371571D01*
X7147857Y-15409667D01*
X7147857Y-15457286D01*
X7138333Y-15495381D01*
X7128809Y-15514428D01*
X7119286Y-15523952D01*
X7100238Y-15533476D01*
X7081190Y-15533476D01*
X7062143Y-15523952D01*
X7052619Y-15514428D01*
X7043095Y-15495381D01*
X7033571Y-15457286D01*
X7033571Y-15409667D01*
X7043095Y-15371571D01*
X7052619Y-15352524D01*
X7062143Y-15343000D01*
X7081190Y-15333476D01*
X7214524Y-15333476D02*
X7347857Y-15333476D01*
X7262143Y-15533476D01*
X7433571Y-15533476D02*
X7471667Y-15533476D01*
X7490714Y-15523952D01*
X7500238Y-15514428D01*
X7519286Y-15485857D01*
X7528809Y-15447762D01*
X7528809Y-15371571D01*
X7519286Y-15352524D01*
X7509762Y-15343000D01*
X7490714Y-15333476D01*
X7452619Y-15333476D01*
X7433571Y-15343000D01*
X7424048Y-15352524D01*
X7414524Y-15371571D01*
X7414524Y-15419190D01*
X7424048Y-15438238D01*
X7433571Y-15447762D01*
X7452619Y-15457286D01*
X7490714Y-15457286D01*
X7509762Y-15447762D01*
X7519286Y-15438238D01*
X7528809Y-15419190D01*
X7719286Y-15533476D02*
X7605000Y-15533476D01*
X7662143Y-15533476D02*
X7662143Y-15333476D01*
X7643095Y-15362048D01*
X7624048Y-15381095D01*
X7605000Y-15390619D01*
X7795476Y-15333476D02*
X7795476Y-15371571D01*
X7871667Y-15333476D02*
X7871667Y-15371571D01*
X8166905Y-15609667D02*
X8157381Y-15600143D01*
X8138333Y-15571571D01*
X8128809Y-15552524D01*
X8119286Y-15523952D01*
X8109762Y-15476333D01*
X8109762Y-15438238D01*
X8119286Y-15390619D01*
X8128809Y-15362048D01*
X8138333Y-15343000D01*
X8157381Y-15314428D01*
X8166905Y-15304905D01*
X8233571Y-15352524D02*
X8243095Y-15343000D01*
X8262143Y-15333476D01*
X8309762Y-15333476D01*
X8328809Y-15343000D01*
X8338333Y-15352524D01*
X8347857Y-15371571D01*
X8347857Y-15390619D01*
X8338333Y-15419190D01*
X8224048Y-15533476D01*
X8347857Y-15533476D01*
X8585952Y-15533476D02*
X8585952Y-15333476D01*
X8671667Y-15533476D02*
X8671667Y-15428714D01*
X8662143Y-15409667D01*
X8643095Y-15400143D01*
X8614524Y-15400143D01*
X8595476Y-15409667D01*
X8585952Y-15419190D01*
X8795476Y-15533476D02*
X8776429Y-15523952D01*
X8766905Y-15514428D01*
X8757381Y-15495381D01*
X8757381Y-15438238D01*
X8766905Y-15419190D01*
X8776429Y-15409667D01*
X8795476Y-15400143D01*
X8824048Y-15400143D01*
X8843095Y-15409667D01*
X8852619Y-15419190D01*
X8862143Y-15438238D01*
X8862143Y-15495381D01*
X8852619Y-15514428D01*
X8843095Y-15523952D01*
X8824048Y-15533476D01*
X8795476Y-15533476D01*
X8976429Y-15533476D02*
X8957381Y-15523952D01*
X8947857Y-15504905D01*
X8947857Y-15333476D01*
X9128810Y-15523952D02*
X9109762Y-15533476D01*
X9071667Y-15533476D01*
X9052619Y-15523952D01*
X9043095Y-15504905D01*
X9043095Y-15428714D01*
X9052619Y-15409667D01*
X9071667Y-15400143D01*
X9109762Y-15400143D01*
X9128810Y-15409667D01*
X9138333Y-15428714D01*
X9138333Y-15447762D01*
X9043095Y-15466809D01*
X9214524Y-15523952D02*
X9233571Y-15533476D01*
X9271667Y-15533476D01*
X9290714Y-15523952D01*
X9300238Y-15504905D01*
X9300238Y-15495381D01*
X9290714Y-15476333D01*
X9271667Y-15466809D01*
X9243095Y-15466809D01*
X9224048Y-15457286D01*
X9214524Y-15438238D01*
X9214524Y-15428714D01*
X9224048Y-15409667D01*
X9243095Y-15400143D01*
X9271667Y-15400143D01*
X9290714Y-15409667D01*
X9366905Y-15609667D02*
X9376429Y-15600143D01*
X9395476Y-15571571D01*
X9405000Y-15552524D01*
X9414524Y-15523952D01*
X9424048Y-15476333D01*
X9424048Y-15438238D01*
X9414524Y-15390619D01*
X9405000Y-15362048D01*
X9395476Y-15343000D01*
X9376429Y-15314428D01*
X9366905Y-15304905D01*
M02*
