%TF.GenerationSoftware,KiCad,Pcbnew,(6.0.4-0)*%
%TF.CreationDate,2023-06-28T10:42:51-04:00*%
%TF.ProjectId,SignalSlinger,5369676e-616c-4536-9c69-6e6765722e6b,rev?*%
%TF.SameCoordinates,Original*%
%TF.FileFunction,Legend,Top*%
%TF.FilePolarity,Positive*%
%FSLAX46Y46*%
G04 Gerber Fmt 4.6, Leading zero omitted, Abs format (unit mm)*
G04 Created by KiCad (PCBNEW (6.0.4-0)) date 2023-06-28 10:42:51*
%MOMM*%
%LPD*%
G01*
G04 APERTURE LIST*
%ADD10C,0.150000*%
%ADD11C,0.300000*%
%ADD12C,0.100000*%
%ADD13C,0.125000*%
%ADD14C,0.120000*%
%ADD15C,0.250000*%
G04 APERTURE END LIST*
D10*
X89380000Y-64080000D02*
X89380000Y-65930000D01*
X55520000Y-72483333D02*
X55520000Y-72250000D01*
X55886666Y-72150000D02*
X55886666Y-72483333D01*
X55186666Y-72483333D01*
X55186666Y-72150000D01*
X55886666Y-71916666D02*
X55420000Y-71550000D01*
X55420000Y-71916666D02*
X55886666Y-71550000D01*
X55420000Y-71383333D02*
X55420000Y-71116666D01*
X55186666Y-71283333D02*
X55786666Y-71283333D01*
X55853333Y-71250000D01*
X55886666Y-71183333D01*
X55886666Y-71116666D01*
X55520000Y-70116666D02*
X55520000Y-70350000D01*
X55886666Y-70350000D02*
X55186666Y-70350000D01*
X55186666Y-70016666D01*
X55886666Y-69450000D02*
X55520000Y-69450000D01*
X55453333Y-69483333D01*
X55420000Y-69550000D01*
X55420000Y-69683333D01*
X55453333Y-69750000D01*
X55853333Y-69450000D02*
X55886666Y-69516666D01*
X55886666Y-69683333D01*
X55853333Y-69750000D01*
X55786666Y-69783333D01*
X55720000Y-69783333D01*
X55653333Y-69750000D01*
X55620000Y-69683333D01*
X55620000Y-69516666D01*
X55586666Y-69450000D01*
X55420000Y-69116666D02*
X55886666Y-69116666D01*
X55486666Y-69116666D02*
X55453333Y-69083333D01*
X55420000Y-69016666D01*
X55420000Y-68916666D01*
X55453333Y-68850000D01*
X55520000Y-68816666D01*
X55886666Y-68816666D01*
X55886666Y-67950000D02*
X55186666Y-67950000D01*
X55186666Y-67683333D01*
X55220000Y-67616666D01*
X55253333Y-67583333D01*
X55320000Y-67550000D01*
X55420000Y-67550000D01*
X55486666Y-67583333D01*
X55520000Y-67616666D01*
X55553333Y-67683333D01*
X55553333Y-67950000D01*
X55420000Y-67316666D02*
X55886666Y-67183333D01*
X55553333Y-67050000D01*
X55886666Y-66916666D01*
X55420000Y-66783333D01*
X55886666Y-66516666D02*
X55420000Y-66516666D01*
X55553333Y-66516666D02*
X55486666Y-66483333D01*
X55453333Y-66450000D01*
X55420000Y-66383333D01*
X55420000Y-66316666D01*
X61438095Y-61408571D02*
X61104761Y-61408571D01*
X61104761Y-61932380D02*
X61104761Y-60932380D01*
X61580952Y-60932380D01*
X62390476Y-61932380D02*
X62390476Y-61408571D01*
X62342857Y-61313333D01*
X62247619Y-61265714D01*
X62057142Y-61265714D01*
X61961904Y-61313333D01*
X62390476Y-61884761D02*
X62295238Y-61932380D01*
X62057142Y-61932380D01*
X61961904Y-61884761D01*
X61914285Y-61789523D01*
X61914285Y-61694285D01*
X61961904Y-61599047D01*
X62057142Y-61551428D01*
X62295238Y-61551428D01*
X62390476Y-61503809D01*
X62866666Y-61265714D02*
X62866666Y-61932380D01*
X62866666Y-61360952D02*
X62914285Y-61313333D01*
X63009523Y-61265714D01*
X63152380Y-61265714D01*
X63247619Y-61313333D01*
X63295238Y-61408571D01*
X63295238Y-61932380D01*
X120120476Y-74233571D02*
X120453809Y-74233571D01*
X120596666Y-74757380D02*
X120120476Y-74757380D01*
X120120476Y-73757380D01*
X120596666Y-73757380D01*
X120930000Y-74757380D02*
X121453809Y-74090714D01*
X120930000Y-74090714D02*
X121453809Y-74757380D01*
X121691904Y-74090714D02*
X122072857Y-74090714D01*
X121834761Y-73757380D02*
X121834761Y-74614523D01*
X121882380Y-74709761D01*
X121977619Y-74757380D01*
X122072857Y-74757380D01*
X122787142Y-74709761D02*
X122691904Y-74757380D01*
X122501428Y-74757380D01*
X122406190Y-74709761D01*
X122358571Y-74614523D01*
X122358571Y-74233571D01*
X122406190Y-74138333D01*
X122501428Y-74090714D01*
X122691904Y-74090714D01*
X122787142Y-74138333D01*
X122834761Y-74233571D01*
X122834761Y-74328809D01*
X122358571Y-74424047D01*
X123263333Y-74757380D02*
X123263333Y-74090714D01*
X123263333Y-74281190D02*
X123310952Y-74185952D01*
X123358571Y-74138333D01*
X123453809Y-74090714D01*
X123549047Y-74090714D01*
X123882380Y-74090714D02*
X123882380Y-74757380D01*
X123882380Y-74185952D02*
X123930000Y-74138333D01*
X124025238Y-74090714D01*
X124168095Y-74090714D01*
X124263333Y-74138333D01*
X124310952Y-74233571D01*
X124310952Y-74757380D01*
X125215714Y-74757380D02*
X125215714Y-74233571D01*
X125168095Y-74138333D01*
X125072857Y-74090714D01*
X124882380Y-74090714D01*
X124787142Y-74138333D01*
X125215714Y-74709761D02*
X125120476Y-74757380D01*
X124882380Y-74757380D01*
X124787142Y-74709761D01*
X124739523Y-74614523D01*
X124739523Y-74519285D01*
X124787142Y-74424047D01*
X124882380Y-74376428D01*
X125120476Y-74376428D01*
X125215714Y-74328809D01*
X125834761Y-74757380D02*
X125739523Y-74709761D01*
X125691904Y-74614523D01*
X125691904Y-73757380D01*
X120953809Y-76367380D02*
X120953809Y-75367380D01*
X121334761Y-75367380D01*
X121430000Y-75415000D01*
X121477619Y-75462619D01*
X121525238Y-75557857D01*
X121525238Y-75700714D01*
X121477619Y-75795952D01*
X121430000Y-75843571D01*
X121334761Y-75891190D01*
X120953809Y-75891190D01*
X122096666Y-76367380D02*
X122001428Y-76319761D01*
X121953809Y-76272142D01*
X121906190Y-76176904D01*
X121906190Y-75891190D01*
X121953809Y-75795952D01*
X122001428Y-75748333D01*
X122096666Y-75700714D01*
X122239523Y-75700714D01*
X122334761Y-75748333D01*
X122382380Y-75795952D01*
X122430000Y-75891190D01*
X122430000Y-76176904D01*
X122382380Y-76272142D01*
X122334761Y-76319761D01*
X122239523Y-76367380D01*
X122096666Y-76367380D01*
X122763333Y-75700714D02*
X122953809Y-76367380D01*
X123144285Y-75891190D01*
X123334761Y-76367380D01*
X123525238Y-75700714D01*
X124287142Y-76319761D02*
X124191904Y-76367380D01*
X124001428Y-76367380D01*
X123906190Y-76319761D01*
X123858571Y-76224523D01*
X123858571Y-75843571D01*
X123906190Y-75748333D01*
X124001428Y-75700714D01*
X124191904Y-75700714D01*
X124287142Y-75748333D01*
X124334761Y-75843571D01*
X124334761Y-75938809D01*
X123858571Y-76034047D01*
X124763333Y-76367380D02*
X124763333Y-75700714D01*
X124763333Y-75891190D02*
X124810952Y-75795952D01*
X124858571Y-75748333D01*
X124953809Y-75700714D01*
X125049047Y-75700714D01*
X87172857Y-66687142D02*
X87210952Y-66572857D01*
X87249047Y-66534761D01*
X87325238Y-66496666D01*
X87439523Y-66496666D01*
X87515714Y-66534761D01*
X87553809Y-66572857D01*
X87591904Y-66649047D01*
X87591904Y-66953809D01*
X86791904Y-66953809D01*
X86791904Y-66687142D01*
X86830000Y-66610952D01*
X86868095Y-66572857D01*
X86944285Y-66534761D01*
X87020476Y-66534761D01*
X87096666Y-66572857D01*
X87134761Y-66610952D01*
X87172857Y-66687142D01*
X87172857Y-66953809D01*
X87591904Y-65810952D02*
X87172857Y-65810952D01*
X87096666Y-65849047D01*
X87058571Y-65925238D01*
X87058571Y-66077619D01*
X87096666Y-66153809D01*
X87553809Y-65810952D02*
X87591904Y-65887142D01*
X87591904Y-66077619D01*
X87553809Y-66153809D01*
X87477619Y-66191904D01*
X87401428Y-66191904D01*
X87325238Y-66153809D01*
X87287142Y-66077619D01*
X87287142Y-65887142D01*
X87249047Y-65810952D01*
X87058571Y-65544285D02*
X87058571Y-65239523D01*
X86791904Y-65430000D02*
X87477619Y-65430000D01*
X87553809Y-65391904D01*
X87591904Y-65315714D01*
X87591904Y-65239523D01*
X87058571Y-65087142D02*
X87058571Y-64782380D01*
X86791904Y-64972857D02*
X87477619Y-64972857D01*
X87553809Y-64934761D01*
X87591904Y-64858571D01*
X87591904Y-64782380D01*
X87553809Y-64210952D02*
X87591904Y-64287142D01*
X87591904Y-64439523D01*
X87553809Y-64515714D01*
X87477619Y-64553809D01*
X87172857Y-64553809D01*
X87096666Y-64515714D01*
X87058571Y-64439523D01*
X87058571Y-64287142D01*
X87096666Y-64210952D01*
X87172857Y-64172857D01*
X87249047Y-64172857D01*
X87325238Y-64553809D01*
X87591904Y-63830000D02*
X87058571Y-63830000D01*
X87210952Y-63830000D02*
X87134761Y-63791904D01*
X87096666Y-63753809D01*
X87058571Y-63677619D01*
X87058571Y-63601428D01*
X87058571Y-63410952D02*
X87591904Y-63220476D01*
X87058571Y-63030000D02*
X87591904Y-63220476D01*
X87782380Y-63296666D01*
X87820476Y-63334761D01*
X87858571Y-63410952D01*
X51603809Y-81448571D02*
X51270476Y-81448571D01*
X51270476Y-81972380D02*
X51270476Y-80972380D01*
X51746666Y-80972380D01*
X51984761Y-80972380D02*
X52556190Y-80972380D01*
X52270476Y-81972380D02*
X52270476Y-80972380D01*
X52889523Y-81972380D02*
X52889523Y-80972380D01*
X53127619Y-80972380D01*
X53270476Y-81020000D01*
X53365714Y-81115238D01*
X53413333Y-81210476D01*
X53460952Y-81400952D01*
X53460952Y-81543809D01*
X53413333Y-81734285D01*
X53365714Y-81829523D01*
X53270476Y-81924761D01*
X53127619Y-81972380D01*
X52889523Y-81972380D01*
X53889523Y-81972380D02*
X53889523Y-80972380D01*
X59973333Y-91332380D02*
X59640000Y-90856190D01*
X59401904Y-91332380D02*
X59401904Y-90332380D01*
X59782857Y-90332380D01*
X59878095Y-90380000D01*
X59925714Y-90427619D01*
X59973333Y-90522857D01*
X59973333Y-90665714D01*
X59925714Y-90760952D01*
X59878095Y-90808571D01*
X59782857Y-90856190D01*
X59401904Y-90856190D01*
X60306666Y-90332380D02*
X60973333Y-91332380D01*
X60973333Y-90332380D02*
X60306666Y-91332380D01*
X96446666Y-96036666D02*
X96680000Y-96736666D01*
X96913333Y-96036666D01*
X97146666Y-96470000D02*
X97680000Y-96470000D01*
X98013333Y-96370000D02*
X98246666Y-96370000D01*
X98346666Y-96736666D02*
X98013333Y-96736666D01*
X98013333Y-96036666D01*
X98346666Y-96036666D01*
X98580000Y-96036666D02*
X99046666Y-96736666D01*
X99046666Y-96036666D02*
X98580000Y-96736666D01*
X99213333Y-96036666D02*
X99613333Y-96036666D01*
X99413333Y-96736666D02*
X99413333Y-96036666D01*
D11*
X90948571Y-62707142D02*
X92091428Y-62707142D01*
X91520000Y-63278571D02*
X91520000Y-62135714D01*
D10*
X129007619Y-81792380D02*
X128674285Y-81316190D01*
X128436190Y-81792380D02*
X128436190Y-80792380D01*
X128817142Y-80792380D01*
X128912380Y-80840000D01*
X128960000Y-80887619D01*
X129007619Y-80982857D01*
X129007619Y-81125714D01*
X128960000Y-81220952D01*
X128912380Y-81268571D01*
X128817142Y-81316190D01*
X128436190Y-81316190D01*
X129769523Y-81268571D02*
X129436190Y-81268571D01*
X129436190Y-81792380D02*
X129436190Y-80792380D01*
X129912380Y-80792380D01*
X131245714Y-80792380D02*
X131436190Y-80792380D01*
X131531428Y-80840000D01*
X131626666Y-80935238D01*
X131674285Y-81125714D01*
X131674285Y-81459047D01*
X131626666Y-81649523D01*
X131531428Y-81744761D01*
X131436190Y-81792380D01*
X131245714Y-81792380D01*
X131150476Y-81744761D01*
X131055238Y-81649523D01*
X131007619Y-81459047D01*
X131007619Y-81125714D01*
X131055238Y-80935238D01*
X131150476Y-80840000D01*
X131245714Y-80792380D01*
X132531428Y-81125714D02*
X132531428Y-81792380D01*
X132102857Y-81125714D02*
X132102857Y-81649523D01*
X132150476Y-81744761D01*
X132245714Y-81792380D01*
X132388571Y-81792380D01*
X132483809Y-81744761D01*
X132531428Y-81697142D01*
X132864761Y-81125714D02*
X133245714Y-81125714D01*
X133007619Y-80792380D02*
X133007619Y-81649523D01*
X133055238Y-81744761D01*
X133150476Y-81792380D01*
X133245714Y-81792380D01*
X133579047Y-81125714D02*
X133579047Y-82125714D01*
X133579047Y-81173333D02*
X133674285Y-81125714D01*
X133864761Y-81125714D01*
X133960000Y-81173333D01*
X134007619Y-81220952D01*
X134055238Y-81316190D01*
X134055238Y-81601904D01*
X134007619Y-81697142D01*
X133960000Y-81744761D01*
X133864761Y-81792380D01*
X133674285Y-81792380D01*
X133579047Y-81744761D01*
X134912380Y-81125714D02*
X134912380Y-81792380D01*
X134483809Y-81125714D02*
X134483809Y-81649523D01*
X134531428Y-81744761D01*
X134626666Y-81792380D01*
X134769523Y-81792380D01*
X134864761Y-81744761D01*
X134912380Y-81697142D01*
X135245714Y-81125714D02*
X135626666Y-81125714D01*
X135388571Y-80792380D02*
X135388571Y-81649523D01*
X135436190Y-81744761D01*
X135531428Y-81792380D01*
X135626666Y-81792380D01*
X95110000Y-88060000D02*
X95643333Y-88060000D01*
X95376666Y-88326666D02*
X95376666Y-87793333D01*
X96310000Y-87626666D02*
X95976666Y-87626666D01*
X95943333Y-87960000D01*
X95976666Y-87926666D01*
X96043333Y-87893333D01*
X96210000Y-87893333D01*
X96276666Y-87926666D01*
X96310000Y-87960000D01*
X96343333Y-88026666D01*
X96343333Y-88193333D01*
X96310000Y-88260000D01*
X96276666Y-88293333D01*
X96210000Y-88326666D01*
X96043333Y-88326666D01*
X95976666Y-88293333D01*
X95943333Y-88260000D01*
X96543333Y-87626666D02*
X96776666Y-88326666D01*
X97010000Y-87626666D01*
X76516666Y-80436666D02*
X76750000Y-81136666D01*
X76983333Y-80436666D01*
X77216666Y-80870000D02*
X77750000Y-80870000D01*
X78083333Y-80770000D02*
X78316666Y-80770000D01*
X78416666Y-81136666D02*
X78083333Y-81136666D01*
X78083333Y-80436666D01*
X78416666Y-80436666D01*
X78650000Y-80436666D02*
X79116666Y-81136666D01*
X79116666Y-80436666D02*
X78650000Y-81136666D01*
X79283333Y-80436666D02*
X79683333Y-80436666D01*
X79483333Y-81136666D02*
X79483333Y-80436666D01*
X59868095Y-84740000D02*
X59772857Y-84692380D01*
X59630000Y-84692380D01*
X59487142Y-84740000D01*
X59391904Y-84835238D01*
X59344285Y-84930476D01*
X59296666Y-85120952D01*
X59296666Y-85263809D01*
X59344285Y-85454285D01*
X59391904Y-85549523D01*
X59487142Y-85644761D01*
X59630000Y-85692380D01*
X59725238Y-85692380D01*
X59868095Y-85644761D01*
X59915714Y-85597142D01*
X59915714Y-85263809D01*
X59725238Y-85263809D01*
X60344285Y-85692380D02*
X60344285Y-84692380D01*
X60915714Y-85692380D01*
X60915714Y-84692380D01*
X61391904Y-85692380D02*
X61391904Y-84692380D01*
X61630000Y-84692380D01*
X61772857Y-84740000D01*
X61868095Y-84835238D01*
X61915714Y-84930476D01*
X61963333Y-85120952D01*
X61963333Y-85263809D01*
X61915714Y-85454285D01*
X61868095Y-85549523D01*
X61772857Y-85644761D01*
X61630000Y-85692380D01*
X61391904Y-85692380D01*
X80473333Y-66250000D02*
X80473333Y-66650000D01*
X79773333Y-66450000D02*
X80473333Y-66450000D01*
X79806666Y-67150000D02*
X79773333Y-67083333D01*
X79773333Y-66950000D01*
X79806666Y-66883333D01*
X79873333Y-66850000D01*
X80140000Y-66850000D01*
X80206666Y-66883333D01*
X80240000Y-66950000D01*
X80240000Y-67083333D01*
X80206666Y-67150000D01*
X80140000Y-67183333D01*
X80073333Y-67183333D01*
X80006666Y-66850000D01*
X79806666Y-67450000D02*
X79773333Y-67516666D01*
X79773333Y-67650000D01*
X79806666Y-67716666D01*
X79873333Y-67750000D01*
X79906666Y-67750000D01*
X79973333Y-67716666D01*
X80006666Y-67650000D01*
X80006666Y-67550000D01*
X80040000Y-67483333D01*
X80106666Y-67450000D01*
X80140000Y-67450000D01*
X80206666Y-67483333D01*
X80240000Y-67550000D01*
X80240000Y-67650000D01*
X80206666Y-67716666D01*
X80240000Y-67950000D02*
X80240000Y-68216666D01*
X80473333Y-68050000D02*
X79873333Y-68050000D01*
X79806666Y-68083333D01*
X79773333Y-68150000D01*
X79773333Y-68216666D01*
X79773333Y-68983333D02*
X80473333Y-68983333D01*
X80473333Y-69250000D01*
X80440000Y-69316666D01*
X80406666Y-69350000D01*
X80340000Y-69383333D01*
X80240000Y-69383333D01*
X80173333Y-69350000D01*
X80140000Y-69316666D01*
X80106666Y-69250000D01*
X80106666Y-68983333D01*
X79773333Y-69783333D02*
X79806666Y-69716666D01*
X79840000Y-69683333D01*
X79906666Y-69650000D01*
X80106666Y-69650000D01*
X80173333Y-69683333D01*
X80206666Y-69716666D01*
X80240000Y-69783333D01*
X80240000Y-69883333D01*
X80206666Y-69950000D01*
X80173333Y-69983333D01*
X80106666Y-70016666D01*
X79906666Y-70016666D01*
X79840000Y-69983333D01*
X79806666Y-69950000D01*
X79773333Y-69883333D01*
X79773333Y-69783333D01*
X79773333Y-70316666D02*
X80240000Y-70316666D01*
X80473333Y-70316666D02*
X80440000Y-70283333D01*
X80406666Y-70316666D01*
X80440000Y-70350000D01*
X80473333Y-70316666D01*
X80406666Y-70316666D01*
X80240000Y-70650000D02*
X79773333Y-70650000D01*
X80173333Y-70650000D02*
X80206666Y-70683333D01*
X80240000Y-70750000D01*
X80240000Y-70850000D01*
X80206666Y-70916666D01*
X80140000Y-70950000D01*
X79773333Y-70950000D01*
X80240000Y-71183333D02*
X80240000Y-71450000D01*
X80473333Y-71283333D02*
X79873333Y-71283333D01*
X79806666Y-71316666D01*
X79773333Y-71383333D01*
X79773333Y-71450000D01*
X59348095Y-93042380D02*
X59919523Y-93042380D01*
X59633809Y-94042380D02*
X59633809Y-93042380D01*
X60157619Y-93042380D02*
X60824285Y-94042380D01*
X60824285Y-93042380D02*
X60157619Y-94042380D01*
X78023333Y-73890000D02*
X78123333Y-73923333D01*
X78156666Y-73956666D01*
X78190000Y-74023333D01*
X78190000Y-74123333D01*
X78156666Y-74190000D01*
X78123333Y-74223333D01*
X78056666Y-74256666D01*
X77790000Y-74256666D01*
X77790000Y-73556666D01*
X78023333Y-73556666D01*
X78090000Y-73590000D01*
X78123333Y-73623333D01*
X78156666Y-73690000D01*
X78156666Y-73756666D01*
X78123333Y-73823333D01*
X78090000Y-73856666D01*
X78023333Y-73890000D01*
X77790000Y-73890000D01*
X78456666Y-74056666D02*
X78790000Y-74056666D01*
X78390000Y-74256666D02*
X78623333Y-73556666D01*
X78856666Y-74256666D01*
X78990000Y-73556666D02*
X79390000Y-73556666D01*
X79190000Y-74256666D02*
X79190000Y-73556666D01*
X56712380Y-107634285D02*
X55712380Y-107634285D01*
X55712380Y-107253333D01*
X55760000Y-107158095D01*
X55807619Y-107110476D01*
X55902857Y-107062857D01*
X56045714Y-107062857D01*
X56140952Y-107110476D01*
X56188571Y-107158095D01*
X56236190Y-107253333D01*
X56236190Y-107634285D01*
X56712380Y-106634285D02*
X56045714Y-106634285D01*
X56236190Y-106634285D02*
X56140952Y-106586666D01*
X56093333Y-106539047D01*
X56045714Y-106443809D01*
X56045714Y-106348571D01*
X56712380Y-105872380D02*
X56664761Y-105967619D01*
X56617142Y-106015238D01*
X56521904Y-106062857D01*
X56236190Y-106062857D01*
X56140952Y-106015238D01*
X56093333Y-105967619D01*
X56045714Y-105872380D01*
X56045714Y-105729523D01*
X56093333Y-105634285D01*
X56140952Y-105586666D01*
X56236190Y-105539047D01*
X56521904Y-105539047D01*
X56617142Y-105586666D01*
X56664761Y-105634285D01*
X56712380Y-105729523D01*
X56712380Y-105872380D01*
X56045714Y-104681904D02*
X56855238Y-104681904D01*
X56950476Y-104729523D01*
X56998095Y-104777142D01*
X57045714Y-104872380D01*
X57045714Y-105015238D01*
X56998095Y-105110476D01*
X56664761Y-104681904D02*
X56712380Y-104777142D01*
X56712380Y-104967619D01*
X56664761Y-105062857D01*
X56617142Y-105110476D01*
X56521904Y-105158095D01*
X56236190Y-105158095D01*
X56140952Y-105110476D01*
X56093333Y-105062857D01*
X56045714Y-104967619D01*
X56045714Y-104777142D01*
X56093333Y-104681904D01*
X56712380Y-104205714D02*
X56045714Y-104205714D01*
X56236190Y-104205714D02*
X56140952Y-104158095D01*
X56093333Y-104110476D01*
X56045714Y-104015238D01*
X56045714Y-103920000D01*
X56712380Y-103158095D02*
X56188571Y-103158095D01*
X56093333Y-103205714D01*
X56045714Y-103300952D01*
X56045714Y-103491428D01*
X56093333Y-103586666D01*
X56664761Y-103158095D02*
X56712380Y-103253333D01*
X56712380Y-103491428D01*
X56664761Y-103586666D01*
X56569523Y-103634285D01*
X56474285Y-103634285D01*
X56379047Y-103586666D01*
X56331428Y-103491428D01*
X56331428Y-103253333D01*
X56283809Y-103158095D01*
X56712380Y-102681904D02*
X56045714Y-102681904D01*
X56140952Y-102681904D02*
X56093333Y-102634285D01*
X56045714Y-102539047D01*
X56045714Y-102396190D01*
X56093333Y-102300952D01*
X56188571Y-102253333D01*
X56712380Y-102253333D01*
X56188571Y-102253333D02*
X56093333Y-102205714D01*
X56045714Y-102110476D01*
X56045714Y-101967619D01*
X56093333Y-101872380D01*
X56188571Y-101824761D01*
X56712380Y-101824761D01*
X56712380Y-101348571D02*
X56045714Y-101348571D01*
X56140952Y-101348571D02*
X56093333Y-101300952D01*
X56045714Y-101205714D01*
X56045714Y-101062857D01*
X56093333Y-100967619D01*
X56188571Y-100920000D01*
X56712380Y-100920000D01*
X56188571Y-100920000D02*
X56093333Y-100872380D01*
X56045714Y-100777142D01*
X56045714Y-100634285D01*
X56093333Y-100539047D01*
X56188571Y-100491428D01*
X56712380Y-100491428D01*
X56712380Y-100015238D02*
X56045714Y-100015238D01*
X55712380Y-100015238D02*
X55760000Y-100062857D01*
X55807619Y-100015238D01*
X55760000Y-99967619D01*
X55712380Y-100015238D01*
X55807619Y-100015238D01*
X56045714Y-99539047D02*
X56712380Y-99539047D01*
X56140952Y-99539047D02*
X56093333Y-99491428D01*
X56045714Y-99396190D01*
X56045714Y-99253333D01*
X56093333Y-99158095D01*
X56188571Y-99110476D01*
X56712380Y-99110476D01*
X56045714Y-98205714D02*
X56855238Y-98205714D01*
X56950476Y-98253333D01*
X56998095Y-98300952D01*
X57045714Y-98396190D01*
X57045714Y-98539047D01*
X56998095Y-98634285D01*
X56664761Y-98205714D02*
X56712380Y-98300952D01*
X56712380Y-98491428D01*
X56664761Y-98586666D01*
X56617142Y-98634285D01*
X56521904Y-98681904D01*
X56236190Y-98681904D01*
X56140952Y-98634285D01*
X56093333Y-98586666D01*
X56045714Y-98491428D01*
X56045714Y-98300952D01*
X56093333Y-98205714D01*
D11*
X91048571Y-67337142D02*
X92191428Y-67337142D01*
D10*
X59307619Y-87492380D02*
X59640952Y-88492380D01*
X59974285Y-87492380D01*
X60307619Y-88111428D02*
X61069523Y-88111428D01*
X60688571Y-88492380D02*
X60688571Y-87730476D01*
%TO.C,J104*%
X59984285Y-116542380D02*
X59984285Y-117256666D01*
X59936666Y-117399523D01*
X59841428Y-117494761D01*
X59698571Y-117542380D01*
X59603333Y-117542380D01*
X60984285Y-117542380D02*
X60412857Y-117542380D01*
X60698571Y-117542380D02*
X60698571Y-116542380D01*
X60603333Y-116685238D01*
X60508095Y-116780476D01*
X60412857Y-116828095D01*
X61603333Y-116542380D02*
X61698571Y-116542380D01*
X61793809Y-116590000D01*
X61841428Y-116637619D01*
X61889047Y-116732857D01*
X61936666Y-116923333D01*
X61936666Y-117161428D01*
X61889047Y-117351904D01*
X61841428Y-117447142D01*
X61793809Y-117494761D01*
X61698571Y-117542380D01*
X61603333Y-117542380D01*
X61508095Y-117494761D01*
X61460476Y-117447142D01*
X61412857Y-117351904D01*
X61365238Y-117161428D01*
X61365238Y-116923333D01*
X61412857Y-116732857D01*
X61460476Y-116637619D01*
X61508095Y-116590000D01*
X61603333Y-116542380D01*
X62793809Y-116875714D02*
X62793809Y-117542380D01*
X62555714Y-116494761D02*
X62317619Y-117209047D01*
X62936666Y-117209047D01*
%TO.C,U203*%
X88290000Y-79726666D02*
X88290000Y-80293333D01*
X88323333Y-80360000D01*
X88356666Y-80393333D01*
X88423333Y-80426666D01*
X88556666Y-80426666D01*
X88623333Y-80393333D01*
X88656666Y-80360000D01*
X88690000Y-80293333D01*
X88690000Y-79726666D01*
X88990000Y-79793333D02*
X89023333Y-79760000D01*
X89090000Y-79726666D01*
X89256666Y-79726666D01*
X89323333Y-79760000D01*
X89356666Y-79793333D01*
X89390000Y-79860000D01*
X89390000Y-79926666D01*
X89356666Y-80026666D01*
X88956666Y-80426666D01*
X89390000Y-80426666D01*
X89823333Y-79726666D02*
X89890000Y-79726666D01*
X89956666Y-79760000D01*
X89990000Y-79793333D01*
X90023333Y-79860000D01*
X90056666Y-79993333D01*
X90056666Y-80160000D01*
X90023333Y-80293333D01*
X89990000Y-80360000D01*
X89956666Y-80393333D01*
X89890000Y-80426666D01*
X89823333Y-80426666D01*
X89756666Y-80393333D01*
X89723333Y-80360000D01*
X89690000Y-80293333D01*
X89656666Y-80160000D01*
X89656666Y-79993333D01*
X89690000Y-79860000D01*
X89723333Y-79793333D01*
X89756666Y-79760000D01*
X89823333Y-79726666D01*
X90290000Y-79726666D02*
X90723333Y-79726666D01*
X90490000Y-79993333D01*
X90590000Y-79993333D01*
X90656666Y-80026666D01*
X90690000Y-80060000D01*
X90723333Y-80126666D01*
X90723333Y-80293333D01*
X90690000Y-80360000D01*
X90656666Y-80393333D01*
X90590000Y-80426666D01*
X90390000Y-80426666D01*
X90323333Y-80393333D01*
X90290000Y-80360000D01*
%TO.C,JP301*%
X114536666Y-109140000D02*
X115036666Y-109140000D01*
X115136666Y-109173333D01*
X115203333Y-109240000D01*
X115236666Y-109340000D01*
X115236666Y-109406666D01*
X115236666Y-108806666D02*
X114536666Y-108806666D01*
X114536666Y-108540000D01*
X114570000Y-108473333D01*
X114603333Y-108440000D01*
X114670000Y-108406666D01*
X114770000Y-108406666D01*
X114836666Y-108440000D01*
X114870000Y-108473333D01*
X114903333Y-108540000D01*
X114903333Y-108806666D01*
X114536666Y-108173333D02*
X114536666Y-107740000D01*
X114803333Y-107973333D01*
X114803333Y-107873333D01*
X114836666Y-107806666D01*
X114870000Y-107773333D01*
X114936666Y-107740000D01*
X115103333Y-107740000D01*
X115170000Y-107773333D01*
X115203333Y-107806666D01*
X115236666Y-107873333D01*
X115236666Y-108073333D01*
X115203333Y-108140000D01*
X115170000Y-108173333D01*
X114536666Y-107306666D02*
X114536666Y-107240000D01*
X114570000Y-107173333D01*
X114603333Y-107140000D01*
X114670000Y-107106666D01*
X114803333Y-107073333D01*
X114970000Y-107073333D01*
X115103333Y-107106666D01*
X115170000Y-107140000D01*
X115203333Y-107173333D01*
X115236666Y-107240000D01*
X115236666Y-107306666D01*
X115203333Y-107373333D01*
X115170000Y-107406666D01*
X115103333Y-107440000D01*
X114970000Y-107473333D01*
X114803333Y-107473333D01*
X114670000Y-107440000D01*
X114603333Y-107406666D01*
X114570000Y-107373333D01*
X114536666Y-107306666D01*
X115236666Y-106406666D02*
X115236666Y-106806666D01*
X115236666Y-106606666D02*
X114536666Y-106606666D01*
X114636666Y-106673333D01*
X114703333Y-106740000D01*
X114736666Y-106806666D01*
%TO.C,J302*%
X110544285Y-116882380D02*
X110544285Y-117596666D01*
X110496666Y-117739523D01*
X110401428Y-117834761D01*
X110258571Y-117882380D01*
X110163333Y-117882380D01*
X110925238Y-116882380D02*
X111544285Y-116882380D01*
X111210952Y-117263333D01*
X111353809Y-117263333D01*
X111449047Y-117310952D01*
X111496666Y-117358571D01*
X111544285Y-117453809D01*
X111544285Y-117691904D01*
X111496666Y-117787142D01*
X111449047Y-117834761D01*
X111353809Y-117882380D01*
X111068095Y-117882380D01*
X110972857Y-117834761D01*
X110925238Y-117787142D01*
X112163333Y-116882380D02*
X112258571Y-116882380D01*
X112353809Y-116930000D01*
X112401428Y-116977619D01*
X112449047Y-117072857D01*
X112496666Y-117263333D01*
X112496666Y-117501428D01*
X112449047Y-117691904D01*
X112401428Y-117787142D01*
X112353809Y-117834761D01*
X112258571Y-117882380D01*
X112163333Y-117882380D01*
X112068095Y-117834761D01*
X112020476Y-117787142D01*
X111972857Y-117691904D01*
X111925238Y-117501428D01*
X111925238Y-117263333D01*
X111972857Y-117072857D01*
X112020476Y-116977619D01*
X112068095Y-116930000D01*
X112163333Y-116882380D01*
X112877619Y-116977619D02*
X112925238Y-116930000D01*
X113020476Y-116882380D01*
X113258571Y-116882380D01*
X113353809Y-116930000D01*
X113401428Y-116977619D01*
X113449047Y-117072857D01*
X113449047Y-117168095D01*
X113401428Y-117310952D01*
X112830000Y-117882380D01*
X113449047Y-117882380D01*
%TO.C,D106*%
X53176666Y-95416666D02*
X53176666Y-94716666D01*
X53343333Y-94716666D01*
X53443333Y-94750000D01*
X53510000Y-94816666D01*
X53543333Y-94883333D01*
X53576666Y-95016666D01*
X53576666Y-95116666D01*
X53543333Y-95250000D01*
X53510000Y-95316666D01*
X53443333Y-95383333D01*
X53343333Y-95416666D01*
X53176666Y-95416666D01*
X54243333Y-95416666D02*
X53843333Y-95416666D01*
X54043333Y-95416666D02*
X54043333Y-94716666D01*
X53976666Y-94816666D01*
X53910000Y-94883333D01*
X53843333Y-94916666D01*
X54676666Y-94716666D02*
X54743333Y-94716666D01*
X54810000Y-94750000D01*
X54843333Y-94783333D01*
X54876666Y-94850000D01*
X54910000Y-94983333D01*
X54910000Y-95150000D01*
X54876666Y-95283333D01*
X54843333Y-95350000D01*
X54810000Y-95383333D01*
X54743333Y-95416666D01*
X54676666Y-95416666D01*
X54610000Y-95383333D01*
X54576666Y-95350000D01*
X54543333Y-95283333D01*
X54510000Y-95150000D01*
X54510000Y-94983333D01*
X54543333Y-94850000D01*
X54576666Y-94783333D01*
X54610000Y-94750000D01*
X54676666Y-94716666D01*
X55510000Y-94716666D02*
X55376666Y-94716666D01*
X55310000Y-94750000D01*
X55276666Y-94783333D01*
X55210000Y-94883333D01*
X55176666Y-95016666D01*
X55176666Y-95283333D01*
X55210000Y-95350000D01*
X55243333Y-95383333D01*
X55310000Y-95416666D01*
X55443333Y-95416666D01*
X55510000Y-95383333D01*
X55543333Y-95350000D01*
X55576666Y-95283333D01*
X55576666Y-95116666D01*
X55543333Y-95050000D01*
X55510000Y-95016666D01*
X55443333Y-94983333D01*
X55310000Y-94983333D01*
X55243333Y-95016666D01*
X55210000Y-95050000D01*
X55176666Y-95116666D01*
%TO.C,R104*%
X64209166Y-109636666D02*
X63975833Y-109303333D01*
X63809166Y-109636666D02*
X63809166Y-108936666D01*
X64075833Y-108936666D01*
X64142500Y-108970000D01*
X64175833Y-109003333D01*
X64209166Y-109070000D01*
X64209166Y-109170000D01*
X64175833Y-109236666D01*
X64142500Y-109270000D01*
X64075833Y-109303333D01*
X63809166Y-109303333D01*
X64875833Y-109636666D02*
X64475833Y-109636666D01*
X64675833Y-109636666D02*
X64675833Y-108936666D01*
X64609166Y-109036666D01*
X64542500Y-109103333D01*
X64475833Y-109136666D01*
X65309166Y-108936666D02*
X65375833Y-108936666D01*
X65442500Y-108970000D01*
X65475833Y-109003333D01*
X65509166Y-109070000D01*
X65542500Y-109203333D01*
X65542500Y-109370000D01*
X65509166Y-109503333D01*
X65475833Y-109570000D01*
X65442500Y-109603333D01*
X65375833Y-109636666D01*
X65309166Y-109636666D01*
X65242500Y-109603333D01*
X65209166Y-109570000D01*
X65175833Y-109503333D01*
X65142500Y-109370000D01*
X65142500Y-109203333D01*
X65175833Y-109070000D01*
X65209166Y-109003333D01*
X65242500Y-108970000D01*
X65309166Y-108936666D01*
X66142500Y-109170000D02*
X66142500Y-109636666D01*
X65975833Y-108903333D02*
X65809166Y-109403333D01*
X66242500Y-109403333D01*
%TO.C,C102*%
X71666666Y-64120000D02*
X71633333Y-64153333D01*
X71533333Y-64186666D01*
X71466666Y-64186666D01*
X71366666Y-64153333D01*
X71300000Y-64086666D01*
X71266666Y-64020000D01*
X71233333Y-63886666D01*
X71233333Y-63786666D01*
X71266666Y-63653333D01*
X71300000Y-63586666D01*
X71366666Y-63520000D01*
X71466666Y-63486666D01*
X71533333Y-63486666D01*
X71633333Y-63520000D01*
X71666666Y-63553333D01*
X72333333Y-64186666D02*
X71933333Y-64186666D01*
X72133333Y-64186666D02*
X72133333Y-63486666D01*
X72066666Y-63586666D01*
X72000000Y-63653333D01*
X71933333Y-63686666D01*
X72766666Y-63486666D02*
X72833333Y-63486666D01*
X72900000Y-63520000D01*
X72933333Y-63553333D01*
X72966666Y-63620000D01*
X73000000Y-63753333D01*
X73000000Y-63920000D01*
X72966666Y-64053333D01*
X72933333Y-64120000D01*
X72900000Y-64153333D01*
X72833333Y-64186666D01*
X72766666Y-64186666D01*
X72700000Y-64153333D01*
X72666666Y-64120000D01*
X72633333Y-64053333D01*
X72600000Y-63920000D01*
X72600000Y-63753333D01*
X72633333Y-63620000D01*
X72666666Y-63553333D01*
X72700000Y-63520000D01*
X72766666Y-63486666D01*
X73266666Y-63553333D02*
X73300000Y-63520000D01*
X73366666Y-63486666D01*
X73533333Y-63486666D01*
X73600000Y-63520000D01*
X73633333Y-63553333D01*
X73666666Y-63620000D01*
X73666666Y-63686666D01*
X73633333Y-63786666D01*
X73233333Y-64186666D01*
X73666666Y-64186666D01*
%TO.C,U202*%
X78816666Y-99450000D02*
X79383333Y-99450000D01*
X79450000Y-99416666D01*
X79483333Y-99383333D01*
X79516666Y-99316666D01*
X79516666Y-99183333D01*
X79483333Y-99116666D01*
X79450000Y-99083333D01*
X79383333Y-99050000D01*
X78816666Y-99050000D01*
X78883333Y-98750000D02*
X78850000Y-98716666D01*
X78816666Y-98650000D01*
X78816666Y-98483333D01*
X78850000Y-98416666D01*
X78883333Y-98383333D01*
X78950000Y-98350000D01*
X79016666Y-98350000D01*
X79116666Y-98383333D01*
X79516666Y-98783333D01*
X79516666Y-98350000D01*
X78816666Y-97916666D02*
X78816666Y-97850000D01*
X78850000Y-97783333D01*
X78883333Y-97750000D01*
X78950000Y-97716666D01*
X79083333Y-97683333D01*
X79250000Y-97683333D01*
X79383333Y-97716666D01*
X79450000Y-97750000D01*
X79483333Y-97783333D01*
X79516666Y-97850000D01*
X79516666Y-97916666D01*
X79483333Y-97983333D01*
X79450000Y-98016666D01*
X79383333Y-98050000D01*
X79250000Y-98083333D01*
X79083333Y-98083333D01*
X78950000Y-98050000D01*
X78883333Y-98016666D01*
X78850000Y-97983333D01*
X78816666Y-97916666D01*
X78883333Y-97416666D02*
X78850000Y-97383333D01*
X78816666Y-97316666D01*
X78816666Y-97150000D01*
X78850000Y-97083333D01*
X78883333Y-97050000D01*
X78950000Y-97016666D01*
X79016666Y-97016666D01*
X79116666Y-97050000D01*
X79516666Y-97450000D01*
X79516666Y-97016666D01*
%TO.C,D103*%
X63851666Y-115483333D02*
X63151666Y-115483333D01*
X63151666Y-115316666D01*
X63185000Y-115216666D01*
X63251666Y-115150000D01*
X63318333Y-115116666D01*
X63451666Y-115083333D01*
X63551666Y-115083333D01*
X63685000Y-115116666D01*
X63751666Y-115150000D01*
X63818333Y-115216666D01*
X63851666Y-115316666D01*
X63851666Y-115483333D01*
X63851666Y-114416666D02*
X63851666Y-114816666D01*
X63851666Y-114616666D02*
X63151666Y-114616666D01*
X63251666Y-114683333D01*
X63318333Y-114750000D01*
X63351666Y-114816666D01*
X63151666Y-113983333D02*
X63151666Y-113916666D01*
X63185000Y-113850000D01*
X63218333Y-113816666D01*
X63285000Y-113783333D01*
X63418333Y-113750000D01*
X63585000Y-113750000D01*
X63718333Y-113783333D01*
X63785000Y-113816666D01*
X63818333Y-113850000D01*
X63851666Y-113916666D01*
X63851666Y-113983333D01*
X63818333Y-114050000D01*
X63785000Y-114083333D01*
X63718333Y-114116666D01*
X63585000Y-114150000D01*
X63418333Y-114150000D01*
X63285000Y-114116666D01*
X63218333Y-114083333D01*
X63185000Y-114050000D01*
X63151666Y-113983333D01*
X63151666Y-113516666D02*
X63151666Y-113083333D01*
X63418333Y-113316666D01*
X63418333Y-113216666D01*
X63451666Y-113150000D01*
X63485000Y-113116666D01*
X63551666Y-113083333D01*
X63718333Y-113083333D01*
X63785000Y-113116666D01*
X63818333Y-113150000D01*
X63851666Y-113216666D01*
X63851666Y-113416666D01*
X63818333Y-113483333D01*
X63785000Y-113516666D01*
%TO.C,C108*%
X91770000Y-111023333D02*
X91803333Y-111056666D01*
X91836666Y-111156666D01*
X91836666Y-111223333D01*
X91803333Y-111323333D01*
X91736666Y-111390000D01*
X91670000Y-111423333D01*
X91536666Y-111456666D01*
X91436666Y-111456666D01*
X91303333Y-111423333D01*
X91236666Y-111390000D01*
X91170000Y-111323333D01*
X91136666Y-111223333D01*
X91136666Y-111156666D01*
X91170000Y-111056666D01*
X91203333Y-111023333D01*
X91836666Y-110356666D02*
X91836666Y-110756666D01*
X91836666Y-110556666D02*
X91136666Y-110556666D01*
X91236666Y-110623333D01*
X91303333Y-110690000D01*
X91336666Y-110756666D01*
X91136666Y-109923333D02*
X91136666Y-109856666D01*
X91170000Y-109790000D01*
X91203333Y-109756666D01*
X91270000Y-109723333D01*
X91403333Y-109690000D01*
X91570000Y-109690000D01*
X91703333Y-109723333D01*
X91770000Y-109756666D01*
X91803333Y-109790000D01*
X91836666Y-109856666D01*
X91836666Y-109923333D01*
X91803333Y-109990000D01*
X91770000Y-110023333D01*
X91703333Y-110056666D01*
X91570000Y-110090000D01*
X91403333Y-110090000D01*
X91270000Y-110056666D01*
X91203333Y-110023333D01*
X91170000Y-109990000D01*
X91136666Y-109923333D01*
X91436666Y-109290000D02*
X91403333Y-109356666D01*
X91370000Y-109390000D01*
X91303333Y-109423333D01*
X91270000Y-109423333D01*
X91203333Y-109390000D01*
X91170000Y-109356666D01*
X91136666Y-109290000D01*
X91136666Y-109156666D01*
X91170000Y-109090000D01*
X91203333Y-109056666D01*
X91270000Y-109023333D01*
X91303333Y-109023333D01*
X91370000Y-109056666D01*
X91403333Y-109090000D01*
X91436666Y-109156666D01*
X91436666Y-109290000D01*
X91470000Y-109356666D01*
X91503333Y-109390000D01*
X91570000Y-109423333D01*
X91703333Y-109423333D01*
X91770000Y-109390000D01*
X91803333Y-109356666D01*
X91836666Y-109290000D01*
X91836666Y-109156666D01*
X91803333Y-109090000D01*
X91770000Y-109056666D01*
X91703333Y-109023333D01*
X91570000Y-109023333D01*
X91503333Y-109056666D01*
X91470000Y-109090000D01*
X91436666Y-109156666D01*
%TO.C,J112*%
X56590000Y-72471666D02*
X56590000Y-72971666D01*
X56556666Y-73071666D01*
X56490000Y-73138333D01*
X56390000Y-73171666D01*
X56323333Y-73171666D01*
X57290000Y-73171666D02*
X56890000Y-73171666D01*
X57090000Y-73171666D02*
X57090000Y-72471666D01*
X57023333Y-72571666D01*
X56956666Y-72638333D01*
X56890000Y-72671666D01*
X57956666Y-73171666D02*
X57556666Y-73171666D01*
X57756666Y-73171666D02*
X57756666Y-72471666D01*
X57690000Y-72571666D01*
X57623333Y-72638333D01*
X57556666Y-72671666D01*
X58223333Y-72538333D02*
X58256666Y-72505000D01*
X58323333Y-72471666D01*
X58490000Y-72471666D01*
X58556666Y-72505000D01*
X58590000Y-72538333D01*
X58623333Y-72605000D01*
X58623333Y-72671666D01*
X58590000Y-72771666D01*
X58190000Y-73171666D01*
X58623333Y-73171666D01*
%TO.C,R202*%
X98316666Y-85133333D02*
X97983333Y-85366666D01*
X98316666Y-85533333D02*
X97616666Y-85533333D01*
X97616666Y-85266666D01*
X97650000Y-85200000D01*
X97683333Y-85166666D01*
X97750000Y-85133333D01*
X97850000Y-85133333D01*
X97916666Y-85166666D01*
X97950000Y-85200000D01*
X97983333Y-85266666D01*
X97983333Y-85533333D01*
X97683333Y-84866666D02*
X97650000Y-84833333D01*
X97616666Y-84766666D01*
X97616666Y-84600000D01*
X97650000Y-84533333D01*
X97683333Y-84500000D01*
X97750000Y-84466666D01*
X97816666Y-84466666D01*
X97916666Y-84500000D01*
X98316666Y-84900000D01*
X98316666Y-84466666D01*
X97616666Y-84033333D02*
X97616666Y-83966666D01*
X97650000Y-83900000D01*
X97683333Y-83866666D01*
X97750000Y-83833333D01*
X97883333Y-83800000D01*
X98050000Y-83800000D01*
X98183333Y-83833333D01*
X98250000Y-83866666D01*
X98283333Y-83900000D01*
X98316666Y-83966666D01*
X98316666Y-84033333D01*
X98283333Y-84100000D01*
X98250000Y-84133333D01*
X98183333Y-84166666D01*
X98050000Y-84200000D01*
X97883333Y-84200000D01*
X97750000Y-84166666D01*
X97683333Y-84133333D01*
X97650000Y-84100000D01*
X97616666Y-84033333D01*
X97683333Y-83533333D02*
X97650000Y-83500000D01*
X97616666Y-83433333D01*
X97616666Y-83266666D01*
X97650000Y-83200000D01*
X97683333Y-83166666D01*
X97750000Y-83133333D01*
X97816666Y-83133333D01*
X97916666Y-83166666D01*
X98316666Y-83566666D01*
X98316666Y-83133333D01*
%TO.C,J202*%
X76394285Y-76592380D02*
X76394285Y-77306666D01*
X76346666Y-77449523D01*
X76251428Y-77544761D01*
X76108571Y-77592380D01*
X76013333Y-77592380D01*
X76822857Y-76687619D02*
X76870476Y-76640000D01*
X76965714Y-76592380D01*
X77203809Y-76592380D01*
X77299047Y-76640000D01*
X77346666Y-76687619D01*
X77394285Y-76782857D01*
X77394285Y-76878095D01*
X77346666Y-77020952D01*
X76775238Y-77592380D01*
X77394285Y-77592380D01*
X78013333Y-76592380D02*
X78108571Y-76592380D01*
X78203809Y-76640000D01*
X78251428Y-76687619D01*
X78299047Y-76782857D01*
X78346666Y-76973333D01*
X78346666Y-77211428D01*
X78299047Y-77401904D01*
X78251428Y-77497142D01*
X78203809Y-77544761D01*
X78108571Y-77592380D01*
X78013333Y-77592380D01*
X77918095Y-77544761D01*
X77870476Y-77497142D01*
X77822857Y-77401904D01*
X77775238Y-77211428D01*
X77775238Y-76973333D01*
X77822857Y-76782857D01*
X77870476Y-76687619D01*
X77918095Y-76640000D01*
X78013333Y-76592380D01*
X78727619Y-76687619D02*
X78775238Y-76640000D01*
X78870476Y-76592380D01*
X79108571Y-76592380D01*
X79203809Y-76640000D01*
X79251428Y-76687619D01*
X79299047Y-76782857D01*
X79299047Y-76878095D01*
X79251428Y-77020952D01*
X78680000Y-77592380D01*
X79299047Y-77592380D01*
%TO.C,L202*%
X89882380Y-73399047D02*
X89882380Y-73875238D01*
X88882380Y-73875238D01*
X88977619Y-73113333D02*
X88930000Y-73065714D01*
X88882380Y-72970476D01*
X88882380Y-72732380D01*
X88930000Y-72637142D01*
X88977619Y-72589523D01*
X89072857Y-72541904D01*
X89168095Y-72541904D01*
X89310952Y-72589523D01*
X89882380Y-73160952D01*
X89882380Y-72541904D01*
X88882380Y-71922857D02*
X88882380Y-71827619D01*
X88930000Y-71732380D01*
X88977619Y-71684761D01*
X89072857Y-71637142D01*
X89263333Y-71589523D01*
X89501428Y-71589523D01*
X89691904Y-71637142D01*
X89787142Y-71684761D01*
X89834761Y-71732380D01*
X89882380Y-71827619D01*
X89882380Y-71922857D01*
X89834761Y-72018095D01*
X89787142Y-72065714D01*
X89691904Y-72113333D01*
X89501428Y-72160952D01*
X89263333Y-72160952D01*
X89072857Y-72113333D01*
X88977619Y-72065714D01*
X88930000Y-72018095D01*
X88882380Y-71922857D01*
X88977619Y-71208571D02*
X88930000Y-71160952D01*
X88882380Y-71065714D01*
X88882380Y-70827619D01*
X88930000Y-70732380D01*
X88977619Y-70684761D01*
X89072857Y-70637142D01*
X89168095Y-70637142D01*
X89310952Y-70684761D01*
X89882380Y-71256190D01*
X89882380Y-70637142D01*
%TO.C,D110*%
X56226666Y-88996666D02*
X56226666Y-88296666D01*
X56393333Y-88296666D01*
X56493333Y-88330000D01*
X56560000Y-88396666D01*
X56593333Y-88463333D01*
X56626666Y-88596666D01*
X56626666Y-88696666D01*
X56593333Y-88830000D01*
X56560000Y-88896666D01*
X56493333Y-88963333D01*
X56393333Y-88996666D01*
X56226666Y-88996666D01*
X57293333Y-88996666D02*
X56893333Y-88996666D01*
X57093333Y-88996666D02*
X57093333Y-88296666D01*
X57026666Y-88396666D01*
X56960000Y-88463333D01*
X56893333Y-88496666D01*
X57960000Y-88996666D02*
X57560000Y-88996666D01*
X57760000Y-88996666D02*
X57760000Y-88296666D01*
X57693333Y-88396666D01*
X57626666Y-88463333D01*
X57560000Y-88496666D01*
X58393333Y-88296666D02*
X58460000Y-88296666D01*
X58526666Y-88330000D01*
X58560000Y-88363333D01*
X58593333Y-88430000D01*
X58626666Y-88563333D01*
X58626666Y-88730000D01*
X58593333Y-88863333D01*
X58560000Y-88930000D01*
X58526666Y-88963333D01*
X58460000Y-88996666D01*
X58393333Y-88996666D01*
X58326666Y-88963333D01*
X58293333Y-88930000D01*
X58260000Y-88863333D01*
X58226666Y-88730000D01*
X58226666Y-88563333D01*
X58260000Y-88430000D01*
X58293333Y-88363333D01*
X58326666Y-88330000D01*
X58393333Y-88296666D01*
%TO.C,D201*%
X93506666Y-73926666D02*
X93506666Y-73226666D01*
X93673333Y-73226666D01*
X93773333Y-73260000D01*
X93840000Y-73326666D01*
X93873333Y-73393333D01*
X93906666Y-73526666D01*
X93906666Y-73626666D01*
X93873333Y-73760000D01*
X93840000Y-73826666D01*
X93773333Y-73893333D01*
X93673333Y-73926666D01*
X93506666Y-73926666D01*
X94173333Y-73293333D02*
X94206666Y-73260000D01*
X94273333Y-73226666D01*
X94440000Y-73226666D01*
X94506666Y-73260000D01*
X94540000Y-73293333D01*
X94573333Y-73360000D01*
X94573333Y-73426666D01*
X94540000Y-73526666D01*
X94140000Y-73926666D01*
X94573333Y-73926666D01*
X95006666Y-73226666D02*
X95073333Y-73226666D01*
X95140000Y-73260000D01*
X95173333Y-73293333D01*
X95206666Y-73360000D01*
X95240000Y-73493333D01*
X95240000Y-73660000D01*
X95206666Y-73793333D01*
X95173333Y-73860000D01*
X95140000Y-73893333D01*
X95073333Y-73926666D01*
X95006666Y-73926666D01*
X94940000Y-73893333D01*
X94906666Y-73860000D01*
X94873333Y-73793333D01*
X94840000Y-73660000D01*
X94840000Y-73493333D01*
X94873333Y-73360000D01*
X94906666Y-73293333D01*
X94940000Y-73260000D01*
X95006666Y-73226666D01*
X95906666Y-73926666D02*
X95506666Y-73926666D01*
X95706666Y-73926666D02*
X95706666Y-73226666D01*
X95640000Y-73326666D01*
X95573333Y-73393333D01*
X95506666Y-73426666D01*
%TO.C,R103*%
X93826666Y-71400833D02*
X93493333Y-71634166D01*
X93826666Y-71800833D02*
X93126666Y-71800833D01*
X93126666Y-71534166D01*
X93160000Y-71467500D01*
X93193333Y-71434166D01*
X93260000Y-71400833D01*
X93360000Y-71400833D01*
X93426666Y-71434166D01*
X93460000Y-71467500D01*
X93493333Y-71534166D01*
X93493333Y-71800833D01*
X93826666Y-70734166D02*
X93826666Y-71134166D01*
X93826666Y-70934166D02*
X93126666Y-70934166D01*
X93226666Y-71000833D01*
X93293333Y-71067500D01*
X93326666Y-71134166D01*
X93126666Y-70300833D02*
X93126666Y-70234166D01*
X93160000Y-70167500D01*
X93193333Y-70134166D01*
X93260000Y-70100833D01*
X93393333Y-70067500D01*
X93560000Y-70067500D01*
X93693333Y-70100833D01*
X93760000Y-70134166D01*
X93793333Y-70167500D01*
X93826666Y-70234166D01*
X93826666Y-70300833D01*
X93793333Y-70367500D01*
X93760000Y-70400833D01*
X93693333Y-70434166D01*
X93560000Y-70467500D01*
X93393333Y-70467500D01*
X93260000Y-70434166D01*
X93193333Y-70400833D01*
X93160000Y-70367500D01*
X93126666Y-70300833D01*
X93126666Y-69834166D02*
X93126666Y-69400833D01*
X93393333Y-69634166D01*
X93393333Y-69534166D01*
X93426666Y-69467500D01*
X93460000Y-69434166D01*
X93526666Y-69400833D01*
X93693333Y-69400833D01*
X93760000Y-69434166D01*
X93793333Y-69467500D01*
X93826666Y-69534166D01*
X93826666Y-69734166D01*
X93793333Y-69800833D01*
X93760000Y-69834166D01*
%TO.C,D202*%
X109896666Y-83436666D02*
X109896666Y-82736666D01*
X110063333Y-82736666D01*
X110163333Y-82770000D01*
X110230000Y-82836666D01*
X110263333Y-82903333D01*
X110296666Y-83036666D01*
X110296666Y-83136666D01*
X110263333Y-83270000D01*
X110230000Y-83336666D01*
X110163333Y-83403333D01*
X110063333Y-83436666D01*
X109896666Y-83436666D01*
X110563333Y-82803333D02*
X110596666Y-82770000D01*
X110663333Y-82736666D01*
X110830000Y-82736666D01*
X110896666Y-82770000D01*
X110930000Y-82803333D01*
X110963333Y-82870000D01*
X110963333Y-82936666D01*
X110930000Y-83036666D01*
X110530000Y-83436666D01*
X110963333Y-83436666D01*
X111396666Y-82736666D02*
X111463333Y-82736666D01*
X111530000Y-82770000D01*
X111563333Y-82803333D01*
X111596666Y-82870000D01*
X111630000Y-83003333D01*
X111630000Y-83170000D01*
X111596666Y-83303333D01*
X111563333Y-83370000D01*
X111530000Y-83403333D01*
X111463333Y-83436666D01*
X111396666Y-83436666D01*
X111330000Y-83403333D01*
X111296666Y-83370000D01*
X111263333Y-83303333D01*
X111230000Y-83170000D01*
X111230000Y-83003333D01*
X111263333Y-82870000D01*
X111296666Y-82803333D01*
X111330000Y-82770000D01*
X111396666Y-82736666D01*
X111896666Y-82803333D02*
X111930000Y-82770000D01*
X111996666Y-82736666D01*
X112163333Y-82736666D01*
X112230000Y-82770000D01*
X112263333Y-82803333D01*
X112296666Y-82870000D01*
X112296666Y-82936666D01*
X112263333Y-83036666D01*
X111863333Y-83436666D01*
X112296666Y-83436666D01*
%TO.C,D109*%
X56576666Y-84166666D02*
X56576666Y-83466666D01*
X56743333Y-83466666D01*
X56843333Y-83500000D01*
X56910000Y-83566666D01*
X56943333Y-83633333D01*
X56976666Y-83766666D01*
X56976666Y-83866666D01*
X56943333Y-84000000D01*
X56910000Y-84066666D01*
X56843333Y-84133333D01*
X56743333Y-84166666D01*
X56576666Y-84166666D01*
X57643333Y-84166666D02*
X57243333Y-84166666D01*
X57443333Y-84166666D02*
X57443333Y-83466666D01*
X57376666Y-83566666D01*
X57310000Y-83633333D01*
X57243333Y-83666666D01*
X58076666Y-83466666D02*
X58143333Y-83466666D01*
X58210000Y-83500000D01*
X58243333Y-83533333D01*
X58276666Y-83600000D01*
X58310000Y-83733333D01*
X58310000Y-83900000D01*
X58276666Y-84033333D01*
X58243333Y-84100000D01*
X58210000Y-84133333D01*
X58143333Y-84166666D01*
X58076666Y-84166666D01*
X58010000Y-84133333D01*
X57976666Y-84100000D01*
X57943333Y-84033333D01*
X57910000Y-83900000D01*
X57910000Y-83733333D01*
X57943333Y-83600000D01*
X57976666Y-83533333D01*
X58010000Y-83500000D01*
X58076666Y-83466666D01*
X58643333Y-84166666D02*
X58776666Y-84166666D01*
X58843333Y-84133333D01*
X58876666Y-84100000D01*
X58943333Y-84000000D01*
X58976666Y-83866666D01*
X58976666Y-83600000D01*
X58943333Y-83533333D01*
X58910000Y-83500000D01*
X58843333Y-83466666D01*
X58710000Y-83466666D01*
X58643333Y-83500000D01*
X58610000Y-83533333D01*
X58576666Y-83600000D01*
X58576666Y-83766666D01*
X58610000Y-83833333D01*
X58643333Y-83866666D01*
X58710000Y-83900000D01*
X58843333Y-83900000D01*
X58910000Y-83866666D01*
X58943333Y-83833333D01*
X58976666Y-83766666D01*
%TO.C,P101*%
X59869523Y-107822380D02*
X59869523Y-106822380D01*
X60250476Y-106822380D01*
X60345714Y-106870000D01*
X60393333Y-106917619D01*
X60440952Y-107012857D01*
X60440952Y-107155714D01*
X60393333Y-107250952D01*
X60345714Y-107298571D01*
X60250476Y-107346190D01*
X59869523Y-107346190D01*
X61393333Y-107822380D02*
X60821904Y-107822380D01*
X61107619Y-107822380D02*
X61107619Y-106822380D01*
X61012380Y-106965238D01*
X60917142Y-107060476D01*
X60821904Y-107108095D01*
X62012380Y-106822380D02*
X62107619Y-106822380D01*
X62202857Y-106870000D01*
X62250476Y-106917619D01*
X62298095Y-107012857D01*
X62345714Y-107203333D01*
X62345714Y-107441428D01*
X62298095Y-107631904D01*
X62250476Y-107727142D01*
X62202857Y-107774761D01*
X62107619Y-107822380D01*
X62012380Y-107822380D01*
X61917142Y-107774761D01*
X61869523Y-107727142D01*
X61821904Y-107631904D01*
X61774285Y-107441428D01*
X61774285Y-107203333D01*
X61821904Y-107012857D01*
X61869523Y-106917619D01*
X61917142Y-106870000D01*
X62012380Y-106822380D01*
X63298095Y-107822380D02*
X62726666Y-107822380D01*
X63012380Y-107822380D02*
X63012380Y-106822380D01*
X62917142Y-106965238D01*
X62821904Y-107060476D01*
X62726666Y-107108095D01*
%TO.C,J101*%
X95120000Y-60676666D02*
X95120000Y-61176666D01*
X95086666Y-61276666D01*
X95020000Y-61343333D01*
X94920000Y-61376666D01*
X94853333Y-61376666D01*
X95820000Y-61376666D02*
X95420000Y-61376666D01*
X95620000Y-61376666D02*
X95620000Y-60676666D01*
X95553333Y-60776666D01*
X95486666Y-60843333D01*
X95420000Y-60876666D01*
X96253333Y-60676666D02*
X96320000Y-60676666D01*
X96386666Y-60710000D01*
X96420000Y-60743333D01*
X96453333Y-60810000D01*
X96486666Y-60943333D01*
X96486666Y-61110000D01*
X96453333Y-61243333D01*
X96420000Y-61310000D01*
X96386666Y-61343333D01*
X96320000Y-61376666D01*
X96253333Y-61376666D01*
X96186666Y-61343333D01*
X96153333Y-61310000D01*
X96120000Y-61243333D01*
X96086666Y-61110000D01*
X96086666Y-60943333D01*
X96120000Y-60810000D01*
X96153333Y-60743333D01*
X96186666Y-60710000D01*
X96253333Y-60676666D01*
X97153333Y-61376666D02*
X96753333Y-61376666D01*
X96953333Y-61376666D02*
X96953333Y-60676666D01*
X96886666Y-60776666D01*
X96820000Y-60843333D01*
X96753333Y-60876666D01*
D12*
%TO.C,W101*%
X90950390Y-102410169D02*
X91165889Y-102059983D01*
X90909984Y-102208138D01*
X91058139Y-101952233D01*
X90707953Y-102167732D01*
X90734891Y-101628984D02*
X90896515Y-101790609D01*
X90815703Y-101709796D02*
X90532860Y-101992639D01*
X90600204Y-101979170D01*
X90654078Y-101979170D01*
X90694484Y-101992639D01*
X90276955Y-101736734D02*
X90250017Y-101709796D01*
X90236549Y-101669390D01*
X90236549Y-101642453D01*
X90250017Y-101602047D01*
X90290423Y-101534703D01*
X90357767Y-101467360D01*
X90425110Y-101426954D01*
X90465517Y-101413485D01*
X90492454Y-101413485D01*
X90532860Y-101426954D01*
X90559797Y-101453891D01*
X90573266Y-101494297D01*
X90573266Y-101521235D01*
X90559797Y-101561641D01*
X90519391Y-101628984D01*
X90452048Y-101696328D01*
X90384704Y-101736734D01*
X90344298Y-101750203D01*
X90317361Y-101750203D01*
X90276955Y-101736734D01*
X90196143Y-101090236D02*
X90357767Y-101251861D01*
X90276955Y-101171048D02*
X89994112Y-101453891D01*
X90061456Y-101440422D01*
X90115330Y-101440422D01*
X90155736Y-101453891D01*
D13*
X93632695Y-102114336D02*
X93430664Y-101912306D01*
X93885233Y-101659767D02*
X93531680Y-102013321D01*
X93363321Y-101777619D02*
X93329649Y-101777619D01*
X93279142Y-101760783D01*
X93194962Y-101676603D01*
X93178126Y-101626096D01*
X93178126Y-101592424D01*
X93194962Y-101541916D01*
X93228634Y-101508245D01*
X93295977Y-101474573D01*
X93700038Y-101474573D01*
X93481172Y-101255706D01*
D12*
X87556964Y-99059635D02*
X87570433Y-99100041D01*
X87610839Y-99140447D01*
X87664714Y-99167385D01*
X87718589Y-99167385D01*
X87758995Y-99153916D01*
X87826338Y-99113510D01*
X87866744Y-99073104D01*
X87907151Y-99005760D01*
X87920619Y-98965354D01*
X87920619Y-98911479D01*
X87893682Y-98857605D01*
X87866744Y-98830667D01*
X87812870Y-98803730D01*
X87785932Y-98803730D01*
X87691651Y-98898011D01*
X87745526Y-98951885D01*
X87691651Y-98655574D02*
X87408809Y-98938417D01*
X87530027Y-98493950D01*
X87247184Y-98776792D01*
X87395340Y-98359263D02*
X87112497Y-98642105D01*
X87045154Y-98574762D01*
X87018216Y-98520887D01*
X87018216Y-98467012D01*
X87031685Y-98426606D01*
X87072091Y-98359263D01*
X87112497Y-98318857D01*
X87179841Y-98278450D01*
X87220247Y-98264982D01*
X87274122Y-98264982D01*
X87327996Y-98291919D01*
X87395340Y-98359263D01*
D10*
%TO.C,C301*%
X116696666Y-105940000D02*
X116663333Y-105973333D01*
X116563333Y-106006666D01*
X116496666Y-106006666D01*
X116396666Y-105973333D01*
X116330000Y-105906666D01*
X116296666Y-105840000D01*
X116263333Y-105706666D01*
X116263333Y-105606666D01*
X116296666Y-105473333D01*
X116330000Y-105406666D01*
X116396666Y-105340000D01*
X116496666Y-105306666D01*
X116563333Y-105306666D01*
X116663333Y-105340000D01*
X116696666Y-105373333D01*
X116930000Y-105306666D02*
X117363333Y-105306666D01*
X117130000Y-105573333D01*
X117230000Y-105573333D01*
X117296666Y-105606666D01*
X117330000Y-105640000D01*
X117363333Y-105706666D01*
X117363333Y-105873333D01*
X117330000Y-105940000D01*
X117296666Y-105973333D01*
X117230000Y-106006666D01*
X117030000Y-106006666D01*
X116963333Y-105973333D01*
X116930000Y-105940000D01*
X117796666Y-105306666D02*
X117863333Y-105306666D01*
X117930000Y-105340000D01*
X117963333Y-105373333D01*
X117996666Y-105440000D01*
X118030000Y-105573333D01*
X118030000Y-105740000D01*
X117996666Y-105873333D01*
X117963333Y-105940000D01*
X117930000Y-105973333D01*
X117863333Y-106006666D01*
X117796666Y-106006666D01*
X117730000Y-105973333D01*
X117696666Y-105940000D01*
X117663333Y-105873333D01*
X117630000Y-105740000D01*
X117630000Y-105573333D01*
X117663333Y-105440000D01*
X117696666Y-105373333D01*
X117730000Y-105340000D01*
X117796666Y-105306666D01*
X118696666Y-106006666D02*
X118296666Y-106006666D01*
X118496666Y-106006666D02*
X118496666Y-105306666D01*
X118430000Y-105406666D01*
X118363333Y-105473333D01*
X118296666Y-105506666D01*
%TO.C,C105*%
X85150000Y-99203333D02*
X85183333Y-99236666D01*
X85216666Y-99336666D01*
X85216666Y-99403333D01*
X85183333Y-99503333D01*
X85116666Y-99570000D01*
X85050000Y-99603333D01*
X84916666Y-99636666D01*
X84816666Y-99636666D01*
X84683333Y-99603333D01*
X84616666Y-99570000D01*
X84550000Y-99503333D01*
X84516666Y-99403333D01*
X84516666Y-99336666D01*
X84550000Y-99236666D01*
X84583333Y-99203333D01*
X85216666Y-98536666D02*
X85216666Y-98936666D01*
X85216666Y-98736666D02*
X84516666Y-98736666D01*
X84616666Y-98803333D01*
X84683333Y-98870000D01*
X84716666Y-98936666D01*
X84516666Y-98103333D02*
X84516666Y-98036666D01*
X84550000Y-97970000D01*
X84583333Y-97936666D01*
X84650000Y-97903333D01*
X84783333Y-97870000D01*
X84950000Y-97870000D01*
X85083333Y-97903333D01*
X85150000Y-97936666D01*
X85183333Y-97970000D01*
X85216666Y-98036666D01*
X85216666Y-98103333D01*
X85183333Y-98170000D01*
X85150000Y-98203333D01*
X85083333Y-98236666D01*
X84950000Y-98270000D01*
X84783333Y-98270000D01*
X84650000Y-98236666D01*
X84583333Y-98203333D01*
X84550000Y-98170000D01*
X84516666Y-98103333D01*
X84516666Y-97236666D02*
X84516666Y-97570000D01*
X84850000Y-97603333D01*
X84816666Y-97570000D01*
X84783333Y-97503333D01*
X84783333Y-97336666D01*
X84816666Y-97270000D01*
X84850000Y-97236666D01*
X84916666Y-97203333D01*
X85083333Y-97203333D01*
X85150000Y-97236666D01*
X85183333Y-97270000D01*
X85216666Y-97336666D01*
X85216666Y-97503333D01*
X85183333Y-97570000D01*
X85150000Y-97603333D01*
%TO.C,C101*%
X60556666Y-65930000D02*
X60523333Y-65963333D01*
X60423333Y-65996666D01*
X60356666Y-65996666D01*
X60256666Y-65963333D01*
X60190000Y-65896666D01*
X60156666Y-65830000D01*
X60123333Y-65696666D01*
X60123333Y-65596666D01*
X60156666Y-65463333D01*
X60190000Y-65396666D01*
X60256666Y-65330000D01*
X60356666Y-65296666D01*
X60423333Y-65296666D01*
X60523333Y-65330000D01*
X60556666Y-65363333D01*
X61223333Y-65996666D02*
X60823333Y-65996666D01*
X61023333Y-65996666D02*
X61023333Y-65296666D01*
X60956666Y-65396666D01*
X60890000Y-65463333D01*
X60823333Y-65496666D01*
X61656666Y-65296666D02*
X61723333Y-65296666D01*
X61790000Y-65330000D01*
X61823333Y-65363333D01*
X61856666Y-65430000D01*
X61890000Y-65563333D01*
X61890000Y-65730000D01*
X61856666Y-65863333D01*
X61823333Y-65930000D01*
X61790000Y-65963333D01*
X61723333Y-65996666D01*
X61656666Y-65996666D01*
X61590000Y-65963333D01*
X61556666Y-65930000D01*
X61523333Y-65863333D01*
X61490000Y-65730000D01*
X61490000Y-65563333D01*
X61523333Y-65430000D01*
X61556666Y-65363333D01*
X61590000Y-65330000D01*
X61656666Y-65296666D01*
X62556666Y-65996666D02*
X62156666Y-65996666D01*
X62356666Y-65996666D02*
X62356666Y-65296666D01*
X62290000Y-65396666D01*
X62223333Y-65463333D01*
X62156666Y-65496666D01*
%TO.C,Q102*%
X105453333Y-66673333D02*
X105420000Y-66740000D01*
X105353333Y-66806666D01*
X105253333Y-66906666D01*
X105220000Y-66973333D01*
X105220000Y-67040000D01*
X105386666Y-67006666D02*
X105353333Y-67073333D01*
X105286666Y-67140000D01*
X105153333Y-67173333D01*
X104920000Y-67173333D01*
X104786666Y-67140000D01*
X104720000Y-67073333D01*
X104686666Y-67006666D01*
X104686666Y-66873333D01*
X104720000Y-66806666D01*
X104786666Y-66740000D01*
X104920000Y-66706666D01*
X105153333Y-66706666D01*
X105286666Y-66740000D01*
X105353333Y-66806666D01*
X105386666Y-66873333D01*
X105386666Y-67006666D01*
X105386666Y-66040000D02*
X105386666Y-66440000D01*
X105386666Y-66240000D02*
X104686666Y-66240000D01*
X104786666Y-66306666D01*
X104853333Y-66373333D01*
X104886666Y-66440000D01*
X104686666Y-65606666D02*
X104686666Y-65540000D01*
X104720000Y-65473333D01*
X104753333Y-65440000D01*
X104820000Y-65406666D01*
X104953333Y-65373333D01*
X105120000Y-65373333D01*
X105253333Y-65406666D01*
X105320000Y-65440000D01*
X105353333Y-65473333D01*
X105386666Y-65540000D01*
X105386666Y-65606666D01*
X105353333Y-65673333D01*
X105320000Y-65706666D01*
X105253333Y-65740000D01*
X105120000Y-65773333D01*
X104953333Y-65773333D01*
X104820000Y-65740000D01*
X104753333Y-65706666D01*
X104720000Y-65673333D01*
X104686666Y-65606666D01*
X104753333Y-65106666D02*
X104720000Y-65073333D01*
X104686666Y-65006666D01*
X104686666Y-64840000D01*
X104720000Y-64773333D01*
X104753333Y-64740000D01*
X104820000Y-64706666D01*
X104886666Y-64706666D01*
X104986666Y-64740000D01*
X105386666Y-65140000D01*
X105386666Y-64706666D01*
%TO.C,C203*%
X68450000Y-99093333D02*
X68483333Y-99126666D01*
X68516666Y-99226666D01*
X68516666Y-99293333D01*
X68483333Y-99393333D01*
X68416666Y-99460000D01*
X68350000Y-99493333D01*
X68216666Y-99526666D01*
X68116666Y-99526666D01*
X67983333Y-99493333D01*
X67916666Y-99460000D01*
X67850000Y-99393333D01*
X67816666Y-99293333D01*
X67816666Y-99226666D01*
X67850000Y-99126666D01*
X67883333Y-99093333D01*
X67883333Y-98826666D02*
X67850000Y-98793333D01*
X67816666Y-98726666D01*
X67816666Y-98560000D01*
X67850000Y-98493333D01*
X67883333Y-98460000D01*
X67950000Y-98426666D01*
X68016666Y-98426666D01*
X68116666Y-98460000D01*
X68516666Y-98860000D01*
X68516666Y-98426666D01*
X67816666Y-97993333D02*
X67816666Y-97926666D01*
X67850000Y-97860000D01*
X67883333Y-97826666D01*
X67950000Y-97793333D01*
X68083333Y-97760000D01*
X68250000Y-97760000D01*
X68383333Y-97793333D01*
X68450000Y-97826666D01*
X68483333Y-97860000D01*
X68516666Y-97926666D01*
X68516666Y-97993333D01*
X68483333Y-98060000D01*
X68450000Y-98093333D01*
X68383333Y-98126666D01*
X68250000Y-98160000D01*
X68083333Y-98160000D01*
X67950000Y-98126666D01*
X67883333Y-98093333D01*
X67850000Y-98060000D01*
X67816666Y-97993333D01*
X67816666Y-97526666D02*
X67816666Y-97093333D01*
X68083333Y-97326666D01*
X68083333Y-97226666D01*
X68116666Y-97160000D01*
X68150000Y-97126666D01*
X68216666Y-97093333D01*
X68383333Y-97093333D01*
X68450000Y-97126666D01*
X68483333Y-97160000D01*
X68516666Y-97226666D01*
X68516666Y-97426666D01*
X68483333Y-97493333D01*
X68450000Y-97526666D01*
%TO.C,J201*%
X113884285Y-68792380D02*
X113884285Y-69506666D01*
X113836666Y-69649523D01*
X113741428Y-69744761D01*
X113598571Y-69792380D01*
X113503333Y-69792380D01*
X114312857Y-68887619D02*
X114360476Y-68840000D01*
X114455714Y-68792380D01*
X114693809Y-68792380D01*
X114789047Y-68840000D01*
X114836666Y-68887619D01*
X114884285Y-68982857D01*
X114884285Y-69078095D01*
X114836666Y-69220952D01*
X114265238Y-69792380D01*
X114884285Y-69792380D01*
X115503333Y-68792380D02*
X115598571Y-68792380D01*
X115693809Y-68840000D01*
X115741428Y-68887619D01*
X115789047Y-68982857D01*
X115836666Y-69173333D01*
X115836666Y-69411428D01*
X115789047Y-69601904D01*
X115741428Y-69697142D01*
X115693809Y-69744761D01*
X115598571Y-69792380D01*
X115503333Y-69792380D01*
X115408095Y-69744761D01*
X115360476Y-69697142D01*
X115312857Y-69601904D01*
X115265238Y-69411428D01*
X115265238Y-69173333D01*
X115312857Y-68982857D01*
X115360476Y-68887619D01*
X115408095Y-68840000D01*
X115503333Y-68792380D01*
X116789047Y-69792380D02*
X116217619Y-69792380D01*
X116503333Y-69792380D02*
X116503333Y-68792380D01*
X116408095Y-68935238D01*
X116312857Y-69030476D01*
X116217619Y-69078095D01*
%TO.C,R203*%
X94226666Y-85103333D02*
X93893333Y-85336666D01*
X94226666Y-85503333D02*
X93526666Y-85503333D01*
X93526666Y-85236666D01*
X93560000Y-85170000D01*
X93593333Y-85136666D01*
X93660000Y-85103333D01*
X93760000Y-85103333D01*
X93826666Y-85136666D01*
X93860000Y-85170000D01*
X93893333Y-85236666D01*
X93893333Y-85503333D01*
X93593333Y-84836666D02*
X93560000Y-84803333D01*
X93526666Y-84736666D01*
X93526666Y-84570000D01*
X93560000Y-84503333D01*
X93593333Y-84470000D01*
X93660000Y-84436666D01*
X93726666Y-84436666D01*
X93826666Y-84470000D01*
X94226666Y-84870000D01*
X94226666Y-84436666D01*
X93526666Y-84003333D02*
X93526666Y-83936666D01*
X93560000Y-83870000D01*
X93593333Y-83836666D01*
X93660000Y-83803333D01*
X93793333Y-83770000D01*
X93960000Y-83770000D01*
X94093333Y-83803333D01*
X94160000Y-83836666D01*
X94193333Y-83870000D01*
X94226666Y-83936666D01*
X94226666Y-84003333D01*
X94193333Y-84070000D01*
X94160000Y-84103333D01*
X94093333Y-84136666D01*
X93960000Y-84170000D01*
X93793333Y-84170000D01*
X93660000Y-84136666D01*
X93593333Y-84103333D01*
X93560000Y-84070000D01*
X93526666Y-84003333D01*
X93526666Y-83536666D02*
X93526666Y-83103333D01*
X93793333Y-83336666D01*
X93793333Y-83236666D01*
X93826666Y-83170000D01*
X93860000Y-83136666D01*
X93926666Y-83103333D01*
X94093333Y-83103333D01*
X94160000Y-83136666D01*
X94193333Y-83170000D01*
X94226666Y-83236666D01*
X94226666Y-83436666D01*
X94193333Y-83503333D01*
X94160000Y-83536666D01*
%TO.C,C210*%
X75896666Y-103310000D02*
X75863333Y-103343333D01*
X75763333Y-103376666D01*
X75696666Y-103376666D01*
X75596666Y-103343333D01*
X75530000Y-103276666D01*
X75496666Y-103210000D01*
X75463333Y-103076666D01*
X75463333Y-102976666D01*
X75496666Y-102843333D01*
X75530000Y-102776666D01*
X75596666Y-102710000D01*
X75696666Y-102676666D01*
X75763333Y-102676666D01*
X75863333Y-102710000D01*
X75896666Y-102743333D01*
X76163333Y-102743333D02*
X76196666Y-102710000D01*
X76263333Y-102676666D01*
X76430000Y-102676666D01*
X76496666Y-102710000D01*
X76530000Y-102743333D01*
X76563333Y-102810000D01*
X76563333Y-102876666D01*
X76530000Y-102976666D01*
X76130000Y-103376666D01*
X76563333Y-103376666D01*
X77230000Y-103376666D02*
X76830000Y-103376666D01*
X77030000Y-103376666D02*
X77030000Y-102676666D01*
X76963333Y-102776666D01*
X76896666Y-102843333D01*
X76830000Y-102876666D01*
X77663333Y-102676666D02*
X77730000Y-102676666D01*
X77796666Y-102710000D01*
X77830000Y-102743333D01*
X77863333Y-102810000D01*
X77896666Y-102943333D01*
X77896666Y-103110000D01*
X77863333Y-103243333D01*
X77830000Y-103310000D01*
X77796666Y-103343333D01*
X77730000Y-103376666D01*
X77663333Y-103376666D01*
X77596666Y-103343333D01*
X77563333Y-103310000D01*
X77530000Y-103243333D01*
X77496666Y-103110000D01*
X77496666Y-102943333D01*
X77530000Y-102810000D01*
X77563333Y-102743333D01*
X77596666Y-102710000D01*
X77663333Y-102676666D01*
%TO.C,J103*%
X103200000Y-75756666D02*
X103200000Y-76256666D01*
X103166666Y-76356666D01*
X103100000Y-76423333D01*
X103000000Y-76456666D01*
X102933333Y-76456666D01*
X103900000Y-76456666D02*
X103500000Y-76456666D01*
X103700000Y-76456666D02*
X103700000Y-75756666D01*
X103633333Y-75856666D01*
X103566666Y-75923333D01*
X103500000Y-75956666D01*
X104333333Y-75756666D02*
X104400000Y-75756666D01*
X104466666Y-75790000D01*
X104500000Y-75823333D01*
X104533333Y-75890000D01*
X104566666Y-76023333D01*
X104566666Y-76190000D01*
X104533333Y-76323333D01*
X104500000Y-76390000D01*
X104466666Y-76423333D01*
X104400000Y-76456666D01*
X104333333Y-76456666D01*
X104266666Y-76423333D01*
X104233333Y-76390000D01*
X104200000Y-76323333D01*
X104166666Y-76190000D01*
X104166666Y-76023333D01*
X104200000Y-75890000D01*
X104233333Y-75823333D01*
X104266666Y-75790000D01*
X104333333Y-75756666D01*
X104800000Y-75756666D02*
X105233333Y-75756666D01*
X105000000Y-76023333D01*
X105100000Y-76023333D01*
X105166666Y-76056666D01*
X105200000Y-76090000D01*
X105233333Y-76156666D01*
X105233333Y-76323333D01*
X105200000Y-76390000D01*
X105166666Y-76423333D01*
X105100000Y-76456666D01*
X104900000Y-76456666D01*
X104833333Y-76423333D01*
X104800000Y-76390000D01*
%TO.C,C103*%
X60396666Y-72590000D02*
X60363333Y-72623333D01*
X60263333Y-72656666D01*
X60196666Y-72656666D01*
X60096666Y-72623333D01*
X60030000Y-72556666D01*
X59996666Y-72490000D01*
X59963333Y-72356666D01*
X59963333Y-72256666D01*
X59996666Y-72123333D01*
X60030000Y-72056666D01*
X60096666Y-71990000D01*
X60196666Y-71956666D01*
X60263333Y-71956666D01*
X60363333Y-71990000D01*
X60396666Y-72023333D01*
X61063333Y-72656666D02*
X60663333Y-72656666D01*
X60863333Y-72656666D02*
X60863333Y-71956666D01*
X60796666Y-72056666D01*
X60730000Y-72123333D01*
X60663333Y-72156666D01*
X61496666Y-71956666D02*
X61563333Y-71956666D01*
X61630000Y-71990000D01*
X61663333Y-72023333D01*
X61696666Y-72090000D01*
X61730000Y-72223333D01*
X61730000Y-72390000D01*
X61696666Y-72523333D01*
X61663333Y-72590000D01*
X61630000Y-72623333D01*
X61563333Y-72656666D01*
X61496666Y-72656666D01*
X61430000Y-72623333D01*
X61396666Y-72590000D01*
X61363333Y-72523333D01*
X61330000Y-72390000D01*
X61330000Y-72223333D01*
X61363333Y-72090000D01*
X61396666Y-72023333D01*
X61430000Y-71990000D01*
X61496666Y-71956666D01*
X61963333Y-71956666D02*
X62396666Y-71956666D01*
X62163333Y-72223333D01*
X62263333Y-72223333D01*
X62330000Y-72256666D01*
X62363333Y-72290000D01*
X62396666Y-72356666D01*
X62396666Y-72523333D01*
X62363333Y-72590000D01*
X62330000Y-72623333D01*
X62263333Y-72656666D01*
X62063333Y-72656666D01*
X61996666Y-72623333D01*
X61963333Y-72590000D01*
%TO.C,R106*%
X57896666Y-94893333D02*
X57563333Y-95126666D01*
X57896666Y-95293333D02*
X57196666Y-95293333D01*
X57196666Y-95026666D01*
X57230000Y-94960000D01*
X57263333Y-94926666D01*
X57330000Y-94893333D01*
X57430000Y-94893333D01*
X57496666Y-94926666D01*
X57530000Y-94960000D01*
X57563333Y-95026666D01*
X57563333Y-95293333D01*
X57896666Y-94226666D02*
X57896666Y-94626666D01*
X57896666Y-94426666D02*
X57196666Y-94426666D01*
X57296666Y-94493333D01*
X57363333Y-94560000D01*
X57396666Y-94626666D01*
X57196666Y-93793333D02*
X57196666Y-93726666D01*
X57230000Y-93660000D01*
X57263333Y-93626666D01*
X57330000Y-93593333D01*
X57463333Y-93560000D01*
X57630000Y-93560000D01*
X57763333Y-93593333D01*
X57830000Y-93626666D01*
X57863333Y-93660000D01*
X57896666Y-93726666D01*
X57896666Y-93793333D01*
X57863333Y-93860000D01*
X57830000Y-93893333D01*
X57763333Y-93926666D01*
X57630000Y-93960000D01*
X57463333Y-93960000D01*
X57330000Y-93926666D01*
X57263333Y-93893333D01*
X57230000Y-93860000D01*
X57196666Y-93793333D01*
X57196666Y-92960000D02*
X57196666Y-93093333D01*
X57230000Y-93160000D01*
X57263333Y-93193333D01*
X57363333Y-93260000D01*
X57496666Y-93293333D01*
X57763333Y-93293333D01*
X57830000Y-93260000D01*
X57863333Y-93226666D01*
X57896666Y-93160000D01*
X57896666Y-93026666D01*
X57863333Y-92960000D01*
X57830000Y-92926666D01*
X57763333Y-92893333D01*
X57596666Y-92893333D01*
X57530000Y-92926666D01*
X57496666Y-92960000D01*
X57463333Y-93026666D01*
X57463333Y-93160000D01*
X57496666Y-93226666D01*
X57530000Y-93260000D01*
X57596666Y-93293333D01*
%TO.C,C116*%
X51676666Y-65260000D02*
X51643333Y-65293333D01*
X51543333Y-65326666D01*
X51476666Y-65326666D01*
X51376666Y-65293333D01*
X51310000Y-65226666D01*
X51276666Y-65160000D01*
X51243333Y-65026666D01*
X51243333Y-64926666D01*
X51276666Y-64793333D01*
X51310000Y-64726666D01*
X51376666Y-64660000D01*
X51476666Y-64626666D01*
X51543333Y-64626666D01*
X51643333Y-64660000D01*
X51676666Y-64693333D01*
X52343333Y-65326666D02*
X51943333Y-65326666D01*
X52143333Y-65326666D02*
X52143333Y-64626666D01*
X52076666Y-64726666D01*
X52010000Y-64793333D01*
X51943333Y-64826666D01*
X53010000Y-65326666D02*
X52610000Y-65326666D01*
X52810000Y-65326666D02*
X52810000Y-64626666D01*
X52743333Y-64726666D01*
X52676666Y-64793333D01*
X52610000Y-64826666D01*
X53610000Y-64626666D02*
X53476666Y-64626666D01*
X53410000Y-64660000D01*
X53376666Y-64693333D01*
X53310000Y-64793333D01*
X53276666Y-64926666D01*
X53276666Y-65193333D01*
X53310000Y-65260000D01*
X53343333Y-65293333D01*
X53410000Y-65326666D01*
X53543333Y-65326666D01*
X53610000Y-65293333D01*
X53643333Y-65260000D01*
X53676666Y-65193333D01*
X53676666Y-65026666D01*
X53643333Y-64960000D01*
X53610000Y-64926666D01*
X53543333Y-64893333D01*
X53410000Y-64893333D01*
X53343333Y-64926666D01*
X53310000Y-64960000D01*
X53276666Y-65026666D01*
%TO.C,C204*%
X124000000Y-81863333D02*
X124033333Y-81896666D01*
X124066666Y-81996666D01*
X124066666Y-82063333D01*
X124033333Y-82163333D01*
X123966666Y-82230000D01*
X123900000Y-82263333D01*
X123766666Y-82296666D01*
X123666666Y-82296666D01*
X123533333Y-82263333D01*
X123466666Y-82230000D01*
X123400000Y-82163333D01*
X123366666Y-82063333D01*
X123366666Y-81996666D01*
X123400000Y-81896666D01*
X123433333Y-81863333D01*
X123433333Y-81596666D02*
X123400000Y-81563333D01*
X123366666Y-81496666D01*
X123366666Y-81330000D01*
X123400000Y-81263333D01*
X123433333Y-81230000D01*
X123500000Y-81196666D01*
X123566666Y-81196666D01*
X123666666Y-81230000D01*
X124066666Y-81630000D01*
X124066666Y-81196666D01*
X123366666Y-80763333D02*
X123366666Y-80696666D01*
X123400000Y-80630000D01*
X123433333Y-80596666D01*
X123500000Y-80563333D01*
X123633333Y-80530000D01*
X123800000Y-80530000D01*
X123933333Y-80563333D01*
X124000000Y-80596666D01*
X124033333Y-80630000D01*
X124066666Y-80696666D01*
X124066666Y-80763333D01*
X124033333Y-80830000D01*
X124000000Y-80863333D01*
X123933333Y-80896666D01*
X123800000Y-80930000D01*
X123633333Y-80930000D01*
X123500000Y-80896666D01*
X123433333Y-80863333D01*
X123400000Y-80830000D01*
X123366666Y-80763333D01*
X123600000Y-79930000D02*
X124066666Y-79930000D01*
X123333333Y-80096666D02*
X123833333Y-80263333D01*
X123833333Y-79830000D01*
D12*
%TO.C,W302*%
X115060389Y-105640169D02*
X115275888Y-105289983D01*
X115019983Y-105438138D01*
X115168138Y-105182233D01*
X114817952Y-105397732D01*
X114737140Y-105316920D02*
X114562047Y-105141827D01*
X114764077Y-105128358D01*
X114723671Y-105087952D01*
X114710203Y-105047546D01*
X114710203Y-105020609D01*
X114723671Y-104980203D01*
X114791015Y-104912859D01*
X114831421Y-104899390D01*
X114858358Y-104899390D01*
X114898764Y-104912859D01*
X114979577Y-104993671D01*
X114993045Y-105034077D01*
X114993045Y-105061015D01*
X114386954Y-104966734D02*
X114360016Y-104939796D01*
X114346548Y-104899390D01*
X114346548Y-104872453D01*
X114360016Y-104832047D01*
X114400422Y-104764703D01*
X114467766Y-104697360D01*
X114535109Y-104656954D01*
X114575516Y-104643485D01*
X114602453Y-104643485D01*
X114642859Y-104656954D01*
X114669796Y-104683891D01*
X114683265Y-104724297D01*
X114683265Y-104751235D01*
X114669796Y-104791641D01*
X114629390Y-104858984D01*
X114562047Y-104926328D01*
X114494703Y-104966734D01*
X114454297Y-104980203D01*
X114427360Y-104980203D01*
X114386954Y-104966734D01*
X114211861Y-104737766D02*
X114184923Y-104737766D01*
X114144517Y-104724297D01*
X114077174Y-104656954D01*
X114063705Y-104616548D01*
X114063705Y-104589610D01*
X114077174Y-104549204D01*
X114104111Y-104522267D01*
X114157986Y-104495329D01*
X114481235Y-104495329D01*
X114306142Y-104320236D01*
D13*
X112815761Y-105162986D02*
X112613730Y-104960956D01*
X113068299Y-104708417D02*
X112714746Y-105061971D01*
X112344356Y-104691582D02*
X112411700Y-104758925D01*
X112462208Y-104775761D01*
X112495879Y-104775761D01*
X112580059Y-104758925D01*
X112664238Y-104708417D01*
X112798925Y-104573730D01*
X112815761Y-104523223D01*
X112815761Y-104489551D01*
X112798925Y-104439043D01*
X112731582Y-104371700D01*
X112681074Y-104354864D01*
X112647402Y-104354864D01*
X112596895Y-104371700D01*
X112512715Y-104455879D01*
X112495879Y-104506387D01*
X112495879Y-104540059D01*
X112512715Y-104590566D01*
X112580059Y-104657910D01*
X112630566Y-104674746D01*
X112664238Y-104674746D01*
X112714746Y-104657910D01*
D12*
X118292790Y-110159250D02*
X118306259Y-110199656D01*
X118346665Y-110240062D01*
X118400540Y-110267000D01*
X118454415Y-110267000D01*
X118494821Y-110253531D01*
X118562164Y-110213125D01*
X118602570Y-110172719D01*
X118642977Y-110105375D01*
X118656445Y-110064969D01*
X118656445Y-110011094D01*
X118629508Y-109957220D01*
X118602570Y-109930282D01*
X118548696Y-109903345D01*
X118521758Y-109903345D01*
X118427477Y-109997626D01*
X118481352Y-110051500D01*
X118427477Y-109755189D02*
X118144635Y-110038032D01*
X118265853Y-109593565D01*
X117983010Y-109876407D01*
X118131166Y-109458878D02*
X117848323Y-109741720D01*
X117780980Y-109674377D01*
X117754042Y-109620502D01*
X117754042Y-109566627D01*
X117767511Y-109526221D01*
X117807917Y-109458878D01*
X117848323Y-109418472D01*
X117915667Y-109378065D01*
X117956073Y-109364597D01*
X118009948Y-109364597D01*
X118063822Y-109391534D01*
X118131166Y-109458878D01*
D10*
%TO.C,C107*%
X81506666Y-106850000D02*
X81473333Y-106883333D01*
X81373333Y-106916666D01*
X81306666Y-106916666D01*
X81206666Y-106883333D01*
X81140000Y-106816666D01*
X81106666Y-106750000D01*
X81073333Y-106616666D01*
X81073333Y-106516666D01*
X81106666Y-106383333D01*
X81140000Y-106316666D01*
X81206666Y-106250000D01*
X81306666Y-106216666D01*
X81373333Y-106216666D01*
X81473333Y-106250000D01*
X81506666Y-106283333D01*
X82173333Y-106916666D02*
X81773333Y-106916666D01*
X81973333Y-106916666D02*
X81973333Y-106216666D01*
X81906666Y-106316666D01*
X81840000Y-106383333D01*
X81773333Y-106416666D01*
X82606666Y-106216666D02*
X82673333Y-106216666D01*
X82740000Y-106250000D01*
X82773333Y-106283333D01*
X82806666Y-106350000D01*
X82840000Y-106483333D01*
X82840000Y-106650000D01*
X82806666Y-106783333D01*
X82773333Y-106850000D01*
X82740000Y-106883333D01*
X82673333Y-106916666D01*
X82606666Y-106916666D01*
X82540000Y-106883333D01*
X82506666Y-106850000D01*
X82473333Y-106783333D01*
X82440000Y-106650000D01*
X82440000Y-106483333D01*
X82473333Y-106350000D01*
X82506666Y-106283333D01*
X82540000Y-106250000D01*
X82606666Y-106216666D01*
X83073333Y-106216666D02*
X83540000Y-106216666D01*
X83240000Y-106916666D01*
%TO.C,C211*%
X96060000Y-85103333D02*
X96093333Y-85136666D01*
X96126666Y-85236666D01*
X96126666Y-85303333D01*
X96093333Y-85403333D01*
X96026666Y-85470000D01*
X95960000Y-85503333D01*
X95826666Y-85536666D01*
X95726666Y-85536666D01*
X95593333Y-85503333D01*
X95526666Y-85470000D01*
X95460000Y-85403333D01*
X95426666Y-85303333D01*
X95426666Y-85236666D01*
X95460000Y-85136666D01*
X95493333Y-85103333D01*
X95493333Y-84836666D02*
X95460000Y-84803333D01*
X95426666Y-84736666D01*
X95426666Y-84570000D01*
X95460000Y-84503333D01*
X95493333Y-84470000D01*
X95560000Y-84436666D01*
X95626666Y-84436666D01*
X95726666Y-84470000D01*
X96126666Y-84870000D01*
X96126666Y-84436666D01*
X96126666Y-83770000D02*
X96126666Y-84170000D01*
X96126666Y-83970000D02*
X95426666Y-83970000D01*
X95526666Y-84036666D01*
X95593333Y-84103333D01*
X95626666Y-84170000D01*
X96126666Y-83103333D02*
X96126666Y-83503333D01*
X96126666Y-83303333D02*
X95426666Y-83303333D01*
X95526666Y-83370000D01*
X95593333Y-83436666D01*
X95626666Y-83503333D01*
%TO.C,Q101*%
X98963333Y-66943333D02*
X98930000Y-67010000D01*
X98863333Y-67076666D01*
X98763333Y-67176666D01*
X98730000Y-67243333D01*
X98730000Y-67310000D01*
X98896666Y-67276666D02*
X98863333Y-67343333D01*
X98796666Y-67410000D01*
X98663333Y-67443333D01*
X98430000Y-67443333D01*
X98296666Y-67410000D01*
X98230000Y-67343333D01*
X98196666Y-67276666D01*
X98196666Y-67143333D01*
X98230000Y-67076666D01*
X98296666Y-67010000D01*
X98430000Y-66976666D01*
X98663333Y-66976666D01*
X98796666Y-67010000D01*
X98863333Y-67076666D01*
X98896666Y-67143333D01*
X98896666Y-67276666D01*
X98896666Y-66310000D02*
X98896666Y-66710000D01*
X98896666Y-66510000D02*
X98196666Y-66510000D01*
X98296666Y-66576666D01*
X98363333Y-66643333D01*
X98396666Y-66710000D01*
X98196666Y-65876666D02*
X98196666Y-65810000D01*
X98230000Y-65743333D01*
X98263333Y-65710000D01*
X98330000Y-65676666D01*
X98463333Y-65643333D01*
X98630000Y-65643333D01*
X98763333Y-65676666D01*
X98830000Y-65710000D01*
X98863333Y-65743333D01*
X98896666Y-65810000D01*
X98896666Y-65876666D01*
X98863333Y-65943333D01*
X98830000Y-65976666D01*
X98763333Y-66010000D01*
X98630000Y-66043333D01*
X98463333Y-66043333D01*
X98330000Y-66010000D01*
X98263333Y-65976666D01*
X98230000Y-65943333D01*
X98196666Y-65876666D01*
X98896666Y-64976666D02*
X98896666Y-65376666D01*
X98896666Y-65176666D02*
X98196666Y-65176666D01*
X98296666Y-65243333D01*
X98363333Y-65310000D01*
X98396666Y-65376666D01*
D12*
%TO.C,W301*%
X122997142Y-98340952D02*
X123092380Y-98740952D01*
X123168571Y-98455238D01*
X123244761Y-98740952D01*
X123340000Y-98340952D01*
X123454285Y-98340952D02*
X123701904Y-98340952D01*
X123568571Y-98493333D01*
X123625714Y-98493333D01*
X123663809Y-98512380D01*
X123682857Y-98531428D01*
X123701904Y-98569523D01*
X123701904Y-98664761D01*
X123682857Y-98702857D01*
X123663809Y-98721904D01*
X123625714Y-98740952D01*
X123511428Y-98740952D01*
X123473333Y-98721904D01*
X123454285Y-98702857D01*
X123949523Y-98340952D02*
X123987619Y-98340952D01*
X124025714Y-98360000D01*
X124044761Y-98379047D01*
X124063809Y-98417142D01*
X124082857Y-98493333D01*
X124082857Y-98588571D01*
X124063809Y-98664761D01*
X124044761Y-98702857D01*
X124025714Y-98721904D01*
X123987619Y-98740952D01*
X123949523Y-98740952D01*
X123911428Y-98721904D01*
X123892380Y-98702857D01*
X123873333Y-98664761D01*
X123854285Y-98588571D01*
X123854285Y-98493333D01*
X123873333Y-98417142D01*
X123892380Y-98379047D01*
X123911428Y-98360000D01*
X123949523Y-98340952D01*
X124463809Y-98740952D02*
X124235238Y-98740952D01*
X124349523Y-98740952D02*
X124349523Y-98340952D01*
X124311428Y-98398095D01*
X124273333Y-98436190D01*
X124235238Y-98455238D01*
D13*
X121329047Y-97116190D02*
X121614761Y-97116190D01*
X121471904Y-97616190D02*
X121471904Y-97116190D01*
X122019523Y-97116190D02*
X121781428Y-97116190D01*
X121757619Y-97354285D01*
X121781428Y-97330476D01*
X121829047Y-97306666D01*
X121948095Y-97306666D01*
X121995714Y-97330476D01*
X122019523Y-97354285D01*
X122043333Y-97401904D01*
X122043333Y-97520952D01*
X122019523Y-97568571D01*
X121995714Y-97592380D01*
X121948095Y-97616190D01*
X121829047Y-97616190D01*
X121781428Y-97592380D01*
X121757619Y-97568571D01*
D12*
X129321638Y-100199700D02*
X129283542Y-100180652D01*
X129226400Y-100180652D01*
X129169257Y-100199700D01*
X129131161Y-100237795D01*
X129112114Y-100275890D01*
X129093066Y-100352080D01*
X129093066Y-100409223D01*
X129112114Y-100485414D01*
X129131161Y-100523509D01*
X129169257Y-100561604D01*
X129226400Y-100580652D01*
X129264495Y-100580652D01*
X129321638Y-100561604D01*
X129340685Y-100542557D01*
X129340685Y-100409223D01*
X129264495Y-100409223D01*
X129512114Y-100580652D02*
X129512114Y-100180652D01*
X129740685Y-100580652D01*
X129740685Y-100180652D01*
X129931161Y-100580652D02*
X129931161Y-100180652D01*
X130026400Y-100180652D01*
X130083542Y-100199700D01*
X130121638Y-100237795D01*
X130140685Y-100275890D01*
X130159733Y-100352080D01*
X130159733Y-100409223D01*
X130140685Y-100485414D01*
X130121638Y-100523509D01*
X130083542Y-100561604D01*
X130026400Y-100580652D01*
X129931161Y-100580652D01*
D10*
%TO.C,D104*%
X73191666Y-115483333D02*
X72491666Y-115483333D01*
X72491666Y-115316666D01*
X72525000Y-115216666D01*
X72591666Y-115150000D01*
X72658333Y-115116666D01*
X72791666Y-115083333D01*
X72891666Y-115083333D01*
X73025000Y-115116666D01*
X73091666Y-115150000D01*
X73158333Y-115216666D01*
X73191666Y-115316666D01*
X73191666Y-115483333D01*
X73191666Y-114416666D02*
X73191666Y-114816666D01*
X73191666Y-114616666D02*
X72491666Y-114616666D01*
X72591666Y-114683333D01*
X72658333Y-114750000D01*
X72691666Y-114816666D01*
X72491666Y-113983333D02*
X72491666Y-113916666D01*
X72525000Y-113850000D01*
X72558333Y-113816666D01*
X72625000Y-113783333D01*
X72758333Y-113750000D01*
X72925000Y-113750000D01*
X73058333Y-113783333D01*
X73125000Y-113816666D01*
X73158333Y-113850000D01*
X73191666Y-113916666D01*
X73191666Y-113983333D01*
X73158333Y-114050000D01*
X73125000Y-114083333D01*
X73058333Y-114116666D01*
X72925000Y-114150000D01*
X72758333Y-114150000D01*
X72625000Y-114116666D01*
X72558333Y-114083333D01*
X72525000Y-114050000D01*
X72491666Y-113983333D01*
X72725000Y-113150000D02*
X73191666Y-113150000D01*
X72458333Y-113316666D02*
X72958333Y-113483333D01*
X72958333Y-113050000D01*
%TO.C,R105*%
X73551666Y-109636666D02*
X73318333Y-109303333D01*
X73151666Y-109636666D02*
X73151666Y-108936666D01*
X73418333Y-108936666D01*
X73485000Y-108970000D01*
X73518333Y-109003333D01*
X73551666Y-109070000D01*
X73551666Y-109170000D01*
X73518333Y-109236666D01*
X73485000Y-109270000D01*
X73418333Y-109303333D01*
X73151666Y-109303333D01*
X74218333Y-109636666D02*
X73818333Y-109636666D01*
X74018333Y-109636666D02*
X74018333Y-108936666D01*
X73951666Y-109036666D01*
X73885000Y-109103333D01*
X73818333Y-109136666D01*
X74651666Y-108936666D02*
X74718333Y-108936666D01*
X74785000Y-108970000D01*
X74818333Y-109003333D01*
X74851666Y-109070000D01*
X74885000Y-109203333D01*
X74885000Y-109370000D01*
X74851666Y-109503333D01*
X74818333Y-109570000D01*
X74785000Y-109603333D01*
X74718333Y-109636666D01*
X74651666Y-109636666D01*
X74585000Y-109603333D01*
X74551666Y-109570000D01*
X74518333Y-109503333D01*
X74485000Y-109370000D01*
X74485000Y-109203333D01*
X74518333Y-109070000D01*
X74551666Y-109003333D01*
X74585000Y-108970000D01*
X74651666Y-108936666D01*
X75518333Y-108936666D02*
X75185000Y-108936666D01*
X75151666Y-109270000D01*
X75185000Y-109236666D01*
X75251666Y-109203333D01*
X75418333Y-109203333D01*
X75485000Y-109236666D01*
X75518333Y-109270000D01*
X75551666Y-109336666D01*
X75551666Y-109503333D01*
X75518333Y-109570000D01*
X75485000Y-109603333D01*
X75418333Y-109636666D01*
X75251666Y-109636666D01*
X75185000Y-109603333D01*
X75151666Y-109570000D01*
%TO.C,C205*%
X84790000Y-78553333D02*
X84823333Y-78586666D01*
X84856666Y-78686666D01*
X84856666Y-78753333D01*
X84823333Y-78853333D01*
X84756666Y-78920000D01*
X84690000Y-78953333D01*
X84556666Y-78986666D01*
X84456666Y-78986666D01*
X84323333Y-78953333D01*
X84256666Y-78920000D01*
X84190000Y-78853333D01*
X84156666Y-78753333D01*
X84156666Y-78686666D01*
X84190000Y-78586666D01*
X84223333Y-78553333D01*
X84223333Y-78286666D02*
X84190000Y-78253333D01*
X84156666Y-78186666D01*
X84156666Y-78020000D01*
X84190000Y-77953333D01*
X84223333Y-77920000D01*
X84290000Y-77886666D01*
X84356666Y-77886666D01*
X84456666Y-77920000D01*
X84856666Y-78320000D01*
X84856666Y-77886666D01*
X84156666Y-77453333D02*
X84156666Y-77386666D01*
X84190000Y-77320000D01*
X84223333Y-77286666D01*
X84290000Y-77253333D01*
X84423333Y-77220000D01*
X84590000Y-77220000D01*
X84723333Y-77253333D01*
X84790000Y-77286666D01*
X84823333Y-77320000D01*
X84856666Y-77386666D01*
X84856666Y-77453333D01*
X84823333Y-77520000D01*
X84790000Y-77553333D01*
X84723333Y-77586666D01*
X84590000Y-77620000D01*
X84423333Y-77620000D01*
X84290000Y-77586666D01*
X84223333Y-77553333D01*
X84190000Y-77520000D01*
X84156666Y-77453333D01*
X84156666Y-76586666D02*
X84156666Y-76920000D01*
X84490000Y-76953333D01*
X84456666Y-76920000D01*
X84423333Y-76853333D01*
X84423333Y-76686666D01*
X84456666Y-76620000D01*
X84490000Y-76586666D01*
X84556666Y-76553333D01*
X84723333Y-76553333D01*
X84790000Y-76586666D01*
X84823333Y-76620000D01*
X84856666Y-76686666D01*
X84856666Y-76853333D01*
X84823333Y-76920000D01*
X84790000Y-76953333D01*
%TO.C,X101*%
X60126666Y-69926666D02*
X60593333Y-70626666D01*
X60593333Y-69926666D02*
X60126666Y-70626666D01*
X61226666Y-70626666D02*
X60826666Y-70626666D01*
X61026666Y-70626666D02*
X61026666Y-69926666D01*
X60960000Y-70026666D01*
X60893333Y-70093333D01*
X60826666Y-70126666D01*
X61660000Y-69926666D02*
X61726666Y-69926666D01*
X61793333Y-69960000D01*
X61826666Y-69993333D01*
X61860000Y-70060000D01*
X61893333Y-70193333D01*
X61893333Y-70360000D01*
X61860000Y-70493333D01*
X61826666Y-70560000D01*
X61793333Y-70593333D01*
X61726666Y-70626666D01*
X61660000Y-70626666D01*
X61593333Y-70593333D01*
X61560000Y-70560000D01*
X61526666Y-70493333D01*
X61493333Y-70360000D01*
X61493333Y-70193333D01*
X61526666Y-70060000D01*
X61560000Y-69993333D01*
X61593333Y-69960000D01*
X61660000Y-69926666D01*
X62560000Y-70626666D02*
X62160000Y-70626666D01*
X62360000Y-70626666D02*
X62360000Y-69926666D01*
X62293333Y-70026666D01*
X62226666Y-70093333D01*
X62160000Y-70126666D01*
%TO.C,C106*%
X89235000Y-102463333D02*
X89268333Y-102496666D01*
X89301666Y-102596666D01*
X89301666Y-102663333D01*
X89268333Y-102763333D01*
X89201666Y-102830000D01*
X89135000Y-102863333D01*
X89001666Y-102896666D01*
X88901666Y-102896666D01*
X88768333Y-102863333D01*
X88701666Y-102830000D01*
X88635000Y-102763333D01*
X88601666Y-102663333D01*
X88601666Y-102596666D01*
X88635000Y-102496666D01*
X88668333Y-102463333D01*
X89301666Y-101796666D02*
X89301666Y-102196666D01*
X89301666Y-101996666D02*
X88601666Y-101996666D01*
X88701666Y-102063333D01*
X88768333Y-102130000D01*
X88801666Y-102196666D01*
X88601666Y-101363333D02*
X88601666Y-101296666D01*
X88635000Y-101230000D01*
X88668333Y-101196666D01*
X88735000Y-101163333D01*
X88868333Y-101130000D01*
X89035000Y-101130000D01*
X89168333Y-101163333D01*
X89235000Y-101196666D01*
X89268333Y-101230000D01*
X89301666Y-101296666D01*
X89301666Y-101363333D01*
X89268333Y-101430000D01*
X89235000Y-101463333D01*
X89168333Y-101496666D01*
X89035000Y-101530000D01*
X88868333Y-101530000D01*
X88735000Y-101496666D01*
X88668333Y-101463333D01*
X88635000Y-101430000D01*
X88601666Y-101363333D01*
X88601666Y-100530000D02*
X88601666Y-100663333D01*
X88635000Y-100730000D01*
X88668333Y-100763333D01*
X88768333Y-100830000D01*
X88901666Y-100863333D01*
X89168333Y-100863333D01*
X89235000Y-100830000D01*
X89268333Y-100796666D01*
X89301666Y-100730000D01*
X89301666Y-100596666D01*
X89268333Y-100530000D01*
X89235000Y-100496666D01*
X89168333Y-100463333D01*
X89001666Y-100463333D01*
X88935000Y-100496666D01*
X88901666Y-100530000D01*
X88868333Y-100596666D01*
X88868333Y-100730000D01*
X88901666Y-100796666D01*
X88935000Y-100830000D01*
X89001666Y-100863333D01*
%TO.C,R107*%
X93186666Y-113176666D02*
X92953333Y-112843333D01*
X92786666Y-113176666D02*
X92786666Y-112476666D01*
X93053333Y-112476666D01*
X93120000Y-112510000D01*
X93153333Y-112543333D01*
X93186666Y-112610000D01*
X93186666Y-112710000D01*
X93153333Y-112776666D01*
X93120000Y-112810000D01*
X93053333Y-112843333D01*
X92786666Y-112843333D01*
X93853333Y-113176666D02*
X93453333Y-113176666D01*
X93653333Y-113176666D02*
X93653333Y-112476666D01*
X93586666Y-112576666D01*
X93520000Y-112643333D01*
X93453333Y-112676666D01*
X94286666Y-112476666D02*
X94353333Y-112476666D01*
X94420000Y-112510000D01*
X94453333Y-112543333D01*
X94486666Y-112610000D01*
X94520000Y-112743333D01*
X94520000Y-112910000D01*
X94486666Y-113043333D01*
X94453333Y-113110000D01*
X94420000Y-113143333D01*
X94353333Y-113176666D01*
X94286666Y-113176666D01*
X94220000Y-113143333D01*
X94186666Y-113110000D01*
X94153333Y-113043333D01*
X94120000Y-112910000D01*
X94120000Y-112743333D01*
X94153333Y-112610000D01*
X94186666Y-112543333D01*
X94220000Y-112510000D01*
X94286666Y-112476666D01*
X94753333Y-112476666D02*
X95220000Y-112476666D01*
X94920000Y-113176666D01*
%TO.C,C215*%
X100750000Y-78353333D02*
X100783333Y-78386666D01*
X100816666Y-78486666D01*
X100816666Y-78553333D01*
X100783333Y-78653333D01*
X100716666Y-78720000D01*
X100650000Y-78753333D01*
X100516666Y-78786666D01*
X100416666Y-78786666D01*
X100283333Y-78753333D01*
X100216666Y-78720000D01*
X100150000Y-78653333D01*
X100116666Y-78553333D01*
X100116666Y-78486666D01*
X100150000Y-78386666D01*
X100183333Y-78353333D01*
X100183333Y-78086666D02*
X100150000Y-78053333D01*
X100116666Y-77986666D01*
X100116666Y-77820000D01*
X100150000Y-77753333D01*
X100183333Y-77720000D01*
X100250000Y-77686666D01*
X100316666Y-77686666D01*
X100416666Y-77720000D01*
X100816666Y-78120000D01*
X100816666Y-77686666D01*
X100816666Y-77020000D02*
X100816666Y-77420000D01*
X100816666Y-77220000D02*
X100116666Y-77220000D01*
X100216666Y-77286666D01*
X100283333Y-77353333D01*
X100316666Y-77420000D01*
X100116666Y-76386666D02*
X100116666Y-76720000D01*
X100450000Y-76753333D01*
X100416666Y-76720000D01*
X100383333Y-76653333D01*
X100383333Y-76486666D01*
X100416666Y-76420000D01*
X100450000Y-76386666D01*
X100516666Y-76353333D01*
X100683333Y-76353333D01*
X100750000Y-76386666D01*
X100783333Y-76420000D01*
X100816666Y-76486666D01*
X100816666Y-76653333D01*
X100783333Y-76720000D01*
X100750000Y-76753333D01*
%TO.C,C202*%
X63656666Y-89860000D02*
X63623333Y-89893333D01*
X63523333Y-89926666D01*
X63456666Y-89926666D01*
X63356666Y-89893333D01*
X63290000Y-89826666D01*
X63256666Y-89760000D01*
X63223333Y-89626666D01*
X63223333Y-89526666D01*
X63256666Y-89393333D01*
X63290000Y-89326666D01*
X63356666Y-89260000D01*
X63456666Y-89226666D01*
X63523333Y-89226666D01*
X63623333Y-89260000D01*
X63656666Y-89293333D01*
X63923333Y-89293333D02*
X63956666Y-89260000D01*
X64023333Y-89226666D01*
X64190000Y-89226666D01*
X64256666Y-89260000D01*
X64290000Y-89293333D01*
X64323333Y-89360000D01*
X64323333Y-89426666D01*
X64290000Y-89526666D01*
X63890000Y-89926666D01*
X64323333Y-89926666D01*
X64756666Y-89226666D02*
X64823333Y-89226666D01*
X64890000Y-89260000D01*
X64923333Y-89293333D01*
X64956666Y-89360000D01*
X64990000Y-89493333D01*
X64990000Y-89660000D01*
X64956666Y-89793333D01*
X64923333Y-89860000D01*
X64890000Y-89893333D01*
X64823333Y-89926666D01*
X64756666Y-89926666D01*
X64690000Y-89893333D01*
X64656666Y-89860000D01*
X64623333Y-89793333D01*
X64590000Y-89660000D01*
X64590000Y-89493333D01*
X64623333Y-89360000D01*
X64656666Y-89293333D01*
X64690000Y-89260000D01*
X64756666Y-89226666D01*
X65256666Y-89293333D02*
X65290000Y-89260000D01*
X65356666Y-89226666D01*
X65523333Y-89226666D01*
X65590000Y-89260000D01*
X65623333Y-89293333D01*
X65656666Y-89360000D01*
X65656666Y-89426666D01*
X65623333Y-89526666D01*
X65223333Y-89926666D01*
X65656666Y-89926666D01*
%TO.C,C207*%
X84070000Y-74923333D02*
X84103333Y-74956666D01*
X84136666Y-75056666D01*
X84136666Y-75123333D01*
X84103333Y-75223333D01*
X84036666Y-75290000D01*
X83970000Y-75323333D01*
X83836666Y-75356666D01*
X83736666Y-75356666D01*
X83603333Y-75323333D01*
X83536666Y-75290000D01*
X83470000Y-75223333D01*
X83436666Y-75123333D01*
X83436666Y-75056666D01*
X83470000Y-74956666D01*
X83503333Y-74923333D01*
X83503333Y-74656666D02*
X83470000Y-74623333D01*
X83436666Y-74556666D01*
X83436666Y-74390000D01*
X83470000Y-74323333D01*
X83503333Y-74290000D01*
X83570000Y-74256666D01*
X83636666Y-74256666D01*
X83736666Y-74290000D01*
X84136666Y-74690000D01*
X84136666Y-74256666D01*
X83436666Y-73823333D02*
X83436666Y-73756666D01*
X83470000Y-73690000D01*
X83503333Y-73656666D01*
X83570000Y-73623333D01*
X83703333Y-73590000D01*
X83870000Y-73590000D01*
X84003333Y-73623333D01*
X84070000Y-73656666D01*
X84103333Y-73690000D01*
X84136666Y-73756666D01*
X84136666Y-73823333D01*
X84103333Y-73890000D01*
X84070000Y-73923333D01*
X84003333Y-73956666D01*
X83870000Y-73990000D01*
X83703333Y-73990000D01*
X83570000Y-73956666D01*
X83503333Y-73923333D01*
X83470000Y-73890000D01*
X83436666Y-73823333D01*
X83436666Y-73356666D02*
X83436666Y-72890000D01*
X84136666Y-73190000D01*
%TO.C,C209*%
X72406666Y-101320000D02*
X72373333Y-101353333D01*
X72273333Y-101386666D01*
X72206666Y-101386666D01*
X72106666Y-101353333D01*
X72040000Y-101286666D01*
X72006666Y-101220000D01*
X71973333Y-101086666D01*
X71973333Y-100986666D01*
X72006666Y-100853333D01*
X72040000Y-100786666D01*
X72106666Y-100720000D01*
X72206666Y-100686666D01*
X72273333Y-100686666D01*
X72373333Y-100720000D01*
X72406666Y-100753333D01*
X72673333Y-100753333D02*
X72706666Y-100720000D01*
X72773333Y-100686666D01*
X72940000Y-100686666D01*
X73006666Y-100720000D01*
X73040000Y-100753333D01*
X73073333Y-100820000D01*
X73073333Y-100886666D01*
X73040000Y-100986666D01*
X72640000Y-101386666D01*
X73073333Y-101386666D01*
X73506666Y-100686666D02*
X73573333Y-100686666D01*
X73640000Y-100720000D01*
X73673333Y-100753333D01*
X73706666Y-100820000D01*
X73740000Y-100953333D01*
X73740000Y-101120000D01*
X73706666Y-101253333D01*
X73673333Y-101320000D01*
X73640000Y-101353333D01*
X73573333Y-101386666D01*
X73506666Y-101386666D01*
X73440000Y-101353333D01*
X73406666Y-101320000D01*
X73373333Y-101253333D01*
X73340000Y-101120000D01*
X73340000Y-100953333D01*
X73373333Y-100820000D01*
X73406666Y-100753333D01*
X73440000Y-100720000D01*
X73506666Y-100686666D01*
X74073333Y-101386666D02*
X74206666Y-101386666D01*
X74273333Y-101353333D01*
X74306666Y-101320000D01*
X74373333Y-101220000D01*
X74406666Y-101086666D01*
X74406666Y-100820000D01*
X74373333Y-100753333D01*
X74340000Y-100720000D01*
X74273333Y-100686666D01*
X74140000Y-100686666D01*
X74073333Y-100720000D01*
X74040000Y-100753333D01*
X74006666Y-100820000D01*
X74006666Y-100986666D01*
X74040000Y-101053333D01*
X74073333Y-101086666D01*
X74140000Y-101120000D01*
X74273333Y-101120000D01*
X74340000Y-101086666D01*
X74373333Y-101053333D01*
X74406666Y-100986666D01*
%TO.C,U105*%
X55120000Y-61346666D02*
X55120000Y-61913333D01*
X55153333Y-61980000D01*
X55186666Y-62013333D01*
X55253333Y-62046666D01*
X55386666Y-62046666D01*
X55453333Y-62013333D01*
X55486666Y-61980000D01*
X55520000Y-61913333D01*
X55520000Y-61346666D01*
X56220000Y-62046666D02*
X55820000Y-62046666D01*
X56020000Y-62046666D02*
X56020000Y-61346666D01*
X55953333Y-61446666D01*
X55886666Y-61513333D01*
X55820000Y-61546666D01*
X56653333Y-61346666D02*
X56720000Y-61346666D01*
X56786666Y-61380000D01*
X56820000Y-61413333D01*
X56853333Y-61480000D01*
X56886666Y-61613333D01*
X56886666Y-61780000D01*
X56853333Y-61913333D01*
X56820000Y-61980000D01*
X56786666Y-62013333D01*
X56720000Y-62046666D01*
X56653333Y-62046666D01*
X56586666Y-62013333D01*
X56553333Y-61980000D01*
X56520000Y-61913333D01*
X56486666Y-61780000D01*
X56486666Y-61613333D01*
X56520000Y-61480000D01*
X56553333Y-61413333D01*
X56586666Y-61380000D01*
X56653333Y-61346666D01*
X57520000Y-61346666D02*
X57186666Y-61346666D01*
X57153333Y-61680000D01*
X57186666Y-61646666D01*
X57253333Y-61613333D01*
X57420000Y-61613333D01*
X57486666Y-61646666D01*
X57520000Y-61680000D01*
X57553333Y-61746666D01*
X57553333Y-61913333D01*
X57520000Y-61980000D01*
X57486666Y-62013333D01*
X57420000Y-62046666D01*
X57253333Y-62046666D01*
X57186666Y-62013333D01*
X57153333Y-61980000D01*
%TO.C,D101*%
X99516666Y-69566666D02*
X99516666Y-68866666D01*
X99683333Y-68866666D01*
X99783333Y-68900000D01*
X99850000Y-68966666D01*
X99883333Y-69033333D01*
X99916666Y-69166666D01*
X99916666Y-69266666D01*
X99883333Y-69400000D01*
X99850000Y-69466666D01*
X99783333Y-69533333D01*
X99683333Y-69566666D01*
X99516666Y-69566666D01*
X100583333Y-69566666D02*
X100183333Y-69566666D01*
X100383333Y-69566666D02*
X100383333Y-68866666D01*
X100316666Y-68966666D01*
X100250000Y-69033333D01*
X100183333Y-69066666D01*
X101016666Y-68866666D02*
X101083333Y-68866666D01*
X101150000Y-68900000D01*
X101183333Y-68933333D01*
X101216666Y-69000000D01*
X101250000Y-69133333D01*
X101250000Y-69300000D01*
X101216666Y-69433333D01*
X101183333Y-69500000D01*
X101150000Y-69533333D01*
X101083333Y-69566666D01*
X101016666Y-69566666D01*
X100950000Y-69533333D01*
X100916666Y-69500000D01*
X100883333Y-69433333D01*
X100850000Y-69300000D01*
X100850000Y-69133333D01*
X100883333Y-69000000D01*
X100916666Y-68933333D01*
X100950000Y-68900000D01*
X101016666Y-68866666D01*
X101916666Y-69566666D02*
X101516666Y-69566666D01*
X101716666Y-69566666D02*
X101716666Y-68866666D01*
X101650000Y-68966666D01*
X101583333Y-69033333D01*
X101516666Y-69066666D01*
%TO.C,R205*%
X74836666Y-88146666D02*
X74603333Y-87813333D01*
X74436666Y-88146666D02*
X74436666Y-87446666D01*
X74703333Y-87446666D01*
X74770000Y-87480000D01*
X74803333Y-87513333D01*
X74836666Y-87580000D01*
X74836666Y-87680000D01*
X74803333Y-87746666D01*
X74770000Y-87780000D01*
X74703333Y-87813333D01*
X74436666Y-87813333D01*
X75103333Y-87513333D02*
X75136666Y-87480000D01*
X75203333Y-87446666D01*
X75370000Y-87446666D01*
X75436666Y-87480000D01*
X75470000Y-87513333D01*
X75503333Y-87580000D01*
X75503333Y-87646666D01*
X75470000Y-87746666D01*
X75070000Y-88146666D01*
X75503333Y-88146666D01*
X75936666Y-87446666D02*
X76003333Y-87446666D01*
X76070000Y-87480000D01*
X76103333Y-87513333D01*
X76136666Y-87580000D01*
X76170000Y-87713333D01*
X76170000Y-87880000D01*
X76136666Y-88013333D01*
X76103333Y-88080000D01*
X76070000Y-88113333D01*
X76003333Y-88146666D01*
X75936666Y-88146666D01*
X75870000Y-88113333D01*
X75836666Y-88080000D01*
X75803333Y-88013333D01*
X75770000Y-87880000D01*
X75770000Y-87713333D01*
X75803333Y-87580000D01*
X75836666Y-87513333D01*
X75870000Y-87480000D01*
X75936666Y-87446666D01*
X76803333Y-87446666D02*
X76470000Y-87446666D01*
X76436666Y-87780000D01*
X76470000Y-87746666D01*
X76536666Y-87713333D01*
X76703333Y-87713333D01*
X76770000Y-87746666D01*
X76803333Y-87780000D01*
X76836666Y-87846666D01*
X76836666Y-88013333D01*
X76803333Y-88080000D01*
X76770000Y-88113333D01*
X76703333Y-88146666D01*
X76536666Y-88146666D01*
X76470000Y-88113333D01*
X76436666Y-88080000D01*
%TO.C,J108*%
X99282380Y-112755714D02*
X99996666Y-112755714D01*
X100139523Y-112803333D01*
X100234761Y-112898571D01*
X100282380Y-113041428D01*
X100282380Y-113136666D01*
X100282380Y-111755714D02*
X100282380Y-112327142D01*
X100282380Y-112041428D02*
X99282380Y-112041428D01*
X99425238Y-112136666D01*
X99520476Y-112231904D01*
X99568095Y-112327142D01*
X99282380Y-111136666D02*
X99282380Y-111041428D01*
X99330000Y-110946190D01*
X99377619Y-110898571D01*
X99472857Y-110850952D01*
X99663333Y-110803333D01*
X99901428Y-110803333D01*
X100091904Y-110850952D01*
X100187142Y-110898571D01*
X100234761Y-110946190D01*
X100282380Y-111041428D01*
X100282380Y-111136666D01*
X100234761Y-111231904D01*
X100187142Y-111279523D01*
X100091904Y-111327142D01*
X99901428Y-111374761D01*
X99663333Y-111374761D01*
X99472857Y-111327142D01*
X99377619Y-111279523D01*
X99330000Y-111231904D01*
X99282380Y-111136666D01*
X99710952Y-110231904D02*
X99663333Y-110327142D01*
X99615714Y-110374761D01*
X99520476Y-110422380D01*
X99472857Y-110422380D01*
X99377619Y-110374761D01*
X99330000Y-110327142D01*
X99282380Y-110231904D01*
X99282380Y-110041428D01*
X99330000Y-109946190D01*
X99377619Y-109898571D01*
X99472857Y-109850952D01*
X99520476Y-109850952D01*
X99615714Y-109898571D01*
X99663333Y-109946190D01*
X99710952Y-110041428D01*
X99710952Y-110231904D01*
X99758571Y-110327142D01*
X99806190Y-110374761D01*
X99901428Y-110422380D01*
X100091904Y-110422380D01*
X100187142Y-110374761D01*
X100234761Y-110327142D01*
X100282380Y-110231904D01*
X100282380Y-110041428D01*
X100234761Y-109946190D01*
X100187142Y-109898571D01*
X100091904Y-109850952D01*
X99901428Y-109850952D01*
X99806190Y-109898571D01*
X99758571Y-109946190D01*
X99710952Y-110041428D01*
%TO.C,J105*%
X77060000Y-64776666D02*
X77060000Y-65276666D01*
X77026666Y-65376666D01*
X76960000Y-65443333D01*
X76860000Y-65476666D01*
X76793333Y-65476666D01*
X77760000Y-65476666D02*
X77360000Y-65476666D01*
X77560000Y-65476666D02*
X77560000Y-64776666D01*
X77493333Y-64876666D01*
X77426666Y-64943333D01*
X77360000Y-64976666D01*
X78193333Y-64776666D02*
X78260000Y-64776666D01*
X78326666Y-64810000D01*
X78360000Y-64843333D01*
X78393333Y-64910000D01*
X78426666Y-65043333D01*
X78426666Y-65210000D01*
X78393333Y-65343333D01*
X78360000Y-65410000D01*
X78326666Y-65443333D01*
X78260000Y-65476666D01*
X78193333Y-65476666D01*
X78126666Y-65443333D01*
X78093333Y-65410000D01*
X78060000Y-65343333D01*
X78026666Y-65210000D01*
X78026666Y-65043333D01*
X78060000Y-64910000D01*
X78093333Y-64843333D01*
X78126666Y-64810000D01*
X78193333Y-64776666D01*
X79060000Y-64776666D02*
X78726666Y-64776666D01*
X78693333Y-65110000D01*
X78726666Y-65076666D01*
X78793333Y-65043333D01*
X78960000Y-65043333D01*
X79026666Y-65076666D01*
X79060000Y-65110000D01*
X79093333Y-65176666D01*
X79093333Y-65343333D01*
X79060000Y-65410000D01*
X79026666Y-65443333D01*
X78960000Y-65476666D01*
X78793333Y-65476666D01*
X78726666Y-65443333D01*
X78693333Y-65410000D01*
%TO.C,C109*%
X88646666Y-99160000D02*
X88613333Y-99193333D01*
X88513333Y-99226666D01*
X88446666Y-99226666D01*
X88346666Y-99193333D01*
X88280000Y-99126666D01*
X88246666Y-99060000D01*
X88213333Y-98926666D01*
X88213333Y-98826666D01*
X88246666Y-98693333D01*
X88280000Y-98626666D01*
X88346666Y-98560000D01*
X88446666Y-98526666D01*
X88513333Y-98526666D01*
X88613333Y-98560000D01*
X88646666Y-98593333D01*
X89313333Y-99226666D02*
X88913333Y-99226666D01*
X89113333Y-99226666D02*
X89113333Y-98526666D01*
X89046666Y-98626666D01*
X88980000Y-98693333D01*
X88913333Y-98726666D01*
X89746666Y-98526666D02*
X89813333Y-98526666D01*
X89880000Y-98560000D01*
X89913333Y-98593333D01*
X89946666Y-98660000D01*
X89980000Y-98793333D01*
X89980000Y-98960000D01*
X89946666Y-99093333D01*
X89913333Y-99160000D01*
X89880000Y-99193333D01*
X89813333Y-99226666D01*
X89746666Y-99226666D01*
X89680000Y-99193333D01*
X89646666Y-99160000D01*
X89613333Y-99093333D01*
X89580000Y-98960000D01*
X89580000Y-98793333D01*
X89613333Y-98660000D01*
X89646666Y-98593333D01*
X89680000Y-98560000D01*
X89746666Y-98526666D01*
X90313333Y-99226666D02*
X90446666Y-99226666D01*
X90513333Y-99193333D01*
X90546666Y-99160000D01*
X90613333Y-99060000D01*
X90646666Y-98926666D01*
X90646666Y-98660000D01*
X90613333Y-98593333D01*
X90580000Y-98560000D01*
X90513333Y-98526666D01*
X90380000Y-98526666D01*
X90313333Y-98560000D01*
X90280000Y-98593333D01*
X90246666Y-98660000D01*
X90246666Y-98826666D01*
X90280000Y-98893333D01*
X90313333Y-98926666D01*
X90380000Y-98960000D01*
X90513333Y-98960000D01*
X90580000Y-98926666D01*
X90613333Y-98893333D01*
X90646666Y-98826666D01*
%TO.C,C201*%
X62010000Y-96783333D02*
X62043333Y-96816666D01*
X62076666Y-96916666D01*
X62076666Y-96983333D01*
X62043333Y-97083333D01*
X61976666Y-97150000D01*
X61910000Y-97183333D01*
X61776666Y-97216666D01*
X61676666Y-97216666D01*
X61543333Y-97183333D01*
X61476666Y-97150000D01*
X61410000Y-97083333D01*
X61376666Y-96983333D01*
X61376666Y-96916666D01*
X61410000Y-96816666D01*
X61443333Y-96783333D01*
X61443333Y-96516666D02*
X61410000Y-96483333D01*
X61376666Y-96416666D01*
X61376666Y-96250000D01*
X61410000Y-96183333D01*
X61443333Y-96150000D01*
X61510000Y-96116666D01*
X61576666Y-96116666D01*
X61676666Y-96150000D01*
X62076666Y-96550000D01*
X62076666Y-96116666D01*
X61376666Y-95683333D02*
X61376666Y-95616666D01*
X61410000Y-95550000D01*
X61443333Y-95516666D01*
X61510000Y-95483333D01*
X61643333Y-95450000D01*
X61810000Y-95450000D01*
X61943333Y-95483333D01*
X62010000Y-95516666D01*
X62043333Y-95550000D01*
X62076666Y-95616666D01*
X62076666Y-95683333D01*
X62043333Y-95750000D01*
X62010000Y-95783333D01*
X61943333Y-95816666D01*
X61810000Y-95850000D01*
X61643333Y-95850000D01*
X61510000Y-95816666D01*
X61443333Y-95783333D01*
X61410000Y-95750000D01*
X61376666Y-95683333D01*
X62076666Y-94783333D02*
X62076666Y-95183333D01*
X62076666Y-94983333D02*
X61376666Y-94983333D01*
X61476666Y-95050000D01*
X61543333Y-95116666D01*
X61576666Y-95183333D01*
%TO.C,L201*%
X117190952Y-82052380D02*
X116714761Y-82052380D01*
X116714761Y-81052380D01*
X117476666Y-81147619D02*
X117524285Y-81100000D01*
X117619523Y-81052380D01*
X117857619Y-81052380D01*
X117952857Y-81100000D01*
X118000476Y-81147619D01*
X118048095Y-81242857D01*
X118048095Y-81338095D01*
X118000476Y-81480952D01*
X117429047Y-82052380D01*
X118048095Y-82052380D01*
X118667142Y-81052380D02*
X118762380Y-81052380D01*
X118857619Y-81100000D01*
X118905238Y-81147619D01*
X118952857Y-81242857D01*
X119000476Y-81433333D01*
X119000476Y-81671428D01*
X118952857Y-81861904D01*
X118905238Y-81957142D01*
X118857619Y-82004761D01*
X118762380Y-82052380D01*
X118667142Y-82052380D01*
X118571904Y-82004761D01*
X118524285Y-81957142D01*
X118476666Y-81861904D01*
X118429047Y-81671428D01*
X118429047Y-81433333D01*
X118476666Y-81242857D01*
X118524285Y-81147619D01*
X118571904Y-81100000D01*
X118667142Y-81052380D01*
X119952857Y-82052380D02*
X119381428Y-82052380D01*
X119667142Y-82052380D02*
X119667142Y-81052380D01*
X119571904Y-81195238D01*
X119476666Y-81290476D01*
X119381428Y-81338095D01*
%TO.C,X102*%
X80736666Y-98486666D02*
X81203333Y-99186666D01*
X81203333Y-98486666D02*
X80736666Y-99186666D01*
X81836666Y-99186666D02*
X81436666Y-99186666D01*
X81636666Y-99186666D02*
X81636666Y-98486666D01*
X81570000Y-98586666D01*
X81503333Y-98653333D01*
X81436666Y-98686666D01*
X82270000Y-98486666D02*
X82336666Y-98486666D01*
X82403333Y-98520000D01*
X82436666Y-98553333D01*
X82470000Y-98620000D01*
X82503333Y-98753333D01*
X82503333Y-98920000D01*
X82470000Y-99053333D01*
X82436666Y-99120000D01*
X82403333Y-99153333D01*
X82336666Y-99186666D01*
X82270000Y-99186666D01*
X82203333Y-99153333D01*
X82170000Y-99120000D01*
X82136666Y-99053333D01*
X82103333Y-98920000D01*
X82103333Y-98753333D01*
X82136666Y-98620000D01*
X82170000Y-98553333D01*
X82203333Y-98520000D01*
X82270000Y-98486666D01*
X82770000Y-98553333D02*
X82803333Y-98520000D01*
X82870000Y-98486666D01*
X83036666Y-98486666D01*
X83103333Y-98520000D01*
X83136666Y-98553333D01*
X83170000Y-98620000D01*
X83170000Y-98686666D01*
X83136666Y-98786666D01*
X82736666Y-99186666D01*
X83170000Y-99186666D01*
%TO.C,D102*%
X93956666Y-68036666D02*
X93956666Y-67336666D01*
X94123333Y-67336666D01*
X94223333Y-67370000D01*
X94290000Y-67436666D01*
X94323333Y-67503333D01*
X94356666Y-67636666D01*
X94356666Y-67736666D01*
X94323333Y-67870000D01*
X94290000Y-67936666D01*
X94223333Y-68003333D01*
X94123333Y-68036666D01*
X93956666Y-68036666D01*
X95023333Y-68036666D02*
X94623333Y-68036666D01*
X94823333Y-68036666D02*
X94823333Y-67336666D01*
X94756666Y-67436666D01*
X94690000Y-67503333D01*
X94623333Y-67536666D01*
X95456666Y-67336666D02*
X95523333Y-67336666D01*
X95590000Y-67370000D01*
X95623333Y-67403333D01*
X95656666Y-67470000D01*
X95690000Y-67603333D01*
X95690000Y-67770000D01*
X95656666Y-67903333D01*
X95623333Y-67970000D01*
X95590000Y-68003333D01*
X95523333Y-68036666D01*
X95456666Y-68036666D01*
X95390000Y-68003333D01*
X95356666Y-67970000D01*
X95323333Y-67903333D01*
X95290000Y-67770000D01*
X95290000Y-67603333D01*
X95323333Y-67470000D01*
X95356666Y-67403333D01*
X95390000Y-67370000D01*
X95456666Y-67336666D01*
X95956666Y-67403333D02*
X95990000Y-67370000D01*
X96056666Y-67336666D01*
X96223333Y-67336666D01*
X96290000Y-67370000D01*
X96323333Y-67403333D01*
X96356666Y-67470000D01*
X96356666Y-67536666D01*
X96323333Y-67636666D01*
X95923333Y-68036666D01*
X96356666Y-68036666D01*
%TO.C,U103*%
X93247500Y-95656666D02*
X93247500Y-96223333D01*
X93280833Y-96290000D01*
X93314166Y-96323333D01*
X93380833Y-96356666D01*
X93514166Y-96356666D01*
X93580833Y-96323333D01*
X93614166Y-96290000D01*
X93647500Y-96223333D01*
X93647500Y-95656666D01*
X94347500Y-96356666D02*
X93947500Y-96356666D01*
X94147500Y-96356666D02*
X94147500Y-95656666D01*
X94080833Y-95756666D01*
X94014166Y-95823333D01*
X93947500Y-95856666D01*
X94780833Y-95656666D02*
X94847500Y-95656666D01*
X94914166Y-95690000D01*
X94947500Y-95723333D01*
X94980833Y-95790000D01*
X95014166Y-95923333D01*
X95014166Y-96090000D01*
X94980833Y-96223333D01*
X94947500Y-96290000D01*
X94914166Y-96323333D01*
X94847500Y-96356666D01*
X94780833Y-96356666D01*
X94714166Y-96323333D01*
X94680833Y-96290000D01*
X94647500Y-96223333D01*
X94614166Y-96090000D01*
X94614166Y-95923333D01*
X94647500Y-95790000D01*
X94680833Y-95723333D01*
X94714166Y-95690000D01*
X94780833Y-95656666D01*
X95247500Y-95656666D02*
X95680833Y-95656666D01*
X95447500Y-95923333D01*
X95547500Y-95923333D01*
X95614166Y-95956666D01*
X95647500Y-95990000D01*
X95680833Y-96056666D01*
X95680833Y-96223333D01*
X95647500Y-96290000D01*
X95614166Y-96323333D01*
X95547500Y-96356666D01*
X95347500Y-96356666D01*
X95280833Y-96323333D01*
X95247500Y-96290000D01*
%TO.C,J106*%
X69124285Y-116542380D02*
X69124285Y-117256666D01*
X69076666Y-117399523D01*
X68981428Y-117494761D01*
X68838571Y-117542380D01*
X68743333Y-117542380D01*
X70124285Y-117542380D02*
X69552857Y-117542380D01*
X69838571Y-117542380D02*
X69838571Y-116542380D01*
X69743333Y-116685238D01*
X69648095Y-116780476D01*
X69552857Y-116828095D01*
X70743333Y-116542380D02*
X70838571Y-116542380D01*
X70933809Y-116590000D01*
X70981428Y-116637619D01*
X71029047Y-116732857D01*
X71076666Y-116923333D01*
X71076666Y-117161428D01*
X71029047Y-117351904D01*
X70981428Y-117447142D01*
X70933809Y-117494761D01*
X70838571Y-117542380D01*
X70743333Y-117542380D01*
X70648095Y-117494761D01*
X70600476Y-117447142D01*
X70552857Y-117351904D01*
X70505238Y-117161428D01*
X70505238Y-116923333D01*
X70552857Y-116732857D01*
X70600476Y-116637619D01*
X70648095Y-116590000D01*
X70743333Y-116542380D01*
X71933809Y-116542380D02*
X71743333Y-116542380D01*
X71648095Y-116590000D01*
X71600476Y-116637619D01*
X71505238Y-116780476D01*
X71457619Y-116970952D01*
X71457619Y-117351904D01*
X71505238Y-117447142D01*
X71552857Y-117494761D01*
X71648095Y-117542380D01*
X71838571Y-117542380D01*
X71933809Y-117494761D01*
X71981428Y-117447142D01*
X72029047Y-117351904D01*
X72029047Y-117113809D01*
X71981428Y-117018571D01*
X71933809Y-116970952D01*
X71838571Y-116923333D01*
X71648095Y-116923333D01*
X71552857Y-116970952D01*
X71505238Y-117018571D01*
X71457619Y-117113809D01*
%TO.C,U101*%
X67705714Y-85212380D02*
X67705714Y-86021904D01*
X67753333Y-86117142D01*
X67800952Y-86164761D01*
X67896190Y-86212380D01*
X68086666Y-86212380D01*
X68181904Y-86164761D01*
X68229523Y-86117142D01*
X68277142Y-86021904D01*
X68277142Y-85212380D01*
X69277142Y-86212380D02*
X68705714Y-86212380D01*
X68991428Y-86212380D02*
X68991428Y-85212380D01*
X68896190Y-85355238D01*
X68800952Y-85450476D01*
X68705714Y-85498095D01*
X69896190Y-85212380D02*
X69991428Y-85212380D01*
X70086666Y-85260000D01*
X70134285Y-85307619D01*
X70181904Y-85402857D01*
X70229523Y-85593333D01*
X70229523Y-85831428D01*
X70181904Y-86021904D01*
X70134285Y-86117142D01*
X70086666Y-86164761D01*
X69991428Y-86212380D01*
X69896190Y-86212380D01*
X69800952Y-86164761D01*
X69753333Y-86117142D01*
X69705714Y-86021904D01*
X69658095Y-85831428D01*
X69658095Y-85593333D01*
X69705714Y-85402857D01*
X69753333Y-85307619D01*
X69800952Y-85260000D01*
X69896190Y-85212380D01*
X71181904Y-86212380D02*
X70610476Y-86212380D01*
X70896190Y-86212380D02*
X70896190Y-85212380D01*
X70800952Y-85355238D01*
X70705714Y-85450476D01*
X70610476Y-85498095D01*
%TO.C,D108*%
X56666666Y-86296666D02*
X56666666Y-85596666D01*
X56833333Y-85596666D01*
X56933333Y-85630000D01*
X57000000Y-85696666D01*
X57033333Y-85763333D01*
X57066666Y-85896666D01*
X57066666Y-85996666D01*
X57033333Y-86130000D01*
X57000000Y-86196666D01*
X56933333Y-86263333D01*
X56833333Y-86296666D01*
X56666666Y-86296666D01*
X57733333Y-86296666D02*
X57333333Y-86296666D01*
X57533333Y-86296666D02*
X57533333Y-85596666D01*
X57466666Y-85696666D01*
X57400000Y-85763333D01*
X57333333Y-85796666D01*
X58166666Y-85596666D02*
X58233333Y-85596666D01*
X58300000Y-85630000D01*
X58333333Y-85663333D01*
X58366666Y-85730000D01*
X58400000Y-85863333D01*
X58400000Y-86030000D01*
X58366666Y-86163333D01*
X58333333Y-86230000D01*
X58300000Y-86263333D01*
X58233333Y-86296666D01*
X58166666Y-86296666D01*
X58100000Y-86263333D01*
X58066666Y-86230000D01*
X58033333Y-86163333D01*
X58000000Y-86030000D01*
X58000000Y-85863333D01*
X58033333Y-85730000D01*
X58066666Y-85663333D01*
X58100000Y-85630000D01*
X58166666Y-85596666D01*
X58800000Y-85896666D02*
X58733333Y-85863333D01*
X58700000Y-85830000D01*
X58666666Y-85763333D01*
X58666666Y-85730000D01*
X58700000Y-85663333D01*
X58733333Y-85630000D01*
X58800000Y-85596666D01*
X58933333Y-85596666D01*
X59000000Y-85630000D01*
X59033333Y-85663333D01*
X59066666Y-85730000D01*
X59066666Y-85763333D01*
X59033333Y-85830000D01*
X59000000Y-85863333D01*
X58933333Y-85896666D01*
X58800000Y-85896666D01*
X58733333Y-85930000D01*
X58700000Y-85963333D01*
X58666666Y-86030000D01*
X58666666Y-86163333D01*
X58700000Y-86230000D01*
X58733333Y-86263333D01*
X58800000Y-86296666D01*
X58933333Y-86296666D01*
X59000000Y-86263333D01*
X59033333Y-86230000D01*
X59066666Y-86163333D01*
X59066666Y-86030000D01*
X59033333Y-85963333D01*
X59000000Y-85930000D01*
X58933333Y-85896666D01*
%TO.C,R201*%
X84816666Y-82786666D02*
X84583333Y-82453333D01*
X84416666Y-82786666D02*
X84416666Y-82086666D01*
X84683333Y-82086666D01*
X84750000Y-82120000D01*
X84783333Y-82153333D01*
X84816666Y-82220000D01*
X84816666Y-82320000D01*
X84783333Y-82386666D01*
X84750000Y-82420000D01*
X84683333Y-82453333D01*
X84416666Y-82453333D01*
X85083333Y-82153333D02*
X85116666Y-82120000D01*
X85183333Y-82086666D01*
X85350000Y-82086666D01*
X85416666Y-82120000D01*
X85450000Y-82153333D01*
X85483333Y-82220000D01*
X85483333Y-82286666D01*
X85450000Y-82386666D01*
X85050000Y-82786666D01*
X85483333Y-82786666D01*
X85916666Y-82086666D02*
X85983333Y-82086666D01*
X86050000Y-82120000D01*
X86083333Y-82153333D01*
X86116666Y-82220000D01*
X86150000Y-82353333D01*
X86150000Y-82520000D01*
X86116666Y-82653333D01*
X86083333Y-82720000D01*
X86050000Y-82753333D01*
X85983333Y-82786666D01*
X85916666Y-82786666D01*
X85850000Y-82753333D01*
X85816666Y-82720000D01*
X85783333Y-82653333D01*
X85750000Y-82520000D01*
X85750000Y-82353333D01*
X85783333Y-82220000D01*
X85816666Y-82153333D01*
X85850000Y-82120000D01*
X85916666Y-82086666D01*
X86816666Y-82786666D02*
X86416666Y-82786666D01*
X86616666Y-82786666D02*
X86616666Y-82086666D01*
X86550000Y-82186666D01*
X86483333Y-82253333D01*
X86416666Y-82286666D01*
%TO.C,C104*%
X101650000Y-76023333D02*
X101683333Y-76056666D01*
X101716666Y-76156666D01*
X101716666Y-76223333D01*
X101683333Y-76323333D01*
X101616666Y-76390000D01*
X101550000Y-76423333D01*
X101416666Y-76456666D01*
X101316666Y-76456666D01*
X101183333Y-76423333D01*
X101116666Y-76390000D01*
X101050000Y-76323333D01*
X101016666Y-76223333D01*
X101016666Y-76156666D01*
X101050000Y-76056666D01*
X101083333Y-76023333D01*
X101716666Y-75356666D02*
X101716666Y-75756666D01*
X101716666Y-75556666D02*
X101016666Y-75556666D01*
X101116666Y-75623333D01*
X101183333Y-75690000D01*
X101216666Y-75756666D01*
X101016666Y-74923333D02*
X101016666Y-74856666D01*
X101050000Y-74790000D01*
X101083333Y-74756666D01*
X101150000Y-74723333D01*
X101283333Y-74690000D01*
X101450000Y-74690000D01*
X101583333Y-74723333D01*
X101650000Y-74756666D01*
X101683333Y-74790000D01*
X101716666Y-74856666D01*
X101716666Y-74923333D01*
X101683333Y-74990000D01*
X101650000Y-75023333D01*
X101583333Y-75056666D01*
X101450000Y-75090000D01*
X101283333Y-75090000D01*
X101150000Y-75056666D01*
X101083333Y-75023333D01*
X101050000Y-74990000D01*
X101016666Y-74923333D01*
X101250000Y-74090000D02*
X101716666Y-74090000D01*
X100983333Y-74256666D02*
X101483333Y-74423333D01*
X101483333Y-73990000D01*
%TO.C,R108*%
X96776666Y-113156666D02*
X96543333Y-112823333D01*
X96376666Y-113156666D02*
X96376666Y-112456666D01*
X96643333Y-112456666D01*
X96710000Y-112490000D01*
X96743333Y-112523333D01*
X96776666Y-112590000D01*
X96776666Y-112690000D01*
X96743333Y-112756666D01*
X96710000Y-112790000D01*
X96643333Y-112823333D01*
X96376666Y-112823333D01*
X97443333Y-113156666D02*
X97043333Y-113156666D01*
X97243333Y-113156666D02*
X97243333Y-112456666D01*
X97176666Y-112556666D01*
X97110000Y-112623333D01*
X97043333Y-112656666D01*
X97876666Y-112456666D02*
X97943333Y-112456666D01*
X98010000Y-112490000D01*
X98043333Y-112523333D01*
X98076666Y-112590000D01*
X98110000Y-112723333D01*
X98110000Y-112890000D01*
X98076666Y-113023333D01*
X98043333Y-113090000D01*
X98010000Y-113123333D01*
X97943333Y-113156666D01*
X97876666Y-113156666D01*
X97810000Y-113123333D01*
X97776666Y-113090000D01*
X97743333Y-113023333D01*
X97710000Y-112890000D01*
X97710000Y-112723333D01*
X97743333Y-112590000D01*
X97776666Y-112523333D01*
X97810000Y-112490000D01*
X97876666Y-112456666D01*
X98510000Y-112756666D02*
X98443333Y-112723333D01*
X98410000Y-112690000D01*
X98376666Y-112623333D01*
X98376666Y-112590000D01*
X98410000Y-112523333D01*
X98443333Y-112490000D01*
X98510000Y-112456666D01*
X98643333Y-112456666D01*
X98710000Y-112490000D01*
X98743333Y-112523333D01*
X98776666Y-112590000D01*
X98776666Y-112623333D01*
X98743333Y-112690000D01*
X98710000Y-112723333D01*
X98643333Y-112756666D01*
X98510000Y-112756666D01*
X98443333Y-112790000D01*
X98410000Y-112823333D01*
X98376666Y-112890000D01*
X98376666Y-113023333D01*
X98410000Y-113090000D01*
X98443333Y-113123333D01*
X98510000Y-113156666D01*
X98643333Y-113156666D01*
X98710000Y-113123333D01*
X98743333Y-113090000D01*
X98776666Y-113023333D01*
X98776666Y-112890000D01*
X98743333Y-112823333D01*
X98710000Y-112790000D01*
X98643333Y-112756666D01*
%TO.C,Q103*%
X100407142Y-107892857D02*
X100321428Y-107850000D01*
X100235714Y-107764285D01*
X100107142Y-107635714D01*
X100021428Y-107592857D01*
X99935714Y-107592857D01*
X99978571Y-107807142D02*
X99892857Y-107764285D01*
X99807142Y-107678571D01*
X99764285Y-107507142D01*
X99764285Y-107207142D01*
X99807142Y-107035714D01*
X99892857Y-106950000D01*
X99978571Y-106907142D01*
X100150000Y-106907142D01*
X100235714Y-106950000D01*
X100321428Y-107035714D01*
X100364285Y-107207142D01*
X100364285Y-107507142D01*
X100321428Y-107678571D01*
X100235714Y-107764285D01*
X100150000Y-107807142D01*
X99978571Y-107807142D01*
X101221428Y-107807142D02*
X100707142Y-107807142D01*
X100964285Y-107807142D02*
X100964285Y-106907142D01*
X100878571Y-107035714D01*
X100792857Y-107121428D01*
X100707142Y-107164285D01*
X101778571Y-106907142D02*
X101864285Y-106907142D01*
X101950000Y-106950000D01*
X101992857Y-106992857D01*
X102035714Y-107078571D01*
X102078571Y-107250000D01*
X102078571Y-107464285D01*
X102035714Y-107635714D01*
X101992857Y-107721428D01*
X101950000Y-107764285D01*
X101864285Y-107807142D01*
X101778571Y-107807142D01*
X101692857Y-107764285D01*
X101650000Y-107721428D01*
X101607142Y-107635714D01*
X101564285Y-107464285D01*
X101564285Y-107250000D01*
X101607142Y-107078571D01*
X101650000Y-106992857D01*
X101692857Y-106950000D01*
X101778571Y-106907142D01*
X102378571Y-106907142D02*
X102935714Y-106907142D01*
X102635714Y-107250000D01*
X102764285Y-107250000D01*
X102850000Y-107292857D01*
X102892857Y-107335714D01*
X102935714Y-107421428D01*
X102935714Y-107635714D01*
X102892857Y-107721428D01*
X102850000Y-107764285D01*
X102764285Y-107807142D01*
X102507142Y-107807142D01*
X102421428Y-107764285D01*
X102378571Y-107721428D01*
%TO.C,U104*%
X95756666Y-107910000D02*
X96323333Y-107910000D01*
X96390000Y-107876666D01*
X96423333Y-107843333D01*
X96456666Y-107776666D01*
X96456666Y-107643333D01*
X96423333Y-107576666D01*
X96390000Y-107543333D01*
X96323333Y-107510000D01*
X95756666Y-107510000D01*
X96456666Y-106810000D02*
X96456666Y-107210000D01*
X96456666Y-107010000D02*
X95756666Y-107010000D01*
X95856666Y-107076666D01*
X95923333Y-107143333D01*
X95956666Y-107210000D01*
X95756666Y-106376666D02*
X95756666Y-106310000D01*
X95790000Y-106243333D01*
X95823333Y-106210000D01*
X95890000Y-106176666D01*
X96023333Y-106143333D01*
X96190000Y-106143333D01*
X96323333Y-106176666D01*
X96390000Y-106210000D01*
X96423333Y-106243333D01*
X96456666Y-106310000D01*
X96456666Y-106376666D01*
X96423333Y-106443333D01*
X96390000Y-106476666D01*
X96323333Y-106510000D01*
X96190000Y-106543333D01*
X96023333Y-106543333D01*
X95890000Y-106510000D01*
X95823333Y-106476666D01*
X95790000Y-106443333D01*
X95756666Y-106376666D01*
X95990000Y-105543333D02*
X96456666Y-105543333D01*
X95723333Y-105710000D02*
X96223333Y-105876666D01*
X96223333Y-105443333D01*
%TO.C,R204*%
X92366666Y-88286666D02*
X92133333Y-87953333D01*
X91966666Y-88286666D02*
X91966666Y-87586666D01*
X92233333Y-87586666D01*
X92300000Y-87620000D01*
X92333333Y-87653333D01*
X92366666Y-87720000D01*
X92366666Y-87820000D01*
X92333333Y-87886666D01*
X92300000Y-87920000D01*
X92233333Y-87953333D01*
X91966666Y-87953333D01*
X92633333Y-87653333D02*
X92666666Y-87620000D01*
X92733333Y-87586666D01*
X92900000Y-87586666D01*
X92966666Y-87620000D01*
X93000000Y-87653333D01*
X93033333Y-87720000D01*
X93033333Y-87786666D01*
X93000000Y-87886666D01*
X92600000Y-88286666D01*
X93033333Y-88286666D01*
X93466666Y-87586666D02*
X93533333Y-87586666D01*
X93600000Y-87620000D01*
X93633333Y-87653333D01*
X93666666Y-87720000D01*
X93700000Y-87853333D01*
X93700000Y-88020000D01*
X93666666Y-88153333D01*
X93633333Y-88220000D01*
X93600000Y-88253333D01*
X93533333Y-88286666D01*
X93466666Y-88286666D01*
X93400000Y-88253333D01*
X93366666Y-88220000D01*
X93333333Y-88153333D01*
X93300000Y-88020000D01*
X93300000Y-87853333D01*
X93333333Y-87720000D01*
X93366666Y-87653333D01*
X93400000Y-87620000D01*
X93466666Y-87586666D01*
X94300000Y-87820000D02*
X94300000Y-88286666D01*
X94133333Y-87553333D02*
X93966666Y-88053333D01*
X94400000Y-88053333D01*
%TO.C,U102*%
X86260000Y-104526666D02*
X86260000Y-105093333D01*
X86293333Y-105160000D01*
X86326666Y-105193333D01*
X86393333Y-105226666D01*
X86526666Y-105226666D01*
X86593333Y-105193333D01*
X86626666Y-105160000D01*
X86660000Y-105093333D01*
X86660000Y-104526666D01*
X87360000Y-105226666D02*
X86960000Y-105226666D01*
X87160000Y-105226666D02*
X87160000Y-104526666D01*
X87093333Y-104626666D01*
X87026666Y-104693333D01*
X86960000Y-104726666D01*
X87793333Y-104526666D02*
X87860000Y-104526666D01*
X87926666Y-104560000D01*
X87960000Y-104593333D01*
X87993333Y-104660000D01*
X88026666Y-104793333D01*
X88026666Y-104960000D01*
X87993333Y-105093333D01*
X87960000Y-105160000D01*
X87926666Y-105193333D01*
X87860000Y-105226666D01*
X87793333Y-105226666D01*
X87726666Y-105193333D01*
X87693333Y-105160000D01*
X87660000Y-105093333D01*
X87626666Y-104960000D01*
X87626666Y-104793333D01*
X87660000Y-104660000D01*
X87693333Y-104593333D01*
X87726666Y-104560000D01*
X87793333Y-104526666D01*
X88293333Y-104593333D02*
X88326666Y-104560000D01*
X88393333Y-104526666D01*
X88560000Y-104526666D01*
X88626666Y-104560000D01*
X88660000Y-104593333D01*
X88693333Y-104660000D01*
X88693333Y-104726666D01*
X88660000Y-104826666D01*
X88260000Y-105226666D01*
X88693333Y-105226666D01*
%TO.C,J301*%
X125222380Y-90675714D02*
X125936666Y-90675714D01*
X126079523Y-90723333D01*
X126174761Y-90818571D01*
X126222380Y-90961428D01*
X126222380Y-91056666D01*
X125222380Y-90294761D02*
X125222380Y-89675714D01*
X125603333Y-90009047D01*
X125603333Y-89866190D01*
X125650952Y-89770952D01*
X125698571Y-89723333D01*
X125793809Y-89675714D01*
X126031904Y-89675714D01*
X126127142Y-89723333D01*
X126174761Y-89770952D01*
X126222380Y-89866190D01*
X126222380Y-90151904D01*
X126174761Y-90247142D01*
X126127142Y-90294761D01*
X125222380Y-89056666D02*
X125222380Y-88961428D01*
X125270000Y-88866190D01*
X125317619Y-88818571D01*
X125412857Y-88770952D01*
X125603333Y-88723333D01*
X125841428Y-88723333D01*
X126031904Y-88770952D01*
X126127142Y-88818571D01*
X126174761Y-88866190D01*
X126222380Y-88961428D01*
X126222380Y-89056666D01*
X126174761Y-89151904D01*
X126127142Y-89199523D01*
X126031904Y-89247142D01*
X125841428Y-89294761D01*
X125603333Y-89294761D01*
X125412857Y-89247142D01*
X125317619Y-89199523D01*
X125270000Y-89151904D01*
X125222380Y-89056666D01*
X126222380Y-87770952D02*
X126222380Y-88342380D01*
X126222380Y-88056666D02*
X125222380Y-88056666D01*
X125365238Y-88151904D01*
X125460476Y-88247142D01*
X125508095Y-88342380D01*
%TO.C,J113*%
X65121666Y-64610000D02*
X65621666Y-64610000D01*
X65721666Y-64643333D01*
X65788333Y-64710000D01*
X65821666Y-64810000D01*
X65821666Y-64876666D01*
X65821666Y-63910000D02*
X65821666Y-64310000D01*
X65821666Y-64110000D02*
X65121666Y-64110000D01*
X65221666Y-64176666D01*
X65288333Y-64243333D01*
X65321666Y-64310000D01*
X65821666Y-63243333D02*
X65821666Y-63643333D01*
X65821666Y-63443333D02*
X65121666Y-63443333D01*
X65221666Y-63510000D01*
X65288333Y-63576666D01*
X65321666Y-63643333D01*
X65121666Y-63010000D02*
X65121666Y-62576666D01*
X65388333Y-62810000D01*
X65388333Y-62710000D01*
X65421666Y-62643333D01*
X65455000Y-62610000D01*
X65521666Y-62576666D01*
X65688333Y-62576666D01*
X65755000Y-62610000D01*
X65788333Y-62643333D01*
X65821666Y-62710000D01*
X65821666Y-62910000D01*
X65788333Y-62976666D01*
X65755000Y-63010000D01*
%TO.C,D105*%
X53056666Y-92546666D02*
X53056666Y-91846666D01*
X53223333Y-91846666D01*
X53323333Y-91880000D01*
X53390000Y-91946666D01*
X53423333Y-92013333D01*
X53456666Y-92146666D01*
X53456666Y-92246666D01*
X53423333Y-92380000D01*
X53390000Y-92446666D01*
X53323333Y-92513333D01*
X53223333Y-92546666D01*
X53056666Y-92546666D01*
X54123333Y-92546666D02*
X53723333Y-92546666D01*
X53923333Y-92546666D02*
X53923333Y-91846666D01*
X53856666Y-91946666D01*
X53790000Y-92013333D01*
X53723333Y-92046666D01*
X54556666Y-91846666D02*
X54623333Y-91846666D01*
X54690000Y-91880000D01*
X54723333Y-91913333D01*
X54756666Y-91980000D01*
X54790000Y-92113333D01*
X54790000Y-92280000D01*
X54756666Y-92413333D01*
X54723333Y-92480000D01*
X54690000Y-92513333D01*
X54623333Y-92546666D01*
X54556666Y-92546666D01*
X54490000Y-92513333D01*
X54456666Y-92480000D01*
X54423333Y-92413333D01*
X54390000Y-92280000D01*
X54390000Y-92113333D01*
X54423333Y-91980000D01*
X54456666Y-91913333D01*
X54490000Y-91880000D01*
X54556666Y-91846666D01*
X55423333Y-91846666D02*
X55090000Y-91846666D01*
X55056666Y-92180000D01*
X55090000Y-92146666D01*
X55156666Y-92113333D01*
X55323333Y-92113333D01*
X55390000Y-92146666D01*
X55423333Y-92180000D01*
X55456666Y-92246666D01*
X55456666Y-92413333D01*
X55423333Y-92480000D01*
X55390000Y-92513333D01*
X55323333Y-92546666D01*
X55156666Y-92546666D01*
X55090000Y-92513333D01*
X55056666Y-92480000D01*
%TO.C,C111*%
X105580952Y-109527142D02*
X105533333Y-109574761D01*
X105390476Y-109622380D01*
X105295238Y-109622380D01*
X105152380Y-109574761D01*
X105057142Y-109479523D01*
X105009523Y-109384285D01*
X104961904Y-109193809D01*
X104961904Y-109050952D01*
X105009523Y-108860476D01*
X105057142Y-108765238D01*
X105152380Y-108670000D01*
X105295238Y-108622380D01*
X105390476Y-108622380D01*
X105533333Y-108670000D01*
X105580952Y-108717619D01*
X106533333Y-109622380D02*
X105961904Y-109622380D01*
X106247619Y-109622380D02*
X106247619Y-108622380D01*
X106152380Y-108765238D01*
X106057142Y-108860476D01*
X105961904Y-108908095D01*
X107485714Y-109622380D02*
X106914285Y-109622380D01*
X107200000Y-109622380D02*
X107200000Y-108622380D01*
X107104761Y-108765238D01*
X107009523Y-108860476D01*
X106914285Y-108908095D01*
X108438095Y-109622380D02*
X107866666Y-109622380D01*
X108152380Y-109622380D02*
X108152380Y-108622380D01*
X108057142Y-108765238D01*
X107961904Y-108860476D01*
X107866666Y-108908095D01*
X108756128Y-105761752D02*
X108756128Y-104999847D01*
X109137080Y-105380800D02*
X108375176Y-105380800D01*
%TO.C,J109*%
X94294285Y-91392380D02*
X94294285Y-92106666D01*
X94246666Y-92249523D01*
X94151428Y-92344761D01*
X94008571Y-92392380D01*
X93913333Y-92392380D01*
X95294285Y-92392380D02*
X94722857Y-92392380D01*
X95008571Y-92392380D02*
X95008571Y-91392380D01*
X94913333Y-91535238D01*
X94818095Y-91630476D01*
X94722857Y-91678095D01*
X95913333Y-91392380D02*
X96008571Y-91392380D01*
X96103809Y-91440000D01*
X96151428Y-91487619D01*
X96199047Y-91582857D01*
X96246666Y-91773333D01*
X96246666Y-92011428D01*
X96199047Y-92201904D01*
X96151428Y-92297142D01*
X96103809Y-92344761D01*
X96008571Y-92392380D01*
X95913333Y-92392380D01*
X95818095Y-92344761D01*
X95770476Y-92297142D01*
X95722857Y-92201904D01*
X95675238Y-92011428D01*
X95675238Y-91773333D01*
X95722857Y-91582857D01*
X95770476Y-91487619D01*
X95818095Y-91440000D01*
X95913333Y-91392380D01*
X96722857Y-92392380D02*
X96913333Y-92392380D01*
X97008571Y-92344761D01*
X97056190Y-92297142D01*
X97151428Y-92154285D01*
X97199047Y-91963809D01*
X97199047Y-91582857D01*
X97151428Y-91487619D01*
X97103809Y-91440000D01*
X97008571Y-91392380D01*
X96818095Y-91392380D01*
X96722857Y-91440000D01*
X96675238Y-91487619D01*
X96627619Y-91582857D01*
X96627619Y-91820952D01*
X96675238Y-91916190D01*
X96722857Y-91963809D01*
X96818095Y-92011428D01*
X97008571Y-92011428D01*
X97103809Y-91963809D01*
X97151428Y-91916190D01*
X97199047Y-91820952D01*
%TO.C,C110*%
X93350000Y-111333333D02*
X93383333Y-111366666D01*
X93416666Y-111466666D01*
X93416666Y-111533333D01*
X93383333Y-111633333D01*
X93316666Y-111700000D01*
X93250000Y-111733333D01*
X93116666Y-111766666D01*
X93016666Y-111766666D01*
X92883333Y-111733333D01*
X92816666Y-111700000D01*
X92750000Y-111633333D01*
X92716666Y-111533333D01*
X92716666Y-111466666D01*
X92750000Y-111366666D01*
X92783333Y-111333333D01*
X93416666Y-110666666D02*
X93416666Y-111066666D01*
X93416666Y-110866666D02*
X92716666Y-110866666D01*
X92816666Y-110933333D01*
X92883333Y-111000000D01*
X92916666Y-111066666D01*
X93416666Y-110000000D02*
X93416666Y-110400000D01*
X93416666Y-110200000D02*
X92716666Y-110200000D01*
X92816666Y-110266666D01*
X92883333Y-110333333D01*
X92916666Y-110400000D01*
X92716666Y-109566666D02*
X92716666Y-109500000D01*
X92750000Y-109433333D01*
X92783333Y-109400000D01*
X92850000Y-109366666D01*
X92983333Y-109333333D01*
X93150000Y-109333333D01*
X93283333Y-109366666D01*
X93350000Y-109400000D01*
X93383333Y-109433333D01*
X93416666Y-109500000D01*
X93416666Y-109566666D01*
X93383333Y-109633333D01*
X93350000Y-109666666D01*
X93283333Y-109700000D01*
X93150000Y-109733333D01*
X92983333Y-109733333D01*
X92850000Y-109700000D01*
X92783333Y-109666666D01*
X92750000Y-109633333D01*
X92716666Y-109566666D01*
%TO.C,C206*%
X76036666Y-93720000D02*
X76003333Y-93753333D01*
X75903333Y-93786666D01*
X75836666Y-93786666D01*
X75736666Y-93753333D01*
X75670000Y-93686666D01*
X75636666Y-93620000D01*
X75603333Y-93486666D01*
X75603333Y-93386666D01*
X75636666Y-93253333D01*
X75670000Y-93186666D01*
X75736666Y-93120000D01*
X75836666Y-93086666D01*
X75903333Y-93086666D01*
X76003333Y-93120000D01*
X76036666Y-93153333D01*
X76303333Y-93153333D02*
X76336666Y-93120000D01*
X76403333Y-93086666D01*
X76570000Y-93086666D01*
X76636666Y-93120000D01*
X76670000Y-93153333D01*
X76703333Y-93220000D01*
X76703333Y-93286666D01*
X76670000Y-93386666D01*
X76270000Y-93786666D01*
X76703333Y-93786666D01*
X77136666Y-93086666D02*
X77203333Y-93086666D01*
X77270000Y-93120000D01*
X77303333Y-93153333D01*
X77336666Y-93220000D01*
X77370000Y-93353333D01*
X77370000Y-93520000D01*
X77336666Y-93653333D01*
X77303333Y-93720000D01*
X77270000Y-93753333D01*
X77203333Y-93786666D01*
X77136666Y-93786666D01*
X77070000Y-93753333D01*
X77036666Y-93720000D01*
X77003333Y-93653333D01*
X76970000Y-93520000D01*
X76970000Y-93353333D01*
X77003333Y-93220000D01*
X77036666Y-93153333D01*
X77070000Y-93120000D01*
X77136666Y-93086666D01*
X77970000Y-93086666D02*
X77836666Y-93086666D01*
X77770000Y-93120000D01*
X77736666Y-93153333D01*
X77670000Y-93253333D01*
X77636666Y-93386666D01*
X77636666Y-93653333D01*
X77670000Y-93720000D01*
X77703333Y-93753333D01*
X77770000Y-93786666D01*
X77903333Y-93786666D01*
X77970000Y-93753333D01*
X78003333Y-93720000D01*
X78036666Y-93653333D01*
X78036666Y-93486666D01*
X78003333Y-93420000D01*
X77970000Y-93386666D01*
X77903333Y-93353333D01*
X77770000Y-93353333D01*
X77703333Y-93386666D01*
X77670000Y-93420000D01*
X77636666Y-93486666D01*
%TO.C,C208*%
X92020000Y-85183333D02*
X92053333Y-85216666D01*
X92086666Y-85316666D01*
X92086666Y-85383333D01*
X92053333Y-85483333D01*
X91986666Y-85550000D01*
X91920000Y-85583333D01*
X91786666Y-85616666D01*
X91686666Y-85616666D01*
X91553333Y-85583333D01*
X91486666Y-85550000D01*
X91420000Y-85483333D01*
X91386666Y-85383333D01*
X91386666Y-85316666D01*
X91420000Y-85216666D01*
X91453333Y-85183333D01*
X91453333Y-84916666D02*
X91420000Y-84883333D01*
X91386666Y-84816666D01*
X91386666Y-84650000D01*
X91420000Y-84583333D01*
X91453333Y-84550000D01*
X91520000Y-84516666D01*
X91586666Y-84516666D01*
X91686666Y-84550000D01*
X92086666Y-84950000D01*
X92086666Y-84516666D01*
X91386666Y-84083333D02*
X91386666Y-84016666D01*
X91420000Y-83950000D01*
X91453333Y-83916666D01*
X91520000Y-83883333D01*
X91653333Y-83850000D01*
X91820000Y-83850000D01*
X91953333Y-83883333D01*
X92020000Y-83916666D01*
X92053333Y-83950000D01*
X92086666Y-84016666D01*
X92086666Y-84083333D01*
X92053333Y-84150000D01*
X92020000Y-84183333D01*
X91953333Y-84216666D01*
X91820000Y-84250000D01*
X91653333Y-84250000D01*
X91520000Y-84216666D01*
X91453333Y-84183333D01*
X91420000Y-84150000D01*
X91386666Y-84083333D01*
X91686666Y-83450000D02*
X91653333Y-83516666D01*
X91620000Y-83550000D01*
X91553333Y-83583333D01*
X91520000Y-83583333D01*
X91453333Y-83550000D01*
X91420000Y-83516666D01*
X91386666Y-83450000D01*
X91386666Y-83316666D01*
X91420000Y-83250000D01*
X91453333Y-83216666D01*
X91520000Y-83183333D01*
X91553333Y-83183333D01*
X91620000Y-83216666D01*
X91653333Y-83250000D01*
X91686666Y-83316666D01*
X91686666Y-83450000D01*
X91720000Y-83516666D01*
X91753333Y-83550000D01*
X91820000Y-83583333D01*
X91953333Y-83583333D01*
X92020000Y-83550000D01*
X92053333Y-83516666D01*
X92086666Y-83450000D01*
X92086666Y-83316666D01*
X92053333Y-83250000D01*
X92020000Y-83216666D01*
X91953333Y-83183333D01*
X91820000Y-83183333D01*
X91753333Y-83216666D01*
X91720000Y-83250000D01*
X91686666Y-83316666D01*
%TO.C,TP101*%
X88842380Y-118764285D02*
X88842380Y-118192857D01*
X89842380Y-118478571D02*
X88842380Y-118478571D01*
X89842380Y-117859523D02*
X88842380Y-117859523D01*
X88842380Y-117478571D01*
X88890000Y-117383333D01*
X88937619Y-117335714D01*
X89032857Y-117288095D01*
X89175714Y-117288095D01*
X89270952Y-117335714D01*
X89318571Y-117383333D01*
X89366190Y-117478571D01*
X89366190Y-117859523D01*
X89842380Y-116335714D02*
X89842380Y-116907142D01*
X89842380Y-116621428D02*
X88842380Y-116621428D01*
X88985238Y-116716666D01*
X89080476Y-116811904D01*
X89128095Y-116907142D01*
X88842380Y-115716666D02*
X88842380Y-115621428D01*
X88890000Y-115526190D01*
X88937619Y-115478571D01*
X89032857Y-115430952D01*
X89223333Y-115383333D01*
X89461428Y-115383333D01*
X89651904Y-115430952D01*
X89747142Y-115478571D01*
X89794761Y-115526190D01*
X89842380Y-115621428D01*
X89842380Y-115716666D01*
X89794761Y-115811904D01*
X89747142Y-115859523D01*
X89651904Y-115907142D01*
X89461428Y-115954761D01*
X89223333Y-115954761D01*
X89032857Y-115907142D01*
X88937619Y-115859523D01*
X88890000Y-115811904D01*
X88842380Y-115716666D01*
X89842380Y-114430952D02*
X89842380Y-115002380D01*
X89842380Y-114716666D02*
X88842380Y-114716666D01*
X88985238Y-114811904D01*
X89080476Y-114907142D01*
X89128095Y-115002380D01*
%TO.C,R101*%
X99886666Y-62026666D02*
X99653333Y-61693333D01*
X99486666Y-62026666D02*
X99486666Y-61326666D01*
X99753333Y-61326666D01*
X99820000Y-61360000D01*
X99853333Y-61393333D01*
X99886666Y-61460000D01*
X99886666Y-61560000D01*
X99853333Y-61626666D01*
X99820000Y-61660000D01*
X99753333Y-61693333D01*
X99486666Y-61693333D01*
X100553333Y-62026666D02*
X100153333Y-62026666D01*
X100353333Y-62026666D02*
X100353333Y-61326666D01*
X100286666Y-61426666D01*
X100220000Y-61493333D01*
X100153333Y-61526666D01*
X100986666Y-61326666D02*
X101053333Y-61326666D01*
X101120000Y-61360000D01*
X101153333Y-61393333D01*
X101186666Y-61460000D01*
X101220000Y-61593333D01*
X101220000Y-61760000D01*
X101186666Y-61893333D01*
X101153333Y-61960000D01*
X101120000Y-61993333D01*
X101053333Y-62026666D01*
X100986666Y-62026666D01*
X100920000Y-61993333D01*
X100886666Y-61960000D01*
X100853333Y-61893333D01*
X100820000Y-61760000D01*
X100820000Y-61593333D01*
X100853333Y-61460000D01*
X100886666Y-61393333D01*
X100920000Y-61360000D01*
X100986666Y-61326666D01*
X101886666Y-62026666D02*
X101486666Y-62026666D01*
X101686666Y-62026666D02*
X101686666Y-61326666D01*
X101620000Y-61426666D01*
X101553333Y-61493333D01*
X101486666Y-61526666D01*
%TO.C,D107*%
X85442380Y-93520476D02*
X84442380Y-93520476D01*
X84442380Y-93282380D01*
X84490000Y-93139523D01*
X84585238Y-93044285D01*
X84680476Y-92996666D01*
X84870952Y-92949047D01*
X85013809Y-92949047D01*
X85204285Y-92996666D01*
X85299523Y-93044285D01*
X85394761Y-93139523D01*
X85442380Y-93282380D01*
X85442380Y-93520476D01*
X85442380Y-91996666D02*
X85442380Y-92568095D01*
X85442380Y-92282380D02*
X84442380Y-92282380D01*
X84585238Y-92377619D01*
X84680476Y-92472857D01*
X84728095Y-92568095D01*
X84442380Y-91377619D02*
X84442380Y-91282380D01*
X84490000Y-91187142D01*
X84537619Y-91139523D01*
X84632857Y-91091904D01*
X84823333Y-91044285D01*
X85061428Y-91044285D01*
X85251904Y-91091904D01*
X85347142Y-91139523D01*
X85394761Y-91187142D01*
X85442380Y-91282380D01*
X85442380Y-91377619D01*
X85394761Y-91472857D01*
X85347142Y-91520476D01*
X85251904Y-91568095D01*
X85061428Y-91615714D01*
X84823333Y-91615714D01*
X84632857Y-91568095D01*
X84537619Y-91520476D01*
X84490000Y-91472857D01*
X84442380Y-91377619D01*
X84442380Y-90710952D02*
X84442380Y-90044285D01*
X85442380Y-90472857D01*
%TO.C,L302*%
X112080952Y-87052380D02*
X111604761Y-87052380D01*
X111604761Y-86052380D01*
X112319047Y-86052380D02*
X112938095Y-86052380D01*
X112604761Y-86433333D01*
X112747619Y-86433333D01*
X112842857Y-86480952D01*
X112890476Y-86528571D01*
X112938095Y-86623809D01*
X112938095Y-86861904D01*
X112890476Y-86957142D01*
X112842857Y-87004761D01*
X112747619Y-87052380D01*
X112461904Y-87052380D01*
X112366666Y-87004761D01*
X112319047Y-86957142D01*
X113557142Y-86052380D02*
X113652380Y-86052380D01*
X113747619Y-86100000D01*
X113795238Y-86147619D01*
X113842857Y-86242857D01*
X113890476Y-86433333D01*
X113890476Y-86671428D01*
X113842857Y-86861904D01*
X113795238Y-86957142D01*
X113747619Y-87004761D01*
X113652380Y-87052380D01*
X113557142Y-87052380D01*
X113461904Y-87004761D01*
X113414285Y-86957142D01*
X113366666Y-86861904D01*
X113319047Y-86671428D01*
X113319047Y-86433333D01*
X113366666Y-86242857D01*
X113414285Y-86147619D01*
X113461904Y-86100000D01*
X113557142Y-86052380D01*
X114271428Y-86147619D02*
X114319047Y-86100000D01*
X114414285Y-86052380D01*
X114652380Y-86052380D01*
X114747619Y-86100000D01*
X114795238Y-86147619D01*
X114842857Y-86242857D01*
X114842857Y-86338095D01*
X114795238Y-86480952D01*
X114223809Y-87052380D01*
X114842857Y-87052380D01*
X104705714Y-89108571D02*
X105039047Y-89108571D01*
X105181904Y-89632380D02*
X104705714Y-89632380D01*
X104705714Y-88632380D01*
X105181904Y-88632380D01*
X111012857Y-92898571D02*
X110679523Y-92898571D01*
X110679523Y-93422380D02*
X110679523Y-92422380D01*
X111155714Y-92422380D01*
%TO.C,R102*%
X97036666Y-68676666D02*
X96803333Y-68343333D01*
X96636666Y-68676666D02*
X96636666Y-67976666D01*
X96903333Y-67976666D01*
X96970000Y-68010000D01*
X97003333Y-68043333D01*
X97036666Y-68110000D01*
X97036666Y-68210000D01*
X97003333Y-68276666D01*
X96970000Y-68310000D01*
X96903333Y-68343333D01*
X96636666Y-68343333D01*
X97703333Y-68676666D02*
X97303333Y-68676666D01*
X97503333Y-68676666D02*
X97503333Y-67976666D01*
X97436666Y-68076666D01*
X97370000Y-68143333D01*
X97303333Y-68176666D01*
X98136666Y-67976666D02*
X98203333Y-67976666D01*
X98270000Y-68010000D01*
X98303333Y-68043333D01*
X98336666Y-68110000D01*
X98370000Y-68243333D01*
X98370000Y-68410000D01*
X98336666Y-68543333D01*
X98303333Y-68610000D01*
X98270000Y-68643333D01*
X98203333Y-68676666D01*
X98136666Y-68676666D01*
X98070000Y-68643333D01*
X98036666Y-68610000D01*
X98003333Y-68543333D01*
X97970000Y-68410000D01*
X97970000Y-68243333D01*
X98003333Y-68110000D01*
X98036666Y-68043333D01*
X98070000Y-68010000D01*
X98136666Y-67976666D01*
X98636666Y-68043333D02*
X98670000Y-68010000D01*
X98736666Y-67976666D01*
X98903333Y-67976666D01*
X98970000Y-68010000D01*
X99003333Y-68043333D01*
X99036666Y-68110000D01*
X99036666Y-68176666D01*
X99003333Y-68276666D01*
X98603333Y-68676666D01*
X99036666Y-68676666D01*
%TO.C,C112*%
X106186666Y-100350000D02*
X106153333Y-100383333D01*
X106053333Y-100416666D01*
X105986666Y-100416666D01*
X105886666Y-100383333D01*
X105820000Y-100316666D01*
X105786666Y-100250000D01*
X105753333Y-100116666D01*
X105753333Y-100016666D01*
X105786666Y-99883333D01*
X105820000Y-99816666D01*
X105886666Y-99750000D01*
X105986666Y-99716666D01*
X106053333Y-99716666D01*
X106153333Y-99750000D01*
X106186666Y-99783333D01*
X106853333Y-100416666D02*
X106453333Y-100416666D01*
X106653333Y-100416666D02*
X106653333Y-99716666D01*
X106586666Y-99816666D01*
X106520000Y-99883333D01*
X106453333Y-99916666D01*
X107520000Y-100416666D02*
X107120000Y-100416666D01*
X107320000Y-100416666D02*
X107320000Y-99716666D01*
X107253333Y-99816666D01*
X107186666Y-99883333D01*
X107120000Y-99916666D01*
X107786666Y-99783333D02*
X107820000Y-99750000D01*
X107886666Y-99716666D01*
X108053333Y-99716666D01*
X108120000Y-99750000D01*
X108153333Y-99783333D01*
X108186666Y-99850000D01*
X108186666Y-99916666D01*
X108153333Y-100016666D01*
X107753333Y-100416666D01*
X108186666Y-100416666D01*
%TO.C,U201*%
X64147500Y-93676666D02*
X64147500Y-94243333D01*
X64180833Y-94310000D01*
X64214166Y-94343333D01*
X64280833Y-94376666D01*
X64414166Y-94376666D01*
X64480833Y-94343333D01*
X64514166Y-94310000D01*
X64547500Y-94243333D01*
X64547500Y-93676666D01*
X64847500Y-93743333D02*
X64880833Y-93710000D01*
X64947500Y-93676666D01*
X65114166Y-93676666D01*
X65180833Y-93710000D01*
X65214166Y-93743333D01*
X65247500Y-93810000D01*
X65247500Y-93876666D01*
X65214166Y-93976666D01*
X64814166Y-94376666D01*
X65247500Y-94376666D01*
X65680833Y-93676666D02*
X65747500Y-93676666D01*
X65814166Y-93710000D01*
X65847500Y-93743333D01*
X65880833Y-93810000D01*
X65914166Y-93943333D01*
X65914166Y-94110000D01*
X65880833Y-94243333D01*
X65847500Y-94310000D01*
X65814166Y-94343333D01*
X65747500Y-94376666D01*
X65680833Y-94376666D01*
X65614166Y-94343333D01*
X65580833Y-94310000D01*
X65547500Y-94243333D01*
X65514166Y-94110000D01*
X65514166Y-93943333D01*
X65547500Y-93810000D01*
X65580833Y-93743333D01*
X65614166Y-93710000D01*
X65680833Y-93676666D01*
X66580833Y-94376666D02*
X66180833Y-94376666D01*
X66380833Y-94376666D02*
X66380833Y-93676666D01*
X66314166Y-93776666D01*
X66247500Y-93843333D01*
X66180833Y-93876666D01*
D14*
%TO.C,J104*%
X59940000Y-113050000D02*
X59940000Y-110450000D01*
X62600000Y-113050000D02*
X62600000Y-110450000D01*
X59940000Y-115650000D02*
X59940000Y-114320000D01*
X61270000Y-115650000D02*
X59940000Y-115650000D01*
X62600000Y-110450000D02*
X59940000Y-110450000D01*
X62600000Y-113050000D02*
X59940000Y-113050000D01*
%TO.C,U203*%
X90376000Y-79200000D02*
X91041000Y-79200000D01*
X87741000Y-79200000D02*
X87741000Y-78950000D01*
X91041000Y-76150000D02*
X91041000Y-75900000D01*
X90376000Y-75900000D02*
X91041000Y-75900000D01*
X87741000Y-75900000D02*
X88406000Y-75900000D01*
X87741000Y-79200000D02*
X88406000Y-79200000D01*
X91041000Y-78950000D02*
X91041000Y-79200000D01*
D15*
X87412980Y-75800000D02*
G75*
G03*
X87412980Y-75800000I-101980J0D01*
G01*
D14*
%TO.C,JP301*%
X117740000Y-107370000D02*
X117740000Y-108770000D01*
X115740000Y-108770000D02*
X115740000Y-107370000D01*
X117040000Y-109470000D02*
X116440000Y-109470000D01*
X116440000Y-106670000D02*
X117040000Y-106670000D01*
X115740000Y-108770000D02*
G75*
G03*
X116440000Y-109470000I699999J-1D01*
G01*
X117740000Y-107370000D02*
G75*
G03*
X117040000Y-106670000I-700000J0D01*
G01*
X117040000Y-109470000D02*
G75*
G03*
X117740000Y-108770000I1J699999D01*
G01*
X116440000Y-106670000D02*
G75*
G03*
X115740000Y-107370000I0J-700000D01*
G01*
%TO.C,J302*%
X108820000Y-115270000D02*
X110150000Y-115270000D01*
X107550000Y-115270000D02*
X102410000Y-115270000D01*
X107550000Y-115270000D02*
X107550000Y-117930000D01*
X102410000Y-115270000D02*
X102410000Y-117930000D01*
X107550000Y-117930000D02*
X102410000Y-117930000D01*
X110150000Y-115270000D02*
X110150000Y-116600000D01*
%TO.C,D106*%
X52775000Y-92815000D02*
X52775000Y-94285000D01*
X55060000Y-92815000D02*
X52775000Y-92815000D01*
X52775000Y-94285000D02*
X55060000Y-94285000D01*
%TO.C,R104*%
X64765436Y-111705000D02*
X65219564Y-111705000D01*
X64765436Y-110235000D02*
X65219564Y-110235000D01*
%TO.C,C102*%
X72921252Y-66295000D02*
X72398748Y-66295000D01*
X72921252Y-64825000D02*
X72398748Y-64825000D01*
%TO.C,U202*%
X75350000Y-98300000D02*
X75350000Y-97500000D01*
X75350000Y-98300000D02*
X75350000Y-99100000D01*
X78470000Y-98300000D02*
X78470000Y-99100000D01*
X78470000Y-98300000D02*
X78470000Y-96500000D01*
D15*
X78970416Y-96510000D02*
G75*
G03*
X78970416Y-96510000I-120416J0D01*
G01*
D14*
%TO.C,D103*%
X64225000Y-113300000D02*
X64225000Y-115985000D01*
D10*
X66295000Y-114580000D02*
X67315000Y-114580000D01*
D14*
X66145000Y-115985000D02*
X66145000Y-113300000D01*
X64225000Y-115985000D02*
X66145000Y-115985000D01*
D10*
X66775000Y-115240000D02*
X66775000Y-113240000D01*
G36*
X67325000Y-113810000D02*
G01*
X66760493Y-114552802D01*
X66325000Y-113800000D01*
X67325000Y-113810000D01*
G37*
X67325000Y-113810000D02*
X66760493Y-114552802D01*
X66325000Y-113800000D01*
X67325000Y-113810000D01*
D14*
%TO.C,C108*%
X92505000Y-106778748D02*
X92505000Y-107301252D01*
X91035000Y-106778748D02*
X91035000Y-107301252D01*
%TO.C,J112*%
X58820000Y-69255000D02*
X58820000Y-66655000D01*
X58820000Y-69255000D02*
X56160000Y-69255000D01*
X56160000Y-69255000D02*
X56160000Y-66655000D01*
X58820000Y-71855000D02*
X57490000Y-71855000D01*
X58820000Y-66655000D02*
X56160000Y-66655000D01*
X58820000Y-70525000D02*
X58820000Y-71855000D01*
%TO.C,R202*%
X97185000Y-81587064D02*
X97185000Y-81132936D01*
X98655000Y-81587064D02*
X98655000Y-81132936D01*
%TO.C,J202*%
X82280000Y-79635000D02*
X82280000Y-80965000D01*
X82280000Y-78365000D02*
X79620000Y-78365000D01*
X79620000Y-78365000D02*
X79620000Y-73225000D01*
X82280000Y-73225000D02*
X79620000Y-73225000D01*
X82280000Y-78365000D02*
X82280000Y-73225000D01*
X82280000Y-80965000D02*
X80950000Y-80965000D01*
%TO.C,L202*%
X86615000Y-69655000D02*
X92165000Y-69655000D01*
X92165000Y-69655000D02*
X92165000Y-70055000D01*
X86615000Y-75205000D02*
X86615000Y-74805000D01*
X86615000Y-69655000D02*
X86615000Y-70055000D01*
X92165000Y-75205000D02*
X86615000Y-75205000D01*
X92165000Y-75205000D02*
X92165000Y-74805000D01*
%TO.C,D110*%
X53115000Y-88355000D02*
X53115000Y-89825000D01*
X55400000Y-88355000D02*
X53115000Y-88355000D01*
X53115000Y-89825000D02*
X55400000Y-89825000D01*
%TO.C,D201*%
X99450000Y-71420000D02*
X99450000Y-73820000D01*
X96150000Y-72020000D02*
X96150000Y-73820000D01*
X99450000Y-73820000D02*
X98400000Y-73820000D01*
X96150000Y-73820000D02*
X97200000Y-73820000D01*
%TO.C,R103*%
X94155000Y-70857064D02*
X94155000Y-70402936D01*
X95625000Y-70857064D02*
X95625000Y-70402936D01*
%TO.C,D202*%
X115540000Y-82520000D02*
X115540000Y-79220000D01*
D10*
X112560000Y-81510000D02*
X112560000Y-80300000D01*
D14*
X115540000Y-79220000D02*
X110140000Y-79220000D01*
X115540000Y-82520000D02*
X110140000Y-82520000D01*
D10*
X112810000Y-80890000D02*
X111470000Y-80880000D01*
G36*
X112550000Y-80870000D02*
G01*
X112460000Y-80920000D01*
X111720000Y-81450000D01*
X111720000Y-80250000D01*
X112550000Y-80870000D01*
G37*
X112550000Y-80870000D02*
X112460000Y-80920000D01*
X111720000Y-81450000D01*
X111720000Y-80250000D01*
X112550000Y-80870000D01*
D14*
%TO.C,D109*%
X56105000Y-83105000D02*
X53820000Y-83105000D01*
X53820000Y-84575000D02*
X56105000Y-84575000D01*
X56105000Y-84575000D02*
X56105000Y-83105000D01*
%TO.C,P101*%
X59000000Y-106460000D02*
X64200000Y-106460000D01*
X64200000Y-105890000D02*
X64200000Y-106460000D01*
X57560000Y-99290000D02*
X59000000Y-99290000D01*
X64200000Y-100810000D02*
X64200000Y-101830000D01*
X64200000Y-103350000D02*
X64200000Y-104370000D01*
X64200000Y-98720000D02*
X64200000Y-99290000D01*
X59000000Y-103350000D02*
X59000000Y-104370000D01*
X59000000Y-105890000D02*
X59000000Y-106460000D01*
X59000000Y-100810000D02*
X59000000Y-101830000D01*
X59000000Y-98720000D02*
X59000000Y-99290000D01*
X59000000Y-98720000D02*
X64200000Y-98720000D01*
D15*
X58031421Y-98680000D02*
G75*
G03*
X58031421Y-98680000I-141421J0D01*
G01*
D14*
%TO.C,J101*%
X95660000Y-64600000D02*
X93060000Y-64600000D01*
X95660000Y-61940000D02*
X93060000Y-61940000D01*
X98260000Y-63270000D02*
X98260000Y-64600000D01*
X98260000Y-64600000D02*
X96930000Y-64600000D01*
X95660000Y-61940000D02*
X95660000Y-64600000D01*
X93060000Y-61940000D02*
X93060000Y-64600000D01*
D12*
%TO.C,W101*%
X91396122Y-102021980D02*
X91135695Y-101761553D01*
X87514106Y-98154106D02*
X87253678Y-97893678D01*
D15*
X93308143Y-102910000D02*
G75*
G03*
X93308143Y-102910000I-1038143J0D01*
G01*
D14*
%TO.C,C301*%
X115815000Y-103641252D02*
X115815000Y-103118748D01*
X117285000Y-103641252D02*
X117285000Y-103118748D01*
%TO.C,C105*%
X84525000Y-101641252D02*
X84525000Y-101118748D01*
X85995000Y-101641252D02*
X85995000Y-101118748D01*
%TO.C,C101*%
X61621252Y-66415000D02*
X61098748Y-66415000D01*
X61621252Y-67885000D02*
X61098748Y-67885000D01*
%TO.C,Q102*%
X104350000Y-66490000D02*
X104350000Y-65080000D01*
X102030000Y-65080000D02*
X102690000Y-65080000D01*
X102030000Y-65080000D02*
X102030000Y-67110000D01*
X103690000Y-65080000D02*
X104350000Y-65080000D01*
%TO.C,C203*%
X70455000Y-96311252D02*
X70455000Y-95788748D01*
X68985000Y-96311252D02*
X68985000Y-95788748D01*
%TO.C,J201*%
X110680000Y-60360000D02*
X119880000Y-60360000D01*
X119880000Y-73060000D02*
X119480000Y-73060000D01*
X112680000Y-75060000D02*
X111080000Y-75060000D01*
X119880000Y-70610000D02*
X119880000Y-73060000D01*
X119480000Y-73060000D02*
X119480000Y-75060000D01*
X119480000Y-75060000D02*
X116480000Y-75060000D01*
X111080000Y-75060000D02*
X111080000Y-73060000D01*
X110680000Y-63910000D02*
X110680000Y-60360000D01*
X116470000Y-78700000D02*
X114730000Y-78700000D01*
X116470000Y-76960000D02*
X116470000Y-78700000D01*
X119880000Y-60360000D02*
X119880000Y-63910000D01*
X110680000Y-73060000D02*
X110680000Y-70610000D01*
X111080000Y-73060000D02*
X110680000Y-73060000D01*
%TO.C,R203*%
X93015000Y-81132936D02*
X93015000Y-81587064D01*
X94485000Y-81132936D02*
X94485000Y-81587064D01*
%TO.C,C210*%
X76498748Y-100755000D02*
X77021252Y-100755000D01*
X76498748Y-102225000D02*
X77021252Y-102225000D01*
%TO.C,C212*%
X93345000Y-77358748D02*
X93345000Y-77881252D01*
X91875000Y-77358748D02*
X91875000Y-77881252D01*
%TO.C,J103*%
X105285000Y-69920000D02*
X102625000Y-69920000D01*
X105285000Y-72520000D02*
X105285000Y-69920000D01*
X105285000Y-72520000D02*
X102625000Y-72520000D01*
X103955000Y-75120000D02*
X102625000Y-75120000D01*
X102625000Y-72520000D02*
X102625000Y-69920000D01*
X102625000Y-75120000D02*
X102625000Y-73790000D01*
%TO.C,C213*%
X95385000Y-77891252D02*
X95385000Y-77368748D01*
X93915000Y-77891252D02*
X93915000Y-77368748D01*
%TO.C,C103*%
X60918748Y-74755000D02*
X61441252Y-74755000D01*
X60918748Y-73285000D02*
X61441252Y-73285000D01*
%TO.C,R106*%
X57995000Y-90692936D02*
X57995000Y-91147064D01*
X56525000Y-90692936D02*
X56525000Y-91147064D01*
%TO.C,C116*%
X52721252Y-64065000D02*
X52198748Y-64065000D01*
X52721252Y-62595000D02*
X52198748Y-62595000D01*
%TO.C,C204*%
X121285000Y-80728748D02*
X121285000Y-81251252D01*
X122755000Y-80728748D02*
X122755000Y-81251252D01*
D12*
%TO.C,W302*%
X114413878Y-104018020D02*
X114674305Y-104278447D01*
X118295894Y-107885894D02*
X118556322Y-108146322D01*
D15*
X114578143Y-103130000D02*
G75*
G03*
X114578143Y-103130000I-1038143J0D01*
G01*
D14*
%TO.C,C107*%
X82551252Y-105655000D02*
X82028748Y-105655000D01*
X82551252Y-104185000D02*
X82028748Y-104185000D01*
%TO.C,C211*%
X95105000Y-81128748D02*
X95105000Y-81651252D01*
X96575000Y-81128748D02*
X96575000Y-81651252D01*
%TO.C,Q101*%
X101570000Y-67370000D02*
X101570000Y-65340000D01*
X99910000Y-67370000D02*
X99250000Y-67370000D01*
X101570000Y-67370000D02*
X100910000Y-67370000D01*
X99250000Y-65960000D02*
X99250000Y-67370000D01*
D12*
%TO.C,W301*%
X128325850Y-98990000D02*
X128694150Y-98990000D01*
X122845850Y-99000000D02*
X123214150Y-99000000D01*
D15*
X122638142Y-98990000D02*
G75*
G03*
X122638142Y-98990000I-1038142J0D01*
G01*
D14*
%TO.C,D104*%
X73565000Y-113300000D02*
X73565000Y-115985000D01*
X75485000Y-115985000D02*
X75485000Y-113300000D01*
X73565000Y-115985000D02*
X75485000Y-115985000D01*
D10*
X75685000Y-114640000D02*
X76705000Y-114640000D01*
X76165000Y-115300000D02*
X76165000Y-113300000D01*
G36*
X76715000Y-113870000D02*
G01*
X76150493Y-114612802D01*
X75715000Y-113860000D01*
X76715000Y-113870000D01*
G37*
X76715000Y-113870000D02*
X76150493Y-114612802D01*
X75715000Y-113860000D01*
X76715000Y-113870000D01*
D14*
%TO.C,R105*%
X74107936Y-110235000D02*
X74562064Y-110235000D01*
X74107936Y-111705000D02*
X74562064Y-111705000D01*
%TO.C,C205*%
X85305000Y-77961252D02*
X85305000Y-77438748D01*
X86775000Y-77961252D02*
X86775000Y-77438748D01*
D10*
%TO.C,X101*%
X61570000Y-68390000D02*
X63170000Y-68390000D01*
X61570000Y-69330000D02*
X61570000Y-68390000D01*
X63170000Y-69330000D02*
X61570000Y-69330000D01*
X63170000Y-68390000D02*
X63170000Y-69330000D01*
D15*
X61322195Y-69560000D02*
G75*
G03*
X61322195Y-69560000I-92195J0D01*
G01*
D14*
%TO.C,C106*%
X88155000Y-101881252D02*
X88155000Y-101358748D01*
X86685000Y-101881252D02*
X86685000Y-101358748D01*
%TO.C,R107*%
X94161252Y-113535000D02*
X93638748Y-113535000D01*
X94161252Y-115005000D02*
X93638748Y-115005000D01*
%TO.C,C215*%
X99765000Y-77841252D02*
X99765000Y-77318748D01*
X98295000Y-77841252D02*
X98295000Y-77318748D01*
%TO.C,C202*%
X64701252Y-91825000D02*
X64178748Y-91825000D01*
X64701252Y-90355000D02*
X64178748Y-90355000D01*
%TO.C,C207*%
X84425000Y-73838748D02*
X84425000Y-74361252D01*
X85895000Y-73838748D02*
X85895000Y-74361252D01*
%TO.C,C209*%
X73451252Y-98655000D02*
X72928748Y-98655000D01*
X73451252Y-100125000D02*
X72928748Y-100125000D01*
%TO.C,U105*%
X56320000Y-65690000D02*
X57120000Y-65690000D01*
X56320000Y-62570000D02*
X54520000Y-62570000D01*
X56320000Y-62570000D02*
X57120000Y-62570000D01*
X56320000Y-65690000D02*
X55520000Y-65690000D01*
D15*
X54590000Y-62310000D02*
G75*
G03*
X54590000Y-62310000I-30000J0D01*
G01*
D14*
%TO.C,D101*%
X104280000Y-69010000D02*
X104280000Y-67810000D01*
D10*
X103380000Y-68710000D02*
X103380000Y-68110000D01*
D12*
X103480000Y-68410000D02*
X102780000Y-68410000D01*
D14*
X102430000Y-69010000D02*
X104280000Y-69010000D01*
X102430000Y-67810000D02*
X104280000Y-67810000D01*
G36*
X103352802Y-68424507D02*
G01*
X102860000Y-68670000D01*
X102870000Y-68170000D01*
X103352802Y-68424507D01*
G37*
D10*
X103352802Y-68424507D02*
X102860000Y-68670000D01*
X102870000Y-68170000D01*
X103352802Y-68424507D01*
D14*
%TO.C,R205*%
X75312936Y-86965000D02*
X75767064Y-86965000D01*
X75312936Y-85495000D02*
X75767064Y-85495000D01*
%TO.C,J108*%
X103220000Y-108905000D02*
X100560000Y-108905000D01*
X103220000Y-111505000D02*
X103220000Y-108905000D01*
X103220000Y-114105000D02*
X101890000Y-114105000D01*
X100560000Y-111505000D02*
X100560000Y-108905000D01*
X103220000Y-111505000D02*
X100560000Y-111505000D01*
X103220000Y-112775000D02*
X103220000Y-114105000D01*
%TO.C,J105*%
X76725000Y-68760000D02*
X76725000Y-71360000D01*
X76725000Y-71360000D02*
X79385000Y-71360000D01*
X79385000Y-66160000D02*
X79385000Y-67490000D01*
X79385000Y-68760000D02*
X79385000Y-71360000D01*
X76725000Y-68760000D02*
X79385000Y-68760000D01*
X78055000Y-66160000D02*
X79385000Y-66160000D01*
%TO.C,C109*%
X89168748Y-98025000D02*
X89691252Y-98025000D01*
X89168748Y-96555000D02*
X89691252Y-96555000D01*
%TO.C,C201*%
X62705000Y-96261252D02*
X62705000Y-95738748D01*
X64175000Y-96261252D02*
X64175000Y-95738748D01*
%TO.C,L201*%
X120525000Y-81065000D02*
X120525000Y-82055000D01*
X115895000Y-81055000D02*
X115895000Y-82045000D01*
D12*
%TO.C,X102*%
X79710000Y-100040000D02*
X79910000Y-99840000D01*
X79700000Y-102830000D02*
X79700000Y-100030000D01*
X83700000Y-100030000D02*
X83700000Y-102830000D01*
X83500000Y-99830000D02*
X83700000Y-100030000D01*
X83710000Y-102850000D02*
X83510000Y-103050000D01*
X79910000Y-99840000D02*
X83500000Y-99830000D01*
X83510000Y-103070000D02*
X79890000Y-103040000D01*
X79890000Y-103040000D02*
X79690000Y-102840000D01*
D15*
X84030000Y-99640000D02*
G75*
G03*
X84030000Y-99640000I-120000J0D01*
G01*
D14*
%TO.C,D102*%
X97600000Y-67040000D02*
X97600000Y-65840000D01*
X95750000Y-65840000D02*
X97600000Y-65840000D01*
D12*
X96790000Y-66430000D02*
X96110000Y-66430000D01*
D10*
X96710000Y-66730000D02*
X96710000Y-66130000D01*
D14*
X95750000Y-67040000D02*
X97600000Y-67040000D01*
G36*
X96682802Y-66444507D02*
G01*
X96190000Y-66690000D01*
X96200000Y-66190000D01*
X96682802Y-66444507D01*
G37*
D10*
X96682802Y-66444507D02*
X96190000Y-66690000D01*
X96200000Y-66190000D01*
X96682802Y-66444507D01*
D14*
%TO.C,U103*%
X93407500Y-99910000D02*
X94207500Y-99910000D01*
X93407500Y-99910000D02*
X92607500Y-99910000D01*
X93407500Y-96790000D02*
X94207500Y-96790000D01*
X93407500Y-96790000D02*
X91607500Y-96790000D01*
D15*
X91817500Y-96370000D02*
G75*
G03*
X91817500Y-96370000I-90000J0D01*
G01*
D14*
%TO.C,J106*%
X69080000Y-115650000D02*
X69080000Y-114320000D01*
X71740000Y-110450000D02*
X69080000Y-110450000D01*
X71740000Y-113050000D02*
X71740000Y-110450000D01*
X69080000Y-113050000D02*
X69080000Y-110450000D01*
X70410000Y-115650000D02*
X69080000Y-115650000D01*
X71740000Y-113050000D02*
X69080000Y-113050000D01*
%TO.C,U101*%
X69420000Y-66800000D02*
X65560000Y-66800000D01*
X69420000Y-84920000D02*
X65560000Y-84920000D01*
X73280000Y-84675000D02*
X75095000Y-84675000D01*
X69420000Y-66800000D02*
X73280000Y-66800000D01*
X73280000Y-66800000D02*
X73280000Y-67045000D01*
X65510000Y-84920000D02*
X65510000Y-84675000D01*
X65510000Y-66800000D02*
X65510000Y-67045000D01*
X69420000Y-84920000D02*
X73280000Y-84920000D01*
X73280000Y-84920000D02*
X73280000Y-84675000D01*
D15*
X74686015Y-85180000D02*
G75*
G03*
X74686015Y-85180000I-136015J0D01*
G01*
D14*
%TO.C,D108*%
X56065000Y-86755000D02*
X56065000Y-85285000D01*
X53780000Y-86755000D02*
X56065000Y-86755000D01*
X56065000Y-85285000D02*
X53780000Y-85285000D01*
%TO.C,R201*%
X85537064Y-81685000D02*
X85082936Y-81685000D01*
X85537064Y-80215000D02*
X85082936Y-80215000D01*
%TO.C,C104*%
X101735000Y-71858748D02*
X101735000Y-72381252D01*
X100265000Y-71858748D02*
X100265000Y-72381252D01*
%TO.C,R108*%
X97691252Y-115005000D02*
X97168748Y-115005000D01*
X97691252Y-113535000D02*
X97168748Y-113535000D01*
D10*
%TO.C,Q103*%
X103278000Y-108214000D02*
X103278000Y-106563000D01*
X103405000Y-103896000D02*
X103405000Y-104531000D01*
X99595000Y-97546000D02*
X103278000Y-97546000D01*
X99595000Y-104404000D02*
X99595000Y-104531000D01*
X99595000Y-101991000D02*
X99595000Y-101229000D01*
X98452000Y-102880000D02*
X98452000Y-97546000D01*
X98452000Y-97546000D02*
X99595000Y-97546000D01*
X99595000Y-108214000D02*
X99595000Y-106436000D01*
X99595000Y-97546000D02*
X99595000Y-99451000D01*
X103278000Y-108214000D02*
X99595000Y-108214000D01*
X98452000Y-101356000D02*
X99595000Y-101356000D01*
X98452000Y-104404000D02*
X99595000Y-104404000D01*
X103405000Y-101356000D02*
X103405000Y-101991000D01*
X99595000Y-104404000D02*
X99595000Y-103769000D01*
X99595000Y-108214000D02*
X98452000Y-108214000D01*
X98452000Y-102880000D02*
X98452000Y-108214000D01*
X103278000Y-97546000D02*
X103278000Y-99197000D01*
D15*
X99156619Y-107320000D02*
G75*
G03*
X99156619Y-107320000I-116619J0D01*
G01*
D14*
%TO.C,U104*%
X96120000Y-105210000D02*
X95320000Y-105210000D01*
X96120000Y-108330000D02*
X97920000Y-108330000D01*
X96120000Y-105210000D02*
X96920000Y-105210000D01*
X96120000Y-108330000D02*
X95320000Y-108330000D01*
D15*
X97980623Y-108640000D02*
G75*
G03*
X97980623Y-108640000I-80623J0D01*
G01*
D14*
%TO.C,R204*%
X93127064Y-85895000D02*
X92672936Y-85895000D01*
X93127064Y-87365000D02*
X92672936Y-87365000D01*
D10*
%TO.C,U102*%
X89185000Y-103825000D02*
X89185000Y-104125000D01*
X85835000Y-104050000D02*
X84610000Y-104050000D01*
X85835000Y-103825000D02*
X89185000Y-103825000D01*
X89185000Y-107175000D02*
X89185000Y-106875000D01*
X85835000Y-107175000D02*
X89185000Y-107175000D01*
X85835000Y-103825000D02*
X85835000Y-104050000D01*
X85835000Y-107175000D02*
X85835000Y-106875000D01*
D15*
X85000990Y-103720000D02*
G75*
G03*
X85000990Y-103720000I-50990J0D01*
G01*
D14*
%TO.C,J301*%
X126745000Y-86587500D02*
X126745000Y-92237500D01*
X137775000Y-89412500D02*
X137075000Y-88912500D01*
X137775000Y-89412500D02*
X137075000Y-89912500D01*
X129650000Y-95142500D02*
X135300000Y-95142500D01*
X137975000Y-92237500D02*
X137975000Y-86587500D01*
X135300000Y-83682500D02*
X129650000Y-83682500D01*
%TO.C,J113*%
X61905000Y-65040000D02*
X59305000Y-65040000D01*
X61905000Y-62380000D02*
X59305000Y-62380000D01*
X63175000Y-62380000D02*
X64505000Y-62380000D01*
X61905000Y-62380000D02*
X61905000Y-65040000D01*
X64505000Y-62380000D02*
X64505000Y-63710000D01*
X59305000Y-62380000D02*
X59305000Y-65040000D01*
%TO.C,D105*%
X55725000Y-90065000D02*
X53440000Y-90065000D01*
X53440000Y-91535000D02*
X55725000Y-91535000D01*
X55725000Y-91535000D02*
X55725000Y-90065000D01*
D10*
%TO.C,C111*%
X108790000Y-111440000D02*
X108790000Y-106840000D01*
X104490000Y-106840000D02*
X104490000Y-111440000D01*
D14*
%TO.C,J109*%
X97540000Y-90685000D02*
X100200000Y-90685000D01*
X100200000Y-90685000D02*
X100200000Y-95825000D01*
X97540000Y-95825000D02*
X100200000Y-95825000D01*
X97540000Y-88085000D02*
X98870000Y-88085000D01*
X97540000Y-90685000D02*
X97540000Y-95825000D01*
X97540000Y-89415000D02*
X97540000Y-88085000D01*
%TO.C,C110*%
X96611252Y-111590000D02*
X95188748Y-111590000D01*
X96611252Y-108870000D02*
X95188748Y-108870000D01*
%TO.C,C206*%
X76558748Y-95885000D02*
X77081252Y-95885000D01*
X76558748Y-94415000D02*
X77081252Y-94415000D01*
%TO.C,C208*%
X92435000Y-81118748D02*
X92435000Y-81641252D01*
X90965000Y-81118748D02*
X90965000Y-81641252D01*
%TO.C,TP101*%
X93020000Y-118010000D02*
X93020000Y-115350000D01*
X93020000Y-118010000D02*
X100700000Y-118010000D01*
X91750000Y-118010000D02*
X90420000Y-118010000D01*
X93020000Y-115350000D02*
X100700000Y-115350000D01*
X90420000Y-118010000D02*
X90420000Y-116680000D01*
X100700000Y-118010000D02*
X100700000Y-115350000D01*
%TO.C,R101*%
X100747064Y-63765000D02*
X100292936Y-63765000D01*
X100747064Y-62295000D02*
X100292936Y-62295000D01*
%TO.C,C214*%
X97615000Y-77831252D02*
X97615000Y-77308748D01*
X96145000Y-77831252D02*
X96145000Y-77308748D01*
%TO.C,D107*%
X93800000Y-95200000D02*
X96630000Y-95200000D01*
X93800000Y-95470000D02*
X93800000Y-95200000D01*
X93800000Y-88570000D02*
X93800000Y-88840000D01*
X92300000Y-88570000D02*
X93800000Y-88570000D01*
X92300000Y-95470000D02*
X93800000Y-95470000D01*
X93800000Y-88840000D02*
X94900000Y-88840000D01*
D15*
%TO.C,L302*%
X105595581Y-92169960D02*
G75*
G03*
X105880000Y-90130000I7588245J-18175D01*
G01*
X109402296Y-94084266D02*
G75*
G03*
X108970000Y-92060000I3873692J1885547D01*
G01*
D14*
%TO.C,R102*%
X97622936Y-68945000D02*
X98077064Y-68945000D01*
X97622936Y-70415000D02*
X98077064Y-70415000D01*
%TO.C,C112*%
X107885000Y-102491252D02*
X107885000Y-101968748D01*
X109355000Y-102491252D02*
X109355000Y-101968748D01*
%TO.C,U201*%
X66590000Y-95570000D02*
X68390000Y-95570000D01*
X66590000Y-92450000D02*
X67390000Y-92450000D01*
X66590000Y-92450000D02*
X65790000Y-92450000D01*
X66590000Y-95570000D02*
X65790000Y-95570000D01*
D15*
X68292801Y-95950000D02*
G75*
G03*
X68292801Y-95950000I-72801J0D01*
G01*
%TD*%
M02*
