%TF.GenerationSoftware,KiCad,Pcbnew,(6.0.4-0)*%
%TF.CreationDate,2023-06-22T08:09:36-04:00*%
%TF.ProjectId,SignalSlinger,5369676e-616c-4536-9c69-6e6765722e6b,rev?*%
%TF.SameCoordinates,Original*%
%TF.FileFunction,Paste,Top*%
%TF.FilePolarity,Positive*%
%FSLAX46Y46*%
G04 Gerber Fmt 4.6, Leading zero omitted, Abs format (unit mm)*
G04 Created by KiCad (PCBNEW (6.0.4-0)) date 2023-06-22 08:09:36*
%MOMM*%
%LPD*%
G01*
G04 APERTURE LIST*
G04 Aperture macros list*
%AMRoundRect*
0 Rectangle with rounded corners*
0 $1 Rounding radius*
0 $2 $3 $4 $5 $6 $7 $8 $9 X,Y pos of 4 corners*
0 Add a 4 corners polygon primitive as box body*
4,1,4,$2,$3,$4,$5,$6,$7,$8,$9,$2,$3,0*
0 Add four circle primitives for the rounded corners*
1,1,$1+$1,$2,$3*
1,1,$1+$1,$4,$5*
1,1,$1+$1,$6,$7*
1,1,$1+$1,$8,$9*
0 Add four rect primitives between the rounded corners*
20,1,$1+$1,$2,$3,$4,$5,0*
20,1,$1+$1,$4,$5,$6,$7,0*
20,1,$1+$1,$6,$7,$8,$9,0*
20,1,$1+$1,$8,$9,$2,$3,0*%
G04 Aperture macros list end*
%ADD10R,0.230000X0.230000*%
%ADD11O,0.800000X0.230000*%
%ADD12R,0.230000X0.600000*%
%ADD13R,0.650000X0.900000*%
%ADD14R,0.150000X0.600000*%
%ADD15RoundRect,0.218750X-0.218750X-0.256250X0.218750X-0.256250X0.218750X0.256250X-0.218750X0.256250X0*%
%ADD16RoundRect,0.250000X-0.262500X-0.450000X0.262500X-0.450000X0.262500X0.450000X-0.262500X0.450000X0*%
%ADD17RoundRect,0.250000X0.337500X0.475000X-0.337500X0.475000X-0.337500X-0.475000X0.337500X-0.475000X0*%
%ADD18RoundRect,0.150000X-0.150000X0.512500X-0.150000X-0.512500X0.150000X-0.512500X0.150000X0.512500X0*%
%ADD19RoundRect,0.243750X0.456250X-0.243750X0.456250X0.243750X-0.456250X0.243750X-0.456250X-0.243750X0*%
%ADD20RoundRect,0.250000X-0.475000X0.250000X-0.475000X-0.250000X0.475000X-0.250000X0.475000X0.250000X0*%
%ADD21RoundRect,0.250000X0.450000X-0.262500X0.450000X0.262500X-0.450000X0.262500X-0.450000X-0.262500X0*%
%ADD22R,1.500000X4.200000*%
%ADD23R,0.800000X0.900000*%
%ADD24RoundRect,0.218750X0.218750X0.256250X-0.218750X0.256250X-0.218750X-0.256250X0.218750X-0.256250X0*%
%ADD25R,3.150000X1.000000*%
%ADD26C,1.524000*%
%ADD27RoundRect,0.250000X0.475000X-0.250000X0.475000X0.250000X-0.475000X0.250000X-0.475000X-0.250000X0*%
%ADD28R,0.450000X0.700000*%
%ADD29RoundRect,0.250000X0.475000X-0.337500X0.475000X0.337500X-0.475000X0.337500X-0.475000X-0.337500X0*%
%ADD30R,3.300000X4.400000*%
%ADD31R,3.900000X6.200000*%
%ADD32RoundRect,0.250000X-0.450000X0.262500X-0.450000X-0.262500X0.450000X-0.262500X0.450000X0.262500X0*%
%ADD33RoundRect,0.250000X-0.337500X-0.475000X0.337500X-0.475000X0.337500X0.475000X-0.337500X0.475000X0*%
%ADD34RoundRect,0.250000X0.250000X0.475000X-0.250000X0.475000X-0.250000X-0.475000X0.250000X-0.475000X0*%
%ADD35C,0.250000*%
%ADD36R,0.600000X0.700000*%
%ADD37RoundRect,0.250000X-0.250000X-0.475000X0.250000X-0.475000X0.250000X0.475000X-0.250000X0.475000X0*%
%ADD38R,4.400000X1.500000*%
%ADD39R,1.000000X0.900000*%
%ADD40RoundRect,0.150000X-0.512500X-0.150000X0.512500X-0.150000X0.512500X0.150000X-0.512500X0.150000X0*%
%ADD41RoundRect,0.150000X0.875000X0.150000X-0.875000X0.150000X-0.875000X-0.150000X0.875000X-0.150000X0*%
%ADD42RoundRect,0.250000X0.262500X0.450000X-0.262500X0.450000X-0.262500X-0.450000X0.262500X-0.450000X0*%
%ADD43RoundRect,0.150000X0.400000X0.150000X-0.400000X0.150000X-0.400000X-0.150000X0.400000X-0.150000X0*%
%ADD44R,1.400000X0.300000*%
%ADD45R,2.550000X2.770000*%
%ADD46RoundRect,0.250000X0.325000X1.100000X-0.325000X1.100000X-0.325000X-1.100000X0.325000X-1.100000X0*%
%ADD47R,3.050000X2.750000*%
%ADD48R,2.200000X1.200000*%
%ADD49RoundRect,0.150000X0.512500X0.150000X-0.512500X0.150000X-0.512500X-0.150000X0.512500X-0.150000X0*%
G04 APERTURE END LIST*
D10*
%TO.C,U203*%
X87631000Y-76550000D03*
D11*
X87916000Y-76550000D03*
X87916000Y-77050000D03*
D10*
X87631000Y-77050000D03*
D11*
X87916000Y-77550000D03*
D10*
X87631000Y-77550000D03*
X87631000Y-78050000D03*
D11*
X87916000Y-78050000D03*
X87916000Y-78550000D03*
D10*
X87631000Y-78550000D03*
D11*
X90866000Y-78550000D03*
D10*
X91151000Y-78550000D03*
X91151000Y-78050000D03*
D11*
X90866000Y-78050000D03*
X90866000Y-77550000D03*
D10*
X91151000Y-77550000D03*
X91151000Y-77050000D03*
D11*
X90866000Y-77050000D03*
D10*
X91151000Y-76550000D03*
D11*
X90866000Y-76550000D03*
D12*
X89991000Y-76125000D03*
X89591000Y-78975000D03*
X89591000Y-76125000D03*
D13*
X89826000Y-76990000D03*
D14*
X89991000Y-76125000D03*
D13*
X88956000Y-76990000D03*
D14*
X89591000Y-78975000D03*
D12*
X89191000Y-76125000D03*
D13*
X88956000Y-78110000D03*
D14*
X89991000Y-78975000D03*
D12*
X89991000Y-78975000D03*
D13*
X89826000Y-78110000D03*
D12*
X88791000Y-76125000D03*
D14*
X89191000Y-78975000D03*
X88791000Y-76125000D03*
X89191000Y-76125000D03*
D12*
X88791000Y-78975000D03*
D14*
X88791000Y-78975000D03*
X89591000Y-76125000D03*
D12*
X89191000Y-78975000D03*
%TD*%
D15*
%TO.C,D106*%
X53472500Y-93550000D03*
X55047500Y-93550000D03*
%TD*%
D16*
%TO.C,R104*%
X64080000Y-110970000D03*
X65905000Y-110970000D03*
%TD*%
D17*
%TO.C,C102*%
X73697500Y-65560000D03*
X71622500Y-65560000D03*
%TD*%
D18*
%TO.C,U202*%
X77860000Y-97162500D03*
X76910000Y-97162500D03*
X75960000Y-97162500D03*
X75960000Y-99437500D03*
X77860000Y-99437500D03*
%TD*%
D19*
%TO.C,D103*%
X65185000Y-115237500D03*
X65185000Y-113362500D03*
%TD*%
D20*
%TO.C,C108*%
X91770000Y-106090000D03*
X91770000Y-107990000D03*
%TD*%
D21*
%TO.C,R202*%
X97920000Y-82272500D03*
X97920000Y-80447500D03*
%TD*%
D22*
%TO.C,L202*%
X87590000Y-72430000D03*
X91190000Y-72430000D03*
%TD*%
D15*
%TO.C,D110*%
X53812500Y-89090000D03*
X55387500Y-89090000D03*
%TD*%
D23*
%TO.C,D201*%
X98750000Y-71670000D03*
X96850000Y-71670000D03*
X97800000Y-74070000D03*
%TD*%
D21*
%TO.C,R103*%
X94890000Y-71542500D03*
X94890000Y-69717500D03*
%TD*%
D24*
%TO.C,D109*%
X55407500Y-83840000D03*
X53832500Y-83840000D03*
%TD*%
D25*
%TO.C,P101*%
X59075000Y-100050000D03*
X64125000Y-100050000D03*
X59075000Y-102590000D03*
X64125000Y-102590000D03*
X59075000Y-105130000D03*
X64125000Y-105130000D03*
%TD*%
D26*
%TO.C,W101*%
X92270000Y-102910000D03*
X86613146Y-97253146D03*
%TD*%
D27*
%TO.C,C301*%
X116550000Y-104330000D03*
X116550000Y-102430000D03*
%TD*%
%TO.C,C105*%
X85260000Y-102330000D03*
X85260000Y-100430000D03*
%TD*%
D17*
%TO.C,C101*%
X62057500Y-67220000D03*
X59982500Y-67220000D03*
%TD*%
D28*
%TO.C,Q102*%
X102540000Y-66810000D03*
X103840000Y-66810000D03*
X103190000Y-64810000D03*
%TD*%
D29*
%TO.C,C203*%
X69720000Y-97087500D03*
X69720000Y-95012500D03*
%TD*%
D30*
%TO.C,J201*%
X114580000Y-76260000D03*
D31*
X121730000Y-67260000D03*
X108830000Y-67260000D03*
%TD*%
D32*
%TO.C,R203*%
X93750000Y-80447500D03*
X93750000Y-82272500D03*
%TD*%
D33*
%TO.C,C210*%
X75722500Y-101490000D03*
X77797500Y-101490000D03*
%TD*%
D20*
%TO.C,C212*%
X92610000Y-76670000D03*
X92610000Y-78570000D03*
%TD*%
D27*
%TO.C,C213*%
X94650000Y-78580000D03*
X94650000Y-76680000D03*
%TD*%
D33*
%TO.C,C103*%
X60142500Y-74020000D03*
X62217500Y-74020000D03*
%TD*%
D32*
%TO.C,R106*%
X57260000Y-90007500D03*
X57260000Y-91832500D03*
%TD*%
D20*
%TO.C,C204*%
X122020000Y-80040000D03*
X122020000Y-81940000D03*
%TD*%
D26*
%TO.C,W302*%
X113540000Y-103130000D03*
X119196854Y-108786854D03*
%TD*%
D34*
%TO.C,C107*%
X83240000Y-104920000D03*
X81340000Y-104920000D03*
%TD*%
D20*
%TO.C,C211*%
X95840000Y-80440000D03*
X95840000Y-82340000D03*
%TD*%
D28*
%TO.C,Q101*%
X101060000Y-65640000D03*
X99760000Y-65640000D03*
X100410000Y-67640000D03*
%TD*%
D26*
%TO.C,W301*%
X121600000Y-98990000D03*
X129600000Y-98990000D03*
%TD*%
D19*
%TO.C,D104*%
X74525000Y-115237500D03*
X74525000Y-113362500D03*
%TD*%
D16*
%TO.C,R105*%
X73422500Y-110970000D03*
X75247500Y-110970000D03*
%TD*%
D27*
%TO.C,C205*%
X86040000Y-78650000D03*
X86040000Y-76750000D03*
%TD*%
D35*
%TO.C,X101*%
X61870000Y-69070000D03*
X62870000Y-69070000D03*
X62870000Y-68650000D03*
X61870000Y-68650000D03*
%TD*%
D27*
%TO.C,C106*%
X87420000Y-102570000D03*
X87420000Y-100670000D03*
%TD*%
D34*
%TO.C,R107*%
X94850000Y-114270000D03*
X92950000Y-114270000D03*
%TD*%
D27*
%TO.C,C215*%
X99030000Y-78530000D03*
X99030000Y-76630000D03*
%TD*%
D17*
%TO.C,C202*%
X65477500Y-91090000D03*
X63402500Y-91090000D03*
%TD*%
D20*
%TO.C,C207*%
X85160000Y-73150000D03*
X85160000Y-75050000D03*
%TD*%
D17*
%TO.C,C209*%
X74227500Y-99390000D03*
X72152500Y-99390000D03*
%TD*%
D36*
%TO.C,D101*%
X103830000Y-68410000D03*
X102430000Y-68410000D03*
%TD*%
D16*
%TO.C,R205*%
X74627500Y-86230000D03*
X76452500Y-86230000D03*
%TD*%
D37*
%TO.C,C109*%
X88480000Y-97290000D03*
X90380000Y-97290000D03*
%TD*%
D29*
%TO.C,C201*%
X63440000Y-97037500D03*
X63440000Y-94962500D03*
%TD*%
D38*
%TO.C,L201*%
X118215000Y-80045000D03*
X118215000Y-83095000D03*
%TD*%
D39*
%TO.C,X102*%
X82850000Y-100580000D03*
X80550000Y-100580000D03*
X80550000Y-102280000D03*
X82850000Y-102280000D03*
%TD*%
D36*
%TO.C,D102*%
X97150000Y-66440000D03*
X95750000Y-66440000D03*
%TD*%
D40*
%TO.C,U103*%
X92270000Y-97400000D03*
X92270000Y-98350000D03*
X92270000Y-99300000D03*
X94545000Y-99300000D03*
X94545000Y-98350000D03*
X94545000Y-97400000D03*
%TD*%
D41*
%TO.C,U101*%
X74070000Y-84115000D03*
X74070000Y-82845000D03*
X74070000Y-81575000D03*
X74070000Y-80305000D03*
X74070000Y-79035000D03*
X74070000Y-77765000D03*
X74070000Y-76495000D03*
X74070000Y-75225000D03*
X74070000Y-73955000D03*
X74070000Y-72685000D03*
X74070000Y-71415000D03*
X74070000Y-70145000D03*
X74070000Y-68875000D03*
X74070000Y-67605000D03*
X64770000Y-67605000D03*
X64770000Y-68875000D03*
X64770000Y-70145000D03*
X64770000Y-71415000D03*
X64770000Y-72685000D03*
X64770000Y-73955000D03*
X64770000Y-75225000D03*
X64770000Y-76495000D03*
X64770000Y-77765000D03*
X64770000Y-79035000D03*
X64770000Y-80305000D03*
X64770000Y-81575000D03*
X64770000Y-82845000D03*
X64770000Y-84115000D03*
%TD*%
D24*
%TO.C,D108*%
X55367500Y-86020000D03*
X53792500Y-86020000D03*
%TD*%
D42*
%TO.C,R201*%
X86222500Y-80950000D03*
X84397500Y-80950000D03*
%TD*%
D20*
%TO.C,C104*%
X101000000Y-71170000D03*
X101000000Y-73070000D03*
%TD*%
D34*
%TO.C,R108*%
X98380000Y-114270000D03*
X96480000Y-114270000D03*
%TD*%
D43*
%TO.C,U104*%
X97420000Y-107720000D03*
X97420000Y-106770000D03*
X97420000Y-105820000D03*
X94820000Y-105820000D03*
X94820000Y-106770000D03*
X94820000Y-107720000D03*
%TD*%
D42*
%TO.C,R204*%
X93812500Y-86630000D03*
X91987500Y-86630000D03*
%TD*%
D44*
%TO.C,U102*%
X85310000Y-104500000D03*
X85310000Y-105000000D03*
X85310000Y-105500000D03*
X85310000Y-106000000D03*
X85310000Y-106500000D03*
X89710000Y-106500000D03*
X89710000Y-106000000D03*
X89710000Y-105500000D03*
X89710000Y-105000000D03*
X89710000Y-104500000D03*
%TD*%
D24*
%TO.C,D105*%
X55027500Y-90800000D03*
X53452500Y-90800000D03*
%TD*%
D45*
%TO.C,C111*%
X106640000Y-105910000D03*
X106640000Y-112370000D03*
%TD*%
D46*
%TO.C,C110*%
X97375000Y-110230000D03*
X94425000Y-110230000D03*
%TD*%
D33*
%TO.C,C206*%
X75782500Y-95150000D03*
X77857500Y-95150000D03*
%TD*%
D20*
%TO.C,C208*%
X91700000Y-80430000D03*
X91700000Y-82330000D03*
%TD*%
D42*
%TO.C,R101*%
X101432500Y-63030000D03*
X99607500Y-63030000D03*
%TD*%
D27*
%TO.C,C214*%
X96880000Y-78520000D03*
X96880000Y-76620000D03*
%TD*%
D47*
%TO.C,D107*%
X90905000Y-90495000D03*
X87555000Y-90495000D03*
X90905000Y-93545000D03*
X87555000Y-93545000D03*
D48*
X95530000Y-94300000D03*
X95530000Y-89740000D03*
%TD*%
D16*
%TO.C,R102*%
X96937500Y-69680000D03*
X98762500Y-69680000D03*
%TD*%
D27*
%TO.C,C112*%
X108620000Y-103180000D03*
X108620000Y-101280000D03*
%TD*%
D49*
%TO.C,U201*%
X67727500Y-94960000D03*
X67727500Y-94010000D03*
X67727500Y-93060000D03*
X65452500Y-93060000D03*
X65452500Y-94960000D03*
%TD*%
M02*
