%TF.GenerationSoftware,KiCad,Pcbnew,(6.0.4-0)*%
%TF.CreationDate,2023-06-22T08:09:36-04:00*%
%TF.ProjectId,SignalSlinger,5369676e-616c-4536-9c69-6e6765722e6b,rev?*%
%TF.SameCoordinates,Original*%
%TF.FileFunction,Soldermask,Bot*%
%TF.FilePolarity,Negative*%
%FSLAX46Y46*%
G04 Gerber Fmt 4.6, Leading zero omitted, Abs format (unit mm)*
G04 Created by KiCad (PCBNEW (6.0.4-0)) date 2023-06-22 08:09:36*
%MOMM*%
%LPD*%
G01*
G04 APERTURE LIST*
G04 Aperture macros list*
%AMRoundRect*
0 Rectangle with rounded corners*
0 $1 Rounding radius*
0 $2 $3 $4 $5 $6 $7 $8 $9 X,Y pos of 4 corners*
0 Add a 4 corners polygon primitive as box body*
4,1,4,$2,$3,$4,$5,$6,$7,$8,$9,$2,$3,0*
0 Add four circle primitives for the rounded corners*
1,1,$1+$1,$2,$3*
1,1,$1+$1,$4,$5*
1,1,$1+$1,$6,$7*
1,1,$1+$1,$8,$9*
0 Add four rect primitives between the rounded corners*
20,1,$1+$1,$2,$3,$4,$5,0*
20,1,$1+$1,$4,$5,$6,$7,0*
20,1,$1+$1,$6,$7,$8,$9,0*
20,1,$1+$1,$8,$9,$2,$3,0*%
G04 Aperture macros list end*
%ADD10R,1.727200X1.727200*%
%ADD11O,1.727200X1.727200*%
%ADD12R,1.000000X4.000000*%
%ADD13R,1.700000X1.700000*%
%ADD14O,1.700000X1.700000*%
%ADD15C,0.720000*%
%ADD16C,1.700000*%
%ADD17C,0.600000*%
%ADD18C,1.524000*%
%ADD19C,2.000000*%
%ADD20C,3.500000*%
%ADD21O,3.500120X1.699260*%
%ADD22RoundRect,0.424815X1.325245X0.424815X-1.325245X0.424815X-1.325245X-0.424815X1.325245X-0.424815X0*%
%ADD23RoundRect,1.000000X-1.000000X1.000000X-1.000000X-1.000000X1.000000X-1.000000X1.000000X1.000000X0*%
%ADD24C,1.600000*%
%ADD25RoundRect,0.400000X0.400000X-0.400000X0.400000X0.400000X-0.400000X0.400000X-0.400000X-0.400000X0*%
%ADD26RoundRect,0.400000X-0.400000X-0.400000X0.400000X-0.400000X0.400000X0.400000X-0.400000X0.400000X0*%
%ADD27RoundRect,0.250001X0.799999X-0.799999X0.799999X0.799999X-0.799999X0.799999X-0.799999X-0.799999X0*%
%ADD28C,2.100000*%
%ADD29RoundRect,0.425000X0.425000X-0.425000X0.425000X0.425000X-0.425000X0.425000X-0.425000X-0.425000X0*%
%ADD30R,3.480000X1.846667*%
G04 APERTURE END LIST*
D10*
%TO.C,L301*%
X114344900Y-100086750D03*
D11*
X112401800Y-96060850D03*
%TD*%
D10*
%TO.C,L302*%
X105327900Y-91085100D03*
D12*
X105360000Y-89270000D03*
X109310000Y-94820000D03*
D11*
X109353800Y-93028200D03*
%TD*%
D13*
%TO.C,J104*%
X61270000Y-114320000D03*
D14*
X61270000Y-111780000D03*
%TD*%
D15*
%TO.C,U203*%
X88891000Y-77050000D03*
X88891000Y-78050000D03*
X89391000Y-77550000D03*
X89891000Y-78050000D03*
X89891000Y-77050000D03*
%TD*%
D16*
%TO.C,J302*%
X108820000Y-116600000D03*
D14*
X106280000Y-116600000D03*
X103740000Y-116600000D03*
%TD*%
D13*
%TO.C,J102*%
X58240000Y-76965000D03*
D14*
X60780000Y-76965000D03*
%TD*%
D16*
%TO.C,J202*%
X80950000Y-79635000D03*
D14*
X80950000Y-77095000D03*
X80950000Y-74555000D03*
%TD*%
D16*
%TO.C,J101*%
X96930000Y-63270000D03*
D14*
X94390000Y-63270000D03*
%TD*%
D17*
%TO.C,W101*%
X92270000Y-102910000D03*
D18*
X92270000Y-102910000D03*
X86613146Y-97253146D03*
D17*
X86613146Y-97253146D03*
%TD*%
D19*
%TO.C,J201*%
X115280000Y-63460000D03*
%TD*%
D13*
%TO.C,J103*%
X103955000Y-73790000D03*
D14*
X103955000Y-71250000D03*
%TD*%
D20*
%TO.C,REF\u002A\u002A*%
X51855000Y-71950000D03*
%TD*%
D18*
%TO.C,W302*%
X113540000Y-103130000D03*
D17*
X113540000Y-103130000D03*
X119196854Y-108786854D03*
D18*
X119196854Y-108786854D03*
%TD*%
D17*
%TO.C,W301*%
X121600000Y-98990000D03*
D18*
X121600000Y-98990000D03*
X129600000Y-98990000D03*
D17*
X129600000Y-98990000D03*
%TD*%
D20*
%TO.C,REF\u002A\u002A*%
X128055000Y-71950000D03*
%TD*%
D13*
%TO.C,J108*%
X101890000Y-112775000D03*
D14*
X101890000Y-110235000D03*
%TD*%
D13*
%TO.C,J105*%
X78055000Y-67490000D03*
D14*
X78055000Y-70030000D03*
%TD*%
D13*
%TO.C,J106*%
X70410000Y-114320000D03*
D14*
X70410000Y-111780000D03*
%TD*%
D21*
%TO.C,Q103*%
X101500000Y-105420000D03*
X101500000Y-102880000D03*
D22*
X101500000Y-100340000D03*
%TD*%
D20*
%TO.C,J301*%
X132475000Y-89412500D03*
D23*
X137500000Y-84387500D03*
X127450000Y-84387500D03*
X137500000Y-94437500D03*
X127450000Y-94437500D03*
%TD*%
D16*
%TO.C,J109*%
X98870000Y-89415000D03*
D14*
X98870000Y-91955000D03*
X98870000Y-94495000D03*
%TD*%
D13*
%TO.C,TP101*%
X91750000Y-116680000D03*
D14*
X94290000Y-116680000D03*
X96830000Y-116680000D03*
X99370000Y-116680000D03*
%TD*%
D20*
%TO.C,REF\u002A\u002A*%
X128055000Y-106875000D03*
%TD*%
%TO.C,REF\u002A\u002A*%
X51855000Y-106875000D03*
%TD*%
D24*
%TO.C,C305*%
X123140000Y-90540000D03*
D25*
X123140000Y-85540000D03*
%TD*%
D26*
%TO.C,C303*%
X105960000Y-102740000D03*
D24*
X110960000Y-102740000D03*
%TD*%
%TO.C,C304*%
X102820000Y-94910000D03*
X102820000Y-89910000D03*
%TD*%
D27*
%TO.C,BT201*%
X89120000Y-67220000D03*
D28*
X89120000Y-62620000D03*
%TD*%
D24*
%TO.C,C302*%
X119160000Y-101950000D03*
D26*
X124160000Y-101950000D03*
%TD*%
D19*
%TO.C,L101*%
X111250000Y-107840000D03*
X114990000Y-110730000D03*
X110590000Y-110200000D03*
X115730000Y-112860000D03*
%TD*%
D16*
%TO.C,MOD201*%
X75377500Y-61990000D03*
D29*
X72837500Y-61990000D03*
X70297500Y-61990000D03*
D14*
X67757500Y-61990000D03*
%TD*%
D30*
%TO.C,J107*%
X50102500Y-83872500D03*
X50102500Y-86642500D03*
X50102500Y-89412500D03*
X50102500Y-92182500D03*
X50102500Y-94952500D03*
%TD*%
M02*
