%TF.GenerationSoftware,KiCad,Pcbnew,(6.0.4-0)*%
%TF.CreationDate,2023-06-21T21:10:12-04:00*%
%TF.ProjectId,SignalSlinger,5369676e-616c-4536-9c69-6e6765722e6b,rev?*%
%TF.SameCoordinates,Original*%
%TF.FileFunction,Legend,Bot*%
%TF.FilePolarity,Positive*%
%FSLAX46Y46*%
G04 Gerber Fmt 4.6, Leading zero omitted, Abs format (unit mm)*
G04 Created by KiCad (PCBNEW (6.0.4-0)) date 2023-06-21 21:10:12*
%MOMM*%
%LPD*%
G01*
G04 APERTURE LIST*
%ADD10C,0.250000*%
%ADD11C,0.100000*%
%ADD12C,0.150000*%
%ADD13C,0.120000*%
%ADD14C,1.727200*%
%ADD15O,1.727200X1.727200*%
%ADD16C,2.000000*%
G04 APERTURE END LIST*
D10*
X73871904Y-104994761D02*
X73729047Y-105042380D01*
X73490952Y-105042380D01*
X73395714Y-104994761D01*
X73348095Y-104947142D01*
X73300476Y-104851904D01*
X73300476Y-104756666D01*
X73348095Y-104661428D01*
X73395714Y-104613809D01*
X73490952Y-104566190D01*
X73681428Y-104518571D01*
X73776666Y-104470952D01*
X73824285Y-104423333D01*
X73871904Y-104328095D01*
X73871904Y-104232857D01*
X73824285Y-104137619D01*
X73776666Y-104090000D01*
X73681428Y-104042380D01*
X73443333Y-104042380D01*
X73300476Y-104090000D01*
X72871904Y-105042380D02*
X72871904Y-104375714D01*
X72871904Y-104042380D02*
X72919523Y-104090000D01*
X72871904Y-104137619D01*
X72824285Y-104090000D01*
X72871904Y-104042380D01*
X72871904Y-104137619D01*
X71967142Y-104375714D02*
X71967142Y-105185238D01*
X72014761Y-105280476D01*
X72062380Y-105328095D01*
X72157619Y-105375714D01*
X72300476Y-105375714D01*
X72395714Y-105328095D01*
X71967142Y-104994761D02*
X72062380Y-105042380D01*
X72252857Y-105042380D01*
X72348095Y-104994761D01*
X72395714Y-104947142D01*
X72443333Y-104851904D01*
X72443333Y-104566190D01*
X72395714Y-104470952D01*
X72348095Y-104423333D01*
X72252857Y-104375714D01*
X72062380Y-104375714D01*
X71967142Y-104423333D01*
X71490952Y-104375714D02*
X71490952Y-105042380D01*
X71490952Y-104470952D02*
X71443333Y-104423333D01*
X71348095Y-104375714D01*
X71205238Y-104375714D01*
X71110000Y-104423333D01*
X71062380Y-104518571D01*
X71062380Y-105042380D01*
X70157619Y-105042380D02*
X70157619Y-104518571D01*
X70205238Y-104423333D01*
X70300476Y-104375714D01*
X70490952Y-104375714D01*
X70586190Y-104423333D01*
X70157619Y-104994761D02*
X70252857Y-105042380D01*
X70490952Y-105042380D01*
X70586190Y-104994761D01*
X70633809Y-104899523D01*
X70633809Y-104804285D01*
X70586190Y-104709047D01*
X70490952Y-104661428D01*
X70252857Y-104661428D01*
X70157619Y-104613809D01*
X69538571Y-105042380D02*
X69633809Y-104994761D01*
X69681428Y-104899523D01*
X69681428Y-104042380D01*
X69205238Y-104994761D02*
X69062380Y-105042380D01*
X68824285Y-105042380D01*
X68729047Y-104994761D01*
X68681428Y-104947142D01*
X68633809Y-104851904D01*
X68633809Y-104756666D01*
X68681428Y-104661428D01*
X68729047Y-104613809D01*
X68824285Y-104566190D01*
X69014761Y-104518571D01*
X69110000Y-104470952D01*
X69157619Y-104423333D01*
X69205238Y-104328095D01*
X69205238Y-104232857D01*
X69157619Y-104137619D01*
X69110000Y-104090000D01*
X69014761Y-104042380D01*
X68776666Y-104042380D01*
X68633809Y-104090000D01*
X68062380Y-105042380D02*
X68157619Y-104994761D01*
X68205238Y-104899523D01*
X68205238Y-104042380D01*
X67681428Y-105042380D02*
X67681428Y-104375714D01*
X67681428Y-104042380D02*
X67729047Y-104090000D01*
X67681428Y-104137619D01*
X67633809Y-104090000D01*
X67681428Y-104042380D01*
X67681428Y-104137619D01*
X67205238Y-104375714D02*
X67205238Y-105042380D01*
X67205238Y-104470952D02*
X67157619Y-104423333D01*
X67062380Y-104375714D01*
X66919523Y-104375714D01*
X66824285Y-104423333D01*
X66776666Y-104518571D01*
X66776666Y-105042380D01*
X65871904Y-104375714D02*
X65871904Y-105185238D01*
X65919523Y-105280476D01*
X65967142Y-105328095D01*
X66062380Y-105375714D01*
X66205238Y-105375714D01*
X66300476Y-105328095D01*
X65871904Y-104994761D02*
X65967142Y-105042380D01*
X66157619Y-105042380D01*
X66252857Y-104994761D01*
X66300476Y-104947142D01*
X66348095Y-104851904D01*
X66348095Y-104566190D01*
X66300476Y-104470952D01*
X66252857Y-104423333D01*
X66157619Y-104375714D01*
X65967142Y-104375714D01*
X65871904Y-104423333D01*
X65014761Y-104994761D02*
X65110000Y-105042380D01*
X65300476Y-105042380D01*
X65395714Y-104994761D01*
X65443333Y-104899523D01*
X65443333Y-104518571D01*
X65395714Y-104423333D01*
X65300476Y-104375714D01*
X65110000Y-104375714D01*
X65014761Y-104423333D01*
X64967142Y-104518571D01*
X64967142Y-104613809D01*
X65443333Y-104709047D01*
X64538571Y-105042380D02*
X64538571Y-104375714D01*
X64538571Y-104566190D02*
X64490952Y-104470952D01*
X64443333Y-104423333D01*
X64348095Y-104375714D01*
X64252857Y-104375714D01*
X62871904Y-105423333D02*
X62919523Y-105375714D01*
X63014761Y-105232857D01*
X63062380Y-105137619D01*
X63110000Y-104994761D01*
X63157619Y-104756666D01*
X63157619Y-104566190D01*
X63110000Y-104328095D01*
X63062380Y-104185238D01*
X63014761Y-104090000D01*
X62919523Y-103947142D01*
X62871904Y-103899523D01*
X62633809Y-104042380D02*
X62062380Y-104042380D01*
X62348095Y-105042380D02*
X62348095Y-104042380D01*
X61729047Y-105042380D02*
X61729047Y-104042380D01*
X61395714Y-104756666D01*
X61062380Y-104042380D01*
X61062380Y-105042380D01*
X60681428Y-105423333D02*
X60633809Y-105375714D01*
X60538571Y-105232857D01*
X60490952Y-105137619D01*
X60443333Y-104994761D01*
X60395714Y-104756666D01*
X60395714Y-104566190D01*
X60443333Y-104328095D01*
X60490952Y-104185238D01*
X60538571Y-104090000D01*
X60633809Y-103947142D01*
X60681428Y-103899523D01*
X73657619Y-106652380D02*
X73657619Y-105652380D01*
X73324285Y-106366666D01*
X72990952Y-105652380D01*
X72990952Y-106652380D01*
X72371904Y-106652380D02*
X72467142Y-106604761D01*
X72514761Y-106557142D01*
X72562380Y-106461904D01*
X72562380Y-106176190D01*
X72514761Y-106080952D01*
X72467142Y-106033333D01*
X72371904Y-105985714D01*
X72229047Y-105985714D01*
X72133809Y-106033333D01*
X72086190Y-106080952D01*
X72038571Y-106176190D01*
X72038571Y-106461904D01*
X72086190Y-106557142D01*
X72133809Y-106604761D01*
X72229047Y-106652380D01*
X72371904Y-106652380D01*
X71181428Y-106652380D02*
X71181428Y-105652380D01*
X71181428Y-106604761D02*
X71276666Y-106652380D01*
X71467142Y-106652380D01*
X71562380Y-106604761D01*
X71610000Y-106557142D01*
X71657619Y-106461904D01*
X71657619Y-106176190D01*
X71610000Y-106080952D01*
X71562380Y-106033333D01*
X71467142Y-105985714D01*
X71276666Y-105985714D01*
X71181428Y-106033333D01*
X70324285Y-106604761D02*
X70419523Y-106652380D01*
X70610000Y-106652380D01*
X70705238Y-106604761D01*
X70752857Y-106509523D01*
X70752857Y-106128571D01*
X70705238Y-106033333D01*
X70610000Y-105985714D01*
X70419523Y-105985714D01*
X70324285Y-106033333D01*
X70276666Y-106128571D01*
X70276666Y-106223809D01*
X70752857Y-106319047D01*
X69705238Y-106652380D02*
X69800476Y-106604761D01*
X69848095Y-106509523D01*
X69848095Y-105652380D01*
X69324285Y-106557142D02*
X69276666Y-106604761D01*
X69324285Y-106652380D01*
X69371904Y-106604761D01*
X69324285Y-106557142D01*
X69324285Y-106652380D01*
X69324285Y-106033333D02*
X69276666Y-106080952D01*
X69324285Y-106128571D01*
X69371904Y-106080952D01*
X69324285Y-106033333D01*
X69324285Y-106128571D01*
X68133809Y-106604761D02*
X67990952Y-106652380D01*
X67752857Y-106652380D01*
X67657619Y-106604761D01*
X67610000Y-106557142D01*
X67562380Y-106461904D01*
X67562380Y-106366666D01*
X67610000Y-106271428D01*
X67657619Y-106223809D01*
X67752857Y-106176190D01*
X67943333Y-106128571D01*
X68038571Y-106080952D01*
X68086190Y-106033333D01*
X68133809Y-105938095D01*
X68133809Y-105842857D01*
X68086190Y-105747619D01*
X68038571Y-105700000D01*
X67943333Y-105652380D01*
X67705238Y-105652380D01*
X67562380Y-105700000D01*
X67181428Y-106604761D02*
X67038571Y-106652380D01*
X66800476Y-106652380D01*
X66705238Y-106604761D01*
X66657619Y-106557142D01*
X66610000Y-106461904D01*
X66610000Y-106366666D01*
X66657619Y-106271428D01*
X66705238Y-106223809D01*
X66800476Y-106176190D01*
X66990952Y-106128571D01*
X67086190Y-106080952D01*
X67133809Y-106033333D01*
X67181428Y-105938095D01*
X67181428Y-105842857D01*
X67133809Y-105747619D01*
X67086190Y-105700000D01*
X66990952Y-105652380D01*
X66752857Y-105652380D01*
X66610000Y-105700000D01*
X66181428Y-106271428D02*
X65419523Y-106271428D01*
X64800476Y-106080952D02*
X64895714Y-106033333D01*
X64943333Y-105985714D01*
X64990952Y-105890476D01*
X64990952Y-105842857D01*
X64943333Y-105747619D01*
X64895714Y-105700000D01*
X64800476Y-105652380D01*
X64610000Y-105652380D01*
X64514761Y-105700000D01*
X64467142Y-105747619D01*
X64419523Y-105842857D01*
X64419523Y-105890476D01*
X64467142Y-105985714D01*
X64514761Y-106033333D01*
X64610000Y-106080952D01*
X64800476Y-106080952D01*
X64895714Y-106128571D01*
X64943333Y-106176190D01*
X64990952Y-106271428D01*
X64990952Y-106461904D01*
X64943333Y-106557142D01*
X64895714Y-106604761D01*
X64800476Y-106652380D01*
X64610000Y-106652380D01*
X64514761Y-106604761D01*
X64467142Y-106557142D01*
X64419523Y-106461904D01*
X64419523Y-106271428D01*
X64467142Y-106176190D01*
X64514761Y-106128571D01*
X64610000Y-106080952D01*
X63800476Y-105652380D02*
X63705238Y-105652380D01*
X63610000Y-105700000D01*
X63562380Y-105747619D01*
X63514761Y-105842857D01*
X63467142Y-106033333D01*
X63467142Y-106271428D01*
X63514761Y-106461904D01*
X63562380Y-106557142D01*
X63610000Y-106604761D01*
X63705238Y-106652380D01*
X63800476Y-106652380D01*
X63895714Y-106604761D01*
X63943333Y-106557142D01*
X63990952Y-106461904D01*
X64038571Y-106271428D01*
X64038571Y-106033333D01*
X63990952Y-105842857D01*
X63943333Y-105747619D01*
X63895714Y-105700000D01*
X63800476Y-105652380D01*
X62324285Y-105604761D02*
X63181428Y-106890476D01*
X61562380Y-105985714D02*
X61562380Y-106652380D01*
X61800476Y-105604761D02*
X62038571Y-106319047D01*
X61419523Y-106319047D01*
X60848095Y-105652380D02*
X60752857Y-105652380D01*
X60657619Y-105700000D01*
X60610000Y-105747619D01*
X60562380Y-105842857D01*
X60514761Y-106033333D01*
X60514761Y-106271428D01*
X60562380Y-106461904D01*
X60610000Y-106557142D01*
X60657619Y-106604761D01*
X60752857Y-106652380D01*
X60848095Y-106652380D01*
X60943333Y-106604761D01*
X60990952Y-106557142D01*
X61038571Y-106461904D01*
X61086190Y-106271428D01*
X61086190Y-106033333D01*
X61038571Y-105842857D01*
X60990952Y-105747619D01*
X60943333Y-105700000D01*
X60848095Y-105652380D01*
X70586190Y-107262380D02*
X70586190Y-107976666D01*
X70633809Y-108119523D01*
X70729047Y-108214761D01*
X70871904Y-108262380D01*
X70967142Y-108262380D01*
X69681428Y-107595714D02*
X69681428Y-108262380D01*
X70110000Y-107595714D02*
X70110000Y-108119523D01*
X70062380Y-108214761D01*
X69967142Y-108262380D01*
X69824285Y-108262380D01*
X69729047Y-108214761D01*
X69681428Y-108167142D01*
X69205238Y-107595714D02*
X69205238Y-108262380D01*
X69205238Y-107690952D02*
X69157619Y-107643333D01*
X69062380Y-107595714D01*
X68919523Y-107595714D01*
X68824285Y-107643333D01*
X68776666Y-107738571D01*
X68776666Y-108262380D01*
X67919523Y-108214761D02*
X68014761Y-108262380D01*
X68205238Y-108262380D01*
X68300476Y-108214761D01*
X68348095Y-108119523D01*
X68348095Y-107738571D01*
X68300476Y-107643333D01*
X68205238Y-107595714D01*
X68014761Y-107595714D01*
X67919523Y-107643333D01*
X67871904Y-107738571D01*
X67871904Y-107833809D01*
X68348095Y-107929047D01*
X66729047Y-107357619D02*
X66681428Y-107310000D01*
X66586190Y-107262380D01*
X66348095Y-107262380D01*
X66252857Y-107310000D01*
X66205238Y-107357619D01*
X66157619Y-107452857D01*
X66157619Y-107548095D01*
X66205238Y-107690952D01*
X66776666Y-108262380D01*
X66157619Y-108262380D01*
X65538571Y-107262380D02*
X65443333Y-107262380D01*
X65348095Y-107310000D01*
X65300476Y-107357619D01*
X65252857Y-107452857D01*
X65205238Y-107643333D01*
X65205238Y-107881428D01*
X65252857Y-108071904D01*
X65300476Y-108167142D01*
X65348095Y-108214761D01*
X65443333Y-108262380D01*
X65538571Y-108262380D01*
X65633809Y-108214761D01*
X65681428Y-108167142D01*
X65729047Y-108071904D01*
X65776666Y-107881428D01*
X65776666Y-107643333D01*
X65729047Y-107452857D01*
X65681428Y-107357619D01*
X65633809Y-107310000D01*
X65538571Y-107262380D01*
X64824285Y-107357619D02*
X64776666Y-107310000D01*
X64681428Y-107262380D01*
X64443333Y-107262380D01*
X64348095Y-107310000D01*
X64300476Y-107357619D01*
X64252857Y-107452857D01*
X64252857Y-107548095D01*
X64300476Y-107690952D01*
X64871904Y-108262380D01*
X64252857Y-108262380D01*
X63919523Y-107262380D02*
X63300476Y-107262380D01*
X63633809Y-107643333D01*
X63490952Y-107643333D01*
X63395714Y-107690952D01*
X63348095Y-107738571D01*
X63300476Y-107833809D01*
X63300476Y-108071904D01*
X63348095Y-108167142D01*
X63395714Y-108214761D01*
X63490952Y-108262380D01*
X63776666Y-108262380D01*
X63871904Y-108214761D01*
X63919523Y-108167142D01*
D11*
%TO.C,W101*%
X87073079Y-98635922D02*
X87032673Y-98622453D01*
X86992267Y-98582047D01*
X86965329Y-98528172D01*
X86965329Y-98474297D01*
X86978798Y-98433891D01*
X87019204Y-98366548D01*
X87059610Y-98326142D01*
X87126954Y-98285735D01*
X87167360Y-98272267D01*
X87221235Y-98272267D01*
X87275109Y-98299204D01*
X87302047Y-98326142D01*
X87328984Y-98380016D01*
X87328984Y-98406954D01*
X87234703Y-98501235D01*
X87180829Y-98447360D01*
X87477140Y-98501235D02*
X87194297Y-98784077D01*
X87638764Y-98662859D01*
X87355922Y-98945702D01*
X87773451Y-98797546D02*
X87490609Y-99080389D01*
X87557952Y-99147732D01*
X87611827Y-99174670D01*
X87665702Y-99174670D01*
X87706108Y-99161201D01*
X87773451Y-99120795D01*
X87813857Y-99080389D01*
X87854264Y-99013045D01*
X87867732Y-98972639D01*
X87867732Y-98918764D01*
X87840795Y-98864890D01*
X87773451Y-98797546D01*
%TO.C,W302*%
X117857055Y-109723939D02*
X117816649Y-109710470D01*
X117776243Y-109670064D01*
X117749305Y-109616189D01*
X117749305Y-109562314D01*
X117762774Y-109521908D01*
X117803180Y-109454565D01*
X117843586Y-109414159D01*
X117910930Y-109373752D01*
X117951336Y-109360284D01*
X118005211Y-109360284D01*
X118059085Y-109387221D01*
X118086023Y-109414159D01*
X118112960Y-109468033D01*
X118112960Y-109494971D01*
X118018679Y-109589252D01*
X117964805Y-109535377D01*
X118261116Y-109589252D02*
X117978273Y-109872094D01*
X118422740Y-109750876D01*
X118139898Y-110033719D01*
X118557427Y-109885563D02*
X118274585Y-110168406D01*
X118341928Y-110235749D01*
X118395803Y-110262687D01*
X118449678Y-110262687D01*
X118490084Y-110249218D01*
X118557427Y-110208812D01*
X118597833Y-110168406D01*
X118638240Y-110101062D01*
X118651708Y-110060656D01*
X118651708Y-110006781D01*
X118624771Y-109952907D01*
X118557427Y-109885563D01*
%TO.C,W301*%
X129924761Y-100200000D02*
X129962857Y-100180952D01*
X130020000Y-100180952D01*
X130077142Y-100200000D01*
X130115238Y-100238095D01*
X130134285Y-100276190D01*
X130153333Y-100352380D01*
X130153333Y-100409523D01*
X130134285Y-100485714D01*
X130115238Y-100523809D01*
X130077142Y-100561904D01*
X130020000Y-100580952D01*
X129981904Y-100580952D01*
X129924761Y-100561904D01*
X129905714Y-100542857D01*
X129905714Y-100409523D01*
X129981904Y-100409523D01*
X129734285Y-100580952D02*
X129734285Y-100180952D01*
X129505714Y-100580952D01*
X129505714Y-100180952D01*
X129315238Y-100580952D02*
X129315238Y-100180952D01*
X129220000Y-100180952D01*
X129162857Y-100200000D01*
X129124761Y-100238095D01*
X129105714Y-100276190D01*
X129086666Y-100352380D01*
X129086666Y-100409523D01*
X129105714Y-100485714D01*
X129124761Y-100523809D01*
X129162857Y-100561904D01*
X129220000Y-100580952D01*
X129315238Y-100580952D01*
D12*
%TO.C,C305*%
X121337142Y-86080952D02*
X121384761Y-86033333D01*
X121432380Y-85890476D01*
X121432380Y-85795238D01*
X121384761Y-85652380D01*
X121289523Y-85557142D01*
X121194285Y-85509523D01*
X121003809Y-85461904D01*
X120860952Y-85461904D01*
X120670476Y-85509523D01*
X120575238Y-85557142D01*
X120480000Y-85652380D01*
X120432380Y-85795238D01*
X120432380Y-85890476D01*
X120480000Y-86033333D01*
X120527619Y-86080952D01*
X120432380Y-86414285D02*
X120432380Y-87033333D01*
X120813333Y-86700000D01*
X120813333Y-86842857D01*
X120860952Y-86938095D01*
X120908571Y-86985714D01*
X121003809Y-87033333D01*
X121241904Y-87033333D01*
X121337142Y-86985714D01*
X121384761Y-86938095D01*
X121432380Y-86842857D01*
X121432380Y-86557142D01*
X121384761Y-86461904D01*
X121337142Y-86414285D01*
X120432380Y-87652380D02*
X120432380Y-87747619D01*
X120480000Y-87842857D01*
X120527619Y-87890476D01*
X120622857Y-87938095D01*
X120813333Y-87985714D01*
X121051428Y-87985714D01*
X121241904Y-87938095D01*
X121337142Y-87890476D01*
X121384761Y-87842857D01*
X121432380Y-87747619D01*
X121432380Y-87652380D01*
X121384761Y-87557142D01*
X121337142Y-87509523D01*
X121241904Y-87461904D01*
X121051428Y-87414285D01*
X120813333Y-87414285D01*
X120622857Y-87461904D01*
X120527619Y-87509523D01*
X120480000Y-87557142D01*
X120432380Y-87652380D01*
X120432380Y-88890476D02*
X120432380Y-88414285D01*
X120908571Y-88366666D01*
X120860952Y-88414285D01*
X120813333Y-88509523D01*
X120813333Y-88747619D01*
X120860952Y-88842857D01*
X120908571Y-88890476D01*
X121003809Y-88938095D01*
X121241904Y-88938095D01*
X121337142Y-88890476D01*
X121384761Y-88842857D01*
X121432380Y-88747619D01*
X121432380Y-88509523D01*
X121384761Y-88414285D01*
X121337142Y-88366666D01*
%TO.C,C303*%
X109579047Y-105597142D02*
X109626666Y-105644761D01*
X109769523Y-105692380D01*
X109864761Y-105692380D01*
X110007619Y-105644761D01*
X110102857Y-105549523D01*
X110150476Y-105454285D01*
X110198095Y-105263809D01*
X110198095Y-105120952D01*
X110150476Y-104930476D01*
X110102857Y-104835238D01*
X110007619Y-104740000D01*
X109864761Y-104692380D01*
X109769523Y-104692380D01*
X109626666Y-104740000D01*
X109579047Y-104787619D01*
X109245714Y-104692380D02*
X108626666Y-104692380D01*
X108960000Y-105073333D01*
X108817142Y-105073333D01*
X108721904Y-105120952D01*
X108674285Y-105168571D01*
X108626666Y-105263809D01*
X108626666Y-105501904D01*
X108674285Y-105597142D01*
X108721904Y-105644761D01*
X108817142Y-105692380D01*
X109102857Y-105692380D01*
X109198095Y-105644761D01*
X109245714Y-105597142D01*
X108007619Y-104692380D02*
X107912380Y-104692380D01*
X107817142Y-104740000D01*
X107769523Y-104787619D01*
X107721904Y-104882857D01*
X107674285Y-105073333D01*
X107674285Y-105311428D01*
X107721904Y-105501904D01*
X107769523Y-105597142D01*
X107817142Y-105644761D01*
X107912380Y-105692380D01*
X108007619Y-105692380D01*
X108102857Y-105644761D01*
X108150476Y-105597142D01*
X108198095Y-105501904D01*
X108245714Y-105311428D01*
X108245714Y-105073333D01*
X108198095Y-104882857D01*
X108150476Y-104787619D01*
X108102857Y-104740000D01*
X108007619Y-104692380D01*
X107340952Y-104692380D02*
X106721904Y-104692380D01*
X107055238Y-105073333D01*
X106912380Y-105073333D01*
X106817142Y-105120952D01*
X106769523Y-105168571D01*
X106721904Y-105263809D01*
X106721904Y-105501904D01*
X106769523Y-105597142D01*
X106817142Y-105644761D01*
X106912380Y-105692380D01*
X107198095Y-105692380D01*
X107293333Y-105644761D01*
X107340952Y-105597142D01*
%TO.C,C304*%
X101217142Y-90820952D02*
X101264761Y-90773333D01*
X101312380Y-90630476D01*
X101312380Y-90535238D01*
X101264761Y-90392380D01*
X101169523Y-90297142D01*
X101074285Y-90249523D01*
X100883809Y-90201904D01*
X100740952Y-90201904D01*
X100550476Y-90249523D01*
X100455238Y-90297142D01*
X100360000Y-90392380D01*
X100312380Y-90535238D01*
X100312380Y-90630476D01*
X100360000Y-90773333D01*
X100407619Y-90820952D01*
X100312380Y-91154285D02*
X100312380Y-91773333D01*
X100693333Y-91440000D01*
X100693333Y-91582857D01*
X100740952Y-91678095D01*
X100788571Y-91725714D01*
X100883809Y-91773333D01*
X101121904Y-91773333D01*
X101217142Y-91725714D01*
X101264761Y-91678095D01*
X101312380Y-91582857D01*
X101312380Y-91297142D01*
X101264761Y-91201904D01*
X101217142Y-91154285D01*
X100312380Y-92392380D02*
X100312380Y-92487619D01*
X100360000Y-92582857D01*
X100407619Y-92630476D01*
X100502857Y-92678095D01*
X100693333Y-92725714D01*
X100931428Y-92725714D01*
X101121904Y-92678095D01*
X101217142Y-92630476D01*
X101264761Y-92582857D01*
X101312380Y-92487619D01*
X101312380Y-92392380D01*
X101264761Y-92297142D01*
X101217142Y-92249523D01*
X101121904Y-92201904D01*
X100931428Y-92154285D01*
X100693333Y-92154285D01*
X100502857Y-92201904D01*
X100407619Y-92249523D01*
X100360000Y-92297142D01*
X100312380Y-92392380D01*
X100645714Y-93582857D02*
X101312380Y-93582857D01*
X100264761Y-93344761D02*
X100979047Y-93106666D01*
X100979047Y-93725714D01*
%TO.C,BT201*%
X91298571Y-63181904D02*
X91346190Y-63324761D01*
X91393809Y-63372380D01*
X91489047Y-63420000D01*
X91631904Y-63420000D01*
X91727142Y-63372380D01*
X91774761Y-63324761D01*
X91822380Y-63229523D01*
X91822380Y-62848571D01*
X90822380Y-62848571D01*
X90822380Y-63181904D01*
X90870000Y-63277142D01*
X90917619Y-63324761D01*
X91012857Y-63372380D01*
X91108095Y-63372380D01*
X91203333Y-63324761D01*
X91250952Y-63277142D01*
X91298571Y-63181904D01*
X91298571Y-62848571D01*
X90822380Y-63705714D02*
X90822380Y-64277142D01*
X91822380Y-63991428D02*
X90822380Y-63991428D01*
X90917619Y-64562857D02*
X90870000Y-64610476D01*
X90822380Y-64705714D01*
X90822380Y-64943809D01*
X90870000Y-65039047D01*
X90917619Y-65086666D01*
X91012857Y-65134285D01*
X91108095Y-65134285D01*
X91250952Y-65086666D01*
X91822380Y-64515238D01*
X91822380Y-65134285D01*
X90822380Y-65753333D02*
X90822380Y-65848571D01*
X90870000Y-65943809D01*
X90917619Y-65991428D01*
X91012857Y-66039047D01*
X91203333Y-66086666D01*
X91441428Y-66086666D01*
X91631904Y-66039047D01*
X91727142Y-65991428D01*
X91774761Y-65943809D01*
X91822380Y-65848571D01*
X91822380Y-65753333D01*
X91774761Y-65658095D01*
X91727142Y-65610476D01*
X91631904Y-65562857D01*
X91441428Y-65515238D01*
X91203333Y-65515238D01*
X91012857Y-65562857D01*
X90917619Y-65610476D01*
X90870000Y-65658095D01*
X90822380Y-65753333D01*
X91822380Y-67039047D02*
X91822380Y-66467619D01*
X91822380Y-66753333D02*
X90822380Y-66753333D01*
X90965238Y-66658095D01*
X91060476Y-66562857D01*
X91108095Y-66467619D01*
%TO.C,C302*%
X122809047Y-104637142D02*
X122856666Y-104684761D01*
X122999523Y-104732380D01*
X123094761Y-104732380D01*
X123237619Y-104684761D01*
X123332857Y-104589523D01*
X123380476Y-104494285D01*
X123428095Y-104303809D01*
X123428095Y-104160952D01*
X123380476Y-103970476D01*
X123332857Y-103875238D01*
X123237619Y-103780000D01*
X123094761Y-103732380D01*
X122999523Y-103732380D01*
X122856666Y-103780000D01*
X122809047Y-103827619D01*
X122475714Y-103732380D02*
X121856666Y-103732380D01*
X122190000Y-104113333D01*
X122047142Y-104113333D01*
X121951904Y-104160952D01*
X121904285Y-104208571D01*
X121856666Y-104303809D01*
X121856666Y-104541904D01*
X121904285Y-104637142D01*
X121951904Y-104684761D01*
X122047142Y-104732380D01*
X122332857Y-104732380D01*
X122428095Y-104684761D01*
X122475714Y-104637142D01*
X121237619Y-103732380D02*
X121142380Y-103732380D01*
X121047142Y-103780000D01*
X120999523Y-103827619D01*
X120951904Y-103922857D01*
X120904285Y-104113333D01*
X120904285Y-104351428D01*
X120951904Y-104541904D01*
X120999523Y-104637142D01*
X121047142Y-104684761D01*
X121142380Y-104732380D01*
X121237619Y-104732380D01*
X121332857Y-104684761D01*
X121380476Y-104637142D01*
X121428095Y-104541904D01*
X121475714Y-104351428D01*
X121475714Y-104113333D01*
X121428095Y-103922857D01*
X121380476Y-103827619D01*
X121332857Y-103780000D01*
X121237619Y-103732380D01*
X120523333Y-103827619D02*
X120475714Y-103780000D01*
X120380476Y-103732380D01*
X120142380Y-103732380D01*
X120047142Y-103780000D01*
X119999523Y-103827619D01*
X119951904Y-103922857D01*
X119951904Y-104018095D01*
X119999523Y-104160952D01*
X120570952Y-104732380D01*
X119951904Y-104732380D01*
%TO.C,L301*%
X119482380Y-90975602D02*
X119482380Y-90499411D01*
X118482380Y-90499411D01*
X118482380Y-91213697D02*
X118482380Y-91832745D01*
X118863333Y-91499411D01*
X118863333Y-91642269D01*
X118910952Y-91737507D01*
X118958571Y-91785126D01*
X119053809Y-91832745D01*
X119291904Y-91832745D01*
X119387142Y-91785126D01*
X119434761Y-91737507D01*
X119482380Y-91642269D01*
X119482380Y-91356554D01*
X119434761Y-91261316D01*
X119387142Y-91213697D01*
X118482380Y-92451792D02*
X118482380Y-92547030D01*
X118530000Y-92642269D01*
X118577619Y-92689888D01*
X118672857Y-92737507D01*
X118863333Y-92785126D01*
X119101428Y-92785126D01*
X119291904Y-92737507D01*
X119387142Y-92689888D01*
X119434761Y-92642269D01*
X119482380Y-92547030D01*
X119482380Y-92451792D01*
X119434761Y-92356554D01*
X119387142Y-92308935D01*
X119291904Y-92261316D01*
X119101428Y-92213697D01*
X118863333Y-92213697D01*
X118672857Y-92261316D01*
X118577619Y-92308935D01*
X118530000Y-92356554D01*
X118482380Y-92451792D01*
X119482380Y-93737507D02*
X119482380Y-93166078D01*
X119482380Y-93451792D02*
X118482380Y-93451792D01*
X118625238Y-93356554D01*
X118720476Y-93261316D01*
X118768095Y-93166078D01*
%TO.C,L101*%
X118629047Y-116462380D02*
X119105238Y-116462380D01*
X119105238Y-115462380D01*
X117771904Y-116462380D02*
X118343333Y-116462380D01*
X118057619Y-116462380D02*
X118057619Y-115462380D01*
X118152857Y-115605238D01*
X118248095Y-115700476D01*
X118343333Y-115748095D01*
X117152857Y-115462380D02*
X117057619Y-115462380D01*
X116962380Y-115510000D01*
X116914761Y-115557619D01*
X116867142Y-115652857D01*
X116819523Y-115843333D01*
X116819523Y-116081428D01*
X116867142Y-116271904D01*
X116914761Y-116367142D01*
X116962380Y-116414761D01*
X117057619Y-116462380D01*
X117152857Y-116462380D01*
X117248095Y-116414761D01*
X117295714Y-116367142D01*
X117343333Y-116271904D01*
X117390952Y-116081428D01*
X117390952Y-115843333D01*
X117343333Y-115652857D01*
X117295714Y-115557619D01*
X117248095Y-115510000D01*
X117152857Y-115462380D01*
X115867142Y-116462380D02*
X116438571Y-116462380D01*
X116152857Y-116462380D02*
X116152857Y-115462380D01*
X116248095Y-115605238D01*
X116343333Y-115700476D01*
X116438571Y-115748095D01*
%TO.C,MOD201*%
X74785714Y-64622380D02*
X74785714Y-63622380D01*
X74452380Y-64336666D01*
X74119047Y-63622380D01*
X74119047Y-64622380D01*
X73452380Y-63622380D02*
X73261904Y-63622380D01*
X73166666Y-63670000D01*
X73071428Y-63765238D01*
X73023809Y-63955714D01*
X73023809Y-64289047D01*
X73071428Y-64479523D01*
X73166666Y-64574761D01*
X73261904Y-64622380D01*
X73452380Y-64622380D01*
X73547619Y-64574761D01*
X73642857Y-64479523D01*
X73690476Y-64289047D01*
X73690476Y-63955714D01*
X73642857Y-63765238D01*
X73547619Y-63670000D01*
X73452380Y-63622380D01*
X72595238Y-64622380D02*
X72595238Y-63622380D01*
X72357142Y-63622380D01*
X72214285Y-63670000D01*
X72119047Y-63765238D01*
X72071428Y-63860476D01*
X72023809Y-64050952D01*
X72023809Y-64193809D01*
X72071428Y-64384285D01*
X72119047Y-64479523D01*
X72214285Y-64574761D01*
X72357142Y-64622380D01*
X72595238Y-64622380D01*
X71642857Y-63717619D02*
X71595238Y-63670000D01*
X71500000Y-63622380D01*
X71261904Y-63622380D01*
X71166666Y-63670000D01*
X71119047Y-63717619D01*
X71071428Y-63812857D01*
X71071428Y-63908095D01*
X71119047Y-64050952D01*
X71690476Y-64622380D01*
X71071428Y-64622380D01*
X70452380Y-63622380D02*
X70357142Y-63622380D01*
X70261904Y-63670000D01*
X70214285Y-63717619D01*
X70166666Y-63812857D01*
X70119047Y-64003333D01*
X70119047Y-64241428D01*
X70166666Y-64431904D01*
X70214285Y-64527142D01*
X70261904Y-64574761D01*
X70357142Y-64622380D01*
X70452380Y-64622380D01*
X70547619Y-64574761D01*
X70595238Y-64527142D01*
X70642857Y-64431904D01*
X70690476Y-64241428D01*
X70690476Y-64003333D01*
X70642857Y-63812857D01*
X70595238Y-63717619D01*
X70547619Y-63670000D01*
X70452380Y-63622380D01*
X69166666Y-64622380D02*
X69738095Y-64622380D01*
X69452380Y-64622380D02*
X69452380Y-63622380D01*
X69547619Y-63765238D01*
X69642857Y-63860476D01*
X69738095Y-63908095D01*
%TO.C,J107*%
X45612380Y-88569285D02*
X46326666Y-88569285D01*
X46469523Y-88521666D01*
X46564761Y-88426428D01*
X46612380Y-88283571D01*
X46612380Y-88188333D01*
X46612380Y-89569285D02*
X46612380Y-88997857D01*
X46612380Y-89283571D02*
X45612380Y-89283571D01*
X45755238Y-89188333D01*
X45850476Y-89093095D01*
X45898095Y-88997857D01*
X45612380Y-90188333D02*
X45612380Y-90283571D01*
X45660000Y-90378809D01*
X45707619Y-90426428D01*
X45802857Y-90474047D01*
X45993333Y-90521666D01*
X46231428Y-90521666D01*
X46421904Y-90474047D01*
X46517142Y-90426428D01*
X46564761Y-90378809D01*
X46612380Y-90283571D01*
X46612380Y-90188333D01*
X46564761Y-90093095D01*
X46517142Y-90045476D01*
X46421904Y-89997857D01*
X46231428Y-89950238D01*
X45993333Y-89950238D01*
X45802857Y-89997857D01*
X45707619Y-90045476D01*
X45660000Y-90093095D01*
X45612380Y-90188333D01*
X45612380Y-90855000D02*
X45612380Y-91521666D01*
X46612380Y-91093095D01*
D11*
%TO.C,W101*%
X91403193Y-102029051D02*
X91142766Y-101768624D01*
X87514106Y-98154106D02*
X87253678Y-97893678D01*
D10*
X93317122Y-102901020D02*
G75*
G03*
X93317122Y-102901020I-1038142J0D01*
G01*
D11*
%TO.C,W302*%
X118295894Y-107885894D02*
X118556322Y-108146322D01*
X114406807Y-104010949D02*
X114667234Y-104271376D01*
D10*
X114569162Y-103138980D02*
G75*
G03*
X114569162Y-103138980I-1038142J0D01*
G01*
D11*
%TO.C,W301*%
X122835850Y-99000000D02*
X123204150Y-99000000D01*
X128325850Y-98990000D02*
X128694150Y-98990000D01*
D10*
X122638142Y-99002700D02*
G75*
G03*
X122638142Y-99002700I-1038142J0D01*
G01*
D13*
%TO.C,C305*%
X124510000Y-91660000D02*
X124510000Y-84420000D01*
X121770000Y-91660000D02*
X121770000Y-84420000D01*
X124510000Y-91660000D02*
X121770000Y-91660000D01*
X124510000Y-84420000D02*
X121770000Y-84420000D01*
%TO.C,C303*%
X104840000Y-101370000D02*
X112080000Y-101370000D01*
X112080000Y-104110000D02*
X112080000Y-101370000D01*
X104840000Y-104110000D02*
X112080000Y-104110000D01*
X104840000Y-104110000D02*
X104840000Y-101370000D01*
%TO.C,C304*%
X104190000Y-96030000D02*
X104190000Y-88790000D01*
X104190000Y-96030000D02*
X101450000Y-96030000D01*
X104190000Y-88790000D02*
X101450000Y-88790000D01*
X101450000Y-96030000D02*
X101450000Y-88790000D01*
%TO.C,C302*%
X125280000Y-103320000D02*
X125280000Y-100580000D01*
X118040000Y-103320000D02*
X125280000Y-103320000D01*
X118040000Y-103320000D02*
X118040000Y-100580000D01*
X118040000Y-100580000D02*
X125280000Y-100580000D01*
D10*
%TO.C,L301*%
X117510000Y-92174650D02*
G75*
G03*
X117510000Y-92174650I-4270000J0D01*
G01*
X120860000Y-92174650D02*
G75*
G03*
X120860000Y-92174650I-7620000J0D01*
G01*
%TO.C,L101*%
X121416585Y-111180000D02*
G75*
G03*
X121416585Y-111180000I-3556585J0D01*
G01*
X124454922Y-111220000D02*
G75*
G03*
X124454922Y-111220000I-6544922J0D01*
G01*
D13*
%TO.C,MOD201*%
X74107500Y-63320000D02*
X66427500Y-63320000D01*
X74107500Y-63320000D02*
X74107500Y-60660000D01*
X74107500Y-60660000D02*
X66427500Y-60660000D01*
X75377500Y-63320000D02*
X76707500Y-63320000D01*
X76707500Y-63320000D02*
X76707500Y-61990000D01*
X66427500Y-63320000D02*
X66427500Y-60660000D01*
%TO.C,J107*%
X48362500Y-82689167D02*
X52102500Y-82689167D01*
X52102500Y-82689167D02*
X52102500Y-96135833D01*
X52342500Y-82449167D02*
X52342500Y-86642500D01*
X52102500Y-96135833D02*
X48362500Y-96135833D01*
X50102500Y-82449167D02*
X52342500Y-82449167D01*
%TD*%
D14*
%TO.C,L301*%
X114344900Y-100086750D03*
D15*
X112401800Y-96060850D03*
%TD*%
D16*
%TO.C,L101*%
X111250000Y-107840000D03*
X114990000Y-110730000D03*
X110590000Y-110200000D03*
X115730000Y-112860000D03*
%TD*%
M02*
