%FSLAX45Y45*%
G04 Gerber Fmt 4.5, Leading zero omitted, Abs format (unit mm)*
G04 Created by KiCad (PCBNEW (6.0.4-0)) date 2023-06-23 08:20:30*
%MOMM*%
%LPD*%
G01*
G04 APERTURE LIST*
%TA.AperFunction,Profile*%
%ADD10C,0.100000*%
%TD*%
%ADD11C,0.200000*%
%ADD12C,0.030000*%
%ADD13C,0.033060*%
%ADD14C,0.040000*%
%ADD15C,0.080000*%
%ADD16C,0.100000*%
%ADD17C,0.100076*%
%ADD18C,0.101600*%
%ADD19C,0.110000*%
%ADD20C,0.150000*%
%ADD21C,0.350000*%
G04 APERTURE END LIST*
D10*
X4883240Y-5988500D02*
X13107760Y-5988500D01*
X4801000Y-10989760D02*
X4883240Y-10989760D01*
X4801000Y-6892740D02*
X4883240Y-6892740D01*
X13107760Y-11894000D02*
X4883240Y-11894000D01*
X13107760Y-10989760D02*
X14012000Y-10989760D01*
X13107760Y-11894000D02*
X13107760Y-10989760D01*
X4883240Y-10989760D02*
X4883240Y-11894000D01*
X14012000Y-6892740D02*
X14012000Y-10989760D01*
X4801000Y-6892740D02*
X4801000Y-10989760D01*
X13107760Y-6892740D02*
X14012000Y-6892740D01*
X4883240Y-6892740D02*
X4883240Y-5988500D01*
X13107760Y-5988500D02*
X13107760Y-6892740D01*
D11*
D12*
X8874100Y-7690000D02*
X8904100Y-7720000D01*
X8904100Y-7690000D02*
X8874100Y-7720000D01*
X8874100Y-7790000D02*
X8904100Y-7820000D01*
X8904100Y-7790000D02*
X8874100Y-7820000D01*
X8924100Y-7740000D02*
X8954100Y-7770000D01*
X8954100Y-7740000D02*
X8924100Y-7770000D01*
X8974100Y-7690000D02*
X9004100Y-7720000D01*
X9004100Y-7690000D02*
X8974100Y-7720000D01*
X8974100Y-7790000D02*
X9004100Y-7820000D01*
X9004100Y-7790000D02*
X8974100Y-7820000D01*
D13*
X8677845Y-9725315D02*
G75*
G03*
X8677845Y-9725315I-16530J0D01*
G01*
X9243530Y-10291000D02*
G75*
G03*
X9243530Y-10291000I-16530J0D01*
G01*
X11370530Y-10313000D02*
G75*
G03*
X11370530Y-10313000I-16530J0D01*
G01*
X11936215Y-10878685D02*
G75*
G03*
X11936215Y-10878685I-16530J0D01*
G01*
X12176530Y-9899000D02*
G75*
G03*
X12176530Y-9899000I-16530J0D01*
G01*
X12976530Y-9899000D02*
G75*
G03*
X12976530Y-9899000I-16530J0D01*
G01*
D14*
X4996000Y-9754000D02*
X4996000Y-9794000D01*
X4976000Y-9774000D02*
X5016000Y-9774000D01*
X4998000Y-10002000D02*
X4998000Y-10042000D01*
X4978000Y-10022000D02*
X5018000Y-10022000D01*
X4998000Y-11278000D02*
X4998000Y-11318000D01*
X4978000Y-11298000D02*
X5018000Y-11298000D01*
X4998000Y-11497000D02*
X4998000Y-11537000D01*
X4978000Y-11517000D02*
X5018000Y-11517000D01*
X5000000Y-11743000D02*
X5000000Y-11783000D01*
X4980000Y-11763000D02*
X5020000Y-11763000D01*
X5001000Y-10293000D02*
X5001000Y-10333000D01*
X4981000Y-10313000D02*
X5021000Y-10313000D01*
X5001000Y-11039000D02*
X5001000Y-11079000D01*
X4981000Y-11059000D02*
X5021000Y-11059000D01*
X5004000Y-8122000D02*
X5004000Y-8162000D01*
X4984000Y-8142000D02*
X5024000Y-8142000D01*
X5007000Y-7894000D02*
X5007000Y-7934000D01*
X4987000Y-7914000D02*
X5027000Y-7914000D01*
X5009000Y-7557000D02*
X5009000Y-7597000D01*
X4989000Y-7577000D02*
X5029000Y-7577000D01*
X5011000Y-6791000D02*
X5011000Y-6831000D01*
X4991000Y-6811000D02*
X5031000Y-6811000D01*
X5015000Y-6100000D02*
X5015000Y-6140000D01*
X4995000Y-6120000D02*
X5035000Y-6120000D01*
X5015000Y-6417000D02*
X5015000Y-6457000D01*
X4995000Y-6437000D02*
X5035000Y-6437000D01*
X5225000Y-11743000D02*
X5225000Y-11783000D01*
X5205000Y-11763000D02*
X5245000Y-11763000D01*
X5249000Y-8584000D02*
X5249000Y-8624000D01*
X5229000Y-8604000D02*
X5269000Y-8604000D01*
X5262000Y-8891000D02*
X5262000Y-8931000D01*
X5242000Y-8911000D02*
X5282000Y-8911000D01*
X5266000Y-8366000D02*
X5266000Y-8406000D01*
X5246000Y-8386000D02*
X5286000Y-8386000D01*
X5277000Y-9201000D02*
X5277000Y-9241000D01*
X5257000Y-9221000D02*
X5297000Y-9221000D01*
X5288000Y-6100000D02*
X5288000Y-6140000D01*
X5268000Y-6120000D02*
X5308000Y-6120000D01*
X5306000Y-8723000D02*
X5306000Y-8763000D01*
X5286000Y-8743000D02*
X5326000Y-8743000D01*
X5357000Y-6591000D02*
X5357000Y-6631000D01*
X5337000Y-6611000D02*
X5377000Y-6611000D01*
X5458000Y-8724000D02*
X5458000Y-8764000D01*
X5438000Y-8744000D02*
X5478000Y-8744000D01*
X5476000Y-11740000D02*
X5476000Y-11780000D01*
X5456000Y-11760000D02*
X5496000Y-11760000D01*
X5545000Y-8246000D02*
X5545000Y-8286000D01*
X5525000Y-8266000D02*
X5565000Y-8266000D01*
X5547000Y-8038000D02*
X5547000Y-8078000D01*
X5527000Y-8058000D02*
X5567000Y-8058000D01*
X5578000Y-6100000D02*
X5578000Y-6140000D01*
X5558000Y-6120000D02*
X5598000Y-6120000D01*
X5589000Y-9161000D02*
X5589000Y-9201000D01*
X5569000Y-9181000D02*
X5609000Y-9181000D01*
X5618000Y-9408000D02*
X5618000Y-9448000D01*
X5598000Y-9428000D02*
X5638000Y-9428000D01*
X5619000Y-8720000D02*
X5619000Y-8760000D01*
X5599000Y-8740000D02*
X5639000Y-8740000D01*
X5627564Y-8888461D02*
X5627564Y-8928461D01*
X5607564Y-8908461D02*
X5647564Y-8908461D01*
X5709000Y-9307000D02*
X5709000Y-9347000D01*
X5689000Y-9327000D02*
X5729000Y-9327000D01*
X5726000Y-11738000D02*
X5726000Y-11778000D01*
X5706000Y-11758000D02*
X5746000Y-11758000D01*
X5729000Y-8626000D02*
X5729000Y-8666000D01*
X5709000Y-8646000D02*
X5749000Y-8646000D01*
X5783000Y-8225000D02*
X5783000Y-8265000D01*
X5763000Y-8245000D02*
X5803000Y-8245000D01*
X5788000Y-8046000D02*
X5788000Y-8086000D01*
X5768000Y-8066000D02*
X5808000Y-8066000D01*
X5805000Y-8361000D02*
X5805000Y-8401000D01*
X5785000Y-8381000D02*
X5825000Y-8381000D01*
X5821000Y-8726000D02*
X5821000Y-8766000D01*
X5801000Y-8746000D02*
X5841000Y-8746000D01*
X5823000Y-8519000D02*
X5823000Y-8559000D01*
X5803000Y-8539000D02*
X5843000Y-8539000D01*
X5829550Y-8877000D02*
X5829550Y-8917000D01*
X5809550Y-8897000D02*
X5849550Y-8897000D01*
X5869000Y-6100000D02*
X5869000Y-6140000D01*
X5849000Y-6120000D02*
X5889000Y-6120000D01*
X5906000Y-9430000D02*
X5906000Y-9470000D01*
X5886000Y-9450000D02*
X5926000Y-9450000D01*
X5907000Y-8041000D02*
X5907000Y-8081000D01*
X5887000Y-8061000D02*
X5927000Y-8061000D01*
X5939000Y-7230000D02*
X5939000Y-7270000D01*
X5919000Y-7250000D02*
X5959000Y-7250000D01*
X6000000Y-11738000D02*
X6000000Y-11778000D01*
X5980000Y-11758000D02*
X6020000Y-11758000D01*
X6071000Y-9245000D02*
X6071000Y-9285000D01*
X6051000Y-9265000D02*
X6091000Y-9265000D01*
X6131000Y-8613000D02*
X6131000Y-8653000D01*
X6111000Y-8633000D02*
X6151000Y-8633000D01*
X6139000Y-9315000D02*
X6139000Y-9355000D01*
X6119000Y-9335000D02*
X6159000Y-9335000D01*
X6157000Y-8453000D02*
X6157000Y-8493000D01*
X6137000Y-8473000D02*
X6177000Y-8473000D01*
X6159000Y-6097000D02*
X6159000Y-6137000D01*
X6139000Y-6117000D02*
X6179000Y-6117000D01*
X6163000Y-7974000D02*
X6163000Y-8014000D01*
X6143000Y-7994000D02*
X6183000Y-7994000D01*
X6180000Y-9109000D02*
X6180000Y-9149000D01*
X6160000Y-9129000D02*
X6200000Y-9129000D01*
X6220000Y-7905000D02*
X6220000Y-7945000D01*
X6200000Y-7925000D02*
X6240000Y-7925000D01*
X6236000Y-7227000D02*
X6236000Y-7267000D01*
X6216000Y-7247000D02*
X6256000Y-7247000D01*
X6253000Y-9245000D02*
X6253000Y-9285000D01*
X6233000Y-9265000D02*
X6273000Y-9265000D01*
X6270000Y-11736000D02*
X6270000Y-11776000D01*
X6250000Y-11756000D02*
X6290000Y-11756000D01*
X6301431Y-7523431D02*
X6301431Y-7563431D01*
X6281431Y-7543431D02*
X6321431Y-7543431D01*
X6310000Y-8355000D02*
X6310000Y-8395000D01*
X6290000Y-8375000D02*
X6330000Y-8375000D01*
X6376000Y-9332000D02*
X6376000Y-9372000D01*
X6356000Y-9352000D02*
X6396000Y-9352000D01*
X6412000Y-10380000D02*
X6412000Y-10420000D01*
X6392000Y-10400000D02*
X6432000Y-10400000D01*
X6445000Y-6097000D02*
X6445000Y-6137000D01*
X6425000Y-6117000D02*
X6465000Y-6117000D01*
X6479000Y-6647000D02*
X6479000Y-6687000D01*
X6459000Y-6667000D02*
X6499000Y-6667000D01*
X6561000Y-11737000D02*
X6561000Y-11777000D01*
X6541000Y-11757000D02*
X6581000Y-11757000D01*
X6579000Y-8768000D02*
X6579000Y-8808000D01*
X6559000Y-8788000D02*
X6599000Y-8788000D01*
X6622000Y-9382000D02*
X6622000Y-9422000D01*
X6602000Y-9402000D02*
X6642000Y-9402000D01*
X6623000Y-10377000D02*
X6623000Y-10417000D01*
X6603000Y-10397000D02*
X6643000Y-10397000D01*
X6631000Y-8524000D02*
X6631000Y-8564000D01*
X6611000Y-8544000D02*
X6651000Y-8544000D01*
X6651000Y-6657000D02*
X6651000Y-6697000D01*
X6631000Y-6677000D02*
X6671000Y-6677000D01*
X6657000Y-6812000D02*
X6657000Y-6852000D01*
X6637000Y-6832000D02*
X6677000Y-6832000D01*
X6660000Y-6970000D02*
X6660000Y-7010000D01*
X6640000Y-6990000D02*
X6680000Y-6990000D01*
X6670000Y-7510000D02*
X6670000Y-7550000D01*
X6650000Y-7530000D02*
X6690000Y-7530000D01*
X6677000Y-7083000D02*
X6677000Y-7123000D01*
X6657000Y-7103000D02*
X6697000Y-7103000D01*
X6679000Y-8012000D02*
X6679000Y-8052000D01*
X6659000Y-8032000D02*
X6699000Y-8032000D01*
X6685000Y-10150000D02*
X6685000Y-10190000D01*
X6665000Y-10170000D02*
X6705000Y-10170000D01*
X6700000Y-7645000D02*
X6700000Y-7685000D01*
X6680000Y-7665000D02*
X6720000Y-7665000D01*
X6734000Y-11080000D02*
X6734000Y-11120000D01*
X6714000Y-11100000D02*
X6754000Y-11100000D01*
X6778000Y-9056000D02*
X6778000Y-9096000D01*
X6758000Y-9076000D02*
X6798000Y-9076000D01*
X6805000Y-10043000D02*
X6805000Y-10083000D01*
X6785000Y-10063000D02*
X6825000Y-10063000D01*
X6849000Y-11737000D02*
X6849000Y-11777000D01*
X6829000Y-11757000D02*
X6869000Y-11757000D01*
X6858000Y-7691000D02*
X6858000Y-7731000D01*
X6838000Y-7711000D02*
X6878000Y-7711000D01*
X6860700Y-6541000D02*
X6860700Y-6581000D01*
X6840700Y-6561000D02*
X6880700Y-6561000D01*
X6860700Y-6728000D02*
X6860700Y-6768000D01*
X6840700Y-6748000D02*
X6880700Y-6748000D01*
X6860700Y-6909000D02*
X6860700Y-6949000D01*
X6840700Y-6929000D02*
X6880700Y-6929000D01*
X6860700Y-7083000D02*
X6860700Y-7123000D01*
X6840700Y-7103000D02*
X6880700Y-7103000D01*
X6861000Y-7500000D02*
X6861000Y-7540000D01*
X6841000Y-7520000D02*
X6881000Y-7520000D01*
X6865000Y-7339000D02*
X6865000Y-7379000D01*
X6845000Y-7359000D02*
X6885000Y-7359000D01*
X6909000Y-9935000D02*
X6909000Y-9975000D01*
X6889000Y-9955000D02*
X6929000Y-9955000D01*
X6956450Y-8859000D02*
X6956450Y-8899000D01*
X6936450Y-8879000D02*
X6976450Y-8879000D01*
X6961000Y-8708000D02*
X6961000Y-8748000D01*
X6941000Y-8728000D02*
X6981000Y-8728000D01*
X6985000Y-8590000D02*
X6985000Y-8630000D01*
X6965000Y-8610000D02*
X7005000Y-8610000D01*
X7035000Y-8991000D02*
X7035000Y-9031000D01*
X7015000Y-9011000D02*
X7055000Y-9011000D01*
X7045000Y-10089000D02*
X7045000Y-10129000D01*
X7025000Y-10109000D02*
X7065000Y-10109000D01*
X7063000Y-9820000D02*
X7063000Y-9860000D01*
X7043000Y-9840000D02*
X7083000Y-9840000D01*
X7067000Y-6741000D02*
X7067000Y-6781000D01*
X7047000Y-6761000D02*
X7087000Y-6761000D01*
X7069000Y-9184000D02*
X7069000Y-9224000D01*
X7049000Y-9204000D02*
X7089000Y-9204000D01*
X7070000Y-7171000D02*
X7070000Y-7211000D01*
X7050000Y-7191000D02*
X7090000Y-7191000D01*
X7094000Y-8854000D02*
X7094000Y-8894000D01*
X7074000Y-8874000D02*
X7114000Y-8874000D01*
X7155000Y-11737000D02*
X7155000Y-11777000D01*
X7135000Y-11757000D02*
X7175000Y-11757000D01*
X7174000Y-9691000D02*
X7174000Y-9731000D01*
X7154000Y-9711000D02*
X7194000Y-9711000D01*
X7175000Y-9033000D02*
X7175000Y-9073000D01*
X7155000Y-9053000D02*
X7195000Y-9053000D01*
X7197000Y-9322000D02*
X7197000Y-9362000D01*
X7177000Y-9342000D02*
X7217000Y-9342000D01*
X7201000Y-9587000D02*
X7201000Y-9627000D01*
X7181000Y-9607000D02*
X7221000Y-9607000D01*
X7208000Y-10095000D02*
X7208000Y-10135000D01*
X7188000Y-10115000D02*
X7228000Y-10115000D01*
X7247450Y-8139000D02*
X7247450Y-8179000D01*
X7227450Y-8159000D02*
X7267450Y-8159000D01*
X7247450Y-8261000D02*
X7247450Y-8301000D01*
X7227450Y-8281000D02*
X7267450Y-8281000D01*
X7289000Y-8522000D02*
X7289000Y-8562000D01*
X7269000Y-8542000D02*
X7309000Y-8542000D01*
X7293000Y-8702000D02*
X7293000Y-8742000D01*
X7273000Y-8722000D02*
X7313000Y-8722000D01*
X7376000Y-8934000D02*
X7376000Y-8974000D01*
X7356000Y-8954000D02*
X7396000Y-8954000D01*
X7376550Y-9465000D02*
X7376550Y-9505000D01*
X7356550Y-9485000D02*
X7396550Y-9485000D01*
X7376550Y-9616000D02*
X7376550Y-9656000D01*
X7356550Y-9636000D02*
X7396550Y-9636000D01*
X7462000Y-11733000D02*
X7462000Y-11773000D01*
X7442000Y-11753000D02*
X7482000Y-11753000D01*
X7485000Y-9037550D02*
X7485000Y-9077550D01*
X7465000Y-9057550D02*
X7505000Y-9057550D01*
X7493000Y-8840000D02*
X7493000Y-8880000D01*
X7473000Y-8860000D02*
X7513000Y-8860000D01*
X7538000Y-9234000D02*
X7538000Y-9274000D01*
X7518000Y-9254000D02*
X7558000Y-9254000D01*
X7538000Y-10395000D02*
X7538000Y-10435000D01*
X7518000Y-10415000D02*
X7558000Y-10415000D01*
X7549000Y-8733000D02*
X7549000Y-8773000D01*
X7529000Y-8753000D02*
X7569000Y-8753000D01*
X7565000Y-8934000D02*
X7565000Y-8974000D01*
X7545000Y-8954000D02*
X7585000Y-8954000D01*
X7604000Y-8467000D02*
X7604000Y-8507000D01*
X7584000Y-8487000D02*
X7624000Y-8487000D01*
X7637000Y-9110000D02*
X7637000Y-9150000D01*
X7617000Y-9130000D02*
X7657000Y-9130000D01*
X7647000Y-8118000D02*
X7647000Y-8158000D01*
X7627000Y-8138000D02*
X7667000Y-8138000D01*
X7663000Y-7971000D02*
X7663000Y-8011000D01*
X7643000Y-7991000D02*
X7683000Y-7991000D01*
X7668000Y-10302000D02*
X7668000Y-10342000D01*
X7648000Y-10322000D02*
X7688000Y-10322000D01*
X7688000Y-10003000D02*
X7688000Y-10043000D01*
X7668000Y-10023000D02*
X7708000Y-10023000D01*
X7691000Y-9840000D02*
X7691000Y-9880000D01*
X7671000Y-9860000D02*
X7711000Y-9860000D01*
X7702000Y-11077000D02*
X7702000Y-11117000D01*
X7682000Y-11097000D02*
X7722000Y-11097000D01*
X7730000Y-9226000D02*
X7730000Y-9266000D01*
X7710000Y-9246000D02*
X7750000Y-9246000D01*
X7732000Y-8374000D02*
X7732000Y-8414000D01*
X7712000Y-8394000D02*
X7752000Y-8394000D01*
X7737000Y-6094050D02*
X7737000Y-6134050D01*
X7717000Y-6114050D02*
X7757000Y-6114050D01*
X7749000Y-8515000D02*
X7749000Y-8555000D01*
X7729000Y-8535000D02*
X7769000Y-8535000D01*
X7749000Y-8936000D02*
X7749000Y-8976000D01*
X7729000Y-8956000D02*
X7769000Y-8956000D01*
X7753000Y-8730000D02*
X7753000Y-8770000D01*
X7733000Y-8750000D02*
X7773000Y-8750000D01*
X7763000Y-11733000D02*
X7763000Y-11773000D01*
X7743000Y-11753000D02*
X7783000Y-11753000D01*
X7782000Y-7525000D02*
X7782000Y-7565000D01*
X7762000Y-7545000D02*
X7802000Y-7545000D01*
X7941000Y-9876000D02*
X7941000Y-9916000D01*
X7921000Y-9896000D02*
X7961000Y-9896000D01*
X7944000Y-9427000D02*
X7944000Y-9467000D01*
X7924000Y-9447000D02*
X7964000Y-9447000D01*
X8004000Y-6094050D02*
X8004000Y-6134050D01*
X7984000Y-6114050D02*
X8024000Y-6114050D01*
X8020000Y-9656000D02*
X8020000Y-9696000D01*
X8000000Y-9676000D02*
X8040000Y-9676000D01*
X8032000Y-9346000D02*
X8032000Y-9386000D01*
X8012000Y-9366000D02*
X8052000Y-9366000D01*
X8095550Y-9876000D02*
X8095550Y-9916000D01*
X8075550Y-9896000D02*
X8115550Y-9896000D01*
X8099000Y-11731000D02*
X8099000Y-11771000D01*
X8079000Y-11751000D02*
X8119000Y-11751000D01*
X8168000Y-10741000D02*
X8168000Y-10781000D01*
X8148000Y-10761000D02*
X8188000Y-10761000D01*
X8222000Y-8258000D02*
X8222000Y-8298000D01*
X8202000Y-8278000D02*
X8242000Y-8278000D01*
X8225000Y-8082000D02*
X8225000Y-8122000D01*
X8205000Y-8102000D02*
X8245000Y-8102000D01*
X8301000Y-10627000D02*
X8301000Y-10667000D01*
X8281000Y-10647000D02*
X8321000Y-10647000D01*
X8306000Y-6987000D02*
X8306000Y-7027000D01*
X8286000Y-7007000D02*
X8326000Y-7007000D01*
X8307000Y-7932000D02*
X8307000Y-7972000D01*
X8287000Y-7952000D02*
X8327000Y-7952000D01*
X8310000Y-6683000D02*
X8310000Y-6723000D01*
X8290000Y-6703000D02*
X8330000Y-6703000D01*
X8317000Y-6093000D02*
X8317000Y-6133000D01*
X8297000Y-6113000D02*
X8337000Y-6113000D01*
X8384000Y-9866000D02*
X8384000Y-9906000D01*
X8364000Y-9886000D02*
X8404000Y-9886000D01*
X8395000Y-6930000D02*
X8395000Y-6970000D01*
X8375000Y-6950000D02*
X8415000Y-6950000D01*
X8407000Y-10107000D02*
X8407000Y-10147000D01*
X8387000Y-10127000D02*
X8427000Y-10127000D01*
X8409000Y-11734000D02*
X8409000Y-11774000D01*
X8389000Y-11754000D02*
X8429000Y-11754000D01*
X8434000Y-8258000D02*
X8434000Y-8298000D01*
X8414000Y-8278000D02*
X8454000Y-8278000D01*
X8436000Y-6543000D02*
X8436000Y-6583000D01*
X8416000Y-6563000D02*
X8456000Y-6563000D01*
X8439000Y-7848000D02*
X8439000Y-7888000D01*
X8419000Y-7868000D02*
X8459000Y-7868000D01*
X8488000Y-6804000D02*
X8488000Y-6844000D01*
X8468000Y-6824000D02*
X8508000Y-6824000D01*
X8522000Y-7013000D02*
X8522000Y-7053000D01*
X8502000Y-7033000D02*
X8542000Y-7033000D01*
X8560000Y-6436000D02*
X8560000Y-6476000D01*
X8540000Y-6456000D02*
X8580000Y-6456000D01*
X8592000Y-8771000D02*
X8592000Y-8811000D01*
X8572000Y-8791000D02*
X8612000Y-8791000D01*
X8594000Y-7150000D02*
X8594000Y-7190000D01*
X8574000Y-7170000D02*
X8614000Y-7170000D01*
X8596000Y-10812000D02*
X8596000Y-10852000D01*
X8576000Y-10832000D02*
X8616000Y-10832000D01*
X8612000Y-6686000D02*
X8612000Y-6726000D01*
X8592000Y-6706000D02*
X8632000Y-6706000D01*
X8627000Y-10116000D02*
X8627000Y-10156000D01*
X8607000Y-10136000D02*
X8647000Y-10136000D01*
X8632000Y-6093000D02*
X8632000Y-6133000D01*
X8612000Y-6113000D02*
X8652000Y-6113000D01*
X8640000Y-9950000D02*
X8640000Y-9990000D01*
X8620000Y-9970000D02*
X8660000Y-9970000D01*
X8644000Y-8253000D02*
X8644000Y-8293000D01*
X8624000Y-8273000D02*
X8664000Y-8273000D01*
X8644000Y-11734000D02*
X8644000Y-11774000D01*
X8624000Y-11754000D02*
X8664000Y-11754000D01*
X8648000Y-6895000D02*
X8648000Y-6935000D01*
X8628000Y-6915000D02*
X8668000Y-6915000D01*
X8653000Y-10407000D02*
X8653000Y-10447000D01*
X8633000Y-10427000D02*
X8673000Y-10427000D01*
X8655000Y-10651000D02*
X8655000Y-10691000D01*
X8635000Y-10671000D02*
X8675000Y-10671000D01*
X8713000Y-8771000D02*
X8713000Y-8811000D01*
X8693000Y-8791000D02*
X8733000Y-8791000D01*
X8730000Y-6382000D02*
X8730000Y-6422000D01*
X8710000Y-6402000D02*
X8750000Y-6402000D01*
X8732000Y-6589450D02*
X8732000Y-6629450D01*
X8712000Y-6609450D02*
X8752000Y-6609450D01*
X8838000Y-7978000D02*
X8838000Y-8018000D01*
X8818000Y-7998000D02*
X8858000Y-7998000D01*
X8838000Y-8190000D02*
X8838000Y-8230000D01*
X8818000Y-8210000D02*
X8858000Y-8210000D01*
X8841000Y-10677000D02*
X8841000Y-10717000D01*
X8821000Y-10697000D02*
X8861000Y-10697000D01*
X8842000Y-10530000D02*
X8842000Y-10570000D01*
X8822000Y-10550000D02*
X8862000Y-10550000D01*
X8845000Y-10357000D02*
X8845000Y-10397000D01*
X8825000Y-10377000D02*
X8865000Y-10377000D01*
X8857000Y-6897000D02*
X8857000Y-6937000D01*
X8837000Y-6917000D02*
X8877000Y-6917000D01*
X8868000Y-8079000D02*
X8868000Y-8119000D01*
X8848000Y-8099000D02*
X8888000Y-8099000D01*
X8881000Y-11715000D02*
X8881000Y-11755000D01*
X8861000Y-11735000D02*
X8901000Y-11735000D01*
X8895000Y-7123000D02*
X8895000Y-7163000D01*
X8875000Y-7143000D02*
X8915000Y-7143000D01*
X8896000Y-7494000D02*
X8896000Y-7534000D01*
X8876000Y-7514000D02*
X8916000Y-7514000D01*
X8904000Y-7303000D02*
X8904000Y-7343000D01*
X8884000Y-7323000D02*
X8924000Y-7323000D01*
X8942000Y-7980000D02*
X8942000Y-8020000D01*
X8922000Y-8000000D02*
X8962000Y-8000000D01*
X8943000Y-8232000D02*
X8943000Y-8272000D01*
X8923000Y-8252000D02*
X8963000Y-8252000D01*
X8953979Y-6082481D02*
X8953979Y-6122481D01*
X8933979Y-6102481D02*
X8973979Y-6102481D01*
X8984050Y-7017000D02*
X8984050Y-7057000D01*
X8964050Y-7037000D02*
X9004050Y-7037000D01*
X8984050Y-7209000D02*
X8984050Y-7249000D01*
X8964050Y-7229000D02*
X9004050Y-7229000D01*
X8984050Y-7388000D02*
X8984050Y-7428000D01*
X8964050Y-7408000D02*
X9004050Y-7408000D01*
X9000000Y-10252000D02*
X9000000Y-10292000D01*
X8980000Y-10272000D02*
X9020000Y-10272000D01*
X9014000Y-7499000D02*
X9014000Y-7539000D01*
X8994000Y-7519000D02*
X9034000Y-7519000D01*
X9018000Y-8080000D02*
X9018000Y-8120000D01*
X8998000Y-8100000D02*
X9038000Y-8100000D01*
X9038000Y-8190000D02*
X9038000Y-8230000D01*
X9018000Y-8210000D02*
X9058000Y-8210000D01*
X9040208Y-7976917D02*
X9040208Y-8016917D01*
X9020208Y-7996917D02*
X9060208Y-7996917D01*
X9085000Y-6900000D02*
X9085000Y-6940000D01*
X9065000Y-6920000D02*
X9105000Y-6920000D01*
X9091000Y-9837550D02*
X9091000Y-9877550D01*
X9071000Y-9857550D02*
X9111000Y-9857550D01*
X9251000Y-6086000D02*
X9251000Y-6126000D01*
X9231000Y-6106000D02*
X9271000Y-6106000D01*
X9279000Y-6902000D02*
X9279000Y-6942000D01*
X9259000Y-6922000D02*
X9299000Y-6922000D01*
X9316000Y-7273000D02*
X9316000Y-7313000D01*
X9296000Y-7293000D02*
X9336000Y-7293000D01*
X9318000Y-7468000D02*
X9318000Y-7508000D01*
X9298000Y-7488000D02*
X9338000Y-7488000D01*
X9320000Y-7089000D02*
X9320000Y-7129000D01*
X9300000Y-7109000D02*
X9340000Y-7109000D01*
X9338000Y-10427000D02*
X9338000Y-10467000D01*
X9318000Y-10447000D02*
X9358000Y-10447000D01*
X9341000Y-10001000D02*
X9341000Y-10041000D01*
X9321000Y-10021000D02*
X9361000Y-10021000D01*
X9342000Y-9765000D02*
X9342000Y-9805000D01*
X9322000Y-9785000D02*
X9362000Y-9785000D01*
X9478412Y-7936819D02*
X9478412Y-7976819D01*
X9458412Y-7956819D02*
X9498412Y-7956819D01*
X9483000Y-10280000D02*
X9483000Y-10320000D01*
X9463000Y-10300000D02*
X9503000Y-10300000D01*
X9486000Y-10440000D02*
X9486000Y-10480000D01*
X9466000Y-10460000D02*
X9506000Y-10460000D01*
X9507000Y-7482000D02*
X9507000Y-7522000D01*
X9487000Y-7502000D02*
X9527000Y-7502000D01*
X9527000Y-6084000D02*
X9527000Y-6124000D01*
X9507000Y-6104000D02*
X9547000Y-6104000D01*
X9538000Y-11768000D02*
X9538000Y-11808000D01*
X9518000Y-11788000D02*
X9558000Y-11788000D01*
X9584000Y-7914050D02*
X9584000Y-7954050D01*
X9564000Y-7934050D02*
X9604000Y-7934050D01*
X9689141Y-7936300D02*
X9689141Y-7976300D01*
X9669141Y-7956300D02*
X9709141Y-7956300D01*
X9709000Y-7497000D02*
X9709000Y-7537000D01*
X9689000Y-7517000D02*
X9729000Y-7517000D01*
X9745266Y-8672266D02*
X9745266Y-8712266D01*
X9725266Y-8692266D02*
X9765266Y-8692266D01*
X9778000Y-11768000D02*
X9778000Y-11808000D01*
X9758000Y-11788000D02*
X9798000Y-11788000D01*
X9796000Y-7913550D02*
X9796000Y-7953550D01*
X9776000Y-7933550D02*
X9816000Y-7933550D01*
X9798000Y-6091000D02*
X9798000Y-6131000D01*
X9778000Y-6111000D02*
X9818000Y-6111000D01*
X9866235Y-8332234D02*
X9866235Y-8372234D01*
X9846235Y-8352234D02*
X9886235Y-8352234D01*
X9873000Y-8560000D02*
X9873000Y-8600000D01*
X9853000Y-8580000D02*
X9893000Y-8580000D01*
X9899789Y-7941281D02*
X9899789Y-7981281D01*
X9879789Y-7961281D02*
X9919789Y-7961281D01*
X9913000Y-7451000D02*
X9913000Y-7491000D01*
X9893000Y-7471000D02*
X9933000Y-7471000D01*
X9963235Y-8235234D02*
X9963235Y-8275234D01*
X9943235Y-8255234D02*
X9983235Y-8255234D01*
X9998000Y-8440000D02*
X9998000Y-8480000D01*
X9978000Y-8460000D02*
X10018000Y-8460000D01*
X10011000Y-7496000D02*
X10011000Y-7536000D01*
X9991000Y-7516000D02*
X10031000Y-7516000D01*
X10015487Y-11769862D02*
X10015487Y-11809862D01*
X9995487Y-11789862D02*
X10035487Y-11789862D01*
X10025000Y-7897000D02*
X10025000Y-7937000D01*
X10005000Y-7917000D02*
X10045000Y-7917000D01*
X10042181Y-8646181D02*
X10042181Y-8686181D01*
X10022181Y-8666181D02*
X10062181Y-8666181D01*
X10067000Y-8131000D02*
X10067000Y-8171000D01*
X10047000Y-8151000D02*
X10087000Y-8151000D01*
X10100000Y-6083098D02*
X10100000Y-6123098D01*
X10080000Y-6103098D02*
X10120000Y-6103098D01*
X10118000Y-8316000D02*
X10118000Y-8356000D01*
X10098000Y-8336000D02*
X10138000Y-8336000D01*
X10123000Y-7997000D02*
X10123000Y-8037000D01*
X10103000Y-8017000D02*
X10143000Y-8017000D01*
X10141181Y-8547181D02*
X10141181Y-8587181D01*
X10121181Y-8567181D02*
X10161181Y-8567181D01*
X10170000Y-6630000D02*
X10170000Y-6670000D01*
X10150000Y-6650000D02*
X10190000Y-6650000D01*
X10215000Y-11769000D02*
X10215000Y-11809000D01*
X10195000Y-11789000D02*
X10235000Y-11789000D01*
X10248266Y-8169265D02*
X10248266Y-8209265D01*
X10228266Y-8189265D02*
X10268266Y-8189265D01*
X10251050Y-8431000D02*
X10251050Y-8471000D01*
X10231050Y-8451000D02*
X10271050Y-8451000D01*
X10354000Y-7573000D02*
X10354000Y-7613000D01*
X10334000Y-7593000D02*
X10374000Y-7593000D01*
X10376000Y-8771000D02*
X10376000Y-8811000D01*
X10356000Y-8791000D02*
X10396000Y-8791000D01*
X10378000Y-6084000D02*
X10378000Y-6124000D01*
X10358000Y-6104000D02*
X10398000Y-6104000D01*
X10407000Y-6547000D02*
X10407000Y-6587000D01*
X10387000Y-6567000D02*
X10427000Y-6567000D01*
X10420950Y-8085000D02*
X10420950Y-8125000D01*
X10400950Y-8105000D02*
X10440950Y-8105000D01*
X10420950Y-8256000D02*
X10420950Y-8296000D01*
X10400950Y-8276000D02*
X10440950Y-8276000D01*
X10420950Y-8427000D02*
X10420950Y-8467000D01*
X10400950Y-8447000D02*
X10440950Y-8447000D01*
X10433235Y-7894765D02*
X10433235Y-7934765D01*
X10413235Y-7914765D02*
X10453235Y-7914765D01*
X10449000Y-11383000D02*
X10449000Y-11423000D01*
X10429000Y-11403000D02*
X10469000Y-11403000D01*
X10453000Y-11220000D02*
X10453000Y-11260000D01*
X10433000Y-11240000D02*
X10473000Y-11240000D01*
X10455000Y-7679000D02*
X10455000Y-7719000D01*
X10435000Y-7699000D02*
X10475000Y-7699000D01*
X10477000Y-11769000D02*
X10477000Y-11809000D01*
X10457000Y-11789000D02*
X10497000Y-11789000D01*
X10486000Y-6780000D02*
X10486000Y-6820000D01*
X10466000Y-6800000D02*
X10506000Y-6800000D01*
X10516000Y-9593000D02*
X10516000Y-9633000D01*
X10496000Y-9613000D02*
X10536000Y-9613000D01*
X10532235Y-7993765D02*
X10532235Y-8033765D01*
X10512235Y-8013765D02*
X10552235Y-8013765D01*
X10534000Y-9779000D02*
X10534000Y-9819000D01*
X10514000Y-9799000D02*
X10554000Y-9799000D01*
X10537000Y-8615000D02*
X10537000Y-8655000D01*
X10517000Y-8635000D02*
X10557000Y-8635000D01*
X10545000Y-6659000D02*
X10545000Y-6699000D01*
X10525000Y-6679000D02*
X10565000Y-6679000D01*
X10557000Y-7785000D02*
X10557000Y-7825000D01*
X10537000Y-7805000D02*
X10577000Y-7805000D01*
X10626735Y-8088265D02*
X10626735Y-8128265D01*
X10606735Y-8108265D02*
X10646735Y-8108265D01*
X10648000Y-8499000D02*
X10648000Y-8539000D01*
X10628000Y-8519000D02*
X10668000Y-8519000D01*
X10658266Y-7900734D02*
X10658266Y-7940734D01*
X10638266Y-7920734D02*
X10678266Y-7920734D01*
X10666000Y-6084000D02*
X10666000Y-6124000D01*
X10646000Y-6104000D02*
X10686000Y-6104000D01*
X10675000Y-10791000D02*
X10675000Y-10831000D01*
X10655000Y-10811000D02*
X10695000Y-10811000D01*
X10688000Y-9903000D02*
X10688000Y-9943000D01*
X10668000Y-9923000D02*
X10708000Y-9923000D01*
X10715000Y-11769000D02*
X10715000Y-11809000D01*
X10695000Y-11789000D02*
X10735000Y-11789000D01*
X10721235Y-8182765D02*
X10721235Y-8222765D01*
X10701235Y-8202765D02*
X10741235Y-8202765D01*
X10759766Y-8002234D02*
X10759766Y-8042234D01*
X10739766Y-8022234D02*
X10779766Y-8022234D01*
X10764000Y-8394000D02*
X10764000Y-8434000D01*
X10744000Y-8414000D02*
X10784000Y-8414000D01*
X10869000Y-9946000D02*
X10869000Y-9986000D01*
X10849000Y-9966000D02*
X10889000Y-9966000D01*
X10879266Y-8121734D02*
X10879266Y-8161734D01*
X10859266Y-8141734D02*
X10899266Y-8141734D01*
X10901000Y-11218000D02*
X10901000Y-11258000D01*
X10881000Y-11238000D02*
X10921000Y-11238000D01*
X10934000Y-10718000D02*
X10934000Y-10758000D01*
X10914000Y-10738000D02*
X10954000Y-10738000D01*
X10942000Y-6081000D02*
X10942000Y-6121000D01*
X10922000Y-6101000D02*
X10962000Y-6101000D01*
X10942000Y-10883000D02*
X10942000Y-10923000D01*
X10922000Y-10903000D02*
X10962000Y-10903000D01*
X10960000Y-11766000D02*
X10960000Y-11806000D01*
X10940000Y-11786000D02*
X10980000Y-11786000D01*
X11007050Y-10445000D02*
X11007050Y-10485000D01*
X10987050Y-10465000D02*
X11027050Y-10465000D01*
X11099000Y-11170000D02*
X11099000Y-11210000D01*
X11079000Y-11190000D02*
X11119000Y-11190000D01*
X11230000Y-11187000D02*
X11230000Y-11227000D01*
X11210000Y-11207000D02*
X11250000Y-11207000D01*
X11250000Y-6085000D02*
X11250000Y-6125000D01*
X11230000Y-6105000D02*
X11270000Y-6105000D01*
X11268000Y-10550000D02*
X11268000Y-10590000D01*
X11248000Y-10570000D02*
X11288000Y-10570000D01*
X11278500Y-8289500D02*
X11278500Y-8329500D01*
X11258500Y-8309500D02*
X11298500Y-8309500D01*
X11280000Y-11763000D02*
X11280000Y-11803000D01*
X11260000Y-11783000D02*
X11300000Y-11783000D01*
X11336000Y-10851000D02*
X11336000Y-10891000D01*
X11316000Y-10871000D02*
X11356000Y-10871000D01*
X11495500Y-8289500D02*
X11495500Y-8329500D01*
X11475500Y-8309500D02*
X11515500Y-8309500D01*
X11530000Y-6088000D02*
X11530000Y-6128000D01*
X11510000Y-6108000D02*
X11550000Y-6108000D01*
X11627000Y-11757000D02*
X11627000Y-11797000D01*
X11607000Y-11777000D02*
X11647000Y-11777000D01*
X11720000Y-11362000D02*
X11720000Y-11402000D01*
X11700000Y-11382000D02*
X11740000Y-11382000D01*
X11772000Y-10998000D02*
X11772000Y-11038000D01*
X11752000Y-11018000D02*
X11792000Y-11018000D01*
X11776000Y-11174000D02*
X11776000Y-11214000D01*
X11756000Y-11194000D02*
X11796000Y-11194000D01*
X11855000Y-6088000D02*
X11855000Y-6128000D01*
X11835000Y-6108000D02*
X11875000Y-6108000D01*
X11973000Y-11752000D02*
X11973000Y-11792000D01*
X11953000Y-11772000D02*
X11993000Y-11772000D01*
X12164000Y-6088000D02*
X12164000Y-6128000D01*
X12144000Y-6108000D02*
X12184000Y-6108000D01*
X12202000Y-7815000D02*
X12202000Y-7855000D01*
X12182000Y-7835000D02*
X12222000Y-7835000D01*
X12358000Y-11757000D02*
X12358000Y-11797000D01*
X12338000Y-11777000D02*
X12378000Y-11777000D01*
X12364000Y-8074000D02*
X12364000Y-8114000D01*
X12344000Y-8094000D02*
X12384000Y-8094000D01*
X12371000Y-7898000D02*
X12371000Y-7938000D01*
X12351000Y-7918000D02*
X12391000Y-7918000D01*
X12454000Y-6088000D02*
X12454000Y-6128000D01*
X12434000Y-6108000D02*
X12474000Y-6108000D01*
X12683000Y-11752000D02*
X12683000Y-11792000D01*
X12663000Y-11772000D02*
X12703000Y-11772000D01*
X12750000Y-6082000D02*
X12750000Y-6122000D01*
X12730000Y-6102000D02*
X12770000Y-6102000D01*
X12987000Y-6557000D02*
X12987000Y-6597000D01*
X12967000Y-6577000D02*
X13007000Y-6577000D01*
X12990000Y-6085000D02*
X12990000Y-6125000D01*
X12970000Y-6105000D02*
X13010000Y-6105000D01*
X12990000Y-6778000D02*
X12990000Y-6818000D01*
X12970000Y-6798000D02*
X13010000Y-6798000D01*
X12991000Y-11504000D02*
X12991000Y-11544000D01*
X12971000Y-11524000D02*
X13011000Y-11524000D01*
X12991000Y-11757000D02*
X12991000Y-11797000D01*
X12971000Y-11777000D02*
X13011000Y-11777000D01*
X12993000Y-6322000D02*
X12993000Y-6362000D01*
X12973000Y-6342000D02*
X13013000Y-6342000D01*
X12996000Y-11185000D02*
X12996000Y-11225000D01*
X12976000Y-11205000D02*
X13016000Y-11205000D01*
X13261000Y-6959000D02*
X13261000Y-6999000D01*
X13241000Y-6979000D02*
X13281000Y-6979000D01*
X13301000Y-10815000D02*
X13301000Y-10855000D01*
X13281000Y-10835000D02*
X13321000Y-10835000D01*
X13532000Y-6962000D02*
X13532000Y-7002000D01*
X13512000Y-6982000D02*
X13552000Y-6982000D01*
X13600000Y-10820000D02*
X13600000Y-10860000D01*
X13580000Y-10840000D02*
X13620000Y-10840000D01*
X13885000Y-10138000D02*
X13885000Y-10178000D01*
X13865000Y-10158000D02*
X13905000Y-10158000D01*
X13894000Y-6977000D02*
X13894000Y-7017000D01*
X13874000Y-6997000D02*
X13914000Y-6997000D01*
X13895000Y-9092000D02*
X13895000Y-9132000D01*
X13875000Y-9112000D02*
X13915000Y-9112000D01*
X13895000Y-9784000D02*
X13895000Y-9824000D01*
X13875000Y-9804000D02*
X13915000Y-9804000D01*
X13897000Y-7278000D02*
X13897000Y-7318000D01*
X13877000Y-7298000D02*
X13917000Y-7298000D01*
X13897000Y-7567000D02*
X13897000Y-7607000D01*
X13877000Y-7587000D02*
X13917000Y-7587000D01*
X13900000Y-8100000D02*
X13900000Y-8140000D01*
X13880000Y-8120000D02*
X13920000Y-8120000D01*
X13900000Y-8743000D02*
X13900000Y-8783000D01*
X13880000Y-8763000D02*
X13920000Y-8763000D01*
X13900000Y-10496000D02*
X13900000Y-10536000D01*
X13880000Y-10516000D02*
X13920000Y-10516000D01*
X13903000Y-7850000D02*
X13903000Y-7890000D01*
X13883000Y-7870000D02*
X13923000Y-7870000D01*
X13905000Y-10825000D02*
X13905000Y-10865000D01*
X13885000Y-10845000D02*
X13925000Y-10845000D01*
D15*
X10310285Y-9019285D02*
X10310285Y-8962716D01*
X10253716Y-8962716D01*
X10253716Y-9019285D01*
X10310285Y-9019285D01*
X10310285Y-9519285D02*
X10310285Y-9462716D01*
X10253716Y-9462716D01*
X10253716Y-9519285D01*
X10310285Y-9519285D01*
X10624285Y-10302285D02*
X10624285Y-10245716D01*
X10567716Y-10245716D01*
X10567716Y-10302285D01*
X10624285Y-10302285D01*
X11124285Y-10302285D02*
X11124285Y-10245716D01*
X11067716Y-10245716D01*
X11067716Y-10302285D01*
X11124285Y-10302285D01*
X11944284Y-10223285D02*
X11944284Y-10166716D01*
X11887715Y-10166716D01*
X11887715Y-10223285D01*
X11944284Y-10223285D01*
X12342284Y-8582285D02*
X12342284Y-8525716D01*
X12285715Y-8525716D01*
X12285715Y-8582285D01*
X12342284Y-8582285D01*
X12342284Y-9082285D02*
X12342284Y-9025716D01*
X12285715Y-9025716D01*
X12285715Y-9082285D01*
X12342284Y-9082285D01*
X12444284Y-10223285D02*
X12444284Y-10166716D01*
X12387715Y-10166716D01*
X12387715Y-10223285D01*
X12444284Y-10223285D01*
D16*
X5749000Y-6848500D02*
X5799000Y-6798500D01*
X5749000Y-6748500D01*
X5699000Y-6798500D01*
X5749000Y-6848500D01*
X5749000Y-7102500D02*
X5799000Y-7052500D01*
X5749000Y-7002500D01*
X5699000Y-7052500D01*
X5749000Y-7102500D01*
X6063500Y-6421000D02*
X6113500Y-6371000D01*
X6063500Y-6321000D01*
X6013500Y-6371000D01*
X6063500Y-6421000D01*
X6127000Y-11228000D02*
X6177000Y-11178000D01*
X6127000Y-11128000D01*
X6077000Y-11178000D01*
X6127000Y-11228000D01*
X6127000Y-11482000D02*
X6177000Y-11432000D01*
X6127000Y-11382000D01*
X6077000Y-11432000D01*
X6127000Y-11482000D01*
X6317500Y-6421000D02*
X6367500Y-6371000D01*
X6317500Y-6321000D01*
X6267500Y-6371000D01*
X6317500Y-6421000D01*
X6775750Y-6249000D02*
X6825750Y-6199000D01*
X6775750Y-6149000D01*
X6725750Y-6199000D01*
X6775750Y-6249000D01*
X7029750Y-6249000D02*
X7079750Y-6199000D01*
X7029750Y-6149000D01*
X6979750Y-6199000D01*
X7029750Y-6249000D01*
X7041000Y-11228000D02*
X7091000Y-11178000D01*
X7041000Y-11128000D01*
X6991000Y-11178000D01*
X7041000Y-11228000D01*
X7041000Y-11482000D02*
X7091000Y-11432000D01*
X7041000Y-11382000D01*
X6991000Y-11432000D01*
X7041000Y-11482000D01*
X7283750Y-6249000D02*
X7333750Y-6199000D01*
X7283750Y-6149000D01*
X7233750Y-6199000D01*
X7283750Y-6249000D01*
X7537750Y-6249000D02*
X7587750Y-6199000D01*
X7537750Y-6149000D01*
X7487750Y-6199000D01*
X7537750Y-6249000D01*
X7805500Y-6799000D02*
X7855500Y-6749000D01*
X7805500Y-6699000D01*
X7755500Y-6749000D01*
X7805500Y-6799000D01*
X7805500Y-7053000D02*
X7855500Y-7003000D01*
X7805500Y-6953000D01*
X7755500Y-7003000D01*
X7805500Y-7053000D01*
X8095000Y-7505500D02*
X8145000Y-7455500D01*
X8095000Y-7405500D01*
X8045000Y-7455500D01*
X8095000Y-7505500D01*
X8095000Y-7759500D02*
X8145000Y-7709500D01*
X8095000Y-7659500D01*
X8045000Y-7709500D01*
X8095000Y-7759500D01*
X8095000Y-8013500D02*
X8145000Y-7963500D01*
X8095000Y-7913500D01*
X8045000Y-7963500D01*
X8095000Y-8013500D01*
X9175000Y-11718000D02*
X9225000Y-11668000D01*
X9175000Y-11618000D01*
X9125000Y-11668000D01*
X9175000Y-11718000D01*
X9429000Y-11718000D02*
X9479000Y-11668000D01*
X9429000Y-11618000D01*
X9379000Y-11668000D01*
X9429000Y-11718000D01*
X9439000Y-6377000D02*
X9489000Y-6327000D01*
X9439000Y-6277000D01*
X9389000Y-6327000D01*
X9439000Y-6377000D01*
X9683000Y-11718000D02*
X9733000Y-11668000D01*
X9683000Y-11618000D01*
X9633000Y-11668000D01*
X9683000Y-11718000D01*
X9693000Y-6377000D02*
X9743000Y-6327000D01*
X9693000Y-6277000D01*
X9643000Y-6327000D01*
X9693000Y-6377000D01*
X9887000Y-8991500D02*
X9937000Y-8941500D01*
X9887000Y-8891500D01*
X9837000Y-8941500D01*
X9887000Y-8991500D01*
X9887000Y-9245500D02*
X9937000Y-9195500D01*
X9887000Y-9145500D01*
X9837000Y-9195500D01*
X9887000Y-9245500D01*
X9887000Y-9499500D02*
X9937000Y-9449500D01*
X9887000Y-9399500D01*
X9837000Y-9449500D01*
X9887000Y-9499500D01*
X9937000Y-11718000D02*
X9987000Y-11668000D01*
X9937000Y-11618000D01*
X9887000Y-11668000D01*
X9937000Y-11718000D01*
X10189000Y-11073500D02*
X10239000Y-11023500D01*
X10189000Y-10973500D01*
X10139000Y-11023500D01*
X10189000Y-11073500D01*
X10189000Y-11327500D02*
X10239000Y-11277500D01*
X10189000Y-11227500D01*
X10139000Y-11277500D01*
X10189000Y-11327500D01*
X10374000Y-11710000D02*
X10424000Y-11660000D01*
X10374000Y-11610000D01*
X10324000Y-11660000D01*
X10374000Y-11710000D01*
X10395500Y-7175000D02*
X10445500Y-7125000D01*
X10395500Y-7075000D01*
X10345500Y-7125000D01*
X10395500Y-7175000D01*
X10395500Y-7429000D02*
X10445500Y-7379000D01*
X10395500Y-7329000D01*
X10345500Y-7379000D01*
X10395500Y-7429000D01*
X10628000Y-11710000D02*
X10678000Y-11660000D01*
X10628000Y-11610000D01*
X10578000Y-11660000D01*
X10628000Y-11710000D01*
X10882000Y-11710000D02*
X10932000Y-11660000D01*
X10882000Y-11610000D01*
X10832000Y-11660000D01*
X10882000Y-11710000D01*
D17*
X10099962Y-9983962D02*
X10200038Y-10084038D01*
X10200038Y-9983962D02*
X10099962Y-10084038D01*
X10200038Y-10034000D02*
G75*
G03*
X10200038Y-10034000I-50038J0D01*
G01*
X10099962Y-10237962D02*
X10200038Y-10338038D01*
X10200038Y-10237962D02*
X10099962Y-10338038D01*
X10200038Y-10288000D02*
G75*
G03*
X10200038Y-10288000I-50038J0D01*
G01*
X10099962Y-10491962D02*
X10200038Y-10592038D01*
X10200038Y-10491962D02*
X10099962Y-10592038D01*
X10200038Y-10542000D02*
G75*
G03*
X10200038Y-10542000I-50038J0D01*
G01*
D18*
X10481990Y-9057710D02*
X10583590Y-9159310D01*
X10583590Y-9057710D02*
X10481990Y-9159310D01*
X10532790Y-9057710D02*
X10532790Y-9159310D01*
X10481990Y-9108510D02*
X10583590Y-9108510D01*
X10884580Y-9252020D02*
X10986180Y-9353620D01*
X10986180Y-9252020D02*
X10884580Y-9353620D01*
X10935380Y-9252020D02*
X10935380Y-9353620D01*
X10884580Y-9302820D02*
X10986180Y-9302820D01*
X11008200Y-10969200D02*
X11109800Y-11070800D01*
X11109800Y-10969200D02*
X11008200Y-11070800D01*
X11059000Y-10969200D02*
X11059000Y-11070800D01*
X11008200Y-11020000D02*
X11109800Y-11020000D01*
X11074200Y-10733200D02*
X11175800Y-10834800D01*
X11175800Y-10733200D02*
X11074200Y-10834800D01*
X11125000Y-10733200D02*
X11125000Y-10834800D01*
X11074200Y-10784000D02*
X11175800Y-10784000D01*
X11189380Y-9555285D02*
X11290980Y-9656885D01*
X11290980Y-9555285D02*
X11189380Y-9656885D01*
X11240180Y-9555285D02*
X11240180Y-9656885D01*
X11189380Y-9606085D02*
X11290980Y-9606085D01*
X11383690Y-9957875D02*
X11485290Y-10059475D01*
X11485290Y-9957875D02*
X11383690Y-10059475D01*
X11434490Y-9957875D02*
X11434490Y-10059475D01*
X11383690Y-10008675D02*
X11485290Y-10008675D01*
X11448200Y-11022200D02*
X11549800Y-11123800D01*
X11549800Y-11022200D02*
X11448200Y-11123800D01*
X11499000Y-11022200D02*
X11499000Y-11123800D01*
X11448200Y-11073000D02*
X11549800Y-11073000D01*
X11522200Y-11235200D02*
X11623800Y-11336800D01*
X11623800Y-11235200D02*
X11522200Y-11336800D01*
X11573000Y-11235200D02*
X11573000Y-11336800D01*
X11522200Y-11286000D02*
X11623800Y-11286000D01*
D19*
X8857000Y-6207000D02*
X8967000Y-6317000D01*
X8967000Y-6207000D02*
X8857000Y-6317000D01*
X8950891Y-6300891D02*
X8950891Y-6223109D01*
X8873109Y-6223109D01*
X8873109Y-6300891D01*
X8950891Y-6300891D01*
X8857000Y-6667000D02*
X8967000Y-6777000D01*
X8967000Y-6667000D02*
X8857000Y-6777000D01*
X8950891Y-6760891D02*
X8950891Y-6683109D01*
X8873109Y-6683109D01*
X8873109Y-6760891D01*
X8950891Y-6760891D01*
X13192500Y-8886250D02*
X13302500Y-8996250D01*
X13302500Y-8886250D02*
X13192500Y-8996250D01*
X13286391Y-8980141D02*
X13286391Y-8902359D01*
X13208609Y-8902359D01*
X13208609Y-8980141D01*
X13286391Y-8980141D01*
D20*
X12670000Y-8363750D02*
X12820000Y-8513750D01*
X12820000Y-8363750D02*
X12670000Y-8513750D01*
X12745000Y-8513750D02*
X12820000Y-8438750D01*
X12745000Y-8363750D01*
X12670000Y-8438750D01*
X12745000Y-8513750D01*
X12670000Y-9368750D02*
X12820000Y-9518750D01*
X12820000Y-9368750D02*
X12670000Y-9518750D01*
X12745000Y-9518750D02*
X12820000Y-9443750D01*
X12745000Y-9368750D01*
X12670000Y-9443750D01*
X12745000Y-9518750D01*
X13675000Y-8363750D02*
X13825000Y-8513750D01*
X13825000Y-8363750D02*
X13675000Y-8513750D01*
X13750000Y-8513750D02*
X13825000Y-8438750D01*
X13750000Y-8363750D01*
X13675000Y-8438750D01*
X13750000Y-8513750D01*
X13675000Y-9368750D02*
X13825000Y-9518750D01*
X13825000Y-9368750D02*
X13675000Y-9518750D01*
X13750000Y-9518750D02*
X13825000Y-9443750D01*
X13750000Y-9368750D01*
X13675000Y-9443750D01*
X13750000Y-9518750D01*
D11*
X11528000Y-6246000D02*
X11528000Y-6446000D01*
X11428000Y-6346000D02*
X11628000Y-6346000D01*
X11628000Y-6346000D02*
G75*
G03*
X11628000Y-6346000I-100000J0D01*
G01*
D21*
X5309245Y-7318745D02*
X5309245Y-7071255D01*
X5061755Y-7071255D01*
X5061755Y-7318745D01*
X5309245Y-7318745D01*
X5360500Y-7195000D02*
G75*
G03*
X5360500Y-7195000I-175000J0D01*
G01*
X5309245Y-10811245D02*
X5309245Y-10563755D01*
X5061755Y-10563755D01*
X5061755Y-10811245D01*
X5309245Y-10811245D01*
X5360500Y-10687500D02*
G75*
G03*
X5360500Y-10687500I-175000J0D01*
G01*
X12929245Y-7318745D02*
X12929245Y-7071255D01*
X12681755Y-7071255D01*
X12681755Y-7318745D01*
X12929245Y-7318745D01*
X12980500Y-7195000D02*
G75*
G03*
X12980500Y-7195000I-175000J0D01*
G01*
X12929245Y-10811245D02*
X12929245Y-10563755D01*
X12681755Y-10563755D01*
X12681755Y-10811245D01*
X12929245Y-10811245D01*
X12980500Y-10687500D02*
G75*
G03*
X12980500Y-10687500I-175000J0D01*
G01*
D11*
X5053619Y-12209476D02*
X5053619Y-12009476D01*
X5101238Y-12009476D01*
X5129810Y-12019000D01*
X5148857Y-12038048D01*
X5158381Y-12057095D01*
X5167905Y-12095190D01*
X5167905Y-12123762D01*
X5158381Y-12161857D01*
X5148857Y-12180905D01*
X5129810Y-12199952D01*
X5101238Y-12209476D01*
X5053619Y-12209476D01*
X5253619Y-12209476D02*
X5253619Y-12076143D01*
X5253619Y-12114238D02*
X5263143Y-12095190D01*
X5272667Y-12085667D01*
X5291714Y-12076143D01*
X5310762Y-12076143D01*
X5377429Y-12209476D02*
X5377429Y-12076143D01*
X5377429Y-12009476D02*
X5367905Y-12019000D01*
X5377429Y-12028524D01*
X5386952Y-12019000D01*
X5377429Y-12009476D01*
X5377429Y-12028524D01*
X5501238Y-12209476D02*
X5482190Y-12199952D01*
X5472667Y-12180905D01*
X5472667Y-12009476D01*
X5606000Y-12209476D02*
X5586952Y-12199952D01*
X5577429Y-12180905D01*
X5577429Y-12009476D01*
X5834571Y-12209476D02*
X5834571Y-12009476D01*
X5901238Y-12152333D01*
X5967905Y-12009476D01*
X5967905Y-12209476D01*
X6148857Y-12209476D02*
X6148857Y-12104714D01*
X6139333Y-12085667D01*
X6120286Y-12076143D01*
X6082190Y-12076143D01*
X6063143Y-12085667D01*
X6148857Y-12199952D02*
X6129809Y-12209476D01*
X6082190Y-12209476D01*
X6063143Y-12199952D01*
X6053619Y-12180905D01*
X6053619Y-12161857D01*
X6063143Y-12142809D01*
X6082190Y-12133286D01*
X6129809Y-12133286D01*
X6148857Y-12123762D01*
X6244095Y-12076143D02*
X6244095Y-12276143D01*
X6244095Y-12085667D02*
X6263143Y-12076143D01*
X6301238Y-12076143D01*
X6320286Y-12085667D01*
X6329809Y-12095190D01*
X6339333Y-12114238D01*
X6339333Y-12171381D01*
X6329809Y-12190428D01*
X6320286Y-12199952D01*
X6301238Y-12209476D01*
X6263143Y-12209476D01*
X6244095Y-12199952D01*
X6425048Y-12190428D02*
X6434571Y-12199952D01*
X6425048Y-12209476D01*
X6415524Y-12199952D01*
X6425048Y-12190428D01*
X6425048Y-12209476D01*
X6425048Y-12085667D02*
X6434571Y-12095190D01*
X6425048Y-12104714D01*
X6415524Y-12095190D01*
X6425048Y-12085667D01*
X6425048Y-12104714D01*
D12*
X4766000Y-12524000D02*
X4796000Y-12554000D01*
X4796000Y-12524000D02*
X4766000Y-12554000D01*
D11*
X5091714Y-12429476D02*
X5110762Y-12429476D01*
X5129810Y-12439000D01*
X5139333Y-12448524D01*
X5148857Y-12467571D01*
X5158381Y-12505667D01*
X5158381Y-12553286D01*
X5148857Y-12591381D01*
X5139333Y-12610428D01*
X5129810Y-12619952D01*
X5110762Y-12629476D01*
X5091714Y-12629476D01*
X5072667Y-12619952D01*
X5063143Y-12610428D01*
X5053619Y-12591381D01*
X5044095Y-12553286D01*
X5044095Y-12505667D01*
X5053619Y-12467571D01*
X5063143Y-12448524D01*
X5072667Y-12439000D01*
X5091714Y-12429476D01*
X5244095Y-12610428D02*
X5253619Y-12619952D01*
X5244095Y-12629476D01*
X5234571Y-12619952D01*
X5244095Y-12610428D01*
X5244095Y-12629476D01*
X5320286Y-12429476D02*
X5444095Y-12429476D01*
X5377429Y-12505667D01*
X5406000Y-12505667D01*
X5425048Y-12515190D01*
X5434571Y-12524714D01*
X5444095Y-12543762D01*
X5444095Y-12591381D01*
X5434571Y-12610428D01*
X5425048Y-12619952D01*
X5406000Y-12629476D01*
X5348857Y-12629476D01*
X5329810Y-12619952D01*
X5320286Y-12610428D01*
X5567905Y-12429476D02*
X5586952Y-12429476D01*
X5606000Y-12439000D01*
X5615524Y-12448524D01*
X5625048Y-12467571D01*
X5634571Y-12505667D01*
X5634571Y-12553286D01*
X5625048Y-12591381D01*
X5615524Y-12610428D01*
X5606000Y-12619952D01*
X5586952Y-12629476D01*
X5567905Y-12629476D01*
X5548857Y-12619952D01*
X5539333Y-12610428D01*
X5529810Y-12591381D01*
X5520286Y-12553286D01*
X5520286Y-12505667D01*
X5529810Y-12467571D01*
X5539333Y-12448524D01*
X5548857Y-12439000D01*
X5567905Y-12429476D01*
X5758381Y-12429476D02*
X5777428Y-12429476D01*
X5796476Y-12439000D01*
X5806000Y-12448524D01*
X5815524Y-12467571D01*
X5825048Y-12505667D01*
X5825048Y-12553286D01*
X5815524Y-12591381D01*
X5806000Y-12610428D01*
X5796476Y-12619952D01*
X5777428Y-12629476D01*
X5758381Y-12629476D01*
X5739333Y-12619952D01*
X5729809Y-12610428D01*
X5720286Y-12591381D01*
X5710762Y-12553286D01*
X5710762Y-12505667D01*
X5720286Y-12467571D01*
X5729809Y-12448524D01*
X5739333Y-12439000D01*
X5758381Y-12429476D01*
X5910762Y-12629476D02*
X5910762Y-12496143D01*
X5910762Y-12515190D02*
X5920286Y-12505667D01*
X5939333Y-12496143D01*
X5967905Y-12496143D01*
X5986952Y-12505667D01*
X5996476Y-12524714D01*
X5996476Y-12629476D01*
X5996476Y-12524714D02*
X6006000Y-12505667D01*
X6025048Y-12496143D01*
X6053619Y-12496143D01*
X6072667Y-12505667D01*
X6082190Y-12524714D01*
X6082190Y-12629476D01*
X6177428Y-12629476D02*
X6177428Y-12496143D01*
X6177428Y-12515190D02*
X6186952Y-12505667D01*
X6206000Y-12496143D01*
X6234571Y-12496143D01*
X6253619Y-12505667D01*
X6263143Y-12524714D01*
X6263143Y-12629476D01*
X6263143Y-12524714D02*
X6272667Y-12505667D01*
X6291714Y-12496143D01*
X6320286Y-12496143D01*
X6339333Y-12505667D01*
X6348857Y-12524714D01*
X6348857Y-12629476D01*
X6739333Y-12419952D02*
X6567905Y-12677095D01*
X6996476Y-12429476D02*
X7015524Y-12429476D01*
X7034571Y-12439000D01*
X7044095Y-12448524D01*
X7053619Y-12467571D01*
X7063143Y-12505667D01*
X7063143Y-12553286D01*
X7053619Y-12591381D01*
X7044095Y-12610428D01*
X7034571Y-12619952D01*
X7015524Y-12629476D01*
X6996476Y-12629476D01*
X6977428Y-12619952D01*
X6967905Y-12610428D01*
X6958381Y-12591381D01*
X6948857Y-12553286D01*
X6948857Y-12505667D01*
X6958381Y-12467571D01*
X6967905Y-12448524D01*
X6977428Y-12439000D01*
X6996476Y-12429476D01*
X7148857Y-12610428D02*
X7158381Y-12619952D01*
X7148857Y-12629476D01*
X7139333Y-12619952D01*
X7148857Y-12610428D01*
X7148857Y-12629476D01*
X7282190Y-12429476D02*
X7301238Y-12429476D01*
X7320286Y-12439000D01*
X7329809Y-12448524D01*
X7339333Y-12467571D01*
X7348857Y-12505667D01*
X7348857Y-12553286D01*
X7339333Y-12591381D01*
X7329809Y-12610428D01*
X7320286Y-12619952D01*
X7301238Y-12629476D01*
X7282190Y-12629476D01*
X7263143Y-12619952D01*
X7253619Y-12610428D01*
X7244095Y-12591381D01*
X7234571Y-12553286D01*
X7234571Y-12505667D01*
X7244095Y-12467571D01*
X7253619Y-12448524D01*
X7263143Y-12439000D01*
X7282190Y-12429476D01*
X7539333Y-12629476D02*
X7425048Y-12629476D01*
X7482190Y-12629476D02*
X7482190Y-12429476D01*
X7463143Y-12458048D01*
X7444095Y-12477095D01*
X7425048Y-12486619D01*
X7729809Y-12629476D02*
X7615524Y-12629476D01*
X7672667Y-12629476D02*
X7672667Y-12429476D01*
X7653619Y-12458048D01*
X7634571Y-12477095D01*
X7615524Y-12486619D01*
X7844095Y-12515190D02*
X7825048Y-12505667D01*
X7815524Y-12496143D01*
X7806000Y-12477095D01*
X7806000Y-12467571D01*
X7815524Y-12448524D01*
X7825048Y-12439000D01*
X7844095Y-12429476D01*
X7882190Y-12429476D01*
X7901238Y-12439000D01*
X7910762Y-12448524D01*
X7920286Y-12467571D01*
X7920286Y-12477095D01*
X7910762Y-12496143D01*
X7901238Y-12505667D01*
X7882190Y-12515190D01*
X7844095Y-12515190D01*
X7825048Y-12524714D01*
X7815524Y-12534238D01*
X7806000Y-12553286D01*
X7806000Y-12591381D01*
X7815524Y-12610428D01*
X7825048Y-12619952D01*
X7844095Y-12629476D01*
X7882190Y-12629476D01*
X7901238Y-12619952D01*
X7910762Y-12610428D01*
X7920286Y-12591381D01*
X7920286Y-12553286D01*
X7910762Y-12534238D01*
X7901238Y-12524714D01*
X7882190Y-12515190D01*
X7996476Y-12429476D02*
X7996476Y-12467571D01*
X8072667Y-12429476D02*
X8072667Y-12467571D01*
X8367905Y-12705667D02*
X8358381Y-12696143D01*
X8339333Y-12667571D01*
X8329809Y-12648524D01*
X8320286Y-12619952D01*
X8310762Y-12572333D01*
X8310762Y-12534238D01*
X8320286Y-12486619D01*
X8329809Y-12458048D01*
X8339333Y-12439000D01*
X8358381Y-12410428D01*
X8367905Y-12400905D01*
X8539333Y-12429476D02*
X8444095Y-12429476D01*
X8434571Y-12524714D01*
X8444095Y-12515190D01*
X8463143Y-12505667D01*
X8510762Y-12505667D01*
X8529810Y-12515190D01*
X8539333Y-12524714D01*
X8548857Y-12543762D01*
X8548857Y-12591381D01*
X8539333Y-12610428D01*
X8529810Y-12619952D01*
X8510762Y-12629476D01*
X8463143Y-12629476D01*
X8444095Y-12619952D01*
X8434571Y-12610428D01*
X8786952Y-12629476D02*
X8786952Y-12429476D01*
X8872667Y-12629476D02*
X8872667Y-12524714D01*
X8863143Y-12505667D01*
X8844095Y-12496143D01*
X8815524Y-12496143D01*
X8796476Y-12505667D01*
X8786952Y-12515190D01*
X8996476Y-12629476D02*
X8977429Y-12619952D01*
X8967905Y-12610428D01*
X8958381Y-12591381D01*
X8958381Y-12534238D01*
X8967905Y-12515190D01*
X8977429Y-12505667D01*
X8996476Y-12496143D01*
X9025048Y-12496143D01*
X9044095Y-12505667D01*
X9053619Y-12515190D01*
X9063143Y-12534238D01*
X9063143Y-12591381D01*
X9053619Y-12610428D01*
X9044095Y-12619952D01*
X9025048Y-12629476D01*
X8996476Y-12629476D01*
X9177429Y-12629476D02*
X9158381Y-12619952D01*
X9148857Y-12600905D01*
X9148857Y-12429476D01*
X9329810Y-12619952D02*
X9310762Y-12629476D01*
X9272667Y-12629476D01*
X9253619Y-12619952D01*
X9244095Y-12600905D01*
X9244095Y-12524714D01*
X9253619Y-12505667D01*
X9272667Y-12496143D01*
X9310762Y-12496143D01*
X9329810Y-12505667D01*
X9339333Y-12524714D01*
X9339333Y-12543762D01*
X9244095Y-12562809D01*
X9415524Y-12619952D02*
X9434571Y-12629476D01*
X9472667Y-12629476D01*
X9491714Y-12619952D01*
X9501238Y-12600905D01*
X9501238Y-12591381D01*
X9491714Y-12572333D01*
X9472667Y-12562809D01*
X9444095Y-12562809D01*
X9425048Y-12553286D01*
X9415524Y-12534238D01*
X9415524Y-12524714D01*
X9425048Y-12505667D01*
X9444095Y-12496143D01*
X9472667Y-12496143D01*
X9491714Y-12505667D01*
X9567905Y-12705667D02*
X9577429Y-12696143D01*
X9596476Y-12667571D01*
X9606000Y-12648524D01*
X9615524Y-12619952D01*
X9625048Y-12572333D01*
X9625048Y-12534238D01*
X9615524Y-12486619D01*
X9606000Y-12458048D01*
X9596476Y-12439000D01*
X9577429Y-12410428D01*
X9567905Y-12400905D01*
D13*
X4796000Y-12803000D02*
G75*
G03*
X4796000Y-12803000I-16530J0D01*
G01*
D11*
X5091714Y-12693476D02*
X5110762Y-12693476D01*
X5129810Y-12703000D01*
X5139333Y-12712524D01*
X5148857Y-12731571D01*
X5158381Y-12769667D01*
X5158381Y-12817286D01*
X5148857Y-12855381D01*
X5139333Y-12874428D01*
X5129810Y-12883952D01*
X5110762Y-12893476D01*
X5091714Y-12893476D01*
X5072667Y-12883952D01*
X5063143Y-12874428D01*
X5053619Y-12855381D01*
X5044095Y-12817286D01*
X5044095Y-12769667D01*
X5053619Y-12731571D01*
X5063143Y-12712524D01*
X5072667Y-12703000D01*
X5091714Y-12693476D01*
X5244095Y-12874428D02*
X5253619Y-12883952D01*
X5244095Y-12893476D01*
X5234571Y-12883952D01*
X5244095Y-12874428D01*
X5244095Y-12893476D01*
X5320286Y-12693476D02*
X5444095Y-12693476D01*
X5377429Y-12769667D01*
X5406000Y-12769667D01*
X5425048Y-12779190D01*
X5434571Y-12788714D01*
X5444095Y-12807762D01*
X5444095Y-12855381D01*
X5434571Y-12874428D01*
X5425048Y-12883952D01*
X5406000Y-12893476D01*
X5348857Y-12893476D01*
X5329810Y-12883952D01*
X5320286Y-12874428D01*
X5510762Y-12693476D02*
X5634571Y-12693476D01*
X5567905Y-12769667D01*
X5596476Y-12769667D01*
X5615524Y-12779190D01*
X5625048Y-12788714D01*
X5634571Y-12807762D01*
X5634571Y-12855381D01*
X5625048Y-12874428D01*
X5615524Y-12883952D01*
X5596476Y-12893476D01*
X5539333Y-12893476D01*
X5520286Y-12883952D01*
X5510762Y-12874428D01*
X5825048Y-12893476D02*
X5710762Y-12893476D01*
X5767905Y-12893476D02*
X5767905Y-12693476D01*
X5748857Y-12722048D01*
X5729809Y-12741095D01*
X5710762Y-12750619D01*
X5910762Y-12893476D02*
X5910762Y-12760143D01*
X5910762Y-12779190D02*
X5920286Y-12769667D01*
X5939333Y-12760143D01*
X5967905Y-12760143D01*
X5986952Y-12769667D01*
X5996476Y-12788714D01*
X5996476Y-12893476D01*
X5996476Y-12788714D02*
X6006000Y-12769667D01*
X6025048Y-12760143D01*
X6053619Y-12760143D01*
X6072667Y-12769667D01*
X6082190Y-12788714D01*
X6082190Y-12893476D01*
X6177428Y-12893476D02*
X6177428Y-12760143D01*
X6177428Y-12779190D02*
X6186952Y-12769667D01*
X6206000Y-12760143D01*
X6234571Y-12760143D01*
X6253619Y-12769667D01*
X6263143Y-12788714D01*
X6263143Y-12893476D01*
X6263143Y-12788714D02*
X6272667Y-12769667D01*
X6291714Y-12760143D01*
X6320286Y-12760143D01*
X6339333Y-12769667D01*
X6348857Y-12788714D01*
X6348857Y-12893476D01*
X6739333Y-12683952D02*
X6567905Y-12941095D01*
X6996476Y-12693476D02*
X7015524Y-12693476D01*
X7034571Y-12703000D01*
X7044095Y-12712524D01*
X7053619Y-12731571D01*
X7063143Y-12769667D01*
X7063143Y-12817286D01*
X7053619Y-12855381D01*
X7044095Y-12874428D01*
X7034571Y-12883952D01*
X7015524Y-12893476D01*
X6996476Y-12893476D01*
X6977428Y-12883952D01*
X6967905Y-12874428D01*
X6958381Y-12855381D01*
X6948857Y-12817286D01*
X6948857Y-12769667D01*
X6958381Y-12731571D01*
X6967905Y-12712524D01*
X6977428Y-12703000D01*
X6996476Y-12693476D01*
X7148857Y-12874428D02*
X7158381Y-12883952D01*
X7148857Y-12893476D01*
X7139333Y-12883952D01*
X7148857Y-12874428D01*
X7148857Y-12893476D01*
X7282190Y-12693476D02*
X7301238Y-12693476D01*
X7320286Y-12703000D01*
X7329809Y-12712524D01*
X7339333Y-12731571D01*
X7348857Y-12769667D01*
X7348857Y-12817286D01*
X7339333Y-12855381D01*
X7329809Y-12874428D01*
X7320286Y-12883952D01*
X7301238Y-12893476D01*
X7282190Y-12893476D01*
X7263143Y-12883952D01*
X7253619Y-12874428D01*
X7244095Y-12855381D01*
X7234571Y-12817286D01*
X7234571Y-12769667D01*
X7244095Y-12731571D01*
X7253619Y-12712524D01*
X7263143Y-12703000D01*
X7282190Y-12693476D01*
X7539333Y-12893476D02*
X7425048Y-12893476D01*
X7482190Y-12893476D02*
X7482190Y-12693476D01*
X7463143Y-12722048D01*
X7444095Y-12741095D01*
X7425048Y-12750619D01*
X7606000Y-12693476D02*
X7729809Y-12693476D01*
X7663143Y-12769667D01*
X7691714Y-12769667D01*
X7710762Y-12779190D01*
X7720286Y-12788714D01*
X7729809Y-12807762D01*
X7729809Y-12855381D01*
X7720286Y-12874428D01*
X7710762Y-12883952D01*
X7691714Y-12893476D01*
X7634571Y-12893476D01*
X7615524Y-12883952D01*
X7606000Y-12874428D01*
X7853619Y-12693476D02*
X7872667Y-12693476D01*
X7891714Y-12703000D01*
X7901238Y-12712524D01*
X7910762Y-12731571D01*
X7920286Y-12769667D01*
X7920286Y-12817286D01*
X7910762Y-12855381D01*
X7901238Y-12874428D01*
X7891714Y-12883952D01*
X7872667Y-12893476D01*
X7853619Y-12893476D01*
X7834571Y-12883952D01*
X7825048Y-12874428D01*
X7815524Y-12855381D01*
X7806000Y-12817286D01*
X7806000Y-12769667D01*
X7815524Y-12731571D01*
X7825048Y-12712524D01*
X7834571Y-12703000D01*
X7853619Y-12693476D01*
X7996476Y-12693476D02*
X7996476Y-12731571D01*
X8072667Y-12693476D02*
X8072667Y-12731571D01*
X8367905Y-12969667D02*
X8358381Y-12960143D01*
X8339333Y-12931571D01*
X8329809Y-12912524D01*
X8320286Y-12883952D01*
X8310762Y-12836333D01*
X8310762Y-12798238D01*
X8320286Y-12750619D01*
X8329809Y-12722048D01*
X8339333Y-12703000D01*
X8358381Y-12674428D01*
X8367905Y-12664905D01*
X8529810Y-12693476D02*
X8491714Y-12693476D01*
X8472667Y-12703000D01*
X8463143Y-12712524D01*
X8444095Y-12741095D01*
X8434571Y-12779190D01*
X8434571Y-12855381D01*
X8444095Y-12874428D01*
X8453619Y-12883952D01*
X8472667Y-12893476D01*
X8510762Y-12893476D01*
X8529810Y-12883952D01*
X8539333Y-12874428D01*
X8548857Y-12855381D01*
X8548857Y-12807762D01*
X8539333Y-12788714D01*
X8529810Y-12779190D01*
X8510762Y-12769667D01*
X8472667Y-12769667D01*
X8453619Y-12779190D01*
X8444095Y-12788714D01*
X8434571Y-12807762D01*
X8786952Y-12893476D02*
X8786952Y-12693476D01*
X8872667Y-12893476D02*
X8872667Y-12788714D01*
X8863143Y-12769667D01*
X8844095Y-12760143D01*
X8815524Y-12760143D01*
X8796476Y-12769667D01*
X8786952Y-12779190D01*
X8996476Y-12893476D02*
X8977429Y-12883952D01*
X8967905Y-12874428D01*
X8958381Y-12855381D01*
X8958381Y-12798238D01*
X8967905Y-12779190D01*
X8977429Y-12769667D01*
X8996476Y-12760143D01*
X9025048Y-12760143D01*
X9044095Y-12769667D01*
X9053619Y-12779190D01*
X9063143Y-12798238D01*
X9063143Y-12855381D01*
X9053619Y-12874428D01*
X9044095Y-12883952D01*
X9025048Y-12893476D01*
X8996476Y-12893476D01*
X9177429Y-12893476D02*
X9158381Y-12883952D01*
X9148857Y-12864905D01*
X9148857Y-12693476D01*
X9329810Y-12883952D02*
X9310762Y-12893476D01*
X9272667Y-12893476D01*
X9253619Y-12883952D01*
X9244095Y-12864905D01*
X9244095Y-12788714D01*
X9253619Y-12769667D01*
X9272667Y-12760143D01*
X9310762Y-12760143D01*
X9329810Y-12769667D01*
X9339333Y-12788714D01*
X9339333Y-12807762D01*
X9244095Y-12826809D01*
X9415524Y-12883952D02*
X9434571Y-12893476D01*
X9472667Y-12893476D01*
X9491714Y-12883952D01*
X9501238Y-12864905D01*
X9501238Y-12855381D01*
X9491714Y-12836333D01*
X9472667Y-12826809D01*
X9444095Y-12826809D01*
X9425048Y-12817286D01*
X9415524Y-12798238D01*
X9415524Y-12788714D01*
X9425048Y-12769667D01*
X9444095Y-12760143D01*
X9472667Y-12760143D01*
X9491714Y-12769667D01*
X9567905Y-12969667D02*
X9577429Y-12960143D01*
X9596476Y-12931571D01*
X9606000Y-12912524D01*
X9615524Y-12883952D01*
X9625048Y-12836333D01*
X9625048Y-12798238D01*
X9615524Y-12750619D01*
X9606000Y-12722048D01*
X9596476Y-12703000D01*
X9577429Y-12674428D01*
X9567905Y-12664905D01*
D14*
X4776000Y-13047000D02*
X4776000Y-13087000D01*
X4756000Y-13067000D02*
X4796000Y-13067000D01*
D11*
X5091714Y-12957476D02*
X5110762Y-12957476D01*
X5129810Y-12967000D01*
X5139333Y-12976524D01*
X5148857Y-12995571D01*
X5158381Y-13033667D01*
X5158381Y-13081286D01*
X5148857Y-13119381D01*
X5139333Y-13138428D01*
X5129810Y-13147952D01*
X5110762Y-13157476D01*
X5091714Y-13157476D01*
X5072667Y-13147952D01*
X5063143Y-13138428D01*
X5053619Y-13119381D01*
X5044095Y-13081286D01*
X5044095Y-13033667D01*
X5053619Y-12995571D01*
X5063143Y-12976524D01*
X5072667Y-12967000D01*
X5091714Y-12957476D01*
X5244095Y-13138428D02*
X5253619Y-13147952D01*
X5244095Y-13157476D01*
X5234571Y-13147952D01*
X5244095Y-13138428D01*
X5244095Y-13157476D01*
X5425048Y-13024143D02*
X5425048Y-13157476D01*
X5377429Y-12947952D02*
X5329810Y-13090809D01*
X5453619Y-13090809D01*
X5567905Y-12957476D02*
X5586952Y-12957476D01*
X5606000Y-12967000D01*
X5615524Y-12976524D01*
X5625048Y-12995571D01*
X5634571Y-13033667D01*
X5634571Y-13081286D01*
X5625048Y-13119381D01*
X5615524Y-13138428D01*
X5606000Y-13147952D01*
X5586952Y-13157476D01*
X5567905Y-13157476D01*
X5548857Y-13147952D01*
X5539333Y-13138428D01*
X5529810Y-13119381D01*
X5520286Y-13081286D01*
X5520286Y-13033667D01*
X5529810Y-12995571D01*
X5539333Y-12976524D01*
X5548857Y-12967000D01*
X5567905Y-12957476D01*
X5758381Y-12957476D02*
X5777428Y-12957476D01*
X5796476Y-12967000D01*
X5806000Y-12976524D01*
X5815524Y-12995571D01*
X5825048Y-13033667D01*
X5825048Y-13081286D01*
X5815524Y-13119381D01*
X5806000Y-13138428D01*
X5796476Y-13147952D01*
X5777428Y-13157476D01*
X5758381Y-13157476D01*
X5739333Y-13147952D01*
X5729809Y-13138428D01*
X5720286Y-13119381D01*
X5710762Y-13081286D01*
X5710762Y-13033667D01*
X5720286Y-12995571D01*
X5729809Y-12976524D01*
X5739333Y-12967000D01*
X5758381Y-12957476D01*
X5910762Y-13157476D02*
X5910762Y-13024143D01*
X5910762Y-13043190D02*
X5920286Y-13033667D01*
X5939333Y-13024143D01*
X5967905Y-13024143D01*
X5986952Y-13033667D01*
X5996476Y-13052714D01*
X5996476Y-13157476D01*
X5996476Y-13052714D02*
X6006000Y-13033667D01*
X6025048Y-13024143D01*
X6053619Y-13024143D01*
X6072667Y-13033667D01*
X6082190Y-13052714D01*
X6082190Y-13157476D01*
X6177428Y-13157476D02*
X6177428Y-13024143D01*
X6177428Y-13043190D02*
X6186952Y-13033667D01*
X6206000Y-13024143D01*
X6234571Y-13024143D01*
X6253619Y-13033667D01*
X6263143Y-13052714D01*
X6263143Y-13157476D01*
X6263143Y-13052714D02*
X6272667Y-13033667D01*
X6291714Y-13024143D01*
X6320286Y-13024143D01*
X6339333Y-13033667D01*
X6348857Y-13052714D01*
X6348857Y-13157476D01*
X6739333Y-12947952D02*
X6567905Y-13205095D01*
X6996476Y-12957476D02*
X7015524Y-12957476D01*
X7034571Y-12967000D01*
X7044095Y-12976524D01*
X7053619Y-12995571D01*
X7063143Y-13033667D01*
X7063143Y-13081286D01*
X7053619Y-13119381D01*
X7044095Y-13138428D01*
X7034571Y-13147952D01*
X7015524Y-13157476D01*
X6996476Y-13157476D01*
X6977428Y-13147952D01*
X6967905Y-13138428D01*
X6958381Y-13119381D01*
X6948857Y-13081286D01*
X6948857Y-13033667D01*
X6958381Y-12995571D01*
X6967905Y-12976524D01*
X6977428Y-12967000D01*
X6996476Y-12957476D01*
X7148857Y-13138428D02*
X7158381Y-13147952D01*
X7148857Y-13157476D01*
X7139333Y-13147952D01*
X7148857Y-13138428D01*
X7148857Y-13157476D01*
X7282190Y-12957476D02*
X7301238Y-12957476D01*
X7320286Y-12967000D01*
X7329809Y-12976524D01*
X7339333Y-12995571D01*
X7348857Y-13033667D01*
X7348857Y-13081286D01*
X7339333Y-13119381D01*
X7329809Y-13138428D01*
X7320286Y-13147952D01*
X7301238Y-13157476D01*
X7282190Y-13157476D01*
X7263143Y-13147952D01*
X7253619Y-13138428D01*
X7244095Y-13119381D01*
X7234571Y-13081286D01*
X7234571Y-13033667D01*
X7244095Y-12995571D01*
X7253619Y-12976524D01*
X7263143Y-12967000D01*
X7282190Y-12957476D01*
X7539333Y-13157476D02*
X7425048Y-13157476D01*
X7482190Y-13157476D02*
X7482190Y-12957476D01*
X7463143Y-12986048D01*
X7444095Y-13005095D01*
X7425048Y-13014619D01*
X7720286Y-12957476D02*
X7625048Y-12957476D01*
X7615524Y-13052714D01*
X7625048Y-13043190D01*
X7644095Y-13033667D01*
X7691714Y-13033667D01*
X7710762Y-13043190D01*
X7720286Y-13052714D01*
X7729809Y-13071762D01*
X7729809Y-13119381D01*
X7720286Y-13138428D01*
X7710762Y-13147952D01*
X7691714Y-13157476D01*
X7644095Y-13157476D01*
X7625048Y-13147952D01*
X7615524Y-13138428D01*
X7796476Y-12957476D02*
X7929809Y-12957476D01*
X7844095Y-13157476D01*
X7996476Y-12957476D02*
X7996476Y-12995571D01*
X8072667Y-12957476D02*
X8072667Y-12995571D01*
X8367905Y-13233667D02*
X8358381Y-13224143D01*
X8339333Y-13195571D01*
X8329809Y-13176524D01*
X8320286Y-13147952D01*
X8310762Y-13100333D01*
X8310762Y-13062238D01*
X8320286Y-13014619D01*
X8329809Y-12986048D01*
X8339333Y-12967000D01*
X8358381Y-12938428D01*
X8367905Y-12928905D01*
X8425048Y-12957476D02*
X8548857Y-12957476D01*
X8482190Y-13033667D01*
X8510762Y-13033667D01*
X8529810Y-13043190D01*
X8539333Y-13052714D01*
X8548857Y-13071762D01*
X8548857Y-13119381D01*
X8539333Y-13138428D01*
X8529810Y-13147952D01*
X8510762Y-13157476D01*
X8453619Y-13157476D01*
X8434571Y-13147952D01*
X8425048Y-13138428D01*
X8739333Y-13157476D02*
X8625048Y-13157476D01*
X8682190Y-13157476D02*
X8682190Y-12957476D01*
X8663143Y-12986048D01*
X8644095Y-13005095D01*
X8625048Y-13014619D01*
X8853619Y-13043190D02*
X8834571Y-13033667D01*
X8825048Y-13024143D01*
X8815524Y-13005095D01*
X8815524Y-12995571D01*
X8825048Y-12976524D01*
X8834571Y-12967000D01*
X8853619Y-12957476D01*
X8891714Y-12957476D01*
X8910762Y-12967000D01*
X8920286Y-12976524D01*
X8929810Y-12995571D01*
X8929810Y-13005095D01*
X8920286Y-13024143D01*
X8910762Y-13033667D01*
X8891714Y-13043190D01*
X8853619Y-13043190D01*
X8834571Y-13052714D01*
X8825048Y-13062238D01*
X8815524Y-13081286D01*
X8815524Y-13119381D01*
X8825048Y-13138428D01*
X8834571Y-13147952D01*
X8853619Y-13157476D01*
X8891714Y-13157476D01*
X8910762Y-13147952D01*
X8920286Y-13138428D01*
X8929810Y-13119381D01*
X8929810Y-13081286D01*
X8920286Y-13062238D01*
X8910762Y-13052714D01*
X8891714Y-13043190D01*
X9167905Y-13157476D02*
X9167905Y-12957476D01*
X9253619Y-13157476D02*
X9253619Y-13052714D01*
X9244095Y-13033667D01*
X9225048Y-13024143D01*
X9196476Y-13024143D01*
X9177429Y-13033667D01*
X9167905Y-13043190D01*
X9377429Y-13157476D02*
X9358381Y-13147952D01*
X9348857Y-13138428D01*
X9339333Y-13119381D01*
X9339333Y-13062238D01*
X9348857Y-13043190D01*
X9358381Y-13033667D01*
X9377429Y-13024143D01*
X9406000Y-13024143D01*
X9425048Y-13033667D01*
X9434571Y-13043190D01*
X9444095Y-13062238D01*
X9444095Y-13119381D01*
X9434571Y-13138428D01*
X9425048Y-13147952D01*
X9406000Y-13157476D01*
X9377429Y-13157476D01*
X9558381Y-13157476D02*
X9539333Y-13147952D01*
X9529810Y-13128905D01*
X9529810Y-12957476D01*
X9710762Y-13147952D02*
X9691714Y-13157476D01*
X9653619Y-13157476D01*
X9634571Y-13147952D01*
X9625048Y-13128905D01*
X9625048Y-13052714D01*
X9634571Y-13033667D01*
X9653619Y-13024143D01*
X9691714Y-13024143D01*
X9710762Y-13033667D01*
X9720286Y-13052714D01*
X9720286Y-13071762D01*
X9625048Y-13090809D01*
X9796476Y-13147952D02*
X9815524Y-13157476D01*
X9853619Y-13157476D01*
X9872667Y-13147952D01*
X9882190Y-13128905D01*
X9882190Y-13119381D01*
X9872667Y-13100333D01*
X9853619Y-13090809D01*
X9825048Y-13090809D01*
X9806000Y-13081286D01*
X9796476Y-13062238D01*
X9796476Y-13052714D01*
X9806000Y-13033667D01*
X9825048Y-13024143D01*
X9853619Y-13024143D01*
X9872667Y-13033667D01*
X9948857Y-13233667D02*
X9958381Y-13224143D01*
X9977429Y-13195571D01*
X9986952Y-13176524D01*
X9996476Y-13147952D01*
X10006000Y-13100333D01*
X10006000Y-13062238D01*
X9996476Y-13014619D01*
X9986952Y-12986048D01*
X9977429Y-12967000D01*
X9958381Y-12938428D01*
X9948857Y-12928905D01*
D15*
X4784285Y-13359284D02*
X4784285Y-13302715D01*
X4727716Y-13302715D01*
X4727716Y-13359284D01*
X4784285Y-13359284D01*
D11*
X5091714Y-13221476D02*
X5110762Y-13221476D01*
X5129810Y-13231000D01*
X5139333Y-13240524D01*
X5148857Y-13259571D01*
X5158381Y-13297667D01*
X5158381Y-13345286D01*
X5148857Y-13383381D01*
X5139333Y-13402428D01*
X5129810Y-13411952D01*
X5110762Y-13421476D01*
X5091714Y-13421476D01*
X5072667Y-13411952D01*
X5063143Y-13402428D01*
X5053619Y-13383381D01*
X5044095Y-13345286D01*
X5044095Y-13297667D01*
X5053619Y-13259571D01*
X5063143Y-13240524D01*
X5072667Y-13231000D01*
X5091714Y-13221476D01*
X5244095Y-13402428D02*
X5253619Y-13411952D01*
X5244095Y-13421476D01*
X5234571Y-13411952D01*
X5244095Y-13402428D01*
X5244095Y-13421476D01*
X5367905Y-13307190D02*
X5348857Y-13297667D01*
X5339333Y-13288143D01*
X5329810Y-13269095D01*
X5329810Y-13259571D01*
X5339333Y-13240524D01*
X5348857Y-13231000D01*
X5367905Y-13221476D01*
X5406000Y-13221476D01*
X5425048Y-13231000D01*
X5434571Y-13240524D01*
X5444095Y-13259571D01*
X5444095Y-13269095D01*
X5434571Y-13288143D01*
X5425048Y-13297667D01*
X5406000Y-13307190D01*
X5367905Y-13307190D01*
X5348857Y-13316714D01*
X5339333Y-13326238D01*
X5329810Y-13345286D01*
X5329810Y-13383381D01*
X5339333Y-13402428D01*
X5348857Y-13411952D01*
X5367905Y-13421476D01*
X5406000Y-13421476D01*
X5425048Y-13411952D01*
X5434571Y-13402428D01*
X5444095Y-13383381D01*
X5444095Y-13345286D01*
X5434571Y-13326238D01*
X5425048Y-13316714D01*
X5406000Y-13307190D01*
X5567905Y-13221476D02*
X5586952Y-13221476D01*
X5606000Y-13231000D01*
X5615524Y-13240524D01*
X5625048Y-13259571D01*
X5634571Y-13297667D01*
X5634571Y-13345286D01*
X5625048Y-13383381D01*
X5615524Y-13402428D01*
X5606000Y-13411952D01*
X5586952Y-13421476D01*
X5567905Y-13421476D01*
X5548857Y-13411952D01*
X5539333Y-13402428D01*
X5529810Y-13383381D01*
X5520286Y-13345286D01*
X5520286Y-13297667D01*
X5529810Y-13259571D01*
X5539333Y-13240524D01*
X5548857Y-13231000D01*
X5567905Y-13221476D01*
X5758381Y-13221476D02*
X5777428Y-13221476D01*
X5796476Y-13231000D01*
X5806000Y-13240524D01*
X5815524Y-13259571D01*
X5825048Y-13297667D01*
X5825048Y-13345286D01*
X5815524Y-13383381D01*
X5806000Y-13402428D01*
X5796476Y-13411952D01*
X5777428Y-13421476D01*
X5758381Y-13421476D01*
X5739333Y-13411952D01*
X5729809Y-13402428D01*
X5720286Y-13383381D01*
X5710762Y-13345286D01*
X5710762Y-13297667D01*
X5720286Y-13259571D01*
X5729809Y-13240524D01*
X5739333Y-13231000D01*
X5758381Y-13221476D01*
X5910762Y-13421476D02*
X5910762Y-13288143D01*
X5910762Y-13307190D02*
X5920286Y-13297667D01*
X5939333Y-13288143D01*
X5967905Y-13288143D01*
X5986952Y-13297667D01*
X5996476Y-13316714D01*
X5996476Y-13421476D01*
X5996476Y-13316714D02*
X6006000Y-13297667D01*
X6025048Y-13288143D01*
X6053619Y-13288143D01*
X6072667Y-13297667D01*
X6082190Y-13316714D01*
X6082190Y-13421476D01*
X6177428Y-13421476D02*
X6177428Y-13288143D01*
X6177428Y-13307190D02*
X6186952Y-13297667D01*
X6206000Y-13288143D01*
X6234571Y-13288143D01*
X6253619Y-13297667D01*
X6263143Y-13316714D01*
X6263143Y-13421476D01*
X6263143Y-13316714D02*
X6272667Y-13297667D01*
X6291714Y-13288143D01*
X6320286Y-13288143D01*
X6339333Y-13297667D01*
X6348857Y-13316714D01*
X6348857Y-13421476D01*
X6739333Y-13211952D02*
X6567905Y-13469095D01*
X6996476Y-13221476D02*
X7015524Y-13221476D01*
X7034571Y-13231000D01*
X7044095Y-13240524D01*
X7053619Y-13259571D01*
X7063143Y-13297667D01*
X7063143Y-13345286D01*
X7053619Y-13383381D01*
X7044095Y-13402428D01*
X7034571Y-13411952D01*
X7015524Y-13421476D01*
X6996476Y-13421476D01*
X6977428Y-13411952D01*
X6967905Y-13402428D01*
X6958381Y-13383381D01*
X6948857Y-13345286D01*
X6948857Y-13297667D01*
X6958381Y-13259571D01*
X6967905Y-13240524D01*
X6977428Y-13231000D01*
X6996476Y-13221476D01*
X7148857Y-13402428D02*
X7158381Y-13411952D01*
X7148857Y-13421476D01*
X7139333Y-13411952D01*
X7148857Y-13402428D01*
X7148857Y-13421476D01*
X7282190Y-13221476D02*
X7301238Y-13221476D01*
X7320286Y-13231000D01*
X7329809Y-13240524D01*
X7339333Y-13259571D01*
X7348857Y-13297667D01*
X7348857Y-13345286D01*
X7339333Y-13383381D01*
X7329809Y-13402428D01*
X7320286Y-13411952D01*
X7301238Y-13421476D01*
X7282190Y-13421476D01*
X7263143Y-13411952D01*
X7253619Y-13402428D01*
X7244095Y-13383381D01*
X7234571Y-13345286D01*
X7234571Y-13297667D01*
X7244095Y-13259571D01*
X7253619Y-13240524D01*
X7263143Y-13231000D01*
X7282190Y-13221476D01*
X7415524Y-13221476D02*
X7539333Y-13221476D01*
X7472667Y-13297667D01*
X7501238Y-13297667D01*
X7520286Y-13307190D01*
X7529809Y-13316714D01*
X7539333Y-13335762D01*
X7539333Y-13383381D01*
X7529809Y-13402428D01*
X7520286Y-13411952D01*
X7501238Y-13421476D01*
X7444095Y-13421476D01*
X7425048Y-13411952D01*
X7415524Y-13402428D01*
X7729809Y-13421476D02*
X7615524Y-13421476D01*
X7672667Y-13421476D02*
X7672667Y-13221476D01*
X7653619Y-13250048D01*
X7634571Y-13269095D01*
X7615524Y-13278619D01*
X7910762Y-13221476D02*
X7815524Y-13221476D01*
X7806000Y-13316714D01*
X7815524Y-13307190D01*
X7834571Y-13297667D01*
X7882190Y-13297667D01*
X7901238Y-13307190D01*
X7910762Y-13316714D01*
X7920286Y-13335762D01*
X7920286Y-13383381D01*
X7910762Y-13402428D01*
X7901238Y-13411952D01*
X7882190Y-13421476D01*
X7834571Y-13421476D01*
X7815524Y-13411952D01*
X7806000Y-13402428D01*
X7996476Y-13221476D02*
X7996476Y-13259571D01*
X8072667Y-13221476D02*
X8072667Y-13259571D01*
X8367905Y-13497667D02*
X8358381Y-13488143D01*
X8339333Y-13459571D01*
X8329809Y-13440524D01*
X8320286Y-13411952D01*
X8310762Y-13364333D01*
X8310762Y-13326238D01*
X8320286Y-13278619D01*
X8329809Y-13250048D01*
X8339333Y-13231000D01*
X8358381Y-13202428D01*
X8367905Y-13192905D01*
X8472667Y-13307190D02*
X8453619Y-13297667D01*
X8444095Y-13288143D01*
X8434571Y-13269095D01*
X8434571Y-13259571D01*
X8444095Y-13240524D01*
X8453619Y-13231000D01*
X8472667Y-13221476D01*
X8510762Y-13221476D01*
X8529810Y-13231000D01*
X8539333Y-13240524D01*
X8548857Y-13259571D01*
X8548857Y-13269095D01*
X8539333Y-13288143D01*
X8529810Y-13297667D01*
X8510762Y-13307190D01*
X8472667Y-13307190D01*
X8453619Y-13316714D01*
X8444095Y-13326238D01*
X8434571Y-13345286D01*
X8434571Y-13383381D01*
X8444095Y-13402428D01*
X8453619Y-13411952D01*
X8472667Y-13421476D01*
X8510762Y-13421476D01*
X8529810Y-13411952D01*
X8539333Y-13402428D01*
X8548857Y-13383381D01*
X8548857Y-13345286D01*
X8539333Y-13326238D01*
X8529810Y-13316714D01*
X8510762Y-13307190D01*
X8786952Y-13421476D02*
X8786952Y-13221476D01*
X8872667Y-13421476D02*
X8872667Y-13316714D01*
X8863143Y-13297667D01*
X8844095Y-13288143D01*
X8815524Y-13288143D01*
X8796476Y-13297667D01*
X8786952Y-13307190D01*
X8996476Y-13421476D02*
X8977429Y-13411952D01*
X8967905Y-13402428D01*
X8958381Y-13383381D01*
X8958381Y-13326238D01*
X8967905Y-13307190D01*
X8977429Y-13297667D01*
X8996476Y-13288143D01*
X9025048Y-13288143D01*
X9044095Y-13297667D01*
X9053619Y-13307190D01*
X9063143Y-13326238D01*
X9063143Y-13383381D01*
X9053619Y-13402428D01*
X9044095Y-13411952D01*
X9025048Y-13421476D01*
X8996476Y-13421476D01*
X9177429Y-13421476D02*
X9158381Y-13411952D01*
X9148857Y-13392905D01*
X9148857Y-13221476D01*
X9329810Y-13411952D02*
X9310762Y-13421476D01*
X9272667Y-13421476D01*
X9253619Y-13411952D01*
X9244095Y-13392905D01*
X9244095Y-13316714D01*
X9253619Y-13297667D01*
X9272667Y-13288143D01*
X9310762Y-13288143D01*
X9329810Y-13297667D01*
X9339333Y-13316714D01*
X9339333Y-13335762D01*
X9244095Y-13354809D01*
X9415524Y-13411952D02*
X9434571Y-13421476D01*
X9472667Y-13421476D01*
X9491714Y-13411952D01*
X9501238Y-13392905D01*
X9501238Y-13383381D01*
X9491714Y-13364333D01*
X9472667Y-13354809D01*
X9444095Y-13354809D01*
X9425048Y-13345286D01*
X9415524Y-13326238D01*
X9415524Y-13316714D01*
X9425048Y-13297667D01*
X9444095Y-13288143D01*
X9472667Y-13288143D01*
X9491714Y-13297667D01*
X9567905Y-13497667D02*
X9577429Y-13488143D01*
X9596476Y-13459571D01*
X9606000Y-13440524D01*
X9615524Y-13411952D01*
X9625048Y-13364333D01*
X9625048Y-13326238D01*
X9615524Y-13278619D01*
X9606000Y-13250048D01*
X9596476Y-13231000D01*
X9577429Y-13202428D01*
X9567905Y-13192905D01*
D16*
X4746000Y-13645000D02*
X4796000Y-13595000D01*
X4746000Y-13545000D01*
X4696000Y-13595000D01*
X4746000Y-13645000D01*
D11*
X5158381Y-13685476D02*
X5044095Y-13685476D01*
X5101238Y-13685476D02*
X5101238Y-13485476D01*
X5082190Y-13514048D01*
X5063143Y-13533095D01*
X5044095Y-13542619D01*
X5244095Y-13666428D02*
X5253619Y-13675952D01*
X5244095Y-13685476D01*
X5234571Y-13675952D01*
X5244095Y-13666428D01*
X5244095Y-13685476D01*
X5377429Y-13485476D02*
X5396476Y-13485476D01*
X5415524Y-13495000D01*
X5425048Y-13504524D01*
X5434571Y-13523571D01*
X5444095Y-13561667D01*
X5444095Y-13609286D01*
X5434571Y-13647381D01*
X5425048Y-13666428D01*
X5415524Y-13675952D01*
X5396476Y-13685476D01*
X5377429Y-13685476D01*
X5358381Y-13675952D01*
X5348857Y-13666428D01*
X5339333Y-13647381D01*
X5329810Y-13609286D01*
X5329810Y-13561667D01*
X5339333Y-13523571D01*
X5348857Y-13504524D01*
X5358381Y-13495000D01*
X5377429Y-13485476D01*
X5567905Y-13485476D02*
X5586952Y-13485476D01*
X5606000Y-13495000D01*
X5615524Y-13504524D01*
X5625048Y-13523571D01*
X5634571Y-13561667D01*
X5634571Y-13609286D01*
X5625048Y-13647381D01*
X5615524Y-13666428D01*
X5606000Y-13675952D01*
X5586952Y-13685476D01*
X5567905Y-13685476D01*
X5548857Y-13675952D01*
X5539333Y-13666428D01*
X5529810Y-13647381D01*
X5520286Y-13609286D01*
X5520286Y-13561667D01*
X5529810Y-13523571D01*
X5539333Y-13504524D01*
X5548857Y-13495000D01*
X5567905Y-13485476D01*
X5758381Y-13485476D02*
X5777428Y-13485476D01*
X5796476Y-13495000D01*
X5806000Y-13504524D01*
X5815524Y-13523571D01*
X5825048Y-13561667D01*
X5825048Y-13609286D01*
X5815524Y-13647381D01*
X5806000Y-13666428D01*
X5796476Y-13675952D01*
X5777428Y-13685476D01*
X5758381Y-13685476D01*
X5739333Y-13675952D01*
X5729809Y-13666428D01*
X5720286Y-13647381D01*
X5710762Y-13609286D01*
X5710762Y-13561667D01*
X5720286Y-13523571D01*
X5729809Y-13504524D01*
X5739333Y-13495000D01*
X5758381Y-13485476D01*
X5910762Y-13685476D02*
X5910762Y-13552143D01*
X5910762Y-13571190D02*
X5920286Y-13561667D01*
X5939333Y-13552143D01*
X5967905Y-13552143D01*
X5986952Y-13561667D01*
X5996476Y-13580714D01*
X5996476Y-13685476D01*
X5996476Y-13580714D02*
X6006000Y-13561667D01*
X6025048Y-13552143D01*
X6053619Y-13552143D01*
X6072667Y-13561667D01*
X6082190Y-13580714D01*
X6082190Y-13685476D01*
X6177428Y-13685476D02*
X6177428Y-13552143D01*
X6177428Y-13571190D02*
X6186952Y-13561667D01*
X6206000Y-13552143D01*
X6234571Y-13552143D01*
X6253619Y-13561667D01*
X6263143Y-13580714D01*
X6263143Y-13685476D01*
X6263143Y-13580714D02*
X6272667Y-13561667D01*
X6291714Y-13552143D01*
X6320286Y-13552143D01*
X6339333Y-13561667D01*
X6348857Y-13580714D01*
X6348857Y-13685476D01*
X6739333Y-13475952D02*
X6567905Y-13733095D01*
X6996476Y-13485476D02*
X7015524Y-13485476D01*
X7034571Y-13495000D01*
X7044095Y-13504524D01*
X7053619Y-13523571D01*
X7063143Y-13561667D01*
X7063143Y-13609286D01*
X7053619Y-13647381D01*
X7044095Y-13666428D01*
X7034571Y-13675952D01*
X7015524Y-13685476D01*
X6996476Y-13685476D01*
X6977428Y-13675952D01*
X6967905Y-13666428D01*
X6958381Y-13647381D01*
X6948857Y-13609286D01*
X6948857Y-13561667D01*
X6958381Y-13523571D01*
X6967905Y-13504524D01*
X6977428Y-13495000D01*
X6996476Y-13485476D01*
X7148857Y-13666428D02*
X7158381Y-13675952D01*
X7148857Y-13685476D01*
X7139333Y-13675952D01*
X7148857Y-13666428D01*
X7148857Y-13685476D01*
X7282190Y-13485476D02*
X7301238Y-13485476D01*
X7320286Y-13495000D01*
X7329809Y-13504524D01*
X7339333Y-13523571D01*
X7348857Y-13561667D01*
X7348857Y-13609286D01*
X7339333Y-13647381D01*
X7329809Y-13666428D01*
X7320286Y-13675952D01*
X7301238Y-13685476D01*
X7282190Y-13685476D01*
X7263143Y-13675952D01*
X7253619Y-13666428D01*
X7244095Y-13647381D01*
X7234571Y-13609286D01*
X7234571Y-13561667D01*
X7244095Y-13523571D01*
X7253619Y-13504524D01*
X7263143Y-13495000D01*
X7282190Y-13485476D01*
X7415524Y-13485476D02*
X7539333Y-13485476D01*
X7472667Y-13561667D01*
X7501238Y-13561667D01*
X7520286Y-13571190D01*
X7529809Y-13580714D01*
X7539333Y-13599762D01*
X7539333Y-13647381D01*
X7529809Y-13666428D01*
X7520286Y-13675952D01*
X7501238Y-13685476D01*
X7444095Y-13685476D01*
X7425048Y-13675952D01*
X7415524Y-13666428D01*
X7634571Y-13685476D02*
X7672667Y-13685476D01*
X7691714Y-13675952D01*
X7701238Y-13666428D01*
X7720286Y-13637857D01*
X7729809Y-13599762D01*
X7729809Y-13523571D01*
X7720286Y-13504524D01*
X7710762Y-13495000D01*
X7691714Y-13485476D01*
X7653619Y-13485476D01*
X7634571Y-13495000D01*
X7625048Y-13504524D01*
X7615524Y-13523571D01*
X7615524Y-13571190D01*
X7625048Y-13590238D01*
X7634571Y-13599762D01*
X7653619Y-13609286D01*
X7691714Y-13609286D01*
X7710762Y-13599762D01*
X7720286Y-13590238D01*
X7729809Y-13571190D01*
X7901238Y-13552143D02*
X7901238Y-13685476D01*
X7853619Y-13475952D02*
X7806000Y-13618809D01*
X7929809Y-13618809D01*
X7996476Y-13485476D02*
X7996476Y-13523571D01*
X8072667Y-13485476D02*
X8072667Y-13523571D01*
X8367905Y-13761667D02*
X8358381Y-13752143D01*
X8339333Y-13723571D01*
X8329809Y-13704524D01*
X8320286Y-13675952D01*
X8310762Y-13628333D01*
X8310762Y-13590238D01*
X8320286Y-13542619D01*
X8329809Y-13514048D01*
X8339333Y-13495000D01*
X8358381Y-13466428D01*
X8367905Y-13456905D01*
X8425048Y-13485476D02*
X8548857Y-13485476D01*
X8482190Y-13561667D01*
X8510762Y-13561667D01*
X8529810Y-13571190D01*
X8539333Y-13580714D01*
X8548857Y-13599762D01*
X8548857Y-13647381D01*
X8539333Y-13666428D01*
X8529810Y-13675952D01*
X8510762Y-13685476D01*
X8453619Y-13685476D01*
X8434571Y-13675952D01*
X8425048Y-13666428D01*
X8615524Y-13485476D02*
X8739333Y-13485476D01*
X8672667Y-13561667D01*
X8701238Y-13561667D01*
X8720286Y-13571190D01*
X8729810Y-13580714D01*
X8739333Y-13599762D01*
X8739333Y-13647381D01*
X8729810Y-13666428D01*
X8720286Y-13675952D01*
X8701238Y-13685476D01*
X8644095Y-13685476D01*
X8625048Y-13675952D01*
X8615524Y-13666428D01*
X8977429Y-13685476D02*
X8977429Y-13485476D01*
X9063143Y-13685476D02*
X9063143Y-13580714D01*
X9053619Y-13561667D01*
X9034571Y-13552143D01*
X9006000Y-13552143D01*
X8986952Y-13561667D01*
X8977429Y-13571190D01*
X9186952Y-13685476D02*
X9167905Y-13675952D01*
X9158381Y-13666428D01*
X9148857Y-13647381D01*
X9148857Y-13590238D01*
X9158381Y-13571190D01*
X9167905Y-13561667D01*
X9186952Y-13552143D01*
X9215524Y-13552143D01*
X9234571Y-13561667D01*
X9244095Y-13571190D01*
X9253619Y-13590238D01*
X9253619Y-13647381D01*
X9244095Y-13666428D01*
X9234571Y-13675952D01*
X9215524Y-13685476D01*
X9186952Y-13685476D01*
X9367905Y-13685476D02*
X9348857Y-13675952D01*
X9339333Y-13656905D01*
X9339333Y-13485476D01*
X9520286Y-13675952D02*
X9501238Y-13685476D01*
X9463143Y-13685476D01*
X9444095Y-13675952D01*
X9434571Y-13656905D01*
X9434571Y-13580714D01*
X9444095Y-13561667D01*
X9463143Y-13552143D01*
X9501238Y-13552143D01*
X9520286Y-13561667D01*
X9529810Y-13580714D01*
X9529810Y-13599762D01*
X9434571Y-13618809D01*
X9606000Y-13675952D02*
X9625048Y-13685476D01*
X9663143Y-13685476D01*
X9682190Y-13675952D01*
X9691714Y-13656905D01*
X9691714Y-13647381D01*
X9682190Y-13628333D01*
X9663143Y-13618809D01*
X9634571Y-13618809D01*
X9615524Y-13609286D01*
X9606000Y-13590238D01*
X9606000Y-13580714D01*
X9615524Y-13561667D01*
X9634571Y-13552143D01*
X9663143Y-13552143D01*
X9682190Y-13561667D01*
X9758381Y-13761667D02*
X9767905Y-13752143D01*
X9786952Y-13723571D01*
X9796476Y-13704524D01*
X9806000Y-13675952D01*
X9815524Y-13628333D01*
X9815524Y-13590238D01*
X9806000Y-13542619D01*
X9796476Y-13514048D01*
X9786952Y-13495000D01*
X9767905Y-13466428D01*
X9758381Y-13456905D01*
D17*
X4695924Y-13808962D02*
X4796000Y-13909038D01*
X4796000Y-13808962D02*
X4695924Y-13909038D01*
X4796000Y-13859000D02*
G75*
G03*
X4796000Y-13859000I-50038J0D01*
G01*
D11*
X5158381Y-13949476D02*
X5044095Y-13949476D01*
X5101238Y-13949476D02*
X5101238Y-13749476D01*
X5082190Y-13778048D01*
X5063143Y-13797095D01*
X5044095Y-13806619D01*
X5244095Y-13930428D02*
X5253619Y-13939952D01*
X5244095Y-13949476D01*
X5234571Y-13939952D01*
X5244095Y-13930428D01*
X5244095Y-13949476D01*
X5377429Y-13749476D02*
X5396476Y-13749476D01*
X5415524Y-13759000D01*
X5425048Y-13768524D01*
X5434571Y-13787571D01*
X5444095Y-13825667D01*
X5444095Y-13873286D01*
X5434571Y-13911381D01*
X5425048Y-13930428D01*
X5415524Y-13939952D01*
X5396476Y-13949476D01*
X5377429Y-13949476D01*
X5358381Y-13939952D01*
X5348857Y-13930428D01*
X5339333Y-13911381D01*
X5329810Y-13873286D01*
X5329810Y-13825667D01*
X5339333Y-13787571D01*
X5348857Y-13768524D01*
X5358381Y-13759000D01*
X5377429Y-13749476D01*
X5567905Y-13749476D02*
X5586952Y-13749476D01*
X5606000Y-13759000D01*
X5615524Y-13768524D01*
X5625048Y-13787571D01*
X5634571Y-13825667D01*
X5634571Y-13873286D01*
X5625048Y-13911381D01*
X5615524Y-13930428D01*
X5606000Y-13939952D01*
X5586952Y-13949476D01*
X5567905Y-13949476D01*
X5548857Y-13939952D01*
X5539333Y-13930428D01*
X5529810Y-13911381D01*
X5520286Y-13873286D01*
X5520286Y-13825667D01*
X5529810Y-13787571D01*
X5539333Y-13768524D01*
X5548857Y-13759000D01*
X5567905Y-13749476D01*
X5825048Y-13949476D02*
X5710762Y-13949476D01*
X5767905Y-13949476D02*
X5767905Y-13749476D01*
X5748857Y-13778048D01*
X5729809Y-13797095D01*
X5710762Y-13806619D01*
X5910762Y-13949476D02*
X5910762Y-13816143D01*
X5910762Y-13835190D02*
X5920286Y-13825667D01*
X5939333Y-13816143D01*
X5967905Y-13816143D01*
X5986952Y-13825667D01*
X5996476Y-13844714D01*
X5996476Y-13949476D01*
X5996476Y-13844714D02*
X6006000Y-13825667D01*
X6025048Y-13816143D01*
X6053619Y-13816143D01*
X6072667Y-13825667D01*
X6082190Y-13844714D01*
X6082190Y-13949476D01*
X6177428Y-13949476D02*
X6177428Y-13816143D01*
X6177428Y-13835190D02*
X6186952Y-13825667D01*
X6206000Y-13816143D01*
X6234571Y-13816143D01*
X6253619Y-13825667D01*
X6263143Y-13844714D01*
X6263143Y-13949476D01*
X6263143Y-13844714D02*
X6272667Y-13825667D01*
X6291714Y-13816143D01*
X6320286Y-13816143D01*
X6339333Y-13825667D01*
X6348857Y-13844714D01*
X6348857Y-13949476D01*
X6739333Y-13739952D02*
X6567905Y-13997095D01*
X6996476Y-13749476D02*
X7015524Y-13749476D01*
X7034571Y-13759000D01*
X7044095Y-13768524D01*
X7053619Y-13787571D01*
X7063143Y-13825667D01*
X7063143Y-13873286D01*
X7053619Y-13911381D01*
X7044095Y-13930428D01*
X7034571Y-13939952D01*
X7015524Y-13949476D01*
X6996476Y-13949476D01*
X6977428Y-13939952D01*
X6967905Y-13930428D01*
X6958381Y-13911381D01*
X6948857Y-13873286D01*
X6948857Y-13825667D01*
X6958381Y-13787571D01*
X6967905Y-13768524D01*
X6977428Y-13759000D01*
X6996476Y-13749476D01*
X7148857Y-13930428D02*
X7158381Y-13939952D01*
X7148857Y-13949476D01*
X7139333Y-13939952D01*
X7148857Y-13930428D01*
X7148857Y-13949476D01*
X7282190Y-13749476D02*
X7301238Y-13749476D01*
X7320286Y-13759000D01*
X7329809Y-13768524D01*
X7339333Y-13787571D01*
X7348857Y-13825667D01*
X7348857Y-13873286D01*
X7339333Y-13911381D01*
X7329809Y-13930428D01*
X7320286Y-13939952D01*
X7301238Y-13949476D01*
X7282190Y-13949476D01*
X7263143Y-13939952D01*
X7253619Y-13930428D01*
X7244095Y-13911381D01*
X7234571Y-13873286D01*
X7234571Y-13825667D01*
X7244095Y-13787571D01*
X7253619Y-13768524D01*
X7263143Y-13759000D01*
X7282190Y-13749476D01*
X7415524Y-13749476D02*
X7539333Y-13749476D01*
X7472667Y-13825667D01*
X7501238Y-13825667D01*
X7520286Y-13835190D01*
X7529809Y-13844714D01*
X7539333Y-13863762D01*
X7539333Y-13911381D01*
X7529809Y-13930428D01*
X7520286Y-13939952D01*
X7501238Y-13949476D01*
X7444095Y-13949476D01*
X7425048Y-13939952D01*
X7415524Y-13930428D01*
X7634571Y-13949476D02*
X7672667Y-13949476D01*
X7691714Y-13939952D01*
X7701238Y-13930428D01*
X7720286Y-13901857D01*
X7729809Y-13863762D01*
X7729809Y-13787571D01*
X7720286Y-13768524D01*
X7710762Y-13759000D01*
X7691714Y-13749476D01*
X7653619Y-13749476D01*
X7634571Y-13759000D01*
X7625048Y-13768524D01*
X7615524Y-13787571D01*
X7615524Y-13835190D01*
X7625048Y-13854238D01*
X7634571Y-13863762D01*
X7653619Y-13873286D01*
X7691714Y-13873286D01*
X7710762Y-13863762D01*
X7720286Y-13854238D01*
X7729809Y-13835190D01*
X7901238Y-13816143D02*
X7901238Y-13949476D01*
X7853619Y-13739952D02*
X7806000Y-13882809D01*
X7929809Y-13882809D01*
X7996476Y-13749476D02*
X7996476Y-13787571D01*
X8072667Y-13749476D02*
X8072667Y-13787571D01*
X8367905Y-14025667D02*
X8358381Y-14016143D01*
X8339333Y-13987571D01*
X8329809Y-13968524D01*
X8320286Y-13939952D01*
X8310762Y-13892333D01*
X8310762Y-13854238D01*
X8320286Y-13806619D01*
X8329809Y-13778048D01*
X8339333Y-13759000D01*
X8358381Y-13730428D01*
X8367905Y-13720905D01*
X8425048Y-13749476D02*
X8548857Y-13749476D01*
X8482190Y-13825667D01*
X8510762Y-13825667D01*
X8529810Y-13835190D01*
X8539333Y-13844714D01*
X8548857Y-13863762D01*
X8548857Y-13911381D01*
X8539333Y-13930428D01*
X8529810Y-13939952D01*
X8510762Y-13949476D01*
X8453619Y-13949476D01*
X8434571Y-13939952D01*
X8425048Y-13930428D01*
X8786952Y-13949476D02*
X8786952Y-13749476D01*
X8872667Y-13949476D02*
X8872667Y-13844714D01*
X8863143Y-13825667D01*
X8844095Y-13816143D01*
X8815524Y-13816143D01*
X8796476Y-13825667D01*
X8786952Y-13835190D01*
X8996476Y-13949476D02*
X8977429Y-13939952D01*
X8967905Y-13930428D01*
X8958381Y-13911381D01*
X8958381Y-13854238D01*
X8967905Y-13835190D01*
X8977429Y-13825667D01*
X8996476Y-13816143D01*
X9025048Y-13816143D01*
X9044095Y-13825667D01*
X9053619Y-13835190D01*
X9063143Y-13854238D01*
X9063143Y-13911381D01*
X9053619Y-13930428D01*
X9044095Y-13939952D01*
X9025048Y-13949476D01*
X8996476Y-13949476D01*
X9177429Y-13949476D02*
X9158381Y-13939952D01*
X9148857Y-13920905D01*
X9148857Y-13749476D01*
X9329810Y-13939952D02*
X9310762Y-13949476D01*
X9272667Y-13949476D01*
X9253619Y-13939952D01*
X9244095Y-13920905D01*
X9244095Y-13844714D01*
X9253619Y-13825667D01*
X9272667Y-13816143D01*
X9310762Y-13816143D01*
X9329810Y-13825667D01*
X9339333Y-13844714D01*
X9339333Y-13863762D01*
X9244095Y-13882809D01*
X9415524Y-13939952D02*
X9434571Y-13949476D01*
X9472667Y-13949476D01*
X9491714Y-13939952D01*
X9501238Y-13920905D01*
X9501238Y-13911381D01*
X9491714Y-13892333D01*
X9472667Y-13882809D01*
X9444095Y-13882809D01*
X9425048Y-13873286D01*
X9415524Y-13854238D01*
X9415524Y-13844714D01*
X9425048Y-13825667D01*
X9444095Y-13816143D01*
X9472667Y-13816143D01*
X9491714Y-13825667D01*
X9567905Y-14025667D02*
X9577429Y-14016143D01*
X9596476Y-13987571D01*
X9606000Y-13968524D01*
X9615524Y-13939952D01*
X9625048Y-13892333D01*
X9625048Y-13854238D01*
X9615524Y-13806619D01*
X9606000Y-13778048D01*
X9596476Y-13759000D01*
X9577429Y-13730428D01*
X9567905Y-13720905D01*
D18*
X4694400Y-14072200D02*
X4796000Y-14173800D01*
X4796000Y-14072200D02*
X4694400Y-14173800D01*
X4745200Y-14072200D02*
X4745200Y-14173800D01*
X4694400Y-14123000D02*
X4796000Y-14123000D01*
D11*
X5158381Y-14213476D02*
X5044095Y-14213476D01*
X5101238Y-14213476D02*
X5101238Y-14013476D01*
X5082190Y-14042048D01*
X5063143Y-14061095D01*
X5044095Y-14070619D01*
X5244095Y-14194428D02*
X5253619Y-14203952D01*
X5244095Y-14213476D01*
X5234571Y-14203952D01*
X5244095Y-14194428D01*
X5244095Y-14213476D01*
X5377429Y-14013476D02*
X5396476Y-14013476D01*
X5415524Y-14023000D01*
X5425048Y-14032524D01*
X5434571Y-14051571D01*
X5444095Y-14089667D01*
X5444095Y-14137286D01*
X5434571Y-14175381D01*
X5425048Y-14194428D01*
X5415524Y-14203952D01*
X5396476Y-14213476D01*
X5377429Y-14213476D01*
X5358381Y-14203952D01*
X5348857Y-14194428D01*
X5339333Y-14175381D01*
X5329810Y-14137286D01*
X5329810Y-14089667D01*
X5339333Y-14051571D01*
X5348857Y-14032524D01*
X5358381Y-14023000D01*
X5377429Y-14013476D01*
X5634571Y-14213476D02*
X5520286Y-14213476D01*
X5577429Y-14213476D02*
X5577429Y-14013476D01*
X5558381Y-14042048D01*
X5539333Y-14061095D01*
X5520286Y-14070619D01*
X5806000Y-14013476D02*
X5767905Y-14013476D01*
X5748857Y-14023000D01*
X5739333Y-14032524D01*
X5720286Y-14061095D01*
X5710762Y-14099190D01*
X5710762Y-14175381D01*
X5720286Y-14194428D01*
X5729809Y-14203952D01*
X5748857Y-14213476D01*
X5786952Y-14213476D01*
X5806000Y-14203952D01*
X5815524Y-14194428D01*
X5825048Y-14175381D01*
X5825048Y-14127762D01*
X5815524Y-14108714D01*
X5806000Y-14099190D01*
X5786952Y-14089667D01*
X5748857Y-14089667D01*
X5729809Y-14099190D01*
X5720286Y-14108714D01*
X5710762Y-14127762D01*
X5910762Y-14213476D02*
X5910762Y-14080143D01*
X5910762Y-14099190D02*
X5920286Y-14089667D01*
X5939333Y-14080143D01*
X5967905Y-14080143D01*
X5986952Y-14089667D01*
X5996476Y-14108714D01*
X5996476Y-14213476D01*
X5996476Y-14108714D02*
X6006000Y-14089667D01*
X6025048Y-14080143D01*
X6053619Y-14080143D01*
X6072667Y-14089667D01*
X6082190Y-14108714D01*
X6082190Y-14213476D01*
X6177428Y-14213476D02*
X6177428Y-14080143D01*
X6177428Y-14099190D02*
X6186952Y-14089667D01*
X6206000Y-14080143D01*
X6234571Y-14080143D01*
X6253619Y-14089667D01*
X6263143Y-14108714D01*
X6263143Y-14213476D01*
X6263143Y-14108714D02*
X6272667Y-14089667D01*
X6291714Y-14080143D01*
X6320286Y-14080143D01*
X6339333Y-14089667D01*
X6348857Y-14108714D01*
X6348857Y-14213476D01*
X6739333Y-14003952D02*
X6567905Y-14261095D01*
X6996476Y-14013476D02*
X7015524Y-14013476D01*
X7034571Y-14023000D01*
X7044095Y-14032524D01*
X7053619Y-14051571D01*
X7063143Y-14089667D01*
X7063143Y-14137286D01*
X7053619Y-14175381D01*
X7044095Y-14194428D01*
X7034571Y-14203952D01*
X7015524Y-14213476D01*
X6996476Y-14213476D01*
X6977428Y-14203952D01*
X6967905Y-14194428D01*
X6958381Y-14175381D01*
X6948857Y-14137286D01*
X6948857Y-14089667D01*
X6958381Y-14051571D01*
X6967905Y-14032524D01*
X6977428Y-14023000D01*
X6996476Y-14013476D01*
X7148857Y-14194428D02*
X7158381Y-14203952D01*
X7148857Y-14213476D01*
X7139333Y-14203952D01*
X7148857Y-14194428D01*
X7148857Y-14213476D01*
X7282190Y-14013476D02*
X7301238Y-14013476D01*
X7320286Y-14023000D01*
X7329809Y-14032524D01*
X7339333Y-14051571D01*
X7348857Y-14089667D01*
X7348857Y-14137286D01*
X7339333Y-14175381D01*
X7329809Y-14194428D01*
X7320286Y-14203952D01*
X7301238Y-14213476D01*
X7282190Y-14213476D01*
X7263143Y-14203952D01*
X7253619Y-14194428D01*
X7244095Y-14175381D01*
X7234571Y-14137286D01*
X7234571Y-14089667D01*
X7244095Y-14051571D01*
X7253619Y-14032524D01*
X7263143Y-14023000D01*
X7282190Y-14013476D01*
X7520286Y-14080143D02*
X7520286Y-14213476D01*
X7472667Y-14003952D02*
X7425048Y-14146809D01*
X7548857Y-14146809D01*
X7663143Y-14013476D02*
X7682190Y-14013476D01*
X7701238Y-14023000D01*
X7710762Y-14032524D01*
X7720286Y-14051571D01*
X7729809Y-14089667D01*
X7729809Y-14137286D01*
X7720286Y-14175381D01*
X7710762Y-14194428D01*
X7701238Y-14203952D01*
X7682190Y-14213476D01*
X7663143Y-14213476D01*
X7644095Y-14203952D01*
X7634571Y-14194428D01*
X7625048Y-14175381D01*
X7615524Y-14137286D01*
X7615524Y-14089667D01*
X7625048Y-14051571D01*
X7634571Y-14032524D01*
X7644095Y-14023000D01*
X7663143Y-14013476D01*
X7853619Y-14013476D02*
X7872667Y-14013476D01*
X7891714Y-14023000D01*
X7901238Y-14032524D01*
X7910762Y-14051571D01*
X7920286Y-14089667D01*
X7920286Y-14137286D01*
X7910762Y-14175381D01*
X7901238Y-14194428D01*
X7891714Y-14203952D01*
X7872667Y-14213476D01*
X7853619Y-14213476D01*
X7834571Y-14203952D01*
X7825048Y-14194428D01*
X7815524Y-14175381D01*
X7806000Y-14137286D01*
X7806000Y-14089667D01*
X7815524Y-14051571D01*
X7825048Y-14032524D01*
X7834571Y-14023000D01*
X7853619Y-14013476D01*
X7996476Y-14013476D02*
X7996476Y-14051571D01*
X8072667Y-14013476D02*
X8072667Y-14051571D01*
X8367905Y-14289667D02*
X8358381Y-14280143D01*
X8339333Y-14251571D01*
X8329809Y-14232524D01*
X8320286Y-14203952D01*
X8310762Y-14156333D01*
X8310762Y-14118238D01*
X8320286Y-14070619D01*
X8329809Y-14042048D01*
X8339333Y-14023000D01*
X8358381Y-13994428D01*
X8367905Y-13984905D01*
X8472667Y-14099190D02*
X8453619Y-14089667D01*
X8444095Y-14080143D01*
X8434571Y-14061095D01*
X8434571Y-14051571D01*
X8444095Y-14032524D01*
X8453619Y-14023000D01*
X8472667Y-14013476D01*
X8510762Y-14013476D01*
X8529810Y-14023000D01*
X8539333Y-14032524D01*
X8548857Y-14051571D01*
X8548857Y-14061095D01*
X8539333Y-14080143D01*
X8529810Y-14089667D01*
X8510762Y-14099190D01*
X8472667Y-14099190D01*
X8453619Y-14108714D01*
X8444095Y-14118238D01*
X8434571Y-14137286D01*
X8434571Y-14175381D01*
X8444095Y-14194428D01*
X8453619Y-14203952D01*
X8472667Y-14213476D01*
X8510762Y-14213476D01*
X8529810Y-14203952D01*
X8539333Y-14194428D01*
X8548857Y-14175381D01*
X8548857Y-14137286D01*
X8539333Y-14118238D01*
X8529810Y-14108714D01*
X8510762Y-14099190D01*
X8786952Y-14213476D02*
X8786952Y-14013476D01*
X8872667Y-14213476D02*
X8872667Y-14108714D01*
X8863143Y-14089667D01*
X8844095Y-14080143D01*
X8815524Y-14080143D01*
X8796476Y-14089667D01*
X8786952Y-14099190D01*
X8996476Y-14213476D02*
X8977429Y-14203952D01*
X8967905Y-14194428D01*
X8958381Y-14175381D01*
X8958381Y-14118238D01*
X8967905Y-14099190D01*
X8977429Y-14089667D01*
X8996476Y-14080143D01*
X9025048Y-14080143D01*
X9044095Y-14089667D01*
X9053619Y-14099190D01*
X9063143Y-14118238D01*
X9063143Y-14175381D01*
X9053619Y-14194428D01*
X9044095Y-14203952D01*
X9025048Y-14213476D01*
X8996476Y-14213476D01*
X9177429Y-14213476D02*
X9158381Y-14203952D01*
X9148857Y-14184905D01*
X9148857Y-14013476D01*
X9329810Y-14203952D02*
X9310762Y-14213476D01*
X9272667Y-14213476D01*
X9253619Y-14203952D01*
X9244095Y-14184905D01*
X9244095Y-14108714D01*
X9253619Y-14089667D01*
X9272667Y-14080143D01*
X9310762Y-14080143D01*
X9329810Y-14089667D01*
X9339333Y-14108714D01*
X9339333Y-14127762D01*
X9244095Y-14146809D01*
X9415524Y-14203952D02*
X9434571Y-14213476D01*
X9472667Y-14213476D01*
X9491714Y-14203952D01*
X9501238Y-14184905D01*
X9501238Y-14175381D01*
X9491714Y-14156333D01*
X9472667Y-14146809D01*
X9444095Y-14146809D01*
X9425048Y-14137286D01*
X9415524Y-14118238D01*
X9415524Y-14108714D01*
X9425048Y-14089667D01*
X9444095Y-14080143D01*
X9472667Y-14080143D01*
X9491714Y-14089667D01*
X9567905Y-14289667D02*
X9577429Y-14280143D01*
X9596476Y-14251571D01*
X9606000Y-14232524D01*
X9615524Y-14203952D01*
X9625048Y-14156333D01*
X9625048Y-14118238D01*
X9615524Y-14070619D01*
X9606000Y-14042048D01*
X9596476Y-14023000D01*
X9577429Y-13994428D01*
X9567905Y-13984905D01*
D19*
X4686000Y-14332000D02*
X4796000Y-14442000D01*
X4796000Y-14332000D02*
X4686000Y-14442000D01*
X4779891Y-14425891D02*
X4779891Y-14348109D01*
X4702109Y-14348109D01*
X4702109Y-14425891D01*
X4779891Y-14425891D01*
D11*
X5158381Y-14477476D02*
X5044095Y-14477476D01*
X5101238Y-14477476D02*
X5101238Y-14277476D01*
X5082190Y-14306048D01*
X5063143Y-14325095D01*
X5044095Y-14334619D01*
X5244095Y-14458428D02*
X5253619Y-14467952D01*
X5244095Y-14477476D01*
X5234571Y-14467952D01*
X5244095Y-14458428D01*
X5244095Y-14477476D01*
X5444095Y-14477476D02*
X5329810Y-14477476D01*
X5386952Y-14477476D02*
X5386952Y-14277476D01*
X5367905Y-14306048D01*
X5348857Y-14325095D01*
X5329810Y-14334619D01*
X5567905Y-14277476D02*
X5586952Y-14277476D01*
X5606000Y-14287000D01*
X5615524Y-14296524D01*
X5625048Y-14315571D01*
X5634571Y-14353667D01*
X5634571Y-14401286D01*
X5625048Y-14439381D01*
X5615524Y-14458428D01*
X5606000Y-14467952D01*
X5586952Y-14477476D01*
X5567905Y-14477476D01*
X5548857Y-14467952D01*
X5539333Y-14458428D01*
X5529810Y-14439381D01*
X5520286Y-14401286D01*
X5520286Y-14353667D01*
X5529810Y-14315571D01*
X5539333Y-14296524D01*
X5548857Y-14287000D01*
X5567905Y-14277476D01*
X5758381Y-14277476D02*
X5777428Y-14277476D01*
X5796476Y-14287000D01*
X5806000Y-14296524D01*
X5815524Y-14315571D01*
X5825048Y-14353667D01*
X5825048Y-14401286D01*
X5815524Y-14439381D01*
X5806000Y-14458428D01*
X5796476Y-14467952D01*
X5777428Y-14477476D01*
X5758381Y-14477476D01*
X5739333Y-14467952D01*
X5729809Y-14458428D01*
X5720286Y-14439381D01*
X5710762Y-14401286D01*
X5710762Y-14353667D01*
X5720286Y-14315571D01*
X5729809Y-14296524D01*
X5739333Y-14287000D01*
X5758381Y-14277476D01*
X5910762Y-14477476D02*
X5910762Y-14344143D01*
X5910762Y-14363190D02*
X5920286Y-14353667D01*
X5939333Y-14344143D01*
X5967905Y-14344143D01*
X5986952Y-14353667D01*
X5996476Y-14372714D01*
X5996476Y-14477476D01*
X5996476Y-14372714D02*
X6006000Y-14353667D01*
X6025048Y-14344143D01*
X6053619Y-14344143D01*
X6072667Y-14353667D01*
X6082190Y-14372714D01*
X6082190Y-14477476D01*
X6177428Y-14477476D02*
X6177428Y-14344143D01*
X6177428Y-14363190D02*
X6186952Y-14353667D01*
X6206000Y-14344143D01*
X6234571Y-14344143D01*
X6253619Y-14353667D01*
X6263143Y-14372714D01*
X6263143Y-14477476D01*
X6263143Y-14372714D02*
X6272667Y-14353667D01*
X6291714Y-14344143D01*
X6320286Y-14344143D01*
X6339333Y-14353667D01*
X6348857Y-14372714D01*
X6348857Y-14477476D01*
X6739333Y-14267952D02*
X6567905Y-14525095D01*
X6996476Y-14277476D02*
X7015524Y-14277476D01*
X7034571Y-14287000D01*
X7044095Y-14296524D01*
X7053619Y-14315571D01*
X7063143Y-14353667D01*
X7063143Y-14401286D01*
X7053619Y-14439381D01*
X7044095Y-14458428D01*
X7034571Y-14467952D01*
X7015524Y-14477476D01*
X6996476Y-14477476D01*
X6977428Y-14467952D01*
X6967905Y-14458428D01*
X6958381Y-14439381D01*
X6948857Y-14401286D01*
X6948857Y-14353667D01*
X6958381Y-14315571D01*
X6967905Y-14296524D01*
X6977428Y-14287000D01*
X6996476Y-14277476D01*
X7148857Y-14458428D02*
X7158381Y-14467952D01*
X7148857Y-14477476D01*
X7139333Y-14467952D01*
X7148857Y-14458428D01*
X7148857Y-14477476D01*
X7282190Y-14277476D02*
X7301238Y-14277476D01*
X7320286Y-14287000D01*
X7329809Y-14296524D01*
X7339333Y-14315571D01*
X7348857Y-14353667D01*
X7348857Y-14401286D01*
X7339333Y-14439381D01*
X7329809Y-14458428D01*
X7320286Y-14467952D01*
X7301238Y-14477476D01*
X7282190Y-14477476D01*
X7263143Y-14467952D01*
X7253619Y-14458428D01*
X7244095Y-14439381D01*
X7234571Y-14401286D01*
X7234571Y-14353667D01*
X7244095Y-14315571D01*
X7253619Y-14296524D01*
X7263143Y-14287000D01*
X7282190Y-14277476D01*
X7520286Y-14344143D02*
X7520286Y-14477476D01*
X7472667Y-14267952D02*
X7425048Y-14410809D01*
X7548857Y-14410809D01*
X7606000Y-14277476D02*
X7729809Y-14277476D01*
X7663143Y-14353667D01*
X7691714Y-14353667D01*
X7710762Y-14363190D01*
X7720286Y-14372714D01*
X7729809Y-14391762D01*
X7729809Y-14439381D01*
X7720286Y-14458428D01*
X7710762Y-14467952D01*
X7691714Y-14477476D01*
X7634571Y-14477476D01*
X7615524Y-14467952D01*
X7606000Y-14458428D01*
X7796476Y-14277476D02*
X7920286Y-14277476D01*
X7853619Y-14353667D01*
X7882190Y-14353667D01*
X7901238Y-14363190D01*
X7910762Y-14372714D01*
X7920286Y-14391762D01*
X7920286Y-14439381D01*
X7910762Y-14458428D01*
X7901238Y-14467952D01*
X7882190Y-14477476D01*
X7825048Y-14477476D01*
X7806000Y-14467952D01*
X7796476Y-14458428D01*
X7996476Y-14277476D02*
X7996476Y-14315571D01*
X8072667Y-14277476D02*
X8072667Y-14315571D01*
X8367905Y-14553667D02*
X8358381Y-14544143D01*
X8339333Y-14515571D01*
X8329809Y-14496524D01*
X8320286Y-14467952D01*
X8310762Y-14420333D01*
X8310762Y-14382238D01*
X8320286Y-14334619D01*
X8329809Y-14306048D01*
X8339333Y-14287000D01*
X8358381Y-14258428D01*
X8367905Y-14248905D01*
X8425048Y-14277476D02*
X8548857Y-14277476D01*
X8482190Y-14353667D01*
X8510762Y-14353667D01*
X8529810Y-14363190D01*
X8539333Y-14372714D01*
X8548857Y-14391762D01*
X8548857Y-14439381D01*
X8539333Y-14458428D01*
X8529810Y-14467952D01*
X8510762Y-14477476D01*
X8453619Y-14477476D01*
X8434571Y-14467952D01*
X8425048Y-14458428D01*
X8786952Y-14477476D02*
X8786952Y-14277476D01*
X8872667Y-14477476D02*
X8872667Y-14372714D01*
X8863143Y-14353667D01*
X8844095Y-14344143D01*
X8815524Y-14344143D01*
X8796476Y-14353667D01*
X8786952Y-14363190D01*
X8996476Y-14477476D02*
X8977429Y-14467952D01*
X8967905Y-14458428D01*
X8958381Y-14439381D01*
X8958381Y-14382238D01*
X8967905Y-14363190D01*
X8977429Y-14353667D01*
X8996476Y-14344143D01*
X9025048Y-14344143D01*
X9044095Y-14353667D01*
X9053619Y-14363190D01*
X9063143Y-14382238D01*
X9063143Y-14439381D01*
X9053619Y-14458428D01*
X9044095Y-14467952D01*
X9025048Y-14477476D01*
X8996476Y-14477476D01*
X9177429Y-14477476D02*
X9158381Y-14467952D01*
X9148857Y-14448905D01*
X9148857Y-14277476D01*
X9329810Y-14467952D02*
X9310762Y-14477476D01*
X9272667Y-14477476D01*
X9253619Y-14467952D01*
X9244095Y-14448905D01*
X9244095Y-14372714D01*
X9253619Y-14353667D01*
X9272667Y-14344143D01*
X9310762Y-14344143D01*
X9329810Y-14353667D01*
X9339333Y-14372714D01*
X9339333Y-14391762D01*
X9244095Y-14410809D01*
X9415524Y-14467952D02*
X9434571Y-14477476D01*
X9472667Y-14477476D01*
X9491714Y-14467952D01*
X9501238Y-14448905D01*
X9501238Y-14439381D01*
X9491714Y-14420333D01*
X9472667Y-14410809D01*
X9444095Y-14410809D01*
X9425048Y-14401286D01*
X9415524Y-14382238D01*
X9415524Y-14372714D01*
X9425048Y-14353667D01*
X9444095Y-14344143D01*
X9472667Y-14344143D01*
X9491714Y-14353667D01*
X9567905Y-14553667D02*
X9577429Y-14544143D01*
X9596476Y-14515571D01*
X9606000Y-14496524D01*
X9615524Y-14467952D01*
X9625048Y-14420333D01*
X9625048Y-14382238D01*
X9615524Y-14334619D01*
X9606000Y-14306048D01*
X9596476Y-14287000D01*
X9577429Y-14258428D01*
X9567905Y-14248905D01*
D20*
X4646000Y-14576000D02*
X4796000Y-14726000D01*
X4796000Y-14576000D02*
X4646000Y-14726000D01*
X4721000Y-14726000D02*
X4796000Y-14651000D01*
X4721000Y-14576000D01*
X4646000Y-14651000D01*
X4721000Y-14726000D01*
D11*
X5158381Y-14741476D02*
X5044095Y-14741476D01*
X5101238Y-14741476D02*
X5101238Y-14541476D01*
X5082190Y-14570048D01*
X5063143Y-14589095D01*
X5044095Y-14598619D01*
X5244095Y-14722428D02*
X5253619Y-14731952D01*
X5244095Y-14741476D01*
X5234571Y-14731952D01*
X5244095Y-14722428D01*
X5244095Y-14741476D01*
X5434571Y-14541476D02*
X5339333Y-14541476D01*
X5329810Y-14636714D01*
X5339333Y-14627190D01*
X5358381Y-14617667D01*
X5406000Y-14617667D01*
X5425048Y-14627190D01*
X5434571Y-14636714D01*
X5444095Y-14655762D01*
X5444095Y-14703381D01*
X5434571Y-14722428D01*
X5425048Y-14731952D01*
X5406000Y-14741476D01*
X5358381Y-14741476D01*
X5339333Y-14731952D01*
X5329810Y-14722428D01*
X5567905Y-14541476D02*
X5586952Y-14541476D01*
X5606000Y-14551000D01*
X5615524Y-14560524D01*
X5625048Y-14579571D01*
X5634571Y-14617667D01*
X5634571Y-14665286D01*
X5625048Y-14703381D01*
X5615524Y-14722428D01*
X5606000Y-14731952D01*
X5586952Y-14741476D01*
X5567905Y-14741476D01*
X5548857Y-14731952D01*
X5539333Y-14722428D01*
X5529810Y-14703381D01*
X5520286Y-14665286D01*
X5520286Y-14617667D01*
X5529810Y-14579571D01*
X5539333Y-14560524D01*
X5548857Y-14551000D01*
X5567905Y-14541476D01*
X5758381Y-14541476D02*
X5777428Y-14541476D01*
X5796476Y-14551000D01*
X5806000Y-14560524D01*
X5815524Y-14579571D01*
X5825048Y-14617667D01*
X5825048Y-14665286D01*
X5815524Y-14703381D01*
X5806000Y-14722428D01*
X5796476Y-14731952D01*
X5777428Y-14741476D01*
X5758381Y-14741476D01*
X5739333Y-14731952D01*
X5729809Y-14722428D01*
X5720286Y-14703381D01*
X5710762Y-14665286D01*
X5710762Y-14617667D01*
X5720286Y-14579571D01*
X5729809Y-14560524D01*
X5739333Y-14551000D01*
X5758381Y-14541476D01*
X5910762Y-14741476D02*
X5910762Y-14608143D01*
X5910762Y-14627190D02*
X5920286Y-14617667D01*
X5939333Y-14608143D01*
X5967905Y-14608143D01*
X5986952Y-14617667D01*
X5996476Y-14636714D01*
X5996476Y-14741476D01*
X5996476Y-14636714D02*
X6006000Y-14617667D01*
X6025048Y-14608143D01*
X6053619Y-14608143D01*
X6072667Y-14617667D01*
X6082190Y-14636714D01*
X6082190Y-14741476D01*
X6177428Y-14741476D02*
X6177428Y-14608143D01*
X6177428Y-14627190D02*
X6186952Y-14617667D01*
X6206000Y-14608143D01*
X6234571Y-14608143D01*
X6253619Y-14617667D01*
X6263143Y-14636714D01*
X6263143Y-14741476D01*
X6263143Y-14636714D02*
X6272667Y-14617667D01*
X6291714Y-14608143D01*
X6320286Y-14608143D01*
X6339333Y-14617667D01*
X6348857Y-14636714D01*
X6348857Y-14741476D01*
X6739333Y-14531952D02*
X6567905Y-14789095D01*
X6996476Y-14541476D02*
X7015524Y-14541476D01*
X7034571Y-14551000D01*
X7044095Y-14560524D01*
X7053619Y-14579571D01*
X7063143Y-14617667D01*
X7063143Y-14665286D01*
X7053619Y-14703381D01*
X7044095Y-14722428D01*
X7034571Y-14731952D01*
X7015524Y-14741476D01*
X6996476Y-14741476D01*
X6977428Y-14731952D01*
X6967905Y-14722428D01*
X6958381Y-14703381D01*
X6948857Y-14665286D01*
X6948857Y-14617667D01*
X6958381Y-14579571D01*
X6967905Y-14560524D01*
X6977428Y-14551000D01*
X6996476Y-14541476D01*
X7148857Y-14722428D02*
X7158381Y-14731952D01*
X7148857Y-14741476D01*
X7139333Y-14731952D01*
X7148857Y-14722428D01*
X7148857Y-14741476D01*
X7282190Y-14541476D02*
X7301238Y-14541476D01*
X7320286Y-14551000D01*
X7329809Y-14560524D01*
X7339333Y-14579571D01*
X7348857Y-14617667D01*
X7348857Y-14665286D01*
X7339333Y-14703381D01*
X7329809Y-14722428D01*
X7320286Y-14731952D01*
X7301238Y-14741476D01*
X7282190Y-14741476D01*
X7263143Y-14731952D01*
X7253619Y-14722428D01*
X7244095Y-14703381D01*
X7234571Y-14665286D01*
X7234571Y-14617667D01*
X7244095Y-14579571D01*
X7253619Y-14560524D01*
X7263143Y-14551000D01*
X7282190Y-14541476D01*
X7529809Y-14541476D02*
X7434571Y-14541476D01*
X7425048Y-14636714D01*
X7434571Y-14627190D01*
X7453619Y-14617667D01*
X7501238Y-14617667D01*
X7520286Y-14627190D01*
X7529809Y-14636714D01*
X7539333Y-14655762D01*
X7539333Y-14703381D01*
X7529809Y-14722428D01*
X7520286Y-14731952D01*
X7501238Y-14741476D01*
X7453619Y-14741476D01*
X7434571Y-14731952D01*
X7425048Y-14722428D01*
X7634571Y-14741476D02*
X7672667Y-14741476D01*
X7691714Y-14731952D01*
X7701238Y-14722428D01*
X7720286Y-14693857D01*
X7729809Y-14655762D01*
X7729809Y-14579571D01*
X7720286Y-14560524D01*
X7710762Y-14551000D01*
X7691714Y-14541476D01*
X7653619Y-14541476D01*
X7634571Y-14551000D01*
X7625048Y-14560524D01*
X7615524Y-14579571D01*
X7615524Y-14627190D01*
X7625048Y-14646238D01*
X7634571Y-14655762D01*
X7653619Y-14665286D01*
X7691714Y-14665286D01*
X7710762Y-14655762D01*
X7720286Y-14646238D01*
X7729809Y-14627190D01*
X7920286Y-14741476D02*
X7806000Y-14741476D01*
X7863143Y-14741476D02*
X7863143Y-14541476D01*
X7844095Y-14570048D01*
X7825048Y-14589095D01*
X7806000Y-14598619D01*
X7996476Y-14541476D02*
X7996476Y-14579571D01*
X8072667Y-14541476D02*
X8072667Y-14579571D01*
X8367905Y-14817667D02*
X8358381Y-14808143D01*
X8339333Y-14779571D01*
X8329809Y-14760524D01*
X8320286Y-14731952D01*
X8310762Y-14684333D01*
X8310762Y-14646238D01*
X8320286Y-14598619D01*
X8329809Y-14570048D01*
X8339333Y-14551000D01*
X8358381Y-14522428D01*
X8367905Y-14512905D01*
X8529810Y-14608143D02*
X8529810Y-14741476D01*
X8482190Y-14531952D02*
X8434571Y-14674809D01*
X8558381Y-14674809D01*
X8786952Y-14741476D02*
X8786952Y-14541476D01*
X8872667Y-14741476D02*
X8872667Y-14636714D01*
X8863143Y-14617667D01*
X8844095Y-14608143D01*
X8815524Y-14608143D01*
X8796476Y-14617667D01*
X8786952Y-14627190D01*
X8996476Y-14741476D02*
X8977429Y-14731952D01*
X8967905Y-14722428D01*
X8958381Y-14703381D01*
X8958381Y-14646238D01*
X8967905Y-14627190D01*
X8977429Y-14617667D01*
X8996476Y-14608143D01*
X9025048Y-14608143D01*
X9044095Y-14617667D01*
X9053619Y-14627190D01*
X9063143Y-14646238D01*
X9063143Y-14703381D01*
X9053619Y-14722428D01*
X9044095Y-14731952D01*
X9025048Y-14741476D01*
X8996476Y-14741476D01*
X9177429Y-14741476D02*
X9158381Y-14731952D01*
X9148857Y-14712905D01*
X9148857Y-14541476D01*
X9329810Y-14731952D02*
X9310762Y-14741476D01*
X9272667Y-14741476D01*
X9253619Y-14731952D01*
X9244095Y-14712905D01*
X9244095Y-14636714D01*
X9253619Y-14617667D01*
X9272667Y-14608143D01*
X9310762Y-14608143D01*
X9329810Y-14617667D01*
X9339333Y-14636714D01*
X9339333Y-14655762D01*
X9244095Y-14674809D01*
X9415524Y-14731952D02*
X9434571Y-14741476D01*
X9472667Y-14741476D01*
X9491714Y-14731952D01*
X9501238Y-14712905D01*
X9501238Y-14703381D01*
X9491714Y-14684333D01*
X9472667Y-14674809D01*
X9444095Y-14674809D01*
X9425048Y-14665286D01*
X9415524Y-14646238D01*
X9415524Y-14636714D01*
X9425048Y-14617667D01*
X9444095Y-14608143D01*
X9472667Y-14608143D01*
X9491714Y-14617667D01*
X9567905Y-14817667D02*
X9577429Y-14808143D01*
X9596476Y-14779571D01*
X9606000Y-14760524D01*
X9615524Y-14731952D01*
X9625048Y-14684333D01*
X9625048Y-14646238D01*
X9615524Y-14598619D01*
X9606000Y-14570048D01*
X9596476Y-14551000D01*
X9577429Y-14522428D01*
X9567905Y-14512905D01*
X4696000Y-14821000D02*
X4696000Y-15021000D01*
X4596000Y-14921000D02*
X4796000Y-14921000D01*
X4796000Y-14921000D02*
G75*
G03*
X4796000Y-14921000I-100000J0D01*
G01*
X5044095Y-14830524D02*
X5053619Y-14821000D01*
X5072667Y-14811476D01*
X5120286Y-14811476D01*
X5139333Y-14821000D01*
X5148857Y-14830524D01*
X5158381Y-14849571D01*
X5158381Y-14868619D01*
X5148857Y-14897190D01*
X5034571Y-15011476D01*
X5158381Y-15011476D01*
X5244095Y-14992428D02*
X5253619Y-15001952D01*
X5244095Y-15011476D01*
X5234571Y-15001952D01*
X5244095Y-14992428D01*
X5244095Y-15011476D01*
X5377429Y-14811476D02*
X5396476Y-14811476D01*
X5415524Y-14821000D01*
X5425048Y-14830524D01*
X5434571Y-14849571D01*
X5444095Y-14887667D01*
X5444095Y-14935286D01*
X5434571Y-14973381D01*
X5425048Y-14992428D01*
X5415524Y-15001952D01*
X5396476Y-15011476D01*
X5377429Y-15011476D01*
X5358381Y-15001952D01*
X5348857Y-14992428D01*
X5339333Y-14973381D01*
X5329810Y-14935286D01*
X5329810Y-14887667D01*
X5339333Y-14849571D01*
X5348857Y-14830524D01*
X5358381Y-14821000D01*
X5377429Y-14811476D01*
X5567905Y-14811476D02*
X5586952Y-14811476D01*
X5606000Y-14821000D01*
X5615524Y-14830524D01*
X5625048Y-14849571D01*
X5634571Y-14887667D01*
X5634571Y-14935286D01*
X5625048Y-14973381D01*
X5615524Y-14992428D01*
X5606000Y-15001952D01*
X5586952Y-15011476D01*
X5567905Y-15011476D01*
X5548857Y-15001952D01*
X5539333Y-14992428D01*
X5529810Y-14973381D01*
X5520286Y-14935286D01*
X5520286Y-14887667D01*
X5529810Y-14849571D01*
X5539333Y-14830524D01*
X5548857Y-14821000D01*
X5567905Y-14811476D01*
X5758381Y-14811476D02*
X5777428Y-14811476D01*
X5796476Y-14821000D01*
X5806000Y-14830524D01*
X5815524Y-14849571D01*
X5825048Y-14887667D01*
X5825048Y-14935286D01*
X5815524Y-14973381D01*
X5806000Y-14992428D01*
X5796476Y-15001952D01*
X5777428Y-15011476D01*
X5758381Y-15011476D01*
X5739333Y-15001952D01*
X5729809Y-14992428D01*
X5720286Y-14973381D01*
X5710762Y-14935286D01*
X5710762Y-14887667D01*
X5720286Y-14849571D01*
X5729809Y-14830524D01*
X5739333Y-14821000D01*
X5758381Y-14811476D01*
X5910762Y-15011476D02*
X5910762Y-14878143D01*
X5910762Y-14897190D02*
X5920286Y-14887667D01*
X5939333Y-14878143D01*
X5967905Y-14878143D01*
X5986952Y-14887667D01*
X5996476Y-14906714D01*
X5996476Y-15011476D01*
X5996476Y-14906714D02*
X6006000Y-14887667D01*
X6025048Y-14878143D01*
X6053619Y-14878143D01*
X6072667Y-14887667D01*
X6082190Y-14906714D01*
X6082190Y-15011476D01*
X6177428Y-15011476D02*
X6177428Y-14878143D01*
X6177428Y-14897190D02*
X6186952Y-14887667D01*
X6206000Y-14878143D01*
X6234571Y-14878143D01*
X6253619Y-14887667D01*
X6263143Y-14906714D01*
X6263143Y-15011476D01*
X6263143Y-14906714D02*
X6272667Y-14887667D01*
X6291714Y-14878143D01*
X6320286Y-14878143D01*
X6339333Y-14887667D01*
X6348857Y-14906714D01*
X6348857Y-15011476D01*
X6739333Y-14801952D02*
X6567905Y-15059095D01*
X6996476Y-14811476D02*
X7015524Y-14811476D01*
X7034571Y-14821000D01*
X7044095Y-14830524D01*
X7053619Y-14849571D01*
X7063143Y-14887667D01*
X7063143Y-14935286D01*
X7053619Y-14973381D01*
X7044095Y-14992428D01*
X7034571Y-15001952D01*
X7015524Y-15011476D01*
X6996476Y-15011476D01*
X6977428Y-15001952D01*
X6967905Y-14992428D01*
X6958381Y-14973381D01*
X6948857Y-14935286D01*
X6948857Y-14887667D01*
X6958381Y-14849571D01*
X6967905Y-14830524D01*
X6977428Y-14821000D01*
X6996476Y-14811476D01*
X7148857Y-14992428D02*
X7158381Y-15001952D01*
X7148857Y-15011476D01*
X7139333Y-15001952D01*
X7148857Y-14992428D01*
X7148857Y-15011476D01*
X7282190Y-14811476D02*
X7301238Y-14811476D01*
X7320286Y-14821000D01*
X7329809Y-14830524D01*
X7339333Y-14849571D01*
X7348857Y-14887667D01*
X7348857Y-14935286D01*
X7339333Y-14973381D01*
X7329809Y-14992428D01*
X7320286Y-15001952D01*
X7301238Y-15011476D01*
X7282190Y-15011476D01*
X7263143Y-15001952D01*
X7253619Y-14992428D01*
X7244095Y-14973381D01*
X7234571Y-14935286D01*
X7234571Y-14887667D01*
X7244095Y-14849571D01*
X7253619Y-14830524D01*
X7263143Y-14821000D01*
X7282190Y-14811476D01*
X7415524Y-14811476D02*
X7548857Y-14811476D01*
X7463143Y-15011476D01*
X7653619Y-14897190D02*
X7634571Y-14887667D01*
X7625048Y-14878143D01*
X7615524Y-14859095D01*
X7615524Y-14849571D01*
X7625048Y-14830524D01*
X7634571Y-14821000D01*
X7653619Y-14811476D01*
X7691714Y-14811476D01*
X7710762Y-14821000D01*
X7720286Y-14830524D01*
X7729809Y-14849571D01*
X7729809Y-14859095D01*
X7720286Y-14878143D01*
X7710762Y-14887667D01*
X7691714Y-14897190D01*
X7653619Y-14897190D01*
X7634571Y-14906714D01*
X7625048Y-14916238D01*
X7615524Y-14935286D01*
X7615524Y-14973381D01*
X7625048Y-14992428D01*
X7634571Y-15001952D01*
X7653619Y-15011476D01*
X7691714Y-15011476D01*
X7710762Y-15001952D01*
X7720286Y-14992428D01*
X7729809Y-14973381D01*
X7729809Y-14935286D01*
X7720286Y-14916238D01*
X7710762Y-14906714D01*
X7691714Y-14897190D01*
X7796476Y-14811476D02*
X7929809Y-14811476D01*
X7844095Y-15011476D01*
X7996476Y-14811476D02*
X7996476Y-14849571D01*
X8072667Y-14811476D02*
X8072667Y-14849571D01*
X8367905Y-15087667D02*
X8358381Y-15078143D01*
X8339333Y-15049571D01*
X8329809Y-15030524D01*
X8320286Y-15001952D01*
X8310762Y-14954333D01*
X8310762Y-14916238D01*
X8320286Y-14868619D01*
X8329809Y-14840048D01*
X8339333Y-14821000D01*
X8358381Y-14792428D01*
X8367905Y-14782905D01*
X8548857Y-15011476D02*
X8434571Y-15011476D01*
X8491714Y-15011476D02*
X8491714Y-14811476D01*
X8472667Y-14840048D01*
X8453619Y-14859095D01*
X8434571Y-14868619D01*
X8786952Y-15011476D02*
X8786952Y-14811476D01*
X8872667Y-15011476D02*
X8872667Y-14906714D01*
X8863143Y-14887667D01*
X8844095Y-14878143D01*
X8815524Y-14878143D01*
X8796476Y-14887667D01*
X8786952Y-14897190D01*
X8996476Y-15011476D02*
X8977429Y-15001952D01*
X8967905Y-14992428D01*
X8958381Y-14973381D01*
X8958381Y-14916238D01*
X8967905Y-14897190D01*
X8977429Y-14887667D01*
X8996476Y-14878143D01*
X9025048Y-14878143D01*
X9044095Y-14887667D01*
X9053619Y-14897190D01*
X9063143Y-14916238D01*
X9063143Y-14973381D01*
X9053619Y-14992428D01*
X9044095Y-15001952D01*
X9025048Y-15011476D01*
X8996476Y-15011476D01*
X9177429Y-15011476D02*
X9158381Y-15001952D01*
X9148857Y-14982905D01*
X9148857Y-14811476D01*
X9329810Y-15001952D02*
X9310762Y-15011476D01*
X9272667Y-15011476D01*
X9253619Y-15001952D01*
X9244095Y-14982905D01*
X9244095Y-14906714D01*
X9253619Y-14887667D01*
X9272667Y-14878143D01*
X9310762Y-14878143D01*
X9329810Y-14887667D01*
X9339333Y-14906714D01*
X9339333Y-14925762D01*
X9244095Y-14944809D01*
X9406000Y-15087667D02*
X9415524Y-15078143D01*
X9434571Y-15049571D01*
X9444095Y-15030524D01*
X9453619Y-15001952D01*
X9463143Y-14954333D01*
X9463143Y-14916238D01*
X9453619Y-14868619D01*
X9444095Y-14840048D01*
X9434571Y-14821000D01*
X9415524Y-14792428D01*
X9406000Y-14782905D01*
X9767905Y-15087667D02*
X9758381Y-15078143D01*
X9739333Y-15049571D01*
X9729810Y-15030524D01*
X9720286Y-15001952D01*
X9710762Y-14954333D01*
X9710762Y-14916238D01*
X9720286Y-14868619D01*
X9729810Y-14840048D01*
X9739333Y-14821000D01*
X9758381Y-14792428D01*
X9767905Y-14782905D01*
X9844095Y-14878143D02*
X9844095Y-15011476D01*
X9844095Y-14897190D02*
X9853619Y-14887667D01*
X9872667Y-14878143D01*
X9901238Y-14878143D01*
X9920286Y-14887667D01*
X9929810Y-14906714D01*
X9929810Y-15011476D01*
X10053619Y-15011476D02*
X10034571Y-15001952D01*
X10025048Y-14992428D01*
X10015524Y-14973381D01*
X10015524Y-14916238D01*
X10025048Y-14897190D01*
X10034571Y-14887667D01*
X10053619Y-14878143D01*
X10082190Y-14878143D01*
X10101238Y-14887667D01*
X10110762Y-14897190D01*
X10120286Y-14916238D01*
X10120286Y-14973381D01*
X10110762Y-14992428D01*
X10101238Y-15001952D01*
X10082190Y-15011476D01*
X10053619Y-15011476D01*
X10177429Y-14878143D02*
X10253619Y-14878143D01*
X10206000Y-14811476D02*
X10206000Y-14982905D01*
X10215524Y-15001952D01*
X10234571Y-15011476D01*
X10253619Y-15011476D01*
X10472667Y-14878143D02*
X10472667Y-15078143D01*
X10472667Y-14887667D02*
X10491714Y-14878143D01*
X10529810Y-14878143D01*
X10548857Y-14887667D01*
X10558381Y-14897190D01*
X10567905Y-14916238D01*
X10567905Y-14973381D01*
X10558381Y-14992428D01*
X10548857Y-15001952D01*
X10529810Y-15011476D01*
X10491714Y-15011476D01*
X10472667Y-15001952D01*
X10682190Y-15011476D02*
X10663143Y-15001952D01*
X10653619Y-14982905D01*
X10653619Y-14811476D01*
X10844095Y-15011476D02*
X10844095Y-14906714D01*
X10834571Y-14887667D01*
X10815524Y-14878143D01*
X10777429Y-14878143D01*
X10758381Y-14887667D01*
X10844095Y-15001952D02*
X10825048Y-15011476D01*
X10777429Y-15011476D01*
X10758381Y-15001952D01*
X10748857Y-14982905D01*
X10748857Y-14963857D01*
X10758381Y-14944809D01*
X10777429Y-14935286D01*
X10825048Y-14935286D01*
X10844095Y-14925762D01*
X10910762Y-14878143D02*
X10986952Y-14878143D01*
X10939333Y-14811476D02*
X10939333Y-14982905D01*
X10948857Y-15001952D01*
X10967905Y-15011476D01*
X10986952Y-15011476D01*
X11129810Y-15001952D02*
X11110762Y-15011476D01*
X11072667Y-15011476D01*
X11053619Y-15001952D01*
X11044095Y-14982905D01*
X11044095Y-14906714D01*
X11053619Y-14887667D01*
X11072667Y-14878143D01*
X11110762Y-14878143D01*
X11129810Y-14887667D01*
X11139333Y-14906714D01*
X11139333Y-14925762D01*
X11044095Y-14944809D01*
X11310762Y-15011476D02*
X11310762Y-14811476D01*
X11310762Y-15001952D02*
X11291714Y-15011476D01*
X11253619Y-15011476D01*
X11234571Y-15001952D01*
X11225048Y-14992428D01*
X11215524Y-14973381D01*
X11215524Y-14916238D01*
X11225048Y-14897190D01*
X11234571Y-14887667D01*
X11253619Y-14878143D01*
X11291714Y-14878143D01*
X11310762Y-14887667D01*
X11386952Y-15087667D02*
X11396476Y-15078143D01*
X11415524Y-15049571D01*
X11425048Y-15030524D01*
X11434571Y-15001952D01*
X11444095Y-14954333D01*
X11444095Y-14916238D01*
X11434571Y-14868619D01*
X11425048Y-14840048D01*
X11415524Y-14821000D01*
X11396476Y-14792428D01*
X11386952Y-14782905D01*
X4766711Y-15311711D02*
X4766711Y-15170289D01*
X4625289Y-15170289D01*
X4625289Y-15311711D01*
X4766711Y-15311711D01*
X4796000Y-15241000D02*
G75*
G03*
X4796000Y-15241000I-100000J0D01*
G01*
X5034571Y-15131476D02*
X5158381Y-15131476D01*
X5091714Y-15207667D01*
X5120286Y-15207667D01*
X5139333Y-15217190D01*
X5148857Y-15226714D01*
X5158381Y-15245762D01*
X5158381Y-15293381D01*
X5148857Y-15312428D01*
X5139333Y-15321952D01*
X5120286Y-15331476D01*
X5063143Y-15331476D01*
X5044095Y-15321952D01*
X5034571Y-15312428D01*
X5244095Y-15312428D02*
X5253619Y-15321952D01*
X5244095Y-15331476D01*
X5234571Y-15321952D01*
X5244095Y-15312428D01*
X5244095Y-15331476D01*
X5434571Y-15131476D02*
X5339333Y-15131476D01*
X5329810Y-15226714D01*
X5339333Y-15217190D01*
X5358381Y-15207667D01*
X5406000Y-15207667D01*
X5425048Y-15217190D01*
X5434571Y-15226714D01*
X5444095Y-15245762D01*
X5444095Y-15293381D01*
X5434571Y-15312428D01*
X5425048Y-15321952D01*
X5406000Y-15331476D01*
X5358381Y-15331476D01*
X5339333Y-15321952D01*
X5329810Y-15312428D01*
X5567905Y-15131476D02*
X5586952Y-15131476D01*
X5606000Y-15141000D01*
X5615524Y-15150524D01*
X5625048Y-15169571D01*
X5634571Y-15207667D01*
X5634571Y-15255286D01*
X5625048Y-15293381D01*
X5615524Y-15312428D01*
X5606000Y-15321952D01*
X5586952Y-15331476D01*
X5567905Y-15331476D01*
X5548857Y-15321952D01*
X5539333Y-15312428D01*
X5529810Y-15293381D01*
X5520286Y-15255286D01*
X5520286Y-15207667D01*
X5529810Y-15169571D01*
X5539333Y-15150524D01*
X5548857Y-15141000D01*
X5567905Y-15131476D01*
X5758381Y-15131476D02*
X5777428Y-15131476D01*
X5796476Y-15141000D01*
X5806000Y-15150524D01*
X5815524Y-15169571D01*
X5825048Y-15207667D01*
X5825048Y-15255286D01*
X5815524Y-15293381D01*
X5806000Y-15312428D01*
X5796476Y-15321952D01*
X5777428Y-15331476D01*
X5758381Y-15331476D01*
X5739333Y-15321952D01*
X5729809Y-15312428D01*
X5720286Y-15293381D01*
X5710762Y-15255286D01*
X5710762Y-15207667D01*
X5720286Y-15169571D01*
X5729809Y-15150524D01*
X5739333Y-15141000D01*
X5758381Y-15131476D01*
X5910762Y-15331476D02*
X5910762Y-15198143D01*
X5910762Y-15217190D02*
X5920286Y-15207667D01*
X5939333Y-15198143D01*
X5967905Y-15198143D01*
X5986952Y-15207667D01*
X5996476Y-15226714D01*
X5996476Y-15331476D01*
X5996476Y-15226714D02*
X6006000Y-15207667D01*
X6025048Y-15198143D01*
X6053619Y-15198143D01*
X6072667Y-15207667D01*
X6082190Y-15226714D01*
X6082190Y-15331476D01*
X6177428Y-15331476D02*
X6177428Y-15198143D01*
X6177428Y-15217190D02*
X6186952Y-15207667D01*
X6206000Y-15198143D01*
X6234571Y-15198143D01*
X6253619Y-15207667D01*
X6263143Y-15226714D01*
X6263143Y-15331476D01*
X6263143Y-15226714D02*
X6272667Y-15207667D01*
X6291714Y-15198143D01*
X6320286Y-15198143D01*
X6339333Y-15207667D01*
X6348857Y-15226714D01*
X6348857Y-15331476D01*
X6739333Y-15121952D02*
X6567905Y-15379095D01*
X6996476Y-15131476D02*
X7015524Y-15131476D01*
X7034571Y-15141000D01*
X7044095Y-15150524D01*
X7053619Y-15169571D01*
X7063143Y-15207667D01*
X7063143Y-15255286D01*
X7053619Y-15293381D01*
X7044095Y-15312428D01*
X7034571Y-15321952D01*
X7015524Y-15331476D01*
X6996476Y-15331476D01*
X6977428Y-15321952D01*
X6967905Y-15312428D01*
X6958381Y-15293381D01*
X6948857Y-15255286D01*
X6948857Y-15207667D01*
X6958381Y-15169571D01*
X6967905Y-15150524D01*
X6977428Y-15141000D01*
X6996476Y-15131476D01*
X7148857Y-15312428D02*
X7158381Y-15321952D01*
X7148857Y-15331476D01*
X7139333Y-15321952D01*
X7148857Y-15312428D01*
X7148857Y-15331476D01*
X7348857Y-15331476D02*
X7234571Y-15331476D01*
X7291714Y-15331476D02*
X7291714Y-15131476D01*
X7272667Y-15160048D01*
X7253619Y-15179095D01*
X7234571Y-15188619D01*
X7415524Y-15131476D02*
X7539333Y-15131476D01*
X7472667Y-15207667D01*
X7501238Y-15207667D01*
X7520286Y-15217190D01*
X7529809Y-15226714D01*
X7539333Y-15245762D01*
X7539333Y-15293381D01*
X7529809Y-15312428D01*
X7520286Y-15321952D01*
X7501238Y-15331476D01*
X7444095Y-15331476D01*
X7425048Y-15321952D01*
X7415524Y-15312428D01*
X7606000Y-15131476D02*
X7739333Y-15131476D01*
X7653619Y-15331476D01*
X7844095Y-15217190D02*
X7825048Y-15207667D01*
X7815524Y-15198143D01*
X7806000Y-15179095D01*
X7806000Y-15169571D01*
X7815524Y-15150524D01*
X7825048Y-15141000D01*
X7844095Y-15131476D01*
X7882190Y-15131476D01*
X7901238Y-15141000D01*
X7910762Y-15150524D01*
X7920286Y-15169571D01*
X7920286Y-15179095D01*
X7910762Y-15198143D01*
X7901238Y-15207667D01*
X7882190Y-15217190D01*
X7844095Y-15217190D01*
X7825048Y-15226714D01*
X7815524Y-15236238D01*
X7806000Y-15255286D01*
X7806000Y-15293381D01*
X7815524Y-15312428D01*
X7825048Y-15321952D01*
X7844095Y-15331476D01*
X7882190Y-15331476D01*
X7901238Y-15321952D01*
X7910762Y-15312428D01*
X7920286Y-15293381D01*
X7920286Y-15255286D01*
X7910762Y-15236238D01*
X7901238Y-15226714D01*
X7882190Y-15217190D01*
X7996476Y-15131476D02*
X7996476Y-15169571D01*
X8072667Y-15131476D02*
X8072667Y-15169571D01*
X8367905Y-15407667D02*
X8358381Y-15398143D01*
X8339333Y-15369571D01*
X8329809Y-15350524D01*
X8320286Y-15321952D01*
X8310762Y-15274333D01*
X8310762Y-15236238D01*
X8320286Y-15188619D01*
X8329809Y-15160048D01*
X8339333Y-15141000D01*
X8358381Y-15112428D01*
X8367905Y-15102905D01*
X8529810Y-15198143D02*
X8529810Y-15331476D01*
X8482190Y-15121952D02*
X8434571Y-15264809D01*
X8558381Y-15264809D01*
X8786952Y-15331476D02*
X8786952Y-15131476D01*
X8872667Y-15331476D02*
X8872667Y-15226714D01*
X8863143Y-15207667D01*
X8844095Y-15198143D01*
X8815524Y-15198143D01*
X8796476Y-15207667D01*
X8786952Y-15217190D01*
X8996476Y-15331476D02*
X8977429Y-15321952D01*
X8967905Y-15312428D01*
X8958381Y-15293381D01*
X8958381Y-15236238D01*
X8967905Y-15217190D01*
X8977429Y-15207667D01*
X8996476Y-15198143D01*
X9025048Y-15198143D01*
X9044095Y-15207667D01*
X9053619Y-15217190D01*
X9063143Y-15236238D01*
X9063143Y-15293381D01*
X9053619Y-15312428D01*
X9044095Y-15321952D01*
X9025048Y-15331476D01*
X8996476Y-15331476D01*
X9177429Y-15331476D02*
X9158381Y-15321952D01*
X9148857Y-15302905D01*
X9148857Y-15131476D01*
X9329810Y-15321952D02*
X9310762Y-15331476D01*
X9272667Y-15331476D01*
X9253619Y-15321952D01*
X9244095Y-15302905D01*
X9244095Y-15226714D01*
X9253619Y-15207667D01*
X9272667Y-15198143D01*
X9310762Y-15198143D01*
X9329810Y-15207667D01*
X9339333Y-15226714D01*
X9339333Y-15245762D01*
X9244095Y-15264809D01*
X9415524Y-15321952D02*
X9434571Y-15331476D01*
X9472667Y-15331476D01*
X9491714Y-15321952D01*
X9501238Y-15302905D01*
X9501238Y-15293381D01*
X9491714Y-15274333D01*
X9472667Y-15264809D01*
X9444095Y-15264809D01*
X9425048Y-15255286D01*
X9415524Y-15236238D01*
X9415524Y-15226714D01*
X9425048Y-15207667D01*
X9444095Y-15198143D01*
X9472667Y-15198143D01*
X9491714Y-15207667D01*
X9567905Y-15407667D02*
X9577429Y-15398143D01*
X9596476Y-15369571D01*
X9606000Y-15350524D01*
X9615524Y-15321952D01*
X9625048Y-15274333D01*
X9625048Y-15236238D01*
X9615524Y-15188619D01*
X9606000Y-15160048D01*
X9596476Y-15141000D01*
X9577429Y-15112428D01*
X9567905Y-15102905D01*
X9929810Y-15407667D02*
X9920286Y-15398143D01*
X9901238Y-15369571D01*
X9891714Y-15350524D01*
X9882190Y-15321952D01*
X9872667Y-15274333D01*
X9872667Y-15236238D01*
X9882190Y-15188619D01*
X9891714Y-15160048D01*
X9901238Y-15141000D01*
X9920286Y-15112428D01*
X9929810Y-15102905D01*
X10006000Y-15198143D02*
X10006000Y-15331476D01*
X10006000Y-15217190D02*
X10015524Y-15207667D01*
X10034571Y-15198143D01*
X10063143Y-15198143D01*
X10082190Y-15207667D01*
X10091714Y-15226714D01*
X10091714Y-15331476D01*
X10215524Y-15331476D02*
X10196476Y-15321952D01*
X10186952Y-15312428D01*
X10177429Y-15293381D01*
X10177429Y-15236238D01*
X10186952Y-15217190D01*
X10196476Y-15207667D01*
X10215524Y-15198143D01*
X10244095Y-15198143D01*
X10263143Y-15207667D01*
X10272667Y-15217190D01*
X10282190Y-15236238D01*
X10282190Y-15293381D01*
X10272667Y-15312428D01*
X10263143Y-15321952D01*
X10244095Y-15331476D01*
X10215524Y-15331476D01*
X10339333Y-15198143D02*
X10415524Y-15198143D01*
X10367905Y-15131476D02*
X10367905Y-15302905D01*
X10377429Y-15321952D01*
X10396476Y-15331476D01*
X10415524Y-15331476D01*
X10634571Y-15198143D02*
X10634571Y-15398143D01*
X10634571Y-15207667D02*
X10653619Y-15198143D01*
X10691714Y-15198143D01*
X10710762Y-15207667D01*
X10720286Y-15217190D01*
X10729810Y-15236238D01*
X10729810Y-15293381D01*
X10720286Y-15312428D01*
X10710762Y-15321952D01*
X10691714Y-15331476D01*
X10653619Y-15331476D01*
X10634571Y-15321952D01*
X10844095Y-15331476D02*
X10825048Y-15321952D01*
X10815524Y-15302905D01*
X10815524Y-15131476D01*
X11006000Y-15331476D02*
X11006000Y-15226714D01*
X10996476Y-15207667D01*
X10977429Y-15198143D01*
X10939333Y-15198143D01*
X10920286Y-15207667D01*
X11006000Y-15321952D02*
X10986952Y-15331476D01*
X10939333Y-15331476D01*
X10920286Y-15321952D01*
X10910762Y-15302905D01*
X10910762Y-15283857D01*
X10920286Y-15264809D01*
X10939333Y-15255286D01*
X10986952Y-15255286D01*
X11006000Y-15245762D01*
X11072667Y-15198143D02*
X11148857Y-15198143D01*
X11101238Y-15131476D02*
X11101238Y-15302905D01*
X11110762Y-15321952D01*
X11129810Y-15331476D01*
X11148857Y-15331476D01*
X11291714Y-15321952D02*
X11272667Y-15331476D01*
X11234571Y-15331476D01*
X11215524Y-15321952D01*
X11206000Y-15302905D01*
X11206000Y-15226714D01*
X11215524Y-15207667D01*
X11234571Y-15198143D01*
X11272667Y-15198143D01*
X11291714Y-15207667D01*
X11301238Y-15226714D01*
X11301238Y-15245762D01*
X11206000Y-15264809D01*
X11472667Y-15331476D02*
X11472667Y-15131476D01*
X11472667Y-15321952D02*
X11453619Y-15331476D01*
X11415524Y-15331476D01*
X11396476Y-15321952D01*
X11386952Y-15312428D01*
X11377428Y-15293381D01*
X11377428Y-15236238D01*
X11386952Y-15217190D01*
X11396476Y-15207667D01*
X11415524Y-15198143D01*
X11453619Y-15198143D01*
X11472667Y-15207667D01*
X11548857Y-15407667D02*
X11558381Y-15398143D01*
X11577428Y-15369571D01*
X11586952Y-15350524D01*
X11596476Y-15321952D01*
X11606000Y-15274333D01*
X11606000Y-15236238D01*
X11596476Y-15188619D01*
X11586952Y-15160048D01*
X11577428Y-15141000D01*
X11558381Y-15112428D01*
X11548857Y-15102905D01*
M02*
