M48
; DRILL file {KiCad (6.0.4-0)} date Friday, June 23, 2023 at 08:25:14 AM
; FORMAT={-:-/ absolute / metric / decimal}
; #@! TF.CreationDate,2023-06-23T08:25:14-04:00
; #@! TF.GenerationSoftware,Kicad,Pcbnew,(6.0.4-0)
; #@! TF.FileFunction,Plated,1,2,PTH
FMAT,2
METRIC
; #@! TA.AperFunction,Plated,PTH,ComponentDrill
T1C0.300
; #@! TA.AperFunction,Plated,PTH,ComponentDrill
T2C0.331
; #@! TA.AperFunction,Plated,PTH,ViaDrill
T3C0.400
; #@! TA.AperFunction,Plated,PTH,ComponentDrill
T4C0.800
; #@! TA.AperFunction,Plated,PTH,ComponentDrill
T5C1.000
; #@! TA.AperFunction,Plated,PTH,ComponentDrill
T6C1.001
; #@! TA.AperFunction,Plated,PTH,ComponentDrill
T7C1.016
; #@! TA.AperFunction,Plated,PTH,ComponentDrill
T8C1.100
; #@! TA.AperFunction,Plated,PTH,ComponentDrill
T9C1.500
%
G90
G05
T1
X88.891Y-77.05
X88.891Y-78.05
X89.391Y-77.55
X89.891Y-77.05
X89.891Y-78.05
T2
X86.613Y-97.253
X92.27Y-102.91
X113.54Y-103.13
X119.197Y-108.787
X121.6Y-98.99
X129.6Y-98.99
T3
X49.96Y-97.74
X49.98Y-100.22
X49.98Y-112.98
X49.98Y-115.17
X50.0Y-117.63
X50.01Y-103.13
X50.01Y-110.59
X50.04Y-81.42
X50.07Y-79.14
X50.09Y-75.77
X50.11Y-68.11
X50.15Y-61.2
X50.15Y-64.37
X52.25Y-117.63
X52.49Y-86.04
X52.62Y-89.11
X52.66Y-83.86
X52.77Y-92.21
X52.88Y-61.2
X53.06Y-87.43
X53.57Y-66.11
X54.58Y-87.44
X54.76Y-117.6
X55.45Y-82.66
X55.47Y-80.58
X55.78Y-61.2
X55.89Y-91.81
X56.18Y-94.28
X56.19Y-87.4
X56.276Y-89.085
X57.09Y-93.27
X57.26Y-117.58
X57.29Y-86.46
X57.83Y-82.45
X57.88Y-80.66
X58.05Y-83.81
X58.21Y-87.46
X58.23Y-85.39
X58.295Y-88.97
X58.69Y-61.2
X59.06Y-94.5
X59.07Y-80.61
X59.39Y-72.5
X60.0Y-117.58
X60.71Y-92.65
X61.31Y-86.33
X61.39Y-93.35
X61.57Y-84.73
X61.59Y-61.17
X61.63Y-79.94
X61.8Y-91.29
X62.2Y-79.25
X62.36Y-72.47
X62.53Y-92.65
X62.7Y-117.56
X63.014Y-75.434
X63.1Y-83.75
X63.76Y-93.52
X64.12Y-104.0
X64.45Y-61.17
X64.79Y-66.67
X65.61Y-117.57
X65.79Y-87.88
X66.22Y-94.02
X66.23Y-103.97
X66.31Y-85.44
X66.51Y-66.77
X66.57Y-68.32
X66.6Y-69.9
X66.7Y-75.3
X66.77Y-71.03
X66.79Y-80.32
X66.85Y-101.7
X67.0Y-76.65
X67.34Y-111.0
X67.78Y-90.76
X68.05Y-100.63
X68.49Y-117.57
X68.58Y-77.11
X68.607Y-65.61
X68.607Y-67.48
X68.607Y-69.29
X68.607Y-71.03
X68.61Y-75.2
X68.65Y-73.59
X69.09Y-99.55
X69.564Y-88.79
X69.61Y-87.28
X69.85Y-86.1
X70.35Y-90.11
X70.45Y-101.09
X70.63Y-98.4
X70.67Y-67.61
X70.69Y-92.04
X70.7Y-71.91
X70.94Y-88.74
X71.55Y-117.57
X71.74Y-97.11
X71.75Y-90.53
X71.97Y-93.42
X72.01Y-96.07
X72.08Y-101.15
X72.474Y-81.59
X72.474Y-82.81
X72.89Y-85.42
X72.93Y-87.22
X73.76Y-89.54
X73.766Y-94.85
X73.766Y-96.36
X74.62Y-117.53
X74.85Y-90.575
X74.93Y-88.6
X75.38Y-92.54
X75.38Y-104.15
X75.49Y-87.53
X75.65Y-89.54
X76.04Y-84.87
X76.37Y-91.3
X76.47Y-81.38
X76.63Y-79.91
X76.68Y-103.22
X76.88Y-100.23
X76.91Y-98.6
X77.02Y-110.97
X77.3Y-92.46
X77.32Y-83.94
X77.37Y-61.14
X77.49Y-85.35
X77.49Y-89.56
X77.53Y-87.5
X77.63Y-117.53
X77.82Y-75.45
X79.41Y-98.96
X79.44Y-94.47
X80.04Y-61.14
X80.2Y-96.76
X80.32Y-93.66
X80.956Y-98.96
X80.99Y-117.51
X81.68Y-107.61
X82.22Y-82.78
X82.25Y-81.02
X83.01Y-106.47
X83.06Y-70.07
X83.07Y-79.52
X83.1Y-67.03
X83.17Y-61.13
X83.84Y-98.86
X83.95Y-69.5
X84.07Y-101.27
X84.09Y-117.54
X84.34Y-82.78
X84.36Y-65.63
X84.39Y-78.68
X84.88Y-68.24
X85.22Y-70.33
X85.6Y-64.56
X85.92Y-87.91
X85.94Y-71.7
X85.96Y-108.32
X86.12Y-67.06
X86.27Y-101.36
X86.32Y-61.13
X86.4Y-99.7
X86.44Y-82.73
X86.44Y-117.54
X86.48Y-69.15
X86.53Y-104.27
X86.55Y-106.71
X87.13Y-87.91
X87.3Y-64.02
X87.32Y-66.094
X88.38Y-79.98
X88.38Y-82.1
X88.41Y-106.97
X88.42Y-105.5
X88.45Y-103.77
X88.57Y-69.17
X88.68Y-80.99
X88.81Y-117.35
X88.95Y-71.43
X88.96Y-75.14
X89.04Y-73.23
X89.42Y-80.0
X89.43Y-82.52
X89.54Y-61.025
X89.84Y-70.37
X89.84Y-72.29
X89.84Y-74.08
X90.0Y-102.72
X90.14Y-75.19
X90.18Y-81.0
X90.38Y-82.1
X90.402Y-79.969
X90.85Y-69.2
X90.91Y-98.575
X92.51Y-61.06
X92.79Y-69.22
X93.16Y-72.93
X93.18Y-74.88
X93.2Y-71.09
X93.38Y-104.47
X93.41Y-100.21
X93.42Y-97.85
X94.784Y-79.568
X94.83Y-103.0
X94.86Y-104.6
X95.07Y-75.02
X95.27Y-61.04
X95.38Y-117.88
X95.84Y-79.34
X96.891Y-79.563
X97.09Y-75.17
X97.453Y-86.923
X97.78Y-117.88
X97.96Y-79.335
X97.98Y-61.11
X98.662Y-83.522
X98.73Y-85.8
X98.998Y-79.613
X99.13Y-74.71
X99.632Y-82.552
X99.98Y-84.6
X100.11Y-75.16
X100.155Y-117.899
X100.25Y-79.17
X100.422Y-86.662
X100.67Y-81.51
X101.0Y-61.031
X101.18Y-83.36
X101.23Y-80.17
X101.412Y-85.672
X101.7Y-66.5
X102.15Y-117.89
X102.483Y-81.893
X102.51Y-84.51
X103.54Y-75.93
X103.76Y-87.91
X103.78Y-61.04
X104.07Y-65.67
X104.209Y-81.05
X104.209Y-82.76
X104.209Y-84.47
X104.332Y-79.148
X104.49Y-114.03
X104.53Y-112.4
X104.55Y-76.99
X104.77Y-117.89
X104.86Y-68.0
X105.16Y-96.13
X105.322Y-80.138
X105.34Y-97.99
X105.37Y-86.35
X105.45Y-66.79
X105.57Y-78.05
X106.267Y-81.083
X106.48Y-85.19
X106.583Y-79.207
X106.66Y-61.04
X106.75Y-108.11
X106.88Y-99.23
X107.15Y-117.89
X107.212Y-82.028
X107.598Y-80.222
X107.64Y-84.14
X108.69Y-99.66
X108.793Y-81.417
X109.01Y-112.38
X109.34Y-107.38
X109.42Y-61.01
X109.42Y-109.03
X109.6Y-117.86
X110.07Y-104.65
X110.99Y-111.9
X112.3Y-112.07
X112.5Y-61.05
X112.68Y-105.7
X112.785Y-83.095
X112.8Y-117.83
X113.36Y-108.71
X114.955Y-83.095
X115.3Y-61.08
X116.27Y-117.77
X117.2Y-113.82
X117.72Y-110.18
X117.76Y-111.94
X118.55Y-61.08
X119.73Y-117.72
X121.64Y-61.08
X122.02Y-78.35
X123.58Y-117.77
X123.64Y-80.94
X123.71Y-79.18
X124.54Y-61.08
X126.83Y-117.72
X127.5Y-61.02
X129.87Y-65.77
X129.9Y-61.05
X129.9Y-67.98
X129.91Y-115.24
X129.91Y-117.77
X129.93Y-63.42
X129.96Y-112.05
X132.61Y-69.79
X133.01Y-108.35
X135.32Y-69.82
X136.0Y-108.4
X138.85Y-101.58
X138.94Y-69.97
X138.95Y-91.12
X138.95Y-98.04
X138.97Y-72.98
X138.97Y-75.87
X139.0Y-81.2
X139.0Y-87.63
X139.0Y-105.16
X139.03Y-78.7
X139.05Y-108.45
T4
X102.82Y-89.91
X102.82Y-94.91
X105.96Y-102.74
X110.96Y-102.74
X119.16Y-101.95
X123.14Y-85.54
X123.14Y-90.54
X124.16Y-101.95
T5
X57.49Y-67.985
X57.49Y-70.525
X60.635Y-63.71
X61.27Y-111.78
X61.27Y-114.32
X63.175Y-63.71
X67.757Y-61.99
X70.297Y-61.99
X70.41Y-111.78
X70.41Y-114.32
X72.837Y-61.99
X75.377Y-61.99
X78.055Y-67.49
X78.055Y-70.03
X80.95Y-74.555
X80.95Y-77.095
X80.95Y-79.635
X91.75Y-116.68
X94.29Y-116.68
X94.39Y-63.27
X96.83Y-116.68
X96.93Y-63.27
X98.87Y-89.415
X98.87Y-91.955
X98.87Y-94.495
X99.37Y-116.68
X101.89Y-110.235
X101.89Y-112.775
X103.74Y-116.6
X103.955Y-71.25
X103.955Y-73.79
X106.28Y-116.6
X108.82Y-116.6
T6
X101.5Y-100.34
X101.5Y-102.88
X101.5Y-105.42
T7
X105.328Y-91.085
X109.354Y-93.028
X110.59Y-110.2
X111.25Y-107.84
X112.402Y-96.061
X114.345Y-100.087
X114.99Y-110.73
X115.73Y-112.86
T8
X89.12Y-62.62
X89.12Y-67.22
X132.475Y-89.412
T9
X127.45Y-84.388
X127.45Y-94.438
X137.5Y-84.388
X137.5Y-94.438
T0
M30
